G04 #@! TF.GenerationSoftware,KiCad,Pcbnew,(5.1.10)-1*
G04 #@! TF.CreationDate,2021-05-26T14:01:48+03:00*
G04 #@! TF.ProjectId,parasite,70617261-7369-4746-952e-6b696361645f,1.0.0*
G04 #@! TF.SameCoordinates,Original*
G04 #@! TF.FileFunction,Copper,L2,Bot*
G04 #@! TF.FilePolarity,Positive*
%FSLAX46Y46*%
G04 Gerber Fmt 4.6, Leading zero omitted, Abs format (unit mm)*
G04 Created by KiCad (PCBNEW (5.1.10)-1) date 2021-05-26 14:01:48*
%MOMM*%
%LPD*%
G01*
G04 APERTURE LIST*
G04 #@! TA.AperFunction,ComponentPad*
%ADD10C,1.600000*%
G04 #@! TD*
G04 #@! TA.AperFunction,SMDPad,CuDef*
%ADD11C,17.800000*%
G04 #@! TD*
G04 #@! TA.AperFunction,SMDPad,CuDef*
%ADD12R,5.100000X5.100000*%
G04 #@! TD*
G04 #@! TA.AperFunction,ViaPad*
%ADD13C,0.800000*%
G04 #@! TD*
G04 #@! TA.AperFunction,Conductor*
%ADD14C,0.250000*%
G04 #@! TD*
G04 #@! TA.AperFunction,Conductor*
%ADD15C,0.500000*%
G04 #@! TD*
G04 #@! TA.AperFunction,Conductor*
%ADD16C,0.254000*%
G04 #@! TD*
G04 #@! TA.AperFunction,Conductor*
%ADD17C,0.100000*%
G04 #@! TD*
G04 APERTURE END LIST*
D10*
X74560000Y-29050000D03*
X77100000Y-29050000D03*
D11*
X67100000Y-54900000D03*
D12*
X67100000Y-42100000D03*
X67100000Y-67700000D03*
D13*
X68700000Y-60700000D03*
X65800000Y-61100000D03*
X74800000Y-53800000D03*
X74800000Y-54700000D03*
X71300000Y-52400000D03*
X72200000Y-52400000D03*
X63500000Y-51400000D03*
X63500000Y-50500000D03*
X63500000Y-49600000D03*
X67198744Y-55038241D03*
X64100000Y-55237500D03*
X65862500Y-55237500D03*
X63500000Y-38200000D03*
X64700000Y-38200000D03*
X65800000Y-38200000D03*
X67100000Y-38200000D03*
X67100000Y-67700000D03*
X67800000Y-67000000D03*
X68550000Y-66250000D03*
X63000000Y-33800000D03*
X75100000Y-31800000D03*
X63800000Y-64300000D03*
X62100000Y-35600000D03*
X60900000Y-45600000D03*
X58400000Y-50400000D03*
X59699999Y-33500000D03*
X71800000Y-34700000D03*
X76100000Y-38200000D03*
X69500000Y-34400000D03*
X75900000Y-40300000D03*
X69500000Y-34400000D03*
X75300000Y-43200000D03*
X73119000Y-42600000D03*
X74700000Y-45700000D03*
X71600000Y-37700000D03*
X70800000Y-36300000D03*
X74493886Y-47510431D03*
D14*
X63225000Y-38275000D02*
X63300000Y-38200000D01*
X63200000Y-38200000D02*
X64500000Y-38200000D01*
X65800000Y-38200000D02*
X67100000Y-38200000D01*
D15*
X76450001Y-61399999D02*
X76450001Y-50450001D01*
X70150000Y-67700000D02*
X76450001Y-61399999D01*
X67100000Y-67700000D02*
X70150000Y-67700000D01*
X67825453Y-42100000D02*
X67100000Y-42100000D01*
X74085885Y-48360432D02*
X67825453Y-42100000D01*
X74360432Y-48360432D02*
X74085885Y-48360432D01*
X76450001Y-50450001D02*
X74360432Y-48360432D01*
D14*
X65000000Y-31800000D02*
X75100000Y-31800000D01*
X63000000Y-33800000D02*
X65000000Y-31800000D01*
X62846998Y-64300000D02*
X63800000Y-64300000D01*
X59351998Y-32774999D02*
X57674999Y-34451998D01*
X57674999Y-59128001D02*
X62846998Y-64300000D01*
X57674999Y-34451998D02*
X57674999Y-59128001D01*
X61974999Y-32774999D02*
X59351998Y-32774999D01*
X63000000Y-33800000D02*
X61974999Y-32774999D01*
X62100000Y-36165685D02*
X62500000Y-36565685D01*
X62100000Y-35600000D02*
X62100000Y-36165685D01*
X62500000Y-36565685D02*
X62500000Y-43000000D01*
X62500000Y-43000000D02*
X60900000Y-44600000D01*
X60900000Y-44600000D02*
X60900000Y-45600000D01*
X58400000Y-34799999D02*
X58400000Y-50400000D01*
X59699999Y-33500000D02*
X58400000Y-34799999D01*
X71800000Y-34700000D02*
X75500000Y-38400000D01*
X75900000Y-38400000D02*
X76100000Y-38200000D01*
X75500000Y-38400000D02*
X75900000Y-38400000D01*
X71000001Y-35400001D02*
X75900000Y-40300000D01*
X69500000Y-34400000D02*
X69899999Y-34799999D01*
X70500001Y-35400001D02*
X69500000Y-34400000D01*
X71000001Y-35400001D02*
X70500001Y-35400001D01*
X73719000Y-43200000D02*
X73119000Y-42600000D01*
X75300000Y-43200000D02*
X73719000Y-43200000D01*
X74700000Y-45700000D02*
X71600000Y-42600000D01*
X71600000Y-42600000D02*
X71600000Y-37700000D01*
X74400000Y-47500000D02*
X74400000Y-46500000D01*
X74400000Y-46500000D02*
X70800000Y-42900000D01*
X70800000Y-42900000D02*
X70800000Y-36300000D01*
D16*
X78340001Y-126726618D02*
X68556139Y-136510479D01*
X68417802Y-136624109D01*
X68288623Y-136693375D01*
X68148451Y-136736230D01*
X68002623Y-136751043D01*
X67856695Y-136737248D01*
X67716222Y-136695371D01*
X67586563Y-136627010D01*
X67448982Y-136515599D01*
X57660000Y-126726620D01*
X57660000Y-67794731D01*
X58915870Y-67794731D01*
X58915870Y-68205269D01*
X58995962Y-68607918D01*
X59153068Y-68987206D01*
X59381151Y-69328555D01*
X59671445Y-69618849D01*
X60012794Y-69846932D01*
X60392082Y-70004038D01*
X60794731Y-70084130D01*
X61205269Y-70084130D01*
X61607918Y-70004038D01*
X61987206Y-69846932D01*
X62328555Y-69618849D01*
X62618849Y-69328555D01*
X62846932Y-68987206D01*
X63004038Y-68607918D01*
X63084130Y-68205269D01*
X63084130Y-67794731D01*
X63004038Y-67392082D01*
X62846932Y-67012794D01*
X62618849Y-66671445D01*
X62328555Y-66381151D01*
X61987206Y-66153068D01*
X61607918Y-65995962D01*
X61205269Y-65915870D01*
X60794731Y-65915870D01*
X60392082Y-65995962D01*
X60012794Y-66153068D01*
X59671445Y-66381151D01*
X59381151Y-66671445D01*
X59153068Y-67012794D01*
X58995962Y-67392082D01*
X58915870Y-67794731D01*
X57660000Y-67794731D01*
X57660000Y-60187803D01*
X62283199Y-64811003D01*
X62306997Y-64840001D01*
X62335995Y-64863799D01*
X62422721Y-64934974D01*
X62554751Y-65005546D01*
X62698012Y-65049003D01*
X62809665Y-65060000D01*
X62809674Y-65060000D01*
X62846997Y-65063676D01*
X62884320Y-65060000D01*
X63096289Y-65060000D01*
X63140226Y-65103937D01*
X63309744Y-65217205D01*
X63498102Y-65295226D01*
X63698061Y-65335000D01*
X63901939Y-65335000D01*
X63911928Y-65333013D01*
X63911928Y-70250000D01*
X63924188Y-70374482D01*
X63960498Y-70494180D01*
X64019463Y-70604494D01*
X64098815Y-70701185D01*
X64195506Y-70780537D01*
X64305820Y-70839502D01*
X64425518Y-70875812D01*
X64550000Y-70888072D01*
X69650000Y-70888072D01*
X69774482Y-70875812D01*
X69894180Y-70839502D01*
X70004494Y-70780537D01*
X70101185Y-70701185D01*
X70180537Y-70604494D01*
X70239502Y-70494180D01*
X70275812Y-70374482D01*
X70288072Y-70250000D01*
X70288072Y-68575683D01*
X70323490Y-68572195D01*
X70490313Y-68521589D01*
X70644059Y-68439411D01*
X70778817Y-68328817D01*
X70806534Y-68295044D01*
X71306847Y-67794731D01*
X72915870Y-67794731D01*
X72915870Y-68205269D01*
X72995962Y-68607918D01*
X73153068Y-68987206D01*
X73381151Y-69328555D01*
X73671445Y-69618849D01*
X74012794Y-69846932D01*
X74392082Y-70004038D01*
X74794731Y-70084130D01*
X75205269Y-70084130D01*
X75607918Y-70004038D01*
X75987206Y-69846932D01*
X76328555Y-69618849D01*
X76618849Y-69328555D01*
X76846932Y-68987206D01*
X77004038Y-68607918D01*
X77084130Y-68205269D01*
X77084130Y-67794731D01*
X77004038Y-67392082D01*
X76846932Y-67012794D01*
X76618849Y-66671445D01*
X76328555Y-66381151D01*
X75987206Y-66153068D01*
X75607918Y-65995962D01*
X75205269Y-65915870D01*
X74794731Y-65915870D01*
X74392082Y-65995962D01*
X74012794Y-66153068D01*
X73671445Y-66381151D01*
X73381151Y-66671445D01*
X73153068Y-67012794D01*
X72995962Y-67392082D01*
X72915870Y-67794731D01*
X71306847Y-67794731D01*
X77045052Y-62056527D01*
X77078818Y-62028816D01*
X77189412Y-61894058D01*
X77271590Y-61740312D01*
X77322196Y-61573489D01*
X77335001Y-61443476D01*
X77335001Y-61443468D01*
X77339282Y-61399999D01*
X77335001Y-61356530D01*
X77335001Y-50493470D01*
X77339282Y-50450001D01*
X77335001Y-50406532D01*
X77335001Y-50406524D01*
X77322196Y-50276511D01*
X77271590Y-50109688D01*
X77189412Y-49955942D01*
X77078818Y-49821184D01*
X77045050Y-49793471D01*
X75347474Y-48095896D01*
X75411091Y-48000687D01*
X75489112Y-47812329D01*
X75528886Y-47612370D01*
X75528886Y-47408492D01*
X75489112Y-47208533D01*
X75411091Y-47020175D01*
X75297823Y-46850657D01*
X75160000Y-46712834D01*
X75160000Y-46629738D01*
X75190256Y-46617205D01*
X75359774Y-46503937D01*
X75503937Y-46359774D01*
X75617205Y-46190256D01*
X75695226Y-46001898D01*
X75735000Y-45801939D01*
X75735000Y-45598061D01*
X75695226Y-45398102D01*
X75617205Y-45209744D01*
X75503937Y-45040226D01*
X75359774Y-44896063D01*
X75190256Y-44782795D01*
X75001898Y-44704774D01*
X74801939Y-44665000D01*
X74739802Y-44665000D01*
X74034802Y-43960000D01*
X74596289Y-43960000D01*
X74640226Y-44003937D01*
X74809744Y-44117205D01*
X74998102Y-44195226D01*
X75198061Y-44235000D01*
X75401939Y-44235000D01*
X75601898Y-44195226D01*
X75790256Y-44117205D01*
X75959774Y-44003937D01*
X76103937Y-43859774D01*
X76217205Y-43690256D01*
X76295226Y-43501898D01*
X76335000Y-43301939D01*
X76335000Y-43098061D01*
X76295226Y-42898102D01*
X76217205Y-42709744D01*
X76103937Y-42540226D01*
X75959774Y-42396063D01*
X75790256Y-42282795D01*
X75601898Y-42204774D01*
X75401939Y-42165000D01*
X75198061Y-42165000D01*
X74998102Y-42204774D01*
X74809744Y-42282795D01*
X74640226Y-42396063D01*
X74596289Y-42440000D01*
X74142451Y-42440000D01*
X74114226Y-42298102D01*
X74036205Y-42109744D01*
X73922937Y-41940226D01*
X73778774Y-41796063D01*
X73609256Y-41682795D01*
X73420898Y-41604774D01*
X73220939Y-41565000D01*
X73017061Y-41565000D01*
X72817102Y-41604774D01*
X72628744Y-41682795D01*
X72459226Y-41796063D01*
X72360000Y-41895289D01*
X72360000Y-38403711D01*
X72403937Y-38359774D01*
X72517205Y-38190256D01*
X72575271Y-38050073D01*
X74865000Y-40339802D01*
X74865000Y-40401939D01*
X74904774Y-40601898D01*
X74982795Y-40790256D01*
X75096063Y-40959774D01*
X75240226Y-41103937D01*
X75409744Y-41217205D01*
X75598102Y-41295226D01*
X75798061Y-41335000D01*
X76001939Y-41335000D01*
X76201898Y-41295226D01*
X76390256Y-41217205D01*
X76559774Y-41103937D01*
X76703937Y-40959774D01*
X76817205Y-40790256D01*
X76895226Y-40601898D01*
X76935000Y-40401939D01*
X76935000Y-40198061D01*
X76895226Y-39998102D01*
X76817205Y-39809744D01*
X76703937Y-39640226D01*
X76559774Y-39496063D01*
X76390256Y-39382795D01*
X76201898Y-39304774D01*
X76001939Y-39265000D01*
X75939802Y-39265000D01*
X75887887Y-39213085D01*
X75998061Y-39235000D01*
X76201939Y-39235000D01*
X76401898Y-39195226D01*
X76590256Y-39117205D01*
X76759774Y-39003937D01*
X76903937Y-38859774D01*
X77017205Y-38690256D01*
X77095226Y-38501898D01*
X77135000Y-38301939D01*
X77135000Y-38098061D01*
X77095226Y-37898102D01*
X77017205Y-37709744D01*
X76903937Y-37540226D01*
X76759774Y-37396063D01*
X76590256Y-37282795D01*
X76401898Y-37204774D01*
X76201939Y-37165000D01*
X75998061Y-37165000D01*
X75798102Y-37204774D01*
X75609744Y-37282795D01*
X75518538Y-37343736D01*
X72835000Y-34660199D01*
X72835000Y-34598061D01*
X72795226Y-34398102D01*
X72717205Y-34209744D01*
X72603937Y-34040226D01*
X72459774Y-33896063D01*
X72290256Y-33782795D01*
X72101898Y-33704774D01*
X71901939Y-33665000D01*
X71698061Y-33665000D01*
X71498102Y-33704774D01*
X71309744Y-33782795D01*
X71140226Y-33896063D01*
X70996063Y-34040226D01*
X70882795Y-34209744D01*
X70804774Y-34398102D01*
X70766305Y-34591503D01*
X70535000Y-34360199D01*
X70535000Y-34298061D01*
X70495226Y-34098102D01*
X70417205Y-33909744D01*
X70303937Y-33740226D01*
X70159774Y-33596063D01*
X69990256Y-33482795D01*
X69801898Y-33404774D01*
X69601939Y-33365000D01*
X69398061Y-33365000D01*
X69198102Y-33404774D01*
X69009744Y-33482795D01*
X68840226Y-33596063D01*
X68696063Y-33740226D01*
X68582795Y-33909744D01*
X68504774Y-34098102D01*
X68465000Y-34298061D01*
X68465000Y-34501939D01*
X68504774Y-34701898D01*
X68582795Y-34890256D01*
X68696063Y-35059774D01*
X68840226Y-35203937D01*
X69009744Y-35317205D01*
X69198102Y-35395226D01*
X69398061Y-35435000D01*
X69460199Y-35435000D01*
X69868779Y-35843581D01*
X69804774Y-35998102D01*
X69765000Y-36198061D01*
X69765000Y-36401939D01*
X69804774Y-36601898D01*
X69882795Y-36790256D01*
X69996063Y-36959774D01*
X70040001Y-37003712D01*
X70040001Y-39048602D01*
X70004494Y-39019463D01*
X69894180Y-38960498D01*
X69774482Y-38924188D01*
X69650000Y-38911928D01*
X64550000Y-38911928D01*
X64425518Y-38924188D01*
X64305820Y-38960498D01*
X64195506Y-39019463D01*
X64098815Y-39098815D01*
X64019463Y-39195506D01*
X63960498Y-39305820D01*
X63924188Y-39425518D01*
X63911928Y-39550000D01*
X63911928Y-44650000D01*
X63924188Y-44774482D01*
X63960498Y-44894180D01*
X64019463Y-45004494D01*
X64098815Y-45101185D01*
X64195506Y-45180537D01*
X64305820Y-45239502D01*
X64425518Y-45275812D01*
X64550000Y-45288072D01*
X69650000Y-45288072D01*
X69751910Y-45278035D01*
X70433997Y-45960123D01*
X69212984Y-45554762D01*
X67349218Y-45322106D01*
X65475875Y-45457522D01*
X63664946Y-45955808D01*
X61986024Y-46797814D01*
X61571590Y-47074730D01*
X60527775Y-48148170D01*
X67100000Y-54720395D01*
X67114143Y-54706253D01*
X67293748Y-54885858D01*
X67279605Y-54900000D01*
X73851830Y-61472225D01*
X74925270Y-60428410D01*
X75565001Y-59302989D01*
X75565001Y-61033420D01*
X70288072Y-66310350D01*
X70288072Y-65150000D01*
X70275812Y-65025518D01*
X70239502Y-64905820D01*
X70180537Y-64795506D01*
X70101185Y-64698815D01*
X70004494Y-64619463D01*
X69894180Y-64560498D01*
X69774482Y-64524188D01*
X69650000Y-64511928D01*
X64813122Y-64511928D01*
X64835000Y-64401939D01*
X64835000Y-64198061D01*
X64834299Y-64194538D01*
X64987016Y-64245238D01*
X66850782Y-64477894D01*
X68724125Y-64342478D01*
X70535054Y-63844192D01*
X72213976Y-63002186D01*
X72628410Y-62725270D01*
X73672225Y-61651830D01*
X67100000Y-55079605D01*
X67085858Y-55093748D01*
X66906253Y-54914143D01*
X66920395Y-54900000D01*
X60348170Y-48327775D01*
X59274730Y-49371590D01*
X59160000Y-49573424D01*
X59160000Y-35114800D01*
X59739801Y-34535000D01*
X59801938Y-34535000D01*
X60001897Y-34495226D01*
X60190255Y-34417205D01*
X60359773Y-34303937D01*
X60503936Y-34159774D01*
X60617204Y-33990256D01*
X60695225Y-33801898D01*
X60734999Y-33601939D01*
X60734999Y-33534999D01*
X61660198Y-33534999D01*
X61965000Y-33839802D01*
X61965000Y-33901939D01*
X62004774Y-34101898D01*
X62082795Y-34290256D01*
X62196063Y-34459774D01*
X62325958Y-34589669D01*
X62201939Y-34565000D01*
X61998061Y-34565000D01*
X61798102Y-34604774D01*
X61609744Y-34682795D01*
X61440226Y-34796063D01*
X61296063Y-34940226D01*
X61182795Y-35109744D01*
X61104774Y-35298102D01*
X61065000Y-35498061D01*
X61065000Y-35701939D01*
X61104774Y-35901898D01*
X61182795Y-36090256D01*
X61296063Y-36259774D01*
X61351013Y-36314724D01*
X61394454Y-36457932D01*
X61419037Y-36503921D01*
X61465026Y-36589961D01*
X61526610Y-36665000D01*
X61560000Y-36705686D01*
X61588998Y-36729484D01*
X61740000Y-36880487D01*
X61740001Y-42685197D01*
X60389003Y-44036196D01*
X60359999Y-44059999D01*
X60313052Y-44117205D01*
X60265026Y-44175724D01*
X60254602Y-44195226D01*
X60194454Y-44307754D01*
X60150997Y-44451015D01*
X60140000Y-44562668D01*
X60140000Y-44562678D01*
X60136324Y-44600000D01*
X60140000Y-44637323D01*
X60140000Y-44896289D01*
X60096063Y-44940226D01*
X59982795Y-45109744D01*
X59904774Y-45298102D01*
X59865000Y-45498061D01*
X59865000Y-45701939D01*
X59904774Y-45901898D01*
X59982795Y-46090256D01*
X60096063Y-46259774D01*
X60240226Y-46403937D01*
X60409744Y-46517205D01*
X60598102Y-46595226D01*
X60798061Y-46635000D01*
X61001939Y-46635000D01*
X61201898Y-46595226D01*
X61390256Y-46517205D01*
X61559774Y-46403937D01*
X61703937Y-46259774D01*
X61817205Y-46090256D01*
X61895226Y-45901898D01*
X61935000Y-45701939D01*
X61935000Y-45498061D01*
X61895226Y-45298102D01*
X61817205Y-45109744D01*
X61703937Y-44940226D01*
X61669256Y-44905545D01*
X63011003Y-43563799D01*
X63040001Y-43540001D01*
X63134974Y-43424276D01*
X63205546Y-43292247D01*
X63249003Y-43148986D01*
X63260000Y-43037333D01*
X63260000Y-43037325D01*
X63263676Y-43000000D01*
X63260000Y-42962675D01*
X63260000Y-36603007D01*
X63263676Y-36565684D01*
X63260000Y-36528361D01*
X63260000Y-36528352D01*
X63249003Y-36416699D01*
X63205546Y-36273438D01*
X63134974Y-36141409D01*
X63042627Y-36028883D01*
X63095226Y-35901898D01*
X63135000Y-35701939D01*
X63135000Y-35498061D01*
X63095226Y-35298102D01*
X63017205Y-35109744D01*
X62903937Y-34940226D01*
X62774042Y-34810331D01*
X62898061Y-34835000D01*
X63101939Y-34835000D01*
X63301898Y-34795226D01*
X63490256Y-34717205D01*
X63659774Y-34603937D01*
X63803937Y-34459774D01*
X63917205Y-34290256D01*
X63995226Y-34101898D01*
X64035000Y-33901939D01*
X64035000Y-33839801D01*
X65314802Y-32560000D01*
X74396289Y-32560000D01*
X74440226Y-32603937D01*
X74609744Y-32717205D01*
X74798102Y-32795226D01*
X74998061Y-32835000D01*
X75201939Y-32835000D01*
X75401898Y-32795226D01*
X75590256Y-32717205D01*
X75759774Y-32603937D01*
X75903937Y-32459774D01*
X76017205Y-32290256D01*
X76095226Y-32101898D01*
X76135000Y-31901939D01*
X76135000Y-31698061D01*
X76095226Y-31498102D01*
X76017205Y-31309744D01*
X75903937Y-31140226D01*
X75759774Y-30996063D01*
X75590256Y-30882795D01*
X75401898Y-30804774D01*
X75201939Y-30765000D01*
X74998061Y-30765000D01*
X74798102Y-30804774D01*
X74609744Y-30882795D01*
X74440226Y-30996063D01*
X74396289Y-31040000D01*
X65037322Y-31040000D01*
X64999999Y-31036324D01*
X64962676Y-31040000D01*
X64962667Y-31040000D01*
X64851014Y-31050997D01*
X64707753Y-31094454D01*
X64575723Y-31165026D01*
X64492083Y-31233668D01*
X64459999Y-31259999D01*
X64436201Y-31288997D01*
X63000000Y-32725199D01*
X62538803Y-32264001D01*
X62515000Y-32234998D01*
X62399275Y-32140025D01*
X62267246Y-32069453D01*
X62123985Y-32025996D01*
X62012332Y-32014999D01*
X62012321Y-32014999D01*
X61974999Y-32011323D01*
X61937677Y-32014999D01*
X59389323Y-32014999D01*
X59351998Y-32011323D01*
X59314673Y-32014999D01*
X59314665Y-32014999D01*
X59203012Y-32025996D01*
X59059751Y-32069453D01*
X58927722Y-32140025D01*
X58811997Y-32234998D01*
X58788199Y-32263996D01*
X57660000Y-33392196D01*
X57660000Y-30727000D01*
X78340000Y-30727000D01*
X78340001Y-126726618D01*
G04 #@! TA.AperFunction,Conductor*
D17*
G36*
X78340001Y-126726618D02*
G01*
X68556139Y-136510479D01*
X68417802Y-136624109D01*
X68288623Y-136693375D01*
X68148451Y-136736230D01*
X68002623Y-136751043D01*
X67856695Y-136737248D01*
X67716222Y-136695371D01*
X67586563Y-136627010D01*
X67448982Y-136515599D01*
X57660000Y-126726620D01*
X57660000Y-67794731D01*
X58915870Y-67794731D01*
X58915870Y-68205269D01*
X58995962Y-68607918D01*
X59153068Y-68987206D01*
X59381151Y-69328555D01*
X59671445Y-69618849D01*
X60012794Y-69846932D01*
X60392082Y-70004038D01*
X60794731Y-70084130D01*
X61205269Y-70084130D01*
X61607918Y-70004038D01*
X61987206Y-69846932D01*
X62328555Y-69618849D01*
X62618849Y-69328555D01*
X62846932Y-68987206D01*
X63004038Y-68607918D01*
X63084130Y-68205269D01*
X63084130Y-67794731D01*
X63004038Y-67392082D01*
X62846932Y-67012794D01*
X62618849Y-66671445D01*
X62328555Y-66381151D01*
X61987206Y-66153068D01*
X61607918Y-65995962D01*
X61205269Y-65915870D01*
X60794731Y-65915870D01*
X60392082Y-65995962D01*
X60012794Y-66153068D01*
X59671445Y-66381151D01*
X59381151Y-66671445D01*
X59153068Y-67012794D01*
X58995962Y-67392082D01*
X58915870Y-67794731D01*
X57660000Y-67794731D01*
X57660000Y-60187803D01*
X62283199Y-64811003D01*
X62306997Y-64840001D01*
X62335995Y-64863799D01*
X62422721Y-64934974D01*
X62554751Y-65005546D01*
X62698012Y-65049003D01*
X62809665Y-65060000D01*
X62809674Y-65060000D01*
X62846997Y-65063676D01*
X62884320Y-65060000D01*
X63096289Y-65060000D01*
X63140226Y-65103937D01*
X63309744Y-65217205D01*
X63498102Y-65295226D01*
X63698061Y-65335000D01*
X63901939Y-65335000D01*
X63911928Y-65333013D01*
X63911928Y-70250000D01*
X63924188Y-70374482D01*
X63960498Y-70494180D01*
X64019463Y-70604494D01*
X64098815Y-70701185D01*
X64195506Y-70780537D01*
X64305820Y-70839502D01*
X64425518Y-70875812D01*
X64550000Y-70888072D01*
X69650000Y-70888072D01*
X69774482Y-70875812D01*
X69894180Y-70839502D01*
X70004494Y-70780537D01*
X70101185Y-70701185D01*
X70180537Y-70604494D01*
X70239502Y-70494180D01*
X70275812Y-70374482D01*
X70288072Y-70250000D01*
X70288072Y-68575683D01*
X70323490Y-68572195D01*
X70490313Y-68521589D01*
X70644059Y-68439411D01*
X70778817Y-68328817D01*
X70806534Y-68295044D01*
X71306847Y-67794731D01*
X72915870Y-67794731D01*
X72915870Y-68205269D01*
X72995962Y-68607918D01*
X73153068Y-68987206D01*
X73381151Y-69328555D01*
X73671445Y-69618849D01*
X74012794Y-69846932D01*
X74392082Y-70004038D01*
X74794731Y-70084130D01*
X75205269Y-70084130D01*
X75607918Y-70004038D01*
X75987206Y-69846932D01*
X76328555Y-69618849D01*
X76618849Y-69328555D01*
X76846932Y-68987206D01*
X77004038Y-68607918D01*
X77084130Y-68205269D01*
X77084130Y-67794731D01*
X77004038Y-67392082D01*
X76846932Y-67012794D01*
X76618849Y-66671445D01*
X76328555Y-66381151D01*
X75987206Y-66153068D01*
X75607918Y-65995962D01*
X75205269Y-65915870D01*
X74794731Y-65915870D01*
X74392082Y-65995962D01*
X74012794Y-66153068D01*
X73671445Y-66381151D01*
X73381151Y-66671445D01*
X73153068Y-67012794D01*
X72995962Y-67392082D01*
X72915870Y-67794731D01*
X71306847Y-67794731D01*
X77045052Y-62056527D01*
X77078818Y-62028816D01*
X77189412Y-61894058D01*
X77271590Y-61740312D01*
X77322196Y-61573489D01*
X77335001Y-61443476D01*
X77335001Y-61443468D01*
X77339282Y-61399999D01*
X77335001Y-61356530D01*
X77335001Y-50493470D01*
X77339282Y-50450001D01*
X77335001Y-50406532D01*
X77335001Y-50406524D01*
X77322196Y-50276511D01*
X77271590Y-50109688D01*
X77189412Y-49955942D01*
X77078818Y-49821184D01*
X77045050Y-49793471D01*
X75347474Y-48095896D01*
X75411091Y-48000687D01*
X75489112Y-47812329D01*
X75528886Y-47612370D01*
X75528886Y-47408492D01*
X75489112Y-47208533D01*
X75411091Y-47020175D01*
X75297823Y-46850657D01*
X75160000Y-46712834D01*
X75160000Y-46629738D01*
X75190256Y-46617205D01*
X75359774Y-46503937D01*
X75503937Y-46359774D01*
X75617205Y-46190256D01*
X75695226Y-46001898D01*
X75735000Y-45801939D01*
X75735000Y-45598061D01*
X75695226Y-45398102D01*
X75617205Y-45209744D01*
X75503937Y-45040226D01*
X75359774Y-44896063D01*
X75190256Y-44782795D01*
X75001898Y-44704774D01*
X74801939Y-44665000D01*
X74739802Y-44665000D01*
X74034802Y-43960000D01*
X74596289Y-43960000D01*
X74640226Y-44003937D01*
X74809744Y-44117205D01*
X74998102Y-44195226D01*
X75198061Y-44235000D01*
X75401939Y-44235000D01*
X75601898Y-44195226D01*
X75790256Y-44117205D01*
X75959774Y-44003937D01*
X76103937Y-43859774D01*
X76217205Y-43690256D01*
X76295226Y-43501898D01*
X76335000Y-43301939D01*
X76335000Y-43098061D01*
X76295226Y-42898102D01*
X76217205Y-42709744D01*
X76103937Y-42540226D01*
X75959774Y-42396063D01*
X75790256Y-42282795D01*
X75601898Y-42204774D01*
X75401939Y-42165000D01*
X75198061Y-42165000D01*
X74998102Y-42204774D01*
X74809744Y-42282795D01*
X74640226Y-42396063D01*
X74596289Y-42440000D01*
X74142451Y-42440000D01*
X74114226Y-42298102D01*
X74036205Y-42109744D01*
X73922937Y-41940226D01*
X73778774Y-41796063D01*
X73609256Y-41682795D01*
X73420898Y-41604774D01*
X73220939Y-41565000D01*
X73017061Y-41565000D01*
X72817102Y-41604774D01*
X72628744Y-41682795D01*
X72459226Y-41796063D01*
X72360000Y-41895289D01*
X72360000Y-38403711D01*
X72403937Y-38359774D01*
X72517205Y-38190256D01*
X72575271Y-38050073D01*
X74865000Y-40339802D01*
X74865000Y-40401939D01*
X74904774Y-40601898D01*
X74982795Y-40790256D01*
X75096063Y-40959774D01*
X75240226Y-41103937D01*
X75409744Y-41217205D01*
X75598102Y-41295226D01*
X75798061Y-41335000D01*
X76001939Y-41335000D01*
X76201898Y-41295226D01*
X76390256Y-41217205D01*
X76559774Y-41103937D01*
X76703937Y-40959774D01*
X76817205Y-40790256D01*
X76895226Y-40601898D01*
X76935000Y-40401939D01*
X76935000Y-40198061D01*
X76895226Y-39998102D01*
X76817205Y-39809744D01*
X76703937Y-39640226D01*
X76559774Y-39496063D01*
X76390256Y-39382795D01*
X76201898Y-39304774D01*
X76001939Y-39265000D01*
X75939802Y-39265000D01*
X75887887Y-39213085D01*
X75998061Y-39235000D01*
X76201939Y-39235000D01*
X76401898Y-39195226D01*
X76590256Y-39117205D01*
X76759774Y-39003937D01*
X76903937Y-38859774D01*
X77017205Y-38690256D01*
X77095226Y-38501898D01*
X77135000Y-38301939D01*
X77135000Y-38098061D01*
X77095226Y-37898102D01*
X77017205Y-37709744D01*
X76903937Y-37540226D01*
X76759774Y-37396063D01*
X76590256Y-37282795D01*
X76401898Y-37204774D01*
X76201939Y-37165000D01*
X75998061Y-37165000D01*
X75798102Y-37204774D01*
X75609744Y-37282795D01*
X75518538Y-37343736D01*
X72835000Y-34660199D01*
X72835000Y-34598061D01*
X72795226Y-34398102D01*
X72717205Y-34209744D01*
X72603937Y-34040226D01*
X72459774Y-33896063D01*
X72290256Y-33782795D01*
X72101898Y-33704774D01*
X71901939Y-33665000D01*
X71698061Y-33665000D01*
X71498102Y-33704774D01*
X71309744Y-33782795D01*
X71140226Y-33896063D01*
X70996063Y-34040226D01*
X70882795Y-34209744D01*
X70804774Y-34398102D01*
X70766305Y-34591503D01*
X70535000Y-34360199D01*
X70535000Y-34298061D01*
X70495226Y-34098102D01*
X70417205Y-33909744D01*
X70303937Y-33740226D01*
X70159774Y-33596063D01*
X69990256Y-33482795D01*
X69801898Y-33404774D01*
X69601939Y-33365000D01*
X69398061Y-33365000D01*
X69198102Y-33404774D01*
X69009744Y-33482795D01*
X68840226Y-33596063D01*
X68696063Y-33740226D01*
X68582795Y-33909744D01*
X68504774Y-34098102D01*
X68465000Y-34298061D01*
X68465000Y-34501939D01*
X68504774Y-34701898D01*
X68582795Y-34890256D01*
X68696063Y-35059774D01*
X68840226Y-35203937D01*
X69009744Y-35317205D01*
X69198102Y-35395226D01*
X69398061Y-35435000D01*
X69460199Y-35435000D01*
X69868779Y-35843581D01*
X69804774Y-35998102D01*
X69765000Y-36198061D01*
X69765000Y-36401939D01*
X69804774Y-36601898D01*
X69882795Y-36790256D01*
X69996063Y-36959774D01*
X70040001Y-37003712D01*
X70040001Y-39048602D01*
X70004494Y-39019463D01*
X69894180Y-38960498D01*
X69774482Y-38924188D01*
X69650000Y-38911928D01*
X64550000Y-38911928D01*
X64425518Y-38924188D01*
X64305820Y-38960498D01*
X64195506Y-39019463D01*
X64098815Y-39098815D01*
X64019463Y-39195506D01*
X63960498Y-39305820D01*
X63924188Y-39425518D01*
X63911928Y-39550000D01*
X63911928Y-44650000D01*
X63924188Y-44774482D01*
X63960498Y-44894180D01*
X64019463Y-45004494D01*
X64098815Y-45101185D01*
X64195506Y-45180537D01*
X64305820Y-45239502D01*
X64425518Y-45275812D01*
X64550000Y-45288072D01*
X69650000Y-45288072D01*
X69751910Y-45278035D01*
X70433997Y-45960123D01*
X69212984Y-45554762D01*
X67349218Y-45322106D01*
X65475875Y-45457522D01*
X63664946Y-45955808D01*
X61986024Y-46797814D01*
X61571590Y-47074730D01*
X60527775Y-48148170D01*
X67100000Y-54720395D01*
X67114143Y-54706253D01*
X67293748Y-54885858D01*
X67279605Y-54900000D01*
X73851830Y-61472225D01*
X74925270Y-60428410D01*
X75565001Y-59302989D01*
X75565001Y-61033420D01*
X70288072Y-66310350D01*
X70288072Y-65150000D01*
X70275812Y-65025518D01*
X70239502Y-64905820D01*
X70180537Y-64795506D01*
X70101185Y-64698815D01*
X70004494Y-64619463D01*
X69894180Y-64560498D01*
X69774482Y-64524188D01*
X69650000Y-64511928D01*
X64813122Y-64511928D01*
X64835000Y-64401939D01*
X64835000Y-64198061D01*
X64834299Y-64194538D01*
X64987016Y-64245238D01*
X66850782Y-64477894D01*
X68724125Y-64342478D01*
X70535054Y-63844192D01*
X72213976Y-63002186D01*
X72628410Y-62725270D01*
X73672225Y-61651830D01*
X67100000Y-55079605D01*
X67085858Y-55093748D01*
X66906253Y-54914143D01*
X66920395Y-54900000D01*
X60348170Y-48327775D01*
X59274730Y-49371590D01*
X59160000Y-49573424D01*
X59160000Y-35114800D01*
X59739801Y-34535000D01*
X59801938Y-34535000D01*
X60001897Y-34495226D01*
X60190255Y-34417205D01*
X60359773Y-34303937D01*
X60503936Y-34159774D01*
X60617204Y-33990256D01*
X60695225Y-33801898D01*
X60734999Y-33601939D01*
X60734999Y-33534999D01*
X61660198Y-33534999D01*
X61965000Y-33839802D01*
X61965000Y-33901939D01*
X62004774Y-34101898D01*
X62082795Y-34290256D01*
X62196063Y-34459774D01*
X62325958Y-34589669D01*
X62201939Y-34565000D01*
X61998061Y-34565000D01*
X61798102Y-34604774D01*
X61609744Y-34682795D01*
X61440226Y-34796063D01*
X61296063Y-34940226D01*
X61182795Y-35109744D01*
X61104774Y-35298102D01*
X61065000Y-35498061D01*
X61065000Y-35701939D01*
X61104774Y-35901898D01*
X61182795Y-36090256D01*
X61296063Y-36259774D01*
X61351013Y-36314724D01*
X61394454Y-36457932D01*
X61419037Y-36503921D01*
X61465026Y-36589961D01*
X61526610Y-36665000D01*
X61560000Y-36705686D01*
X61588998Y-36729484D01*
X61740000Y-36880487D01*
X61740001Y-42685197D01*
X60389003Y-44036196D01*
X60359999Y-44059999D01*
X60313052Y-44117205D01*
X60265026Y-44175724D01*
X60254602Y-44195226D01*
X60194454Y-44307754D01*
X60150997Y-44451015D01*
X60140000Y-44562668D01*
X60140000Y-44562678D01*
X60136324Y-44600000D01*
X60140000Y-44637323D01*
X60140000Y-44896289D01*
X60096063Y-44940226D01*
X59982795Y-45109744D01*
X59904774Y-45298102D01*
X59865000Y-45498061D01*
X59865000Y-45701939D01*
X59904774Y-45901898D01*
X59982795Y-46090256D01*
X60096063Y-46259774D01*
X60240226Y-46403937D01*
X60409744Y-46517205D01*
X60598102Y-46595226D01*
X60798061Y-46635000D01*
X61001939Y-46635000D01*
X61201898Y-46595226D01*
X61390256Y-46517205D01*
X61559774Y-46403937D01*
X61703937Y-46259774D01*
X61817205Y-46090256D01*
X61895226Y-45901898D01*
X61935000Y-45701939D01*
X61935000Y-45498061D01*
X61895226Y-45298102D01*
X61817205Y-45109744D01*
X61703937Y-44940226D01*
X61669256Y-44905545D01*
X63011003Y-43563799D01*
X63040001Y-43540001D01*
X63134974Y-43424276D01*
X63205546Y-43292247D01*
X63249003Y-43148986D01*
X63260000Y-43037333D01*
X63260000Y-43037325D01*
X63263676Y-43000000D01*
X63260000Y-42962675D01*
X63260000Y-36603007D01*
X63263676Y-36565684D01*
X63260000Y-36528361D01*
X63260000Y-36528352D01*
X63249003Y-36416699D01*
X63205546Y-36273438D01*
X63134974Y-36141409D01*
X63042627Y-36028883D01*
X63095226Y-35901898D01*
X63135000Y-35701939D01*
X63135000Y-35498061D01*
X63095226Y-35298102D01*
X63017205Y-35109744D01*
X62903937Y-34940226D01*
X62774042Y-34810331D01*
X62898061Y-34835000D01*
X63101939Y-34835000D01*
X63301898Y-34795226D01*
X63490256Y-34717205D01*
X63659774Y-34603937D01*
X63803937Y-34459774D01*
X63917205Y-34290256D01*
X63995226Y-34101898D01*
X64035000Y-33901939D01*
X64035000Y-33839801D01*
X65314802Y-32560000D01*
X74396289Y-32560000D01*
X74440226Y-32603937D01*
X74609744Y-32717205D01*
X74798102Y-32795226D01*
X74998061Y-32835000D01*
X75201939Y-32835000D01*
X75401898Y-32795226D01*
X75590256Y-32717205D01*
X75759774Y-32603937D01*
X75903937Y-32459774D01*
X76017205Y-32290256D01*
X76095226Y-32101898D01*
X76135000Y-31901939D01*
X76135000Y-31698061D01*
X76095226Y-31498102D01*
X76017205Y-31309744D01*
X75903937Y-31140226D01*
X75759774Y-30996063D01*
X75590256Y-30882795D01*
X75401898Y-30804774D01*
X75201939Y-30765000D01*
X74998061Y-30765000D01*
X74798102Y-30804774D01*
X74609744Y-30882795D01*
X74440226Y-30996063D01*
X74396289Y-31040000D01*
X65037322Y-31040000D01*
X64999999Y-31036324D01*
X64962676Y-31040000D01*
X64962667Y-31040000D01*
X64851014Y-31050997D01*
X64707753Y-31094454D01*
X64575723Y-31165026D01*
X64492083Y-31233668D01*
X64459999Y-31259999D01*
X64436201Y-31288997D01*
X63000000Y-32725199D01*
X62538803Y-32264001D01*
X62515000Y-32234998D01*
X62399275Y-32140025D01*
X62267246Y-32069453D01*
X62123985Y-32025996D01*
X62012332Y-32014999D01*
X62012321Y-32014999D01*
X61974999Y-32011323D01*
X61937677Y-32014999D01*
X59389323Y-32014999D01*
X59351998Y-32011323D01*
X59314673Y-32014999D01*
X59314665Y-32014999D01*
X59203012Y-32025996D01*
X59059751Y-32069453D01*
X58927722Y-32140025D01*
X58811997Y-32234998D01*
X58788199Y-32263996D01*
X57660000Y-33392196D01*
X57660000Y-30727000D01*
X78340000Y-30727000D01*
X78340001Y-126726618D01*
G37*
G04 #@! TD.AperFunction*
M02*
