G04 #@! TF.GenerationSoftware,KiCad,Pcbnew,(5.1.10)-1*
G04 #@! TF.CreationDate,2021-05-26T14:01:48+03:00*
G04 #@! TF.ProjectId,parasite,70617261-7369-4746-952e-6b696361645f,1.0.0*
G04 #@! TF.SameCoordinates,Original*
G04 #@! TF.FileFunction,Legend,Top*
G04 #@! TF.FilePolarity,Positive*
%FSLAX46Y46*%
G04 Gerber Fmt 4.6, Leading zero omitted, Abs format (unit mm)*
G04 Created by KiCad (PCBNEW (5.1.10)-1) date 2021-05-26 14:01:48*
%MOMM*%
%LPD*%
G01*
G04 APERTURE LIST*
%ADD10C,0.120000*%
%ADD11C,0.100000*%
%ADD12C,0.010000*%
%ADD13C,0.150000*%
G04 APERTURE END LIST*
D10*
X74200000Y-51700000D02*
G75*
G03*
X74200000Y-51700000I-200000J0D01*
G01*
D11*
X64914285Y-76061904D02*
X64914285Y-75261904D01*
X64914285Y-75566666D02*
X64990476Y-75528571D01*
X65142857Y-75528571D01*
X65219047Y-75566666D01*
X65257142Y-75604761D01*
X65295238Y-75680952D01*
X65295238Y-75909523D01*
X65257142Y-75985714D01*
X65219047Y-76023809D01*
X65142857Y-76061904D01*
X64990476Y-76061904D01*
X64914285Y-76023809D01*
X65638095Y-75757142D02*
X66247619Y-75757142D01*
X66628571Y-75528571D02*
X66628571Y-76328571D01*
X66628571Y-75566666D02*
X66704761Y-75528571D01*
X66857142Y-75528571D01*
X66933333Y-75566666D01*
X66971428Y-75604761D01*
X67009523Y-75680952D01*
X67009523Y-75909523D01*
X66971428Y-75985714D01*
X66933333Y-76023809D01*
X66857142Y-76061904D01*
X66704761Y-76061904D01*
X66628571Y-76023809D01*
X67695238Y-76061904D02*
X67695238Y-75642857D01*
X67657142Y-75566666D01*
X67580952Y-75528571D01*
X67428571Y-75528571D01*
X67352380Y-75566666D01*
X67695238Y-76023809D02*
X67619047Y-76061904D01*
X67428571Y-76061904D01*
X67352380Y-76023809D01*
X67314285Y-75947619D01*
X67314285Y-75871428D01*
X67352380Y-75795238D01*
X67428571Y-75757142D01*
X67619047Y-75757142D01*
X67695238Y-75719047D01*
X68076190Y-76061904D02*
X68076190Y-75528571D01*
X68076190Y-75680952D02*
X68114285Y-75604761D01*
X68152380Y-75566666D01*
X68228571Y-75528571D01*
X68304761Y-75528571D01*
X68914285Y-76061904D02*
X68914285Y-75642857D01*
X68876190Y-75566666D01*
X68800000Y-75528571D01*
X68647619Y-75528571D01*
X68571428Y-75566666D01*
X68914285Y-76023809D02*
X68838095Y-76061904D01*
X68647619Y-76061904D01*
X68571428Y-76023809D01*
X68533333Y-75947619D01*
X68533333Y-75871428D01*
X68571428Y-75795238D01*
X68647619Y-75757142D01*
X68838095Y-75757142D01*
X68914285Y-75719047D01*
X69257142Y-76023809D02*
X69333333Y-76061904D01*
X69485714Y-76061904D01*
X69561904Y-76023809D01*
X69600000Y-75947619D01*
X69600000Y-75909523D01*
X69561904Y-75833333D01*
X69485714Y-75795238D01*
X69371428Y-75795238D01*
X69295238Y-75757142D01*
X69257142Y-75680952D01*
X69257142Y-75642857D01*
X69295238Y-75566666D01*
X69371428Y-75528571D01*
X69485714Y-75528571D01*
X69561904Y-75566666D01*
X69942857Y-76061904D02*
X69942857Y-75528571D01*
X69942857Y-75261904D02*
X69904761Y-75300000D01*
X69942857Y-75338095D01*
X69980952Y-75300000D01*
X69942857Y-75261904D01*
X69942857Y-75338095D01*
X70209523Y-75528571D02*
X70514285Y-75528571D01*
X70323809Y-75261904D02*
X70323809Y-75947619D01*
X70361904Y-76023809D01*
X70438095Y-76061904D01*
X70514285Y-76061904D01*
X71085714Y-76023809D02*
X71009523Y-76061904D01*
X70857142Y-76061904D01*
X70780952Y-76023809D01*
X70742857Y-75947619D01*
X70742857Y-75642857D01*
X70780952Y-75566666D01*
X70857142Y-75528571D01*
X71009523Y-75528571D01*
X71085714Y-75566666D01*
X71123809Y-75642857D01*
X71123809Y-75719047D01*
X70742857Y-75795238D01*
X67085714Y-77361904D02*
X66628571Y-77361904D01*
X66857142Y-77361904D02*
X66857142Y-76561904D01*
X66780952Y-76676190D01*
X66704761Y-76752380D01*
X66628571Y-76790476D01*
X67428571Y-77285714D02*
X67466666Y-77323809D01*
X67428571Y-77361904D01*
X67390476Y-77323809D01*
X67428571Y-77285714D01*
X67428571Y-77361904D01*
X67961904Y-76561904D02*
X68038095Y-76561904D01*
X68114285Y-76600000D01*
X68152380Y-76638095D01*
X68190476Y-76714285D01*
X68228571Y-76866666D01*
X68228571Y-77057142D01*
X68190476Y-77209523D01*
X68152380Y-77285714D01*
X68114285Y-77323809D01*
X68038095Y-77361904D01*
X67961904Y-77361904D01*
X67885714Y-77323809D01*
X67847619Y-77285714D01*
X67809523Y-77209523D01*
X67771428Y-77057142D01*
X67771428Y-76866666D01*
X67809523Y-76714285D01*
X67847619Y-76638095D01*
X67885714Y-76600000D01*
X67961904Y-76561904D01*
X68571428Y-77285714D02*
X68609523Y-77323809D01*
X68571428Y-77361904D01*
X68533333Y-77323809D01*
X68571428Y-77285714D01*
X68571428Y-77361904D01*
X69104761Y-76561904D02*
X69180952Y-76561904D01*
X69257142Y-76600000D01*
X69295238Y-76638095D01*
X69333333Y-76714285D01*
X69371428Y-76866666D01*
X69371428Y-77057142D01*
X69333333Y-77209523D01*
X69295238Y-77285714D01*
X69257142Y-77323809D01*
X69180952Y-77361904D01*
X69104761Y-77361904D01*
X69028571Y-77323809D01*
X68990476Y-77285714D01*
X68952380Y-77209523D01*
X68914285Y-77057142D01*
X68914285Y-76866666D01*
X68952380Y-76714285D01*
X68990476Y-76638095D01*
X69028571Y-76600000D01*
X69104761Y-76561904D01*
X65123809Y-78661904D02*
X65123809Y-78128571D01*
X65123809Y-78280952D02*
X65161904Y-78204761D01*
X65200000Y-78166666D01*
X65276190Y-78128571D01*
X65352380Y-78128571D01*
X65619047Y-78661904D02*
X65619047Y-77861904D01*
X65619047Y-78166666D02*
X65695238Y-78128571D01*
X65847619Y-78128571D01*
X65923809Y-78166666D01*
X65961904Y-78204761D01*
X66000000Y-78280952D01*
X66000000Y-78509523D01*
X65961904Y-78585714D01*
X65923809Y-78623809D01*
X65847619Y-78661904D01*
X65695238Y-78661904D01*
X65619047Y-78623809D01*
X66685714Y-78661904D02*
X66685714Y-78242857D01*
X66647619Y-78166666D01*
X66571428Y-78128571D01*
X66419047Y-78128571D01*
X66342857Y-78166666D01*
X66685714Y-78623809D02*
X66609523Y-78661904D01*
X66419047Y-78661904D01*
X66342857Y-78623809D01*
X66304761Y-78547619D01*
X66304761Y-78471428D01*
X66342857Y-78395238D01*
X66419047Y-78357142D01*
X66609523Y-78357142D01*
X66685714Y-78319047D01*
X67066666Y-78661904D02*
X67066666Y-78128571D01*
X67066666Y-78280952D02*
X67104761Y-78204761D01*
X67142857Y-78166666D01*
X67219047Y-78128571D01*
X67295238Y-78128571D01*
X67676190Y-78661904D02*
X67600000Y-78623809D01*
X67561904Y-78585714D01*
X67523809Y-78509523D01*
X67523809Y-78280952D01*
X67561904Y-78204761D01*
X67600000Y-78166666D01*
X67676190Y-78128571D01*
X67790476Y-78128571D01*
X67866666Y-78166666D01*
X67904761Y-78204761D01*
X67942857Y-78280952D01*
X67942857Y-78509523D01*
X67904761Y-78585714D01*
X67866666Y-78623809D01*
X67790476Y-78661904D01*
X67676190Y-78661904D01*
X68285714Y-78128571D02*
X68285714Y-78661904D01*
X68285714Y-78204761D02*
X68323809Y-78166666D01*
X68400000Y-78128571D01*
X68514285Y-78128571D01*
X68590476Y-78166666D01*
X68628571Y-78242857D01*
X68628571Y-78661904D01*
X69009523Y-78585714D02*
X69047619Y-78623809D01*
X69009523Y-78661904D01*
X68971428Y-78623809D01*
X69009523Y-78585714D01*
X69009523Y-78661904D01*
X69390476Y-78128571D02*
X69390476Y-78661904D01*
X69390476Y-78204761D02*
X69428571Y-78166666D01*
X69504761Y-78128571D01*
X69619047Y-78128571D01*
X69695238Y-78166666D01*
X69733333Y-78242857D01*
X69733333Y-78661904D01*
X70419047Y-78623809D02*
X70342857Y-78661904D01*
X70190476Y-78661904D01*
X70114285Y-78623809D01*
X70076190Y-78547619D01*
X70076190Y-78242857D01*
X70114285Y-78166666D01*
X70190476Y-78128571D01*
X70342857Y-78128571D01*
X70419047Y-78166666D01*
X70457142Y-78242857D01*
X70457142Y-78319047D01*
X70076190Y-78395238D01*
X70685714Y-78128571D02*
X70990476Y-78128571D01*
X70800000Y-77861904D02*
X70800000Y-78547619D01*
X70838095Y-78623809D01*
X70914285Y-78661904D01*
X70990476Y-78661904D01*
D10*
X58000000Y-83000000D02*
X78000000Y-83000000D01*
X77150000Y-31200000D02*
X74500000Y-31200000D01*
X77150000Y-26900000D02*
X74500000Y-26900000D01*
X74471973Y-26917856D02*
G75*
G03*
X74500000Y-31200000I1378027J-2132144D01*
G01*
X77175476Y-31184388D02*
G75*
G03*
X77150000Y-26900000I-1325476J2134388D01*
G01*
X58720000Y-30813641D02*
X58720000Y-30506359D01*
X59480000Y-30813641D02*
X59480000Y-30506359D01*
D12*
G36*
X68555814Y-69468931D02*
G01*
X68639635Y-69913555D01*
X68948920Y-70041053D01*
X69258206Y-70168551D01*
X69629246Y-69916246D01*
X69733157Y-69845996D01*
X69827087Y-69783272D01*
X69906652Y-69730938D01*
X69967470Y-69691857D01*
X70005157Y-69668893D01*
X70015421Y-69663942D01*
X70033910Y-69676676D01*
X70073420Y-69711882D01*
X70129522Y-69765062D01*
X70197787Y-69831718D01*
X70273786Y-69907354D01*
X70353092Y-69987472D01*
X70431275Y-70067574D01*
X70503907Y-70143164D01*
X70566559Y-70209745D01*
X70614803Y-70262818D01*
X70644210Y-70297887D01*
X70651241Y-70309623D01*
X70641123Y-70331260D01*
X70612759Y-70378662D01*
X70569129Y-70447193D01*
X70513218Y-70532215D01*
X70448006Y-70629093D01*
X70410219Y-70684350D01*
X70341343Y-70785248D01*
X70280140Y-70876299D01*
X70229578Y-70952970D01*
X70192628Y-71010728D01*
X70172258Y-71045043D01*
X70169197Y-71052254D01*
X70176136Y-71072748D01*
X70195051Y-71120513D01*
X70223087Y-71188832D01*
X70257391Y-71270989D01*
X70295109Y-71360270D01*
X70333387Y-71449958D01*
X70369370Y-71533338D01*
X70400206Y-71603694D01*
X70423039Y-71654310D01*
X70435017Y-71678471D01*
X70435724Y-71679422D01*
X70454531Y-71684036D01*
X70504618Y-71694328D01*
X70580793Y-71709287D01*
X70677865Y-71727901D01*
X70790643Y-71749159D01*
X70856442Y-71761418D01*
X70976950Y-71784362D01*
X71085797Y-71806195D01*
X71177476Y-71825722D01*
X71246481Y-71841748D01*
X71287304Y-71853079D01*
X71295511Y-71856674D01*
X71303548Y-71881006D01*
X71310033Y-71935959D01*
X71314970Y-72015108D01*
X71318364Y-72112026D01*
X71320218Y-72220287D01*
X71320538Y-72333465D01*
X71319327Y-72445135D01*
X71316590Y-72548868D01*
X71312331Y-72638241D01*
X71306555Y-72706826D01*
X71299267Y-72748197D01*
X71294895Y-72756810D01*
X71268764Y-72767133D01*
X71213393Y-72781892D01*
X71136107Y-72799352D01*
X71044230Y-72817780D01*
X71012158Y-72823741D01*
X70857524Y-72852066D01*
X70735375Y-72874876D01*
X70641673Y-72893080D01*
X70572384Y-72907583D01*
X70523471Y-72919292D01*
X70490897Y-72929115D01*
X70470628Y-72937956D01*
X70458626Y-72946724D01*
X70456947Y-72948457D01*
X70440184Y-72976371D01*
X70414614Y-73030695D01*
X70382788Y-73104777D01*
X70347260Y-73191965D01*
X70310583Y-73285608D01*
X70275311Y-73379052D01*
X70243996Y-73465647D01*
X70219193Y-73538740D01*
X70203454Y-73591678D01*
X70199332Y-73617811D01*
X70199676Y-73618726D01*
X70213641Y-73640086D01*
X70245322Y-73687084D01*
X70291391Y-73754827D01*
X70348518Y-73838423D01*
X70413373Y-73932982D01*
X70431843Y-73959854D01*
X70497699Y-74057275D01*
X70555650Y-74146163D01*
X70602538Y-74221412D01*
X70635207Y-74277920D01*
X70650500Y-74310581D01*
X70651241Y-74314593D01*
X70638392Y-74335684D01*
X70602888Y-74377464D01*
X70549293Y-74435445D01*
X70482171Y-74505135D01*
X70406087Y-74582045D01*
X70325604Y-74661683D01*
X70245287Y-74739561D01*
X70169699Y-74811186D01*
X70103405Y-74872070D01*
X70050969Y-74917721D01*
X70016955Y-74943650D01*
X70007545Y-74947883D01*
X69985643Y-74937912D01*
X69940800Y-74911020D01*
X69880321Y-74871736D01*
X69833789Y-74840117D01*
X69749475Y-74782098D01*
X69649626Y-74713784D01*
X69549473Y-74645579D01*
X69495627Y-74609075D01*
X69313371Y-74485800D01*
X69160381Y-74568520D01*
X69090682Y-74604759D01*
X69031414Y-74632926D01*
X68991311Y-74648991D01*
X68981103Y-74651226D01*
X68968829Y-74634722D01*
X68944613Y-74588082D01*
X68910263Y-74515609D01*
X68867588Y-74421606D01*
X68818394Y-74310374D01*
X68764490Y-74186215D01*
X68707684Y-74053432D01*
X68649782Y-73916327D01*
X68592593Y-73779202D01*
X68537924Y-73646358D01*
X68487584Y-73522098D01*
X68443380Y-73410725D01*
X68407119Y-73316539D01*
X68380609Y-73243844D01*
X68365658Y-73196941D01*
X68363254Y-73180833D01*
X68382311Y-73160286D01*
X68424036Y-73126933D01*
X68479706Y-73087702D01*
X68484378Y-73084599D01*
X68628264Y-72969423D01*
X68744283Y-72835053D01*
X68831430Y-72685784D01*
X68888699Y-72525913D01*
X68915086Y-72359737D01*
X68909585Y-72191552D01*
X68871190Y-72025655D01*
X68798895Y-71866342D01*
X68777626Y-71831487D01*
X68666996Y-71690737D01*
X68536302Y-71577714D01*
X68390064Y-71493003D01*
X68232808Y-71437194D01*
X68069057Y-71410874D01*
X67903333Y-71414630D01*
X67740162Y-71449050D01*
X67584065Y-71514723D01*
X67439567Y-71612235D01*
X67394869Y-71651813D01*
X67281112Y-71775703D01*
X67198218Y-71906124D01*
X67141356Y-72052315D01*
X67109687Y-72197088D01*
X67101869Y-72359860D01*
X67127938Y-72523440D01*
X67185245Y-72682298D01*
X67271144Y-72830906D01*
X67382986Y-72963735D01*
X67518123Y-73075256D01*
X67535883Y-73087011D01*
X67592150Y-73125508D01*
X67634923Y-73158863D01*
X67655372Y-73180160D01*
X67655669Y-73180833D01*
X67651279Y-73203871D01*
X67633876Y-73256157D01*
X67605268Y-73333390D01*
X67567265Y-73431268D01*
X67521674Y-73545491D01*
X67470303Y-73671758D01*
X67414962Y-73805767D01*
X67357458Y-73943218D01*
X67299601Y-74079808D01*
X67243198Y-74211237D01*
X67190058Y-74333205D01*
X67141990Y-74441409D01*
X67100801Y-74531549D01*
X67068301Y-74599323D01*
X67046297Y-74640430D01*
X67037436Y-74651226D01*
X67010360Y-74642819D01*
X66959697Y-74620272D01*
X66894183Y-74587613D01*
X66858159Y-74568520D01*
X66705168Y-74485800D01*
X66522912Y-74609075D01*
X66429875Y-74672228D01*
X66328015Y-74741727D01*
X66232562Y-74807165D01*
X66184750Y-74840117D01*
X66117505Y-74885273D01*
X66060564Y-74921057D01*
X66021354Y-74942938D01*
X66008619Y-74947563D01*
X65990083Y-74935085D01*
X65949059Y-74900252D01*
X65889525Y-74846678D01*
X65815458Y-74777983D01*
X65730835Y-74697781D01*
X65677315Y-74646286D01*
X65583681Y-74554286D01*
X65502759Y-74471999D01*
X65437823Y-74402945D01*
X65392142Y-74350644D01*
X65368989Y-74318616D01*
X65366768Y-74312116D01*
X65377076Y-74287394D01*
X65405561Y-74237405D01*
X65449063Y-74167212D01*
X65504423Y-74081875D01*
X65568480Y-73986456D01*
X65586697Y-73959854D01*
X65653073Y-73863167D01*
X65712622Y-73776117D01*
X65762016Y-73703595D01*
X65797925Y-73650493D01*
X65817019Y-73621703D01*
X65818864Y-73618726D01*
X65816105Y-73595782D01*
X65801462Y-73545336D01*
X65777487Y-73474041D01*
X65746734Y-73388547D01*
X65711756Y-73295507D01*
X65675107Y-73201574D01*
X65639339Y-73113399D01*
X65607006Y-73037634D01*
X65580662Y-72980931D01*
X65562858Y-72949943D01*
X65561593Y-72948457D01*
X65550706Y-72939601D01*
X65532318Y-72930843D01*
X65502394Y-72921277D01*
X65456897Y-72909996D01*
X65391791Y-72896093D01*
X65303039Y-72878663D01*
X65186607Y-72856798D01*
X65038458Y-72829591D01*
X65006382Y-72823741D01*
X64911314Y-72805374D01*
X64828435Y-72787405D01*
X64765070Y-72771569D01*
X64728542Y-72759600D01*
X64723644Y-72756810D01*
X64715573Y-72732072D01*
X64709013Y-72676790D01*
X64703967Y-72597389D01*
X64700441Y-72500296D01*
X64698439Y-72391938D01*
X64697964Y-72278740D01*
X64699023Y-72167128D01*
X64701618Y-72063529D01*
X64705754Y-71974368D01*
X64711437Y-71906072D01*
X64718669Y-71865066D01*
X64723029Y-71856674D01*
X64747302Y-71848208D01*
X64802574Y-71834435D01*
X64883338Y-71816550D01*
X64984088Y-71795748D01*
X65099317Y-71773223D01*
X65162098Y-71761418D01*
X65281213Y-71739151D01*
X65387435Y-71718979D01*
X65475573Y-71701915D01*
X65540434Y-71688969D01*
X65576826Y-71681155D01*
X65582816Y-71679422D01*
X65592939Y-71659890D01*
X65614338Y-71612843D01*
X65644161Y-71545003D01*
X65679555Y-71463091D01*
X65717668Y-71373828D01*
X65755647Y-71283935D01*
X65790640Y-71200135D01*
X65819794Y-71129147D01*
X65840257Y-71077694D01*
X65849177Y-71052497D01*
X65849343Y-71051396D01*
X65839231Y-71031519D01*
X65810883Y-70985777D01*
X65767277Y-70918717D01*
X65711394Y-70834884D01*
X65646213Y-70738826D01*
X65608321Y-70683650D01*
X65539275Y-70582481D01*
X65477950Y-70490630D01*
X65427337Y-70412744D01*
X65390429Y-70353469D01*
X65370218Y-70317451D01*
X65367299Y-70309377D01*
X65379847Y-70290584D01*
X65414537Y-70250457D01*
X65466937Y-70193493D01*
X65532616Y-70124185D01*
X65607144Y-70047031D01*
X65686087Y-69966525D01*
X65765017Y-69887163D01*
X65839500Y-69813440D01*
X65905106Y-69749852D01*
X65957404Y-69700894D01*
X65991961Y-69671061D01*
X66003522Y-69663942D01*
X66022346Y-69673953D01*
X66067369Y-69702078D01*
X66134213Y-69745454D01*
X66218501Y-69801218D01*
X66315856Y-69866506D01*
X66389293Y-69916246D01*
X66760333Y-70168551D01*
X67378905Y-69913555D01*
X67462725Y-69468931D01*
X67546546Y-69024307D01*
X68471994Y-69024307D01*
X68555814Y-69468931D01*
G37*
X68555814Y-69468931D02*
X68639635Y-69913555D01*
X68948920Y-70041053D01*
X69258206Y-70168551D01*
X69629246Y-69916246D01*
X69733157Y-69845996D01*
X69827087Y-69783272D01*
X69906652Y-69730938D01*
X69967470Y-69691857D01*
X70005157Y-69668893D01*
X70015421Y-69663942D01*
X70033910Y-69676676D01*
X70073420Y-69711882D01*
X70129522Y-69765062D01*
X70197787Y-69831718D01*
X70273786Y-69907354D01*
X70353092Y-69987472D01*
X70431275Y-70067574D01*
X70503907Y-70143164D01*
X70566559Y-70209745D01*
X70614803Y-70262818D01*
X70644210Y-70297887D01*
X70651241Y-70309623D01*
X70641123Y-70331260D01*
X70612759Y-70378662D01*
X70569129Y-70447193D01*
X70513218Y-70532215D01*
X70448006Y-70629093D01*
X70410219Y-70684350D01*
X70341343Y-70785248D01*
X70280140Y-70876299D01*
X70229578Y-70952970D01*
X70192628Y-71010728D01*
X70172258Y-71045043D01*
X70169197Y-71052254D01*
X70176136Y-71072748D01*
X70195051Y-71120513D01*
X70223087Y-71188832D01*
X70257391Y-71270989D01*
X70295109Y-71360270D01*
X70333387Y-71449958D01*
X70369370Y-71533338D01*
X70400206Y-71603694D01*
X70423039Y-71654310D01*
X70435017Y-71678471D01*
X70435724Y-71679422D01*
X70454531Y-71684036D01*
X70504618Y-71694328D01*
X70580793Y-71709287D01*
X70677865Y-71727901D01*
X70790643Y-71749159D01*
X70856442Y-71761418D01*
X70976950Y-71784362D01*
X71085797Y-71806195D01*
X71177476Y-71825722D01*
X71246481Y-71841748D01*
X71287304Y-71853079D01*
X71295511Y-71856674D01*
X71303548Y-71881006D01*
X71310033Y-71935959D01*
X71314970Y-72015108D01*
X71318364Y-72112026D01*
X71320218Y-72220287D01*
X71320538Y-72333465D01*
X71319327Y-72445135D01*
X71316590Y-72548868D01*
X71312331Y-72638241D01*
X71306555Y-72706826D01*
X71299267Y-72748197D01*
X71294895Y-72756810D01*
X71268764Y-72767133D01*
X71213393Y-72781892D01*
X71136107Y-72799352D01*
X71044230Y-72817780D01*
X71012158Y-72823741D01*
X70857524Y-72852066D01*
X70735375Y-72874876D01*
X70641673Y-72893080D01*
X70572384Y-72907583D01*
X70523471Y-72919292D01*
X70490897Y-72929115D01*
X70470628Y-72937956D01*
X70458626Y-72946724D01*
X70456947Y-72948457D01*
X70440184Y-72976371D01*
X70414614Y-73030695D01*
X70382788Y-73104777D01*
X70347260Y-73191965D01*
X70310583Y-73285608D01*
X70275311Y-73379052D01*
X70243996Y-73465647D01*
X70219193Y-73538740D01*
X70203454Y-73591678D01*
X70199332Y-73617811D01*
X70199676Y-73618726D01*
X70213641Y-73640086D01*
X70245322Y-73687084D01*
X70291391Y-73754827D01*
X70348518Y-73838423D01*
X70413373Y-73932982D01*
X70431843Y-73959854D01*
X70497699Y-74057275D01*
X70555650Y-74146163D01*
X70602538Y-74221412D01*
X70635207Y-74277920D01*
X70650500Y-74310581D01*
X70651241Y-74314593D01*
X70638392Y-74335684D01*
X70602888Y-74377464D01*
X70549293Y-74435445D01*
X70482171Y-74505135D01*
X70406087Y-74582045D01*
X70325604Y-74661683D01*
X70245287Y-74739561D01*
X70169699Y-74811186D01*
X70103405Y-74872070D01*
X70050969Y-74917721D01*
X70016955Y-74943650D01*
X70007545Y-74947883D01*
X69985643Y-74937912D01*
X69940800Y-74911020D01*
X69880321Y-74871736D01*
X69833789Y-74840117D01*
X69749475Y-74782098D01*
X69649626Y-74713784D01*
X69549473Y-74645579D01*
X69495627Y-74609075D01*
X69313371Y-74485800D01*
X69160381Y-74568520D01*
X69090682Y-74604759D01*
X69031414Y-74632926D01*
X68991311Y-74648991D01*
X68981103Y-74651226D01*
X68968829Y-74634722D01*
X68944613Y-74588082D01*
X68910263Y-74515609D01*
X68867588Y-74421606D01*
X68818394Y-74310374D01*
X68764490Y-74186215D01*
X68707684Y-74053432D01*
X68649782Y-73916327D01*
X68592593Y-73779202D01*
X68537924Y-73646358D01*
X68487584Y-73522098D01*
X68443380Y-73410725D01*
X68407119Y-73316539D01*
X68380609Y-73243844D01*
X68365658Y-73196941D01*
X68363254Y-73180833D01*
X68382311Y-73160286D01*
X68424036Y-73126933D01*
X68479706Y-73087702D01*
X68484378Y-73084599D01*
X68628264Y-72969423D01*
X68744283Y-72835053D01*
X68831430Y-72685784D01*
X68888699Y-72525913D01*
X68915086Y-72359737D01*
X68909585Y-72191552D01*
X68871190Y-72025655D01*
X68798895Y-71866342D01*
X68777626Y-71831487D01*
X68666996Y-71690737D01*
X68536302Y-71577714D01*
X68390064Y-71493003D01*
X68232808Y-71437194D01*
X68069057Y-71410874D01*
X67903333Y-71414630D01*
X67740162Y-71449050D01*
X67584065Y-71514723D01*
X67439567Y-71612235D01*
X67394869Y-71651813D01*
X67281112Y-71775703D01*
X67198218Y-71906124D01*
X67141356Y-72052315D01*
X67109687Y-72197088D01*
X67101869Y-72359860D01*
X67127938Y-72523440D01*
X67185245Y-72682298D01*
X67271144Y-72830906D01*
X67382986Y-72963735D01*
X67518123Y-73075256D01*
X67535883Y-73087011D01*
X67592150Y-73125508D01*
X67634923Y-73158863D01*
X67655372Y-73180160D01*
X67655669Y-73180833D01*
X67651279Y-73203871D01*
X67633876Y-73256157D01*
X67605268Y-73333390D01*
X67567265Y-73431268D01*
X67521674Y-73545491D01*
X67470303Y-73671758D01*
X67414962Y-73805767D01*
X67357458Y-73943218D01*
X67299601Y-74079808D01*
X67243198Y-74211237D01*
X67190058Y-74333205D01*
X67141990Y-74441409D01*
X67100801Y-74531549D01*
X67068301Y-74599323D01*
X67046297Y-74640430D01*
X67037436Y-74651226D01*
X67010360Y-74642819D01*
X66959697Y-74620272D01*
X66894183Y-74587613D01*
X66858159Y-74568520D01*
X66705168Y-74485800D01*
X66522912Y-74609075D01*
X66429875Y-74672228D01*
X66328015Y-74741727D01*
X66232562Y-74807165D01*
X66184750Y-74840117D01*
X66117505Y-74885273D01*
X66060564Y-74921057D01*
X66021354Y-74942938D01*
X66008619Y-74947563D01*
X65990083Y-74935085D01*
X65949059Y-74900252D01*
X65889525Y-74846678D01*
X65815458Y-74777983D01*
X65730835Y-74697781D01*
X65677315Y-74646286D01*
X65583681Y-74554286D01*
X65502759Y-74471999D01*
X65437823Y-74402945D01*
X65392142Y-74350644D01*
X65368989Y-74318616D01*
X65366768Y-74312116D01*
X65377076Y-74287394D01*
X65405561Y-74237405D01*
X65449063Y-74167212D01*
X65504423Y-74081875D01*
X65568480Y-73986456D01*
X65586697Y-73959854D01*
X65653073Y-73863167D01*
X65712622Y-73776117D01*
X65762016Y-73703595D01*
X65797925Y-73650493D01*
X65817019Y-73621703D01*
X65818864Y-73618726D01*
X65816105Y-73595782D01*
X65801462Y-73545336D01*
X65777487Y-73474041D01*
X65746734Y-73388547D01*
X65711756Y-73295507D01*
X65675107Y-73201574D01*
X65639339Y-73113399D01*
X65607006Y-73037634D01*
X65580662Y-72980931D01*
X65562858Y-72949943D01*
X65561593Y-72948457D01*
X65550706Y-72939601D01*
X65532318Y-72930843D01*
X65502394Y-72921277D01*
X65456897Y-72909996D01*
X65391791Y-72896093D01*
X65303039Y-72878663D01*
X65186607Y-72856798D01*
X65038458Y-72829591D01*
X65006382Y-72823741D01*
X64911314Y-72805374D01*
X64828435Y-72787405D01*
X64765070Y-72771569D01*
X64728542Y-72759600D01*
X64723644Y-72756810D01*
X64715573Y-72732072D01*
X64709013Y-72676790D01*
X64703967Y-72597389D01*
X64700441Y-72500296D01*
X64698439Y-72391938D01*
X64697964Y-72278740D01*
X64699023Y-72167128D01*
X64701618Y-72063529D01*
X64705754Y-71974368D01*
X64711437Y-71906072D01*
X64718669Y-71865066D01*
X64723029Y-71856674D01*
X64747302Y-71848208D01*
X64802574Y-71834435D01*
X64883338Y-71816550D01*
X64984088Y-71795748D01*
X65099317Y-71773223D01*
X65162098Y-71761418D01*
X65281213Y-71739151D01*
X65387435Y-71718979D01*
X65475573Y-71701915D01*
X65540434Y-71688969D01*
X65576826Y-71681155D01*
X65582816Y-71679422D01*
X65592939Y-71659890D01*
X65614338Y-71612843D01*
X65644161Y-71545003D01*
X65679555Y-71463091D01*
X65717668Y-71373828D01*
X65755647Y-71283935D01*
X65790640Y-71200135D01*
X65819794Y-71129147D01*
X65840257Y-71077694D01*
X65849177Y-71052497D01*
X65849343Y-71051396D01*
X65839231Y-71031519D01*
X65810883Y-70985777D01*
X65767277Y-70918717D01*
X65711394Y-70834884D01*
X65646213Y-70738826D01*
X65608321Y-70683650D01*
X65539275Y-70582481D01*
X65477950Y-70490630D01*
X65427337Y-70412744D01*
X65390429Y-70353469D01*
X65370218Y-70317451D01*
X65367299Y-70309377D01*
X65379847Y-70290584D01*
X65414537Y-70250457D01*
X65466937Y-70193493D01*
X65532616Y-70124185D01*
X65607144Y-70047031D01*
X65686087Y-69966525D01*
X65765017Y-69887163D01*
X65839500Y-69813440D01*
X65905106Y-69749852D01*
X65957404Y-69700894D01*
X65991961Y-69671061D01*
X66003522Y-69663942D01*
X66022346Y-69673953D01*
X66067369Y-69702078D01*
X66134213Y-69745454D01*
X66218501Y-69801218D01*
X66315856Y-69866506D01*
X66389293Y-69916246D01*
X66760333Y-70168551D01*
X67378905Y-69913555D01*
X67462725Y-69468931D01*
X67546546Y-69024307D01*
X68471994Y-69024307D01*
X68555814Y-69468931D01*
D10*
X73800000Y-49490000D02*
X71800000Y-49490000D01*
X72800000Y-51710000D02*
X71800000Y-51710000D01*
X66925000Y-48875000D02*
X65575000Y-48875000D01*
X66925000Y-47125000D02*
X65575000Y-47125000D01*
X71520000Y-58060000D02*
X71520000Y-56600000D01*
X74680000Y-58060000D02*
X74680000Y-55900000D01*
X74680000Y-58060000D02*
X73750000Y-58060000D01*
X71520000Y-58060000D02*
X72450000Y-58060000D01*
X62735000Y-52697500D02*
X62735000Y-50412500D01*
X61265000Y-52697500D02*
X62735000Y-52697500D01*
X61265000Y-50412500D02*
X61265000Y-52697500D01*
X77340000Y-34340000D02*
G75*
G03*
X77340000Y-34340000I-700000J0D01*
G01*
X77340000Y-41960000D02*
G75*
G03*
X77340000Y-41960000I-700000J0D01*
G01*
X77340000Y-44500000D02*
G75*
G03*
X77340000Y-44500000I-700000J0D01*
G01*
X77340000Y-39420000D02*
G75*
G03*
X77340000Y-39420000I-700000J0D01*
G01*
X77340000Y-36880000D02*
G75*
G03*
X77340000Y-36880000I-700000J0D01*
G01*
X70030000Y-57940000D02*
X70030000Y-59400000D01*
X66870000Y-57940000D02*
X66870000Y-60100000D01*
X66870000Y-57940000D02*
X67800000Y-57940000D01*
X70030000Y-57940000D02*
X69100000Y-57940000D01*
X66380000Y-57940000D02*
X66380000Y-59400000D01*
X63220000Y-57940000D02*
X63220000Y-60100000D01*
X63220000Y-57940000D02*
X64150000Y-57940000D01*
X66380000Y-57940000D02*
X65450000Y-57940000D01*
X64810000Y-54558578D02*
X64810000Y-54041422D01*
X63390000Y-54558578D02*
X63390000Y-54041422D01*
X66200000Y-54700000D02*
X70500000Y-54700000D01*
X70500000Y-54700000D02*
X70500000Y-52700000D01*
X70500000Y-52700000D02*
X66200000Y-52700000D01*
X77340000Y-31800000D02*
G75*
G03*
X77340000Y-31800000I-700000J0D01*
G01*
X75683333Y-27966666D02*
X75450000Y-27633333D01*
X75283333Y-27966666D02*
X75283333Y-27266666D01*
X75550000Y-27266666D01*
X75616666Y-27300000D01*
X75650000Y-27333333D01*
X75683333Y-27400000D01*
X75683333Y-27500000D01*
X75650000Y-27566666D01*
X75616666Y-27600000D01*
X75550000Y-27633333D01*
X75283333Y-27633333D01*
X76016666Y-27966666D02*
X76150000Y-27966666D01*
X76216666Y-27933333D01*
X76250000Y-27900000D01*
X76316666Y-27800000D01*
X76350000Y-27666666D01*
X76350000Y-27400000D01*
X76316666Y-27333333D01*
X76283333Y-27300000D01*
X76216666Y-27266666D01*
X76083333Y-27266666D01*
X76016666Y-27300000D01*
X75983333Y-27333333D01*
X75950000Y-27400000D01*
X75950000Y-27566666D01*
X75983333Y-27633333D01*
X76016666Y-27666666D01*
X76083333Y-27700000D01*
X76216666Y-27700000D01*
X76283333Y-27666666D01*
X76316666Y-27633333D01*
X76350000Y-27566666D01*
D13*
X58382380Y-31302857D02*
X57906190Y-31636190D01*
X58382380Y-31874285D02*
X57382380Y-31874285D01*
X57382380Y-31493333D01*
X57430000Y-31398095D01*
X57477619Y-31350476D01*
X57572857Y-31302857D01*
X57715714Y-31302857D01*
X57810952Y-31350476D01*
X57858571Y-31398095D01*
X57906190Y-31493333D01*
X57906190Y-31874285D01*
X58382380Y-30350476D02*
X58382380Y-30921904D01*
X58382380Y-30636190D02*
X57382380Y-30636190D01*
X57525238Y-30731428D01*
X57620476Y-30826666D01*
X57668095Y-30921904D01*
X57477619Y-29969523D02*
X57430000Y-29921904D01*
X57382380Y-29826666D01*
X57382380Y-29588571D01*
X57430000Y-29493333D01*
X57477619Y-29445714D01*
X57572857Y-29398095D01*
X57668095Y-29398095D01*
X57810952Y-29445714D01*
X58382380Y-30017142D01*
X58382380Y-29398095D01*
X60722380Y-38927857D02*
X60246190Y-39261190D01*
X60722380Y-39499285D02*
X59722380Y-39499285D01*
X59722380Y-39118333D01*
X59770000Y-39023095D01*
X59817619Y-38975476D01*
X59912857Y-38927857D01*
X60055714Y-38927857D01*
X60150952Y-38975476D01*
X60198571Y-39023095D01*
X60246190Y-39118333D01*
X60246190Y-39499285D01*
X60722380Y-37975476D02*
X60722380Y-38546904D01*
X60722380Y-38261190D02*
X59722380Y-38261190D01*
X59865238Y-38356428D01*
X59960476Y-38451666D01*
X60008095Y-38546904D01*
X60722380Y-37023095D02*
X60722380Y-37594523D01*
X60722380Y-37308809D02*
X59722380Y-37308809D01*
X59865238Y-37404047D01*
X59960476Y-37499285D01*
X60008095Y-37594523D01*
X60722380Y-36827857D02*
X60246190Y-37161190D01*
X60722380Y-37399285D02*
X59722380Y-37399285D01*
X59722380Y-37018333D01*
X59770000Y-36923095D01*
X59817619Y-36875476D01*
X59912857Y-36827857D01*
X60055714Y-36827857D01*
X60150952Y-36875476D01*
X60198571Y-36923095D01*
X60246190Y-37018333D01*
X60246190Y-37399285D01*
X60722380Y-35875476D02*
X60722380Y-36446904D01*
X60722380Y-36161190D02*
X59722380Y-36161190D01*
X59865238Y-36256428D01*
X59960476Y-36351666D01*
X60008095Y-36446904D01*
X59722380Y-35256428D02*
X59722380Y-35161190D01*
X59770000Y-35065952D01*
X59817619Y-35018333D01*
X59912857Y-34970714D01*
X60103333Y-34923095D01*
X60341428Y-34923095D01*
X60531904Y-34970714D01*
X60627142Y-35018333D01*
X60674761Y-35065952D01*
X60722380Y-35161190D01*
X60722380Y-35256428D01*
X60674761Y-35351666D01*
X60627142Y-35399285D01*
X60531904Y-35446904D01*
X60341428Y-35494523D01*
X60103333Y-35494523D01*
X59912857Y-35446904D01*
X59817619Y-35399285D01*
X59770000Y-35351666D01*
X59722380Y-35256428D01*
D10*
X74466666Y-50316666D02*
X74466666Y-50883333D01*
X74500000Y-50950000D01*
X74533333Y-50983333D01*
X74600000Y-51016666D01*
X74733333Y-51016666D01*
X74800000Y-50983333D01*
X74833333Y-50950000D01*
X74866666Y-50883333D01*
X74866666Y-50316666D01*
X75166666Y-50383333D02*
X75200000Y-50350000D01*
X75266666Y-50316666D01*
X75433333Y-50316666D01*
X75500000Y-50350000D01*
X75533333Y-50383333D01*
X75566666Y-50450000D01*
X75566666Y-50516666D01*
X75533333Y-50616666D01*
X75133333Y-51016666D01*
X75566666Y-51016666D01*
X66466199Y-37069891D02*
X66466199Y-37636558D01*
X66499533Y-37703225D01*
X66532866Y-37736558D01*
X66599533Y-37769891D01*
X66732866Y-37769891D01*
X66799533Y-37736558D01*
X66832866Y-37703225D01*
X66866199Y-37636558D01*
X66866199Y-37069891D01*
X67566199Y-37769891D02*
X67166199Y-37769891D01*
X67366199Y-37769891D02*
X67366199Y-37069891D01*
X67299533Y-37169891D01*
X67232866Y-37236558D01*
X67166199Y-37269891D01*
D13*
X60785714Y-29253571D02*
X61119047Y-29253571D01*
X61261904Y-29777380D02*
X60785714Y-29777380D01*
X60785714Y-28777380D01*
X61261904Y-28777380D01*
X61595238Y-28777380D02*
X62261904Y-28777380D01*
X61833333Y-29777380D01*
X62547619Y-28777380D02*
X63166666Y-28777380D01*
X62833333Y-29158333D01*
X62976190Y-29158333D01*
X63071428Y-29205952D01*
X63119047Y-29253571D01*
X63166666Y-29348809D01*
X63166666Y-29586904D01*
X63119047Y-29682142D01*
X63071428Y-29729761D01*
X62976190Y-29777380D01*
X62690476Y-29777380D01*
X62595238Y-29729761D01*
X62547619Y-29682142D01*
X63595238Y-29396428D02*
X64357142Y-29396428D01*
X64785714Y-28872619D02*
X64833333Y-28825000D01*
X64928571Y-28777380D01*
X65166666Y-28777380D01*
X65261904Y-28825000D01*
X65309523Y-28872619D01*
X65357142Y-28967857D01*
X65357142Y-29063095D01*
X65309523Y-29205952D01*
X64738095Y-29777380D01*
X65357142Y-29777380D01*
X66309523Y-28825000D02*
X66214285Y-28777380D01*
X66071428Y-28777380D01*
X65928571Y-28825000D01*
X65833333Y-28920238D01*
X65785714Y-29015476D01*
X65738095Y-29205952D01*
X65738095Y-29348809D01*
X65785714Y-29539285D01*
X65833333Y-29634523D01*
X65928571Y-29729761D01*
X66071428Y-29777380D01*
X66166666Y-29777380D01*
X66309523Y-29729761D01*
X66357142Y-29682142D01*
X66357142Y-29348809D01*
X66166666Y-29348809D01*
X67214285Y-29110714D02*
X67214285Y-29777380D01*
X66976190Y-28729761D02*
X66738095Y-29444047D01*
X67357142Y-29444047D01*
X67738095Y-29777380D02*
X67738095Y-28777380D01*
X68071428Y-29491666D01*
X68404761Y-28777380D01*
X68404761Y-29777380D01*
X69071428Y-28777380D02*
X69166666Y-28777380D01*
X69261904Y-28825000D01*
X69309523Y-28872619D01*
X69357142Y-28967857D01*
X69404761Y-29158333D01*
X69404761Y-29396428D01*
X69357142Y-29586904D01*
X69309523Y-29682142D01*
X69261904Y-29729761D01*
X69166666Y-29777380D01*
X69071428Y-29777380D01*
X68976190Y-29729761D01*
X68928571Y-29682142D01*
X68880952Y-29586904D01*
X68833333Y-29396428D01*
X68833333Y-29158333D01*
X68880952Y-28967857D01*
X68928571Y-28872619D01*
X68976190Y-28825000D01*
X69071428Y-28777380D01*
X69976190Y-29205952D02*
X69880952Y-29158333D01*
X69833333Y-29110714D01*
X69785714Y-29015476D01*
X69785714Y-28967857D01*
X69833333Y-28872619D01*
X69880952Y-28825000D01*
X69976190Y-28777380D01*
X70166666Y-28777380D01*
X70261904Y-28825000D01*
X70309523Y-28872619D01*
X70357142Y-28967857D01*
X70357142Y-29015476D01*
X70309523Y-29110714D01*
X70261904Y-29158333D01*
X70166666Y-29205952D01*
X69976190Y-29205952D01*
X69880952Y-29253571D01*
X69833333Y-29301190D01*
X69785714Y-29396428D01*
X69785714Y-29586904D01*
X69833333Y-29682142D01*
X69880952Y-29729761D01*
X69976190Y-29777380D01*
X70166666Y-29777380D01*
X70261904Y-29729761D01*
X70309523Y-29682142D01*
X70357142Y-29586904D01*
X70357142Y-29396428D01*
X70309523Y-29301190D01*
X70261904Y-29253571D01*
X70166666Y-29205952D01*
X70738095Y-29729761D02*
X70880952Y-29777380D01*
X71119047Y-29777380D01*
X71214285Y-29729761D01*
X71261904Y-29682142D01*
X71309523Y-29586904D01*
X71309523Y-29491666D01*
X71261904Y-29396428D01*
X71214285Y-29348809D01*
X71119047Y-29301190D01*
X70928571Y-29253571D01*
X70833333Y-29205952D01*
X70785714Y-29158333D01*
X70738095Y-29063095D01*
X70738095Y-28967857D01*
X70785714Y-28872619D01*
X70833333Y-28825000D01*
X70928571Y-28777380D01*
X71166666Y-28777380D01*
X71309523Y-28825000D01*
X72261904Y-29777380D02*
X71690476Y-29777380D01*
X71976190Y-29777380D02*
X71976190Y-28777380D01*
X71880952Y-28920238D01*
X71785714Y-29015476D01*
X71690476Y-29063095D01*
X73261904Y-29682142D02*
X73214285Y-29729761D01*
X73071428Y-29777380D01*
X72976190Y-29777380D01*
X72833333Y-29729761D01*
X72738095Y-29634523D01*
X72690476Y-29539285D01*
X72642857Y-29348809D01*
X72642857Y-29205952D01*
X72690476Y-29015476D01*
X72738095Y-28920238D01*
X72833333Y-28825000D01*
X72976190Y-28777380D01*
X73071428Y-28777380D01*
X73214285Y-28825000D01*
X73261904Y-28872619D01*
D10*
X65916666Y-46383333D02*
X65916666Y-46716666D01*
X65683333Y-46016666D02*
X65916666Y-46383333D01*
X66150000Y-46016666D01*
X66750000Y-46716666D02*
X66350000Y-46716666D01*
X66550000Y-46716666D02*
X66550000Y-46016666D01*
X66483333Y-46116666D01*
X66416666Y-46183333D01*
X66350000Y-46216666D01*
X71983333Y-47016666D02*
X71750000Y-46683333D01*
X71583333Y-47016666D02*
X71583333Y-46316666D01*
X71850000Y-46316666D01*
X71916666Y-46350000D01*
X71950000Y-46383333D01*
X71983333Y-46450000D01*
X71983333Y-46550000D01*
X71950000Y-46616666D01*
X71916666Y-46650000D01*
X71850000Y-46683333D01*
X71583333Y-46683333D01*
X72383333Y-46616666D02*
X72316666Y-46583333D01*
X72283333Y-46550000D01*
X72250000Y-46483333D01*
X72250000Y-46450000D01*
X72283333Y-46383333D01*
X72316666Y-46350000D01*
X72383333Y-46316666D01*
X72516666Y-46316666D01*
X72583333Y-46350000D01*
X72616666Y-46383333D01*
X72650000Y-46450000D01*
X72650000Y-46483333D01*
X72616666Y-46550000D01*
X72583333Y-46583333D01*
X72516666Y-46616666D01*
X72383333Y-46616666D01*
X72316666Y-46650000D01*
X72283333Y-46683333D01*
X72250000Y-46750000D01*
X72250000Y-46883333D01*
X72283333Y-46950000D01*
X72316666Y-46983333D01*
X72383333Y-47016666D01*
X72516666Y-47016666D01*
X72583333Y-46983333D01*
X72616666Y-46950000D01*
X72650000Y-46883333D01*
X72650000Y-46750000D01*
X72616666Y-46683333D01*
X72583333Y-46650000D01*
X72516666Y-46616666D01*
X70683333Y-47016666D02*
X70450000Y-46683333D01*
X70283333Y-47016666D02*
X70283333Y-46316666D01*
X70550000Y-46316666D01*
X70616666Y-46350000D01*
X70650000Y-46383333D01*
X70683333Y-46450000D01*
X70683333Y-46550000D01*
X70650000Y-46616666D01*
X70616666Y-46650000D01*
X70550000Y-46683333D01*
X70283333Y-46683333D01*
X70916666Y-46316666D02*
X71383333Y-46316666D01*
X71083333Y-47016666D01*
X69183333Y-49946666D02*
X68950000Y-49613333D01*
X68783333Y-49946666D02*
X68783333Y-49246666D01*
X69050000Y-49246666D01*
X69116666Y-49280000D01*
X69150000Y-49313333D01*
X69183333Y-49380000D01*
X69183333Y-49480000D01*
X69150000Y-49546666D01*
X69116666Y-49580000D01*
X69050000Y-49613333D01*
X68783333Y-49613333D01*
X69783333Y-49246666D02*
X69650000Y-49246666D01*
X69583333Y-49280000D01*
X69550000Y-49313333D01*
X69483333Y-49413333D01*
X69450000Y-49546666D01*
X69450000Y-49813333D01*
X69483333Y-49880000D01*
X69516666Y-49913333D01*
X69583333Y-49946666D01*
X69716666Y-49946666D01*
X69783333Y-49913333D01*
X69816666Y-49880000D01*
X69850000Y-49813333D01*
X69850000Y-49646666D01*
X69816666Y-49580000D01*
X69783333Y-49546666D01*
X69716666Y-49513333D01*
X69583333Y-49513333D01*
X69516666Y-49546666D01*
X69483333Y-49580000D01*
X69450000Y-49646666D01*
X69383333Y-55716666D02*
X69150000Y-55383333D01*
X68983333Y-55716666D02*
X68983333Y-55016666D01*
X69250000Y-55016666D01*
X69316666Y-55050000D01*
X69350000Y-55083333D01*
X69383333Y-55150000D01*
X69383333Y-55250000D01*
X69350000Y-55316666D01*
X69316666Y-55350000D01*
X69250000Y-55383333D01*
X68983333Y-55383333D01*
X70016666Y-55016666D02*
X69683333Y-55016666D01*
X69650000Y-55350000D01*
X69683333Y-55316666D01*
X69750000Y-55283333D01*
X69916666Y-55283333D01*
X69983333Y-55316666D01*
X70016666Y-55350000D01*
X70050000Y-55416666D01*
X70050000Y-55583333D01*
X70016666Y-55650000D01*
X69983333Y-55683333D01*
X69916666Y-55716666D01*
X69750000Y-55716666D01*
X69683333Y-55683333D01*
X69650000Y-55650000D01*
X61783333Y-57616666D02*
X61550000Y-57283333D01*
X61383333Y-57616666D02*
X61383333Y-56916666D01*
X61650000Y-56916666D01*
X61716666Y-56950000D01*
X61750000Y-56983333D01*
X61783333Y-57050000D01*
X61783333Y-57150000D01*
X61750000Y-57216666D01*
X61716666Y-57250000D01*
X61650000Y-57283333D01*
X61383333Y-57283333D01*
X62383333Y-57150000D02*
X62383333Y-57616666D01*
X62216666Y-56883333D02*
X62050000Y-57383333D01*
X62483333Y-57383333D01*
X67283333Y-55716666D02*
X67050000Y-55383333D01*
X66883333Y-55716666D02*
X66883333Y-55016666D01*
X67150000Y-55016666D01*
X67216666Y-55050000D01*
X67250000Y-55083333D01*
X67283333Y-55150000D01*
X67283333Y-55250000D01*
X67250000Y-55316666D01*
X67216666Y-55350000D01*
X67150000Y-55383333D01*
X66883333Y-55383333D01*
X67516666Y-55016666D02*
X67950000Y-55016666D01*
X67716666Y-55283333D01*
X67816666Y-55283333D01*
X67883333Y-55316666D01*
X67916666Y-55350000D01*
X67950000Y-55416666D01*
X67950000Y-55583333D01*
X67916666Y-55650000D01*
X67883333Y-55683333D01*
X67816666Y-55716666D01*
X67616666Y-55716666D01*
X67550000Y-55683333D01*
X67516666Y-55650000D01*
X61883333Y-46416666D02*
X61650000Y-46083333D01*
X61483333Y-46416666D02*
X61483333Y-45716666D01*
X61750000Y-45716666D01*
X61816666Y-45750000D01*
X61850000Y-45783333D01*
X61883333Y-45850000D01*
X61883333Y-45950000D01*
X61850000Y-46016666D01*
X61816666Y-46050000D01*
X61750000Y-46083333D01*
X61483333Y-46083333D01*
X62150000Y-45783333D02*
X62183333Y-45750000D01*
X62250000Y-45716666D01*
X62416666Y-45716666D01*
X62483333Y-45750000D01*
X62516666Y-45783333D01*
X62550000Y-45850000D01*
X62550000Y-45916666D01*
X62516666Y-46016666D01*
X62116666Y-46416666D01*
X62550000Y-46416666D01*
X61883333Y-53546666D02*
X61650000Y-53213333D01*
X61483333Y-53546666D02*
X61483333Y-52846666D01*
X61750000Y-52846666D01*
X61816666Y-52880000D01*
X61850000Y-52913333D01*
X61883333Y-52980000D01*
X61883333Y-53080000D01*
X61850000Y-53146666D01*
X61816666Y-53180000D01*
X61750000Y-53213333D01*
X61483333Y-53213333D01*
X62550000Y-53546666D02*
X62150000Y-53546666D01*
X62350000Y-53546666D02*
X62350000Y-52846666D01*
X62283333Y-52946666D01*
X62216666Y-53013333D01*
X62150000Y-53046666D01*
X74333333Y-59083333D02*
X74266666Y-59050000D01*
X74200000Y-58983333D01*
X74100000Y-58883333D01*
X74033333Y-58850000D01*
X73966666Y-58850000D01*
X74000000Y-59016666D02*
X73933333Y-58983333D01*
X73866666Y-58916666D01*
X73833333Y-58783333D01*
X73833333Y-58550000D01*
X73866666Y-58416666D01*
X73933333Y-58350000D01*
X74000000Y-58316666D01*
X74133333Y-58316666D01*
X74200000Y-58350000D01*
X74266666Y-58416666D01*
X74300000Y-58550000D01*
X74300000Y-58783333D01*
X74266666Y-58916666D01*
X74200000Y-58983333D01*
X74133333Y-59016666D01*
X74000000Y-59016666D01*
X74533333Y-58316666D02*
X74966666Y-58316666D01*
X74733333Y-58583333D01*
X74833333Y-58583333D01*
X74900000Y-58616666D01*
X74933333Y-58650000D01*
X74966666Y-58716666D01*
X74966666Y-58883333D01*
X74933333Y-58950000D01*
X74900000Y-58983333D01*
X74833333Y-59016666D01*
X74633333Y-59016666D01*
X74566666Y-58983333D01*
X74533333Y-58950000D01*
X61483333Y-49741666D02*
X61483333Y-49041666D01*
X61650000Y-49041666D01*
X61750000Y-49075000D01*
X61816666Y-49141666D01*
X61850000Y-49208333D01*
X61883333Y-49341666D01*
X61883333Y-49441666D01*
X61850000Y-49575000D01*
X61816666Y-49641666D01*
X61750000Y-49708333D01*
X61650000Y-49741666D01*
X61483333Y-49741666D01*
X62150000Y-49108333D02*
X62183333Y-49075000D01*
X62250000Y-49041666D01*
X62416666Y-49041666D01*
X62483333Y-49075000D01*
X62516666Y-49108333D01*
X62550000Y-49175000D01*
X62550000Y-49241666D01*
X62516666Y-49341666D01*
X62116666Y-49741666D01*
X62550000Y-49741666D01*
X61883333Y-55750000D02*
X61850000Y-55783333D01*
X61750000Y-55816666D01*
X61683333Y-55816666D01*
X61583333Y-55783333D01*
X61516666Y-55716666D01*
X61483333Y-55650000D01*
X61450000Y-55516666D01*
X61450000Y-55416666D01*
X61483333Y-55283333D01*
X61516666Y-55216666D01*
X61583333Y-55150000D01*
X61683333Y-55116666D01*
X61750000Y-55116666D01*
X61850000Y-55150000D01*
X61883333Y-55183333D01*
X62483333Y-55116666D02*
X62350000Y-55116666D01*
X62283333Y-55150000D01*
X62250000Y-55183333D01*
X62183333Y-55283333D01*
X62150000Y-55416666D01*
X62150000Y-55683333D01*
X62183333Y-55750000D01*
X62216666Y-55783333D01*
X62283333Y-55816666D01*
X62416666Y-55816666D01*
X62483333Y-55783333D01*
X62516666Y-55750000D01*
X62550000Y-55683333D01*
X62550000Y-55516666D01*
X62516666Y-55450000D01*
X62483333Y-55416666D01*
X62416666Y-55383333D01*
X62283333Y-55383333D01*
X62216666Y-55416666D01*
X62183333Y-55450000D01*
X62150000Y-55516666D01*
X66083333Y-49850000D02*
X66050000Y-49883333D01*
X65950000Y-49916666D01*
X65883333Y-49916666D01*
X65783333Y-49883333D01*
X65716666Y-49816666D01*
X65683333Y-49750000D01*
X65650000Y-49616666D01*
X65650000Y-49516666D01*
X65683333Y-49383333D01*
X65716666Y-49316666D01*
X65783333Y-49250000D01*
X65883333Y-49216666D01*
X65950000Y-49216666D01*
X66050000Y-49250000D01*
X66083333Y-49283333D01*
X66683333Y-49450000D02*
X66683333Y-49916666D01*
X66516666Y-49183333D02*
X66350000Y-49683333D01*
X66783333Y-49683333D01*
X64683333Y-49850000D02*
X64650000Y-49883333D01*
X64550000Y-49916666D01*
X64483333Y-49916666D01*
X64383333Y-49883333D01*
X64316666Y-49816666D01*
X64283333Y-49750000D01*
X64250000Y-49616666D01*
X64250000Y-49516666D01*
X64283333Y-49383333D01*
X64316666Y-49316666D01*
X64383333Y-49250000D01*
X64483333Y-49216666D01*
X64550000Y-49216666D01*
X64650000Y-49250000D01*
X64683333Y-49283333D01*
X64916666Y-49216666D02*
X65350000Y-49216666D01*
X65116666Y-49483333D01*
X65216666Y-49483333D01*
X65283333Y-49516666D01*
X65316666Y-49550000D01*
X65350000Y-49616666D01*
X65350000Y-49783333D01*
X65316666Y-49850000D01*
X65283333Y-49883333D01*
X65216666Y-49916666D01*
X65016666Y-49916666D01*
X64950000Y-49883333D01*
X64916666Y-49850000D01*
X74480000Y-53916666D02*
X74513333Y-53950000D01*
X74546666Y-54050000D01*
X74546666Y-54116666D01*
X74513333Y-54216666D01*
X74446666Y-54283333D01*
X74380000Y-54316666D01*
X74246666Y-54350000D01*
X74146666Y-54350000D01*
X74013333Y-54316666D01*
X73946666Y-54283333D01*
X73880000Y-54216666D01*
X73846666Y-54116666D01*
X73846666Y-54050000D01*
X73880000Y-53950000D01*
X73913333Y-53916666D01*
X73913333Y-53650000D02*
X73880000Y-53616666D01*
X73846666Y-53550000D01*
X73846666Y-53383333D01*
X73880000Y-53316666D01*
X73913333Y-53283333D01*
X73980000Y-53250000D01*
X74046666Y-53250000D01*
X74146666Y-53283333D01*
X74546666Y-53683333D01*
X74546666Y-53250000D01*
X67883333Y-49850000D02*
X67850000Y-49883333D01*
X67750000Y-49916666D01*
X67683333Y-49916666D01*
X67583333Y-49883333D01*
X67516666Y-49816666D01*
X67483333Y-49750000D01*
X67450000Y-49616666D01*
X67450000Y-49516666D01*
X67483333Y-49383333D01*
X67516666Y-49316666D01*
X67583333Y-49250000D01*
X67683333Y-49216666D01*
X67750000Y-49216666D01*
X67850000Y-49250000D01*
X67883333Y-49283333D01*
X68550000Y-49916666D02*
X68150000Y-49916666D01*
X68350000Y-49916666D02*
X68350000Y-49216666D01*
X68283333Y-49316666D01*
X68216666Y-49383333D01*
X68150000Y-49416666D01*
X77806666Y-35273333D02*
X78506666Y-35040000D01*
X77806666Y-34806666D01*
X78440000Y-34173333D02*
X78473333Y-34206666D01*
X78506666Y-34306666D01*
X78506666Y-34373333D01*
X78473333Y-34473333D01*
X78406666Y-34540000D01*
X78340000Y-34573333D01*
X78206666Y-34606666D01*
X78106666Y-34606666D01*
X77973333Y-34573333D01*
X77906666Y-34540000D01*
X77840000Y-34473333D01*
X77806666Y-34373333D01*
X77806666Y-34306666D01*
X77840000Y-34206666D01*
X77873333Y-34173333D01*
X78440000Y-33473333D02*
X78473333Y-33506666D01*
X78506666Y-33606666D01*
X78506666Y-33673333D01*
X78473333Y-33773333D01*
X78406666Y-33840000D01*
X78340000Y-33873333D01*
X78206666Y-33906666D01*
X78106666Y-33906666D01*
X77973333Y-33873333D01*
X77906666Y-33840000D01*
X77840000Y-33773333D01*
X77806666Y-33673333D01*
X77806666Y-33606666D01*
X77840000Y-33506666D01*
X77873333Y-33473333D01*
X77840000Y-42493333D02*
X77806666Y-42560000D01*
X77806666Y-42660000D01*
X77840000Y-42760000D01*
X77906666Y-42826666D01*
X77973333Y-42860000D01*
X78106666Y-42893333D01*
X78206666Y-42893333D01*
X78340000Y-42860000D01*
X78406666Y-42826666D01*
X78473333Y-42760000D01*
X78506666Y-42660000D01*
X78506666Y-42593333D01*
X78473333Y-42493333D01*
X78440000Y-42460000D01*
X78206666Y-42460000D01*
X78206666Y-42593333D01*
X78506666Y-42160000D02*
X77806666Y-42160000D01*
X78506666Y-41760000D01*
X77806666Y-41760000D01*
X78506666Y-41426666D02*
X77806666Y-41426666D01*
X77806666Y-41260000D01*
X77840000Y-41160000D01*
X77906666Y-41093333D01*
X77973333Y-41060000D01*
X78106666Y-41026666D01*
X78206666Y-41026666D01*
X78340000Y-41060000D01*
X78406666Y-41093333D01*
X78473333Y-41160000D01*
X78506666Y-41260000D01*
X78506666Y-41426666D01*
X78506666Y-44883333D02*
X78173333Y-45116666D01*
X78506666Y-45283333D02*
X77806666Y-45283333D01*
X77806666Y-45016666D01*
X77840000Y-44950000D01*
X77873333Y-44916666D01*
X77940000Y-44883333D01*
X78040000Y-44883333D01*
X78106666Y-44916666D01*
X78140000Y-44950000D01*
X78173333Y-45016666D01*
X78173333Y-45283333D01*
X78473333Y-44616666D02*
X78506666Y-44516666D01*
X78506666Y-44350000D01*
X78473333Y-44283333D01*
X78440000Y-44250000D01*
X78373333Y-44216666D01*
X78306666Y-44216666D01*
X78240000Y-44250000D01*
X78206666Y-44283333D01*
X78173333Y-44350000D01*
X78140000Y-44483333D01*
X78106666Y-44550000D01*
X78073333Y-44583333D01*
X78006666Y-44616666D01*
X77940000Y-44616666D01*
X77873333Y-44583333D01*
X77840000Y-44550000D01*
X77806666Y-44483333D01*
X77806666Y-44316666D01*
X77840000Y-44216666D01*
X77806666Y-44016666D02*
X77806666Y-43616666D01*
X78506666Y-43816666D02*
X77806666Y-43816666D01*
X78440000Y-39836666D02*
X78473333Y-39870000D01*
X78506666Y-39970000D01*
X78506666Y-40036666D01*
X78473333Y-40136666D01*
X78406666Y-40203333D01*
X78340000Y-40236666D01*
X78206666Y-40270000D01*
X78106666Y-40270000D01*
X77973333Y-40236666D01*
X77906666Y-40203333D01*
X77840000Y-40136666D01*
X77806666Y-40036666D01*
X77806666Y-39970000D01*
X77840000Y-39870000D01*
X77873333Y-39836666D01*
X78506666Y-39203333D02*
X78506666Y-39536666D01*
X77806666Y-39536666D01*
X78506666Y-38970000D02*
X77806666Y-38970000D01*
X78506666Y-38570000D02*
X78106666Y-38870000D01*
X77806666Y-38570000D02*
X78206666Y-38970000D01*
X78506666Y-37246666D02*
X77806666Y-37246666D01*
X77806666Y-36780000D02*
X77806666Y-36646666D01*
X77840000Y-36580000D01*
X77906666Y-36513333D01*
X78040000Y-36480000D01*
X78273333Y-36480000D01*
X78406666Y-36513333D01*
X78473333Y-36580000D01*
X78506666Y-36646666D01*
X78506666Y-36780000D01*
X78473333Y-36846666D01*
X78406666Y-36913333D01*
X78273333Y-36946666D01*
X78040000Y-36946666D01*
X77906666Y-36913333D01*
X77840000Y-36846666D01*
X77806666Y-36780000D01*
X67133333Y-57583333D02*
X67066666Y-57550000D01*
X67000000Y-57483333D01*
X66900000Y-57383333D01*
X66833333Y-57350000D01*
X66766666Y-57350000D01*
X66800000Y-57516666D02*
X66733333Y-57483333D01*
X66666666Y-57416666D01*
X66633333Y-57283333D01*
X66633333Y-57050000D01*
X66666666Y-56916666D01*
X66733333Y-56850000D01*
X66800000Y-56816666D01*
X66933333Y-56816666D01*
X67000000Y-56850000D01*
X67066666Y-56916666D01*
X67100000Y-57050000D01*
X67100000Y-57283333D01*
X67066666Y-57416666D01*
X67000000Y-57483333D01*
X66933333Y-57516666D01*
X66800000Y-57516666D01*
X67366666Y-56883333D02*
X67400000Y-56850000D01*
X67466666Y-56816666D01*
X67633333Y-56816666D01*
X67700000Y-56850000D01*
X67733333Y-56883333D01*
X67766666Y-56950000D01*
X67766666Y-57016666D01*
X67733333Y-57116666D01*
X67333333Y-57516666D01*
X67766666Y-57516666D01*
X63533333Y-57583333D02*
X63466666Y-57550000D01*
X63400000Y-57483333D01*
X63300000Y-57383333D01*
X63233333Y-57350000D01*
X63166666Y-57350000D01*
X63200000Y-57516666D02*
X63133333Y-57483333D01*
X63066666Y-57416666D01*
X63033333Y-57283333D01*
X63033333Y-57050000D01*
X63066666Y-56916666D01*
X63133333Y-56850000D01*
X63200000Y-56816666D01*
X63333333Y-56816666D01*
X63400000Y-56850000D01*
X63466666Y-56916666D01*
X63500000Y-57050000D01*
X63500000Y-57283333D01*
X63466666Y-57416666D01*
X63400000Y-57483333D01*
X63333333Y-57516666D01*
X63200000Y-57516666D01*
X64166666Y-57516666D02*
X63766666Y-57516666D01*
X63966666Y-57516666D02*
X63966666Y-56816666D01*
X63900000Y-56916666D01*
X63833333Y-56983333D01*
X63766666Y-57016666D01*
X62916666Y-52550000D02*
X62883333Y-52583333D01*
X62783333Y-52616666D01*
X62716666Y-52616666D01*
X62616666Y-52583333D01*
X62550000Y-52516666D01*
X62516666Y-52450000D01*
X62483333Y-52316666D01*
X62483333Y-52216666D01*
X62516666Y-52083333D01*
X62550000Y-52016666D01*
X62616666Y-51950000D01*
X62716666Y-51916666D01*
X62783333Y-51916666D01*
X62883333Y-51950000D01*
X62916666Y-51983333D01*
X63216666Y-52150000D02*
X63216666Y-52850000D01*
X63216666Y-52183333D02*
X63283333Y-52150000D01*
X63416666Y-52150000D01*
X63483333Y-52183333D01*
X63516666Y-52216666D01*
X63550000Y-52283333D01*
X63550000Y-52483333D01*
X63516666Y-52550000D01*
X63483333Y-52583333D01*
X63416666Y-52616666D01*
X63283333Y-52616666D01*
X63216666Y-52583333D01*
X64150000Y-52616666D02*
X64150000Y-52250000D01*
X64116666Y-52183333D01*
X64050000Y-52150000D01*
X63916666Y-52150000D01*
X63850000Y-52183333D01*
X64150000Y-52583333D02*
X64083333Y-52616666D01*
X63916666Y-52616666D01*
X63850000Y-52583333D01*
X63816666Y-52516666D01*
X63816666Y-52450000D01*
X63850000Y-52383333D01*
X63916666Y-52350000D01*
X64083333Y-52350000D01*
X64150000Y-52316666D01*
X64483333Y-52616666D02*
X64483333Y-52150000D01*
X64483333Y-52283333D02*
X64516666Y-52216666D01*
X64550000Y-52183333D01*
X64616666Y-52150000D01*
X64683333Y-52150000D01*
X65216666Y-52616666D02*
X65216666Y-52250000D01*
X65183333Y-52183333D01*
X65116666Y-52150000D01*
X64983333Y-52150000D01*
X64916666Y-52183333D01*
X65216666Y-52583333D02*
X65150000Y-52616666D01*
X64983333Y-52616666D01*
X64916666Y-52583333D01*
X64883333Y-52516666D01*
X64883333Y-52450000D01*
X64916666Y-52383333D01*
X64983333Y-52350000D01*
X65150000Y-52350000D01*
X65216666Y-52316666D01*
X65916666Y-52616666D02*
X65516666Y-52616666D01*
X65716666Y-52616666D02*
X65716666Y-51916666D01*
X65650000Y-52016666D01*
X65583333Y-52083333D01*
X65516666Y-52116666D01*
X65283333Y-55516666D02*
X65283333Y-54816666D01*
X65450000Y-54816666D01*
X65550000Y-54850000D01*
X65616666Y-54916666D01*
X65650000Y-54983333D01*
X65683333Y-55116666D01*
X65683333Y-55216666D01*
X65650000Y-55350000D01*
X65616666Y-55416666D01*
X65550000Y-55483333D01*
X65450000Y-55516666D01*
X65283333Y-55516666D01*
X66350000Y-55516666D02*
X65950000Y-55516666D01*
X66150000Y-55516666D02*
X66150000Y-54816666D01*
X66083333Y-54916666D01*
X66016666Y-54983333D01*
X65950000Y-55016666D01*
X74716666Y-34033333D02*
X75416666Y-33800000D01*
X74716666Y-33566666D01*
X75383333Y-33366666D02*
X75416666Y-33300000D01*
X75416666Y-33166666D01*
X75383333Y-33100000D01*
X75316666Y-33066666D01*
X75283333Y-33066666D01*
X75216666Y-33100000D01*
X75183333Y-33166666D01*
X75183333Y-33266666D01*
X75150000Y-33333333D01*
X75083333Y-33366666D01*
X75050000Y-33366666D01*
X74983333Y-33333333D01*
X74950000Y-33266666D01*
X74950000Y-33166666D01*
X74983333Y-33100000D01*
X75383333Y-32500000D02*
X75416666Y-32566666D01*
X75416666Y-32700000D01*
X75383333Y-32766666D01*
X75316666Y-32800000D01*
X75050000Y-32800000D01*
X74983333Y-32766666D01*
X74950000Y-32700000D01*
X74950000Y-32566666D01*
X74983333Y-32500000D01*
X75050000Y-32466666D01*
X75116666Y-32466666D01*
X75183333Y-32800000D01*
X74950000Y-32166666D02*
X75416666Y-32166666D01*
X75016666Y-32166666D02*
X74983333Y-32133333D01*
X74950000Y-32066666D01*
X74950000Y-31966666D01*
X74983333Y-31900000D01*
X75050000Y-31866666D01*
X75416666Y-31866666D01*
X75483333Y-31700000D02*
X75483333Y-31166666D01*
X75416666Y-30900000D02*
X75383333Y-30966666D01*
X75350000Y-31000000D01*
X75283333Y-31033333D01*
X75083333Y-31033333D01*
X75016666Y-31000000D01*
X74983333Y-30966666D01*
X74950000Y-30900000D01*
X74950000Y-30800000D01*
X74983333Y-30733333D01*
X75016666Y-30700000D01*
X75083333Y-30666666D01*
X75283333Y-30666666D01*
X75350000Y-30700000D01*
X75383333Y-30733333D01*
X75416666Y-30800000D01*
X75416666Y-30900000D01*
X74950000Y-30066666D02*
X75416666Y-30066666D01*
X74950000Y-30366666D02*
X75316666Y-30366666D01*
X75383333Y-30333333D01*
X75416666Y-30266666D01*
X75416666Y-30166666D01*
X75383333Y-30100000D01*
X75350000Y-30066666D01*
X74950000Y-29833333D02*
X74950000Y-29566666D01*
X74716666Y-29733333D02*
X75316666Y-29733333D01*
X75383333Y-29700000D01*
X75416666Y-29633333D01*
X75416666Y-29566666D01*
M02*
