G04 #@! TF.GenerationSoftware,KiCad,Pcbnew,(6.0.7)*
G04 #@! TF.CreationDate,2022-09-04T16:16:14-05:00*
G04 #@! TF.ProjectId,parasite-mini-test,70617261-7369-4746-952d-6d696e692d74,1.2.0*
G04 #@! TF.SameCoordinates,Original*
G04 #@! TF.FileFunction,Paste,Top*
G04 #@! TF.FilePolarity,Positive*
%FSLAX46Y46*%
G04 Gerber Fmt 4.6, Leading zero omitted, Abs format (unit mm)*
G04 Created by KiCad (PCBNEW (6.0.7)) date 2022-09-04 16:16:14*
%MOMM*%
%LPD*%
G01*
G04 APERTURE LIST*
G04 Aperture macros list*
%AMRoundRect*
0 Rectangle with rounded corners*
0 $1 Rounding radius*
0 $2 $3 $4 $5 $6 $7 $8 $9 X,Y pos of 4 corners*
0 Add a 4 corners polygon primitive as box body*
4,1,4,$2,$3,$4,$5,$6,$7,$8,$9,$2,$3,0*
0 Add four circle primitives for the rounded corners*
1,1,$1+$1,$2,$3*
1,1,$1+$1,$4,$5*
1,1,$1+$1,$6,$7*
1,1,$1+$1,$8,$9*
0 Add four rect primitives between the rounded corners*
20,1,$1+$1,$2,$3,$4,$5,0*
20,1,$1+$1,$4,$5,$6,$7,0*
20,1,$1+$1,$6,$7,$8,$9,0*
20,1,$1+$1,$8,$9,$2,$3,0*%
G04 Aperture macros list end*
%ADD10RoundRect,0.147500X0.172500X-0.147500X0.172500X0.147500X-0.172500X0.147500X-0.172500X-0.147500X0*%
%ADD11RoundRect,0.147500X0.147500X0.172500X-0.147500X0.172500X-0.147500X-0.172500X0.147500X-0.172500X0*%
%ADD12RoundRect,0.147500X-0.147500X-0.172500X0.147500X-0.172500X0.147500X0.172500X-0.147500X0.172500X0*%
%ADD13R,0.800000X0.900000*%
%ADD14RoundRect,0.147500X-0.172500X0.147500X-0.172500X-0.147500X0.172500X-0.147500X0.172500X0.147500X0*%
%ADD15R,1.000000X1.800000*%
%ADD16RoundRect,0.218750X0.256250X-0.218750X0.256250X0.218750X-0.256250X0.218750X-0.256250X-0.218750X0*%
%ADD17RoundRect,0.243750X0.456250X-0.243750X0.456250X0.243750X-0.456250X0.243750X-0.456250X-0.243750X0*%
%ADD18RoundRect,0.125000X0.125000X0.575000X-0.125000X0.575000X-0.125000X-0.575000X0.125000X-0.575000X0*%
%ADD19RoundRect,0.087500X0.187500X0.087500X-0.187500X0.087500X-0.187500X-0.087500X0.187500X-0.087500X0*%
%ADD20RoundRect,0.087500X-0.187500X-0.087500X0.187500X-0.087500X0.187500X0.087500X-0.187500X0.087500X0*%
%ADD21R,1.300000X1.700000*%
%ADD22R,1.000000X0.650000*%
%ADD23R,0.650000X1.000000*%
G04 APERTURE END LIST*
D10*
X68000000Y-51400000D03*
X68000000Y-50430000D03*
D11*
X62400000Y-56400000D03*
X61430000Y-56400000D03*
D10*
X69300000Y-51400000D03*
X69300000Y-50430000D03*
D12*
X68900000Y-56300000D03*
X69870000Y-56300000D03*
D11*
X62400000Y-58200000D03*
X61430000Y-58200000D03*
D13*
X63850000Y-59700000D03*
X65750000Y-59700000D03*
X64800000Y-57700000D03*
D12*
X66815000Y-56300000D03*
X67785000Y-56300000D03*
X61515000Y-54400000D03*
X62485000Y-54400000D03*
D14*
X62000000Y-47000000D03*
X62000000Y-47970000D03*
D11*
X73300000Y-53800000D03*
X72330000Y-53800000D03*
D13*
X74050000Y-56300000D03*
X72150000Y-56300000D03*
X73100000Y-58300000D03*
D15*
X65000000Y-48000000D03*
X67500000Y-48000000D03*
D16*
X62000000Y-52000000D03*
X62000000Y-50425000D03*
D10*
X66200000Y-51400000D03*
X66200000Y-50430000D03*
D14*
X64800000Y-50430000D03*
X64800000Y-51400000D03*
D17*
X64100000Y-55237500D03*
X64100000Y-53362500D03*
D10*
X70700000Y-48570000D03*
X70700000Y-47600000D03*
D14*
X72100000Y-47600000D03*
X72100000Y-48570000D03*
D13*
X67500000Y-59700000D03*
X69400000Y-59700000D03*
X68450000Y-57700000D03*
D18*
X72800000Y-50600000D03*
D19*
X73825000Y-50100000D03*
D20*
X71775000Y-50100000D03*
X71775000Y-51100000D03*
D19*
X73825000Y-51100000D03*
D21*
X69700000Y-53700000D03*
X66200000Y-53700000D03*
D22*
X60881000Y-31170000D03*
X60881000Y-32440000D03*
X60881000Y-33710000D03*
X60881000Y-34980000D03*
X60881000Y-36250000D03*
X60881000Y-37520000D03*
X60881000Y-38790000D03*
X60881000Y-40060000D03*
X60881000Y-41330000D03*
X60881000Y-42600000D03*
D23*
X62530000Y-44819000D03*
X63800000Y-44819000D03*
X65070000Y-44819000D03*
X66340000Y-44819000D03*
X67610000Y-44819000D03*
X68880000Y-44819000D03*
X70150000Y-44819000D03*
X71420000Y-44819000D03*
D22*
X73119000Y-42600000D03*
X73119000Y-41330000D03*
X73119000Y-40060000D03*
X73119000Y-38790000D03*
X73119000Y-37520000D03*
X73119000Y-36250000D03*
X73119000Y-34980000D03*
X73119000Y-33710000D03*
X73119000Y-32440000D03*
X73119000Y-31170000D03*
M02*
