G04 #@! TF.GenerationSoftware,KiCad,Pcbnew,(6.0.7)*
G04 #@! TF.CreationDate,2022-09-04T16:16:14-05:00*
G04 #@! TF.ProjectId,parasite-mini-test,70617261-7369-4746-952d-6d696e692d74,1.2.0*
G04 #@! TF.SameCoordinates,Original*
G04 #@! TF.FileFunction,Copper,L2,Bot*
G04 #@! TF.FilePolarity,Positive*
%FSLAX46Y46*%
G04 Gerber Fmt 4.6, Leading zero omitted, Abs format (unit mm)*
G04 Created by KiCad (PCBNEW (6.0.7)) date 2022-09-04 16:16:14*
%MOMM*%
%LPD*%
G01*
G04 APERTURE LIST*
G04 #@! TA.AperFunction,SMDPad,CuDef*
%ADD10R,5.100000X5.100000*%
G04 #@! TD*
G04 #@! TA.AperFunction,SMDPad,CuDef*
%ADD11C,17.800000*%
G04 #@! TD*
G04 #@! TA.AperFunction,ViaPad*
%ADD12C,0.800000*%
G04 #@! TD*
G04 #@! TA.AperFunction,Conductor*
%ADD13C,0.250000*%
G04 #@! TD*
G04 #@! TA.AperFunction,Conductor*
%ADD14C,0.500000*%
G04 #@! TD*
G04 APERTURE END LIST*
D10*
X67100000Y-42100000D03*
X67100000Y-67700000D03*
D11*
X67100000Y-54900000D03*
D12*
X65800000Y-61100000D03*
X69900000Y-37400000D03*
X74800000Y-54700000D03*
X67100000Y-38200000D03*
X67198744Y-55038241D03*
X62925065Y-31530239D03*
X63500000Y-51400000D03*
X68700000Y-60700000D03*
X59200000Y-43100000D03*
X69900000Y-38400000D03*
X59600000Y-37200000D03*
X65862500Y-55237500D03*
X71300000Y-52400000D03*
X63600000Y-41600000D03*
X64100000Y-55237500D03*
X72200000Y-52400000D03*
X59600000Y-35400000D03*
X63500000Y-50500000D03*
X59200000Y-42000000D03*
X63500000Y-38200000D03*
X59600000Y-36300000D03*
X63500000Y-49600000D03*
X59200000Y-44200000D03*
X63600000Y-42700000D03*
X65800000Y-38200000D03*
X64700000Y-38200000D03*
X74800000Y-53800000D03*
X68550000Y-66250000D03*
X67100000Y-67700000D03*
X67800000Y-67000000D03*
X75100000Y-31800000D03*
X63000000Y-33800000D03*
X63800000Y-64300000D03*
X60900000Y-45600000D03*
X62100000Y-35600000D03*
X58400000Y-50400000D03*
X59699999Y-33500000D03*
X71800000Y-34700000D03*
X76100000Y-38200000D03*
X69500000Y-34400000D03*
X75900000Y-40300000D03*
X69500000Y-34400000D03*
X75300000Y-43200000D03*
X73119000Y-42600000D03*
X71600000Y-37700000D03*
X74700000Y-45700000D03*
X74493886Y-47510431D03*
X70800000Y-36300000D03*
D13*
X63200000Y-38200000D02*
X64500000Y-38200000D01*
X63225000Y-38275000D02*
X63300000Y-38200000D01*
X65800000Y-38200000D02*
X67100000Y-38200000D01*
D14*
X74085885Y-48360432D02*
X67825453Y-42100000D01*
X70150000Y-67700000D02*
X76450001Y-61399999D01*
X67100000Y-67700000D02*
X70150000Y-67700000D01*
X74360432Y-48360432D02*
X74085885Y-48360432D01*
X76450001Y-50450001D02*
X74360432Y-48360432D01*
X76450001Y-61399999D02*
X76450001Y-50450001D01*
X67825453Y-42100000D02*
X67100000Y-42100000D01*
D13*
X65000000Y-31800000D02*
X75100000Y-31800000D01*
X57674999Y-34451998D02*
X57674999Y-59128001D01*
X59351998Y-32774999D02*
X57674999Y-34451998D01*
X63000000Y-33800000D02*
X61974999Y-32774999D01*
X61974999Y-32774999D02*
X59351998Y-32774999D01*
X63000000Y-33800000D02*
X65000000Y-31800000D01*
X57674999Y-59128001D02*
X62846998Y-64300000D01*
X62846998Y-64300000D02*
X63800000Y-64300000D01*
X60900000Y-44600000D02*
X60900000Y-45600000D01*
X62100000Y-35600000D02*
X62100000Y-36165685D01*
X62500000Y-43000000D02*
X60900000Y-44600000D01*
X62500000Y-36565685D02*
X62500000Y-43000000D01*
X62100000Y-36165685D02*
X62500000Y-36565685D01*
X59699999Y-33500000D02*
X58400000Y-34799999D01*
X58400000Y-34799999D02*
X58400000Y-50400000D01*
X71800000Y-34700000D02*
X75500000Y-38400000D01*
X75500000Y-38400000D02*
X75900000Y-38400000D01*
X75900000Y-38400000D02*
X76100000Y-38200000D01*
X71000001Y-35400001D02*
X75900000Y-40300000D01*
X69500000Y-34400000D02*
X69899999Y-34799999D01*
X70500001Y-35400001D02*
X69500000Y-34400000D01*
X71000001Y-35400001D02*
X70500001Y-35400001D01*
X73719000Y-43200000D02*
X73119000Y-42600000D01*
X75300000Y-43200000D02*
X73719000Y-43200000D01*
X74700000Y-45700000D02*
X71600000Y-42600000D01*
X71600000Y-42600000D02*
X71600000Y-37700000D01*
X70800000Y-42900000D02*
X70800000Y-36300000D01*
X74400000Y-47500000D02*
X74400000Y-46500000D01*
X74400000Y-46500000D02*
X70800000Y-42900000D01*
G04 #@! TA.AperFunction,Conductor*
G36*
X78433621Y-30620002D02*
G01*
X78480114Y-30673658D01*
X78491500Y-30726000D01*
X78491500Y-100057184D01*
X78471498Y-100125305D01*
X78454595Y-100146279D01*
X70243831Y-108357041D01*
X70239559Y-108361118D01*
X68248509Y-110173758D01*
X68200262Y-110201160D01*
X68188569Y-110204707D01*
X68164347Y-110209525D01*
X68108787Y-110214997D01*
X68012346Y-110224496D01*
X67987654Y-110224496D01*
X67891213Y-110214997D01*
X67835653Y-110209525D01*
X67811428Y-110204706D01*
X67791652Y-110198707D01*
X67744395Y-110172197D01*
X67017530Y-109524395D01*
X66155950Y-108756531D01*
X66150716Y-108751588D01*
X57545405Y-100146279D01*
X57511379Y-100083967D01*
X57508500Y-100057184D01*
X57508500Y-60161596D01*
X57528502Y-60093475D01*
X57582158Y-60046982D01*
X57652432Y-60036878D01*
X57717012Y-60066372D01*
X57723595Y-60072501D01*
X62343346Y-64692253D01*
X62350886Y-64700539D01*
X62354998Y-64707018D01*
X62360775Y-64712443D01*
X62404649Y-64753643D01*
X62407491Y-64756398D01*
X62427228Y-64776135D01*
X62430425Y-64778615D01*
X62439445Y-64786318D01*
X62471677Y-64816586D01*
X62478623Y-64820405D01*
X62478626Y-64820407D01*
X62489432Y-64826348D01*
X62505951Y-64837199D01*
X62521957Y-64849614D01*
X62529226Y-64852759D01*
X62529230Y-64852762D01*
X62562535Y-64867174D01*
X62573185Y-64872391D01*
X62611938Y-64893695D01*
X62619613Y-64895666D01*
X62619614Y-64895666D01*
X62631560Y-64898733D01*
X62650265Y-64905137D01*
X62668853Y-64913181D01*
X62676676Y-64914420D01*
X62676686Y-64914423D01*
X62712522Y-64920099D01*
X62724142Y-64922505D01*
X62759287Y-64931528D01*
X62766968Y-64933500D01*
X62787222Y-64933500D01*
X62806932Y-64935051D01*
X62826941Y-64938220D01*
X62834833Y-64937474D01*
X62870959Y-64934059D01*
X62882817Y-64933500D01*
X63091800Y-64933500D01*
X63159921Y-64953502D01*
X63179147Y-64969843D01*
X63179420Y-64969540D01*
X63184332Y-64973963D01*
X63188747Y-64978866D01*
X63343248Y-65091118D01*
X63349276Y-65093802D01*
X63349278Y-65093803D01*
X63375063Y-65105283D01*
X63517712Y-65168794D01*
X63611112Y-65188647D01*
X63698056Y-65207128D01*
X63698061Y-65207128D01*
X63704513Y-65208500D01*
X63895487Y-65208500D01*
X63901942Y-65207128D01*
X63902332Y-65207087D01*
X63972170Y-65219860D01*
X64024016Y-65268363D01*
X64041500Y-65332397D01*
X64041500Y-70298134D01*
X64048255Y-70360316D01*
X64099385Y-70496705D01*
X64186739Y-70613261D01*
X64303295Y-70700615D01*
X64439684Y-70751745D01*
X64501866Y-70758500D01*
X69698134Y-70758500D01*
X69760316Y-70751745D01*
X69896705Y-70700615D01*
X70013261Y-70613261D01*
X70100615Y-70496705D01*
X70151745Y-70360316D01*
X70158500Y-70298134D01*
X70158500Y-68576507D01*
X70178502Y-68508386D01*
X70232158Y-68461893D01*
X70274286Y-68450922D01*
X70276048Y-68450779D01*
X70292339Y-68449454D01*
X70292342Y-68449453D01*
X70299637Y-68448860D01*
X70306601Y-68446604D01*
X70312560Y-68445413D01*
X70318415Y-68444029D01*
X70325681Y-68443182D01*
X70394327Y-68418265D01*
X70398455Y-68416848D01*
X70460936Y-68396607D01*
X70460938Y-68396606D01*
X70467899Y-68394351D01*
X70474154Y-68390555D01*
X70479628Y-68388049D01*
X70485058Y-68385330D01*
X70491937Y-68382833D01*
X70552976Y-68342814D01*
X70556680Y-68340477D01*
X70619107Y-68302595D01*
X70627484Y-68295197D01*
X70627508Y-68295224D01*
X70630500Y-68292571D01*
X70633733Y-68289868D01*
X70639852Y-68285856D01*
X70693128Y-68229617D01*
X70695506Y-68227175D01*
X76938912Y-61983769D01*
X76953324Y-61971383D01*
X76964919Y-61962850D01*
X76964924Y-61962845D01*
X76970819Y-61958507D01*
X76975558Y-61952929D01*
X76975561Y-61952926D01*
X77005036Y-61918231D01*
X77011966Y-61910715D01*
X77017661Y-61905020D01*
X77035282Y-61882748D01*
X77038073Y-61879344D01*
X77080592Y-61829296D01*
X77080593Y-61829294D01*
X77085334Y-61823714D01*
X77088662Y-61817198D01*
X77092029Y-61812149D01*
X77095196Y-61807020D01*
X77099735Y-61801283D01*
X77130656Y-61735124D01*
X77132562Y-61731224D01*
X77138353Y-61719883D01*
X77165770Y-61666191D01*
X77167509Y-61659082D01*
X77169605Y-61653448D01*
X77171524Y-61647678D01*
X77174623Y-61641049D01*
X77189492Y-61569564D01*
X77190462Y-61565281D01*
X77206474Y-61499843D01*
X77207809Y-61494389D01*
X77208501Y-61483235D01*
X77208536Y-61483237D01*
X77208776Y-61479265D01*
X77209153Y-61475044D01*
X77210642Y-61467884D01*
X77208547Y-61390457D01*
X77208501Y-61387049D01*
X77208501Y-50517071D01*
X77209934Y-50498121D01*
X77212100Y-50483886D01*
X77212100Y-50483882D01*
X77213200Y-50476652D01*
X77208916Y-50423983D01*
X77208501Y-50413768D01*
X77208501Y-50405708D01*
X77205210Y-50377481D01*
X77204779Y-50373122D01*
X77199454Y-50307661D01*
X77198861Y-50300365D01*
X77196606Y-50293404D01*
X77195419Y-50287464D01*
X77194030Y-50281589D01*
X77193183Y-50274320D01*
X77168265Y-50205671D01*
X77166848Y-50201543D01*
X77146608Y-50139065D01*
X77146607Y-50139063D01*
X77144352Y-50132102D01*
X77140556Y-50125847D01*
X77138050Y-50120373D01*
X77135331Y-50114943D01*
X77132834Y-50108064D01*
X77092815Y-50047025D01*
X77090468Y-50043306D01*
X77052596Y-49980894D01*
X77045198Y-49972517D01*
X77045225Y-49972493D01*
X77042572Y-49969501D01*
X77039869Y-49966268D01*
X77035857Y-49960149D01*
X76979618Y-49906873D01*
X76977176Y-49904495D01*
X75259978Y-48187297D01*
X75225952Y-48124985D01*
X75231017Y-48054170D01*
X75239954Y-48035202D01*
X75325109Y-47887710D01*
X75325110Y-47887709D01*
X75328413Y-47881987D01*
X75387428Y-47700359D01*
X75407390Y-47510431D01*
X75387428Y-47320503D01*
X75328413Y-47138875D01*
X75232926Y-46973487D01*
X75105139Y-46831565D01*
X75085439Y-46817252D01*
X75042085Y-46761029D01*
X75033500Y-46715316D01*
X75033500Y-46627819D01*
X75053502Y-46559698D01*
X75108251Y-46512712D01*
X75150722Y-46493803D01*
X75150724Y-46493802D01*
X75156752Y-46491118D01*
X75311253Y-46378866D01*
X75338068Y-46349085D01*
X75434621Y-46241852D01*
X75434622Y-46241851D01*
X75439040Y-46236944D01*
X75534527Y-46071556D01*
X75593542Y-45889928D01*
X75594464Y-45881162D01*
X75612814Y-45706565D01*
X75613504Y-45700000D01*
X75602212Y-45592558D01*
X75594232Y-45516635D01*
X75594232Y-45516633D01*
X75593542Y-45510072D01*
X75534527Y-45328444D01*
X75439040Y-45163056D01*
X75377969Y-45095229D01*
X75315675Y-45026045D01*
X75315674Y-45026044D01*
X75311253Y-45021134D01*
X75156752Y-44908882D01*
X75150724Y-44906198D01*
X75150722Y-44906197D01*
X74988319Y-44833891D01*
X74988318Y-44833891D01*
X74982288Y-44831206D01*
X74888888Y-44811353D01*
X74801944Y-44792872D01*
X74801939Y-44792872D01*
X74795487Y-44791500D01*
X74739594Y-44791500D01*
X74671473Y-44771498D01*
X74650499Y-44754595D01*
X73944499Y-44048595D01*
X73910473Y-43986283D01*
X73915538Y-43915468D01*
X73958085Y-43858632D01*
X74024605Y-43833821D01*
X74033594Y-43833500D01*
X74591800Y-43833500D01*
X74659921Y-43853502D01*
X74679147Y-43869843D01*
X74679420Y-43869540D01*
X74684332Y-43873963D01*
X74688747Y-43878866D01*
X74843248Y-43991118D01*
X74849276Y-43993802D01*
X74849278Y-43993803D01*
X74972344Y-44048595D01*
X75017712Y-44068794D01*
X75111112Y-44088647D01*
X75198056Y-44107128D01*
X75198061Y-44107128D01*
X75204513Y-44108500D01*
X75395487Y-44108500D01*
X75401939Y-44107128D01*
X75401944Y-44107128D01*
X75488887Y-44088647D01*
X75582288Y-44068794D01*
X75627656Y-44048595D01*
X75750722Y-43993803D01*
X75750724Y-43993802D01*
X75756752Y-43991118D01*
X75911253Y-43878866D01*
X76039040Y-43736944D01*
X76134527Y-43571556D01*
X76193542Y-43389928D01*
X76213504Y-43200000D01*
X76210384Y-43170312D01*
X76194232Y-43016635D01*
X76194232Y-43016633D01*
X76193542Y-43010072D01*
X76134527Y-42828444D01*
X76039040Y-42663056D01*
X75911253Y-42521134D01*
X75756752Y-42408882D01*
X75750724Y-42406198D01*
X75750722Y-42406197D01*
X75588319Y-42333891D01*
X75588318Y-42333891D01*
X75582288Y-42331206D01*
X75488887Y-42311353D01*
X75401944Y-42292872D01*
X75401939Y-42292872D01*
X75395487Y-42291500D01*
X75204513Y-42291500D01*
X75198061Y-42292872D01*
X75198056Y-42292872D01*
X75111113Y-42311353D01*
X75017712Y-42331206D01*
X75011682Y-42333891D01*
X75011681Y-42333891D01*
X74849278Y-42406197D01*
X74849276Y-42406198D01*
X74843248Y-42408882D01*
X74688747Y-42521134D01*
X74684332Y-42526037D01*
X74679420Y-42530460D01*
X74678295Y-42529211D01*
X74624986Y-42562051D01*
X74591800Y-42566500D01*
X74142434Y-42566500D01*
X74074313Y-42546498D01*
X74027820Y-42492842D01*
X74017124Y-42453670D01*
X74013232Y-42416635D01*
X74013232Y-42416633D01*
X74012542Y-42410072D01*
X73953527Y-42228444D01*
X73858040Y-42063056D01*
X73730253Y-41921134D01*
X73575752Y-41808882D01*
X73569724Y-41806198D01*
X73569722Y-41806197D01*
X73407319Y-41733891D01*
X73407318Y-41733891D01*
X73401288Y-41731206D01*
X73307887Y-41711353D01*
X73220944Y-41692872D01*
X73220939Y-41692872D01*
X73214487Y-41691500D01*
X73023513Y-41691500D01*
X73017061Y-41692872D01*
X73017056Y-41692872D01*
X72930112Y-41711353D01*
X72836712Y-41731206D01*
X72830682Y-41733891D01*
X72830681Y-41733891D01*
X72668278Y-41806197D01*
X72668276Y-41806198D01*
X72662248Y-41808882D01*
X72507747Y-41921134D01*
X72503326Y-41926044D01*
X72503325Y-41926045D01*
X72453136Y-41981786D01*
X72392690Y-42019026D01*
X72321707Y-42017674D01*
X72262722Y-41978161D01*
X72234464Y-41913030D01*
X72233500Y-41897476D01*
X72233500Y-38402524D01*
X72253502Y-38334403D01*
X72265858Y-38318221D01*
X72339040Y-38236944D01*
X72434527Y-38071556D01*
X72454646Y-38009637D01*
X72494720Y-37951031D01*
X72560117Y-37923395D01*
X72630074Y-37935502D01*
X72663574Y-37959479D01*
X74952878Y-40248783D01*
X74986904Y-40311095D01*
X74989093Y-40324706D01*
X75006458Y-40489928D01*
X75065473Y-40671556D01*
X75160960Y-40836944D01*
X75288747Y-40978866D01*
X75443248Y-41091118D01*
X75449276Y-41093802D01*
X75449278Y-41093803D01*
X75611681Y-41166109D01*
X75617712Y-41168794D01*
X75711113Y-41188647D01*
X75798056Y-41207128D01*
X75798061Y-41207128D01*
X75804513Y-41208500D01*
X75995487Y-41208500D01*
X76001939Y-41207128D01*
X76001944Y-41207128D01*
X76088887Y-41188647D01*
X76182288Y-41168794D01*
X76188319Y-41166109D01*
X76350722Y-41093803D01*
X76350724Y-41093802D01*
X76356752Y-41091118D01*
X76511253Y-40978866D01*
X76639040Y-40836944D01*
X76734527Y-40671556D01*
X76793542Y-40489928D01*
X76813504Y-40300000D01*
X76793542Y-40110072D01*
X76734527Y-39928444D01*
X76639040Y-39763056D01*
X76511253Y-39621134D01*
X76356752Y-39508882D01*
X76350724Y-39506198D01*
X76350722Y-39506197D01*
X76188319Y-39433891D01*
X76188318Y-39433891D01*
X76182288Y-39431206D01*
X76088888Y-39411353D01*
X76001944Y-39392872D01*
X76001939Y-39392872D01*
X75995487Y-39391500D01*
X75939594Y-39391500D01*
X75871473Y-39371498D01*
X75850499Y-39354595D01*
X75797183Y-39301279D01*
X75763157Y-39238967D01*
X75768222Y-39168152D01*
X75810769Y-39111316D01*
X75877289Y-39086505D01*
X75912475Y-39088937D01*
X75998056Y-39107128D01*
X75998061Y-39107128D01*
X76004513Y-39108500D01*
X76195487Y-39108500D01*
X76201939Y-39107128D01*
X76201944Y-39107128D01*
X76288888Y-39088647D01*
X76382288Y-39068794D01*
X76422189Y-39051029D01*
X76550722Y-38993803D01*
X76550724Y-38993802D01*
X76556752Y-38991118D01*
X76711253Y-38878866D01*
X76839040Y-38736944D01*
X76934527Y-38571556D01*
X76993542Y-38389928D01*
X77001080Y-38318213D01*
X77012814Y-38206565D01*
X77013504Y-38200000D01*
X76993542Y-38010072D01*
X76934527Y-37828444D01*
X76839040Y-37663056D01*
X76711253Y-37521134D01*
X76556752Y-37408882D01*
X76550724Y-37406198D01*
X76550722Y-37406197D01*
X76388319Y-37333891D01*
X76388318Y-37333891D01*
X76382288Y-37331206D01*
X76288887Y-37311353D01*
X76201944Y-37292872D01*
X76201939Y-37292872D01*
X76195487Y-37291500D01*
X76004513Y-37291500D01*
X75998061Y-37292872D01*
X75998056Y-37292872D01*
X75911113Y-37311353D01*
X75817712Y-37331206D01*
X75811682Y-37333891D01*
X75811681Y-37333891D01*
X75649278Y-37406197D01*
X75649276Y-37406198D01*
X75643248Y-37408882D01*
X75637910Y-37412760D01*
X75637907Y-37412762D01*
X75592193Y-37445975D01*
X75525325Y-37469833D01*
X75456173Y-37453751D01*
X75429038Y-37433133D01*
X72747122Y-34751217D01*
X72713096Y-34688905D01*
X72710907Y-34675292D01*
X72694232Y-34516635D01*
X72694232Y-34516633D01*
X72693542Y-34510072D01*
X72634527Y-34328444D01*
X72539040Y-34163056D01*
X72411253Y-34021134D01*
X72256752Y-33908882D01*
X72250724Y-33906198D01*
X72250722Y-33906197D01*
X72088319Y-33833891D01*
X72088318Y-33833891D01*
X72082288Y-33831206D01*
X71987669Y-33811094D01*
X71901944Y-33792872D01*
X71901939Y-33792872D01*
X71895487Y-33791500D01*
X71704513Y-33791500D01*
X71698061Y-33792872D01*
X71698056Y-33792872D01*
X71612331Y-33811094D01*
X71517712Y-33831206D01*
X71511682Y-33833891D01*
X71511681Y-33833891D01*
X71349278Y-33906197D01*
X71349276Y-33906198D01*
X71343248Y-33908882D01*
X71188747Y-34021134D01*
X71060960Y-34163056D01*
X70965473Y-34328444D01*
X70906458Y-34510072D01*
X70905768Y-34516633D01*
X70905768Y-34516635D01*
X70895982Y-34609748D01*
X70868969Y-34675405D01*
X70810748Y-34716035D01*
X70739802Y-34718738D01*
X70681577Y-34685673D01*
X70447122Y-34451218D01*
X70413096Y-34388906D01*
X70410907Y-34375293D01*
X70394232Y-34216635D01*
X70394232Y-34216633D01*
X70393542Y-34210072D01*
X70334527Y-34028444D01*
X70239040Y-33863056D01*
X70204511Y-33824707D01*
X70115675Y-33726045D01*
X70115674Y-33726044D01*
X70111253Y-33721134D01*
X69956752Y-33608882D01*
X69950724Y-33606198D01*
X69950722Y-33606197D01*
X69788319Y-33533891D01*
X69788318Y-33533891D01*
X69782288Y-33531206D01*
X69670747Y-33507497D01*
X69601944Y-33492872D01*
X69601939Y-33492872D01*
X69595487Y-33491500D01*
X69404513Y-33491500D01*
X69398061Y-33492872D01*
X69398056Y-33492872D01*
X69329253Y-33507497D01*
X69217712Y-33531206D01*
X69211682Y-33533891D01*
X69211681Y-33533891D01*
X69049278Y-33606197D01*
X69049276Y-33606198D01*
X69043248Y-33608882D01*
X68888747Y-33721134D01*
X68884326Y-33726044D01*
X68884325Y-33726045D01*
X68795490Y-33824707D01*
X68760960Y-33863056D01*
X68665473Y-34028444D01*
X68606458Y-34210072D01*
X68605768Y-34216633D01*
X68605768Y-34216635D01*
X68590058Y-34366109D01*
X68586496Y-34400000D01*
X68606458Y-34589928D01*
X68665473Y-34771556D01*
X68760960Y-34936944D01*
X68888747Y-35078866D01*
X69043248Y-35191118D01*
X69049276Y-35193802D01*
X69049278Y-35193803D01*
X69141200Y-35234729D01*
X69217712Y-35268794D01*
X69311112Y-35288647D01*
X69398056Y-35307128D01*
X69398061Y-35307128D01*
X69404513Y-35308500D01*
X69460405Y-35308500D01*
X69528526Y-35328502D01*
X69549501Y-35345405D01*
X69958259Y-35754164D01*
X69992284Y-35816476D01*
X69987219Y-35887292D01*
X69978284Y-35906255D01*
X69965473Y-35928444D01*
X69906458Y-36110072D01*
X69905768Y-36116633D01*
X69905768Y-36116635D01*
X69900294Y-36168716D01*
X69886496Y-36300000D01*
X69887186Y-36306565D01*
X69904711Y-36473302D01*
X69906458Y-36489928D01*
X69965473Y-36671556D01*
X70060960Y-36836944D01*
X70134137Y-36918215D01*
X70164853Y-36982221D01*
X70166500Y-37002524D01*
X70166500Y-39049695D01*
X70146498Y-39117816D01*
X70092842Y-39164309D01*
X70022568Y-39174413D01*
X69964936Y-39150521D01*
X69896705Y-39099385D01*
X69760316Y-39048255D01*
X69698134Y-39041500D01*
X64501866Y-39041500D01*
X64439684Y-39048255D01*
X64303295Y-39099385D01*
X64186739Y-39186739D01*
X64099385Y-39303295D01*
X64048255Y-39439684D01*
X64041500Y-39501866D01*
X64041500Y-44698134D01*
X64048255Y-44760316D01*
X64099385Y-44896705D01*
X64186739Y-45013261D01*
X64303295Y-45100615D01*
X64439684Y-45151745D01*
X64501866Y-45158500D01*
X69698134Y-45158500D01*
X69740171Y-45153933D01*
X69810051Y-45166460D01*
X69842873Y-45190101D01*
X70533934Y-45881162D01*
X70567960Y-45943474D01*
X70562895Y-46014289D01*
X70520348Y-46071125D01*
X70453828Y-46095936D01*
X70398558Y-46087449D01*
X70274988Y-46038649D01*
X70271159Y-46037278D01*
X69696502Y-45852222D01*
X69692627Y-45851111D01*
X69107229Y-45703526D01*
X69103268Y-45702663D01*
X68509588Y-45593167D01*
X68505566Y-45592558D01*
X67906029Y-45521598D01*
X67902027Y-45521255D01*
X67299136Y-45489131D01*
X67295119Y-45489047D01*
X66691442Y-45495896D01*
X66687380Y-45496073D01*
X66085416Y-45541864D01*
X66081389Y-45542301D01*
X65483660Y-45626839D01*
X65479623Y-45627543D01*
X64888587Y-45750478D01*
X64884639Y-45751434D01*
X64302765Y-45912254D01*
X64298873Y-45913467D01*
X63728579Y-46111506D01*
X63724796Y-46112959D01*
X63168481Y-46347384D01*
X63164782Y-46349085D01*
X62624758Y-46618920D01*
X62621156Y-46620868D01*
X62099693Y-46924975D01*
X62096229Y-46927148D01*
X61595452Y-47264292D01*
X61592161Y-47266665D01*
X61114195Y-47635414D01*
X61111040Y-47638013D01*
X60657848Y-48036854D01*
X60654900Y-48039622D01*
X60639690Y-48054859D01*
X60632090Y-48068808D01*
X60632225Y-48070670D01*
X60636453Y-48077243D01*
X73916962Y-61357752D01*
X73930906Y-61365366D01*
X73931950Y-61365292D01*
X73939643Y-61360218D01*
X74115787Y-61175573D01*
X74118510Y-61172527D01*
X74506152Y-60709734D01*
X74508646Y-60706554D01*
X74865621Y-60219701D01*
X74867921Y-60216341D01*
X75192732Y-59707472D01*
X75194803Y-59703984D01*
X75455139Y-59231412D01*
X75505528Y-59181397D01*
X75574958Y-59166564D01*
X75641386Y-59191623D01*
X75683720Y-59248617D01*
X75691501Y-59292209D01*
X75691501Y-61033628D01*
X75671499Y-61101749D01*
X75654596Y-61122723D01*
X70373595Y-66403724D01*
X70311283Y-66437750D01*
X70240468Y-66432685D01*
X70183632Y-66390138D01*
X70158821Y-66323618D01*
X70158500Y-66314629D01*
X70158500Y-65101866D01*
X70151745Y-65039684D01*
X70100615Y-64903295D01*
X70013261Y-64786739D01*
X69896705Y-64699385D01*
X69760316Y-64648255D01*
X69698134Y-64641500D01*
X64816216Y-64641500D01*
X64748095Y-64621498D01*
X64701602Y-64567842D01*
X64691498Y-64497568D01*
X64692029Y-64494584D01*
X64693542Y-64489928D01*
X64713504Y-64300000D01*
X64700195Y-64173373D01*
X64712967Y-64103535D01*
X64761469Y-64051688D01*
X64830302Y-64034294D01*
X64853527Y-64037359D01*
X65301917Y-64139642D01*
X65305912Y-64140419D01*
X65901930Y-64236419D01*
X65905969Y-64236936D01*
X66506918Y-64294272D01*
X66510987Y-64294528D01*
X67114384Y-64312964D01*
X67118470Y-64312956D01*
X67721812Y-64292414D01*
X67725856Y-64292145D01*
X68326622Y-64232710D01*
X68330658Y-64232179D01*
X68926321Y-64134102D01*
X68930324Y-64133309D01*
X69518425Y-63996995D01*
X69522345Y-63995952D01*
X70100442Y-63821964D01*
X70104275Y-63820674D01*
X70669914Y-63609753D01*
X70673707Y-63608197D01*
X71224544Y-63361219D01*
X71228205Y-63359433D01*
X71761987Y-63077406D01*
X71765493Y-63075406D01*
X72279963Y-62759521D01*
X72283360Y-62757280D01*
X72776367Y-62408858D01*
X72779591Y-62406420D01*
X73249100Y-62026897D01*
X73252167Y-62024250D01*
X73557854Y-61742663D01*
X73566032Y-61729046D01*
X73566018Y-61728587D01*
X73560673Y-61719883D01*
X60280806Y-48440016D01*
X60266862Y-48432402D01*
X60265057Y-48432531D01*
X60258404Y-48436810D01*
X60228383Y-48466885D01*
X60225621Y-48469835D01*
X59827560Y-48923737D01*
X59824995Y-48926860D01*
X59457060Y-49405497D01*
X59454697Y-49408785D01*
X59264143Y-49692894D01*
X59209586Y-49738326D01*
X59139128Y-49747051D01*
X59075138Y-49716298D01*
X59037932Y-49655832D01*
X59033500Y-49622709D01*
X59033500Y-35114593D01*
X59053502Y-35046472D01*
X59070405Y-35025498D01*
X59650498Y-34445405D01*
X59712810Y-34411379D01*
X59739593Y-34408500D01*
X59795486Y-34408500D01*
X59801938Y-34407128D01*
X59801943Y-34407128D01*
X59888887Y-34388647D01*
X59982287Y-34368794D01*
X60066667Y-34331226D01*
X60150721Y-34293803D01*
X60150723Y-34293802D01*
X60156751Y-34291118D01*
X60311252Y-34178866D01*
X60439039Y-34036944D01*
X60534526Y-33871556D01*
X60593541Y-33689928D01*
X60611261Y-33521328D01*
X60638274Y-33455672D01*
X60696496Y-33415042D01*
X60736571Y-33408499D01*
X61660405Y-33408499D01*
X61728526Y-33428501D01*
X61749500Y-33445404D01*
X62052878Y-33748782D01*
X62086904Y-33811094D01*
X62089092Y-33824703D01*
X62106458Y-33989928D01*
X62165473Y-34171556D01*
X62260960Y-34336944D01*
X62265378Y-34341851D01*
X62265379Y-34341852D01*
X62363853Y-34451218D01*
X62388747Y-34478866D01*
X62394089Y-34482747D01*
X62394091Y-34482749D01*
X62402793Y-34489071D01*
X62446147Y-34545293D01*
X62452222Y-34616029D01*
X62419091Y-34678821D01*
X62357271Y-34713732D01*
X62302536Y-34714254D01*
X62269011Y-34707128D01*
X62201944Y-34692872D01*
X62201939Y-34692872D01*
X62195487Y-34691500D01*
X62004513Y-34691500D01*
X61998061Y-34692872D01*
X61998056Y-34692872D01*
X61911113Y-34711353D01*
X61817712Y-34731206D01*
X61811682Y-34733891D01*
X61811681Y-34733891D01*
X61649278Y-34806197D01*
X61649276Y-34806198D01*
X61643248Y-34808882D01*
X61488747Y-34921134D01*
X61360960Y-35063056D01*
X61265473Y-35228444D01*
X61206458Y-35410072D01*
X61186496Y-35600000D01*
X61206458Y-35789928D01*
X61265473Y-35971556D01*
X61268776Y-35977278D01*
X61268777Y-35977279D01*
X61280903Y-35998282D01*
X61360960Y-36136944D01*
X61446469Y-36231911D01*
X61473827Y-36281063D01*
X61474977Y-36285021D01*
X61478987Y-36304385D01*
X61479961Y-36312091D01*
X61481526Y-36324482D01*
X61484445Y-36331853D01*
X61484445Y-36331855D01*
X61497804Y-36365597D01*
X61501649Y-36376827D01*
X61513982Y-36419278D01*
X61518015Y-36426097D01*
X61518017Y-36426102D01*
X61524293Y-36436713D01*
X61532988Y-36454461D01*
X61540448Y-36473302D01*
X61545110Y-36479718D01*
X61545110Y-36479719D01*
X61566436Y-36509072D01*
X61572952Y-36518992D01*
X61595458Y-36557047D01*
X61609779Y-36571368D01*
X61622619Y-36586401D01*
X61634528Y-36602792D01*
X61640634Y-36607843D01*
X61668605Y-36630983D01*
X61677384Y-36638973D01*
X61829595Y-36791184D01*
X61863621Y-36853496D01*
X61866500Y-36880279D01*
X61866500Y-42685406D01*
X61846498Y-42753527D01*
X61829595Y-42774501D01*
X61164604Y-43439491D01*
X60507747Y-44096348D01*
X60499461Y-44103888D01*
X60492982Y-44108000D01*
X60487557Y-44113777D01*
X60446357Y-44157651D01*
X60443602Y-44160493D01*
X60423865Y-44180230D01*
X60421385Y-44183427D01*
X60413682Y-44192447D01*
X60383414Y-44224679D01*
X60379595Y-44231625D01*
X60379593Y-44231628D01*
X60373652Y-44242434D01*
X60362801Y-44258953D01*
X60350386Y-44274959D01*
X60347241Y-44282228D01*
X60347238Y-44282232D01*
X60332826Y-44315537D01*
X60327609Y-44326187D01*
X60306305Y-44364940D01*
X60304334Y-44372615D01*
X60304334Y-44372616D01*
X60301267Y-44384562D01*
X60294863Y-44403266D01*
X60286819Y-44421855D01*
X60285580Y-44429678D01*
X60285577Y-44429688D01*
X60279901Y-44465524D01*
X60277495Y-44477144D01*
X60266500Y-44519970D01*
X60266500Y-44540224D01*
X60264949Y-44559934D01*
X60261780Y-44579943D01*
X60262526Y-44587835D01*
X60265941Y-44623961D01*
X60266500Y-44635819D01*
X60266500Y-44897476D01*
X60246498Y-44965597D01*
X60234142Y-44981779D01*
X60160960Y-45063056D01*
X60065473Y-45228444D01*
X60006458Y-45410072D01*
X60005768Y-45416633D01*
X60005768Y-45416635D01*
X59995948Y-45510072D01*
X59986496Y-45600000D01*
X60006458Y-45789928D01*
X60065473Y-45971556D01*
X60160960Y-46136944D01*
X60288747Y-46278866D01*
X60383054Y-46347384D01*
X60426385Y-46378866D01*
X60443248Y-46391118D01*
X60449276Y-46393802D01*
X60449278Y-46393803D01*
X60611681Y-46466109D01*
X60617712Y-46468794D01*
X60704479Y-46487237D01*
X60798056Y-46507128D01*
X60798061Y-46507128D01*
X60804513Y-46508500D01*
X60995487Y-46508500D01*
X61001939Y-46507128D01*
X61001944Y-46507128D01*
X61095521Y-46487237D01*
X61182288Y-46468794D01*
X61188319Y-46466109D01*
X61350722Y-46393803D01*
X61350724Y-46393802D01*
X61356752Y-46391118D01*
X61373616Y-46378866D01*
X61416946Y-46347384D01*
X61511253Y-46278866D01*
X61639040Y-46136944D01*
X61734527Y-45971556D01*
X61793542Y-45789928D01*
X61813504Y-45600000D01*
X61804052Y-45510072D01*
X61794232Y-45416635D01*
X61794232Y-45416633D01*
X61793542Y-45410072D01*
X61734527Y-45228444D01*
X61639040Y-45063056D01*
X61573974Y-44990793D01*
X61543257Y-44926785D01*
X61552022Y-44856332D01*
X61578516Y-44817388D01*
X62892247Y-43503657D01*
X62900537Y-43496113D01*
X62907018Y-43492000D01*
X62953659Y-43442332D01*
X62956413Y-43439491D01*
X62976135Y-43419769D01*
X62978619Y-43416567D01*
X62986317Y-43407555D01*
X63011161Y-43381098D01*
X63016586Y-43375321D01*
X63026347Y-43357566D01*
X63037198Y-43341047D01*
X63049614Y-43325041D01*
X63067174Y-43284463D01*
X63072391Y-43273813D01*
X63093695Y-43235060D01*
X63098733Y-43215437D01*
X63105137Y-43196734D01*
X63110033Y-43185420D01*
X63110033Y-43185419D01*
X63113181Y-43178145D01*
X63114420Y-43170322D01*
X63114423Y-43170312D01*
X63120099Y-43134476D01*
X63122505Y-43122856D01*
X63131528Y-43087711D01*
X63131528Y-43087710D01*
X63133500Y-43080030D01*
X63133500Y-43059776D01*
X63135051Y-43040065D01*
X63136980Y-43027886D01*
X63138220Y-43020057D01*
X63134059Y-42976038D01*
X63133500Y-42964181D01*
X63133500Y-36644448D01*
X63134027Y-36633264D01*
X63135701Y-36625776D01*
X63133562Y-36557717D01*
X63133500Y-36553760D01*
X63133500Y-36525829D01*
X63132994Y-36521823D01*
X63132061Y-36509977D01*
X63131629Y-36496206D01*
X63130673Y-36465795D01*
X63125022Y-36446343D01*
X63121014Y-36426991D01*
X63119468Y-36414753D01*
X63119467Y-36414751D01*
X63118474Y-36406888D01*
X63102194Y-36365771D01*
X63098359Y-36354570D01*
X63086018Y-36312091D01*
X63081985Y-36305272D01*
X63081983Y-36305267D01*
X63075707Y-36294656D01*
X63067010Y-36276906D01*
X63059552Y-36258068D01*
X63033571Y-36222308D01*
X63027053Y-36212386D01*
X63008578Y-36181145D01*
X63008574Y-36181140D01*
X63004542Y-36174322D01*
X62990218Y-36159998D01*
X62977376Y-36144963D01*
X62971550Y-36136944D01*
X62965472Y-36128578D01*
X62959363Y-36123524D01*
X62953937Y-36117746D01*
X62956363Y-36115468D01*
X62925161Y-36069260D01*
X62923547Y-35998282D01*
X62930112Y-35979774D01*
X62931223Y-35977279D01*
X62934527Y-35971556D01*
X62993542Y-35789928D01*
X63013504Y-35600000D01*
X62993542Y-35410072D01*
X62934527Y-35228444D01*
X62839040Y-35063056D01*
X62711253Y-34921134D01*
X62697207Y-34910929D01*
X62653853Y-34854707D01*
X62647778Y-34783971D01*
X62680909Y-34721179D01*
X62742729Y-34686268D01*
X62797464Y-34685746D01*
X62812326Y-34688905D01*
X62898056Y-34707128D01*
X62898061Y-34707128D01*
X62904513Y-34708500D01*
X63095487Y-34708500D01*
X63101939Y-34707128D01*
X63101944Y-34707128D01*
X63188887Y-34688647D01*
X63282288Y-34668794D01*
X63400801Y-34616029D01*
X63450722Y-34593803D01*
X63450724Y-34593802D01*
X63456752Y-34591118D01*
X63611253Y-34478866D01*
X63636147Y-34451218D01*
X63734621Y-34341852D01*
X63734622Y-34341851D01*
X63739040Y-34336944D01*
X63834527Y-34171556D01*
X63893542Y-33989928D01*
X63910907Y-33824706D01*
X63937920Y-33759050D01*
X63947122Y-33748782D01*
X65225500Y-32470405D01*
X65287812Y-32436379D01*
X65314595Y-32433500D01*
X74391800Y-32433500D01*
X74459921Y-32453502D01*
X74479147Y-32469843D01*
X74479420Y-32469540D01*
X74484332Y-32473963D01*
X74488747Y-32478866D01*
X74643248Y-32591118D01*
X74649276Y-32593802D01*
X74649278Y-32593803D01*
X74811681Y-32666109D01*
X74817712Y-32668794D01*
X74911113Y-32688647D01*
X74998056Y-32707128D01*
X74998061Y-32707128D01*
X75004513Y-32708500D01*
X75195487Y-32708500D01*
X75201939Y-32707128D01*
X75201944Y-32707128D01*
X75288887Y-32688647D01*
X75382288Y-32668794D01*
X75388319Y-32666109D01*
X75550722Y-32593803D01*
X75550724Y-32593802D01*
X75556752Y-32591118D01*
X75711253Y-32478866D01*
X75734091Y-32453502D01*
X75834621Y-32341852D01*
X75834622Y-32341851D01*
X75839040Y-32336944D01*
X75906495Y-32220109D01*
X75931223Y-32177279D01*
X75931224Y-32177278D01*
X75934527Y-32171556D01*
X75993542Y-31989928D01*
X76013504Y-31800000D01*
X75993542Y-31610072D01*
X75934527Y-31428444D01*
X75839040Y-31263056D01*
X75822882Y-31245110D01*
X75715675Y-31126045D01*
X75715674Y-31126044D01*
X75711253Y-31121134D01*
X75556752Y-31008882D01*
X75550724Y-31006198D01*
X75550722Y-31006197D01*
X75388319Y-30933891D01*
X75388318Y-30933891D01*
X75382288Y-30931206D01*
X75288888Y-30911353D01*
X75201944Y-30892872D01*
X75201939Y-30892872D01*
X75195487Y-30891500D01*
X75004513Y-30891500D01*
X74998061Y-30892872D01*
X74998056Y-30892872D01*
X74911112Y-30911353D01*
X74817712Y-30931206D01*
X74811682Y-30933891D01*
X74811681Y-30933891D01*
X74649278Y-31006197D01*
X74649276Y-31006198D01*
X74643248Y-31008882D01*
X74488747Y-31121134D01*
X74484332Y-31126037D01*
X74479420Y-31130460D01*
X74478295Y-31129211D01*
X74424986Y-31162051D01*
X74391800Y-31166500D01*
X65078767Y-31166500D01*
X65067584Y-31165973D01*
X65060091Y-31164298D01*
X65052165Y-31164547D01*
X65052164Y-31164547D01*
X64992014Y-31166438D01*
X64988055Y-31166500D01*
X64960144Y-31166500D01*
X64956210Y-31166997D01*
X64956209Y-31166997D01*
X64956144Y-31167005D01*
X64944307Y-31167938D01*
X64912490Y-31168938D01*
X64908029Y-31169078D01*
X64900110Y-31169327D01*
X64882454Y-31174456D01*
X64880658Y-31174978D01*
X64861306Y-31178986D01*
X64854235Y-31179880D01*
X64841203Y-31181526D01*
X64833834Y-31184443D01*
X64833832Y-31184444D01*
X64800097Y-31197800D01*
X64788869Y-31201645D01*
X64746407Y-31213982D01*
X64739584Y-31218017D01*
X64739582Y-31218018D01*
X64728972Y-31224293D01*
X64711224Y-31232988D01*
X64692383Y-31240448D01*
X64685967Y-31245110D01*
X64685966Y-31245110D01*
X64656613Y-31266436D01*
X64646693Y-31272952D01*
X64615465Y-31291420D01*
X64615462Y-31291422D01*
X64608638Y-31295458D01*
X64594317Y-31309779D01*
X64579284Y-31322619D01*
X64562893Y-31334528D01*
X64557842Y-31340634D01*
X64534702Y-31368605D01*
X64526712Y-31377384D01*
X63089095Y-32815000D01*
X63026783Y-32849026D01*
X62955967Y-32843961D01*
X62910905Y-32815000D01*
X62478651Y-32382746D01*
X62471111Y-32374460D01*
X62466999Y-32367981D01*
X62417347Y-32321355D01*
X62414506Y-32318601D01*
X62394769Y-32298864D01*
X62391572Y-32296384D01*
X62382550Y-32288679D01*
X62369121Y-32276068D01*
X62350320Y-32258413D01*
X62343374Y-32254594D01*
X62343371Y-32254592D01*
X62332565Y-32248651D01*
X62316046Y-32237800D01*
X62315582Y-32237440D01*
X62300040Y-32225385D01*
X62292771Y-32222240D01*
X62292767Y-32222237D01*
X62259462Y-32207825D01*
X62248812Y-32202608D01*
X62210059Y-32181304D01*
X62190436Y-32176266D01*
X62171733Y-32169862D01*
X62160419Y-32164966D01*
X62160418Y-32164966D01*
X62153144Y-32161818D01*
X62145321Y-32160579D01*
X62145311Y-32160576D01*
X62109475Y-32154900D01*
X62097855Y-32152494D01*
X62062710Y-32143471D01*
X62062709Y-32143471D01*
X62055029Y-32141499D01*
X62034775Y-32141499D01*
X62015064Y-32139948D01*
X62002885Y-32138019D01*
X61995056Y-32136779D01*
X61965785Y-32139546D01*
X61951038Y-32140940D01*
X61939180Y-32141499D01*
X59430766Y-32141499D01*
X59419583Y-32140972D01*
X59412090Y-32139297D01*
X59404164Y-32139546D01*
X59404163Y-32139546D01*
X59344000Y-32141437D01*
X59340042Y-32141499D01*
X59312142Y-32141499D01*
X59308152Y-32142003D01*
X59296318Y-32142935D01*
X59252109Y-32144325D01*
X59244495Y-32146537D01*
X59244490Y-32146538D01*
X59232657Y-32149976D01*
X59213294Y-32153987D01*
X59193201Y-32156525D01*
X59185834Y-32159442D01*
X59185829Y-32159443D01*
X59152090Y-32172801D01*
X59140863Y-32176645D01*
X59098405Y-32188981D01*
X59091579Y-32193018D01*
X59080970Y-32199292D01*
X59063222Y-32207987D01*
X59044381Y-32215447D01*
X59037965Y-32220109D01*
X59037964Y-32220109D01*
X59008611Y-32241435D01*
X58998691Y-32247951D01*
X58967463Y-32266419D01*
X58967460Y-32266421D01*
X58960636Y-32270457D01*
X58946315Y-32284778D01*
X58931282Y-32297618D01*
X58914891Y-32309527D01*
X58906215Y-32320015D01*
X58886700Y-32343604D01*
X58878710Y-32352383D01*
X57723595Y-33507497D01*
X57661283Y-33541523D01*
X57590467Y-33536458D01*
X57533632Y-33493911D01*
X57508821Y-33427391D01*
X57508500Y-33418402D01*
X57508500Y-30726000D01*
X57528502Y-30657879D01*
X57582158Y-30611386D01*
X57634500Y-30600000D01*
X78365500Y-30600000D01*
X78433621Y-30620002D01*
G37*
G04 #@! TD.AperFunction*
M02*
