G04 #@! TF.GenerationSoftware,KiCad,Pcbnew,(6.0.7)*
G04 #@! TF.CreationDate,2022-09-04T16:16:14-05:00*
G04 #@! TF.ProjectId,parasite-mini-test,70617261-7369-4746-952d-6d696e692d74,1.2.0*
G04 #@! TF.SameCoordinates,Original*
G04 #@! TF.FileFunction,Soldermask,Top*
G04 #@! TF.FilePolarity,Negative*
%FSLAX46Y46*%
G04 Gerber Fmt 4.6, Leading zero omitted, Abs format (unit mm)*
G04 Created by KiCad (PCBNEW (6.0.7)) date 2022-09-04 16:16:14*
%MOMM*%
%LPD*%
G01*
G04 APERTURE LIST*
G04 Aperture macros list*
%AMRoundRect*
0 Rectangle with rounded corners*
0 $1 Rounding radius*
0 $2 $3 $4 $5 $6 $7 $8 $9 X,Y pos of 4 corners*
0 Add a 4 corners polygon primitive as box body*
4,1,4,$2,$3,$4,$5,$6,$7,$8,$9,$2,$3,0*
0 Add four circle primitives for the rounded corners*
1,1,$1+$1,$2,$3*
1,1,$1+$1,$4,$5*
1,1,$1+$1,$6,$7*
1,1,$1+$1,$8,$9*
0 Add four rect primitives between the rounded corners*
20,1,$1+$1,$2,$3,$4,$5,0*
20,1,$1+$1,$4,$5,$6,$7,0*
20,1,$1+$1,$6,$7,$8,$9,0*
20,1,$1+$1,$8,$9,$2,$3,0*%
G04 Aperture macros list end*
%ADD10RoundRect,0.198500X0.172500X-0.147500X0.172500X0.147500X-0.172500X0.147500X-0.172500X-0.147500X0*%
%ADD11RoundRect,0.198500X0.147500X0.172500X-0.147500X0.172500X-0.147500X-0.172500X0.147500X-0.172500X0*%
%ADD12RoundRect,0.198500X-0.147500X-0.172500X0.147500X-0.172500X0.147500X0.172500X-0.147500X0.172500X0*%
%ADD13RoundRect,0.051000X0.400000X-0.450000X0.400000X0.450000X-0.400000X0.450000X-0.400000X-0.450000X0*%
%ADD14C,1.102000*%
%ADD15RoundRect,0.198500X-0.172500X0.147500X-0.172500X-0.147500X0.172500X-0.147500X0.172500X0.147500X0*%
%ADD16RoundRect,0.051000X-0.400000X0.450000X-0.400000X-0.450000X0.400000X-0.450000X0.400000X0.450000X0*%
%ADD17RoundRect,0.051000X0.500000X0.900000X-0.500000X0.900000X-0.500000X-0.900000X0.500000X-0.900000X0*%
%ADD18RoundRect,0.269750X0.256250X-0.218750X0.256250X0.218750X-0.256250X0.218750X-0.256250X-0.218750X0*%
%ADD19RoundRect,0.294750X0.456250X-0.243750X0.456250X0.243750X-0.456250X0.243750X-0.456250X-0.243750X0*%
%ADD20RoundRect,0.138500X0.187500X0.087500X-0.187500X0.087500X-0.187500X-0.087500X0.187500X-0.087500X0*%
%ADD21RoundRect,0.226000X0.175000X0.625000X-0.175000X0.625000X-0.175000X-0.625000X0.175000X-0.625000X0*%
%ADD22RoundRect,0.051000X0.650000X0.850000X-0.650000X0.850000X-0.650000X-0.850000X0.650000X-0.850000X0*%
%ADD23RoundRect,0.051000X0.500000X-0.325000X0.500000X0.325000X-0.500000X0.325000X-0.500000X-0.325000X0*%
%ADD24RoundRect,0.051000X0.325000X0.500000X-0.325000X0.500000X-0.325000X-0.500000X0.325000X-0.500000X0*%
G04 APERTURE END LIST*
D10*
X68000000Y-51400000D03*
X68000000Y-50430000D03*
D11*
X62400000Y-56400000D03*
X61430000Y-56400000D03*
D10*
X69300000Y-51400000D03*
X69300000Y-50430000D03*
D12*
X68900000Y-56300000D03*
X69870000Y-56300000D03*
D11*
X62400000Y-58200000D03*
X61430000Y-58200000D03*
D13*
X63850000Y-59700000D03*
X65750000Y-59700000D03*
X64800000Y-57700000D03*
D12*
X66815000Y-56300000D03*
X67785000Y-56300000D03*
X61515000Y-54400000D03*
X62485000Y-54400000D03*
D14*
X76640000Y-36880000D03*
X76640000Y-39420000D03*
X76640000Y-44500000D03*
X76640000Y-41960000D03*
X76640000Y-34340000D03*
D15*
X62000000Y-47000000D03*
X62000000Y-47970000D03*
D11*
X73300000Y-53800000D03*
X72330000Y-53800000D03*
D16*
X74050000Y-56300000D03*
X72150000Y-56300000D03*
X73100000Y-58300000D03*
D17*
X65000000Y-48000000D03*
X67500000Y-48000000D03*
D18*
X62000000Y-52000000D03*
X62000000Y-50425000D03*
D10*
X66200000Y-51400000D03*
X66200000Y-50430000D03*
D15*
X64800000Y-50430000D03*
X64800000Y-51400000D03*
D19*
X64100000Y-55237500D03*
X64100000Y-53362500D03*
D10*
X70700000Y-48570000D03*
X70700000Y-47600000D03*
D15*
X72100000Y-47600000D03*
X72100000Y-48570000D03*
D13*
X67500000Y-59700000D03*
X69400000Y-59700000D03*
X68450000Y-57700000D03*
D20*
X73725000Y-51100000D03*
X73725000Y-50100000D03*
X71875000Y-50100000D03*
X71875000Y-51100000D03*
D21*
X72800000Y-50600000D03*
D22*
X69700000Y-53700000D03*
X66200000Y-53700000D03*
D14*
X76640000Y-31800000D03*
D23*
X60881000Y-31170000D03*
X60881000Y-32440000D03*
X60881000Y-33710000D03*
X60881000Y-34980000D03*
X60881000Y-36250000D03*
X60881000Y-37520000D03*
X60881000Y-38790000D03*
X60881000Y-40060000D03*
X60881000Y-41330000D03*
X60881000Y-42600000D03*
D24*
X62530000Y-44819000D03*
X63800000Y-44819000D03*
X65070000Y-44819000D03*
X66340000Y-44819000D03*
X67610000Y-44819000D03*
X68880000Y-44819000D03*
X70150000Y-44819000D03*
X71420000Y-44819000D03*
D23*
X73119000Y-42600000D03*
X73119000Y-41330000D03*
X73119000Y-40060000D03*
X73119000Y-38790000D03*
X73119000Y-37520000D03*
X73119000Y-36250000D03*
X73119000Y-34980000D03*
X73119000Y-33710000D03*
X73119000Y-32440000D03*
X73119000Y-31170000D03*
G36*
X72400222Y-50862286D02*
G01*
X72401000Y-50863869D01*
X72401000Y-51224801D01*
X72414899Y-51294677D01*
X72414256Y-51296571D01*
X72412294Y-51296961D01*
X72411142Y-51295948D01*
X72400096Y-51273450D01*
X72399870Y-51273561D01*
X72397875Y-51273427D01*
X72397172Y-51272602D01*
X72380029Y-51235356D01*
X72321655Y-51198085D01*
X72252396Y-51198289D01*
X72194046Y-51236033D01*
X72192871Y-51237578D01*
X72191026Y-51238351D01*
X72189434Y-51237140D01*
X72189317Y-51235977D01*
X72199000Y-51187301D01*
X72199000Y-51012699D01*
X72188572Y-50960277D01*
X72174945Y-50939883D01*
X72174814Y-50937887D01*
X72176477Y-50936776D01*
X72177891Y-50937237D01*
X72224948Y-50976563D01*
X72293664Y-50985194D01*
X72356139Y-50955303D01*
X72392622Y-50896241D01*
X72397018Y-50863602D01*
X72398240Y-50862019D01*
X72400222Y-50862286D01*
G37*
G36*
X73202919Y-50863299D02*
G01*
X73222596Y-50930314D01*
X73274939Y-50975669D01*
X73343492Y-50985526D01*
X73406637Y-50956688D01*
X73416526Y-50945479D01*
X73418422Y-50944842D01*
X73419922Y-50946165D01*
X73419689Y-50947913D01*
X73411428Y-50960277D01*
X73401000Y-51012699D01*
X73401000Y-51187301D01*
X73411428Y-51239723D01*
X73411745Y-51240198D01*
X73411876Y-51242194D01*
X73410212Y-51243305D01*
X73408799Y-51242844D01*
X73361746Y-51203521D01*
X73293030Y-51194890D01*
X73230555Y-51224780D01*
X73201512Y-51271796D01*
X73200280Y-51272459D01*
X73197208Y-51278744D01*
X73197113Y-51278917D01*
X73194032Y-51283905D01*
X73193594Y-51286000D01*
X73193433Y-51286468D01*
X73188901Y-51295740D01*
X73187242Y-51296857D01*
X73185445Y-51295979D01*
X73185142Y-51294472D01*
X73199000Y-51224801D01*
X73199000Y-50863862D01*
X73200000Y-50862130D01*
X73202000Y-50862130D01*
X73202919Y-50863299D01*
G37*
G36*
X73188858Y-49904052D02*
G01*
X73199904Y-49926550D01*
X73200130Y-49926439D01*
X73202125Y-49926573D01*
X73202828Y-49927398D01*
X73219971Y-49964644D01*
X73278345Y-50001915D01*
X73347604Y-50001711D01*
X73405954Y-49963967D01*
X73407129Y-49962422D01*
X73408974Y-49961649D01*
X73410566Y-49962860D01*
X73410683Y-49964023D01*
X73401000Y-50012699D01*
X73401000Y-50187301D01*
X73411428Y-50239723D01*
X73425055Y-50260117D01*
X73425186Y-50262113D01*
X73423523Y-50263224D01*
X73422109Y-50262763D01*
X73375052Y-50223437D01*
X73306336Y-50214806D01*
X73243861Y-50244697D01*
X73207378Y-50303759D01*
X73202982Y-50336398D01*
X73201760Y-50337981D01*
X73199778Y-50337714D01*
X73199000Y-50336131D01*
X73199000Y-49975199D01*
X73185101Y-49905323D01*
X73185744Y-49903429D01*
X73187706Y-49903039D01*
X73188858Y-49904052D01*
G37*
G36*
X72414555Y-49904021D02*
G01*
X72414858Y-49905528D01*
X72401000Y-49975199D01*
X72401000Y-50336138D01*
X72400000Y-50337870D01*
X72398000Y-50337870D01*
X72397081Y-50336701D01*
X72377404Y-50269686D01*
X72325061Y-50224331D01*
X72256508Y-50214474D01*
X72193363Y-50243312D01*
X72183474Y-50254521D01*
X72181578Y-50255158D01*
X72180078Y-50253835D01*
X72180311Y-50252087D01*
X72188572Y-50239723D01*
X72199000Y-50187301D01*
X72199000Y-50012699D01*
X72188572Y-49960277D01*
X72188255Y-49959802D01*
X72188124Y-49957806D01*
X72189788Y-49956695D01*
X72191201Y-49957156D01*
X72238254Y-49996479D01*
X72306970Y-50005110D01*
X72369445Y-49975220D01*
X72398488Y-49928204D01*
X72399720Y-49927541D01*
X72402792Y-49921256D01*
X72402887Y-49921083D01*
X72405968Y-49916095D01*
X72406406Y-49914000D01*
X72406567Y-49913532D01*
X72411099Y-49904260D01*
X72412758Y-49903143D01*
X72414555Y-49904021D01*
G37*
M02*
