G04 #@! TF.GenerationSoftware,KiCad,Pcbnew,(6.0.7)*
G04 #@! TF.CreationDate,2022-09-04T16:16:14-05:00*
G04 #@! TF.ProjectId,parasite-mini-test,70617261-7369-4746-952d-6d696e692d74,1.2.0*
G04 #@! TF.SameCoordinates,Original*
G04 #@! TF.FileFunction,Copper,L1,Top*
G04 #@! TF.FilePolarity,Positive*
%FSLAX46Y46*%
G04 Gerber Fmt 4.6, Leading zero omitted, Abs format (unit mm)*
G04 Created by KiCad (PCBNEW (6.0.7)) date 2022-09-04 16:16:14*
%MOMM*%
%LPD*%
G01*
G04 APERTURE LIST*
G04 Aperture macros list*
%AMRoundRect*
0 Rectangle with rounded corners*
0 $1 Rounding radius*
0 $2 $3 $4 $5 $6 $7 $8 $9 X,Y pos of 4 corners*
0 Add a 4 corners polygon primitive as box body*
4,1,4,$2,$3,$4,$5,$6,$7,$8,$9,$2,$3,0*
0 Add four circle primitives for the rounded corners*
1,1,$1+$1,$2,$3*
1,1,$1+$1,$4,$5*
1,1,$1+$1,$6,$7*
1,1,$1+$1,$8,$9*
0 Add four rect primitives between the rounded corners*
20,1,$1+$1,$2,$3,$4,$5,0*
20,1,$1+$1,$4,$5,$6,$7,0*
20,1,$1+$1,$6,$7,$8,$9,0*
20,1,$1+$1,$8,$9,$2,$3,0*%
G04 Aperture macros list end*
G04 #@! TA.AperFunction,SMDPad,CuDef*
%ADD10RoundRect,0.147500X0.172500X-0.147500X0.172500X0.147500X-0.172500X0.147500X-0.172500X-0.147500X0*%
G04 #@! TD*
G04 #@! TA.AperFunction,SMDPad,CuDef*
%ADD11RoundRect,0.147500X0.147500X0.172500X-0.147500X0.172500X-0.147500X-0.172500X0.147500X-0.172500X0*%
G04 #@! TD*
G04 #@! TA.AperFunction,SMDPad,CuDef*
%ADD12RoundRect,0.147500X-0.147500X-0.172500X0.147500X-0.172500X0.147500X0.172500X-0.147500X0.172500X0*%
G04 #@! TD*
G04 #@! TA.AperFunction,SMDPad,CuDef*
%ADD13R,0.800000X0.900000*%
G04 #@! TD*
G04 #@! TA.AperFunction,SMDPad,CuDef*
%ADD14C,1.000000*%
G04 #@! TD*
G04 #@! TA.AperFunction,SMDPad,CuDef*
%ADD15RoundRect,0.147500X-0.172500X0.147500X-0.172500X-0.147500X0.172500X-0.147500X0.172500X0.147500X0*%
G04 #@! TD*
G04 #@! TA.AperFunction,SMDPad,CuDef*
%ADD16R,1.000000X1.800000*%
G04 #@! TD*
G04 #@! TA.AperFunction,SMDPad,CuDef*
%ADD17RoundRect,0.218750X0.256250X-0.218750X0.256250X0.218750X-0.256250X0.218750X-0.256250X-0.218750X0*%
G04 #@! TD*
G04 #@! TA.AperFunction,SMDPad,CuDef*
%ADD18RoundRect,0.243750X0.456250X-0.243750X0.456250X0.243750X-0.456250X0.243750X-0.456250X-0.243750X0*%
G04 #@! TD*
G04 #@! TA.AperFunction,SMDPad,CuDef*
%ADD19RoundRect,0.087500X0.187500X0.087500X-0.187500X0.087500X-0.187500X-0.087500X0.187500X-0.087500X0*%
G04 #@! TD*
G04 #@! TA.AperFunction,SMDPad,CuDef*
%ADD20RoundRect,0.175000X0.175000X0.625000X-0.175000X0.625000X-0.175000X-0.625000X0.175000X-0.625000X0*%
G04 #@! TD*
G04 #@! TA.AperFunction,SMDPad,CuDef*
%ADD21R,1.300000X1.700000*%
G04 #@! TD*
G04 #@! TA.AperFunction,SMDPad,CuDef*
%ADD22R,1.000000X0.650000*%
G04 #@! TD*
G04 #@! TA.AperFunction,SMDPad,CuDef*
%ADD23R,0.650000X1.000000*%
G04 #@! TD*
G04 #@! TA.AperFunction,ViaPad*
%ADD24C,0.800000*%
G04 #@! TD*
G04 #@! TA.AperFunction,Conductor*
%ADD25C,0.250000*%
G04 #@! TD*
G04 #@! TA.AperFunction,Conductor*
%ADD26C,10.000000*%
G04 #@! TD*
G04 #@! TA.AperFunction,Conductor*
%ADD27C,0.500000*%
G04 #@! TD*
G04 APERTURE END LIST*
D10*
X68000000Y-51400000D03*
X68000000Y-50430000D03*
D11*
X62400000Y-56400000D03*
X61430000Y-56400000D03*
D10*
X69300000Y-51400000D03*
X69300000Y-50430000D03*
D12*
X68900000Y-56300000D03*
X69870000Y-56300000D03*
D11*
X62400000Y-58200000D03*
X61430000Y-58200000D03*
D13*
X63850000Y-59700000D03*
X65750000Y-59700000D03*
X64800000Y-57700000D03*
D12*
X66815000Y-56300000D03*
X67785000Y-56300000D03*
X61515000Y-54400000D03*
X62485000Y-54400000D03*
D14*
X76640000Y-36880000D03*
X76640000Y-39420000D03*
X76640000Y-44500000D03*
X76640000Y-41960000D03*
X76640000Y-34340000D03*
D15*
X62000000Y-47000000D03*
X62000000Y-47970000D03*
D11*
X73300000Y-53800000D03*
X72330000Y-53800000D03*
D13*
X74050000Y-56300000D03*
X72150000Y-56300000D03*
X73100000Y-58300000D03*
D16*
X65000000Y-48000000D03*
X67500000Y-48000000D03*
D17*
X62000000Y-52000000D03*
X62000000Y-50425000D03*
D10*
X66200000Y-51400000D03*
X66200000Y-50430000D03*
D15*
X64800000Y-50430000D03*
X64800000Y-51400000D03*
D18*
X64100000Y-55237500D03*
X64100000Y-53362500D03*
D10*
X70700000Y-48570000D03*
X70700000Y-47600000D03*
D15*
X72100000Y-47600000D03*
X72100000Y-48570000D03*
D13*
X67500000Y-59700000D03*
X69400000Y-59700000D03*
X68450000Y-57700000D03*
D19*
X73725000Y-51100000D03*
X73725000Y-50100000D03*
X71875000Y-50100000D03*
X71875000Y-51100000D03*
D20*
X72800000Y-50600000D03*
D21*
X69700000Y-53700000D03*
X66200000Y-53700000D03*
D14*
X76640000Y-31800000D03*
D22*
X60881000Y-31170000D03*
X60881000Y-32440000D03*
X60881000Y-33710000D03*
X60881000Y-34980000D03*
X60881000Y-36250000D03*
X60881000Y-37520000D03*
X60881000Y-38790000D03*
X60881000Y-40060000D03*
X60881000Y-41330000D03*
X60881000Y-42600000D03*
D23*
X62530000Y-44819000D03*
X63800000Y-44819000D03*
X65070000Y-44819000D03*
X66340000Y-44819000D03*
X67610000Y-44819000D03*
X68880000Y-44819000D03*
X70150000Y-44819000D03*
X71420000Y-44819000D03*
D22*
X73119000Y-42600000D03*
X73119000Y-41330000D03*
X73119000Y-40060000D03*
X73119000Y-38790000D03*
X73119000Y-37520000D03*
X73119000Y-36250000D03*
X73119000Y-34980000D03*
X73119000Y-33710000D03*
X73119000Y-32440000D03*
X73119000Y-31170000D03*
D24*
X65800000Y-61100000D03*
X69900000Y-37400000D03*
X74800000Y-54700000D03*
X67100000Y-38200000D03*
X67198744Y-55038241D03*
X62925065Y-31530239D03*
X63500000Y-51400000D03*
X68700000Y-60700000D03*
X59200000Y-43100000D03*
X69900000Y-38400000D03*
X59600000Y-37200000D03*
X65862500Y-55237500D03*
X71300000Y-52400000D03*
X63600000Y-41600000D03*
X64100000Y-55237500D03*
X72200000Y-52400000D03*
X59600000Y-35400000D03*
X63500000Y-50500000D03*
X59200000Y-42000000D03*
X63500000Y-38200000D03*
X59600000Y-36300000D03*
X63500000Y-49600000D03*
X59200000Y-44200000D03*
X63600000Y-42700000D03*
X65800000Y-38200000D03*
X64700000Y-38200000D03*
X74800000Y-53800000D03*
X68550000Y-66250000D03*
X67100000Y-67700000D03*
X67800000Y-67000000D03*
X75100000Y-31800000D03*
X63000000Y-33800000D03*
X63800000Y-64300000D03*
X60900000Y-45600000D03*
X62100000Y-35600000D03*
X58400000Y-50400000D03*
X59699999Y-33500000D03*
X71800000Y-34700000D03*
X76100000Y-38200000D03*
X69500000Y-34400000D03*
X75900000Y-40300000D03*
X69500000Y-34400000D03*
X75300000Y-43200000D03*
X73119000Y-42600000D03*
X71600000Y-37700000D03*
X74700000Y-45700000D03*
X74493886Y-47510431D03*
X70800000Y-36300000D03*
D25*
X60841000Y-40100000D02*
X60881000Y-40060000D01*
X60881000Y-38790000D02*
X61056000Y-38790000D01*
X60861000Y-38770000D02*
X60881000Y-38790000D01*
X60841000Y-38750000D02*
X60881000Y-38790000D01*
X60871000Y-38800000D02*
X60881000Y-38790000D01*
X60741000Y-40200000D02*
X60881000Y-40060000D01*
X65862500Y-55237500D02*
X66999485Y-55237500D01*
X62925065Y-31446536D02*
X62925065Y-31530239D01*
X60881000Y-36250000D02*
X61056000Y-36250000D01*
X64500000Y-38200000D02*
X65800000Y-38200000D01*
X68700000Y-60400000D02*
X69400000Y-59700000D01*
X66999485Y-55237500D02*
X67198744Y-55038241D01*
X66200000Y-51400000D02*
X66534168Y-51065832D01*
X67580000Y-50430000D02*
X68000000Y-50430000D01*
X64100000Y-55237500D02*
X65862500Y-55237500D01*
X66534168Y-51065832D02*
X66944168Y-51065832D01*
X68700000Y-60700000D02*
X68700000Y-60400000D01*
X65750000Y-61050000D02*
X65800000Y-61100000D01*
X66944168Y-51065832D02*
X67580000Y-50430000D01*
X63497000Y-38197000D02*
X63500000Y-38200000D01*
X65750000Y-59700000D02*
X65750000Y-61050000D01*
X61056000Y-36250000D02*
X63003000Y-38197000D01*
X63003000Y-38197000D02*
X63497000Y-38197000D01*
X68535002Y-62000000D02*
X70949990Y-59585012D01*
X68000000Y-74840000D02*
X65460000Y-74840000D01*
X66200000Y-53700000D02*
X67100000Y-53700000D01*
X67100000Y-53700000D02*
X68900000Y-55500000D01*
X62485000Y-54400000D02*
X62485000Y-53715000D01*
X70949990Y-59585012D02*
X70949990Y-56391758D01*
X65026998Y-62000000D02*
X68535002Y-62000000D01*
X64100000Y-53362500D02*
X65862500Y-53362500D01*
X65862500Y-53362500D02*
X66200000Y-53700000D01*
X63074999Y-72454999D02*
X63074999Y-63951999D01*
X70213222Y-55654990D02*
X69345010Y-55654990D01*
X68900000Y-55500000D02*
X68900000Y-55880000D01*
X69234168Y-55965832D02*
X68900000Y-56300000D01*
X62837500Y-53362500D02*
X64100000Y-53362500D01*
X63074999Y-63951999D02*
X65026998Y-62000000D01*
X69234168Y-55765832D02*
X69234168Y-55965832D01*
X69345010Y-55654990D02*
X69234168Y-55765832D01*
X65460000Y-74840000D02*
X63074999Y-72454999D01*
D26*
X68000000Y-74840000D02*
X68000000Y-100240000D01*
D25*
X70949990Y-56391758D02*
X70213222Y-55654990D01*
X62485000Y-53715000D02*
X62837500Y-53362500D01*
X68900000Y-55880000D02*
X68900000Y-56300000D01*
X61515000Y-54400000D02*
X61515000Y-56315000D01*
X64419999Y-43993999D02*
X61432999Y-43993999D01*
X60174999Y-53059999D02*
X61180832Y-54065832D01*
X61515000Y-56315000D02*
X61430000Y-56400000D01*
X65070000Y-44644000D02*
X64419999Y-43993999D01*
X60174999Y-45251999D02*
X60174999Y-53059999D01*
X61430000Y-56400000D02*
X61430000Y-58200000D01*
X61180832Y-54065832D02*
X61515000Y-54400000D01*
X65070000Y-44819000D02*
X65070000Y-44644000D01*
X61432999Y-43993999D02*
X60174999Y-45251999D01*
X63850000Y-59650000D02*
X62400000Y-58200000D01*
X63850000Y-59700000D02*
X63850000Y-59650000D01*
X62400000Y-58200000D02*
X62400000Y-56400000D01*
X69870000Y-56930000D02*
X69870000Y-56720000D01*
X68450000Y-57700000D02*
X69100000Y-57700000D01*
X69100000Y-57700000D02*
X69870000Y-56930000D01*
X69870000Y-56720000D02*
X69870000Y-56300000D01*
X67500000Y-59700000D02*
X67500000Y-59000000D01*
X67500000Y-59000000D02*
X66403232Y-57903232D01*
X67450832Y-56652400D02*
X67450832Y-56634168D01*
X66403232Y-57700000D02*
X67450832Y-56652400D01*
X67450832Y-56634168D02*
X67785000Y-56300000D01*
X64800000Y-57700000D02*
X66403232Y-57700000D01*
X66403232Y-57903232D02*
X66403232Y-57700000D01*
D27*
X67800000Y-67000000D02*
X67100000Y-67700000D01*
X68550000Y-66250000D02*
X67800000Y-67000000D01*
X73100000Y-58300000D02*
X73100000Y-61700000D01*
X73100000Y-61700000D02*
X68550000Y-66250000D01*
D25*
X62910000Y-33710000D02*
X63000000Y-33800000D01*
X60881000Y-33710000D02*
X62910000Y-33710000D01*
X75100000Y-31800000D02*
X76640000Y-31800000D01*
X69700000Y-53700000D02*
X69700000Y-51800000D01*
X69686814Y-64300000D02*
X72000000Y-61986814D01*
X71400000Y-54800000D02*
X70600000Y-54800000D01*
X69700000Y-53900000D02*
X69700000Y-53700000D01*
X70600000Y-54800000D02*
X69700000Y-53900000D01*
X71400000Y-61386814D02*
X71400000Y-54800000D01*
X72000000Y-61986814D02*
X71400000Y-61386814D01*
X63800000Y-64300000D02*
X69686814Y-64300000D01*
X68000000Y-51400000D02*
X69300000Y-51400000D01*
X69700000Y-51800000D02*
X69300000Y-51400000D01*
X62000000Y-47970000D02*
X62000000Y-50425000D01*
D27*
X74291999Y-44849999D02*
X75108001Y-44849999D01*
X75793897Y-45535895D02*
X75793897Y-49406103D01*
X68194999Y-43868999D02*
X67610000Y-44453998D01*
X75108001Y-44849999D02*
X74400000Y-44141998D01*
X76140001Y-34839999D02*
X76640000Y-34340000D01*
X72100000Y-47600000D02*
X72434168Y-47265832D01*
X73725000Y-51100000D02*
X73725000Y-53375000D01*
X74100000Y-51100000D02*
X73725000Y-51100000D01*
X67610000Y-44453998D02*
X67610000Y-44819000D01*
X70150000Y-44819000D02*
X70150000Y-44453998D01*
X72150000Y-56300000D02*
X73300000Y-55150000D01*
X70150000Y-44453998D02*
X69565001Y-43868999D01*
X72434168Y-47265832D02*
X72434168Y-46707830D01*
X73725000Y-53375000D02*
X73300000Y-53800000D01*
X74400000Y-36580000D02*
X76140001Y-34839999D01*
X69565001Y-43868999D02*
X68194999Y-43868999D01*
X72434168Y-46707830D02*
X74291999Y-44849999D01*
X73300000Y-55150000D02*
X73300000Y-53800000D01*
X70700000Y-47600000D02*
X72100000Y-47600000D01*
X70150000Y-44819000D02*
X70150000Y-47050000D01*
X74400000Y-44141998D02*
X74400000Y-36580000D01*
X75793897Y-49406103D02*
X74100000Y-51100000D01*
X75108001Y-44849999D02*
X75793897Y-45535895D01*
X70150000Y-47050000D02*
X70700000Y-47600000D01*
D25*
X62000000Y-47000000D02*
X62000000Y-46700000D01*
X61480000Y-34980000D02*
X62100000Y-35600000D01*
X60881000Y-34980000D02*
X61480000Y-34980000D01*
X62000000Y-46700000D02*
X60900000Y-45600000D01*
X64575001Y-60410001D02*
X64575001Y-58989999D01*
X63020010Y-57831778D02*
X64551788Y-56300000D01*
X63020010Y-58183600D02*
X63020010Y-57831778D01*
X64575001Y-58989999D02*
X64510001Y-58924999D01*
X64510001Y-60475001D02*
X64575001Y-60410001D01*
X59200000Y-56958232D02*
X62716769Y-60475001D01*
X64551788Y-56300000D02*
X66420000Y-56300000D01*
X58400000Y-50400000D02*
X58400000Y-50965685D01*
X58400000Y-50965685D02*
X59200000Y-51765685D01*
X59200000Y-51765685D02*
X59200000Y-56958232D01*
X66420000Y-56300000D02*
X66815000Y-56300000D01*
X60881000Y-32440000D02*
X60759999Y-32440000D01*
X62716769Y-60475001D02*
X64510001Y-60475001D01*
X63761409Y-58924999D02*
X63020010Y-58183600D01*
X60759999Y-32440000D02*
X59699999Y-33500000D01*
X64510001Y-58924999D02*
X63761409Y-58924999D01*
X76100000Y-38200000D02*
X76100000Y-37420000D01*
X73119000Y-34980000D02*
X72080000Y-34980000D01*
X72080000Y-34980000D02*
X71800000Y-34700000D01*
X76100000Y-37420000D02*
X76640000Y-36880000D01*
X73119000Y-33710000D02*
X70190000Y-33710000D01*
X70190000Y-33710000D02*
X69500000Y-34400000D01*
X75900000Y-40160000D02*
X76640000Y-39420000D01*
X75900000Y-40300000D02*
X75900000Y-40160000D01*
X76640000Y-44500000D02*
X76600000Y-44500000D01*
X76600000Y-44500000D02*
X75300000Y-43200000D01*
X72330000Y-48570000D02*
X73500000Y-47400000D01*
X71600000Y-37700000D02*
X72939000Y-37700000D01*
X73725000Y-49825000D02*
X75218887Y-48331113D01*
X73725000Y-50100000D02*
X73725000Y-49825000D01*
X75218887Y-48331113D02*
X75218887Y-46218887D01*
X75099999Y-46099999D02*
X74700000Y-45700000D01*
X73500000Y-46900000D02*
X74700000Y-45700000D01*
X72939000Y-37700000D02*
X73119000Y-37520000D01*
X75218887Y-46218887D02*
X75099999Y-46099999D01*
X72100000Y-48570000D02*
X72330000Y-48570000D01*
X73500000Y-47400000D02*
X73500000Y-46900000D01*
X70700000Y-48925000D02*
X71875000Y-50100000D01*
X73069000Y-36300000D02*
X73119000Y-36250000D01*
X70800000Y-36300000D02*
X73069000Y-36300000D01*
X71875000Y-49825000D02*
X72225010Y-49474990D01*
X72225010Y-49474990D02*
X72529327Y-49474990D01*
X70700000Y-48570000D02*
X70700000Y-48925000D01*
X72529327Y-49474990D02*
X74493886Y-47510431D01*
X71875000Y-50100000D02*
X71875000Y-49825000D01*
X62530000Y-44819000D02*
X62530000Y-45130000D01*
X64800000Y-50430000D02*
X64800000Y-48200000D01*
X62530000Y-45130000D02*
X65000000Y-47600000D01*
X65000000Y-47600000D02*
X65000000Y-48000000D01*
X64800000Y-48200000D02*
X65000000Y-48000000D01*
X63800000Y-44994000D02*
X65580999Y-46774999D01*
X63800000Y-44819000D02*
X63800000Y-44994000D01*
X67500000Y-47600000D02*
X67500000Y-48000000D01*
X66200000Y-50430000D02*
X67000000Y-49630000D01*
X65580999Y-46774999D02*
X66674999Y-46774999D01*
X66674999Y-46774999D02*
X67500000Y-47600000D01*
X67000000Y-49630000D02*
X67020000Y-49630000D01*
X67020000Y-49630000D02*
X67500000Y-49150000D01*
X67500000Y-49150000D02*
X67500000Y-48000000D01*
G04 #@! TA.AperFunction,Conductor*
G36*
X78433621Y-30620002D02*
G01*
X78480114Y-30673658D01*
X78491500Y-30726000D01*
X78491500Y-100057184D01*
X78471498Y-100125305D01*
X78454595Y-100146279D01*
X70243831Y-108357041D01*
X70239559Y-108361118D01*
X68248509Y-110173758D01*
X68200262Y-110201160D01*
X68188569Y-110204707D01*
X68164347Y-110209525D01*
X68108787Y-110214997D01*
X68012346Y-110224496D01*
X67987654Y-110224496D01*
X67891213Y-110214997D01*
X67835653Y-110209525D01*
X67811428Y-110204706D01*
X67791652Y-110198707D01*
X67744395Y-110172197D01*
X67017530Y-109524395D01*
X66155950Y-108756531D01*
X66150716Y-108751588D01*
X57545405Y-100146279D01*
X57511379Y-100083967D01*
X57508500Y-100057184D01*
X57508500Y-51095861D01*
X57528502Y-51027740D01*
X57582158Y-50981247D01*
X57652432Y-50971143D01*
X57717012Y-51000637D01*
X57728131Y-51011545D01*
X57746468Y-51031910D01*
X57773827Y-51081063D01*
X57774977Y-51085021D01*
X57778987Y-51104385D01*
X57781526Y-51124482D01*
X57784445Y-51131853D01*
X57784445Y-51131855D01*
X57797804Y-51165597D01*
X57801649Y-51176827D01*
X57804388Y-51186254D01*
X57813982Y-51219278D01*
X57818015Y-51226097D01*
X57818017Y-51226102D01*
X57824293Y-51236713D01*
X57832988Y-51254461D01*
X57840448Y-51273302D01*
X57845110Y-51279718D01*
X57845110Y-51279719D01*
X57866436Y-51309072D01*
X57872952Y-51318992D01*
X57881823Y-51333991D01*
X57895458Y-51357047D01*
X57909779Y-51371368D01*
X57922619Y-51386401D01*
X57934528Y-51402792D01*
X57940633Y-51407843D01*
X57940638Y-51407848D01*
X57968604Y-51430984D01*
X57977382Y-51438972D01*
X58529595Y-51991185D01*
X58563621Y-52053497D01*
X58566500Y-52080280D01*
X58566500Y-56879465D01*
X58565973Y-56890648D01*
X58564298Y-56898141D01*
X58564547Y-56906067D01*
X58564547Y-56906068D01*
X58566438Y-56966218D01*
X58566500Y-56970177D01*
X58566500Y-56998088D01*
X58566997Y-57002022D01*
X58566997Y-57002023D01*
X58567005Y-57002088D01*
X58567938Y-57013925D01*
X58569327Y-57058121D01*
X58574978Y-57077571D01*
X58578987Y-57096932D01*
X58581526Y-57117029D01*
X58584445Y-57124400D01*
X58584445Y-57124402D01*
X58597804Y-57158144D01*
X58601649Y-57169374D01*
X58613982Y-57211825D01*
X58618015Y-57218644D01*
X58618017Y-57218649D01*
X58624293Y-57229260D01*
X58632988Y-57247008D01*
X58640448Y-57265849D01*
X58645110Y-57272265D01*
X58645110Y-57272266D01*
X58666436Y-57301619D01*
X58672952Y-57311539D01*
X58695458Y-57349594D01*
X58709779Y-57363915D01*
X58722619Y-57378948D01*
X58734528Y-57395339D01*
X58740634Y-57400390D01*
X58768605Y-57423530D01*
X58777384Y-57431520D01*
X62213112Y-60867248D01*
X62220656Y-60875538D01*
X62224769Y-60882019D01*
X62230546Y-60887444D01*
X62274436Y-60928659D01*
X62277278Y-60931414D01*
X62296999Y-60951135D01*
X62300194Y-60953613D01*
X62309216Y-60961319D01*
X62341448Y-60991587D01*
X62348397Y-60995407D01*
X62359201Y-61001347D01*
X62375725Y-61012200D01*
X62391728Y-61024614D01*
X62432312Y-61042177D01*
X62442942Y-61047384D01*
X62481709Y-61068696D01*
X62489386Y-61070667D01*
X62489391Y-61070669D01*
X62501327Y-61073733D01*
X62520035Y-61080138D01*
X62538624Y-61088182D01*
X62546449Y-61089421D01*
X62546451Y-61089422D01*
X62582288Y-61095098D01*
X62593909Y-61097505D01*
X62625728Y-61105674D01*
X62636739Y-61108501D01*
X62657000Y-61108501D01*
X62676709Y-61110052D01*
X62696712Y-61113220D01*
X62704604Y-61112474D01*
X62709831Y-61111980D01*
X62740723Y-61109060D01*
X62752580Y-61108501D01*
X64431234Y-61108501D01*
X64442417Y-61109028D01*
X64449910Y-61110703D01*
X64457836Y-61110454D01*
X64457837Y-61110454D01*
X64517987Y-61108563D01*
X64521946Y-61108501D01*
X64549857Y-61108501D01*
X64553792Y-61108004D01*
X64553857Y-61107996D01*
X64565694Y-61107063D01*
X64597952Y-61106049D01*
X64601971Y-61105923D01*
X64609890Y-61105674D01*
X64629344Y-61100022D01*
X64648701Y-61096014D01*
X64660931Y-61094469D01*
X64660932Y-61094469D01*
X64668798Y-61093475D01*
X64676169Y-61090556D01*
X64676171Y-61090556D01*
X64709913Y-61077197D01*
X64721143Y-61073352D01*
X64755984Y-61063230D01*
X64755985Y-61063230D01*
X64763594Y-61061019D01*
X64770413Y-61056986D01*
X64770418Y-61056984D01*
X64781029Y-61050708D01*
X64798777Y-61042013D01*
X64817618Y-61034553D01*
X64837988Y-61019754D01*
X64853388Y-61008565D01*
X64863308Y-61002049D01*
X64894536Y-60983581D01*
X64894539Y-60983579D01*
X64901363Y-60979543D01*
X64915687Y-60965219D01*
X64930714Y-60952384D01*
X64947108Y-60940473D01*
X64954603Y-60931414D01*
X64968035Y-60915177D01*
X64979805Y-60903406D01*
X64982019Y-60902001D01*
X65028647Y-60852347D01*
X65031401Y-60849506D01*
X65051136Y-60829771D01*
X65053616Y-60826574D01*
X65061321Y-60817552D01*
X65086160Y-60791101D01*
X65091587Y-60785322D01*
X65095406Y-60778376D01*
X65095408Y-60778373D01*
X65101349Y-60767567D01*
X65112200Y-60751048D01*
X65119759Y-60741302D01*
X65124615Y-60735042D01*
X65127762Y-60727771D01*
X65131799Y-60720944D01*
X65133047Y-60721682D01*
X65172939Y-60673742D01*
X65240647Y-60652384D01*
X65256770Y-60653096D01*
X65298514Y-60657631D01*
X65305328Y-60658000D01*
X65477885Y-60658000D01*
X65493124Y-60653525D01*
X65494329Y-60652135D01*
X65496000Y-60644452D01*
X65496000Y-58760116D01*
X65488528Y-58734669D01*
X65461181Y-58692115D01*
X65461181Y-58621118D01*
X65499566Y-58561393D01*
X65506512Y-58555792D01*
X65556081Y-58518642D01*
X65563261Y-58513261D01*
X65650615Y-58396705D01*
X65650861Y-58396049D01*
X65698175Y-58348843D01*
X65758433Y-58333500D01*
X65884129Y-58333500D01*
X65952250Y-58353502D01*
X65964443Y-58362414D01*
X65971835Y-58368529D01*
X65980616Y-58376520D01*
X66131001Y-58526905D01*
X66165027Y-58589217D01*
X66159962Y-58660032D01*
X66117415Y-58716868D01*
X66050895Y-58741679D01*
X66041906Y-58742000D01*
X66022115Y-58742000D01*
X66006876Y-58746475D01*
X66005671Y-58747865D01*
X66004000Y-58755548D01*
X66004000Y-60639884D01*
X66008475Y-60655123D01*
X66009865Y-60656328D01*
X66017548Y-60657999D01*
X66194669Y-60657999D01*
X66201490Y-60657629D01*
X66252352Y-60652105D01*
X66267604Y-60648479D01*
X66388054Y-60603324D01*
X66403649Y-60594786D01*
X66505724Y-60518285D01*
X66518283Y-60505726D01*
X66523862Y-60498282D01*
X66580722Y-60455768D01*
X66651541Y-60450743D01*
X66713834Y-60484803D01*
X66725515Y-60498285D01*
X66731092Y-60505726D01*
X66736739Y-60513261D01*
X66853295Y-60600615D01*
X66989684Y-60651745D01*
X67051866Y-60658500D01*
X67948134Y-60658500D01*
X68010316Y-60651745D01*
X68146705Y-60600615D01*
X68263261Y-60513261D01*
X68349487Y-60398210D01*
X68406347Y-60355696D01*
X68477165Y-60350671D01*
X68539458Y-60384730D01*
X68551139Y-60398211D01*
X68631715Y-60505724D01*
X68644276Y-60518285D01*
X68746351Y-60594786D01*
X68761943Y-60603323D01*
X68777862Y-60609290D01*
X68834627Y-60651931D01*
X68859328Y-60718492D01*
X68844122Y-60787841D01*
X68822729Y-60816368D01*
X68309502Y-61329595D01*
X68247190Y-61363621D01*
X68220407Y-61366500D01*
X65105761Y-61366500D01*
X65094577Y-61365973D01*
X65087089Y-61364299D01*
X65079166Y-61364548D01*
X65019031Y-61366438D01*
X65015073Y-61366500D01*
X64987142Y-61366500D01*
X64983227Y-61366995D01*
X64983223Y-61366995D01*
X64983165Y-61367003D01*
X64983136Y-61367006D01*
X64971294Y-61367939D01*
X64927108Y-61369327D01*
X64909742Y-61374372D01*
X64907656Y-61374978D01*
X64888304Y-61378986D01*
X64876066Y-61380532D01*
X64876064Y-61380533D01*
X64868201Y-61381526D01*
X64827084Y-61397806D01*
X64815883Y-61401641D01*
X64773404Y-61413982D01*
X64766585Y-61418015D01*
X64766580Y-61418017D01*
X64755969Y-61424293D01*
X64738219Y-61432990D01*
X64719381Y-61440448D01*
X64712965Y-61445109D01*
X64712964Y-61445110D01*
X64683623Y-61466428D01*
X64673699Y-61472947D01*
X64642458Y-61491422D01*
X64642453Y-61491426D01*
X64635635Y-61495458D01*
X64621311Y-61509782D01*
X64606279Y-61522621D01*
X64589891Y-61534528D01*
X64574623Y-61552984D01*
X64561710Y-61568593D01*
X64553720Y-61577373D01*
X62682746Y-63448347D01*
X62674460Y-63455887D01*
X62667981Y-63459999D01*
X62662556Y-63465776D01*
X62621356Y-63509650D01*
X62618601Y-63512492D01*
X62598864Y-63532229D01*
X62596384Y-63535426D01*
X62588681Y-63544446D01*
X62558413Y-63576678D01*
X62554594Y-63583624D01*
X62554592Y-63583627D01*
X62548651Y-63594433D01*
X62537800Y-63610952D01*
X62525385Y-63626958D01*
X62522240Y-63634227D01*
X62522237Y-63634231D01*
X62507825Y-63667536D01*
X62502608Y-63678186D01*
X62481304Y-63716939D01*
X62479333Y-63724614D01*
X62479333Y-63724615D01*
X62476266Y-63736561D01*
X62469862Y-63755265D01*
X62461818Y-63773854D01*
X62460579Y-63781677D01*
X62460576Y-63781687D01*
X62454900Y-63817523D01*
X62452494Y-63829143D01*
X62441499Y-63871969D01*
X62441499Y-63892223D01*
X62439948Y-63911933D01*
X62436779Y-63931942D01*
X62437525Y-63939834D01*
X62440940Y-63975960D01*
X62441499Y-63987818D01*
X62441499Y-72376232D01*
X62440972Y-72387415D01*
X62439297Y-72394908D01*
X62439546Y-72402834D01*
X62439546Y-72402835D01*
X62441437Y-72462985D01*
X62441499Y-72466944D01*
X62441499Y-72494855D01*
X62441996Y-72498789D01*
X62441996Y-72498790D01*
X62442004Y-72498855D01*
X62442937Y-72510692D01*
X62444326Y-72554888D01*
X62449977Y-72574338D01*
X62453986Y-72593699D01*
X62456525Y-72613796D01*
X62459444Y-72621167D01*
X62459444Y-72621169D01*
X62472803Y-72654911D01*
X62476648Y-72666141D01*
X62488981Y-72708592D01*
X62493014Y-72715411D01*
X62493016Y-72715416D01*
X62499292Y-72726027D01*
X62507987Y-72743775D01*
X62515447Y-72762616D01*
X62520109Y-72769032D01*
X62520109Y-72769033D01*
X62541435Y-72798386D01*
X62547951Y-72808306D01*
X62570457Y-72846361D01*
X62584778Y-72860682D01*
X62597618Y-72875715D01*
X62609527Y-72892106D01*
X62615633Y-72897157D01*
X62643604Y-72920297D01*
X62652383Y-72928287D01*
X62730192Y-73006096D01*
X62764218Y-73068408D01*
X62760088Y-73136627D01*
X62721850Y-73246432D01*
X62607015Y-73693686D01*
X62606573Y-73696301D01*
X62606571Y-73696309D01*
X62568647Y-73920526D01*
X62530007Y-74148979D01*
X62491500Y-74607548D01*
X62491500Y-100358530D01*
X62499994Y-100561182D01*
X62504470Y-100667966D01*
X62505869Y-100701355D01*
X62563742Y-101159474D01*
X62564289Y-101162047D01*
X62611959Y-101386314D01*
X62659748Y-101611144D01*
X62793211Y-102053196D01*
X62963196Y-102482529D01*
X63168511Y-102896133D01*
X63407715Y-103291107D01*
X63679131Y-103664678D01*
X63980855Y-104014229D01*
X64310770Y-104337305D01*
X64666562Y-104631642D01*
X65045736Y-104895175D01*
X65445632Y-105126055D01*
X65863445Y-105322663D01*
X65865912Y-105323580D01*
X65865918Y-105323583D01*
X66020143Y-105380938D01*
X66296245Y-105483620D01*
X66298768Y-105484324D01*
X66298779Y-105484328D01*
X66738458Y-105607088D01*
X66738466Y-105607090D01*
X66740995Y-105607796D01*
X67194576Y-105694321D01*
X67653806Y-105742588D01*
X67936807Y-105748516D01*
X68112826Y-105752204D01*
X68112833Y-105752204D01*
X68115465Y-105752259D01*
X68576314Y-105723265D01*
X68578932Y-105722878D01*
X68578936Y-105722878D01*
X69030501Y-105656196D01*
X69030504Y-105656196D01*
X69033121Y-105655809D01*
X69035693Y-105655206D01*
X69035697Y-105655205D01*
X69161498Y-105625699D01*
X69482681Y-105550366D01*
X69485192Y-105549550D01*
X69485196Y-105549549D01*
X69919330Y-105408490D01*
X69919333Y-105408489D01*
X69921841Y-105407674D01*
X70347520Y-105228735D01*
X70349853Y-105227515D01*
X70349858Y-105227513D01*
X70754401Y-105016023D01*
X70754407Y-105016019D01*
X70756734Y-105014803D01*
X70822462Y-104973091D01*
X71144374Y-104768800D01*
X71144380Y-104768796D01*
X71146611Y-104767380D01*
X71514417Y-104488200D01*
X71857571Y-104179222D01*
X72173668Y-103842614D01*
X72460489Y-103480735D01*
X72585061Y-103293239D01*
X72714567Y-103098317D01*
X72714571Y-103098311D01*
X72716023Y-103096125D01*
X72938478Y-102691482D01*
X73126293Y-102269643D01*
X73278150Y-101833568D01*
X73392985Y-101386314D01*
X73430918Y-101162047D01*
X73469551Y-100933634D01*
X73469993Y-100931021D01*
X73501049Y-100561182D01*
X73508280Y-100475075D01*
X73508280Y-100475069D01*
X73508500Y-100472452D01*
X73508500Y-74721470D01*
X73494131Y-74378645D01*
X73436258Y-73920526D01*
X73388599Y-73696309D01*
X73340798Y-73471423D01*
X73340796Y-73471415D01*
X73340252Y-73468856D01*
X73206789Y-73026804D01*
X73036804Y-72597471D01*
X72831489Y-72183867D01*
X72592285Y-71788893D01*
X72320869Y-71415322D01*
X72019145Y-71065771D01*
X71997553Y-71044626D01*
X71691120Y-70744546D01*
X71689230Y-70742695D01*
X71333438Y-70448358D01*
X70954264Y-70184825D01*
X70554368Y-69953945D01*
X70136555Y-69757337D01*
X70134088Y-69756420D01*
X70134082Y-69756417D01*
X69905773Y-69671510D01*
X69703755Y-69596380D01*
X69701232Y-69595676D01*
X69701221Y-69595672D01*
X69261542Y-69472912D01*
X69261534Y-69472910D01*
X69259005Y-69472204D01*
X68805424Y-69385679D01*
X68346194Y-69337412D01*
X68063193Y-69331484D01*
X67887174Y-69327796D01*
X67887167Y-69327796D01*
X67884535Y-69327741D01*
X67423686Y-69356735D01*
X67421068Y-69357122D01*
X67421064Y-69357122D01*
X66969499Y-69423804D01*
X66969496Y-69423804D01*
X66966879Y-69424191D01*
X66964307Y-69424794D01*
X66964303Y-69424795D01*
X66838502Y-69454301D01*
X66517319Y-69529634D01*
X66514808Y-69530450D01*
X66514804Y-69530451D01*
X66314075Y-69595672D01*
X66078159Y-69672326D01*
X65652480Y-69851265D01*
X65650147Y-69852485D01*
X65650142Y-69852487D01*
X65245599Y-70063977D01*
X65245593Y-70063981D01*
X65243266Y-70065197D01*
X65241038Y-70066611D01*
X64855626Y-70311200D01*
X64855620Y-70311204D01*
X64853389Y-70312620D01*
X64485583Y-70591800D01*
X64142429Y-70900778D01*
X64140626Y-70902698D01*
X64140625Y-70902699D01*
X63926349Y-71130879D01*
X63865136Y-71166845D01*
X63794196Y-71164006D01*
X63736052Y-71123266D01*
X63709164Y-71057558D01*
X63708499Y-71044626D01*
X63708499Y-65334500D01*
X63728501Y-65266379D01*
X63782157Y-65219886D01*
X63834499Y-65208500D01*
X63895487Y-65208500D01*
X63901939Y-65207128D01*
X63901944Y-65207128D01*
X63988888Y-65188647D01*
X64082288Y-65168794D01*
X64142442Y-65142012D01*
X64250722Y-65093803D01*
X64250724Y-65093802D01*
X64256752Y-65091118D01*
X64411253Y-64978866D01*
X64415668Y-64973963D01*
X64420580Y-64969540D01*
X64421705Y-64970789D01*
X64475014Y-64937949D01*
X64508200Y-64933500D01*
X68489629Y-64933500D01*
X68557750Y-64953502D01*
X68604243Y-65007158D01*
X68614347Y-65077432D01*
X68584853Y-65142012D01*
X68578724Y-65148595D01*
X68393669Y-65333650D01*
X68330772Y-65367801D01*
X68274176Y-65379831D01*
X68274167Y-65379834D01*
X68267712Y-65381206D01*
X68261682Y-65383891D01*
X68261681Y-65383891D01*
X68099278Y-65456197D01*
X68099276Y-65456198D01*
X68093248Y-65458882D01*
X67938747Y-65571134D01*
X67810960Y-65713056D01*
X67715473Y-65878444D01*
X67713431Y-65884729D01*
X67664404Y-66035618D01*
X67624331Y-66094224D01*
X67570768Y-66119929D01*
X67552539Y-66123803D01*
X67524170Y-66129833D01*
X67524167Y-66129834D01*
X67517712Y-66131206D01*
X67511682Y-66133891D01*
X67511681Y-66133891D01*
X67349278Y-66206197D01*
X67349276Y-66206198D01*
X67343248Y-66208882D01*
X67188747Y-66321134D01*
X67184326Y-66326044D01*
X67184325Y-66326045D01*
X67081785Y-66439928D01*
X67060960Y-66463056D01*
X66965473Y-66628444D01*
X66963431Y-66634729D01*
X66928146Y-66743324D01*
X66888072Y-66801930D01*
X66834513Y-66827634D01*
X66824174Y-66829832D01*
X66824170Y-66829833D01*
X66817712Y-66831206D01*
X66811682Y-66833891D01*
X66811681Y-66833891D01*
X66649278Y-66906197D01*
X66649276Y-66906198D01*
X66643248Y-66908882D01*
X66488747Y-67021134D01*
X66484326Y-67026044D01*
X66484325Y-67026045D01*
X66400814Y-67118794D01*
X66360960Y-67163056D01*
X66265473Y-67328444D01*
X66206458Y-67510072D01*
X66205768Y-67516633D01*
X66205768Y-67516635D01*
X66203118Y-67541852D01*
X66186496Y-67700000D01*
X66187186Y-67706565D01*
X66203955Y-67866109D01*
X66206458Y-67889928D01*
X66265473Y-68071556D01*
X66360960Y-68236944D01*
X66488747Y-68378866D01*
X66643248Y-68491118D01*
X66649276Y-68493802D01*
X66649278Y-68493803D01*
X66811681Y-68566109D01*
X66817712Y-68568794D01*
X66911112Y-68588647D01*
X66998056Y-68607128D01*
X66998061Y-68607128D01*
X67004513Y-68608500D01*
X67195487Y-68608500D01*
X67201939Y-68607128D01*
X67201944Y-68607128D01*
X67288888Y-68588647D01*
X67382288Y-68568794D01*
X67388319Y-68566109D01*
X67550722Y-68493803D01*
X67550724Y-68493802D01*
X67556752Y-68491118D01*
X67711253Y-68378866D01*
X67839040Y-68236944D01*
X67934527Y-68071556D01*
X67971854Y-67956676D01*
X68011928Y-67898070D01*
X68065487Y-67872366D01*
X68075826Y-67870168D01*
X68075830Y-67870167D01*
X68082288Y-67868794D01*
X68088319Y-67866109D01*
X68250722Y-67793803D01*
X68250724Y-67793802D01*
X68256752Y-67791118D01*
X68411253Y-67678866D01*
X68539040Y-67536944D01*
X68634527Y-67371556D01*
X68685597Y-67214381D01*
X68725669Y-67155776D01*
X68779232Y-67130071D01*
X68797461Y-67126197D01*
X68825830Y-67120167D01*
X68825833Y-67120166D01*
X68832288Y-67118794D01*
X68838319Y-67116109D01*
X69000722Y-67043803D01*
X69000724Y-67043802D01*
X69006752Y-67041118D01*
X69161253Y-66928866D01*
X69246769Y-66833891D01*
X69284621Y-66791852D01*
X69284622Y-66791851D01*
X69289040Y-66786944D01*
X69384527Y-66621556D01*
X69439387Y-66452714D01*
X69470125Y-66402556D01*
X73588911Y-62283770D01*
X73603323Y-62271384D01*
X73614918Y-62262851D01*
X73614923Y-62262846D01*
X73620818Y-62258508D01*
X73625557Y-62252930D01*
X73625560Y-62252927D01*
X73655035Y-62218232D01*
X73661965Y-62210716D01*
X73667661Y-62205020D01*
X73669924Y-62202159D01*
X73669929Y-62202154D01*
X73685293Y-62182734D01*
X73688082Y-62179333D01*
X73689743Y-62177378D01*
X73735333Y-62123715D01*
X73738659Y-62117202D01*
X73742020Y-62112163D01*
X73745196Y-62107021D01*
X73749734Y-62101284D01*
X73780655Y-62035125D01*
X73782561Y-62031225D01*
X73782755Y-62030846D01*
X73815769Y-61966192D01*
X73817508Y-61959083D01*
X73819604Y-61953449D01*
X73821523Y-61947679D01*
X73824622Y-61941050D01*
X73839491Y-61869565D01*
X73840461Y-61865282D01*
X73857808Y-61794390D01*
X73858500Y-61783236D01*
X73858535Y-61783238D01*
X73858775Y-61779255D01*
X73859150Y-61775050D01*
X73860641Y-61767885D01*
X73858546Y-61690458D01*
X73858500Y-61687050D01*
X73858500Y-59161589D01*
X73878502Y-59093468D01*
X73883674Y-59086024D01*
X73914941Y-59044304D01*
X73950615Y-58996705D01*
X74001745Y-58860316D01*
X74008500Y-58798134D01*
X74008500Y-57801866D01*
X74001745Y-57739684D01*
X73950615Y-57603295D01*
X73863261Y-57486739D01*
X73806456Y-57444166D01*
X73763941Y-57387307D01*
X73758915Y-57316488D01*
X73786797Y-57260827D01*
X73794329Y-57252135D01*
X73796000Y-57244452D01*
X73796000Y-57239884D01*
X74304000Y-57239884D01*
X74308475Y-57255123D01*
X74309865Y-57256328D01*
X74317548Y-57257999D01*
X74494669Y-57257999D01*
X74501490Y-57257629D01*
X74552352Y-57252105D01*
X74567604Y-57248479D01*
X74688054Y-57203324D01*
X74703649Y-57194786D01*
X74805724Y-57118285D01*
X74818285Y-57105724D01*
X74894786Y-57003649D01*
X74903324Y-56988054D01*
X74948478Y-56867606D01*
X74952105Y-56852351D01*
X74957631Y-56801486D01*
X74958000Y-56794672D01*
X74958000Y-56572115D01*
X74953525Y-56556876D01*
X74952135Y-56555671D01*
X74944452Y-56554000D01*
X74322115Y-56554000D01*
X74306876Y-56558475D01*
X74305671Y-56559865D01*
X74304000Y-56567548D01*
X74304000Y-57239884D01*
X73796000Y-57239884D01*
X73796000Y-56172000D01*
X73816002Y-56103879D01*
X73869658Y-56057386D01*
X73922000Y-56046000D01*
X74939884Y-56046000D01*
X74955123Y-56041525D01*
X74956328Y-56040135D01*
X74957999Y-56032452D01*
X74957999Y-55805331D01*
X74957629Y-55798510D01*
X74952105Y-55747648D01*
X74948479Y-55732396D01*
X74903324Y-55611946D01*
X74894786Y-55596351D01*
X74818285Y-55494276D01*
X74805724Y-55481715D01*
X74703649Y-55405214D01*
X74688054Y-55396676D01*
X74567606Y-55351522D01*
X74552351Y-55347895D01*
X74501486Y-55342369D01*
X74494673Y-55342000D01*
X74186459Y-55342001D01*
X74118339Y-55321999D01*
X74071846Y-55268344D01*
X74063188Y-55217816D01*
X74060641Y-55217885D01*
X74058546Y-55140458D01*
X74058500Y-55137050D01*
X74058500Y-54238686D01*
X74063503Y-54203533D01*
X74064589Y-54199797D01*
X74093116Y-54101605D01*
X74125018Y-54047663D01*
X74213911Y-53958770D01*
X74228323Y-53946384D01*
X74239918Y-53937851D01*
X74239923Y-53937846D01*
X74245818Y-53933508D01*
X74250557Y-53927930D01*
X74250560Y-53927927D01*
X74280035Y-53893232D01*
X74286965Y-53885716D01*
X74292661Y-53880020D01*
X74294924Y-53877159D01*
X74294929Y-53877154D01*
X74310293Y-53857734D01*
X74313082Y-53854333D01*
X74339387Y-53823370D01*
X74360333Y-53798715D01*
X74363659Y-53792202D01*
X74367020Y-53787163D01*
X74370196Y-53782021D01*
X74374734Y-53776284D01*
X74405655Y-53710125D01*
X74407561Y-53706225D01*
X74440769Y-53641192D01*
X74442508Y-53634083D01*
X74444604Y-53628449D01*
X74446523Y-53622679D01*
X74449622Y-53616050D01*
X74464491Y-53544565D01*
X74465461Y-53540282D01*
X74473075Y-53509166D01*
X74482808Y-53469390D01*
X74483500Y-53458236D01*
X74483535Y-53458238D01*
X74483775Y-53454266D01*
X74484152Y-53450045D01*
X74485641Y-53442885D01*
X74483546Y-53365458D01*
X74483500Y-53362050D01*
X74483500Y-51825467D01*
X74503502Y-51757346D01*
X74544134Y-51717749D01*
X74569107Y-51702595D01*
X74577484Y-51695197D01*
X74577508Y-51695224D01*
X74580500Y-51692571D01*
X74583733Y-51689868D01*
X74589852Y-51685856D01*
X74643128Y-51629617D01*
X74645506Y-51627175D01*
X76282808Y-49989873D01*
X76297220Y-49977487D01*
X76308815Y-49968954D01*
X76308820Y-49968949D01*
X76314715Y-49964611D01*
X76319454Y-49959033D01*
X76319457Y-49959030D01*
X76348932Y-49924335D01*
X76355862Y-49916819D01*
X76361557Y-49911124D01*
X76372883Y-49896808D01*
X76379178Y-49888852D01*
X76381969Y-49885448D01*
X76424488Y-49835400D01*
X76424489Y-49835398D01*
X76429230Y-49829818D01*
X76432558Y-49823302D01*
X76435925Y-49818253D01*
X76439092Y-49813124D01*
X76443631Y-49807387D01*
X76474552Y-49741228D01*
X76476458Y-49737328D01*
X76509666Y-49672295D01*
X76511405Y-49665187D01*
X76513504Y-49659544D01*
X76515421Y-49653781D01*
X76518519Y-49647153D01*
X76521506Y-49632795D01*
X76533383Y-49575691D01*
X76534354Y-49571402D01*
X76545630Y-49525321D01*
X76551705Y-49500493D01*
X76552397Y-49489339D01*
X76552433Y-49489341D01*
X76552672Y-49485348D01*
X76553046Y-49481156D01*
X76554537Y-49473988D01*
X76552443Y-49396582D01*
X76552397Y-49393175D01*
X76552397Y-45634943D01*
X76572399Y-45566822D01*
X76626055Y-45520329D01*
X76668729Y-45509314D01*
X76709951Y-45506142D01*
X76809830Y-45498457D01*
X76809834Y-45498456D01*
X76815972Y-45497984D01*
X77006463Y-45444798D01*
X77011967Y-45442018D01*
X77011969Y-45442017D01*
X77177495Y-45358404D01*
X77177497Y-45358403D01*
X77182996Y-45355625D01*
X77338847Y-45233861D01*
X77468078Y-45084145D01*
X77565769Y-44912179D01*
X77628197Y-44724513D01*
X77652985Y-44528295D01*
X77653380Y-44500000D01*
X77634080Y-44303167D01*
X77625360Y-44274283D01*
X77597687Y-44182628D01*
X77576916Y-44113831D01*
X77484066Y-43939204D01*
X77383911Y-43816402D01*
X77362960Y-43790713D01*
X77362957Y-43790710D01*
X77359065Y-43785938D01*
X77344145Y-43773595D01*
X77211425Y-43663799D01*
X77211421Y-43663797D01*
X77206675Y-43659870D01*
X77032701Y-43565802D01*
X76843768Y-43507318D01*
X76837643Y-43506674D01*
X76837642Y-43506674D01*
X76653204Y-43487289D01*
X76653202Y-43487289D01*
X76647075Y-43486645D01*
X76555052Y-43495020D01*
X76485400Y-43481275D01*
X76454538Y-43458634D01*
X76247122Y-43251218D01*
X76213096Y-43188906D01*
X76210907Y-43175293D01*
X76199109Y-43063035D01*
X76211882Y-42993196D01*
X76260384Y-42941350D01*
X76329217Y-42923956D01*
X76363354Y-42930032D01*
X76416637Y-42947344D01*
X76428615Y-42949978D01*
X76612676Y-42971926D01*
X76624925Y-42972183D01*
X76809742Y-42957962D01*
X76821822Y-42955831D01*
X77000345Y-42905986D01*
X77011778Y-42901552D01*
X77135507Y-42839052D01*
X77145791Y-42829407D01*
X77143553Y-42822763D01*
X76369885Y-42049095D01*
X76335859Y-41986783D01*
X76337694Y-41961132D01*
X77004408Y-41961132D01*
X77004539Y-41962965D01*
X77008790Y-41969580D01*
X77496661Y-42457451D01*
X77509041Y-42464211D01*
X77515775Y-42459170D01*
X77562262Y-42377337D01*
X77567256Y-42366121D01*
X77625759Y-42190253D01*
X77628479Y-42178281D01*
X77652039Y-41991784D01*
X77652531Y-41984757D01*
X77652828Y-41963523D01*
X77652533Y-41956494D01*
X77634188Y-41769397D01*
X77631805Y-41757362D01*
X77578233Y-41579924D01*
X77573559Y-41568584D01*
X77518562Y-41465148D01*
X77508702Y-41455067D01*
X77501575Y-41457635D01*
X77012022Y-41947188D01*
X77004408Y-41961132D01*
X76337694Y-41961132D01*
X76340924Y-41915968D01*
X76369885Y-41870905D01*
X77137834Y-41102956D01*
X77144594Y-41090576D01*
X77139935Y-41084353D01*
X77037924Y-41029196D01*
X77026619Y-41024444D01*
X76849554Y-40969633D01*
X76837541Y-40967167D01*
X76772473Y-40960328D01*
X76706816Y-40933314D01*
X76666187Y-40875093D01*
X76663484Y-40804148D01*
X76676525Y-40772018D01*
X76731223Y-40677279D01*
X76731224Y-40677278D01*
X76734527Y-40671556D01*
X76793542Y-40489928D01*
X76794340Y-40490187D01*
X76825498Y-40432477D01*
X76881127Y-40399792D01*
X77006463Y-40364798D01*
X77011967Y-40362018D01*
X77011969Y-40362017D01*
X77177495Y-40278404D01*
X77177497Y-40278403D01*
X77182996Y-40275625D01*
X77338847Y-40153861D01*
X77468078Y-40004145D01*
X77565769Y-39832179D01*
X77628197Y-39644513D01*
X77652985Y-39448295D01*
X77653380Y-39420000D01*
X77634080Y-39223167D01*
X77576916Y-39033831D01*
X77484066Y-38859204D01*
X77366955Y-38715612D01*
X77362960Y-38710713D01*
X77362957Y-38710710D01*
X77359065Y-38705938D01*
X77354316Y-38702009D01*
X77211425Y-38583799D01*
X77211421Y-38583797D01*
X77206675Y-38579870D01*
X77060310Y-38500730D01*
X77009902Y-38450736D01*
X76994930Y-38376725D01*
X77012814Y-38206565D01*
X77013504Y-38200000D01*
X77008774Y-38155000D01*
X76994233Y-38016642D01*
X76994232Y-38016638D01*
X76993542Y-38010072D01*
X76977024Y-37959235D01*
X76974996Y-37888268D01*
X77011658Y-37827470D01*
X77040044Y-37807835D01*
X77182996Y-37735625D01*
X77338847Y-37613861D01*
X77468078Y-37464145D01*
X77565769Y-37292179D01*
X77628197Y-37104513D01*
X77652985Y-36908295D01*
X77653380Y-36880000D01*
X77634080Y-36683167D01*
X77630575Y-36671556D01*
X77597119Y-36560746D01*
X77576916Y-36493831D01*
X77484066Y-36319204D01*
X77413709Y-36232938D01*
X77362960Y-36170713D01*
X77362957Y-36170710D01*
X77359065Y-36165938D01*
X77354316Y-36162009D01*
X77211425Y-36043799D01*
X77211421Y-36043797D01*
X77206675Y-36039870D01*
X77032701Y-35945802D01*
X76843768Y-35887318D01*
X76837643Y-35886674D01*
X76837642Y-35886674D01*
X76653204Y-35867289D01*
X76653202Y-35867289D01*
X76647075Y-35866645D01*
X76525869Y-35877676D01*
X76486515Y-35881257D01*
X76416861Y-35867512D01*
X76365697Y-35818291D01*
X76349266Y-35749222D01*
X76372784Y-35682234D01*
X76386000Y-35666681D01*
X76673296Y-35379385D01*
X76735608Y-35345359D01*
X76752723Y-35342851D01*
X76759513Y-35342329D01*
X76809830Y-35338457D01*
X76809834Y-35338456D01*
X76815972Y-35337984D01*
X77006463Y-35284798D01*
X77011967Y-35282018D01*
X77011969Y-35282017D01*
X77177495Y-35198404D01*
X77177497Y-35198403D01*
X77182996Y-35195625D01*
X77338847Y-35073861D01*
X77468078Y-34924145D01*
X77565769Y-34752179D01*
X77628197Y-34564513D01*
X77652985Y-34368295D01*
X77653380Y-34340000D01*
X77634080Y-34143167D01*
X77576916Y-33953831D01*
X77484066Y-33779204D01*
X77411254Y-33689928D01*
X77362960Y-33630713D01*
X77362957Y-33630710D01*
X77359065Y-33625938D01*
X77347820Y-33616635D01*
X77211425Y-33503799D01*
X77211421Y-33503797D01*
X77206675Y-33499870D01*
X77032701Y-33405802D01*
X76843768Y-33347318D01*
X76837643Y-33346674D01*
X76837642Y-33346674D01*
X76653204Y-33327289D01*
X76653202Y-33327289D01*
X76647075Y-33326645D01*
X76572092Y-33333469D01*
X76456251Y-33344011D01*
X76456248Y-33344012D01*
X76450112Y-33344570D01*
X76444206Y-33346308D01*
X76444202Y-33346309D01*
X76339076Y-33377249D01*
X76260381Y-33400410D01*
X76254923Y-33403263D01*
X76254919Y-33403265D01*
X76217704Y-33422721D01*
X76085110Y-33492040D01*
X75930975Y-33615968D01*
X75803846Y-33767474D01*
X75800879Y-33772872D01*
X75800875Y-33772877D01*
X75722095Y-33916180D01*
X75708567Y-33940787D01*
X75706706Y-33946654D01*
X75706705Y-33946656D01*
X75695060Y-33983365D01*
X75648765Y-34129306D01*
X75644731Y-34165271D01*
X75637354Y-34231035D01*
X75609883Y-34296502D01*
X75601234Y-34306085D01*
X74309318Y-35598001D01*
X74247006Y-35632027D01*
X74176191Y-35626962D01*
X74119355Y-35584415D01*
X74094544Y-35517895D01*
X74102241Y-35464677D01*
X74117971Y-35422718D01*
X74117973Y-35422712D01*
X74120745Y-35415316D01*
X74127500Y-35353134D01*
X74127500Y-34606866D01*
X74120745Y-34544684D01*
X74090278Y-34463414D01*
X74072766Y-34416699D01*
X74072764Y-34416696D01*
X74069615Y-34408295D01*
X74066273Y-34403836D01*
X74051470Y-34336152D01*
X74066067Y-34286439D01*
X74069615Y-34281705D01*
X74088611Y-34231035D01*
X74117971Y-34152715D01*
X74120745Y-34145316D01*
X74127500Y-34083134D01*
X74127500Y-33336866D01*
X74120745Y-33274684D01*
X74094793Y-33205458D01*
X74072766Y-33146699D01*
X74072764Y-33146696D01*
X74069615Y-33138295D01*
X74066273Y-33133836D01*
X74051470Y-33066152D01*
X74066067Y-33016439D01*
X74069615Y-33011705D01*
X74120745Y-32875316D01*
X74127500Y-32813134D01*
X74127500Y-32402227D01*
X74147502Y-32334106D01*
X74201158Y-32287613D01*
X74271432Y-32277509D01*
X74336012Y-32307003D01*
X74355436Y-32328166D01*
X74357657Y-32331222D01*
X74360960Y-32336944D01*
X74365381Y-32341854D01*
X74479413Y-32468499D01*
X74488747Y-32478866D01*
X74643248Y-32591118D01*
X74649276Y-32593802D01*
X74649278Y-32593803D01*
X74811681Y-32666109D01*
X74817712Y-32668794D01*
X74911113Y-32688647D01*
X74998056Y-32707128D01*
X74998061Y-32707128D01*
X75004513Y-32708500D01*
X75195487Y-32708500D01*
X75201939Y-32707128D01*
X75201944Y-32707128D01*
X75288887Y-32688647D01*
X75382288Y-32668794D01*
X75388319Y-32666109D01*
X75550722Y-32593803D01*
X75550724Y-32593802D01*
X75556752Y-32591118D01*
X75607022Y-32554595D01*
X75697368Y-32488954D01*
X75711253Y-32478866D01*
X75715668Y-32473963D01*
X75716092Y-32473581D01*
X75780100Y-32442864D01*
X75850553Y-32451629D01*
X75899147Y-32488954D01*
X75907206Y-32499123D01*
X75907211Y-32499128D01*
X75911035Y-32503953D01*
X75915728Y-32507947D01*
X75915729Y-32507948D01*
X76008894Y-32587237D01*
X76061650Y-32632136D01*
X76234294Y-32728624D01*
X76422392Y-32789740D01*
X76618777Y-32813158D01*
X76624912Y-32812686D01*
X76624914Y-32812686D01*
X76809830Y-32798457D01*
X76809834Y-32798456D01*
X76815972Y-32797984D01*
X77006463Y-32744798D01*
X77011967Y-32742018D01*
X77011969Y-32742017D01*
X77177495Y-32658404D01*
X77177497Y-32658403D01*
X77182996Y-32655625D01*
X77338847Y-32533861D01*
X77468078Y-32384145D01*
X77565769Y-32212179D01*
X77628197Y-32024513D01*
X77652985Y-31828295D01*
X77653380Y-31800000D01*
X77634080Y-31603167D01*
X77576916Y-31413831D01*
X77484066Y-31239204D01*
X77391776Y-31126045D01*
X77362960Y-31090713D01*
X77362957Y-31090710D01*
X77359065Y-31085938D01*
X77352720Y-31080689D01*
X77211425Y-30963799D01*
X77211421Y-30963797D01*
X77206675Y-30959870D01*
X77032701Y-30865802D01*
X76969910Y-30846365D01*
X76910750Y-30807114D01*
X76882203Y-30742109D01*
X76893332Y-30671990D01*
X76940603Y-30619019D01*
X77007169Y-30600000D01*
X78365500Y-30600000D01*
X78433621Y-30620002D01*
G37*
G04 #@! TD.AperFunction*
G04 #@! TA.AperFunction,Conductor*
G36*
X70234522Y-57565548D02*
G01*
X70291358Y-57608095D01*
X70316169Y-57674615D01*
X70316490Y-57683604D01*
X70316490Y-58750312D01*
X70296488Y-58818433D01*
X70242832Y-58864926D01*
X70172558Y-58875030D01*
X70114925Y-58851138D01*
X70053649Y-58805214D01*
X70038054Y-58796676D01*
X69917606Y-58751522D01*
X69902351Y-58747895D01*
X69851486Y-58742369D01*
X69844672Y-58742000D01*
X69672115Y-58742000D01*
X69656876Y-58746475D01*
X69655671Y-58747865D01*
X69654000Y-58755548D01*
X69654000Y-59828000D01*
X69633998Y-59896121D01*
X69580342Y-59942614D01*
X69528000Y-59954000D01*
X69272000Y-59954000D01*
X69203879Y-59933998D01*
X69157386Y-59880342D01*
X69146000Y-59828000D01*
X69146000Y-58760116D01*
X69138528Y-58734669D01*
X69111181Y-58692115D01*
X69111181Y-58621118D01*
X69149566Y-58561393D01*
X69156512Y-58555792D01*
X69206081Y-58518642D01*
X69213261Y-58513261D01*
X69231019Y-58489567D01*
X69295233Y-58403887D01*
X69295235Y-58403884D01*
X69300615Y-58396705D01*
X69322721Y-58337738D01*
X69365361Y-58280974D01*
X69394315Y-58264818D01*
X69407617Y-58259552D01*
X69443387Y-58233564D01*
X69453307Y-58227048D01*
X69484535Y-58208580D01*
X69484538Y-58208578D01*
X69491362Y-58204542D01*
X69505683Y-58190221D01*
X69520717Y-58177380D01*
X69530694Y-58170131D01*
X69537107Y-58165472D01*
X69565298Y-58131395D01*
X69573288Y-58122616D01*
X70101395Y-57594509D01*
X70163707Y-57560483D01*
X70234522Y-57565548D01*
G37*
G04 #@! TD.AperFunction*
G04 #@! TA.AperFunction,Conductor*
G36*
X67403458Y-54899362D02*
G01*
X67760502Y-55256406D01*
X67794528Y-55318718D01*
X67789463Y-55389533D01*
X67746916Y-55446369D01*
X67680396Y-55471180D01*
X67671414Y-55471501D01*
X67571254Y-55471501D01*
X67534063Y-55474427D01*
X67465398Y-55494376D01*
X67382513Y-55518456D01*
X67382511Y-55518457D01*
X67374900Y-55520668D01*
X67364140Y-55527032D01*
X67295326Y-55544492D01*
X67235861Y-55527032D01*
X67225100Y-55520668D01*
X67217489Y-55518457D01*
X67217487Y-55518456D01*
X67134602Y-55494376D01*
X67065937Y-55474427D01*
X67059532Y-55473923D01*
X67059527Y-55473922D01*
X67031203Y-55471693D01*
X67031195Y-55471693D01*
X67028747Y-55471500D01*
X66815130Y-55471500D01*
X66601254Y-55471501D01*
X66564063Y-55474427D01*
X66495398Y-55494376D01*
X66412513Y-55518456D01*
X66412511Y-55518457D01*
X66404900Y-55520668D01*
X66398079Y-55524702D01*
X66398077Y-55524703D01*
X66310963Y-55576222D01*
X66262237Y-55605038D01*
X66237680Y-55629595D01*
X66175368Y-55663621D01*
X66148585Y-55666500D01*
X65433525Y-55666500D01*
X65365404Y-55646498D01*
X65318911Y-55592842D01*
X65307689Y-55534072D01*
X65308000Y-55527984D01*
X65308000Y-55509615D01*
X65303525Y-55494376D01*
X65302135Y-55493171D01*
X65294452Y-55491500D01*
X63972000Y-55491500D01*
X63903879Y-55471498D01*
X63857386Y-55417842D01*
X63846000Y-55365500D01*
X63846000Y-55109500D01*
X63866002Y-55041379D01*
X63919658Y-54994886D01*
X63972000Y-54983500D01*
X65242450Y-54983500D01*
X65300158Y-54998264D01*
X65303295Y-55000615D01*
X65439684Y-55051745D01*
X65501866Y-55058500D01*
X66898134Y-55058500D01*
X66960316Y-55051745D01*
X67096705Y-55000615D01*
X67213261Y-54913261D01*
X67218642Y-54906081D01*
X67224992Y-54899731D01*
X67227634Y-54902373D01*
X67270283Y-54870419D01*
X67341097Y-54865326D01*
X67403458Y-54899362D01*
G37*
G04 #@! TD.AperFunction*
G04 #@! TA.AperFunction,Conductor*
G36*
X69076121Y-44647501D02*
G01*
X69122614Y-44701157D01*
X69134000Y-44753499D01*
X69134000Y-45808884D01*
X69138475Y-45824123D01*
X69139865Y-45825328D01*
X69147548Y-45826999D01*
X69249675Y-45826999D01*
X69258688Y-45826511D01*
X69327791Y-45842801D01*
X69377116Y-45893865D01*
X69391500Y-45952327D01*
X69391500Y-46982930D01*
X69390067Y-47001880D01*
X69386801Y-47023349D01*
X69387394Y-47030641D01*
X69387394Y-47030644D01*
X69391085Y-47076018D01*
X69391500Y-47086233D01*
X69391500Y-47094293D01*
X69391925Y-47097937D01*
X69394789Y-47122507D01*
X69395222Y-47126882D01*
X69401140Y-47199637D01*
X69403396Y-47206601D01*
X69404587Y-47212560D01*
X69405971Y-47218415D01*
X69406818Y-47225681D01*
X69431735Y-47294327D01*
X69433152Y-47298455D01*
X69455649Y-47367899D01*
X69459445Y-47374154D01*
X69461951Y-47379628D01*
X69464670Y-47385058D01*
X69467167Y-47391937D01*
X69471180Y-47398057D01*
X69471180Y-47398058D01*
X69507186Y-47452976D01*
X69509523Y-47456680D01*
X69547405Y-47519107D01*
X69551121Y-47523315D01*
X69551122Y-47523316D01*
X69554803Y-47527484D01*
X69554776Y-47527508D01*
X69557429Y-47530500D01*
X69560132Y-47533733D01*
X69564144Y-47539852D01*
X69569456Y-47544884D01*
X69620383Y-47593128D01*
X69622825Y-47595506D01*
X69849982Y-47822663D01*
X69881884Y-47876605D01*
X69920668Y-48010100D01*
X69927032Y-48020860D01*
X69944492Y-48089674D01*
X69927032Y-48149139D01*
X69920668Y-48159900D01*
X69874427Y-48319063D01*
X69873923Y-48325468D01*
X69873922Y-48325473D01*
X69871693Y-48353797D01*
X69871500Y-48356253D01*
X69871501Y-48783746D01*
X69874427Y-48820937D01*
X69920668Y-48980100D01*
X69924703Y-48986923D01*
X69938538Y-49010316D01*
X70005038Y-49122763D01*
X70122237Y-49239962D01*
X70129062Y-49243998D01*
X70129063Y-49243999D01*
X70137508Y-49248993D01*
X70181823Y-49293307D01*
X70195458Y-49316362D01*
X70209779Y-49330683D01*
X70222619Y-49345716D01*
X70234528Y-49362107D01*
X70240632Y-49367157D01*
X70240637Y-49367162D01*
X70268598Y-49390293D01*
X70277379Y-49398283D01*
X71059110Y-50180015D01*
X71093135Y-50242327D01*
X71094935Y-50252659D01*
X71106840Y-50343087D01*
X71110000Y-50350716D01*
X71159617Y-50470501D01*
X71166895Y-50488072D01*
X71171924Y-50494625D01*
X71171924Y-50494626D01*
X71194238Y-50523707D01*
X71219839Y-50589927D01*
X71205574Y-50659476D01*
X71194239Y-50677115D01*
X71172357Y-50705633D01*
X71164171Y-50719811D01*
X71110488Y-50849412D01*
X71106249Y-50865232D01*
X71100745Y-50907040D01*
X71102956Y-50921222D01*
X71116113Y-50925000D01*
X71815500Y-50925000D01*
X71883621Y-50945002D01*
X71930114Y-50998658D01*
X71941500Y-51051000D01*
X71941500Y-51239240D01*
X71922120Y-51305241D01*
X71946896Y-51343792D01*
X71947692Y-51347020D01*
X71948009Y-51350473D01*
X71997481Y-51508336D01*
X72001416Y-51514833D01*
X72001417Y-51514836D01*
X72031776Y-51564964D01*
X72050000Y-51630235D01*
X72050000Y-51764884D01*
X72054475Y-51780123D01*
X72055865Y-51781328D01*
X72063548Y-51782999D01*
X72097411Y-51782999D01*
X72105625Y-51782460D01*
X72160624Y-51775221D01*
X72230773Y-51786162D01*
X72242338Y-51792366D01*
X72258720Y-51802287D01*
X72341664Y-51852519D01*
X72348914Y-51854791D01*
X72493144Y-51899991D01*
X72493147Y-51899992D01*
X72499527Y-51901991D01*
X72570366Y-51908500D01*
X72840500Y-51908500D01*
X72908621Y-51928502D01*
X72955114Y-51982158D01*
X72966500Y-52034500D01*
X72966500Y-52905836D01*
X72946498Y-52973957D01*
X72892314Y-53019967D01*
X72889900Y-53020668D01*
X72883083Y-53024700D01*
X72883075Y-53024703D01*
X72878645Y-53027323D01*
X72809829Y-53044781D01*
X72750372Y-53027323D01*
X72746724Y-53025166D01*
X72732287Y-53018918D01*
X72601395Y-52980891D01*
X72587295Y-52980931D01*
X72584000Y-52988201D01*
X72584000Y-53265614D01*
X72566453Y-53329753D01*
X72549706Y-53358071D01*
X72549704Y-53358075D01*
X72545668Y-53364900D01*
X72499427Y-53524063D01*
X72498923Y-53530468D01*
X72498922Y-53530473D01*
X72496693Y-53558797D01*
X72496500Y-53561253D01*
X72496501Y-54038746D01*
X72499427Y-54075937D01*
X72535847Y-54201295D01*
X72536497Y-54203533D01*
X72541500Y-54238686D01*
X72541500Y-54783629D01*
X72521498Y-54851750D01*
X72504595Y-54872724D01*
X72248595Y-55128724D01*
X72186283Y-55162750D01*
X72115468Y-55157685D01*
X72058632Y-55115138D01*
X72033821Y-55048618D01*
X72033500Y-55039629D01*
X72033500Y-54871793D01*
X72035732Y-54848184D01*
X72035790Y-54847881D01*
X72035790Y-54847877D01*
X72037275Y-54840094D01*
X72033749Y-54784049D01*
X72033500Y-54776138D01*
X72033500Y-54760144D01*
X72031494Y-54744270D01*
X72030753Y-54736427D01*
X72030000Y-54724466D01*
X72045688Y-54655227D01*
X72066288Y-54633228D01*
X72076000Y-54611799D01*
X72076000Y-54072115D01*
X72071525Y-54056876D01*
X72070135Y-54055671D01*
X72062452Y-54054000D01*
X71546319Y-54054000D01*
X71531524Y-54058344D01*
X71531146Y-54060483D01*
X71499593Y-54124083D01*
X71438665Y-54160528D01*
X71414982Y-54164305D01*
X71384048Y-54166251D01*
X71376138Y-54166500D01*
X70984500Y-54166500D01*
X70916379Y-54146498D01*
X70869886Y-54092842D01*
X70858500Y-54040500D01*
X70858500Y-53528635D01*
X71529771Y-53528635D01*
X71532795Y-53543031D01*
X71544258Y-53546000D01*
X72057885Y-53546000D01*
X72073124Y-53541525D01*
X72074329Y-53540135D01*
X72076000Y-53532452D01*
X72076000Y-52993952D01*
X72072027Y-52980421D01*
X72064129Y-52979286D01*
X71927713Y-53018918D01*
X71913276Y-53025166D01*
X71784373Y-53101399D01*
X71771935Y-53111048D01*
X71666048Y-53216935D01*
X71656399Y-53229373D01*
X71580166Y-53358276D01*
X71573918Y-53372713D01*
X71531721Y-53517957D01*
X71529771Y-53528635D01*
X70858500Y-53528635D01*
X70858500Y-52801866D01*
X70851745Y-52739684D01*
X70800615Y-52603295D01*
X70713261Y-52486739D01*
X70596705Y-52399385D01*
X70460316Y-52348255D01*
X70446963Y-52346804D01*
X70445892Y-52346688D01*
X70380330Y-52319446D01*
X70339904Y-52261083D01*
X70333500Y-52221425D01*
X70333500Y-51878763D01*
X70334027Y-51867579D01*
X70335701Y-51860091D01*
X70333562Y-51792032D01*
X70333500Y-51788075D01*
X70333500Y-51760144D01*
X70332994Y-51756138D01*
X70332061Y-51744292D01*
X70331931Y-51740135D01*
X70330673Y-51700110D01*
X70325022Y-51680658D01*
X70321014Y-51661306D01*
X70319468Y-51649068D01*
X70319467Y-51649066D01*
X70318474Y-51641203D01*
X70302194Y-51600086D01*
X70298359Y-51588885D01*
X70286018Y-51546406D01*
X70281985Y-51539587D01*
X70281983Y-51539582D01*
X70275707Y-51528971D01*
X70267010Y-51511221D01*
X70259552Y-51492383D01*
X70249806Y-51478968D01*
X70233572Y-51456625D01*
X70227053Y-51446701D01*
X70208578Y-51415460D01*
X70208574Y-51415455D01*
X70204542Y-51408637D01*
X70190218Y-51394313D01*
X70177376Y-51379278D01*
X70171362Y-51371000D01*
X70165472Y-51362893D01*
X70161969Y-51359995D01*
X70130598Y-51297986D01*
X70130103Y-51292583D01*
X71100696Y-51292583D01*
X71106249Y-51334770D01*
X71110487Y-51350585D01*
X71164171Y-51480190D01*
X71172360Y-51494373D01*
X71257755Y-51605663D01*
X71269335Y-51617243D01*
X71380630Y-51702642D01*
X71394811Y-51710829D01*
X71524414Y-51764513D01*
X71540231Y-51768751D01*
X71644378Y-51782462D01*
X71652587Y-51783000D01*
X71681885Y-51783000D01*
X71697124Y-51778525D01*
X71698329Y-51777135D01*
X71700000Y-51769452D01*
X71700000Y-51379290D01*
X71719380Y-51313289D01*
X71697997Y-51280018D01*
X71694135Y-51276671D01*
X71686452Y-51275000D01*
X71116496Y-51275000D01*
X71102725Y-51279044D01*
X71100696Y-51292583D01*
X70130103Y-51292583D01*
X70128499Y-51275085D01*
X70128499Y-51186254D01*
X70125573Y-51149063D01*
X70082938Y-51002312D01*
X70081544Y-50997513D01*
X70081543Y-50997511D01*
X70079332Y-50989900D01*
X70075296Y-50983075D01*
X70075294Y-50983071D01*
X70072677Y-50978645D01*
X70055219Y-50909829D01*
X70072677Y-50850372D01*
X70074834Y-50846724D01*
X70081082Y-50832287D01*
X70119109Y-50701395D01*
X70119069Y-50687295D01*
X70111799Y-50684000D01*
X69834386Y-50684000D01*
X69770247Y-50666453D01*
X69741929Y-50649706D01*
X69741925Y-50649704D01*
X69735100Y-50645668D01*
X69727489Y-50643457D01*
X69727487Y-50643456D01*
X69642867Y-50618872D01*
X69575937Y-50599427D01*
X69569532Y-50598923D01*
X69569527Y-50598922D01*
X69541203Y-50596693D01*
X69541195Y-50596693D01*
X69538747Y-50596500D01*
X69300145Y-50596500D01*
X69061254Y-50596501D01*
X69024063Y-50599427D01*
X68957133Y-50618872D01*
X68872513Y-50643456D01*
X68872511Y-50643457D01*
X68864900Y-50645668D01*
X68858075Y-50649704D01*
X68858071Y-50649706D01*
X68829753Y-50666453D01*
X68765614Y-50684000D01*
X68534386Y-50684000D01*
X68470247Y-50666453D01*
X68441929Y-50649706D01*
X68441925Y-50649704D01*
X68435100Y-50645668D01*
X68427489Y-50643457D01*
X68427487Y-50643456D01*
X68342867Y-50618872D01*
X68275937Y-50599427D01*
X68269532Y-50598923D01*
X68269527Y-50598922D01*
X68241203Y-50596693D01*
X68241195Y-50596693D01*
X68238747Y-50596500D01*
X68228334Y-50596500D01*
X67871999Y-50596501D01*
X67803880Y-50576499D01*
X67757387Y-50522844D01*
X67746000Y-50470501D01*
X67746000Y-50302000D01*
X67766002Y-50233879D01*
X67819658Y-50187386D01*
X67872000Y-50176000D01*
X69027885Y-50176000D01*
X69043124Y-50171525D01*
X69044329Y-50170135D01*
X69046000Y-50162452D01*
X69046000Y-50157885D01*
X69554000Y-50157885D01*
X69558475Y-50173124D01*
X69559865Y-50174329D01*
X69567548Y-50176000D01*
X70106048Y-50176000D01*
X70119579Y-50172027D01*
X70120714Y-50164129D01*
X70081082Y-50027713D01*
X70074834Y-50013276D01*
X69998601Y-49884373D01*
X69988952Y-49871935D01*
X69883065Y-49766048D01*
X69870627Y-49756399D01*
X69741724Y-49680166D01*
X69727287Y-49673918D01*
X69582043Y-49631721D01*
X69571365Y-49629771D01*
X69556969Y-49632795D01*
X69554000Y-49644258D01*
X69554000Y-50157885D01*
X69046000Y-50157885D01*
X69046000Y-49646319D01*
X69041656Y-49631524D01*
X69030160Y-49629492D01*
X69017957Y-49631721D01*
X68872713Y-49673918D01*
X68858276Y-49680166D01*
X68729372Y-49756400D01*
X68727231Y-49758061D01*
X68725245Y-49758841D01*
X68722546Y-49760437D01*
X68722289Y-49760002D01*
X68661147Y-49784011D01*
X68591524Y-49770114D01*
X68572769Y-49758061D01*
X68570628Y-49756400D01*
X68441724Y-49680166D01*
X68427287Y-49673918D01*
X68282043Y-49631721D01*
X68269439Y-49629419D01*
X68241162Y-49627193D01*
X68236232Y-49627000D01*
X68204500Y-49627000D01*
X68136379Y-49606998D01*
X68089886Y-49553342D01*
X68079782Y-49483068D01*
X68109276Y-49418488D01*
X68160271Y-49383018D01*
X68238295Y-49353768D01*
X68238296Y-49353767D01*
X68246705Y-49350615D01*
X68363261Y-49263261D01*
X68450615Y-49146705D01*
X68501745Y-49010316D01*
X68508500Y-48948134D01*
X68508500Y-47051866D01*
X68501745Y-46989684D01*
X68450615Y-46853295D01*
X68363261Y-46736739D01*
X68246705Y-46649385D01*
X68110316Y-46598255D01*
X68048134Y-46591500D01*
X67439595Y-46591500D01*
X67371474Y-46571498D01*
X67350500Y-46554595D01*
X67178651Y-46382746D01*
X67171111Y-46374460D01*
X67166999Y-46367981D01*
X67117347Y-46321355D01*
X67114506Y-46318601D01*
X67094769Y-46298864D01*
X67091572Y-46296384D01*
X67082550Y-46288679D01*
X67071746Y-46278533D01*
X67050320Y-46258413D01*
X67043374Y-46254594D01*
X67043371Y-46254592D01*
X67032565Y-46248651D01*
X67016046Y-46237800D01*
X67015582Y-46237440D01*
X67000040Y-46225385D01*
X66992771Y-46222240D01*
X66992767Y-46222237D01*
X66959462Y-46207825D01*
X66948812Y-46202608D01*
X66910059Y-46181304D01*
X66890436Y-46176266D01*
X66871733Y-46169862D01*
X66860419Y-46164966D01*
X66860418Y-46164966D01*
X66853144Y-46161818D01*
X66845321Y-46160579D01*
X66845311Y-46160576D01*
X66809475Y-46154900D01*
X66797855Y-46152494D01*
X66762710Y-46143471D01*
X66762709Y-46143471D01*
X66755029Y-46141499D01*
X66734775Y-46141499D01*
X66715064Y-46139948D01*
X66702885Y-46138019D01*
X66695056Y-46136779D01*
X66687164Y-46137525D01*
X66651038Y-46140940D01*
X66639180Y-46141499D01*
X65895593Y-46141499D01*
X65827472Y-46121497D01*
X65806498Y-46104594D01*
X65704759Y-46002855D01*
X65670733Y-45940543D01*
X65675798Y-45869728D01*
X65718345Y-45812892D01*
X65784865Y-45788081D01*
X65838083Y-45795778D01*
X65897282Y-45817971D01*
X65897288Y-45817973D01*
X65904684Y-45820745D01*
X65966866Y-45827500D01*
X66713134Y-45827500D01*
X66775316Y-45820745D01*
X66822586Y-45803024D01*
X66903301Y-45772766D01*
X66903304Y-45772764D01*
X66911705Y-45769615D01*
X66916164Y-45766273D01*
X66983848Y-45751470D01*
X67033561Y-45766067D01*
X67038295Y-45769615D01*
X67046696Y-45772764D01*
X67046699Y-45772766D01*
X67127414Y-45803024D01*
X67174684Y-45820745D01*
X67236866Y-45827500D01*
X67983134Y-45827500D01*
X68045316Y-45820745D01*
X68092586Y-45803024D01*
X68173301Y-45772766D01*
X68173304Y-45772764D01*
X68181705Y-45769615D01*
X68186490Y-45766029D01*
X68254374Y-45751182D01*
X68306035Y-45766351D01*
X68316942Y-45772323D01*
X68437394Y-45817478D01*
X68452649Y-45821105D01*
X68503514Y-45826631D01*
X68510328Y-45827000D01*
X68607885Y-45827000D01*
X68623124Y-45822525D01*
X68624329Y-45821135D01*
X68626000Y-45813452D01*
X68626000Y-44753499D01*
X68646002Y-44685378D01*
X68699658Y-44638885D01*
X68752000Y-44627499D01*
X69008000Y-44627499D01*
X69076121Y-44647501D01*
G37*
G04 #@! TD.AperFunction*
G04 #@! TA.AperFunction,Conductor*
G36*
X62961055Y-46468016D02*
G01*
X62997481Y-46493385D01*
X63954595Y-47450499D01*
X63988621Y-47512811D01*
X63991500Y-47539594D01*
X63991500Y-48948134D01*
X63998255Y-49010316D01*
X64049385Y-49146705D01*
X64054771Y-49153891D01*
X64136739Y-49263261D01*
X64135135Y-49264463D01*
X64163621Y-49316630D01*
X64166500Y-49343413D01*
X64166500Y-49763585D01*
X64146498Y-49831706D01*
X64129595Y-49852680D01*
X64105038Y-49877237D01*
X64101004Y-49884057D01*
X64101004Y-49884058D01*
X64045751Y-49977487D01*
X64020668Y-50019900D01*
X64018457Y-50027511D01*
X64018456Y-50027513D01*
X64009940Y-50056827D01*
X63974427Y-50179063D01*
X63973923Y-50185468D01*
X63973922Y-50185473D01*
X63971986Y-50210072D01*
X63971500Y-50216253D01*
X63971501Y-50643746D01*
X63974427Y-50680937D01*
X64020668Y-50840100D01*
X64024704Y-50846925D01*
X64024706Y-50846929D01*
X64027323Y-50851355D01*
X64044781Y-50920171D01*
X64027323Y-50979628D01*
X64025166Y-50983276D01*
X64018918Y-50997713D01*
X63980891Y-51128605D01*
X63980931Y-51142705D01*
X63988201Y-51146000D01*
X64265614Y-51146000D01*
X64329753Y-51163547D01*
X64358071Y-51180294D01*
X64358075Y-51180296D01*
X64364900Y-51184332D01*
X64372511Y-51186543D01*
X64372513Y-51186544D01*
X64380024Y-51188726D01*
X64524063Y-51230573D01*
X64530468Y-51231077D01*
X64530473Y-51231078D01*
X64558797Y-51233307D01*
X64558805Y-51233307D01*
X64561253Y-51233500D01*
X64799855Y-51233500D01*
X65038746Y-51233499D01*
X65075937Y-51230573D01*
X65219976Y-51188726D01*
X65227487Y-51186544D01*
X65227489Y-51186543D01*
X65235100Y-51184332D01*
X65241925Y-51180296D01*
X65241929Y-51180294D01*
X65270247Y-51163547D01*
X65334386Y-51146000D01*
X65665614Y-51146000D01*
X65729753Y-51163547D01*
X65758071Y-51180294D01*
X65758075Y-51180296D01*
X65764900Y-51184332D01*
X65772511Y-51186543D01*
X65772513Y-51186544D01*
X65780024Y-51188726D01*
X65924063Y-51230573D01*
X65930468Y-51231077D01*
X65930473Y-51231078D01*
X65958797Y-51233307D01*
X65958805Y-51233307D01*
X65961253Y-51233500D01*
X65971666Y-51233500D01*
X66328001Y-51233499D01*
X66396120Y-51253501D01*
X66442613Y-51307156D01*
X66454000Y-51359499D01*
X66454000Y-51528000D01*
X66433998Y-51596121D01*
X66380342Y-51642614D01*
X66328000Y-51654000D01*
X63993952Y-51654000D01*
X63980421Y-51657973D01*
X63979286Y-51665871D01*
X64018918Y-51802287D01*
X64025166Y-51816724D01*
X64101399Y-51945627D01*
X64111048Y-51958065D01*
X64216935Y-52063952D01*
X64229373Y-52073601D01*
X64328200Y-52132047D01*
X64376652Y-52183940D01*
X64389357Y-52253790D01*
X64362281Y-52319421D01*
X64304021Y-52359995D01*
X64264060Y-52366500D01*
X63603345Y-52366501D01*
X63593770Y-52366501D01*
X63488871Y-52377384D01*
X63482340Y-52379563D01*
X63482335Y-52379564D01*
X63362375Y-52419586D01*
X63322474Y-52432898D01*
X63173311Y-52525203D01*
X63168138Y-52530385D01*
X63162401Y-52534932D01*
X63160906Y-52533045D01*
X63108708Y-52561605D01*
X63037888Y-52556602D01*
X62981016Y-52514104D01*
X62956148Y-52447605D01*
X62962225Y-52398842D01*
X62970580Y-52373651D01*
X62973445Y-52360290D01*
X62982614Y-52270800D01*
X62978525Y-52256876D01*
X62977135Y-52255671D01*
X62969452Y-52254000D01*
X62272115Y-52254000D01*
X62256876Y-52258475D01*
X62255671Y-52259865D01*
X62254000Y-52267548D01*
X62254000Y-52927383D01*
X62260791Y-52950511D01*
X62260791Y-53021508D01*
X62228990Y-53075105D01*
X62092747Y-53211348D01*
X62084461Y-53218888D01*
X62077982Y-53223000D01*
X62072557Y-53228777D01*
X62031357Y-53272651D01*
X62028602Y-53275493D01*
X62008865Y-53295230D01*
X62006385Y-53298427D01*
X61998682Y-53307447D01*
X61968414Y-53339679D01*
X61964595Y-53346625D01*
X61964593Y-53346628D01*
X61958652Y-53357434D01*
X61947801Y-53373953D01*
X61935386Y-53389959D01*
X61932241Y-53397228D01*
X61932238Y-53397232D01*
X61917826Y-53430537D01*
X61912609Y-53441187D01*
X61891305Y-53479940D01*
X61889332Y-53487625D01*
X61886535Y-53494689D01*
X61842862Y-53550664D01*
X61775860Y-53574141D01*
X61759496Y-53573920D01*
X61731204Y-53571693D01*
X61731194Y-53571693D01*
X61728747Y-53571500D01*
X61634595Y-53571500D01*
X61566474Y-53551498D01*
X61545499Y-53534595D01*
X60845403Y-52834498D01*
X60811378Y-52772186D01*
X60808499Y-52745403D01*
X60808499Y-52487707D01*
X60828501Y-52419586D01*
X60882157Y-52373093D01*
X60952431Y-52362989D01*
X61017011Y-52392483D01*
X61054023Y-52447831D01*
X61078830Y-52522187D01*
X61085004Y-52535366D01*
X61166470Y-52667014D01*
X61175506Y-52678415D01*
X61285080Y-52787798D01*
X61296491Y-52796810D01*
X61428291Y-52878053D01*
X61441468Y-52884197D01*
X61588843Y-52933079D01*
X61602210Y-52935945D01*
X61692270Y-52945172D01*
X61698685Y-52945500D01*
X61727885Y-52945500D01*
X61743124Y-52941025D01*
X61744329Y-52939635D01*
X61746000Y-52931952D01*
X61746000Y-51872000D01*
X61766002Y-51803879D01*
X61819658Y-51757386D01*
X61872000Y-51746000D01*
X62964885Y-51746000D01*
X62980124Y-51741525D01*
X62981329Y-51740135D01*
X62982842Y-51733179D01*
X62982663Y-51729718D01*
X62973196Y-51638479D01*
X62970303Y-51625083D01*
X62921170Y-51477813D01*
X62914996Y-51464634D01*
X62833530Y-51332986D01*
X62824494Y-51321585D01*
X62804842Y-51301967D01*
X62770763Y-51239684D01*
X62775766Y-51168864D01*
X62804686Y-51123777D01*
X62825692Y-51102734D01*
X62830864Y-51097553D01*
X62919849Y-50953192D01*
X62945980Y-50874410D01*
X62971072Y-50798762D01*
X62971072Y-50798760D01*
X62973238Y-50792231D01*
X62983500Y-50692072D01*
X62983500Y-50157928D01*
X62972978Y-50056518D01*
X62919308Y-49895651D01*
X62830071Y-49751445D01*
X62710053Y-49631636D01*
X62701723Y-49626501D01*
X62693384Y-49621361D01*
X62645890Y-49568588D01*
X62633500Y-49514101D01*
X62633500Y-48636415D01*
X62653502Y-48568294D01*
X62670405Y-48547320D01*
X62694962Y-48522763D01*
X62779332Y-48380100D01*
X62825573Y-48220937D01*
X62826077Y-48214532D01*
X62826078Y-48214527D01*
X62828307Y-48186203D01*
X62828307Y-48186195D01*
X62828500Y-48183747D01*
X62828499Y-47756254D01*
X62825573Y-47719063D01*
X62797078Y-47620983D01*
X62781544Y-47567513D01*
X62781543Y-47567511D01*
X62779332Y-47559900D01*
X62772968Y-47549140D01*
X62755508Y-47480326D01*
X62772968Y-47420861D01*
X62779332Y-47410100D01*
X62791593Y-47367899D01*
X62812376Y-47296362D01*
X62825573Y-47250937D01*
X62826077Y-47244532D01*
X62826078Y-47244527D01*
X62828307Y-47216203D01*
X62828307Y-47216195D01*
X62828500Y-47213747D01*
X62828499Y-46786254D01*
X62825573Y-46749063D01*
X62787389Y-46617632D01*
X62787592Y-46546637D01*
X62826146Y-46487020D01*
X62890811Y-46457712D01*
X62961055Y-46468016D01*
G37*
G04 #@! TD.AperFunction*
G04 #@! TA.AperFunction,Conductor*
G36*
X59821578Y-30620002D02*
G01*
X59868071Y-30673658D01*
X59878720Y-30739607D01*
X59872500Y-30796866D01*
X59872500Y-31543134D01*
X59879255Y-31605316D01*
X59930385Y-31741705D01*
X59933727Y-31746164D01*
X59948530Y-31813848D01*
X59933933Y-31863561D01*
X59930385Y-31868295D01*
X59879255Y-32004684D01*
X59872500Y-32066866D01*
X59872500Y-32379404D01*
X59852498Y-32447525D01*
X59835595Y-32468499D01*
X59749499Y-32554595D01*
X59687187Y-32588621D01*
X59660404Y-32591500D01*
X59604512Y-32591500D01*
X59598060Y-32592872D01*
X59598055Y-32592872D01*
X59511112Y-32611353D01*
X59417711Y-32631206D01*
X59411681Y-32633891D01*
X59411680Y-32633891D01*
X59249277Y-32706197D01*
X59249275Y-32706198D01*
X59243247Y-32708882D01*
X59237906Y-32712762D01*
X59237905Y-32712763D01*
X59213454Y-32730528D01*
X59088746Y-32821134D01*
X59084325Y-32826044D01*
X59084324Y-32826045D01*
X59033296Y-32882718D01*
X58960959Y-32963056D01*
X58932261Y-33012763D01*
X58893974Y-33079078D01*
X58865472Y-33128444D01*
X58806457Y-33310072D01*
X58805767Y-33316633D01*
X58805767Y-33316635D01*
X58794617Y-33422721D01*
X58786495Y-33500000D01*
X58787185Y-33506565D01*
X58799319Y-33622009D01*
X58806457Y-33689928D01*
X58865472Y-33871556D01*
X58960959Y-34036944D01*
X58965377Y-34041851D01*
X58965378Y-34041852D01*
X59076505Y-34165271D01*
X59088746Y-34178866D01*
X59160550Y-34231035D01*
X59234126Y-34284491D01*
X59243247Y-34291118D01*
X59249275Y-34293802D01*
X59249277Y-34293803D01*
X59375595Y-34350043D01*
X59417711Y-34368794D01*
X59494848Y-34385190D01*
X59598055Y-34407128D01*
X59598060Y-34407128D01*
X59604512Y-34408500D01*
X59753620Y-34408500D01*
X59821741Y-34428502D01*
X59868234Y-34482158D01*
X59878883Y-34548108D01*
X59872500Y-34606866D01*
X59872500Y-35353134D01*
X59879255Y-35415316D01*
X59930385Y-35551705D01*
X59933971Y-35556490D01*
X59948818Y-35624374D01*
X59933649Y-35676035D01*
X59927677Y-35686942D01*
X59882522Y-35807394D01*
X59878895Y-35822649D01*
X59873369Y-35873514D01*
X59873000Y-35880328D01*
X59873000Y-35977885D01*
X59877475Y-35993124D01*
X59878865Y-35994329D01*
X59886548Y-35996000D01*
X61009000Y-35996000D01*
X61077121Y-36016002D01*
X61123614Y-36069658D01*
X61135000Y-36122000D01*
X61135000Y-36378000D01*
X61114998Y-36446121D01*
X61061342Y-36492614D01*
X61009000Y-36504000D01*
X59891116Y-36504000D01*
X59875877Y-36508475D01*
X59874672Y-36509865D01*
X59873001Y-36517548D01*
X59873001Y-36619669D01*
X59873371Y-36626490D01*
X59878895Y-36677352D01*
X59882521Y-36692604D01*
X59927677Y-36813058D01*
X59933649Y-36823965D01*
X59948818Y-36893322D01*
X59934153Y-36943268D01*
X59930385Y-36948295D01*
X59927236Y-36956696D01*
X59927234Y-36956699D01*
X59900293Y-37028565D01*
X59879255Y-37084684D01*
X59872500Y-37146866D01*
X59872500Y-37893134D01*
X59879255Y-37955316D01*
X59882029Y-37962715D01*
X59924977Y-38077279D01*
X59930385Y-38091705D01*
X59933727Y-38096164D01*
X59948530Y-38163848D01*
X59933933Y-38213561D01*
X59930385Y-38218295D01*
X59927236Y-38226696D01*
X59927234Y-38226699D01*
X59896976Y-38307414D01*
X59879255Y-38354684D01*
X59872500Y-38416866D01*
X59872500Y-39163134D01*
X59879255Y-39225316D01*
X59930385Y-39361705D01*
X59933727Y-39366164D01*
X59948530Y-39433848D01*
X59933933Y-39483561D01*
X59930385Y-39488295D01*
X59927236Y-39496696D01*
X59927234Y-39496699D01*
X59922667Y-39508882D01*
X59879255Y-39624684D01*
X59872500Y-39686866D01*
X59872500Y-40433134D01*
X59879255Y-40495316D01*
X59930385Y-40631705D01*
X59933727Y-40636164D01*
X59948530Y-40703848D01*
X59933933Y-40753561D01*
X59930385Y-40758295D01*
X59879255Y-40894684D01*
X59872500Y-40956866D01*
X59872500Y-41703134D01*
X59879255Y-41765316D01*
X59882029Y-41772715D01*
X59918839Y-41870905D01*
X59930385Y-41901705D01*
X59933727Y-41906164D01*
X59948530Y-41973848D01*
X59933933Y-42023561D01*
X59930385Y-42028295D01*
X59879255Y-42164684D01*
X59872500Y-42226866D01*
X59872500Y-42973134D01*
X59879255Y-43035316D01*
X59930385Y-43171705D01*
X60017739Y-43288261D01*
X60134295Y-43375615D01*
X60270684Y-43426745D01*
X60332866Y-43433500D01*
X60793404Y-43433500D01*
X60861525Y-43453502D01*
X60908018Y-43507158D01*
X60918122Y-43577432D01*
X60888628Y-43642012D01*
X60882500Y-43648594D01*
X60329808Y-44201285D01*
X59782746Y-44748347D01*
X59774460Y-44755887D01*
X59767981Y-44759999D01*
X59762556Y-44765776D01*
X59721356Y-44809650D01*
X59718601Y-44812492D01*
X59698864Y-44832229D01*
X59696384Y-44835426D01*
X59688681Y-44844446D01*
X59658413Y-44876678D01*
X59654594Y-44883624D01*
X59654592Y-44883627D01*
X59648651Y-44894433D01*
X59637800Y-44910952D01*
X59625385Y-44926958D01*
X59622240Y-44934227D01*
X59622237Y-44934231D01*
X59607825Y-44967536D01*
X59602608Y-44978186D01*
X59581304Y-45016939D01*
X59579333Y-45024614D01*
X59579333Y-45024615D01*
X59576266Y-45036561D01*
X59569862Y-45055265D01*
X59561818Y-45073854D01*
X59560579Y-45081677D01*
X59560576Y-45081687D01*
X59554900Y-45117523D01*
X59552494Y-45129143D01*
X59541499Y-45171969D01*
X59541499Y-45192223D01*
X59539948Y-45211933D01*
X59536779Y-45231942D01*
X59537525Y-45239834D01*
X59540940Y-45275960D01*
X59541499Y-45287818D01*
X59541499Y-50181128D01*
X59521497Y-50249249D01*
X59467841Y-50295742D01*
X59397567Y-50305846D01*
X59332987Y-50276352D01*
X59294603Y-50216626D01*
X59293966Y-50214104D01*
X59293542Y-50210072D01*
X59234527Y-50028444D01*
X59139040Y-49863056D01*
X59129698Y-49852680D01*
X59015675Y-49726045D01*
X59015671Y-49726041D01*
X59011253Y-49721134D01*
X58883860Y-49628577D01*
X58862094Y-49612763D01*
X58862093Y-49612762D01*
X58856752Y-49608882D01*
X58850724Y-49606198D01*
X58850722Y-49606197D01*
X58688319Y-49533891D01*
X58688318Y-49533891D01*
X58682288Y-49531206D01*
X58588888Y-49511353D01*
X58501944Y-49492872D01*
X58501939Y-49492872D01*
X58495487Y-49491500D01*
X58304513Y-49491500D01*
X58298061Y-49492872D01*
X58298056Y-49492872D01*
X58211112Y-49511353D01*
X58117712Y-49531206D01*
X58111682Y-49533891D01*
X58111681Y-49533891D01*
X57949278Y-49606197D01*
X57949276Y-49606198D01*
X57943248Y-49608882D01*
X57937907Y-49612762D01*
X57937906Y-49612763D01*
X57916140Y-49628577D01*
X57788747Y-49721134D01*
X57728135Y-49788451D01*
X57667690Y-49825689D01*
X57596706Y-49824337D01*
X57537722Y-49784823D01*
X57509464Y-49719693D01*
X57508500Y-49704139D01*
X57508500Y-30726000D01*
X57528502Y-30657879D01*
X57582158Y-30611386D01*
X57634500Y-30600000D01*
X59753457Y-30600000D01*
X59821578Y-30620002D01*
G37*
G04 #@! TD.AperFunction*
G04 #@! TA.AperFunction,Conductor*
G36*
X72059578Y-30620002D02*
G01*
X72106071Y-30673658D01*
X72116720Y-30739607D01*
X72110500Y-30796866D01*
X72110500Y-31543134D01*
X72117255Y-31605316D01*
X72168385Y-31741705D01*
X72171727Y-31746164D01*
X72186530Y-31813848D01*
X72171933Y-31863561D01*
X72168385Y-31868295D01*
X72117255Y-32004684D01*
X72110500Y-32066866D01*
X72110500Y-32813134D01*
X72117255Y-32875316D01*
X72120027Y-32882712D01*
X72120029Y-32882718D01*
X72128859Y-32906271D01*
X72134042Y-32977078D01*
X72100121Y-33039447D01*
X72037865Y-33073576D01*
X72010877Y-33076500D01*
X70268763Y-33076500D01*
X70257579Y-33075973D01*
X70250091Y-33074299D01*
X70242168Y-33074548D01*
X70182033Y-33076438D01*
X70178075Y-33076500D01*
X70150144Y-33076500D01*
X70146229Y-33076995D01*
X70146225Y-33076995D01*
X70146167Y-33077003D01*
X70146138Y-33077006D01*
X70134296Y-33077939D01*
X70090110Y-33079327D01*
X70072744Y-33084372D01*
X70070658Y-33084978D01*
X70051306Y-33088986D01*
X70044235Y-33089880D01*
X70031203Y-33091526D01*
X70023834Y-33094443D01*
X70023832Y-33094444D01*
X69990097Y-33107800D01*
X69978869Y-33111645D01*
X69936407Y-33123982D01*
X69929585Y-33128016D01*
X69929579Y-33128019D01*
X69918968Y-33134294D01*
X69901218Y-33142990D01*
X69889756Y-33147528D01*
X69889751Y-33147531D01*
X69882383Y-33150448D01*
X69875968Y-33155109D01*
X69846625Y-33176427D01*
X69836707Y-33182943D01*
X69818019Y-33193995D01*
X69798637Y-33205458D01*
X69784313Y-33219782D01*
X69769281Y-33232621D01*
X69752893Y-33244528D01*
X69734067Y-33267285D01*
X69724712Y-33278593D01*
X69716722Y-33287373D01*
X69549500Y-33454595D01*
X69487188Y-33488621D01*
X69460405Y-33491500D01*
X69404513Y-33491500D01*
X69398061Y-33492872D01*
X69398056Y-33492872D01*
X69333638Y-33506565D01*
X69217712Y-33531206D01*
X69211682Y-33533891D01*
X69211681Y-33533891D01*
X69049278Y-33606197D01*
X69049276Y-33606198D01*
X69043248Y-33608882D01*
X69037907Y-33612762D01*
X69037906Y-33612763D01*
X69013200Y-33630713D01*
X68888747Y-33721134D01*
X68884326Y-33726044D01*
X68884325Y-33726045D01*
X68831562Y-33784645D01*
X68760960Y-33863056D01*
X68665473Y-34028444D01*
X68606458Y-34210072D01*
X68605768Y-34216633D01*
X68605768Y-34216635D01*
X68592434Y-34343500D01*
X68586496Y-34400000D01*
X68587186Y-34406565D01*
X68603144Y-34558393D01*
X68606458Y-34589928D01*
X68665473Y-34771556D01*
X68760960Y-34936944D01*
X68888747Y-35078866D01*
X69043248Y-35191118D01*
X69049276Y-35193802D01*
X69049278Y-35193803D01*
X69141200Y-35234729D01*
X69217712Y-35268794D01*
X69311112Y-35288647D01*
X69398056Y-35307128D01*
X69398061Y-35307128D01*
X69404513Y-35308500D01*
X69595487Y-35308500D01*
X69601939Y-35307128D01*
X69601944Y-35307128D01*
X69688888Y-35288647D01*
X69782288Y-35268794D01*
X69858800Y-35234729D01*
X69950722Y-35193803D01*
X69950724Y-35193802D01*
X69956752Y-35191118D01*
X70111253Y-35078866D01*
X70239040Y-34936944D01*
X70334527Y-34771556D01*
X70393542Y-34589928D01*
X70396546Y-34561351D01*
X70407584Y-34456329D01*
X70434597Y-34390672D01*
X70492819Y-34350043D01*
X70532894Y-34343500D01*
X70787157Y-34343500D01*
X70855278Y-34363502D01*
X70901771Y-34417158D01*
X70911875Y-34487432D01*
X70909585Y-34497273D01*
X70909871Y-34497334D01*
X70908497Y-34503795D01*
X70906458Y-34510072D01*
X70905768Y-34516633D01*
X70905768Y-34516635D01*
X70895322Y-34616029D01*
X70886496Y-34700000D01*
X70906458Y-34889928D01*
X70965473Y-35071556D01*
X70968776Y-35077278D01*
X70968777Y-35077279D01*
X71044322Y-35208127D01*
X71061060Y-35277123D01*
X71037839Y-35344214D01*
X70982032Y-35388101D01*
X70909003Y-35394373D01*
X70905414Y-35393610D01*
X70901943Y-35392872D01*
X70901940Y-35392872D01*
X70895487Y-35391500D01*
X70704513Y-35391500D01*
X70698061Y-35392872D01*
X70698056Y-35392872D01*
X70617139Y-35410072D01*
X70517712Y-35431206D01*
X70511682Y-35433891D01*
X70511681Y-35433891D01*
X70349278Y-35506197D01*
X70349276Y-35506198D01*
X70343248Y-35508882D01*
X70337907Y-35512762D01*
X70337906Y-35512763D01*
X70287843Y-35549136D01*
X70188747Y-35621134D01*
X70060960Y-35763056D01*
X69965473Y-35928444D01*
X69906458Y-36110072D01*
X69905768Y-36116633D01*
X69905768Y-36116635D01*
X69903118Y-36141852D01*
X69886496Y-36300000D01*
X69887186Y-36306565D01*
X69903955Y-36466109D01*
X69906458Y-36489928D01*
X69965473Y-36671556D01*
X69968776Y-36677278D01*
X69968777Y-36677279D01*
X69974101Y-36686500D01*
X70060960Y-36836944D01*
X70065378Y-36841851D01*
X70065379Y-36841852D01*
X70125205Y-36908295D01*
X70188747Y-36978866D01*
X70287843Y-37050864D01*
X70324209Y-37077285D01*
X70343248Y-37091118D01*
X70349276Y-37093802D01*
X70349278Y-37093803D01*
X70476135Y-37150283D01*
X70517712Y-37168794D01*
X70661111Y-37199275D01*
X70723583Y-37233002D01*
X70757905Y-37295152D01*
X70754746Y-37361457D01*
X70706458Y-37510072D01*
X70705768Y-37516633D01*
X70705768Y-37516635D01*
X70696040Y-37609197D01*
X70686496Y-37700000D01*
X70687186Y-37706565D01*
X70697830Y-37807833D01*
X70706458Y-37889928D01*
X70765473Y-38071556D01*
X70768776Y-38077278D01*
X70768777Y-38077279D01*
X70802686Y-38136010D01*
X70860960Y-38236944D01*
X70988747Y-38378866D01*
X71087667Y-38450736D01*
X71089501Y-38452068D01*
X71143248Y-38491118D01*
X71149276Y-38493802D01*
X71149278Y-38493803D01*
X71266749Y-38546104D01*
X71317712Y-38568794D01*
X71388305Y-38583799D01*
X71498056Y-38607128D01*
X71498061Y-38607128D01*
X71504513Y-38608500D01*
X71695487Y-38608500D01*
X71701939Y-38607128D01*
X71701944Y-38607128D01*
X71811695Y-38583799D01*
X71882288Y-38568794D01*
X71888315Y-38566111D01*
X71888323Y-38566108D01*
X71933252Y-38546104D01*
X72003619Y-38536670D01*
X72067916Y-38566777D01*
X72105729Y-38626866D01*
X72110500Y-38661211D01*
X72110500Y-39163134D01*
X72117255Y-39225316D01*
X72168385Y-39361705D01*
X72171727Y-39366164D01*
X72186530Y-39433848D01*
X72171933Y-39483561D01*
X72168385Y-39488295D01*
X72165236Y-39496696D01*
X72165234Y-39496699D01*
X72160667Y-39508882D01*
X72117255Y-39624684D01*
X72110500Y-39686866D01*
X72110500Y-40433134D01*
X72117255Y-40495316D01*
X72168385Y-40631705D01*
X72171727Y-40636164D01*
X72186530Y-40703848D01*
X72171933Y-40753561D01*
X72168385Y-40758295D01*
X72117255Y-40894684D01*
X72110500Y-40956866D01*
X72110500Y-41703134D01*
X72117255Y-41765316D01*
X72120029Y-41772715D01*
X72156839Y-41870905D01*
X72168385Y-41901705D01*
X72171727Y-41906164D01*
X72186530Y-41973848D01*
X72171933Y-42023561D01*
X72168385Y-42028295D01*
X72117255Y-42164684D01*
X72110500Y-42226866D01*
X72110500Y-42973134D01*
X72117255Y-43035316D01*
X72168385Y-43171705D01*
X72255739Y-43288261D01*
X72372295Y-43375615D01*
X72508684Y-43426745D01*
X72570866Y-43433500D01*
X72730657Y-43433500D01*
X72781905Y-43444393D01*
X72830677Y-43466108D01*
X72830685Y-43466111D01*
X72836712Y-43468794D01*
X72920694Y-43486645D01*
X73017056Y-43507128D01*
X73017061Y-43507128D01*
X73023513Y-43508500D01*
X73214487Y-43508500D01*
X73220939Y-43507128D01*
X73220944Y-43507128D01*
X73317306Y-43486645D01*
X73401288Y-43468794D01*
X73407315Y-43466111D01*
X73407323Y-43466108D01*
X73456095Y-43444393D01*
X73507343Y-43433500D01*
X73515500Y-43433500D01*
X73583621Y-43453502D01*
X73630114Y-43507158D01*
X73641500Y-43559500D01*
X73641500Y-44074928D01*
X73640067Y-44093878D01*
X73636801Y-44115347D01*
X73637394Y-44122639D01*
X73637394Y-44122642D01*
X73641085Y-44168016D01*
X73641500Y-44178231D01*
X73641500Y-44186291D01*
X73641925Y-44189935D01*
X73644789Y-44214505D01*
X73645222Y-44218880D01*
X73649729Y-44274283D01*
X73651140Y-44291635D01*
X73653396Y-44298598D01*
X73654584Y-44304544D01*
X73655971Y-44310411D01*
X73656818Y-44317679D01*
X73659314Y-44324555D01*
X73659485Y-44325279D01*
X73655689Y-44396174D01*
X73625959Y-44443358D01*
X72422125Y-45647192D01*
X72359813Y-45681218D01*
X72288998Y-45676153D01*
X72232162Y-45633606D01*
X72207351Y-45567086D01*
X72215048Y-45513867D01*
X72216755Y-45509314D01*
X72246745Y-45429316D01*
X72253500Y-45367134D01*
X72253500Y-44270866D01*
X72246745Y-44208684D01*
X72195615Y-44072295D01*
X72108261Y-43955739D01*
X71991705Y-43868385D01*
X71855316Y-43817255D01*
X71793134Y-43810500D01*
X71046866Y-43810500D01*
X70984684Y-43817255D01*
X70958129Y-43827210D01*
X70856699Y-43865234D01*
X70856696Y-43865236D01*
X70848295Y-43868385D01*
X70843836Y-43871727D01*
X70776152Y-43886530D01*
X70726439Y-43871933D01*
X70721705Y-43868385D01*
X70713304Y-43865236D01*
X70713301Y-43865234D01*
X70611871Y-43827210D01*
X70567006Y-43798323D01*
X70148771Y-43380088D01*
X70136385Y-43365676D01*
X70127852Y-43354081D01*
X70127847Y-43354076D01*
X70123509Y-43348181D01*
X70117931Y-43343442D01*
X70117928Y-43343439D01*
X70083233Y-43313964D01*
X70075717Y-43307034D01*
X70070022Y-43301339D01*
X70051697Y-43286841D01*
X70047750Y-43283718D01*
X70044346Y-43280927D01*
X69994298Y-43238408D01*
X69994296Y-43238407D01*
X69988716Y-43233666D01*
X69982200Y-43230338D01*
X69977151Y-43226971D01*
X69972022Y-43223804D01*
X69966285Y-43219265D01*
X69900126Y-43188344D01*
X69896226Y-43186438D01*
X69831193Y-43153230D01*
X69824085Y-43151491D01*
X69818442Y-43149392D01*
X69812679Y-43147475D01*
X69806051Y-43144377D01*
X69734584Y-43129512D01*
X69730300Y-43128542D01*
X69659391Y-43111191D01*
X69653789Y-43110843D01*
X69653786Y-43110843D01*
X69648237Y-43110499D01*
X69648239Y-43110463D01*
X69644246Y-43110224D01*
X69640054Y-43109850D01*
X69632886Y-43108359D01*
X69569121Y-43110084D01*
X69555480Y-43110453D01*
X69552073Y-43110499D01*
X68262069Y-43110499D01*
X68243119Y-43109066D01*
X68228884Y-43106900D01*
X68228880Y-43106900D01*
X68221650Y-43105800D01*
X68214358Y-43106393D01*
X68214355Y-43106393D01*
X68168981Y-43110084D01*
X68158766Y-43110499D01*
X68150706Y-43110499D01*
X68147072Y-43110923D01*
X68147066Y-43110923D01*
X68134041Y-43112442D01*
X68122479Y-43113790D01*
X68118131Y-43114220D01*
X68096058Y-43116015D01*
X68052661Y-43119545D01*
X68052658Y-43119546D01*
X68045363Y-43120139D01*
X68038399Y-43122395D01*
X68032460Y-43123582D01*
X68026589Y-43124969D01*
X68019318Y-43125817D01*
X68012442Y-43128313D01*
X68012433Y-43128315D01*
X67950701Y-43150724D01*
X67946597Y-43152134D01*
X67877100Y-43174647D01*
X67870845Y-43178443D01*
X67865386Y-43180942D01*
X67859938Y-43183670D01*
X67853062Y-43186166D01*
X67792009Y-43226194D01*
X67788326Y-43228518D01*
X67750918Y-43251218D01*
X67725892Y-43266404D01*
X67717516Y-43273801D01*
X67717492Y-43273774D01*
X67714498Y-43276429D01*
X67711267Y-43279131D01*
X67705147Y-43283143D01*
X67675950Y-43313964D01*
X67651871Y-43339382D01*
X67649493Y-43341824D01*
X67192994Y-43798323D01*
X67148129Y-43827210D01*
X67046699Y-43865234D01*
X67046696Y-43865236D01*
X67038295Y-43868385D01*
X67033836Y-43871727D01*
X66966152Y-43886530D01*
X66916439Y-43871933D01*
X66911705Y-43868385D01*
X66903304Y-43865236D01*
X66903301Y-43865234D01*
X66801871Y-43827210D01*
X66775316Y-43817255D01*
X66713134Y-43810500D01*
X65966866Y-43810500D01*
X65904684Y-43817255D01*
X65878129Y-43827210D01*
X65776699Y-43865234D01*
X65776696Y-43865236D01*
X65768295Y-43868385D01*
X65763836Y-43871727D01*
X65696152Y-43886530D01*
X65646439Y-43871933D01*
X65641705Y-43868385D01*
X65633304Y-43865236D01*
X65633301Y-43865234D01*
X65531871Y-43827210D01*
X65505316Y-43817255D01*
X65443134Y-43810500D01*
X65184595Y-43810500D01*
X65116474Y-43790498D01*
X65095500Y-43773595D01*
X64923651Y-43601746D01*
X64916111Y-43593460D01*
X64911999Y-43586981D01*
X64889446Y-43565802D01*
X64862348Y-43540356D01*
X64859506Y-43537601D01*
X64839769Y-43517864D01*
X64836572Y-43515384D01*
X64827550Y-43507679D01*
X64819766Y-43500369D01*
X64795320Y-43477413D01*
X64788374Y-43473594D01*
X64788371Y-43473592D01*
X64777565Y-43467651D01*
X64761046Y-43456800D01*
X64756794Y-43453502D01*
X64745040Y-43444385D01*
X64737771Y-43441240D01*
X64737767Y-43441237D01*
X64704462Y-43426825D01*
X64693812Y-43421608D01*
X64655059Y-43400304D01*
X64635436Y-43395266D01*
X64616733Y-43388862D01*
X64605419Y-43383966D01*
X64605418Y-43383966D01*
X64598144Y-43380818D01*
X64590321Y-43379579D01*
X64590311Y-43379576D01*
X64554475Y-43373900D01*
X64542855Y-43371494D01*
X64507710Y-43362471D01*
X64507709Y-43362471D01*
X64500029Y-43360499D01*
X64479775Y-43360499D01*
X64460064Y-43358948D01*
X64447885Y-43357019D01*
X64440056Y-43355779D01*
X64432164Y-43356525D01*
X64396038Y-43359940D01*
X64384180Y-43360499D01*
X61939433Y-43360499D01*
X61871312Y-43340497D01*
X61824819Y-43286841D01*
X61814715Y-43216567D01*
X61828121Y-43176367D01*
X61831615Y-43171705D01*
X61838945Y-43152154D01*
X61856966Y-43104081D01*
X61882745Y-43035316D01*
X61889500Y-42973134D01*
X61889500Y-42226866D01*
X61882745Y-42164684D01*
X61831615Y-42028295D01*
X61828273Y-42023836D01*
X61813470Y-41956152D01*
X61828067Y-41906439D01*
X61831615Y-41901705D01*
X61843162Y-41870905D01*
X61879971Y-41772715D01*
X61882745Y-41765316D01*
X61889500Y-41703134D01*
X61889500Y-40956866D01*
X61882745Y-40894684D01*
X61831615Y-40758295D01*
X61828273Y-40753836D01*
X61813470Y-40686152D01*
X61828067Y-40636439D01*
X61831615Y-40631705D01*
X61882745Y-40495316D01*
X61889500Y-40433134D01*
X61889500Y-39686866D01*
X61882745Y-39624684D01*
X61839333Y-39508882D01*
X61834766Y-39496699D01*
X61834764Y-39496696D01*
X61831615Y-39488295D01*
X61828273Y-39483836D01*
X61813470Y-39416152D01*
X61828067Y-39366439D01*
X61831615Y-39361705D01*
X61882745Y-39225316D01*
X61889500Y-39163134D01*
X61889500Y-38416866D01*
X61882745Y-38354684D01*
X61865024Y-38307414D01*
X61834766Y-38226699D01*
X61834764Y-38226696D01*
X61831615Y-38218295D01*
X61828273Y-38213836D01*
X61813470Y-38146152D01*
X61828067Y-38096439D01*
X61831615Y-38091705D01*
X61837024Y-38077279D01*
X61879971Y-37962715D01*
X61882745Y-37955316D01*
X61889500Y-37893134D01*
X61889500Y-37146866D01*
X61882745Y-37084684D01*
X61861707Y-37028565D01*
X61834766Y-36956699D01*
X61834764Y-36956696D01*
X61831615Y-36948295D01*
X61828029Y-36943510D01*
X61813182Y-36875626D01*
X61828351Y-36823965D01*
X61834323Y-36813058D01*
X61879478Y-36692606D01*
X61883105Y-36677351D01*
X61889000Y-36623089D01*
X61890146Y-36623214D01*
X61912224Y-36560746D01*
X61968315Y-36517223D01*
X62014382Y-36508500D01*
X62195487Y-36508500D01*
X62201939Y-36507128D01*
X62201944Y-36507128D01*
X62313737Y-36483365D01*
X62382288Y-36468794D01*
X62433213Y-36446121D01*
X62550722Y-36393803D01*
X62550724Y-36393802D01*
X62556752Y-36391118D01*
X62574808Y-36378000D01*
X62648244Y-36324645D01*
X62711253Y-36278866D01*
X62812934Y-36165938D01*
X62834621Y-36141852D01*
X62834622Y-36141851D01*
X62839040Y-36136944D01*
X62934527Y-35971556D01*
X62993542Y-35789928D01*
X62995766Y-35768774D01*
X63012814Y-35606565D01*
X63013504Y-35600000D01*
X62999281Y-35464677D01*
X62994232Y-35416635D01*
X62994232Y-35416633D01*
X62993542Y-35410072D01*
X62934527Y-35228444D01*
X62839040Y-35063056D01*
X62711253Y-34921134D01*
X62697207Y-34910929D01*
X62653853Y-34854707D01*
X62647778Y-34783971D01*
X62680909Y-34721179D01*
X62742729Y-34686268D01*
X62797464Y-34685746D01*
X62817154Y-34689931D01*
X62898056Y-34707128D01*
X62898061Y-34707128D01*
X62904513Y-34708500D01*
X63095487Y-34708500D01*
X63101939Y-34707128D01*
X63101944Y-34707128D01*
X63188887Y-34688647D01*
X63282288Y-34668794D01*
X63400801Y-34616029D01*
X63450722Y-34593803D01*
X63450724Y-34593802D01*
X63456752Y-34591118D01*
X63493371Y-34564513D01*
X63547733Y-34525016D01*
X63611253Y-34478866D01*
X63627063Y-34461307D01*
X63734621Y-34341852D01*
X63734622Y-34341851D01*
X63739040Y-34336944D01*
X63834527Y-34171556D01*
X63893542Y-33989928D01*
X63907393Y-33858148D01*
X63912814Y-33806565D01*
X63913504Y-33800000D01*
X63901245Y-33683365D01*
X63894232Y-33616635D01*
X63894232Y-33616633D01*
X63893542Y-33610072D01*
X63834527Y-33428444D01*
X63739040Y-33263056D01*
X63722358Y-33244528D01*
X63615675Y-33126045D01*
X63615674Y-33126044D01*
X63611253Y-33121134D01*
X63456752Y-33008882D01*
X63450724Y-33006198D01*
X63450722Y-33006197D01*
X63288319Y-32933891D01*
X63288318Y-32933891D01*
X63282288Y-32931206D01*
X63164979Y-32906271D01*
X63101944Y-32892872D01*
X63101939Y-32892872D01*
X63095487Y-32891500D01*
X62904513Y-32891500D01*
X62898061Y-32892872D01*
X62898056Y-32892872D01*
X62835021Y-32906271D01*
X62717712Y-32931206D01*
X62711682Y-32933891D01*
X62711681Y-32933891D01*
X62549278Y-33006197D01*
X62549276Y-33006198D01*
X62543248Y-33008882D01*
X62537907Y-33012762D01*
X62537906Y-33012763D01*
X62483301Y-33052436D01*
X62409240Y-33076500D01*
X61989123Y-33076500D01*
X61921002Y-33056498D01*
X61874509Y-33002842D01*
X61864405Y-32932568D01*
X61871141Y-32906271D01*
X61879971Y-32882718D01*
X61879973Y-32882712D01*
X61882745Y-32875316D01*
X61889500Y-32813134D01*
X61889500Y-32066866D01*
X61882745Y-32004684D01*
X61831615Y-31868295D01*
X61828273Y-31863836D01*
X61813470Y-31796152D01*
X61828067Y-31746439D01*
X61831615Y-31741705D01*
X61882745Y-31605316D01*
X61889500Y-31543134D01*
X61889500Y-30796866D01*
X61883280Y-30739607D01*
X61895808Y-30669725D01*
X61944129Y-30617709D01*
X62008543Y-30600000D01*
X71991457Y-30600000D01*
X72059578Y-30620002D01*
G37*
G04 #@! TD.AperFunction*
M02*
