G04 #@! TF.GenerationSoftware,KiCad,Pcbnew,(5.1.2-1)-1*
G04 #@! TF.CreationDate,2021-02-23T21:51:24+01:00*
G04 #@! TF.ProjectId,parasite,70617261-7369-4746-952e-6b696361645f,1.1.0*
G04 #@! TF.SameCoordinates,Original*
G04 #@! TF.FileFunction,Soldermask,Bot*
G04 #@! TF.FilePolarity,Negative*
%FSLAX46Y46*%
G04 Gerber Fmt 4.6, Leading zero omitted, Abs format (unit mm)*
G04 Created by KiCad (PCBNEW (5.1.2-1)-1) date 2021-02-23 21:51:24*
%MOMM*%
%LPD*%
G04 APERTURE LIST*
%ADD10C,0.100000*%
G04 APERTURE END LIST*
D10*
G36*
X116801000Y-87001000D02*
G01*
X111599000Y-87001000D01*
X111599000Y-81799000D01*
X116801000Y-81799000D01*
X116801000Y-87001000D01*
X116801000Y-87001000D01*
G37*
G36*
X116810909Y-62992981D02*
G01*
X118439887Y-63667726D01*
X118439888Y-63667727D01*
X119905930Y-64647304D01*
X121152696Y-65894070D01*
X121807228Y-66873648D01*
X122132274Y-67360113D01*
X122807019Y-68989091D01*
X123151000Y-70718402D01*
X123151000Y-72481598D01*
X122807019Y-74210909D01*
X122132274Y-75839887D01*
X122132273Y-75839888D01*
X121152696Y-77305930D01*
X119905930Y-78552696D01*
X118926352Y-79207228D01*
X118439887Y-79532274D01*
X116810909Y-80207019D01*
X115081598Y-80551000D01*
X113318402Y-80551000D01*
X111589091Y-80207019D01*
X109960113Y-79532274D01*
X109473648Y-79207228D01*
X108494070Y-78552696D01*
X107247304Y-77305930D01*
X106267727Y-75839888D01*
X106267726Y-75839887D01*
X105592981Y-74210909D01*
X105249000Y-72481598D01*
X105249000Y-70718402D01*
X105592981Y-68989091D01*
X106267726Y-67360113D01*
X106592772Y-66873648D01*
X107247304Y-65894070D01*
X108494070Y-64647304D01*
X109960112Y-63667727D01*
X109960113Y-63667726D01*
X111589091Y-62992981D01*
X113318402Y-62649000D01*
X115081598Y-62649000D01*
X116810909Y-62992981D01*
X116810909Y-62992981D01*
G37*
G36*
X116801000Y-61401000D02*
G01*
X111599000Y-61401000D01*
X111599000Y-56199000D01*
X116801000Y-56199000D01*
X116801000Y-61401000D01*
X116801000Y-61401000D01*
G37*
M02*
