G04 #@! TF.GenerationSoftware,KiCad,Pcbnew,(5.1.2-1)-1*
G04 #@! TF.CreationDate,2021-02-23T21:51:24+01:00*
G04 #@! TF.ProjectId,parasite,70617261-7369-4746-952e-6b696361645f,1.1.0*
G04 #@! TF.SameCoordinates,Original*
G04 #@! TF.FileFunction,Copper,L2,Bot*
G04 #@! TF.FilePolarity,Positive*
%FSLAX46Y46*%
G04 Gerber Fmt 4.6, Leading zero omitted, Abs format (unit mm)*
G04 Created by KiCad (PCBNEW (5.1.2-1)-1) date 2021-02-23 21:51:24*
%MOMM*%
%LPD*%
G04 APERTURE LIST*
%ADD10C,17.800000*%
%ADD11R,5.100000X5.100000*%
%ADD12C,0.800000*%
%ADD13C,0.250000*%
%ADD14C,0.254000*%
G04 APERTURE END LIST*
D10*
X114200000Y-71600000D03*
D11*
X114200000Y-58800000D03*
X114200000Y-84400000D03*
D12*
X106670000Y-69205000D03*
X125600000Y-93500000D03*
X126600000Y-81300000D03*
X125100000Y-73100000D03*
X109900000Y-62100000D03*
X124000000Y-86000000D03*
X126600000Y-78800000D03*
X114600000Y-90500000D03*
X106000000Y-91000000D03*
X114200000Y-84400000D03*
X117600000Y-51100000D03*
X113200000Y-55300000D03*
X120700000Y-85075000D03*
X107100000Y-81100000D03*
X115630001Y-51969999D03*
X112100000Y-54900000D03*
X123100000Y-78500000D03*
X121300000Y-80000000D03*
X126200000Y-63100000D03*
X119500000Y-57900000D03*
D13*
X125600000Y-82300000D02*
X126600000Y-81300000D01*
X125600000Y-93500000D02*
X125600000Y-82300000D01*
X125100000Y-72534315D02*
X125100000Y-73100000D01*
X125100000Y-68846998D02*
X125100000Y-72534315D01*
X117928003Y-61675001D02*
X125100000Y-68846998D01*
X110324999Y-61675001D02*
X117928003Y-61675001D01*
X109900000Y-62100000D02*
X110324999Y-61675001D01*
X124000000Y-81400000D02*
X126600000Y-78800000D01*
X124000000Y-86000000D02*
X124000000Y-81400000D01*
X114100000Y-91000000D02*
X106000000Y-91000000D01*
X114600000Y-90500000D02*
X114100000Y-91000000D01*
X118625001Y-57174999D02*
X117000000Y-58800000D01*
X121348001Y-57174999D02*
X118625001Y-57174999D01*
X126925001Y-62751999D02*
X121348001Y-57174999D01*
X126925001Y-72528001D02*
X126925001Y-62751999D01*
X117000000Y-58800000D02*
X114200000Y-58800000D01*
X115053002Y-84400000D02*
X126925001Y-72528001D01*
X114200000Y-84400000D02*
X115053002Y-84400000D01*
X113400000Y-55300000D02*
X113200000Y-55300000D01*
X117600000Y-51100000D02*
X113400000Y-55300000D01*
X107100000Y-82985002D02*
X107100000Y-81665685D01*
X111389999Y-87275001D02*
X107100000Y-82985002D01*
X107100000Y-81665685D02*
X107100000Y-81100000D01*
X118499999Y-87275001D02*
X111389999Y-87275001D01*
X120700000Y-85075000D02*
X118499999Y-87275001D01*
X115030001Y-51969999D02*
X112100000Y-54900000D01*
X115630001Y-51969999D02*
X115030001Y-51969999D01*
X122800000Y-78500000D02*
X121300000Y-80000000D01*
X123100000Y-78500000D02*
X122800000Y-78500000D01*
X126200000Y-63100000D02*
X124700000Y-63100000D01*
X124700000Y-63100000D02*
X119500000Y-57900000D01*
D14*
G36*
X132340001Y-86450801D02*
G01*
X132209523Y-86492191D01*
X132154588Y-86515737D01*
X132099235Y-86538551D01*
X132091129Y-86542935D01*
X131834592Y-86683968D01*
X131785247Y-86717755D01*
X131735409Y-86750867D01*
X131728309Y-86756741D01*
X131504051Y-86944916D01*
X131462207Y-86987646D01*
X131419751Y-87029806D01*
X131413927Y-87036947D01*
X131230491Y-87265097D01*
X131197744Y-87315139D01*
X131164286Y-87364742D01*
X131159960Y-87372879D01*
X131024330Y-87632313D01*
X131001918Y-87687785D01*
X130978740Y-87742923D01*
X130976077Y-87751745D01*
X130893422Y-88032583D01*
X130882224Y-88091284D01*
X130870184Y-88149940D01*
X130869285Y-88159112D01*
X130842753Y-88450656D01*
X130843171Y-88510472D01*
X130842753Y-88570288D01*
X130843652Y-88579460D01*
X130874252Y-88870605D01*
X130886283Y-88929217D01*
X130897489Y-88987963D01*
X130900153Y-88996784D01*
X130986721Y-89276440D01*
X131009899Y-89331578D01*
X131032311Y-89387050D01*
X131036638Y-89395186D01*
X131175877Y-89652702D01*
X131209304Y-89702259D01*
X131242080Y-89752347D01*
X131247905Y-89759488D01*
X131434510Y-89985056D01*
X131476965Y-90027215D01*
X131518809Y-90069945D01*
X131525909Y-90075819D01*
X131752773Y-90260845D01*
X131802566Y-90293927D01*
X131851955Y-90327745D01*
X131860061Y-90332127D01*
X132118542Y-90469564D01*
X132173836Y-90492355D01*
X132228829Y-90515925D01*
X132237632Y-90518650D01*
X132340000Y-90549557D01*
X132340001Y-93646778D01*
X129660588Y-95433054D01*
X129631550Y-95448575D01*
X129581287Y-95489825D01*
X129531543Y-95530562D01*
X129531323Y-95530830D01*
X129531052Y-95531052D01*
X129489702Y-95581438D01*
X129448962Y-95630974D01*
X129448799Y-95631278D01*
X129448575Y-95631551D01*
X129417976Y-95688798D01*
X129387556Y-95745566D01*
X129387454Y-95745901D01*
X129387290Y-95746208D01*
X129368356Y-95808623D01*
X129349687Y-95869938D01*
X129349653Y-95870278D01*
X129349550Y-95870618D01*
X129343124Y-95935859D01*
X129336808Y-95999307D01*
X129340000Y-96032066D01*
X129340001Y-151663912D01*
X118721338Y-159386575D01*
X118314733Y-159479214D01*
X117827192Y-159493131D01*
X117323567Y-159408264D01*
X117297780Y-159400478D01*
X106660000Y-151663913D01*
X106660000Y-96032065D01*
X106663192Y-95999306D01*
X106656876Y-95935858D01*
X106650450Y-95870617D01*
X106650347Y-95870277D01*
X106650313Y-95869937D01*
X106631644Y-95808622D01*
X106612710Y-95746207D01*
X106612546Y-95745900D01*
X106612444Y-95745565D01*
X106582024Y-95688797D01*
X106551425Y-95631550D01*
X106551201Y-95631277D01*
X106551038Y-95630973D01*
X106510105Y-95581201D01*
X106468948Y-95531052D01*
X106468680Y-95530832D01*
X106468457Y-95530561D01*
X106417903Y-95489161D01*
X106368449Y-95448575D01*
X106339423Y-95433061D01*
X103660000Y-93646779D01*
X103660000Y-90898061D01*
X104965000Y-90898061D01*
X104965000Y-91101939D01*
X105004774Y-91301898D01*
X105082795Y-91490256D01*
X105196063Y-91659774D01*
X105340226Y-91803937D01*
X105509744Y-91917205D01*
X105698102Y-91995226D01*
X105898061Y-92035000D01*
X106101939Y-92035000D01*
X106301898Y-91995226D01*
X106490256Y-91917205D01*
X106659774Y-91803937D01*
X106703711Y-91760000D01*
X114062678Y-91760000D01*
X114100000Y-91763676D01*
X114137322Y-91760000D01*
X114137333Y-91760000D01*
X114248986Y-91749003D01*
X114392247Y-91705546D01*
X114524276Y-91634974D01*
X114640001Y-91540001D01*
X114644105Y-91535000D01*
X114701939Y-91535000D01*
X114901898Y-91495226D01*
X115090256Y-91417205D01*
X115259774Y-91303937D01*
X115403937Y-91159774D01*
X115517205Y-90990256D01*
X115595226Y-90801898D01*
X115635000Y-90601939D01*
X115635000Y-90398061D01*
X115595226Y-90198102D01*
X115517205Y-90009744D01*
X115403937Y-89840226D01*
X115259774Y-89696063D01*
X115090256Y-89582795D01*
X114901898Y-89504774D01*
X114701939Y-89465000D01*
X114498061Y-89465000D01*
X114298102Y-89504774D01*
X114109744Y-89582795D01*
X113940226Y-89696063D01*
X113796063Y-89840226D01*
X113682795Y-90009744D01*
X113604774Y-90198102D01*
X113596440Y-90240000D01*
X106703711Y-90240000D01*
X106659774Y-90196063D01*
X106490256Y-90082795D01*
X106301898Y-90004774D01*
X106101939Y-89965000D01*
X105898061Y-89965000D01*
X105698102Y-90004774D01*
X105509744Y-90082795D01*
X105340226Y-90196063D01*
X105196063Y-90340226D01*
X105082795Y-90509744D01*
X105004774Y-90698102D01*
X104965000Y-90898061D01*
X103660000Y-90898061D01*
X103660000Y-90549198D01*
X103790476Y-90507809D01*
X103845412Y-90484263D01*
X103900764Y-90461449D01*
X103908870Y-90457065D01*
X104165408Y-90316032D01*
X104214753Y-90282245D01*
X104264591Y-90249133D01*
X104271691Y-90243259D01*
X104495949Y-90055084D01*
X104537793Y-90012354D01*
X104580248Y-89970195D01*
X104586072Y-89963053D01*
X104769509Y-89734903D01*
X104802251Y-89684869D01*
X104835714Y-89635258D01*
X104840040Y-89627122D01*
X104975670Y-89367687D01*
X104998082Y-89312215D01*
X105021260Y-89257077D01*
X105023923Y-89248255D01*
X105106578Y-88967417D01*
X105117785Y-88908669D01*
X105129816Y-88850059D01*
X105130715Y-88840888D01*
X105157247Y-88549344D01*
X105156829Y-88489528D01*
X105157247Y-88429712D01*
X105156348Y-88420541D01*
X105125748Y-88129395D01*
X105113710Y-88070753D01*
X105102510Y-88012037D01*
X105099847Y-88003216D01*
X105013279Y-87723560D01*
X104990101Y-87668422D01*
X104967689Y-87612950D01*
X104963362Y-87604814D01*
X104824123Y-87347298D01*
X104790701Y-87297749D01*
X104757920Y-87247653D01*
X104752095Y-87240512D01*
X104565490Y-87014945D01*
X104523054Y-86972804D01*
X104481191Y-86930055D01*
X104474091Y-86924181D01*
X104247227Y-86739155D01*
X104197408Y-86706055D01*
X104148045Y-86672256D01*
X104139939Y-86667873D01*
X103881458Y-86530436D01*
X103826164Y-86507645D01*
X103771171Y-86484075D01*
X103762368Y-86481350D01*
X103660000Y-86450443D01*
X103660000Y-80998061D01*
X106065000Y-80998061D01*
X106065000Y-81201939D01*
X106104774Y-81401898D01*
X106182795Y-81590256D01*
X106296063Y-81759774D01*
X106340001Y-81803712D01*
X106340000Y-82947679D01*
X106336324Y-82985002D01*
X106340000Y-83022324D01*
X106340000Y-83022334D01*
X106350997Y-83133987D01*
X106394454Y-83277248D01*
X106465026Y-83409278D01*
X106504871Y-83457828D01*
X106559999Y-83525003D01*
X106589003Y-83548806D01*
X110826200Y-87786004D01*
X110849998Y-87815002D01*
X110965723Y-87909975D01*
X111097752Y-87980547D01*
X111241013Y-88024004D01*
X111352666Y-88035001D01*
X111352674Y-88035001D01*
X111389999Y-88038677D01*
X111427324Y-88035001D01*
X118462677Y-88035001D01*
X118499999Y-88038677D01*
X118537321Y-88035001D01*
X118537332Y-88035001D01*
X118648985Y-88024004D01*
X118792246Y-87980547D01*
X118924275Y-87909975D01*
X119040000Y-87815002D01*
X119063803Y-87785998D01*
X120739802Y-86110000D01*
X120801939Y-86110000D01*
X121001898Y-86070226D01*
X121190256Y-85992205D01*
X121331152Y-85898061D01*
X122965000Y-85898061D01*
X122965000Y-86101939D01*
X123004774Y-86301898D01*
X123082795Y-86490256D01*
X123196063Y-86659774D01*
X123340226Y-86803937D01*
X123509744Y-86917205D01*
X123698102Y-86995226D01*
X123898061Y-87035000D01*
X124101939Y-87035000D01*
X124301898Y-86995226D01*
X124490256Y-86917205D01*
X124659774Y-86803937D01*
X124803937Y-86659774D01*
X124840001Y-86605801D01*
X124840000Y-92796289D01*
X124796063Y-92840226D01*
X124682795Y-93009744D01*
X124604774Y-93198102D01*
X124565000Y-93398061D01*
X124565000Y-93601939D01*
X124604774Y-93801898D01*
X124682795Y-93990256D01*
X124796063Y-94159774D01*
X124940226Y-94303937D01*
X125109744Y-94417205D01*
X125298102Y-94495226D01*
X125498061Y-94535000D01*
X125701939Y-94535000D01*
X125901898Y-94495226D01*
X126090256Y-94417205D01*
X126259774Y-94303937D01*
X126403937Y-94159774D01*
X126517205Y-93990256D01*
X126595226Y-93801898D01*
X126635000Y-93601939D01*
X126635000Y-93398061D01*
X126595226Y-93198102D01*
X126517205Y-93009744D01*
X126403937Y-92840226D01*
X126360000Y-92796289D01*
X126360000Y-82614801D01*
X126639802Y-82335000D01*
X126701939Y-82335000D01*
X126901898Y-82295226D01*
X127090256Y-82217205D01*
X127259774Y-82103937D01*
X127403937Y-81959774D01*
X127517205Y-81790256D01*
X127595226Y-81601898D01*
X127635000Y-81401939D01*
X127635000Y-81198061D01*
X127595226Y-80998102D01*
X127517205Y-80809744D01*
X127403937Y-80640226D01*
X127259774Y-80496063D01*
X127090256Y-80382795D01*
X126901898Y-80304774D01*
X126701939Y-80265000D01*
X126498061Y-80265000D01*
X126298102Y-80304774D01*
X126109744Y-80382795D01*
X126056290Y-80418512D01*
X126639802Y-79835000D01*
X126701939Y-79835000D01*
X126901898Y-79795226D01*
X127090256Y-79717205D01*
X127259774Y-79603937D01*
X127403937Y-79459774D01*
X127517205Y-79290256D01*
X127595226Y-79101898D01*
X127635000Y-78901939D01*
X127635000Y-78698061D01*
X127595226Y-78498102D01*
X127517205Y-78309744D01*
X127403937Y-78140226D01*
X127259774Y-77996063D01*
X127090256Y-77882795D01*
X126901898Y-77804774D01*
X126701939Y-77765000D01*
X126498061Y-77765000D01*
X126298102Y-77804774D01*
X126109744Y-77882795D01*
X125940226Y-77996063D01*
X125796063Y-78140226D01*
X125682795Y-78309744D01*
X125604774Y-78498102D01*
X125565000Y-78698061D01*
X125565000Y-78760198D01*
X123488998Y-80836201D01*
X123460000Y-80859999D01*
X123436202Y-80888997D01*
X123436201Y-80888998D01*
X123365026Y-80975724D01*
X123294454Y-81107754D01*
X123281332Y-81151014D01*
X123259136Y-81224188D01*
X123250998Y-81251015D01*
X123236324Y-81400000D01*
X123240001Y-81437332D01*
X123240000Y-85296289D01*
X123196063Y-85340226D01*
X123082795Y-85509744D01*
X123004774Y-85698102D01*
X122965000Y-85898061D01*
X121331152Y-85898061D01*
X121359774Y-85878937D01*
X121503937Y-85734774D01*
X121617205Y-85565256D01*
X121695226Y-85376898D01*
X121735000Y-85176939D01*
X121735000Y-84973061D01*
X121695226Y-84773102D01*
X121617205Y-84584744D01*
X121503937Y-84415226D01*
X121359774Y-84271063D01*
X121190256Y-84157795D01*
X121001898Y-84079774D01*
X120801939Y-84040000D01*
X120598061Y-84040000D01*
X120398102Y-84079774D01*
X120209744Y-84157795D01*
X120040226Y-84271063D01*
X119896063Y-84415226D01*
X119782795Y-84584744D01*
X119704774Y-84773102D01*
X119665000Y-84973061D01*
X119665000Y-85035198D01*
X118185198Y-86515001D01*
X117388072Y-86515001D01*
X117388072Y-83139731D01*
X120291689Y-80236114D01*
X120304774Y-80301898D01*
X120382795Y-80490256D01*
X120496063Y-80659774D01*
X120640226Y-80803937D01*
X120809744Y-80917205D01*
X120998102Y-80995226D01*
X121198061Y-81035000D01*
X121401939Y-81035000D01*
X121601898Y-80995226D01*
X121790256Y-80917205D01*
X121959774Y-80803937D01*
X122103937Y-80659774D01*
X122217205Y-80490256D01*
X122295226Y-80301898D01*
X122335000Y-80101939D01*
X122335000Y-80039801D01*
X122866058Y-79508743D01*
X122998061Y-79535000D01*
X123201939Y-79535000D01*
X123401898Y-79495226D01*
X123590256Y-79417205D01*
X123759774Y-79303937D01*
X123903937Y-79159774D01*
X124017205Y-78990256D01*
X124095226Y-78801898D01*
X124135000Y-78601939D01*
X124135000Y-78398061D01*
X124095226Y-78198102D01*
X124017205Y-78009744D01*
X123903937Y-77840226D01*
X123759774Y-77696063D01*
X123590256Y-77582795D01*
X123401898Y-77504774D01*
X123201939Y-77465000D01*
X123062804Y-77465000D01*
X127436005Y-73091799D01*
X127465002Y-73068002D01*
X127522401Y-72998061D01*
X127559975Y-72952278D01*
X127630547Y-72820248D01*
X127637265Y-72798102D01*
X127674004Y-72676987D01*
X127685001Y-72565334D01*
X127685001Y-72565324D01*
X127688677Y-72528001D01*
X127685001Y-72490679D01*
X127685001Y-62789321D01*
X127688677Y-62751998D01*
X127685001Y-62714675D01*
X127685001Y-62714666D01*
X127674004Y-62603013D01*
X127630547Y-62459752D01*
X127594464Y-62392246D01*
X127559975Y-62327722D01*
X127488800Y-62240996D01*
X127465002Y-62211998D01*
X127436004Y-62188200D01*
X121911805Y-56664002D01*
X121888002Y-56634998D01*
X121772277Y-56540025D01*
X121640248Y-56469453D01*
X121496987Y-56425996D01*
X121385334Y-56414999D01*
X121385323Y-56414999D01*
X121348001Y-56411323D01*
X121310679Y-56414999D01*
X118662323Y-56414999D01*
X118625000Y-56411323D01*
X118587677Y-56414999D01*
X118587668Y-56414999D01*
X118476015Y-56425996D01*
X118332754Y-56469453D01*
X118200725Y-56540025D01*
X118200723Y-56540026D01*
X118200724Y-56540026D01*
X118113997Y-56611200D01*
X118113993Y-56611204D01*
X118085000Y-56634998D01*
X118061206Y-56663991D01*
X117388072Y-57337126D01*
X117388072Y-56250000D01*
X117375812Y-56125518D01*
X117339502Y-56005820D01*
X117280537Y-55895506D01*
X117201185Y-55798815D01*
X117104494Y-55719463D01*
X116994180Y-55660498D01*
X116874482Y-55624188D01*
X116750000Y-55611928D01*
X114191071Y-55611928D01*
X114195226Y-55601898D01*
X114200769Y-55574032D01*
X117639802Y-52135000D01*
X117701939Y-52135000D01*
X117901898Y-52095226D01*
X118090256Y-52017205D01*
X118259774Y-51903937D01*
X118403937Y-51759774D01*
X118517205Y-51590256D01*
X118595226Y-51401898D01*
X118635000Y-51201939D01*
X118635000Y-50998061D01*
X118595226Y-50798102D01*
X118517205Y-50609744D01*
X118403937Y-50440226D01*
X118259774Y-50296063D01*
X118090256Y-50182795D01*
X117901898Y-50104774D01*
X117701939Y-50065000D01*
X117498061Y-50065000D01*
X117298102Y-50104774D01*
X117109744Y-50182795D01*
X116940226Y-50296063D01*
X116796063Y-50440226D01*
X116682795Y-50609744D01*
X116604774Y-50798102D01*
X116565000Y-50998061D01*
X116565000Y-51060198D01*
X116374456Y-51250743D01*
X116289775Y-51166062D01*
X116120257Y-51052794D01*
X115931899Y-50974773D01*
X115731940Y-50934999D01*
X115528062Y-50934999D01*
X115328103Y-50974773D01*
X115139745Y-51052794D01*
X114970227Y-51166062D01*
X114919038Y-51217251D01*
X114881015Y-51220996D01*
X114737754Y-51264453D01*
X114605724Y-51335025D01*
X114536000Y-51392247D01*
X114490000Y-51429998D01*
X114466202Y-51458996D01*
X112060199Y-53865000D01*
X111998061Y-53865000D01*
X111798102Y-53904774D01*
X111609744Y-53982795D01*
X111440226Y-54096063D01*
X111296063Y-54240226D01*
X111182795Y-54409744D01*
X111104774Y-54598102D01*
X111065000Y-54798061D01*
X111065000Y-55001939D01*
X111104774Y-55201898D01*
X111182795Y-55390256D01*
X111296063Y-55559774D01*
X111399933Y-55663644D01*
X111295506Y-55719463D01*
X111198815Y-55798815D01*
X111119463Y-55895506D01*
X111060498Y-56005820D01*
X111024188Y-56125518D01*
X111011928Y-56250000D01*
X111011928Y-60915001D01*
X110362321Y-60915001D01*
X110324998Y-60911325D01*
X110287675Y-60915001D01*
X110287666Y-60915001D01*
X110176013Y-60925998D01*
X110032752Y-60969455D01*
X109900723Y-61040027D01*
X109870293Y-61065000D01*
X109798061Y-61065000D01*
X109598102Y-61104774D01*
X109409744Y-61182795D01*
X109240226Y-61296063D01*
X109096063Y-61440226D01*
X108982795Y-61609744D01*
X108904774Y-61798102D01*
X108865000Y-61998061D01*
X108865000Y-62201939D01*
X108904774Y-62401898D01*
X108982795Y-62590256D01*
X109096063Y-62759774D01*
X109240226Y-62903937D01*
X109409744Y-63017205D01*
X109598102Y-63095226D01*
X109798061Y-63135000D01*
X109809459Y-63135000D01*
X109086024Y-63497814D01*
X108671590Y-63774730D01*
X107627775Y-64848170D01*
X114200000Y-71420395D01*
X114214143Y-71406253D01*
X114393748Y-71585858D01*
X114379605Y-71600000D01*
X114393748Y-71614143D01*
X114214143Y-71793748D01*
X114200000Y-71779605D01*
X107627775Y-78351830D01*
X108671590Y-79425270D01*
X110304451Y-80353449D01*
X112087016Y-80945238D01*
X113950782Y-81177894D01*
X115824125Y-81042478D01*
X117635054Y-80544192D01*
X118034173Y-80344027D01*
X117074676Y-81303525D01*
X116994180Y-81260498D01*
X116874482Y-81224188D01*
X116750000Y-81211928D01*
X111650000Y-81211928D01*
X111525518Y-81224188D01*
X111405820Y-81260498D01*
X111295506Y-81319463D01*
X111198815Y-81398815D01*
X111119463Y-81495506D01*
X111060498Y-81605820D01*
X111024188Y-81725518D01*
X111011928Y-81850000D01*
X111011928Y-85822128D01*
X107860000Y-82670201D01*
X107860000Y-81803711D01*
X107903937Y-81759774D01*
X108017205Y-81590256D01*
X108095226Y-81401898D01*
X108135000Y-81201939D01*
X108135000Y-80998061D01*
X108095226Y-80798102D01*
X108017205Y-80609744D01*
X107903937Y-80440226D01*
X107759774Y-80296063D01*
X107590256Y-80182795D01*
X107401898Y-80104774D01*
X107201939Y-80065000D01*
X106998061Y-80065000D01*
X106798102Y-80104774D01*
X106609744Y-80182795D01*
X106440226Y-80296063D01*
X106296063Y-80440226D01*
X106182795Y-80609744D01*
X106104774Y-80798102D01*
X106065000Y-80998061D01*
X103660000Y-80998061D01*
X103660000Y-71350782D01*
X104622106Y-71350782D01*
X104757522Y-73224125D01*
X105255808Y-75035054D01*
X106097814Y-76713976D01*
X106374730Y-77128410D01*
X107448170Y-78172225D01*
X114020395Y-71600000D01*
X107448170Y-65027775D01*
X106374730Y-66071590D01*
X105446551Y-67704451D01*
X104854762Y-69487016D01*
X104622106Y-71350782D01*
X103660000Y-71350782D01*
X103660000Y-48627000D01*
X132340000Y-48627000D01*
X132340001Y-86450801D01*
X132340001Y-86450801D01*
G37*
X132340001Y-86450801D02*
X132209523Y-86492191D01*
X132154588Y-86515737D01*
X132099235Y-86538551D01*
X132091129Y-86542935D01*
X131834592Y-86683968D01*
X131785247Y-86717755D01*
X131735409Y-86750867D01*
X131728309Y-86756741D01*
X131504051Y-86944916D01*
X131462207Y-86987646D01*
X131419751Y-87029806D01*
X131413927Y-87036947D01*
X131230491Y-87265097D01*
X131197744Y-87315139D01*
X131164286Y-87364742D01*
X131159960Y-87372879D01*
X131024330Y-87632313D01*
X131001918Y-87687785D01*
X130978740Y-87742923D01*
X130976077Y-87751745D01*
X130893422Y-88032583D01*
X130882224Y-88091284D01*
X130870184Y-88149940D01*
X130869285Y-88159112D01*
X130842753Y-88450656D01*
X130843171Y-88510472D01*
X130842753Y-88570288D01*
X130843652Y-88579460D01*
X130874252Y-88870605D01*
X130886283Y-88929217D01*
X130897489Y-88987963D01*
X130900153Y-88996784D01*
X130986721Y-89276440D01*
X131009899Y-89331578D01*
X131032311Y-89387050D01*
X131036638Y-89395186D01*
X131175877Y-89652702D01*
X131209304Y-89702259D01*
X131242080Y-89752347D01*
X131247905Y-89759488D01*
X131434510Y-89985056D01*
X131476965Y-90027215D01*
X131518809Y-90069945D01*
X131525909Y-90075819D01*
X131752773Y-90260845D01*
X131802566Y-90293927D01*
X131851955Y-90327745D01*
X131860061Y-90332127D01*
X132118542Y-90469564D01*
X132173836Y-90492355D01*
X132228829Y-90515925D01*
X132237632Y-90518650D01*
X132340000Y-90549557D01*
X132340001Y-93646778D01*
X129660588Y-95433054D01*
X129631550Y-95448575D01*
X129581287Y-95489825D01*
X129531543Y-95530562D01*
X129531323Y-95530830D01*
X129531052Y-95531052D01*
X129489702Y-95581438D01*
X129448962Y-95630974D01*
X129448799Y-95631278D01*
X129448575Y-95631551D01*
X129417976Y-95688798D01*
X129387556Y-95745566D01*
X129387454Y-95745901D01*
X129387290Y-95746208D01*
X129368356Y-95808623D01*
X129349687Y-95869938D01*
X129349653Y-95870278D01*
X129349550Y-95870618D01*
X129343124Y-95935859D01*
X129336808Y-95999307D01*
X129340000Y-96032066D01*
X129340001Y-151663912D01*
X118721338Y-159386575D01*
X118314733Y-159479214D01*
X117827192Y-159493131D01*
X117323567Y-159408264D01*
X117297780Y-159400478D01*
X106660000Y-151663913D01*
X106660000Y-96032065D01*
X106663192Y-95999306D01*
X106656876Y-95935858D01*
X106650450Y-95870617D01*
X106650347Y-95870277D01*
X106650313Y-95869937D01*
X106631644Y-95808622D01*
X106612710Y-95746207D01*
X106612546Y-95745900D01*
X106612444Y-95745565D01*
X106582024Y-95688797D01*
X106551425Y-95631550D01*
X106551201Y-95631277D01*
X106551038Y-95630973D01*
X106510105Y-95581201D01*
X106468948Y-95531052D01*
X106468680Y-95530832D01*
X106468457Y-95530561D01*
X106417903Y-95489161D01*
X106368449Y-95448575D01*
X106339423Y-95433061D01*
X103660000Y-93646779D01*
X103660000Y-90898061D01*
X104965000Y-90898061D01*
X104965000Y-91101939D01*
X105004774Y-91301898D01*
X105082795Y-91490256D01*
X105196063Y-91659774D01*
X105340226Y-91803937D01*
X105509744Y-91917205D01*
X105698102Y-91995226D01*
X105898061Y-92035000D01*
X106101939Y-92035000D01*
X106301898Y-91995226D01*
X106490256Y-91917205D01*
X106659774Y-91803937D01*
X106703711Y-91760000D01*
X114062678Y-91760000D01*
X114100000Y-91763676D01*
X114137322Y-91760000D01*
X114137333Y-91760000D01*
X114248986Y-91749003D01*
X114392247Y-91705546D01*
X114524276Y-91634974D01*
X114640001Y-91540001D01*
X114644105Y-91535000D01*
X114701939Y-91535000D01*
X114901898Y-91495226D01*
X115090256Y-91417205D01*
X115259774Y-91303937D01*
X115403937Y-91159774D01*
X115517205Y-90990256D01*
X115595226Y-90801898D01*
X115635000Y-90601939D01*
X115635000Y-90398061D01*
X115595226Y-90198102D01*
X115517205Y-90009744D01*
X115403937Y-89840226D01*
X115259774Y-89696063D01*
X115090256Y-89582795D01*
X114901898Y-89504774D01*
X114701939Y-89465000D01*
X114498061Y-89465000D01*
X114298102Y-89504774D01*
X114109744Y-89582795D01*
X113940226Y-89696063D01*
X113796063Y-89840226D01*
X113682795Y-90009744D01*
X113604774Y-90198102D01*
X113596440Y-90240000D01*
X106703711Y-90240000D01*
X106659774Y-90196063D01*
X106490256Y-90082795D01*
X106301898Y-90004774D01*
X106101939Y-89965000D01*
X105898061Y-89965000D01*
X105698102Y-90004774D01*
X105509744Y-90082795D01*
X105340226Y-90196063D01*
X105196063Y-90340226D01*
X105082795Y-90509744D01*
X105004774Y-90698102D01*
X104965000Y-90898061D01*
X103660000Y-90898061D01*
X103660000Y-90549198D01*
X103790476Y-90507809D01*
X103845412Y-90484263D01*
X103900764Y-90461449D01*
X103908870Y-90457065D01*
X104165408Y-90316032D01*
X104214753Y-90282245D01*
X104264591Y-90249133D01*
X104271691Y-90243259D01*
X104495949Y-90055084D01*
X104537793Y-90012354D01*
X104580248Y-89970195D01*
X104586072Y-89963053D01*
X104769509Y-89734903D01*
X104802251Y-89684869D01*
X104835714Y-89635258D01*
X104840040Y-89627122D01*
X104975670Y-89367687D01*
X104998082Y-89312215D01*
X105021260Y-89257077D01*
X105023923Y-89248255D01*
X105106578Y-88967417D01*
X105117785Y-88908669D01*
X105129816Y-88850059D01*
X105130715Y-88840888D01*
X105157247Y-88549344D01*
X105156829Y-88489528D01*
X105157247Y-88429712D01*
X105156348Y-88420541D01*
X105125748Y-88129395D01*
X105113710Y-88070753D01*
X105102510Y-88012037D01*
X105099847Y-88003216D01*
X105013279Y-87723560D01*
X104990101Y-87668422D01*
X104967689Y-87612950D01*
X104963362Y-87604814D01*
X104824123Y-87347298D01*
X104790701Y-87297749D01*
X104757920Y-87247653D01*
X104752095Y-87240512D01*
X104565490Y-87014945D01*
X104523054Y-86972804D01*
X104481191Y-86930055D01*
X104474091Y-86924181D01*
X104247227Y-86739155D01*
X104197408Y-86706055D01*
X104148045Y-86672256D01*
X104139939Y-86667873D01*
X103881458Y-86530436D01*
X103826164Y-86507645D01*
X103771171Y-86484075D01*
X103762368Y-86481350D01*
X103660000Y-86450443D01*
X103660000Y-80998061D01*
X106065000Y-80998061D01*
X106065000Y-81201939D01*
X106104774Y-81401898D01*
X106182795Y-81590256D01*
X106296063Y-81759774D01*
X106340001Y-81803712D01*
X106340000Y-82947679D01*
X106336324Y-82985002D01*
X106340000Y-83022324D01*
X106340000Y-83022334D01*
X106350997Y-83133987D01*
X106394454Y-83277248D01*
X106465026Y-83409278D01*
X106504871Y-83457828D01*
X106559999Y-83525003D01*
X106589003Y-83548806D01*
X110826200Y-87786004D01*
X110849998Y-87815002D01*
X110965723Y-87909975D01*
X111097752Y-87980547D01*
X111241013Y-88024004D01*
X111352666Y-88035001D01*
X111352674Y-88035001D01*
X111389999Y-88038677D01*
X111427324Y-88035001D01*
X118462677Y-88035001D01*
X118499999Y-88038677D01*
X118537321Y-88035001D01*
X118537332Y-88035001D01*
X118648985Y-88024004D01*
X118792246Y-87980547D01*
X118924275Y-87909975D01*
X119040000Y-87815002D01*
X119063803Y-87785998D01*
X120739802Y-86110000D01*
X120801939Y-86110000D01*
X121001898Y-86070226D01*
X121190256Y-85992205D01*
X121331152Y-85898061D01*
X122965000Y-85898061D01*
X122965000Y-86101939D01*
X123004774Y-86301898D01*
X123082795Y-86490256D01*
X123196063Y-86659774D01*
X123340226Y-86803937D01*
X123509744Y-86917205D01*
X123698102Y-86995226D01*
X123898061Y-87035000D01*
X124101939Y-87035000D01*
X124301898Y-86995226D01*
X124490256Y-86917205D01*
X124659774Y-86803937D01*
X124803937Y-86659774D01*
X124840001Y-86605801D01*
X124840000Y-92796289D01*
X124796063Y-92840226D01*
X124682795Y-93009744D01*
X124604774Y-93198102D01*
X124565000Y-93398061D01*
X124565000Y-93601939D01*
X124604774Y-93801898D01*
X124682795Y-93990256D01*
X124796063Y-94159774D01*
X124940226Y-94303937D01*
X125109744Y-94417205D01*
X125298102Y-94495226D01*
X125498061Y-94535000D01*
X125701939Y-94535000D01*
X125901898Y-94495226D01*
X126090256Y-94417205D01*
X126259774Y-94303937D01*
X126403937Y-94159774D01*
X126517205Y-93990256D01*
X126595226Y-93801898D01*
X126635000Y-93601939D01*
X126635000Y-93398061D01*
X126595226Y-93198102D01*
X126517205Y-93009744D01*
X126403937Y-92840226D01*
X126360000Y-92796289D01*
X126360000Y-82614801D01*
X126639802Y-82335000D01*
X126701939Y-82335000D01*
X126901898Y-82295226D01*
X127090256Y-82217205D01*
X127259774Y-82103937D01*
X127403937Y-81959774D01*
X127517205Y-81790256D01*
X127595226Y-81601898D01*
X127635000Y-81401939D01*
X127635000Y-81198061D01*
X127595226Y-80998102D01*
X127517205Y-80809744D01*
X127403937Y-80640226D01*
X127259774Y-80496063D01*
X127090256Y-80382795D01*
X126901898Y-80304774D01*
X126701939Y-80265000D01*
X126498061Y-80265000D01*
X126298102Y-80304774D01*
X126109744Y-80382795D01*
X126056290Y-80418512D01*
X126639802Y-79835000D01*
X126701939Y-79835000D01*
X126901898Y-79795226D01*
X127090256Y-79717205D01*
X127259774Y-79603937D01*
X127403937Y-79459774D01*
X127517205Y-79290256D01*
X127595226Y-79101898D01*
X127635000Y-78901939D01*
X127635000Y-78698061D01*
X127595226Y-78498102D01*
X127517205Y-78309744D01*
X127403937Y-78140226D01*
X127259774Y-77996063D01*
X127090256Y-77882795D01*
X126901898Y-77804774D01*
X126701939Y-77765000D01*
X126498061Y-77765000D01*
X126298102Y-77804774D01*
X126109744Y-77882795D01*
X125940226Y-77996063D01*
X125796063Y-78140226D01*
X125682795Y-78309744D01*
X125604774Y-78498102D01*
X125565000Y-78698061D01*
X125565000Y-78760198D01*
X123488998Y-80836201D01*
X123460000Y-80859999D01*
X123436202Y-80888997D01*
X123436201Y-80888998D01*
X123365026Y-80975724D01*
X123294454Y-81107754D01*
X123281332Y-81151014D01*
X123259136Y-81224188D01*
X123250998Y-81251015D01*
X123236324Y-81400000D01*
X123240001Y-81437332D01*
X123240000Y-85296289D01*
X123196063Y-85340226D01*
X123082795Y-85509744D01*
X123004774Y-85698102D01*
X122965000Y-85898061D01*
X121331152Y-85898061D01*
X121359774Y-85878937D01*
X121503937Y-85734774D01*
X121617205Y-85565256D01*
X121695226Y-85376898D01*
X121735000Y-85176939D01*
X121735000Y-84973061D01*
X121695226Y-84773102D01*
X121617205Y-84584744D01*
X121503937Y-84415226D01*
X121359774Y-84271063D01*
X121190256Y-84157795D01*
X121001898Y-84079774D01*
X120801939Y-84040000D01*
X120598061Y-84040000D01*
X120398102Y-84079774D01*
X120209744Y-84157795D01*
X120040226Y-84271063D01*
X119896063Y-84415226D01*
X119782795Y-84584744D01*
X119704774Y-84773102D01*
X119665000Y-84973061D01*
X119665000Y-85035198D01*
X118185198Y-86515001D01*
X117388072Y-86515001D01*
X117388072Y-83139731D01*
X120291689Y-80236114D01*
X120304774Y-80301898D01*
X120382795Y-80490256D01*
X120496063Y-80659774D01*
X120640226Y-80803937D01*
X120809744Y-80917205D01*
X120998102Y-80995226D01*
X121198061Y-81035000D01*
X121401939Y-81035000D01*
X121601898Y-80995226D01*
X121790256Y-80917205D01*
X121959774Y-80803937D01*
X122103937Y-80659774D01*
X122217205Y-80490256D01*
X122295226Y-80301898D01*
X122335000Y-80101939D01*
X122335000Y-80039801D01*
X122866058Y-79508743D01*
X122998061Y-79535000D01*
X123201939Y-79535000D01*
X123401898Y-79495226D01*
X123590256Y-79417205D01*
X123759774Y-79303937D01*
X123903937Y-79159774D01*
X124017205Y-78990256D01*
X124095226Y-78801898D01*
X124135000Y-78601939D01*
X124135000Y-78398061D01*
X124095226Y-78198102D01*
X124017205Y-78009744D01*
X123903937Y-77840226D01*
X123759774Y-77696063D01*
X123590256Y-77582795D01*
X123401898Y-77504774D01*
X123201939Y-77465000D01*
X123062804Y-77465000D01*
X127436005Y-73091799D01*
X127465002Y-73068002D01*
X127522401Y-72998061D01*
X127559975Y-72952278D01*
X127630547Y-72820248D01*
X127637265Y-72798102D01*
X127674004Y-72676987D01*
X127685001Y-72565334D01*
X127685001Y-72565324D01*
X127688677Y-72528001D01*
X127685001Y-72490679D01*
X127685001Y-62789321D01*
X127688677Y-62751998D01*
X127685001Y-62714675D01*
X127685001Y-62714666D01*
X127674004Y-62603013D01*
X127630547Y-62459752D01*
X127594464Y-62392246D01*
X127559975Y-62327722D01*
X127488800Y-62240996D01*
X127465002Y-62211998D01*
X127436004Y-62188200D01*
X121911805Y-56664002D01*
X121888002Y-56634998D01*
X121772277Y-56540025D01*
X121640248Y-56469453D01*
X121496987Y-56425996D01*
X121385334Y-56414999D01*
X121385323Y-56414999D01*
X121348001Y-56411323D01*
X121310679Y-56414999D01*
X118662323Y-56414999D01*
X118625000Y-56411323D01*
X118587677Y-56414999D01*
X118587668Y-56414999D01*
X118476015Y-56425996D01*
X118332754Y-56469453D01*
X118200725Y-56540025D01*
X118200723Y-56540026D01*
X118200724Y-56540026D01*
X118113997Y-56611200D01*
X118113993Y-56611204D01*
X118085000Y-56634998D01*
X118061206Y-56663991D01*
X117388072Y-57337126D01*
X117388072Y-56250000D01*
X117375812Y-56125518D01*
X117339502Y-56005820D01*
X117280537Y-55895506D01*
X117201185Y-55798815D01*
X117104494Y-55719463D01*
X116994180Y-55660498D01*
X116874482Y-55624188D01*
X116750000Y-55611928D01*
X114191071Y-55611928D01*
X114195226Y-55601898D01*
X114200769Y-55574032D01*
X117639802Y-52135000D01*
X117701939Y-52135000D01*
X117901898Y-52095226D01*
X118090256Y-52017205D01*
X118259774Y-51903937D01*
X118403937Y-51759774D01*
X118517205Y-51590256D01*
X118595226Y-51401898D01*
X118635000Y-51201939D01*
X118635000Y-50998061D01*
X118595226Y-50798102D01*
X118517205Y-50609744D01*
X118403937Y-50440226D01*
X118259774Y-50296063D01*
X118090256Y-50182795D01*
X117901898Y-50104774D01*
X117701939Y-50065000D01*
X117498061Y-50065000D01*
X117298102Y-50104774D01*
X117109744Y-50182795D01*
X116940226Y-50296063D01*
X116796063Y-50440226D01*
X116682795Y-50609744D01*
X116604774Y-50798102D01*
X116565000Y-50998061D01*
X116565000Y-51060198D01*
X116374456Y-51250743D01*
X116289775Y-51166062D01*
X116120257Y-51052794D01*
X115931899Y-50974773D01*
X115731940Y-50934999D01*
X115528062Y-50934999D01*
X115328103Y-50974773D01*
X115139745Y-51052794D01*
X114970227Y-51166062D01*
X114919038Y-51217251D01*
X114881015Y-51220996D01*
X114737754Y-51264453D01*
X114605724Y-51335025D01*
X114536000Y-51392247D01*
X114490000Y-51429998D01*
X114466202Y-51458996D01*
X112060199Y-53865000D01*
X111998061Y-53865000D01*
X111798102Y-53904774D01*
X111609744Y-53982795D01*
X111440226Y-54096063D01*
X111296063Y-54240226D01*
X111182795Y-54409744D01*
X111104774Y-54598102D01*
X111065000Y-54798061D01*
X111065000Y-55001939D01*
X111104774Y-55201898D01*
X111182795Y-55390256D01*
X111296063Y-55559774D01*
X111399933Y-55663644D01*
X111295506Y-55719463D01*
X111198815Y-55798815D01*
X111119463Y-55895506D01*
X111060498Y-56005820D01*
X111024188Y-56125518D01*
X111011928Y-56250000D01*
X111011928Y-60915001D01*
X110362321Y-60915001D01*
X110324998Y-60911325D01*
X110287675Y-60915001D01*
X110287666Y-60915001D01*
X110176013Y-60925998D01*
X110032752Y-60969455D01*
X109900723Y-61040027D01*
X109870293Y-61065000D01*
X109798061Y-61065000D01*
X109598102Y-61104774D01*
X109409744Y-61182795D01*
X109240226Y-61296063D01*
X109096063Y-61440226D01*
X108982795Y-61609744D01*
X108904774Y-61798102D01*
X108865000Y-61998061D01*
X108865000Y-62201939D01*
X108904774Y-62401898D01*
X108982795Y-62590256D01*
X109096063Y-62759774D01*
X109240226Y-62903937D01*
X109409744Y-63017205D01*
X109598102Y-63095226D01*
X109798061Y-63135000D01*
X109809459Y-63135000D01*
X109086024Y-63497814D01*
X108671590Y-63774730D01*
X107627775Y-64848170D01*
X114200000Y-71420395D01*
X114214143Y-71406253D01*
X114393748Y-71585858D01*
X114379605Y-71600000D01*
X114393748Y-71614143D01*
X114214143Y-71793748D01*
X114200000Y-71779605D01*
X107627775Y-78351830D01*
X108671590Y-79425270D01*
X110304451Y-80353449D01*
X112087016Y-80945238D01*
X113950782Y-81177894D01*
X115824125Y-81042478D01*
X117635054Y-80544192D01*
X118034173Y-80344027D01*
X117074676Y-81303525D01*
X116994180Y-81260498D01*
X116874482Y-81224188D01*
X116750000Y-81211928D01*
X111650000Y-81211928D01*
X111525518Y-81224188D01*
X111405820Y-81260498D01*
X111295506Y-81319463D01*
X111198815Y-81398815D01*
X111119463Y-81495506D01*
X111060498Y-81605820D01*
X111024188Y-81725518D01*
X111011928Y-81850000D01*
X111011928Y-85822128D01*
X107860000Y-82670201D01*
X107860000Y-81803711D01*
X107903937Y-81759774D01*
X108017205Y-81590256D01*
X108095226Y-81401898D01*
X108135000Y-81201939D01*
X108135000Y-80998061D01*
X108095226Y-80798102D01*
X108017205Y-80609744D01*
X107903937Y-80440226D01*
X107759774Y-80296063D01*
X107590256Y-80182795D01*
X107401898Y-80104774D01*
X107201939Y-80065000D01*
X106998061Y-80065000D01*
X106798102Y-80104774D01*
X106609744Y-80182795D01*
X106440226Y-80296063D01*
X106296063Y-80440226D01*
X106182795Y-80609744D01*
X106104774Y-80798102D01*
X106065000Y-80998061D01*
X103660000Y-80998061D01*
X103660000Y-71350782D01*
X104622106Y-71350782D01*
X104757522Y-73224125D01*
X105255808Y-75035054D01*
X106097814Y-76713976D01*
X106374730Y-77128410D01*
X107448170Y-78172225D01*
X114020395Y-71600000D01*
X107448170Y-65027775D01*
X106374730Y-66071590D01*
X105446551Y-67704451D01*
X104854762Y-69487016D01*
X104622106Y-71350782D01*
X103660000Y-71350782D01*
X103660000Y-48627000D01*
X132340000Y-48627000D01*
X132340001Y-86450801D01*
M02*
