G04 #@! TF.GenerationSoftware,KiCad,Pcbnew,(5.1.2-1)-1*
G04 #@! TF.CreationDate,2021-02-24T07:54:15+01:00*
G04 #@! TF.ProjectId,parasite,70617261-7369-4746-952e-6b696361645f,1.1.0*
G04 #@! TF.SameCoordinates,Original*
G04 #@! TF.FileFunction,Legend,Bot*
G04 #@! TF.FilePolarity,Positive*
%FSLAX46Y46*%
G04 Gerber Fmt 4.6, Leading zero omitted, Abs format (unit mm)*
G04 Created by KiCad (PCBNEW (5.1.2-1)-1) date 2021-02-24 07:54:15*
%MOMM*%
%LPD*%
G04 APERTURE LIST*
%ADD10C,0.100000*%
%ADD11C,0.200000*%
%ADD12C,0.120000*%
%ADD13C,0.010000*%
%ADD14C,0.150000*%
G04 APERTURE END LIST*
D10*
X129121428Y-86150000D02*
X130621428Y-86150000D01*
X130621428Y-85792857D01*
X130550000Y-85578571D01*
X130407142Y-85435714D01*
X130264285Y-85364285D01*
X129978571Y-85292857D01*
X129764285Y-85292857D01*
X129478571Y-85364285D01*
X129335714Y-85435714D01*
X129192857Y-85578571D01*
X129121428Y-85792857D01*
X129121428Y-86150000D01*
X129121428Y-84435714D02*
X129192857Y-84578571D01*
X129264285Y-84650000D01*
X129407142Y-84721428D01*
X129835714Y-84721428D01*
X129978571Y-84650000D01*
X130050000Y-84578571D01*
X130121428Y-84435714D01*
X130121428Y-84221428D01*
X130050000Y-84078571D01*
X129978571Y-84007142D01*
X129835714Y-83935714D01*
X129407142Y-83935714D01*
X129264285Y-84007142D01*
X129192857Y-84078571D01*
X129121428Y-84221428D01*
X129121428Y-84435714D01*
X130121428Y-82650000D02*
X129121428Y-82650000D01*
X130121428Y-83292857D02*
X129335714Y-83292857D01*
X129192857Y-83221428D01*
X129121428Y-83078571D01*
X129121428Y-82864285D01*
X129192857Y-82721428D01*
X129264285Y-82650000D01*
X129121428Y-81935714D02*
X130621428Y-81935714D01*
X130050000Y-81935714D02*
X130121428Y-81792857D01*
X130121428Y-81507142D01*
X130050000Y-81364285D01*
X129978571Y-81292857D01*
X129835714Y-81221428D01*
X129407142Y-81221428D01*
X129264285Y-81292857D01*
X129192857Y-81364285D01*
X129121428Y-81507142D01*
X129121428Y-81792857D01*
X129192857Y-81935714D01*
X129121428Y-80364285D02*
X129192857Y-80507142D01*
X129335714Y-80578571D01*
X130621428Y-80578571D01*
X129192857Y-79221428D02*
X129121428Y-79364285D01*
X129121428Y-79650000D01*
X129192857Y-79792857D01*
X129335714Y-79864285D01*
X129907142Y-79864285D01*
X130050000Y-79792857D01*
X130121428Y-79650000D01*
X130121428Y-79364285D01*
X130050000Y-79221428D01*
X129907142Y-79150000D01*
X129764285Y-79150000D01*
X129621428Y-79864285D01*
X129192857Y-76721428D02*
X129121428Y-76864285D01*
X129121428Y-77150000D01*
X129192857Y-77292857D01*
X129264285Y-77364285D01*
X129407142Y-77435714D01*
X129835714Y-77435714D01*
X129978571Y-77364285D01*
X130050000Y-77292857D01*
X130121428Y-77150000D01*
X130121428Y-76864285D01*
X130050000Y-76721428D01*
X129121428Y-76078571D02*
X130621428Y-76078571D01*
X129121428Y-75435714D02*
X129907142Y-75435714D01*
X130050000Y-75507142D01*
X130121428Y-75649999D01*
X130121428Y-75864285D01*
X130050000Y-76007142D01*
X129978571Y-76078571D01*
X129192857Y-74149999D02*
X129121428Y-74292857D01*
X129121428Y-74578571D01*
X129192857Y-74721428D01*
X129335714Y-74792857D01*
X129907142Y-74792857D01*
X130050000Y-74721428D01*
X130121428Y-74578571D01*
X130121428Y-74292857D01*
X130050000Y-74149999D01*
X129907142Y-74078571D01*
X129764285Y-74078571D01*
X129621428Y-74792857D01*
X129192857Y-72792857D02*
X129121428Y-72935714D01*
X129121428Y-73221428D01*
X129192857Y-73364285D01*
X129264285Y-73435714D01*
X129407142Y-73507142D01*
X129835714Y-73507142D01*
X129978571Y-73435714D01*
X130050000Y-73364285D01*
X130121428Y-73221428D01*
X130121428Y-72935714D01*
X130050000Y-72792857D01*
X129121428Y-72149999D02*
X130621428Y-72149999D01*
X129692857Y-72007142D02*
X129121428Y-71578571D01*
X130121428Y-71578571D02*
X129550000Y-72149999D01*
X130121428Y-70007142D02*
X130121428Y-69435714D01*
X130621428Y-69792857D02*
X129335714Y-69792857D01*
X129192857Y-69721428D01*
X129121428Y-69578571D01*
X129121428Y-69435714D01*
X129121428Y-68935714D02*
X130621428Y-68935714D01*
X129121428Y-68292857D02*
X129907142Y-68292857D01*
X130050000Y-68364285D01*
X130121428Y-68507142D01*
X130121428Y-68721428D01*
X130050000Y-68864285D01*
X129978571Y-68935714D01*
X129192857Y-67007142D02*
X129121428Y-67149999D01*
X129121428Y-67435714D01*
X129192857Y-67578571D01*
X129335714Y-67649999D01*
X129907142Y-67649999D01*
X130050000Y-67578571D01*
X130121428Y-67435714D01*
X130121428Y-67149999D01*
X130050000Y-67007142D01*
X129907142Y-66935714D01*
X129764285Y-66935714D01*
X129621428Y-67649999D01*
X130121428Y-65149999D02*
X128621428Y-65149999D01*
X130050000Y-65149999D02*
X130121428Y-65007142D01*
X130121428Y-64721428D01*
X130050000Y-64578571D01*
X129978571Y-64507142D01*
X129835714Y-64435714D01*
X129407142Y-64435714D01*
X129264285Y-64507142D01*
X129192857Y-64578571D01*
X129121428Y-64721428D01*
X129121428Y-65007142D01*
X129192857Y-65149999D01*
X129121428Y-63578571D02*
X129192857Y-63721428D01*
X129264285Y-63792857D01*
X129407142Y-63864285D01*
X129835714Y-63864285D01*
X129978571Y-63792857D01*
X130050000Y-63721428D01*
X130121428Y-63578571D01*
X130121428Y-63364285D01*
X130050000Y-63221428D01*
X129978571Y-63149999D01*
X129835714Y-63078571D01*
X129407142Y-63078571D01*
X129264285Y-63149999D01*
X129192857Y-63221428D01*
X129121428Y-63364285D01*
X129121428Y-63578571D01*
X129121428Y-62221428D02*
X129192857Y-62364285D01*
X129335714Y-62435714D01*
X130621428Y-62435714D01*
X129121428Y-61007142D02*
X129907142Y-61007142D01*
X130050000Y-61078571D01*
X130121428Y-61221428D01*
X130121428Y-61507142D01*
X130050000Y-61649999D01*
X129192857Y-61007142D02*
X129121428Y-61149999D01*
X129121428Y-61507142D01*
X129192857Y-61649999D01*
X129335714Y-61721428D01*
X129478571Y-61721428D01*
X129621428Y-61649999D01*
X129692857Y-61507142D01*
X129692857Y-61149999D01*
X129764285Y-61007142D01*
X129121428Y-60292857D02*
X130121428Y-60292857D01*
X129835714Y-60292857D02*
X129978571Y-60221428D01*
X130050000Y-60149999D01*
X130121428Y-60007142D01*
X130121428Y-59864285D01*
X129121428Y-59364285D02*
X130121428Y-59364285D01*
X130621428Y-59364285D02*
X130550000Y-59435714D01*
X130478571Y-59364285D01*
X130550000Y-59292857D01*
X130621428Y-59364285D01*
X130478571Y-59364285D01*
X130121428Y-58864285D02*
X130121428Y-58292857D01*
X130621428Y-58649999D02*
X129335714Y-58649999D01*
X129192857Y-58578571D01*
X129121428Y-58435714D01*
X129121428Y-58292857D01*
X130121428Y-57935714D02*
X129121428Y-57578571D01*
X130121428Y-57221428D02*
X129121428Y-57578571D01*
X128764285Y-57721428D01*
X128692857Y-57792857D01*
X128621428Y-57935714D01*
X129264285Y-56649999D02*
X129192857Y-56578571D01*
X129121428Y-56649999D01*
X129192857Y-56721428D01*
X129264285Y-56649999D01*
X129121428Y-56649999D01*
X129692857Y-56649999D02*
X130550000Y-56721428D01*
X130621428Y-56649999D01*
X130550000Y-56578571D01*
X129692857Y-56649999D01*
X130621428Y-56649999D01*
D11*
X119266666Y-43685714D02*
X119266666Y-44685714D01*
X119266666Y-43733333D02*
X119171428Y-43685714D01*
X118980952Y-43685714D01*
X118885714Y-43733333D01*
X118838095Y-43780952D01*
X118790476Y-43876190D01*
X118790476Y-44161904D01*
X118838095Y-44257142D01*
X118885714Y-44304761D01*
X118980952Y-44352380D01*
X119171428Y-44352380D01*
X119266666Y-44304761D01*
X117933333Y-44352380D02*
X117933333Y-43828571D01*
X117980952Y-43733333D01*
X118076190Y-43685714D01*
X118266666Y-43685714D01*
X118361904Y-43733333D01*
X117933333Y-44304761D02*
X118028571Y-44352380D01*
X118266666Y-44352380D01*
X118361904Y-44304761D01*
X118409523Y-44209523D01*
X118409523Y-44114285D01*
X118361904Y-44019047D01*
X118266666Y-43971428D01*
X118028571Y-43971428D01*
X117933333Y-43923809D01*
X117457142Y-44352380D02*
X117457142Y-43685714D01*
X117457142Y-43876190D02*
X117409523Y-43780952D01*
X117361904Y-43733333D01*
X117266666Y-43685714D01*
X117171428Y-43685714D01*
X116409523Y-44352380D02*
X116409523Y-43828571D01*
X116457142Y-43733333D01*
X116552380Y-43685714D01*
X116742857Y-43685714D01*
X116838095Y-43733333D01*
X116409523Y-44304761D02*
X116504761Y-44352380D01*
X116742857Y-44352380D01*
X116838095Y-44304761D01*
X116885714Y-44209523D01*
X116885714Y-44114285D01*
X116838095Y-44019047D01*
X116742857Y-43971428D01*
X116504761Y-43971428D01*
X116409523Y-43923809D01*
X115980952Y-44304761D02*
X115885714Y-44352380D01*
X115695238Y-44352380D01*
X115600000Y-44304761D01*
X115552380Y-44209523D01*
X115552380Y-44161904D01*
X115600000Y-44066666D01*
X115695238Y-44019047D01*
X115838095Y-44019047D01*
X115933333Y-43971428D01*
X115980952Y-43876190D01*
X115980952Y-43828571D01*
X115933333Y-43733333D01*
X115838095Y-43685714D01*
X115695238Y-43685714D01*
X115600000Y-43733333D01*
X115123809Y-44352380D02*
X115123809Y-43685714D01*
X115123809Y-43352380D02*
X115171428Y-43400000D01*
X115123809Y-43447619D01*
X115076190Y-43400000D01*
X115123809Y-43352380D01*
X115123809Y-43447619D01*
X114790476Y-43685714D02*
X114409523Y-43685714D01*
X114647619Y-43352380D02*
X114647619Y-44209523D01*
X114600000Y-44304761D01*
X114504761Y-44352380D01*
X114409523Y-44352380D01*
X113695238Y-44304761D02*
X113790476Y-44352380D01*
X113980952Y-44352380D01*
X114076190Y-44304761D01*
X114123809Y-44209523D01*
X114123809Y-43828571D01*
X114076190Y-43733333D01*
X113980952Y-43685714D01*
X113790476Y-43685714D01*
X113695238Y-43733333D01*
X113647619Y-43828571D01*
X113647619Y-43923809D01*
X114123809Y-44019047D01*
X112742857Y-43352380D02*
X113219047Y-43352380D01*
X113266666Y-43828571D01*
X113219047Y-43780952D01*
X113123809Y-43733333D01*
X112885714Y-43733333D01*
X112790476Y-43780952D01*
X112742857Y-43828571D01*
X112695238Y-43923809D01*
X112695238Y-44161904D01*
X112742857Y-44257142D01*
X112790476Y-44304761D01*
X112885714Y-44352380D01*
X113123809Y-44352380D01*
X113219047Y-44304761D01*
X113266666Y-44257142D01*
X112314285Y-43447619D02*
X112266666Y-43400000D01*
X112171428Y-43352380D01*
X111933333Y-43352380D01*
X111838095Y-43400000D01*
X111790476Y-43447619D01*
X111742857Y-43542857D01*
X111742857Y-43638095D01*
X111790476Y-43780952D01*
X112361904Y-44352380D01*
X111742857Y-44352380D01*
X111171428Y-43780952D02*
X111266666Y-43733333D01*
X111314285Y-43685714D01*
X111361904Y-43590476D01*
X111361904Y-43542857D01*
X111314285Y-43447619D01*
X111266666Y-43400000D01*
X111171428Y-43352380D01*
X110980952Y-43352380D01*
X110885714Y-43400000D01*
X110838095Y-43447619D01*
X110790476Y-43542857D01*
X110790476Y-43590476D01*
X110838095Y-43685714D01*
X110885714Y-43733333D01*
X110980952Y-43780952D01*
X111171428Y-43780952D01*
X111266666Y-43828571D01*
X111314285Y-43876190D01*
X111361904Y-43971428D01*
X111361904Y-44161904D01*
X111314285Y-44257142D01*
X111266666Y-44304761D01*
X111171428Y-44352380D01*
X110980952Y-44352380D01*
X110885714Y-44304761D01*
X110838095Y-44257142D01*
X110790476Y-44161904D01*
X110790476Y-43971428D01*
X110838095Y-43876190D01*
X110885714Y-43828571D01*
X110980952Y-43780952D01*
X110457142Y-43352380D02*
X109838095Y-43352380D01*
X110171428Y-43733333D01*
X110028571Y-43733333D01*
X109933333Y-43780952D01*
X109885714Y-43828571D01*
X109838095Y-43923809D01*
X109838095Y-44161904D01*
X109885714Y-44257142D01*
X109933333Y-44304761D01*
X110028571Y-44352380D01*
X110314285Y-44352380D01*
X110409523Y-44304761D01*
X110457142Y-44257142D01*
X109457142Y-43447619D02*
X109409523Y-43400000D01*
X109314285Y-43352380D01*
X109076190Y-43352380D01*
X108980952Y-43400000D01*
X108933333Y-43447619D01*
X108885714Y-43542857D01*
X108885714Y-43638095D01*
X108933333Y-43780952D01*
X109504761Y-44352380D01*
X108885714Y-44352380D01*
X115242857Y-46052380D02*
X115814285Y-46052380D01*
X115528571Y-46052380D02*
X115528571Y-45052380D01*
X115623809Y-45195238D01*
X115719047Y-45290476D01*
X115814285Y-45338095D01*
X114814285Y-45957142D02*
X114766666Y-46004761D01*
X114814285Y-46052380D01*
X114861904Y-46004761D01*
X114814285Y-45957142D01*
X114814285Y-46052380D01*
X114147619Y-45052380D02*
X114052380Y-45052380D01*
X113957142Y-45100000D01*
X113909523Y-45147619D01*
X113861904Y-45242857D01*
X113814285Y-45433333D01*
X113814285Y-45671428D01*
X113861904Y-45861904D01*
X113909523Y-45957142D01*
X113957142Y-46004761D01*
X114052380Y-46052380D01*
X114147619Y-46052380D01*
X114242857Y-46004761D01*
X114290476Y-45957142D01*
X114338095Y-45861904D01*
X114385714Y-45671428D01*
X114385714Y-45433333D01*
X114338095Y-45242857D01*
X114290476Y-45147619D01*
X114242857Y-45100000D01*
X114147619Y-45052380D01*
X113385714Y-45957142D02*
X113338095Y-46004761D01*
X113385714Y-46052380D01*
X113433333Y-46004761D01*
X113385714Y-45957142D01*
X113385714Y-46052380D01*
X112719047Y-45052380D02*
X112623809Y-45052380D01*
X112528571Y-45100000D01*
X112480952Y-45147619D01*
X112433333Y-45242857D01*
X112385714Y-45433333D01*
X112385714Y-45671428D01*
X112433333Y-45861904D01*
X112480952Y-45957142D01*
X112528571Y-46004761D01*
X112623809Y-46052380D01*
X112719047Y-46052380D01*
X112814285Y-46004761D01*
X112861904Y-45957142D01*
X112909523Y-45861904D01*
X112957142Y-45671428D01*
X112957142Y-45433333D01*
X112909523Y-45242857D01*
X112861904Y-45147619D01*
X112814285Y-45100000D01*
X112719047Y-45052380D01*
X117695238Y-47752380D02*
X117695238Y-47085714D01*
X117695238Y-47276190D02*
X117647619Y-47180952D01*
X117600000Y-47133333D01*
X117504761Y-47085714D01*
X117409523Y-47085714D01*
X117076190Y-47752380D02*
X117076190Y-46752380D01*
X117076190Y-47133333D02*
X116980952Y-47085714D01*
X116790476Y-47085714D01*
X116695238Y-47133333D01*
X116647619Y-47180952D01*
X116600000Y-47276190D01*
X116600000Y-47561904D01*
X116647619Y-47657142D01*
X116695238Y-47704761D01*
X116790476Y-47752380D01*
X116980952Y-47752380D01*
X117076190Y-47704761D01*
X115742857Y-47752380D02*
X115742857Y-47228571D01*
X115790476Y-47133333D01*
X115885714Y-47085714D01*
X116076190Y-47085714D01*
X116171428Y-47133333D01*
X115742857Y-47704761D02*
X115838095Y-47752380D01*
X116076190Y-47752380D01*
X116171428Y-47704761D01*
X116219047Y-47609523D01*
X116219047Y-47514285D01*
X116171428Y-47419047D01*
X116076190Y-47371428D01*
X115838095Y-47371428D01*
X115742857Y-47323809D01*
X115266666Y-47752380D02*
X115266666Y-47085714D01*
X115266666Y-47276190D02*
X115219047Y-47180952D01*
X115171428Y-47133333D01*
X115076190Y-47085714D01*
X114980952Y-47085714D01*
X114504761Y-47752380D02*
X114600000Y-47704761D01*
X114647619Y-47657142D01*
X114695238Y-47561904D01*
X114695238Y-47276190D01*
X114647619Y-47180952D01*
X114600000Y-47133333D01*
X114504761Y-47085714D01*
X114361904Y-47085714D01*
X114266666Y-47133333D01*
X114219047Y-47180952D01*
X114171428Y-47276190D01*
X114171428Y-47561904D01*
X114219047Y-47657142D01*
X114266666Y-47704761D01*
X114361904Y-47752380D01*
X114504761Y-47752380D01*
X113742857Y-47085714D02*
X113742857Y-47752380D01*
X113742857Y-47180952D02*
X113695238Y-47133333D01*
X113600000Y-47085714D01*
X113457142Y-47085714D01*
X113361904Y-47133333D01*
X113314285Y-47228571D01*
X113314285Y-47752380D01*
X112838095Y-47657142D02*
X112790476Y-47704761D01*
X112838095Y-47752380D01*
X112885714Y-47704761D01*
X112838095Y-47657142D01*
X112838095Y-47752380D01*
X112361904Y-47085714D02*
X112361904Y-47752380D01*
X112361904Y-47180952D02*
X112314285Y-47133333D01*
X112219047Y-47085714D01*
X112076190Y-47085714D01*
X111980952Y-47133333D01*
X111933333Y-47228571D01*
X111933333Y-47752380D01*
X111076190Y-47704761D02*
X111171428Y-47752380D01*
X111361904Y-47752380D01*
X111457142Y-47704761D01*
X111504761Y-47609523D01*
X111504761Y-47228571D01*
X111457142Y-47133333D01*
X111361904Y-47085714D01*
X111171428Y-47085714D01*
X111076190Y-47133333D01*
X111028571Y-47228571D01*
X111028571Y-47323809D01*
X111504761Y-47419047D01*
X110742857Y-47085714D02*
X110361904Y-47085714D01*
X110600000Y-46752380D02*
X110600000Y-47609523D01*
X110552380Y-47704761D01*
X110457142Y-47752380D01*
X110361904Y-47752380D01*
D12*
X106500000Y-99000000D02*
X129500000Y-99000000D01*
D13*
G36*
X124544186Y-42768931D02*
G01*
X124460365Y-43213555D01*
X124151080Y-43341053D01*
X123841794Y-43468551D01*
X123470754Y-43216246D01*
X123366843Y-43145996D01*
X123272913Y-43083272D01*
X123193348Y-43030938D01*
X123132530Y-42991857D01*
X123094843Y-42968893D01*
X123084579Y-42963942D01*
X123066090Y-42976676D01*
X123026580Y-43011882D01*
X122970478Y-43065062D01*
X122902213Y-43131718D01*
X122826214Y-43207354D01*
X122746908Y-43287472D01*
X122668725Y-43367574D01*
X122596093Y-43443164D01*
X122533441Y-43509745D01*
X122485197Y-43562818D01*
X122455790Y-43597887D01*
X122448759Y-43609623D01*
X122458877Y-43631260D01*
X122487241Y-43678662D01*
X122530871Y-43747193D01*
X122586782Y-43832215D01*
X122651994Y-43929093D01*
X122689781Y-43984350D01*
X122758657Y-44085248D01*
X122819860Y-44176299D01*
X122870422Y-44252970D01*
X122907372Y-44310728D01*
X122927742Y-44345043D01*
X122930803Y-44352254D01*
X122923864Y-44372748D01*
X122904949Y-44420513D01*
X122876913Y-44488832D01*
X122842609Y-44570989D01*
X122804891Y-44660270D01*
X122766613Y-44749958D01*
X122730630Y-44833338D01*
X122699794Y-44903694D01*
X122676961Y-44954310D01*
X122664983Y-44978471D01*
X122664276Y-44979422D01*
X122645469Y-44984036D01*
X122595382Y-44994328D01*
X122519207Y-45009287D01*
X122422135Y-45027901D01*
X122309357Y-45049159D01*
X122243558Y-45061418D01*
X122123050Y-45084362D01*
X122014203Y-45106195D01*
X121922524Y-45125722D01*
X121853519Y-45141748D01*
X121812696Y-45153079D01*
X121804489Y-45156674D01*
X121796452Y-45181006D01*
X121789967Y-45235959D01*
X121785030Y-45315108D01*
X121781636Y-45412026D01*
X121779782Y-45520287D01*
X121779462Y-45633465D01*
X121780673Y-45745135D01*
X121783410Y-45848868D01*
X121787669Y-45938241D01*
X121793445Y-46006826D01*
X121800733Y-46048197D01*
X121805105Y-46056810D01*
X121831236Y-46067133D01*
X121886607Y-46081892D01*
X121963893Y-46099352D01*
X122055770Y-46117780D01*
X122087842Y-46123741D01*
X122242476Y-46152066D01*
X122364625Y-46174876D01*
X122458327Y-46193080D01*
X122527616Y-46207583D01*
X122576529Y-46219292D01*
X122609103Y-46229115D01*
X122629372Y-46237956D01*
X122641374Y-46246724D01*
X122643053Y-46248457D01*
X122659816Y-46276371D01*
X122685386Y-46330695D01*
X122717212Y-46404777D01*
X122752740Y-46491965D01*
X122789417Y-46585608D01*
X122824689Y-46679052D01*
X122856004Y-46765647D01*
X122880807Y-46838740D01*
X122896546Y-46891678D01*
X122900668Y-46917811D01*
X122900324Y-46918726D01*
X122886359Y-46940086D01*
X122854678Y-46987084D01*
X122808609Y-47054827D01*
X122751482Y-47138423D01*
X122686627Y-47232982D01*
X122668157Y-47259854D01*
X122602301Y-47357275D01*
X122544350Y-47446163D01*
X122497462Y-47521412D01*
X122464793Y-47577920D01*
X122449500Y-47610581D01*
X122448759Y-47614593D01*
X122461608Y-47635684D01*
X122497112Y-47677464D01*
X122550707Y-47735445D01*
X122617829Y-47805135D01*
X122693913Y-47882045D01*
X122774396Y-47961683D01*
X122854713Y-48039561D01*
X122930301Y-48111186D01*
X122996595Y-48172070D01*
X123049031Y-48217721D01*
X123083045Y-48243650D01*
X123092455Y-48247883D01*
X123114357Y-48237912D01*
X123159200Y-48211020D01*
X123219679Y-48171736D01*
X123266211Y-48140117D01*
X123350525Y-48082098D01*
X123450374Y-48013784D01*
X123550527Y-47945579D01*
X123604373Y-47909075D01*
X123786629Y-47785800D01*
X123939619Y-47868520D01*
X124009318Y-47904759D01*
X124068586Y-47932926D01*
X124108689Y-47948991D01*
X124118897Y-47951226D01*
X124131171Y-47934722D01*
X124155387Y-47888082D01*
X124189737Y-47815609D01*
X124232412Y-47721606D01*
X124281606Y-47610374D01*
X124335510Y-47486215D01*
X124392316Y-47353432D01*
X124450218Y-47216327D01*
X124507407Y-47079202D01*
X124562076Y-46946358D01*
X124612416Y-46822098D01*
X124656620Y-46710725D01*
X124692881Y-46616539D01*
X124719391Y-46543844D01*
X124734342Y-46496941D01*
X124736746Y-46480833D01*
X124717689Y-46460286D01*
X124675964Y-46426933D01*
X124620294Y-46387702D01*
X124615622Y-46384599D01*
X124471736Y-46269423D01*
X124355717Y-46135053D01*
X124268570Y-45985784D01*
X124211301Y-45825913D01*
X124184914Y-45659737D01*
X124190415Y-45491552D01*
X124228810Y-45325655D01*
X124301105Y-45166342D01*
X124322374Y-45131487D01*
X124433004Y-44990737D01*
X124563698Y-44877714D01*
X124709936Y-44793003D01*
X124867192Y-44737194D01*
X125030943Y-44710874D01*
X125196667Y-44714630D01*
X125359838Y-44749050D01*
X125515935Y-44814723D01*
X125660433Y-44912235D01*
X125705131Y-44951813D01*
X125818888Y-45075703D01*
X125901782Y-45206124D01*
X125958644Y-45352315D01*
X125990313Y-45497088D01*
X125998131Y-45659860D01*
X125972062Y-45823440D01*
X125914755Y-45982298D01*
X125828856Y-46130906D01*
X125717014Y-46263735D01*
X125581877Y-46375256D01*
X125564117Y-46387011D01*
X125507850Y-46425508D01*
X125465077Y-46458863D01*
X125444628Y-46480160D01*
X125444331Y-46480833D01*
X125448721Y-46503871D01*
X125466124Y-46556157D01*
X125494732Y-46633390D01*
X125532735Y-46731268D01*
X125578326Y-46845491D01*
X125629697Y-46971758D01*
X125685038Y-47105767D01*
X125742542Y-47243218D01*
X125800399Y-47379808D01*
X125856802Y-47511237D01*
X125909942Y-47633205D01*
X125958010Y-47741409D01*
X125999199Y-47831549D01*
X126031699Y-47899323D01*
X126053703Y-47940430D01*
X126062564Y-47951226D01*
X126089640Y-47942819D01*
X126140303Y-47920272D01*
X126205817Y-47887613D01*
X126241841Y-47868520D01*
X126394832Y-47785800D01*
X126577088Y-47909075D01*
X126670125Y-47972228D01*
X126771985Y-48041727D01*
X126867438Y-48107165D01*
X126915250Y-48140117D01*
X126982495Y-48185273D01*
X127039436Y-48221057D01*
X127078646Y-48242938D01*
X127091381Y-48247563D01*
X127109917Y-48235085D01*
X127150941Y-48200252D01*
X127210475Y-48146678D01*
X127284542Y-48077983D01*
X127369165Y-47997781D01*
X127422685Y-47946286D01*
X127516319Y-47854286D01*
X127597241Y-47771999D01*
X127662177Y-47702945D01*
X127707858Y-47650644D01*
X127731011Y-47618616D01*
X127733232Y-47612116D01*
X127722924Y-47587394D01*
X127694439Y-47537405D01*
X127650937Y-47467212D01*
X127595577Y-47381875D01*
X127531520Y-47286456D01*
X127513303Y-47259854D01*
X127446927Y-47163167D01*
X127387378Y-47076117D01*
X127337984Y-47003595D01*
X127302075Y-46950493D01*
X127282981Y-46921703D01*
X127281136Y-46918726D01*
X127283895Y-46895782D01*
X127298538Y-46845336D01*
X127322513Y-46774041D01*
X127353266Y-46688547D01*
X127388244Y-46595507D01*
X127424893Y-46501574D01*
X127460661Y-46413399D01*
X127492994Y-46337634D01*
X127519338Y-46280931D01*
X127537142Y-46249943D01*
X127538407Y-46248457D01*
X127549294Y-46239601D01*
X127567682Y-46230843D01*
X127597606Y-46221277D01*
X127643103Y-46209996D01*
X127708209Y-46196093D01*
X127796961Y-46178663D01*
X127913393Y-46156798D01*
X128061542Y-46129591D01*
X128093618Y-46123741D01*
X128188686Y-46105374D01*
X128271565Y-46087405D01*
X128334930Y-46071569D01*
X128371458Y-46059600D01*
X128376356Y-46056810D01*
X128384427Y-46032072D01*
X128390987Y-45976790D01*
X128396033Y-45897389D01*
X128399559Y-45800296D01*
X128401561Y-45691938D01*
X128402036Y-45578740D01*
X128400977Y-45467128D01*
X128398382Y-45363529D01*
X128394246Y-45274368D01*
X128388563Y-45206072D01*
X128381331Y-45165066D01*
X128376971Y-45156674D01*
X128352698Y-45148208D01*
X128297426Y-45134435D01*
X128216662Y-45116550D01*
X128115912Y-45095748D01*
X128000683Y-45073223D01*
X127937902Y-45061418D01*
X127818787Y-45039151D01*
X127712565Y-45018979D01*
X127624427Y-45001915D01*
X127559566Y-44988969D01*
X127523174Y-44981155D01*
X127517184Y-44979422D01*
X127507061Y-44959890D01*
X127485662Y-44912843D01*
X127455839Y-44845003D01*
X127420445Y-44763091D01*
X127382332Y-44673828D01*
X127344353Y-44583935D01*
X127309360Y-44500135D01*
X127280206Y-44429147D01*
X127259743Y-44377694D01*
X127250823Y-44352497D01*
X127250657Y-44351396D01*
X127260769Y-44331519D01*
X127289117Y-44285777D01*
X127332723Y-44218717D01*
X127388606Y-44134884D01*
X127453787Y-44038826D01*
X127491679Y-43983650D01*
X127560725Y-43882481D01*
X127622050Y-43790630D01*
X127672663Y-43712744D01*
X127709571Y-43653469D01*
X127729782Y-43617451D01*
X127732701Y-43609377D01*
X127720153Y-43590584D01*
X127685463Y-43550457D01*
X127633063Y-43493493D01*
X127567384Y-43424185D01*
X127492856Y-43347031D01*
X127413913Y-43266525D01*
X127334983Y-43187163D01*
X127260500Y-43113440D01*
X127194894Y-43049852D01*
X127142596Y-43000894D01*
X127108039Y-42971061D01*
X127096478Y-42963942D01*
X127077654Y-42973953D01*
X127032631Y-43002078D01*
X126965787Y-43045454D01*
X126881499Y-43101218D01*
X126784144Y-43166506D01*
X126710707Y-43216246D01*
X126339667Y-43468551D01*
X125721095Y-43213555D01*
X125637275Y-42768931D01*
X125553454Y-42324307D01*
X124628006Y-42324307D01*
X124544186Y-42768931D01*
X124544186Y-42768931D01*
G37*
X124544186Y-42768931D02*
X124460365Y-43213555D01*
X124151080Y-43341053D01*
X123841794Y-43468551D01*
X123470754Y-43216246D01*
X123366843Y-43145996D01*
X123272913Y-43083272D01*
X123193348Y-43030938D01*
X123132530Y-42991857D01*
X123094843Y-42968893D01*
X123084579Y-42963942D01*
X123066090Y-42976676D01*
X123026580Y-43011882D01*
X122970478Y-43065062D01*
X122902213Y-43131718D01*
X122826214Y-43207354D01*
X122746908Y-43287472D01*
X122668725Y-43367574D01*
X122596093Y-43443164D01*
X122533441Y-43509745D01*
X122485197Y-43562818D01*
X122455790Y-43597887D01*
X122448759Y-43609623D01*
X122458877Y-43631260D01*
X122487241Y-43678662D01*
X122530871Y-43747193D01*
X122586782Y-43832215D01*
X122651994Y-43929093D01*
X122689781Y-43984350D01*
X122758657Y-44085248D01*
X122819860Y-44176299D01*
X122870422Y-44252970D01*
X122907372Y-44310728D01*
X122927742Y-44345043D01*
X122930803Y-44352254D01*
X122923864Y-44372748D01*
X122904949Y-44420513D01*
X122876913Y-44488832D01*
X122842609Y-44570989D01*
X122804891Y-44660270D01*
X122766613Y-44749958D01*
X122730630Y-44833338D01*
X122699794Y-44903694D01*
X122676961Y-44954310D01*
X122664983Y-44978471D01*
X122664276Y-44979422D01*
X122645469Y-44984036D01*
X122595382Y-44994328D01*
X122519207Y-45009287D01*
X122422135Y-45027901D01*
X122309357Y-45049159D01*
X122243558Y-45061418D01*
X122123050Y-45084362D01*
X122014203Y-45106195D01*
X121922524Y-45125722D01*
X121853519Y-45141748D01*
X121812696Y-45153079D01*
X121804489Y-45156674D01*
X121796452Y-45181006D01*
X121789967Y-45235959D01*
X121785030Y-45315108D01*
X121781636Y-45412026D01*
X121779782Y-45520287D01*
X121779462Y-45633465D01*
X121780673Y-45745135D01*
X121783410Y-45848868D01*
X121787669Y-45938241D01*
X121793445Y-46006826D01*
X121800733Y-46048197D01*
X121805105Y-46056810D01*
X121831236Y-46067133D01*
X121886607Y-46081892D01*
X121963893Y-46099352D01*
X122055770Y-46117780D01*
X122087842Y-46123741D01*
X122242476Y-46152066D01*
X122364625Y-46174876D01*
X122458327Y-46193080D01*
X122527616Y-46207583D01*
X122576529Y-46219292D01*
X122609103Y-46229115D01*
X122629372Y-46237956D01*
X122641374Y-46246724D01*
X122643053Y-46248457D01*
X122659816Y-46276371D01*
X122685386Y-46330695D01*
X122717212Y-46404777D01*
X122752740Y-46491965D01*
X122789417Y-46585608D01*
X122824689Y-46679052D01*
X122856004Y-46765647D01*
X122880807Y-46838740D01*
X122896546Y-46891678D01*
X122900668Y-46917811D01*
X122900324Y-46918726D01*
X122886359Y-46940086D01*
X122854678Y-46987084D01*
X122808609Y-47054827D01*
X122751482Y-47138423D01*
X122686627Y-47232982D01*
X122668157Y-47259854D01*
X122602301Y-47357275D01*
X122544350Y-47446163D01*
X122497462Y-47521412D01*
X122464793Y-47577920D01*
X122449500Y-47610581D01*
X122448759Y-47614593D01*
X122461608Y-47635684D01*
X122497112Y-47677464D01*
X122550707Y-47735445D01*
X122617829Y-47805135D01*
X122693913Y-47882045D01*
X122774396Y-47961683D01*
X122854713Y-48039561D01*
X122930301Y-48111186D01*
X122996595Y-48172070D01*
X123049031Y-48217721D01*
X123083045Y-48243650D01*
X123092455Y-48247883D01*
X123114357Y-48237912D01*
X123159200Y-48211020D01*
X123219679Y-48171736D01*
X123266211Y-48140117D01*
X123350525Y-48082098D01*
X123450374Y-48013784D01*
X123550527Y-47945579D01*
X123604373Y-47909075D01*
X123786629Y-47785800D01*
X123939619Y-47868520D01*
X124009318Y-47904759D01*
X124068586Y-47932926D01*
X124108689Y-47948991D01*
X124118897Y-47951226D01*
X124131171Y-47934722D01*
X124155387Y-47888082D01*
X124189737Y-47815609D01*
X124232412Y-47721606D01*
X124281606Y-47610374D01*
X124335510Y-47486215D01*
X124392316Y-47353432D01*
X124450218Y-47216327D01*
X124507407Y-47079202D01*
X124562076Y-46946358D01*
X124612416Y-46822098D01*
X124656620Y-46710725D01*
X124692881Y-46616539D01*
X124719391Y-46543844D01*
X124734342Y-46496941D01*
X124736746Y-46480833D01*
X124717689Y-46460286D01*
X124675964Y-46426933D01*
X124620294Y-46387702D01*
X124615622Y-46384599D01*
X124471736Y-46269423D01*
X124355717Y-46135053D01*
X124268570Y-45985784D01*
X124211301Y-45825913D01*
X124184914Y-45659737D01*
X124190415Y-45491552D01*
X124228810Y-45325655D01*
X124301105Y-45166342D01*
X124322374Y-45131487D01*
X124433004Y-44990737D01*
X124563698Y-44877714D01*
X124709936Y-44793003D01*
X124867192Y-44737194D01*
X125030943Y-44710874D01*
X125196667Y-44714630D01*
X125359838Y-44749050D01*
X125515935Y-44814723D01*
X125660433Y-44912235D01*
X125705131Y-44951813D01*
X125818888Y-45075703D01*
X125901782Y-45206124D01*
X125958644Y-45352315D01*
X125990313Y-45497088D01*
X125998131Y-45659860D01*
X125972062Y-45823440D01*
X125914755Y-45982298D01*
X125828856Y-46130906D01*
X125717014Y-46263735D01*
X125581877Y-46375256D01*
X125564117Y-46387011D01*
X125507850Y-46425508D01*
X125465077Y-46458863D01*
X125444628Y-46480160D01*
X125444331Y-46480833D01*
X125448721Y-46503871D01*
X125466124Y-46556157D01*
X125494732Y-46633390D01*
X125532735Y-46731268D01*
X125578326Y-46845491D01*
X125629697Y-46971758D01*
X125685038Y-47105767D01*
X125742542Y-47243218D01*
X125800399Y-47379808D01*
X125856802Y-47511237D01*
X125909942Y-47633205D01*
X125958010Y-47741409D01*
X125999199Y-47831549D01*
X126031699Y-47899323D01*
X126053703Y-47940430D01*
X126062564Y-47951226D01*
X126089640Y-47942819D01*
X126140303Y-47920272D01*
X126205817Y-47887613D01*
X126241841Y-47868520D01*
X126394832Y-47785800D01*
X126577088Y-47909075D01*
X126670125Y-47972228D01*
X126771985Y-48041727D01*
X126867438Y-48107165D01*
X126915250Y-48140117D01*
X126982495Y-48185273D01*
X127039436Y-48221057D01*
X127078646Y-48242938D01*
X127091381Y-48247563D01*
X127109917Y-48235085D01*
X127150941Y-48200252D01*
X127210475Y-48146678D01*
X127284542Y-48077983D01*
X127369165Y-47997781D01*
X127422685Y-47946286D01*
X127516319Y-47854286D01*
X127597241Y-47771999D01*
X127662177Y-47702945D01*
X127707858Y-47650644D01*
X127731011Y-47618616D01*
X127733232Y-47612116D01*
X127722924Y-47587394D01*
X127694439Y-47537405D01*
X127650937Y-47467212D01*
X127595577Y-47381875D01*
X127531520Y-47286456D01*
X127513303Y-47259854D01*
X127446927Y-47163167D01*
X127387378Y-47076117D01*
X127337984Y-47003595D01*
X127302075Y-46950493D01*
X127282981Y-46921703D01*
X127281136Y-46918726D01*
X127283895Y-46895782D01*
X127298538Y-46845336D01*
X127322513Y-46774041D01*
X127353266Y-46688547D01*
X127388244Y-46595507D01*
X127424893Y-46501574D01*
X127460661Y-46413399D01*
X127492994Y-46337634D01*
X127519338Y-46280931D01*
X127537142Y-46249943D01*
X127538407Y-46248457D01*
X127549294Y-46239601D01*
X127567682Y-46230843D01*
X127597606Y-46221277D01*
X127643103Y-46209996D01*
X127708209Y-46196093D01*
X127796961Y-46178663D01*
X127913393Y-46156798D01*
X128061542Y-46129591D01*
X128093618Y-46123741D01*
X128188686Y-46105374D01*
X128271565Y-46087405D01*
X128334930Y-46071569D01*
X128371458Y-46059600D01*
X128376356Y-46056810D01*
X128384427Y-46032072D01*
X128390987Y-45976790D01*
X128396033Y-45897389D01*
X128399559Y-45800296D01*
X128401561Y-45691938D01*
X128402036Y-45578740D01*
X128400977Y-45467128D01*
X128398382Y-45363529D01*
X128394246Y-45274368D01*
X128388563Y-45206072D01*
X128381331Y-45165066D01*
X128376971Y-45156674D01*
X128352698Y-45148208D01*
X128297426Y-45134435D01*
X128216662Y-45116550D01*
X128115912Y-45095748D01*
X128000683Y-45073223D01*
X127937902Y-45061418D01*
X127818787Y-45039151D01*
X127712565Y-45018979D01*
X127624427Y-45001915D01*
X127559566Y-44988969D01*
X127523174Y-44981155D01*
X127517184Y-44979422D01*
X127507061Y-44959890D01*
X127485662Y-44912843D01*
X127455839Y-44845003D01*
X127420445Y-44763091D01*
X127382332Y-44673828D01*
X127344353Y-44583935D01*
X127309360Y-44500135D01*
X127280206Y-44429147D01*
X127259743Y-44377694D01*
X127250823Y-44352497D01*
X127250657Y-44351396D01*
X127260769Y-44331519D01*
X127289117Y-44285777D01*
X127332723Y-44218717D01*
X127388606Y-44134884D01*
X127453787Y-44038826D01*
X127491679Y-43983650D01*
X127560725Y-43882481D01*
X127622050Y-43790630D01*
X127672663Y-43712744D01*
X127709571Y-43653469D01*
X127729782Y-43617451D01*
X127732701Y-43609377D01*
X127720153Y-43590584D01*
X127685463Y-43550457D01*
X127633063Y-43493493D01*
X127567384Y-43424185D01*
X127492856Y-43347031D01*
X127413913Y-43266525D01*
X127334983Y-43187163D01*
X127260500Y-43113440D01*
X127194894Y-43049852D01*
X127142596Y-43000894D01*
X127108039Y-42971061D01*
X127096478Y-42963942D01*
X127077654Y-42973953D01*
X127032631Y-43002078D01*
X126965787Y-43045454D01*
X126881499Y-43101218D01*
X126784144Y-43166506D01*
X126710707Y-43216246D01*
X126339667Y-43468551D01*
X125721095Y-43213555D01*
X125637275Y-42768931D01*
X125553454Y-42324307D01*
X124628006Y-42324307D01*
X124544186Y-42768931D01*
D12*
X120250000Y-60800000D02*
X125050000Y-67650000D01*
X125050000Y-67650000D02*
X125050000Y-75550000D01*
X125050000Y-75550000D02*
X120250000Y-82350000D01*
X104700000Y-61050000D02*
X104700000Y-67750000D01*
X104698536Y-67753615D02*
G75*
G03X104700000Y-75450000I9501464J-3846385D01*
G01*
X104700000Y-82150000D02*
X104700000Y-75450000D01*
X111450000Y-60850000D02*
X111450000Y-56050000D01*
X111450000Y-56050000D02*
X116950000Y-56050000D01*
X116950000Y-56050000D02*
X116950000Y-60850000D01*
X116950000Y-82350000D02*
X116950000Y-87150000D01*
X116950000Y-87150000D02*
X111450000Y-87150000D01*
X111450000Y-87150000D02*
X111450000Y-82350000D01*
D14*
X123828571Y-61664285D02*
X123876190Y-61807142D01*
X123923809Y-61854761D01*
X124019047Y-61902380D01*
X124161904Y-61902380D01*
X124257142Y-61854761D01*
X124304761Y-61807142D01*
X124352380Y-61711904D01*
X124352380Y-61330952D01*
X123352380Y-61330952D01*
X123352380Y-61664285D01*
X123400000Y-61759523D01*
X123447619Y-61807142D01*
X123542857Y-61854761D01*
X123638095Y-61854761D01*
X123733333Y-61807142D01*
X123780952Y-61759523D01*
X123828571Y-61664285D01*
X123828571Y-61330952D01*
X123352380Y-62188095D02*
X123352380Y-62759523D01*
X124352380Y-62473809D02*
X123352380Y-62473809D01*
X124352380Y-63616666D02*
X124352380Y-63045238D01*
X124352380Y-63330952D02*
X123352380Y-63330952D01*
X123495238Y-63235714D01*
X123590476Y-63140476D01*
X123638095Y-63045238D01*
M02*
