G04 #@! TF.GenerationSoftware,KiCad,Pcbnew,(5.1.2-1)-1*
G04 #@! TF.CreationDate,2021-02-24T07:54:15+01:00*
G04 #@! TF.ProjectId,parasite,70617261-7369-4746-952e-6b696361645f,1.1.0*
G04 #@! TF.SameCoordinates,Original*
G04 #@! TF.FileFunction,Legend,Top*
G04 #@! TF.FilePolarity,Positive*
%FSLAX46Y46*%
G04 Gerber Fmt 4.6, Leading zero omitted, Abs format (unit mm)*
G04 Created by KiCad (PCBNEW (5.1.2-1)-1) date 2021-02-24 07:54:15*
%MOMM*%
%LPD*%
G04 APERTURE LIST*
%ADD10C,0.120000*%
%ADD11C,0.100000*%
%ADD12C,0.127000*%
%ADD13C,0.200000*%
%ADD14C,0.120124*%
%ADD15C,0.015000*%
%ADD16C,0.150000*%
%ADD17C,0.125000*%
G04 APERTURE END LIST*
D10*
X122682843Y-72600000D02*
G75*
G03X122682843Y-72600000I-282843J0D01*
G01*
X121382843Y-72600000D02*
G75*
G03X121382843Y-72600000I-282843J0D01*
G01*
X126082843Y-48900000D02*
G75*
G03X126082843Y-48900000I-282843J0D01*
G01*
X126082843Y-50100000D02*
G75*
G03X126082843Y-50100000I-282843J0D01*
G01*
X126082843Y-56600000D02*
G75*
G03X126082843Y-56600000I-282843J0D01*
G01*
X126082843Y-57800000D02*
G75*
G03X126082843Y-57800000I-282843J0D01*
G01*
X126082843Y-59100000D02*
G75*
G03X126082843Y-59100000I-282843J0D01*
G01*
X113782843Y-72600000D02*
G75*
G03X113782843Y-72600000I-282843J0D01*
G01*
X112482843Y-72600000D02*
G75*
G03X112482843Y-72600000I-282843J0D01*
G01*
X111182843Y-72600000D02*
G75*
G03X111182843Y-72600000I-282843J0D01*
G01*
X109882843Y-72600000D02*
G75*
G03X109882843Y-72600000I-282843J0D01*
G01*
X108682843Y-72600000D02*
G75*
G03X108682843Y-72600000I-282843J0D01*
G01*
X105182843Y-69200000D02*
G75*
G03X105182843Y-69200000I-282843J0D01*
G01*
X105182843Y-52700000D02*
G75*
G03X105182843Y-52700000I-282843J0D01*
G01*
X105182843Y-50100000D02*
G75*
G03X105182843Y-50100000I-282843J0D01*
G01*
X105182843Y-48900000D02*
G75*
G03X105182843Y-48900000I-282843J0D01*
G01*
X106500000Y-99000000D02*
X129500000Y-99000000D01*
D11*
X117800000Y-75700000D02*
G75*
G03X117800000Y-75700000I-100000J0D01*
G01*
D12*
X114950000Y-75750000D02*
X117450000Y-75750000D01*
X117450000Y-73250000D02*
X114950000Y-73250000D01*
X124150000Y-70950000D02*
X124150000Y-69925000D01*
X124150000Y-50875000D02*
X124150000Y-51975000D01*
X123105000Y-70950000D02*
X124150000Y-70950000D01*
X106650000Y-70950000D02*
X107695000Y-70950000D01*
X106650000Y-70950000D02*
X106650000Y-69925000D01*
X124150000Y-48165000D02*
X124150000Y-42250000D01*
X124150000Y-42250000D02*
X106650000Y-42250000D01*
X106650000Y-42250000D02*
X106650000Y-48165000D01*
X106650000Y-50875000D02*
X106650000Y-51975000D01*
D13*
X104700000Y-50100000D02*
G75*
G03X104700000Y-50100000I-100000J0D01*
G01*
X110840000Y-80740000D02*
G75*
G03X110840000Y-80740000I-100000J0D01*
G01*
D12*
X113399000Y-77340000D02*
X113399000Y-79140000D01*
X112449000Y-77340000D02*
X113399000Y-77340000D01*
X110281000Y-77340000D02*
X111231000Y-77340000D01*
X110281000Y-79140000D02*
X110281000Y-77340000D01*
D10*
X120910000Y-75196078D02*
X120910000Y-74678922D01*
X119490000Y-75196078D02*
X119490000Y-74678922D01*
X121690000Y-74641422D02*
X121690000Y-75158578D01*
X123110000Y-74641422D02*
X123110000Y-75158578D01*
X119290000Y-79803922D02*
X119290000Y-80321078D01*
X120710000Y-79803922D02*
X120710000Y-80321078D01*
X130240000Y-53340000D02*
G75*
G03X130240000Y-53340000I-700000J0D01*
G01*
X130240000Y-60960000D02*
G75*
G03X130240000Y-60960000I-700000J0D01*
G01*
X130240000Y-63500000D02*
G75*
G03X130240000Y-63500000I-700000J0D01*
G01*
X130240000Y-58420000D02*
G75*
G03X130240000Y-58420000I-700000J0D01*
G01*
X130240000Y-55880000D02*
G75*
G03X130240000Y-55880000I-700000J0D01*
G01*
X129403922Y-73410000D02*
X129921078Y-73410000D01*
X129403922Y-71990000D02*
X129921078Y-71990000D01*
X117200000Y-77700000D02*
X117200000Y-79100000D01*
X116500000Y-79800000D02*
X115900000Y-79800000D01*
X115200000Y-79100000D02*
X115200000Y-77700000D01*
X115900000Y-77000000D02*
X116500000Y-77000000D01*
X116500000Y-77000000D02*
G75*
G02X117200000Y-77700000I0J-700000D01*
G01*
X115200000Y-77700000D02*
G75*
G02X115900000Y-77000000I700000J0D01*
G01*
X115900000Y-79800000D02*
G75*
G02X115200000Y-79100000I0J700000D01*
G01*
X117200000Y-79100000D02*
G75*
G02X116500000Y-79800000I-700000J0D01*
G01*
X127935000Y-70105000D02*
X130620000Y-70105000D01*
X127935000Y-68185000D02*
X127935000Y-70105000D01*
X130620000Y-68185000D02*
X127935000Y-68185000D01*
X111580000Y-92740000D02*
X111580000Y-94200000D01*
X108420000Y-92740000D02*
X108420000Y-94900000D01*
X108420000Y-92740000D02*
X109350000Y-92740000D01*
X111580000Y-92740000D02*
X110650000Y-92740000D01*
X108530000Y-89240000D02*
X108530000Y-90700000D01*
X105370000Y-89240000D02*
X105370000Y-91400000D01*
X105370000Y-89240000D02*
X106300000Y-89240000D01*
X108530000Y-89240000D02*
X107600000Y-89240000D01*
X117741422Y-94210000D02*
X118258578Y-94210000D01*
X117741422Y-92790000D02*
X118258578Y-92790000D01*
X121410000Y-84396078D02*
X121410000Y-83878922D01*
X119990000Y-84396078D02*
X119990000Y-83878922D01*
X125600000Y-81300000D02*
X125600000Y-85600000D01*
X125600000Y-85600000D02*
X127600000Y-85600000D01*
X127600000Y-85600000D02*
X127600000Y-81300000D01*
X127310000Y-78121078D02*
X127310000Y-77603922D01*
X125890000Y-78121078D02*
X125890000Y-77603922D01*
X110910000Y-85003922D02*
X110910000Y-85521078D01*
X109490000Y-85003922D02*
X109490000Y-85521078D01*
X121410000Y-89558578D02*
X121410000Y-89041422D01*
X119990000Y-89558578D02*
X119990000Y-89041422D01*
X112710000Y-90196078D02*
X112710000Y-89678922D01*
X111290000Y-90196078D02*
X111290000Y-89678922D01*
X115990000Y-84396078D02*
X115990000Y-83878922D01*
X117410000Y-84396078D02*
X117410000Y-83878922D01*
X126300000Y-93500000D02*
G75*
G03X126300000Y-93500000I-700000J0D01*
G01*
X130240000Y-50800000D02*
G75*
G03X130240000Y-50800000I-700000J0D01*
G01*
X115990000Y-89621078D02*
X115990000Y-89103922D01*
X117410000Y-89621078D02*
X117410000Y-89103922D01*
D14*
X113252380Y-75161904D02*
X114061904Y-75161904D01*
X114157142Y-75114285D01*
X114204761Y-75066666D01*
X114252380Y-74971428D01*
X114252380Y-74780952D01*
X114204761Y-74685714D01*
X114157142Y-74638095D01*
X114061904Y-74590476D01*
X113252380Y-74590476D01*
X113347619Y-74161904D02*
X113300000Y-74114285D01*
X113252380Y-74019047D01*
X113252380Y-73780952D01*
X113300000Y-73685714D01*
X113347619Y-73638095D01*
X113442857Y-73590476D01*
X113538095Y-73590476D01*
X113680952Y-73638095D01*
X114252380Y-74209523D01*
X114252380Y-73590476D01*
D15*
X107813095Y-40677380D02*
X107813095Y-41486904D01*
X107860714Y-41582142D01*
X107908333Y-41629761D01*
X108003571Y-41677380D01*
X108194047Y-41677380D01*
X108289285Y-41629761D01*
X108336904Y-41582142D01*
X108384523Y-41486904D01*
X108384523Y-40677380D01*
X109384523Y-41677380D02*
X108813095Y-41677380D01*
X109098809Y-41677380D02*
X109098809Y-40677380D01*
X109003571Y-40820238D01*
X108908333Y-40915476D01*
X108813095Y-40963095D01*
D16*
X109212619Y-77700238D02*
X109165000Y-77795476D01*
X109069761Y-77890714D01*
X108926904Y-78033571D01*
X108879285Y-78128809D01*
X108879285Y-78224047D01*
X109117380Y-78176428D02*
X109069761Y-78271666D01*
X108974523Y-78366904D01*
X108784047Y-78414523D01*
X108450714Y-78414523D01*
X108260238Y-78366904D01*
X108165000Y-78271666D01*
X108117380Y-78176428D01*
X108117380Y-77985952D01*
X108165000Y-77890714D01*
X108260238Y-77795476D01*
X108450714Y-77747857D01*
X108784047Y-77747857D01*
X108974523Y-77795476D01*
X109069761Y-77890714D01*
X109117380Y-77985952D01*
X109117380Y-78176428D01*
X108117380Y-77414523D02*
X108117380Y-76795476D01*
X108498333Y-77128809D01*
X108498333Y-76985952D01*
X108545952Y-76890714D01*
X108593571Y-76843095D01*
X108688809Y-76795476D01*
X108926904Y-76795476D01*
X109022142Y-76843095D01*
X109069761Y-76890714D01*
X109117380Y-76985952D01*
X109117380Y-77271666D01*
X109069761Y-77366904D01*
X109022142Y-77414523D01*
X119002380Y-75104166D02*
X118526190Y-75437500D01*
X119002380Y-75675595D02*
X118002380Y-75675595D01*
X118002380Y-75294642D01*
X118050000Y-75199404D01*
X118097619Y-75151785D01*
X118192857Y-75104166D01*
X118335714Y-75104166D01*
X118430952Y-75151785D01*
X118478571Y-75199404D01*
X118526190Y-75294642D01*
X118526190Y-75675595D01*
X118430952Y-74532738D02*
X118383333Y-74627976D01*
X118335714Y-74675595D01*
X118240476Y-74723214D01*
X118192857Y-74723214D01*
X118097619Y-74675595D01*
X118050000Y-74627976D01*
X118002380Y-74532738D01*
X118002380Y-74342261D01*
X118050000Y-74247023D01*
X118097619Y-74199404D01*
X118192857Y-74151785D01*
X118240476Y-74151785D01*
X118335714Y-74199404D01*
X118383333Y-74247023D01*
X118430952Y-74342261D01*
X118430952Y-74532738D01*
X118478571Y-74627976D01*
X118526190Y-74675595D01*
X118621428Y-74723214D01*
X118811904Y-74723214D01*
X118907142Y-74675595D01*
X118954761Y-74627976D01*
X119002380Y-74532738D01*
X119002380Y-74342261D01*
X118954761Y-74247023D01*
X118907142Y-74199404D01*
X118811904Y-74151785D01*
X118621428Y-74151785D01*
X118526190Y-74199404D01*
X118478571Y-74247023D01*
X118430952Y-74342261D01*
X124502380Y-75066666D02*
X124026190Y-75400000D01*
X124502380Y-75638095D02*
X123502380Y-75638095D01*
X123502380Y-75257142D01*
X123550000Y-75161904D01*
X123597619Y-75114285D01*
X123692857Y-75066666D01*
X123835714Y-75066666D01*
X123930952Y-75114285D01*
X123978571Y-75161904D01*
X124026190Y-75257142D01*
X124026190Y-75638095D01*
X123502380Y-74733333D02*
X123502380Y-74066666D01*
X124502380Y-74495238D01*
X122007142Y-80229166D02*
X122054761Y-80276785D01*
X122102380Y-80419642D01*
X122102380Y-80514880D01*
X122054761Y-80657738D01*
X121959523Y-80752976D01*
X121864285Y-80800595D01*
X121673809Y-80848214D01*
X121530952Y-80848214D01*
X121340476Y-80800595D01*
X121245238Y-80752976D01*
X121150000Y-80657738D01*
X121102380Y-80514880D01*
X121102380Y-80419642D01*
X121150000Y-80276785D01*
X121197619Y-80229166D01*
X121197619Y-79848214D02*
X121150000Y-79800595D01*
X121102380Y-79705357D01*
X121102380Y-79467261D01*
X121150000Y-79372023D01*
X121197619Y-79324404D01*
X121292857Y-79276785D01*
X121388095Y-79276785D01*
X121530952Y-79324404D01*
X122102380Y-79895833D01*
X122102380Y-79276785D01*
X130659428Y-54097142D02*
X130659428Y-53754285D01*
X131259428Y-53925714D02*
X130659428Y-53925714D01*
X131259428Y-53554285D02*
X130659428Y-53554285D01*
X130659428Y-53325714D01*
X130688000Y-53268571D01*
X130716571Y-53240000D01*
X130773714Y-53211428D01*
X130859428Y-53211428D01*
X130916571Y-53240000D01*
X130945142Y-53268571D01*
X130973714Y-53325714D01*
X130973714Y-53554285D01*
X130659428Y-53011428D02*
X130659428Y-52611428D01*
X131259428Y-52868571D01*
X130659428Y-61717142D02*
X130659428Y-61374285D01*
X131259428Y-61545714D02*
X130659428Y-61545714D01*
X131259428Y-61174285D02*
X130659428Y-61174285D01*
X130659428Y-60945714D01*
X130688000Y-60888571D01*
X130716571Y-60860000D01*
X130773714Y-60831428D01*
X130859428Y-60831428D01*
X130916571Y-60860000D01*
X130945142Y-60888571D01*
X130973714Y-60945714D01*
X130973714Y-61174285D01*
X130659428Y-60317142D02*
X130659428Y-60431428D01*
X130688000Y-60488571D01*
X130716571Y-60517142D01*
X130802285Y-60574285D01*
X130916571Y-60602857D01*
X131145142Y-60602857D01*
X131202285Y-60574285D01*
X131230857Y-60545714D01*
X131259428Y-60488571D01*
X131259428Y-60374285D01*
X131230857Y-60317142D01*
X131202285Y-60288571D01*
X131145142Y-60260000D01*
X131002285Y-60260000D01*
X130945142Y-60288571D01*
X130916571Y-60317142D01*
X130888000Y-60374285D01*
X130888000Y-60488571D01*
X130916571Y-60545714D01*
X130945142Y-60574285D01*
X131002285Y-60602857D01*
X130659428Y-64257142D02*
X130659428Y-63914285D01*
X131259428Y-64085714D02*
X130659428Y-64085714D01*
X131259428Y-63714285D02*
X130659428Y-63714285D01*
X130659428Y-63485714D01*
X130688000Y-63428571D01*
X130716571Y-63400000D01*
X130773714Y-63371428D01*
X130859428Y-63371428D01*
X130916571Y-63400000D01*
X130945142Y-63428571D01*
X130973714Y-63485714D01*
X130973714Y-63714285D01*
X130659428Y-62828571D02*
X130659428Y-63114285D01*
X130945142Y-63142857D01*
X130916571Y-63114285D01*
X130888000Y-63057142D01*
X130888000Y-62914285D01*
X130916571Y-62857142D01*
X130945142Y-62828571D01*
X131002285Y-62800000D01*
X131145142Y-62800000D01*
X131202285Y-62828571D01*
X131230857Y-62857142D01*
X131259428Y-62914285D01*
X131259428Y-63057142D01*
X131230857Y-63114285D01*
X131202285Y-63142857D01*
X130659428Y-59177142D02*
X130659428Y-58834285D01*
X131259428Y-59005714D02*
X130659428Y-59005714D01*
X131259428Y-58634285D02*
X130659428Y-58634285D01*
X130659428Y-58405714D01*
X130688000Y-58348571D01*
X130716571Y-58320000D01*
X130773714Y-58291428D01*
X130859428Y-58291428D01*
X130916571Y-58320000D01*
X130945142Y-58348571D01*
X130973714Y-58405714D01*
X130973714Y-58634285D01*
X130716571Y-58062857D02*
X130688000Y-58034285D01*
X130659428Y-57977142D01*
X130659428Y-57834285D01*
X130688000Y-57777142D01*
X130716571Y-57748571D01*
X130773714Y-57720000D01*
X130830857Y-57720000D01*
X130916571Y-57748571D01*
X131259428Y-58091428D01*
X131259428Y-57720000D01*
X130659428Y-56637142D02*
X130659428Y-56294285D01*
X131259428Y-56465714D02*
X130659428Y-56465714D01*
X131259428Y-56094285D02*
X130659428Y-56094285D01*
X130659428Y-55865714D01*
X130688000Y-55808571D01*
X130716571Y-55780000D01*
X130773714Y-55751428D01*
X130859428Y-55751428D01*
X130916571Y-55780000D01*
X130945142Y-55808571D01*
X130973714Y-55865714D01*
X130973714Y-56094285D01*
X131259428Y-55180000D02*
X131259428Y-55522857D01*
X131259428Y-55351428D02*
X130659428Y-55351428D01*
X130745142Y-55408571D01*
X130802285Y-55465714D01*
X130830857Y-55522857D01*
X129495833Y-71502380D02*
X129162500Y-71026190D01*
X128924404Y-71502380D02*
X128924404Y-70502380D01*
X129305357Y-70502380D01*
X129400595Y-70550000D01*
X129448214Y-70597619D01*
X129495833Y-70692857D01*
X129495833Y-70835714D01*
X129448214Y-70930952D01*
X129400595Y-70978571D01*
X129305357Y-71026190D01*
X128924404Y-71026190D01*
X129876785Y-70597619D02*
X129924404Y-70550000D01*
X130019642Y-70502380D01*
X130257738Y-70502380D01*
X130352976Y-70550000D01*
X130400595Y-70597619D01*
X130448214Y-70692857D01*
X130448214Y-70788095D01*
X130400595Y-70930952D01*
X129829166Y-71502380D01*
X130448214Y-71502380D01*
X117452380Y-79233333D02*
X118166666Y-79233333D01*
X118309523Y-79280952D01*
X118404761Y-79376190D01*
X118452380Y-79519047D01*
X118452380Y-79614285D01*
X118452380Y-78757142D02*
X117452380Y-78757142D01*
X117452380Y-78376190D01*
X117500000Y-78280952D01*
X117547619Y-78233333D01*
X117642857Y-78185714D01*
X117785714Y-78185714D01*
X117880952Y-78233333D01*
X117928571Y-78280952D01*
X117976190Y-78376190D01*
X117976190Y-78757142D01*
X118452380Y-77233333D02*
X118452380Y-77804761D01*
X118452380Y-77519047D02*
X117452380Y-77519047D01*
X117595238Y-77614285D01*
X117690476Y-77709523D01*
X117738095Y-77804761D01*
X128881904Y-67947380D02*
X128881904Y-66947380D01*
X129120000Y-66947380D01*
X129262857Y-66995000D01*
X129358095Y-67090238D01*
X129405714Y-67185476D01*
X129453333Y-67375952D01*
X129453333Y-67518809D01*
X129405714Y-67709285D01*
X129358095Y-67804523D01*
X129262857Y-67899761D01*
X129120000Y-67947380D01*
X128881904Y-67947380D01*
X129834285Y-67042619D02*
X129881904Y-66995000D01*
X129977142Y-66947380D01*
X130215238Y-66947380D01*
X130310476Y-66995000D01*
X130358095Y-67042619D01*
X130405714Y-67137857D01*
X130405714Y-67233095D01*
X130358095Y-67375952D01*
X129786666Y-67947380D01*
X130405714Y-67947380D01*
X108047619Y-93595238D02*
X108000000Y-93690476D01*
X107904761Y-93785714D01*
X107761904Y-93928571D01*
X107714285Y-94023809D01*
X107714285Y-94119047D01*
X107952380Y-94071428D02*
X107904761Y-94166666D01*
X107809523Y-94261904D01*
X107619047Y-94309523D01*
X107285714Y-94309523D01*
X107095238Y-94261904D01*
X107000000Y-94166666D01*
X106952380Y-94071428D01*
X106952380Y-93880952D01*
X107000000Y-93785714D01*
X107095238Y-93690476D01*
X107285714Y-93642857D01*
X107619047Y-93642857D01*
X107809523Y-93690476D01*
X107904761Y-93785714D01*
X107952380Y-93880952D01*
X107952380Y-94071428D01*
X107047619Y-93261904D02*
X107000000Y-93214285D01*
X106952380Y-93119047D01*
X106952380Y-92880952D01*
X107000000Y-92785714D01*
X107047619Y-92738095D01*
X107142857Y-92690476D01*
X107238095Y-92690476D01*
X107380952Y-92738095D01*
X107952380Y-93309523D01*
X107952380Y-92690476D01*
X104997619Y-91095238D02*
X104950000Y-91190476D01*
X104854761Y-91285714D01*
X104711904Y-91428571D01*
X104664285Y-91523809D01*
X104664285Y-91619047D01*
X104902380Y-91571428D02*
X104854761Y-91666666D01*
X104759523Y-91761904D01*
X104569047Y-91809523D01*
X104235714Y-91809523D01*
X104045238Y-91761904D01*
X103950000Y-91666666D01*
X103902380Y-91571428D01*
X103902380Y-91380952D01*
X103950000Y-91285714D01*
X104045238Y-91190476D01*
X104235714Y-91142857D01*
X104569047Y-91142857D01*
X104759523Y-91190476D01*
X104854761Y-91285714D01*
X104902380Y-91380952D01*
X104902380Y-91571428D01*
X104902380Y-90190476D02*
X104902380Y-90761904D01*
X104902380Y-90476190D02*
X103902380Y-90476190D01*
X104045238Y-90571428D01*
X104140476Y-90666666D01*
X104188095Y-90761904D01*
D10*
X116533333Y-95385714D02*
X116495238Y-95423809D01*
X116380952Y-95461904D01*
X116304761Y-95461904D01*
X116190476Y-95423809D01*
X116114285Y-95347619D01*
X116076190Y-95271428D01*
X116038095Y-95119047D01*
X116038095Y-95004761D01*
X116076190Y-94852380D01*
X116114285Y-94776190D01*
X116190476Y-94700000D01*
X116304761Y-94661904D01*
X116380952Y-94661904D01*
X116495238Y-94700000D01*
X116533333Y-94738095D01*
X116876190Y-94928571D02*
X116876190Y-95728571D01*
X116876190Y-94966666D02*
X116952380Y-94928571D01*
X117104761Y-94928571D01*
X117180952Y-94966666D01*
X117219047Y-95004761D01*
X117257142Y-95080952D01*
X117257142Y-95309523D01*
X117219047Y-95385714D01*
X117180952Y-95423809D01*
X117104761Y-95461904D01*
X116952380Y-95461904D01*
X116876190Y-95423809D01*
X117942857Y-95461904D02*
X117942857Y-95042857D01*
X117904761Y-94966666D01*
X117828571Y-94928571D01*
X117676190Y-94928571D01*
X117600000Y-94966666D01*
X117942857Y-95423809D02*
X117866666Y-95461904D01*
X117676190Y-95461904D01*
X117600000Y-95423809D01*
X117561904Y-95347619D01*
X117561904Y-95271428D01*
X117600000Y-95195238D01*
X117676190Y-95157142D01*
X117866666Y-95157142D01*
X117942857Y-95119047D01*
X118323809Y-95461904D02*
X118323809Y-94928571D01*
X118323809Y-95080952D02*
X118361904Y-95004761D01*
X118400000Y-94966666D01*
X118476190Y-94928571D01*
X118552380Y-94928571D01*
X119161904Y-95461904D02*
X119161904Y-95042857D01*
X119123809Y-94966666D01*
X119047619Y-94928571D01*
X118895238Y-94928571D01*
X118819047Y-94966666D01*
X119161904Y-95423809D02*
X119085714Y-95461904D01*
X118895238Y-95461904D01*
X118819047Y-95423809D01*
X118780952Y-95347619D01*
X118780952Y-95271428D01*
X118819047Y-95195238D01*
X118895238Y-95157142D01*
X119085714Y-95157142D01*
X119161904Y-95119047D01*
X119961904Y-95461904D02*
X119504761Y-95461904D01*
X119733333Y-95461904D02*
X119733333Y-94661904D01*
X119657142Y-94776190D01*
X119580952Y-94852380D01*
X119504761Y-94890476D01*
D16*
X119407142Y-84304166D02*
X119454761Y-84351785D01*
X119502380Y-84494642D01*
X119502380Y-84589880D01*
X119454761Y-84732738D01*
X119359523Y-84827976D01*
X119264285Y-84875595D01*
X119073809Y-84923214D01*
X118930952Y-84923214D01*
X118740476Y-84875595D01*
X118645238Y-84827976D01*
X118550000Y-84732738D01*
X118502380Y-84589880D01*
X118502380Y-84494642D01*
X118550000Y-84351785D01*
X118597619Y-84304166D01*
X119502380Y-83351785D02*
X119502380Y-83923214D01*
X119502380Y-83637500D02*
X118502380Y-83637500D01*
X118645238Y-83732738D01*
X118740476Y-83827976D01*
X118788095Y-83923214D01*
X125052380Y-83788095D02*
X124052380Y-83788095D01*
X124052380Y-83550000D01*
X124100000Y-83407142D01*
X124195238Y-83311904D01*
X124290476Y-83264285D01*
X124480952Y-83216666D01*
X124623809Y-83216666D01*
X124814285Y-83264285D01*
X124909523Y-83311904D01*
X125004761Y-83407142D01*
X125052380Y-83550000D01*
X125052380Y-83788095D01*
X125052380Y-82264285D02*
X125052380Y-82835714D01*
X125052380Y-82550000D02*
X124052380Y-82550000D01*
X124195238Y-82645238D01*
X124290476Y-82740476D01*
X124338095Y-82835714D01*
X125402380Y-78029166D02*
X124926190Y-78362500D01*
X125402380Y-78600595D02*
X124402380Y-78600595D01*
X124402380Y-78219642D01*
X124450000Y-78124404D01*
X124497619Y-78076785D01*
X124592857Y-78029166D01*
X124735714Y-78029166D01*
X124830952Y-78076785D01*
X124878571Y-78124404D01*
X124926190Y-78219642D01*
X124926190Y-78600595D01*
X125402380Y-77076785D02*
X125402380Y-77648214D01*
X125402380Y-77362500D02*
X124402380Y-77362500D01*
X124545238Y-77457738D01*
X124640476Y-77552976D01*
X124688095Y-77648214D01*
X110033333Y-83452380D02*
X109700000Y-82976190D01*
X109461904Y-83452380D02*
X109461904Y-82452380D01*
X109842857Y-82452380D01*
X109938095Y-82500000D01*
X109985714Y-82547619D01*
X110033333Y-82642857D01*
X110033333Y-82785714D01*
X109985714Y-82880952D01*
X109938095Y-82928571D01*
X109842857Y-82976190D01*
X109461904Y-82976190D01*
X110366666Y-82452380D02*
X110985714Y-82452380D01*
X110652380Y-82833333D01*
X110795238Y-82833333D01*
X110890476Y-82880952D01*
X110938095Y-82928571D01*
X110985714Y-83023809D01*
X110985714Y-83261904D01*
X110938095Y-83357142D01*
X110890476Y-83404761D01*
X110795238Y-83452380D01*
X110509523Y-83452380D01*
X110414285Y-83404761D01*
X110366666Y-83357142D01*
X119502380Y-89466666D02*
X119026190Y-89800000D01*
X119502380Y-90038095D02*
X118502380Y-90038095D01*
X118502380Y-89657142D01*
X118550000Y-89561904D01*
X118597619Y-89514285D01*
X118692857Y-89466666D01*
X118835714Y-89466666D01*
X118930952Y-89514285D01*
X118978571Y-89561904D01*
X119026190Y-89657142D01*
X119026190Y-90038095D01*
X118835714Y-88609523D02*
X119502380Y-88609523D01*
X118454761Y-88847619D02*
X119169047Y-89085714D01*
X119169047Y-88466666D01*
X110802380Y-90104166D02*
X110326190Y-90437500D01*
X110802380Y-90675595D02*
X109802380Y-90675595D01*
X109802380Y-90294642D01*
X109850000Y-90199404D01*
X109897619Y-90151785D01*
X109992857Y-90104166D01*
X110135714Y-90104166D01*
X110230952Y-90151785D01*
X110278571Y-90199404D01*
X110326190Y-90294642D01*
X110326190Y-90675595D01*
X109802380Y-89199404D02*
X109802380Y-89675595D01*
X110278571Y-89723214D01*
X110230952Y-89675595D01*
X110183333Y-89580357D01*
X110183333Y-89342261D01*
X110230952Y-89247023D01*
X110278571Y-89199404D01*
X110373809Y-89151785D01*
X110611904Y-89151785D01*
X110707142Y-89199404D01*
X110754761Y-89247023D01*
X110802380Y-89342261D01*
X110802380Y-89580357D01*
X110754761Y-89675595D01*
X110707142Y-89723214D01*
X115502380Y-84304166D02*
X115026190Y-84637500D01*
X115502380Y-84875595D02*
X114502380Y-84875595D01*
X114502380Y-84494642D01*
X114550000Y-84399404D01*
X114597619Y-84351785D01*
X114692857Y-84304166D01*
X114835714Y-84304166D01*
X114930952Y-84351785D01*
X114978571Y-84399404D01*
X115026190Y-84494642D01*
X115026190Y-84875595D01*
X114502380Y-83447023D02*
X114502380Y-83637500D01*
X114550000Y-83732738D01*
X114597619Y-83780357D01*
X114740476Y-83875595D01*
X114930952Y-83923214D01*
X115311904Y-83923214D01*
X115407142Y-83875595D01*
X115454761Y-83827976D01*
X115502380Y-83732738D01*
X115502380Y-83542261D01*
X115454761Y-83447023D01*
X115407142Y-83399404D01*
X115311904Y-83351785D01*
X115073809Y-83351785D01*
X114978571Y-83399404D01*
X114930952Y-83447023D01*
X114883333Y-83542261D01*
X114883333Y-83732738D01*
X114930952Y-83827976D01*
X114978571Y-83875595D01*
X115073809Y-83923214D01*
X124004761Y-95407142D02*
X123957142Y-95454761D01*
X123814285Y-95502380D01*
X123719047Y-95502380D01*
X123576190Y-95454761D01*
X123480952Y-95359523D01*
X123433333Y-95264285D01*
X123385714Y-95073809D01*
X123385714Y-94930952D01*
X123433333Y-94740476D01*
X123480952Y-94645238D01*
X123576190Y-94550000D01*
X123719047Y-94502380D01*
X123814285Y-94502380D01*
X123957142Y-94550000D01*
X124004761Y-94597619D01*
X124385714Y-95454761D02*
X124480952Y-95502380D01*
X124671428Y-95502380D01*
X124766666Y-95454761D01*
X124814285Y-95359523D01*
X124814285Y-95311904D01*
X124766666Y-95216666D01*
X124671428Y-95169047D01*
X124528571Y-95169047D01*
X124433333Y-95121428D01*
X124385714Y-95026190D01*
X124385714Y-94978571D01*
X124433333Y-94883333D01*
X124528571Y-94835714D01*
X124671428Y-94835714D01*
X124766666Y-94883333D01*
X125623809Y-95454761D02*
X125528571Y-95502380D01*
X125338095Y-95502380D01*
X125242857Y-95454761D01*
X125195238Y-95359523D01*
X125195238Y-94978571D01*
X125242857Y-94883333D01*
X125338095Y-94835714D01*
X125528571Y-94835714D01*
X125623809Y-94883333D01*
X125671428Y-94978571D01*
X125671428Y-95073809D01*
X125195238Y-95169047D01*
X126100000Y-94835714D02*
X126100000Y-95502380D01*
X126100000Y-94930952D02*
X126147619Y-94883333D01*
X126242857Y-94835714D01*
X126385714Y-94835714D01*
X126480952Y-94883333D01*
X126528571Y-94978571D01*
X126528571Y-95502380D01*
X127004761Y-95121428D02*
X127766666Y-95121428D01*
X127385714Y-95502380D02*
X127385714Y-94740476D01*
D17*
X130671428Y-52714285D02*
X131271428Y-52514285D01*
X130671428Y-52314285D01*
X131242857Y-52142857D02*
X131271428Y-52085714D01*
X131271428Y-51971428D01*
X131242857Y-51914285D01*
X131185714Y-51885714D01*
X131157142Y-51885714D01*
X131100000Y-51914285D01*
X131071428Y-51971428D01*
X131071428Y-52057142D01*
X131042857Y-52114285D01*
X130985714Y-52142857D01*
X130957142Y-52142857D01*
X130900000Y-52114285D01*
X130871428Y-52057142D01*
X130871428Y-51971428D01*
X130900000Y-51914285D01*
X131242857Y-51400000D02*
X131271428Y-51457142D01*
X131271428Y-51571428D01*
X131242857Y-51628571D01*
X131185714Y-51657142D01*
X130957142Y-51657142D01*
X130900000Y-51628571D01*
X130871428Y-51571428D01*
X130871428Y-51457142D01*
X130900000Y-51400000D01*
X130957142Y-51371428D01*
X131014285Y-51371428D01*
X131071428Y-51657142D01*
X130871428Y-51114285D02*
X131271428Y-51114285D01*
X130928571Y-51114285D02*
X130900000Y-51085714D01*
X130871428Y-51028571D01*
X130871428Y-50942857D01*
X130900000Y-50885714D01*
X130957142Y-50857142D01*
X131271428Y-50857142D01*
X131328571Y-50714285D02*
X131328571Y-50257142D01*
X131271428Y-50028571D02*
X131242857Y-50085714D01*
X131214285Y-50114285D01*
X131157142Y-50142857D01*
X130985714Y-50142857D01*
X130928571Y-50114285D01*
X130900000Y-50085714D01*
X130871428Y-50028571D01*
X130871428Y-49942857D01*
X130900000Y-49885714D01*
X130928571Y-49857142D01*
X130985714Y-49828571D01*
X131157142Y-49828571D01*
X131214285Y-49857142D01*
X131242857Y-49885714D01*
X131271428Y-49942857D01*
X131271428Y-50028571D01*
X130871428Y-49314285D02*
X131271428Y-49314285D01*
X130871428Y-49571428D02*
X131185714Y-49571428D01*
X131242857Y-49542857D01*
X131271428Y-49485714D01*
X131271428Y-49400000D01*
X131242857Y-49342857D01*
X131214285Y-49314285D01*
X130871428Y-49114285D02*
X130871428Y-48885714D01*
X130671428Y-49028571D02*
X131185714Y-49028571D01*
X131242857Y-49000000D01*
X131271428Y-48942857D01*
X131271428Y-48885714D01*
D16*
X115407142Y-89529166D02*
X115454761Y-89576785D01*
X115502380Y-89719642D01*
X115502380Y-89814880D01*
X115454761Y-89957738D01*
X115359523Y-90052976D01*
X115264285Y-90100595D01*
X115073809Y-90148214D01*
X114930952Y-90148214D01*
X114740476Y-90100595D01*
X114645238Y-90052976D01*
X114550000Y-89957738D01*
X114502380Y-89814880D01*
X114502380Y-89719642D01*
X114550000Y-89576785D01*
X114597619Y-89529166D01*
X114502380Y-88672023D02*
X114502380Y-88862500D01*
X114550000Y-88957738D01*
X114597619Y-89005357D01*
X114740476Y-89100595D01*
X114930952Y-89148214D01*
X115311904Y-89148214D01*
X115407142Y-89100595D01*
X115454761Y-89052976D01*
X115502380Y-88957738D01*
X115502380Y-88767261D01*
X115454761Y-88672023D01*
X115407142Y-88624404D01*
X115311904Y-88576785D01*
X115073809Y-88576785D01*
X114978571Y-88624404D01*
X114930952Y-88672023D01*
X114883333Y-88767261D01*
X114883333Y-88957738D01*
X114930952Y-89052976D01*
X114978571Y-89100595D01*
X115073809Y-89148214D01*
M02*
