G04 #@! TF.GenerationSoftware,KiCad,Pcbnew,(5.1.2-1)-1*
G04 #@! TF.CreationDate,2021-02-23T18:56:46+01:00*
G04 #@! TF.ProjectId,parasite,70617261-7369-4746-952e-6b696361645f,1.1.0*
G04 #@! TF.SameCoordinates,Original*
G04 #@! TF.FileFunction,Legend,Bot*
G04 #@! TF.FilePolarity,Positive*
%FSLAX46Y46*%
G04 Gerber Fmt 4.6, Leading zero omitted, Abs format (unit mm)*
G04 Created by KiCad (PCBNEW (5.1.2-1)-1) date 2021-02-23 18:56:46*
%MOMM*%
%LPD*%
G04 APERTURE LIST*
%ADD10C,0.100000*%
%ADD11C,0.200000*%
%ADD12C,0.120000*%
%ADD13C,0.010000*%
%ADD14C,0.150000*%
G04 APERTURE END LIST*
D10*
X129121428Y-86150000D02*
X130621428Y-86150000D01*
X130621428Y-85792857D01*
X130550000Y-85578571D01*
X130407142Y-85435714D01*
X130264285Y-85364285D01*
X129978571Y-85292857D01*
X129764285Y-85292857D01*
X129478571Y-85364285D01*
X129335714Y-85435714D01*
X129192857Y-85578571D01*
X129121428Y-85792857D01*
X129121428Y-86150000D01*
X129121428Y-84435714D02*
X129192857Y-84578571D01*
X129264285Y-84650000D01*
X129407142Y-84721428D01*
X129835714Y-84721428D01*
X129978571Y-84650000D01*
X130050000Y-84578571D01*
X130121428Y-84435714D01*
X130121428Y-84221428D01*
X130050000Y-84078571D01*
X129978571Y-84007142D01*
X129835714Y-83935714D01*
X129407142Y-83935714D01*
X129264285Y-84007142D01*
X129192857Y-84078571D01*
X129121428Y-84221428D01*
X129121428Y-84435714D01*
X130121428Y-82650000D02*
X129121428Y-82650000D01*
X130121428Y-83292857D02*
X129335714Y-83292857D01*
X129192857Y-83221428D01*
X129121428Y-83078571D01*
X129121428Y-82864285D01*
X129192857Y-82721428D01*
X129264285Y-82650000D01*
X129121428Y-81935714D02*
X130621428Y-81935714D01*
X130050000Y-81935714D02*
X130121428Y-81792857D01*
X130121428Y-81507142D01*
X130050000Y-81364285D01*
X129978571Y-81292857D01*
X129835714Y-81221428D01*
X129407142Y-81221428D01*
X129264285Y-81292857D01*
X129192857Y-81364285D01*
X129121428Y-81507142D01*
X129121428Y-81792857D01*
X129192857Y-81935714D01*
X129121428Y-80364285D02*
X129192857Y-80507142D01*
X129335714Y-80578571D01*
X130621428Y-80578571D01*
X129192857Y-79221428D02*
X129121428Y-79364285D01*
X129121428Y-79650000D01*
X129192857Y-79792857D01*
X129335714Y-79864285D01*
X129907142Y-79864285D01*
X130050000Y-79792857D01*
X130121428Y-79650000D01*
X130121428Y-79364285D01*
X130050000Y-79221428D01*
X129907142Y-79150000D01*
X129764285Y-79150000D01*
X129621428Y-79864285D01*
X129192857Y-76721428D02*
X129121428Y-76864285D01*
X129121428Y-77150000D01*
X129192857Y-77292857D01*
X129264285Y-77364285D01*
X129407142Y-77435714D01*
X129835714Y-77435714D01*
X129978571Y-77364285D01*
X130050000Y-77292857D01*
X130121428Y-77150000D01*
X130121428Y-76864285D01*
X130050000Y-76721428D01*
X129121428Y-76078571D02*
X130621428Y-76078571D01*
X129121428Y-75435714D02*
X129907142Y-75435714D01*
X130050000Y-75507142D01*
X130121428Y-75649999D01*
X130121428Y-75864285D01*
X130050000Y-76007142D01*
X129978571Y-76078571D01*
X129192857Y-74149999D02*
X129121428Y-74292857D01*
X129121428Y-74578571D01*
X129192857Y-74721428D01*
X129335714Y-74792857D01*
X129907142Y-74792857D01*
X130050000Y-74721428D01*
X130121428Y-74578571D01*
X130121428Y-74292857D01*
X130050000Y-74149999D01*
X129907142Y-74078571D01*
X129764285Y-74078571D01*
X129621428Y-74792857D01*
X129192857Y-72792857D02*
X129121428Y-72935714D01*
X129121428Y-73221428D01*
X129192857Y-73364285D01*
X129264285Y-73435714D01*
X129407142Y-73507142D01*
X129835714Y-73507142D01*
X129978571Y-73435714D01*
X130050000Y-73364285D01*
X130121428Y-73221428D01*
X130121428Y-72935714D01*
X130050000Y-72792857D01*
X129121428Y-72149999D02*
X130621428Y-72149999D01*
X129692857Y-72007142D02*
X129121428Y-71578571D01*
X130121428Y-71578571D02*
X129550000Y-72149999D01*
X130121428Y-70007142D02*
X130121428Y-69435714D01*
X130621428Y-69792857D02*
X129335714Y-69792857D01*
X129192857Y-69721428D01*
X129121428Y-69578571D01*
X129121428Y-69435714D01*
X129121428Y-68935714D02*
X130621428Y-68935714D01*
X129121428Y-68292857D02*
X129907142Y-68292857D01*
X130050000Y-68364285D01*
X130121428Y-68507142D01*
X130121428Y-68721428D01*
X130050000Y-68864285D01*
X129978571Y-68935714D01*
X129192857Y-67007142D02*
X129121428Y-67149999D01*
X129121428Y-67435714D01*
X129192857Y-67578571D01*
X129335714Y-67649999D01*
X129907142Y-67649999D01*
X130050000Y-67578571D01*
X130121428Y-67435714D01*
X130121428Y-67149999D01*
X130050000Y-67007142D01*
X129907142Y-66935714D01*
X129764285Y-66935714D01*
X129621428Y-67649999D01*
X130121428Y-65149999D02*
X128621428Y-65149999D01*
X130050000Y-65149999D02*
X130121428Y-65007142D01*
X130121428Y-64721428D01*
X130050000Y-64578571D01*
X129978571Y-64507142D01*
X129835714Y-64435714D01*
X129407142Y-64435714D01*
X129264285Y-64507142D01*
X129192857Y-64578571D01*
X129121428Y-64721428D01*
X129121428Y-65007142D01*
X129192857Y-65149999D01*
X129121428Y-63578571D02*
X129192857Y-63721428D01*
X129264285Y-63792857D01*
X129407142Y-63864285D01*
X129835714Y-63864285D01*
X129978571Y-63792857D01*
X130050000Y-63721428D01*
X130121428Y-63578571D01*
X130121428Y-63364285D01*
X130050000Y-63221428D01*
X129978571Y-63149999D01*
X129835714Y-63078571D01*
X129407142Y-63078571D01*
X129264285Y-63149999D01*
X129192857Y-63221428D01*
X129121428Y-63364285D01*
X129121428Y-63578571D01*
X129121428Y-62221428D02*
X129192857Y-62364285D01*
X129335714Y-62435714D01*
X130621428Y-62435714D01*
X129121428Y-61007142D02*
X129907142Y-61007142D01*
X130050000Y-61078571D01*
X130121428Y-61221428D01*
X130121428Y-61507142D01*
X130050000Y-61649999D01*
X129192857Y-61007142D02*
X129121428Y-61149999D01*
X129121428Y-61507142D01*
X129192857Y-61649999D01*
X129335714Y-61721428D01*
X129478571Y-61721428D01*
X129621428Y-61649999D01*
X129692857Y-61507142D01*
X129692857Y-61149999D01*
X129764285Y-61007142D01*
X129121428Y-60292857D02*
X130121428Y-60292857D01*
X129835714Y-60292857D02*
X129978571Y-60221428D01*
X130050000Y-60149999D01*
X130121428Y-60007142D01*
X130121428Y-59864285D01*
X129121428Y-59364285D02*
X130121428Y-59364285D01*
X130621428Y-59364285D02*
X130550000Y-59435714D01*
X130478571Y-59364285D01*
X130550000Y-59292857D01*
X130621428Y-59364285D01*
X130478571Y-59364285D01*
X130121428Y-58864285D02*
X130121428Y-58292857D01*
X130621428Y-58649999D02*
X129335714Y-58649999D01*
X129192857Y-58578571D01*
X129121428Y-58435714D01*
X129121428Y-58292857D01*
X130121428Y-57935714D02*
X129121428Y-57578571D01*
X130121428Y-57221428D02*
X129121428Y-57578571D01*
X128764285Y-57721428D01*
X128692857Y-57792857D01*
X128621428Y-57935714D01*
X129264285Y-56649999D02*
X129192857Y-56578571D01*
X129121428Y-56649999D01*
X129192857Y-56721428D01*
X129264285Y-56649999D01*
X129121428Y-56649999D01*
X129692857Y-56649999D02*
X130550000Y-56721428D01*
X130621428Y-56649999D01*
X130550000Y-56578571D01*
X129692857Y-56649999D01*
X130621428Y-56649999D01*
D11*
X118766666Y-44785714D02*
X118766666Y-45785714D01*
X118766666Y-44833333D02*
X118671428Y-44785714D01*
X118480952Y-44785714D01*
X118385714Y-44833333D01*
X118338095Y-44880952D01*
X118290476Y-44976190D01*
X118290476Y-45261904D01*
X118338095Y-45357142D01*
X118385714Y-45404761D01*
X118480952Y-45452380D01*
X118671428Y-45452380D01*
X118766666Y-45404761D01*
X117433333Y-45452380D02*
X117433333Y-44928571D01*
X117480952Y-44833333D01*
X117576190Y-44785714D01*
X117766666Y-44785714D01*
X117861904Y-44833333D01*
X117433333Y-45404761D02*
X117528571Y-45452380D01*
X117766666Y-45452380D01*
X117861904Y-45404761D01*
X117909523Y-45309523D01*
X117909523Y-45214285D01*
X117861904Y-45119047D01*
X117766666Y-45071428D01*
X117528571Y-45071428D01*
X117433333Y-45023809D01*
X116957142Y-45452380D02*
X116957142Y-44785714D01*
X116957142Y-44976190D02*
X116909523Y-44880952D01*
X116861904Y-44833333D01*
X116766666Y-44785714D01*
X116671428Y-44785714D01*
X115909523Y-45452380D02*
X115909523Y-44928571D01*
X115957142Y-44833333D01*
X116052380Y-44785714D01*
X116242857Y-44785714D01*
X116338095Y-44833333D01*
X115909523Y-45404761D02*
X116004761Y-45452380D01*
X116242857Y-45452380D01*
X116338095Y-45404761D01*
X116385714Y-45309523D01*
X116385714Y-45214285D01*
X116338095Y-45119047D01*
X116242857Y-45071428D01*
X116004761Y-45071428D01*
X115909523Y-45023809D01*
X115480952Y-45404761D02*
X115385714Y-45452380D01*
X115195238Y-45452380D01*
X115100000Y-45404761D01*
X115052380Y-45309523D01*
X115052380Y-45261904D01*
X115100000Y-45166666D01*
X115195238Y-45119047D01*
X115338095Y-45119047D01*
X115433333Y-45071428D01*
X115480952Y-44976190D01*
X115480952Y-44928571D01*
X115433333Y-44833333D01*
X115338095Y-44785714D01*
X115195238Y-44785714D01*
X115100000Y-44833333D01*
X114623809Y-45452380D02*
X114623809Y-44785714D01*
X114623809Y-44452380D02*
X114671428Y-44500000D01*
X114623809Y-44547619D01*
X114576190Y-44500000D01*
X114623809Y-44452380D01*
X114623809Y-44547619D01*
X114290476Y-44785714D02*
X113909523Y-44785714D01*
X114147619Y-44452380D02*
X114147619Y-45309523D01*
X114100000Y-45404761D01*
X114004761Y-45452380D01*
X113909523Y-45452380D01*
X113195238Y-45404761D02*
X113290476Y-45452380D01*
X113480952Y-45452380D01*
X113576190Y-45404761D01*
X113623809Y-45309523D01*
X113623809Y-44928571D01*
X113576190Y-44833333D01*
X113480952Y-44785714D01*
X113290476Y-44785714D01*
X113195238Y-44833333D01*
X113147619Y-44928571D01*
X113147619Y-45023809D01*
X113623809Y-45119047D01*
X112242857Y-44452380D02*
X112719047Y-44452380D01*
X112766666Y-44928571D01*
X112719047Y-44880952D01*
X112623809Y-44833333D01*
X112385714Y-44833333D01*
X112290476Y-44880952D01*
X112242857Y-44928571D01*
X112195238Y-45023809D01*
X112195238Y-45261904D01*
X112242857Y-45357142D01*
X112290476Y-45404761D01*
X112385714Y-45452380D01*
X112623809Y-45452380D01*
X112719047Y-45404761D01*
X112766666Y-45357142D01*
X111814285Y-44547619D02*
X111766666Y-44500000D01*
X111671428Y-44452380D01*
X111433333Y-44452380D01*
X111338095Y-44500000D01*
X111290476Y-44547619D01*
X111242857Y-44642857D01*
X111242857Y-44738095D01*
X111290476Y-44880952D01*
X111861904Y-45452380D01*
X111242857Y-45452380D01*
X110671428Y-44880952D02*
X110766666Y-44833333D01*
X110814285Y-44785714D01*
X110861904Y-44690476D01*
X110861904Y-44642857D01*
X110814285Y-44547619D01*
X110766666Y-44500000D01*
X110671428Y-44452380D01*
X110480952Y-44452380D01*
X110385714Y-44500000D01*
X110338095Y-44547619D01*
X110290476Y-44642857D01*
X110290476Y-44690476D01*
X110338095Y-44785714D01*
X110385714Y-44833333D01*
X110480952Y-44880952D01*
X110671428Y-44880952D01*
X110766666Y-44928571D01*
X110814285Y-44976190D01*
X110861904Y-45071428D01*
X110861904Y-45261904D01*
X110814285Y-45357142D01*
X110766666Y-45404761D01*
X110671428Y-45452380D01*
X110480952Y-45452380D01*
X110385714Y-45404761D01*
X110338095Y-45357142D01*
X110290476Y-45261904D01*
X110290476Y-45071428D01*
X110338095Y-44976190D01*
X110385714Y-44928571D01*
X110480952Y-44880952D01*
X109957142Y-44452380D02*
X109338095Y-44452380D01*
X109671428Y-44833333D01*
X109528571Y-44833333D01*
X109433333Y-44880952D01*
X109385714Y-44928571D01*
X109338095Y-45023809D01*
X109338095Y-45261904D01*
X109385714Y-45357142D01*
X109433333Y-45404761D01*
X109528571Y-45452380D01*
X109814285Y-45452380D01*
X109909523Y-45404761D01*
X109957142Y-45357142D01*
X108957142Y-44547619D02*
X108909523Y-44500000D01*
X108814285Y-44452380D01*
X108576190Y-44452380D01*
X108480952Y-44500000D01*
X108433333Y-44547619D01*
X108385714Y-44642857D01*
X108385714Y-44738095D01*
X108433333Y-44880952D01*
X109004761Y-45452380D01*
X108385714Y-45452380D01*
X114742857Y-47152380D02*
X115314285Y-47152380D01*
X115028571Y-47152380D02*
X115028571Y-46152380D01*
X115123809Y-46295238D01*
X115219047Y-46390476D01*
X115314285Y-46438095D01*
X114314285Y-47057142D02*
X114266666Y-47104761D01*
X114314285Y-47152380D01*
X114361904Y-47104761D01*
X114314285Y-47057142D01*
X114314285Y-47152380D01*
X113647619Y-46152380D02*
X113552380Y-46152380D01*
X113457142Y-46200000D01*
X113409523Y-46247619D01*
X113361904Y-46342857D01*
X113314285Y-46533333D01*
X113314285Y-46771428D01*
X113361904Y-46961904D01*
X113409523Y-47057142D01*
X113457142Y-47104761D01*
X113552380Y-47152380D01*
X113647619Y-47152380D01*
X113742857Y-47104761D01*
X113790476Y-47057142D01*
X113838095Y-46961904D01*
X113885714Y-46771428D01*
X113885714Y-46533333D01*
X113838095Y-46342857D01*
X113790476Y-46247619D01*
X113742857Y-46200000D01*
X113647619Y-46152380D01*
X112885714Y-47057142D02*
X112838095Y-47104761D01*
X112885714Y-47152380D01*
X112933333Y-47104761D01*
X112885714Y-47057142D01*
X112885714Y-47152380D01*
X112219047Y-46152380D02*
X112123809Y-46152380D01*
X112028571Y-46200000D01*
X111980952Y-46247619D01*
X111933333Y-46342857D01*
X111885714Y-46533333D01*
X111885714Y-46771428D01*
X111933333Y-46961904D01*
X111980952Y-47057142D01*
X112028571Y-47104761D01*
X112123809Y-47152380D01*
X112219047Y-47152380D01*
X112314285Y-47104761D01*
X112361904Y-47057142D01*
X112409523Y-46961904D01*
X112457142Y-46771428D01*
X112457142Y-46533333D01*
X112409523Y-46342857D01*
X112361904Y-46247619D01*
X112314285Y-46200000D01*
X112219047Y-46152380D01*
X117195238Y-48852380D02*
X117195238Y-48185714D01*
X117195238Y-48376190D02*
X117147619Y-48280952D01*
X117100000Y-48233333D01*
X117004761Y-48185714D01*
X116909523Y-48185714D01*
X116576190Y-48852380D02*
X116576190Y-47852380D01*
X116576190Y-48233333D02*
X116480952Y-48185714D01*
X116290476Y-48185714D01*
X116195238Y-48233333D01*
X116147619Y-48280952D01*
X116100000Y-48376190D01*
X116100000Y-48661904D01*
X116147619Y-48757142D01*
X116195238Y-48804761D01*
X116290476Y-48852380D01*
X116480952Y-48852380D01*
X116576190Y-48804761D01*
X115242857Y-48852380D02*
X115242857Y-48328571D01*
X115290476Y-48233333D01*
X115385714Y-48185714D01*
X115576190Y-48185714D01*
X115671428Y-48233333D01*
X115242857Y-48804761D02*
X115338095Y-48852380D01*
X115576190Y-48852380D01*
X115671428Y-48804761D01*
X115719047Y-48709523D01*
X115719047Y-48614285D01*
X115671428Y-48519047D01*
X115576190Y-48471428D01*
X115338095Y-48471428D01*
X115242857Y-48423809D01*
X114766666Y-48852380D02*
X114766666Y-48185714D01*
X114766666Y-48376190D02*
X114719047Y-48280952D01*
X114671428Y-48233333D01*
X114576190Y-48185714D01*
X114480952Y-48185714D01*
X114004761Y-48852380D02*
X114100000Y-48804761D01*
X114147619Y-48757142D01*
X114195238Y-48661904D01*
X114195238Y-48376190D01*
X114147619Y-48280952D01*
X114100000Y-48233333D01*
X114004761Y-48185714D01*
X113861904Y-48185714D01*
X113766666Y-48233333D01*
X113719047Y-48280952D01*
X113671428Y-48376190D01*
X113671428Y-48661904D01*
X113719047Y-48757142D01*
X113766666Y-48804761D01*
X113861904Y-48852380D01*
X114004761Y-48852380D01*
X113242857Y-48185714D02*
X113242857Y-48852380D01*
X113242857Y-48280952D02*
X113195238Y-48233333D01*
X113100000Y-48185714D01*
X112957142Y-48185714D01*
X112861904Y-48233333D01*
X112814285Y-48328571D01*
X112814285Y-48852380D01*
X112338095Y-48757142D02*
X112290476Y-48804761D01*
X112338095Y-48852380D01*
X112385714Y-48804761D01*
X112338095Y-48757142D01*
X112338095Y-48852380D01*
X111861904Y-48185714D02*
X111861904Y-48852380D01*
X111861904Y-48280952D02*
X111814285Y-48233333D01*
X111719047Y-48185714D01*
X111576190Y-48185714D01*
X111480952Y-48233333D01*
X111433333Y-48328571D01*
X111433333Y-48852380D01*
X110576190Y-48804761D02*
X110671428Y-48852380D01*
X110861904Y-48852380D01*
X110957142Y-48804761D01*
X111004761Y-48709523D01*
X111004761Y-48328571D01*
X110957142Y-48233333D01*
X110861904Y-48185714D01*
X110671428Y-48185714D01*
X110576190Y-48233333D01*
X110528571Y-48328571D01*
X110528571Y-48423809D01*
X111004761Y-48519047D01*
X110242857Y-48185714D02*
X109861904Y-48185714D01*
X110100000Y-47852380D02*
X110100000Y-48709523D01*
X110052380Y-48804761D01*
X109957142Y-48852380D01*
X109861904Y-48852380D01*
D12*
X106500000Y-99000000D02*
X129500000Y-99000000D01*
X120250000Y-60800000D02*
X125050000Y-67650000D01*
X125050000Y-67650000D02*
X125050000Y-75550000D01*
X125050000Y-75550000D02*
X120250000Y-82350000D01*
X104700000Y-61050000D02*
X104700000Y-67750000D01*
X104698536Y-67753615D02*
G75*
G03X104700000Y-75450000I9501464J-3846385D01*
G01*
X104700000Y-82150000D02*
X104700000Y-75450000D01*
X111450000Y-60850000D02*
X111450000Y-56050000D01*
X111450000Y-56050000D02*
X116950000Y-56050000D01*
X116950000Y-56050000D02*
X116950000Y-60850000D01*
X116950000Y-82350000D02*
X116950000Y-87150000D01*
X116950000Y-87150000D02*
X111450000Y-87150000D01*
X111450000Y-87150000D02*
X111450000Y-82350000D01*
D13*
G36*
X123844186Y-44068931D02*
G01*
X123760365Y-44513555D01*
X123451080Y-44641053D01*
X123141794Y-44768551D01*
X122770754Y-44516246D01*
X122666843Y-44445996D01*
X122572913Y-44383272D01*
X122493348Y-44330938D01*
X122432530Y-44291857D01*
X122394843Y-44268893D01*
X122384579Y-44263942D01*
X122366090Y-44276676D01*
X122326580Y-44311882D01*
X122270478Y-44365062D01*
X122202213Y-44431718D01*
X122126214Y-44507354D01*
X122046908Y-44587472D01*
X121968725Y-44667574D01*
X121896093Y-44743164D01*
X121833441Y-44809745D01*
X121785197Y-44862818D01*
X121755790Y-44897887D01*
X121748759Y-44909623D01*
X121758877Y-44931260D01*
X121787241Y-44978662D01*
X121830871Y-45047193D01*
X121886782Y-45132215D01*
X121951994Y-45229093D01*
X121989781Y-45284350D01*
X122058657Y-45385248D01*
X122119860Y-45476299D01*
X122170422Y-45552970D01*
X122207372Y-45610728D01*
X122227742Y-45645043D01*
X122230803Y-45652254D01*
X122223864Y-45672748D01*
X122204949Y-45720513D01*
X122176913Y-45788832D01*
X122142609Y-45870989D01*
X122104891Y-45960270D01*
X122066613Y-46049958D01*
X122030630Y-46133338D01*
X121999794Y-46203694D01*
X121976961Y-46254310D01*
X121964983Y-46278471D01*
X121964276Y-46279422D01*
X121945469Y-46284036D01*
X121895382Y-46294328D01*
X121819207Y-46309287D01*
X121722135Y-46327901D01*
X121609357Y-46349159D01*
X121543558Y-46361418D01*
X121423050Y-46384362D01*
X121314203Y-46406195D01*
X121222524Y-46425722D01*
X121153519Y-46441748D01*
X121112696Y-46453079D01*
X121104489Y-46456674D01*
X121096452Y-46481006D01*
X121089967Y-46535959D01*
X121085030Y-46615108D01*
X121081636Y-46712026D01*
X121079782Y-46820287D01*
X121079462Y-46933465D01*
X121080673Y-47045135D01*
X121083410Y-47148868D01*
X121087669Y-47238241D01*
X121093445Y-47306826D01*
X121100733Y-47348197D01*
X121105105Y-47356810D01*
X121131236Y-47367133D01*
X121186607Y-47381892D01*
X121263893Y-47399352D01*
X121355770Y-47417780D01*
X121387842Y-47423741D01*
X121542476Y-47452066D01*
X121664625Y-47474876D01*
X121758327Y-47493080D01*
X121827616Y-47507583D01*
X121876529Y-47519292D01*
X121909103Y-47529115D01*
X121929372Y-47537956D01*
X121941374Y-47546724D01*
X121943053Y-47548457D01*
X121959816Y-47576371D01*
X121985386Y-47630695D01*
X122017212Y-47704777D01*
X122052740Y-47791965D01*
X122089417Y-47885608D01*
X122124689Y-47979052D01*
X122156004Y-48065647D01*
X122180807Y-48138740D01*
X122196546Y-48191678D01*
X122200668Y-48217811D01*
X122200324Y-48218726D01*
X122186359Y-48240086D01*
X122154678Y-48287084D01*
X122108609Y-48354827D01*
X122051482Y-48438423D01*
X121986627Y-48532982D01*
X121968157Y-48559854D01*
X121902301Y-48657275D01*
X121844350Y-48746163D01*
X121797462Y-48821412D01*
X121764793Y-48877920D01*
X121749500Y-48910581D01*
X121748759Y-48914593D01*
X121761608Y-48935684D01*
X121797112Y-48977464D01*
X121850707Y-49035445D01*
X121917829Y-49105135D01*
X121993913Y-49182045D01*
X122074396Y-49261683D01*
X122154713Y-49339561D01*
X122230301Y-49411186D01*
X122296595Y-49472070D01*
X122349031Y-49517721D01*
X122383045Y-49543650D01*
X122392455Y-49547883D01*
X122414357Y-49537912D01*
X122459200Y-49511020D01*
X122519679Y-49471736D01*
X122566211Y-49440117D01*
X122650525Y-49382098D01*
X122750374Y-49313784D01*
X122850527Y-49245579D01*
X122904373Y-49209075D01*
X123086629Y-49085800D01*
X123239619Y-49168520D01*
X123309318Y-49204759D01*
X123368586Y-49232926D01*
X123408689Y-49248991D01*
X123418897Y-49251226D01*
X123431171Y-49234722D01*
X123455387Y-49188082D01*
X123489737Y-49115609D01*
X123532412Y-49021606D01*
X123581606Y-48910374D01*
X123635510Y-48786215D01*
X123692316Y-48653432D01*
X123750218Y-48516327D01*
X123807407Y-48379202D01*
X123862076Y-48246358D01*
X123912416Y-48122098D01*
X123956620Y-48010725D01*
X123992881Y-47916539D01*
X124019391Y-47843844D01*
X124034342Y-47796941D01*
X124036746Y-47780833D01*
X124017689Y-47760286D01*
X123975964Y-47726933D01*
X123920294Y-47687702D01*
X123915622Y-47684599D01*
X123771736Y-47569423D01*
X123655717Y-47435053D01*
X123568570Y-47285784D01*
X123511301Y-47125913D01*
X123484914Y-46959737D01*
X123490415Y-46791552D01*
X123528810Y-46625655D01*
X123601105Y-46466342D01*
X123622374Y-46431487D01*
X123733004Y-46290737D01*
X123863698Y-46177714D01*
X124009936Y-46093003D01*
X124167192Y-46037194D01*
X124330943Y-46010874D01*
X124496667Y-46014630D01*
X124659838Y-46049050D01*
X124815935Y-46114723D01*
X124960433Y-46212235D01*
X125005131Y-46251813D01*
X125118888Y-46375703D01*
X125201782Y-46506124D01*
X125258644Y-46652315D01*
X125290313Y-46797088D01*
X125298131Y-46959860D01*
X125272062Y-47123440D01*
X125214755Y-47282298D01*
X125128856Y-47430906D01*
X125017014Y-47563735D01*
X124881877Y-47675256D01*
X124864117Y-47687011D01*
X124807850Y-47725508D01*
X124765077Y-47758863D01*
X124744628Y-47780160D01*
X124744331Y-47780833D01*
X124748721Y-47803871D01*
X124766124Y-47856157D01*
X124794732Y-47933390D01*
X124832735Y-48031268D01*
X124878326Y-48145491D01*
X124929697Y-48271758D01*
X124985038Y-48405767D01*
X125042542Y-48543218D01*
X125100399Y-48679808D01*
X125156802Y-48811237D01*
X125209942Y-48933205D01*
X125258010Y-49041409D01*
X125299199Y-49131549D01*
X125331699Y-49199323D01*
X125353703Y-49240430D01*
X125362564Y-49251226D01*
X125389640Y-49242819D01*
X125440303Y-49220272D01*
X125505817Y-49187613D01*
X125541841Y-49168520D01*
X125694832Y-49085800D01*
X125877088Y-49209075D01*
X125970125Y-49272228D01*
X126071985Y-49341727D01*
X126167438Y-49407165D01*
X126215250Y-49440117D01*
X126282495Y-49485273D01*
X126339436Y-49521057D01*
X126378646Y-49542938D01*
X126391381Y-49547563D01*
X126409917Y-49535085D01*
X126450941Y-49500252D01*
X126510475Y-49446678D01*
X126584542Y-49377983D01*
X126669165Y-49297781D01*
X126722685Y-49246286D01*
X126816319Y-49154286D01*
X126897241Y-49071999D01*
X126962177Y-49002945D01*
X127007858Y-48950644D01*
X127031011Y-48918616D01*
X127033232Y-48912116D01*
X127022924Y-48887394D01*
X126994439Y-48837405D01*
X126950937Y-48767212D01*
X126895577Y-48681875D01*
X126831520Y-48586456D01*
X126813303Y-48559854D01*
X126746927Y-48463167D01*
X126687378Y-48376117D01*
X126637984Y-48303595D01*
X126602075Y-48250493D01*
X126582981Y-48221703D01*
X126581136Y-48218726D01*
X126583895Y-48195782D01*
X126598538Y-48145336D01*
X126622513Y-48074041D01*
X126653266Y-47988547D01*
X126688244Y-47895507D01*
X126724893Y-47801574D01*
X126760661Y-47713399D01*
X126792994Y-47637634D01*
X126819338Y-47580931D01*
X126837142Y-47549943D01*
X126838407Y-47548457D01*
X126849294Y-47539601D01*
X126867682Y-47530843D01*
X126897606Y-47521277D01*
X126943103Y-47509996D01*
X127008209Y-47496093D01*
X127096961Y-47478663D01*
X127213393Y-47456798D01*
X127361542Y-47429591D01*
X127393618Y-47423741D01*
X127488686Y-47405374D01*
X127571565Y-47387405D01*
X127634930Y-47371569D01*
X127671458Y-47359600D01*
X127676356Y-47356810D01*
X127684427Y-47332072D01*
X127690987Y-47276790D01*
X127696033Y-47197389D01*
X127699559Y-47100296D01*
X127701561Y-46991938D01*
X127702036Y-46878740D01*
X127700977Y-46767128D01*
X127698382Y-46663529D01*
X127694246Y-46574368D01*
X127688563Y-46506072D01*
X127681331Y-46465066D01*
X127676971Y-46456674D01*
X127652698Y-46448208D01*
X127597426Y-46434435D01*
X127516662Y-46416550D01*
X127415912Y-46395748D01*
X127300683Y-46373223D01*
X127237902Y-46361418D01*
X127118787Y-46339151D01*
X127012565Y-46318979D01*
X126924427Y-46301915D01*
X126859566Y-46288969D01*
X126823174Y-46281155D01*
X126817184Y-46279422D01*
X126807061Y-46259890D01*
X126785662Y-46212843D01*
X126755839Y-46145003D01*
X126720445Y-46063091D01*
X126682332Y-45973828D01*
X126644353Y-45883935D01*
X126609360Y-45800135D01*
X126580206Y-45729147D01*
X126559743Y-45677694D01*
X126550823Y-45652497D01*
X126550657Y-45651396D01*
X126560769Y-45631519D01*
X126589117Y-45585777D01*
X126632723Y-45518717D01*
X126688606Y-45434884D01*
X126753787Y-45338826D01*
X126791679Y-45283650D01*
X126860725Y-45182481D01*
X126922050Y-45090630D01*
X126972663Y-45012744D01*
X127009571Y-44953469D01*
X127029782Y-44917451D01*
X127032701Y-44909377D01*
X127020153Y-44890584D01*
X126985463Y-44850457D01*
X126933063Y-44793493D01*
X126867384Y-44724185D01*
X126792856Y-44647031D01*
X126713913Y-44566525D01*
X126634983Y-44487163D01*
X126560500Y-44413440D01*
X126494894Y-44349852D01*
X126442596Y-44300894D01*
X126408039Y-44271061D01*
X126396478Y-44263942D01*
X126377654Y-44273953D01*
X126332631Y-44302078D01*
X126265787Y-44345454D01*
X126181499Y-44401218D01*
X126084144Y-44466506D01*
X126010707Y-44516246D01*
X125639667Y-44768551D01*
X125021095Y-44513555D01*
X124937275Y-44068931D01*
X124853454Y-43624307D01*
X123928006Y-43624307D01*
X123844186Y-44068931D01*
X123844186Y-44068931D01*
G37*
X123844186Y-44068931D02*
X123760365Y-44513555D01*
X123451080Y-44641053D01*
X123141794Y-44768551D01*
X122770754Y-44516246D01*
X122666843Y-44445996D01*
X122572913Y-44383272D01*
X122493348Y-44330938D01*
X122432530Y-44291857D01*
X122394843Y-44268893D01*
X122384579Y-44263942D01*
X122366090Y-44276676D01*
X122326580Y-44311882D01*
X122270478Y-44365062D01*
X122202213Y-44431718D01*
X122126214Y-44507354D01*
X122046908Y-44587472D01*
X121968725Y-44667574D01*
X121896093Y-44743164D01*
X121833441Y-44809745D01*
X121785197Y-44862818D01*
X121755790Y-44897887D01*
X121748759Y-44909623D01*
X121758877Y-44931260D01*
X121787241Y-44978662D01*
X121830871Y-45047193D01*
X121886782Y-45132215D01*
X121951994Y-45229093D01*
X121989781Y-45284350D01*
X122058657Y-45385248D01*
X122119860Y-45476299D01*
X122170422Y-45552970D01*
X122207372Y-45610728D01*
X122227742Y-45645043D01*
X122230803Y-45652254D01*
X122223864Y-45672748D01*
X122204949Y-45720513D01*
X122176913Y-45788832D01*
X122142609Y-45870989D01*
X122104891Y-45960270D01*
X122066613Y-46049958D01*
X122030630Y-46133338D01*
X121999794Y-46203694D01*
X121976961Y-46254310D01*
X121964983Y-46278471D01*
X121964276Y-46279422D01*
X121945469Y-46284036D01*
X121895382Y-46294328D01*
X121819207Y-46309287D01*
X121722135Y-46327901D01*
X121609357Y-46349159D01*
X121543558Y-46361418D01*
X121423050Y-46384362D01*
X121314203Y-46406195D01*
X121222524Y-46425722D01*
X121153519Y-46441748D01*
X121112696Y-46453079D01*
X121104489Y-46456674D01*
X121096452Y-46481006D01*
X121089967Y-46535959D01*
X121085030Y-46615108D01*
X121081636Y-46712026D01*
X121079782Y-46820287D01*
X121079462Y-46933465D01*
X121080673Y-47045135D01*
X121083410Y-47148868D01*
X121087669Y-47238241D01*
X121093445Y-47306826D01*
X121100733Y-47348197D01*
X121105105Y-47356810D01*
X121131236Y-47367133D01*
X121186607Y-47381892D01*
X121263893Y-47399352D01*
X121355770Y-47417780D01*
X121387842Y-47423741D01*
X121542476Y-47452066D01*
X121664625Y-47474876D01*
X121758327Y-47493080D01*
X121827616Y-47507583D01*
X121876529Y-47519292D01*
X121909103Y-47529115D01*
X121929372Y-47537956D01*
X121941374Y-47546724D01*
X121943053Y-47548457D01*
X121959816Y-47576371D01*
X121985386Y-47630695D01*
X122017212Y-47704777D01*
X122052740Y-47791965D01*
X122089417Y-47885608D01*
X122124689Y-47979052D01*
X122156004Y-48065647D01*
X122180807Y-48138740D01*
X122196546Y-48191678D01*
X122200668Y-48217811D01*
X122200324Y-48218726D01*
X122186359Y-48240086D01*
X122154678Y-48287084D01*
X122108609Y-48354827D01*
X122051482Y-48438423D01*
X121986627Y-48532982D01*
X121968157Y-48559854D01*
X121902301Y-48657275D01*
X121844350Y-48746163D01*
X121797462Y-48821412D01*
X121764793Y-48877920D01*
X121749500Y-48910581D01*
X121748759Y-48914593D01*
X121761608Y-48935684D01*
X121797112Y-48977464D01*
X121850707Y-49035445D01*
X121917829Y-49105135D01*
X121993913Y-49182045D01*
X122074396Y-49261683D01*
X122154713Y-49339561D01*
X122230301Y-49411186D01*
X122296595Y-49472070D01*
X122349031Y-49517721D01*
X122383045Y-49543650D01*
X122392455Y-49547883D01*
X122414357Y-49537912D01*
X122459200Y-49511020D01*
X122519679Y-49471736D01*
X122566211Y-49440117D01*
X122650525Y-49382098D01*
X122750374Y-49313784D01*
X122850527Y-49245579D01*
X122904373Y-49209075D01*
X123086629Y-49085800D01*
X123239619Y-49168520D01*
X123309318Y-49204759D01*
X123368586Y-49232926D01*
X123408689Y-49248991D01*
X123418897Y-49251226D01*
X123431171Y-49234722D01*
X123455387Y-49188082D01*
X123489737Y-49115609D01*
X123532412Y-49021606D01*
X123581606Y-48910374D01*
X123635510Y-48786215D01*
X123692316Y-48653432D01*
X123750218Y-48516327D01*
X123807407Y-48379202D01*
X123862076Y-48246358D01*
X123912416Y-48122098D01*
X123956620Y-48010725D01*
X123992881Y-47916539D01*
X124019391Y-47843844D01*
X124034342Y-47796941D01*
X124036746Y-47780833D01*
X124017689Y-47760286D01*
X123975964Y-47726933D01*
X123920294Y-47687702D01*
X123915622Y-47684599D01*
X123771736Y-47569423D01*
X123655717Y-47435053D01*
X123568570Y-47285784D01*
X123511301Y-47125913D01*
X123484914Y-46959737D01*
X123490415Y-46791552D01*
X123528810Y-46625655D01*
X123601105Y-46466342D01*
X123622374Y-46431487D01*
X123733004Y-46290737D01*
X123863698Y-46177714D01*
X124009936Y-46093003D01*
X124167192Y-46037194D01*
X124330943Y-46010874D01*
X124496667Y-46014630D01*
X124659838Y-46049050D01*
X124815935Y-46114723D01*
X124960433Y-46212235D01*
X125005131Y-46251813D01*
X125118888Y-46375703D01*
X125201782Y-46506124D01*
X125258644Y-46652315D01*
X125290313Y-46797088D01*
X125298131Y-46959860D01*
X125272062Y-47123440D01*
X125214755Y-47282298D01*
X125128856Y-47430906D01*
X125017014Y-47563735D01*
X124881877Y-47675256D01*
X124864117Y-47687011D01*
X124807850Y-47725508D01*
X124765077Y-47758863D01*
X124744628Y-47780160D01*
X124744331Y-47780833D01*
X124748721Y-47803871D01*
X124766124Y-47856157D01*
X124794732Y-47933390D01*
X124832735Y-48031268D01*
X124878326Y-48145491D01*
X124929697Y-48271758D01*
X124985038Y-48405767D01*
X125042542Y-48543218D01*
X125100399Y-48679808D01*
X125156802Y-48811237D01*
X125209942Y-48933205D01*
X125258010Y-49041409D01*
X125299199Y-49131549D01*
X125331699Y-49199323D01*
X125353703Y-49240430D01*
X125362564Y-49251226D01*
X125389640Y-49242819D01*
X125440303Y-49220272D01*
X125505817Y-49187613D01*
X125541841Y-49168520D01*
X125694832Y-49085800D01*
X125877088Y-49209075D01*
X125970125Y-49272228D01*
X126071985Y-49341727D01*
X126167438Y-49407165D01*
X126215250Y-49440117D01*
X126282495Y-49485273D01*
X126339436Y-49521057D01*
X126378646Y-49542938D01*
X126391381Y-49547563D01*
X126409917Y-49535085D01*
X126450941Y-49500252D01*
X126510475Y-49446678D01*
X126584542Y-49377983D01*
X126669165Y-49297781D01*
X126722685Y-49246286D01*
X126816319Y-49154286D01*
X126897241Y-49071999D01*
X126962177Y-49002945D01*
X127007858Y-48950644D01*
X127031011Y-48918616D01*
X127033232Y-48912116D01*
X127022924Y-48887394D01*
X126994439Y-48837405D01*
X126950937Y-48767212D01*
X126895577Y-48681875D01*
X126831520Y-48586456D01*
X126813303Y-48559854D01*
X126746927Y-48463167D01*
X126687378Y-48376117D01*
X126637984Y-48303595D01*
X126602075Y-48250493D01*
X126582981Y-48221703D01*
X126581136Y-48218726D01*
X126583895Y-48195782D01*
X126598538Y-48145336D01*
X126622513Y-48074041D01*
X126653266Y-47988547D01*
X126688244Y-47895507D01*
X126724893Y-47801574D01*
X126760661Y-47713399D01*
X126792994Y-47637634D01*
X126819338Y-47580931D01*
X126837142Y-47549943D01*
X126838407Y-47548457D01*
X126849294Y-47539601D01*
X126867682Y-47530843D01*
X126897606Y-47521277D01*
X126943103Y-47509996D01*
X127008209Y-47496093D01*
X127096961Y-47478663D01*
X127213393Y-47456798D01*
X127361542Y-47429591D01*
X127393618Y-47423741D01*
X127488686Y-47405374D01*
X127571565Y-47387405D01*
X127634930Y-47371569D01*
X127671458Y-47359600D01*
X127676356Y-47356810D01*
X127684427Y-47332072D01*
X127690987Y-47276790D01*
X127696033Y-47197389D01*
X127699559Y-47100296D01*
X127701561Y-46991938D01*
X127702036Y-46878740D01*
X127700977Y-46767128D01*
X127698382Y-46663529D01*
X127694246Y-46574368D01*
X127688563Y-46506072D01*
X127681331Y-46465066D01*
X127676971Y-46456674D01*
X127652698Y-46448208D01*
X127597426Y-46434435D01*
X127516662Y-46416550D01*
X127415912Y-46395748D01*
X127300683Y-46373223D01*
X127237902Y-46361418D01*
X127118787Y-46339151D01*
X127012565Y-46318979D01*
X126924427Y-46301915D01*
X126859566Y-46288969D01*
X126823174Y-46281155D01*
X126817184Y-46279422D01*
X126807061Y-46259890D01*
X126785662Y-46212843D01*
X126755839Y-46145003D01*
X126720445Y-46063091D01*
X126682332Y-45973828D01*
X126644353Y-45883935D01*
X126609360Y-45800135D01*
X126580206Y-45729147D01*
X126559743Y-45677694D01*
X126550823Y-45652497D01*
X126550657Y-45651396D01*
X126560769Y-45631519D01*
X126589117Y-45585777D01*
X126632723Y-45518717D01*
X126688606Y-45434884D01*
X126753787Y-45338826D01*
X126791679Y-45283650D01*
X126860725Y-45182481D01*
X126922050Y-45090630D01*
X126972663Y-45012744D01*
X127009571Y-44953469D01*
X127029782Y-44917451D01*
X127032701Y-44909377D01*
X127020153Y-44890584D01*
X126985463Y-44850457D01*
X126933063Y-44793493D01*
X126867384Y-44724185D01*
X126792856Y-44647031D01*
X126713913Y-44566525D01*
X126634983Y-44487163D01*
X126560500Y-44413440D01*
X126494894Y-44349852D01*
X126442596Y-44300894D01*
X126408039Y-44271061D01*
X126396478Y-44263942D01*
X126377654Y-44273953D01*
X126332631Y-44302078D01*
X126265787Y-44345454D01*
X126181499Y-44401218D01*
X126084144Y-44466506D01*
X126010707Y-44516246D01*
X125639667Y-44768551D01*
X125021095Y-44513555D01*
X124937275Y-44068931D01*
X124853454Y-43624307D01*
X123928006Y-43624307D01*
X123844186Y-44068931D01*
D14*
X123828571Y-61664285D02*
X123876190Y-61807142D01*
X123923809Y-61854761D01*
X124019047Y-61902380D01*
X124161904Y-61902380D01*
X124257142Y-61854761D01*
X124304761Y-61807142D01*
X124352380Y-61711904D01*
X124352380Y-61330952D01*
X123352380Y-61330952D01*
X123352380Y-61664285D01*
X123400000Y-61759523D01*
X123447619Y-61807142D01*
X123542857Y-61854761D01*
X123638095Y-61854761D01*
X123733333Y-61807142D01*
X123780952Y-61759523D01*
X123828571Y-61664285D01*
X123828571Y-61330952D01*
X123352380Y-62188095D02*
X123352380Y-62759523D01*
X124352380Y-62473809D02*
X123352380Y-62473809D01*
X124352380Y-63616666D02*
X124352380Y-63045238D01*
X124352380Y-63330952D02*
X123352380Y-63330952D01*
X123495238Y-63235714D01*
X123590476Y-63140476D01*
X123638095Y-63045238D01*
M02*
