M48
; DRILL file {KiCad (5.1.2-1)-1} date 2021 February 24, Wednesday 07:54:17
; FORMAT={3:3/ absolute / metric / suppress leading zeros}
; #@! TF.CreationDate,2021-02-24T07:54:17+01:00
; #@! TF.GenerationSoftware,Kicad,Pcbnew,(5.1.2-1)-1
FMAT,2
METRIC,TZ
T1C0.400
%
G90
G05
T1
X106000Y-91000
X106670Y-69205
X107100Y-81100
X109900Y-62100
X112100Y-54900
X113200Y-55300
X114200Y-84400
X114600Y-90500
X115630Y-51970
X117600Y-51100
X119500Y-57900
X120700Y-85075
X121300Y-80000
X123100Y-78500
X124000Y-86000
X125100Y-73100
X125600Y-93500
X126200Y-63100
X126600Y-78800
X126600Y-81300
T0
M30
