G04 #@! TF.GenerationSoftware,KiCad,Pcbnew,(5.1.2-1)-1*
G04 #@! TF.CreationDate,2021-02-23T21:51:24+01:00*
G04 #@! TF.ProjectId,parasite,70617261-7369-4746-952e-6b696361645f,1.1.0*
G04 #@! TF.SameCoordinates,Original*
G04 #@! TF.FileFunction,Copper,L1,Top*
G04 #@! TF.FilePolarity,Positive*
%FSLAX46Y46*%
G04 Gerber Fmt 4.6, Leading zero omitted, Abs format (unit mm)*
G04 Created by KiCad (PCBNEW (5.1.2-1)-1) date 2021-02-23 21:51:24*
%MOMM*%
%LPD*%
G04 APERTURE LIST*
%ADD10R,1.000000X1.700000*%
%ADD11R,0.550000X0.250000*%
%ADD12R,2.000000X0.800000*%
%ADD13R,0.800000X2.000000*%
%ADD14R,0.590000X1.210000*%
%ADD15C,0.100000*%
%ADD16C,0.975000*%
%ADD17C,1.000000*%
%ADD18C,0.500000*%
%ADD19R,0.800000X0.900000*%
%ADD20R,1.700000X1.300000*%
%ADD21C,0.800000*%
%ADD22C,0.250000*%
%ADD23C,10.000000*%
%ADD24C,0.254000*%
G04 APERTURE END LIST*
D10*
X116200000Y-74500000D03*
D11*
X115025000Y-73750000D03*
X115025000Y-74250000D03*
X115025000Y-74750000D03*
X115025000Y-75250000D03*
X117375000Y-73750000D03*
X117375000Y-74250000D03*
X117375000Y-74750000D03*
X117375000Y-75250000D03*
D12*
X124150000Y-50155000D03*
X124150000Y-48885000D03*
X124130000Y-52695000D03*
X124130000Y-53965000D03*
X124130000Y-55235000D03*
X124130000Y-56505000D03*
X124130000Y-57775000D03*
X124130000Y-59045000D03*
X124130000Y-60315000D03*
X124130000Y-61585000D03*
X124130000Y-62855000D03*
X124130000Y-64125000D03*
X124130000Y-65395000D03*
X124130000Y-66665000D03*
X124130000Y-67935000D03*
X124130000Y-69205000D03*
D13*
X122385000Y-70950000D03*
X121115000Y-70950000D03*
X119845000Y-70950000D03*
X118575000Y-70950000D03*
X117305000Y-70950000D03*
X116035000Y-70950000D03*
X114765000Y-70950000D03*
X113495000Y-70950000D03*
X112225000Y-70950000D03*
X110955000Y-70950000D03*
X109685000Y-70950000D03*
X108415000Y-70950000D03*
D12*
X106670000Y-69205000D03*
X106670000Y-67935000D03*
X106670000Y-66665000D03*
X106670000Y-65395000D03*
X106670000Y-64125000D03*
X106670000Y-62855000D03*
X106670000Y-61585000D03*
X106670000Y-60315000D03*
X106670000Y-59045000D03*
X106670000Y-57775000D03*
X106670000Y-56505000D03*
X106670000Y-55235000D03*
X106670000Y-53965000D03*
X106670000Y-52695000D03*
X106650000Y-50155000D03*
X106650000Y-48885000D03*
D14*
X111840000Y-76985000D03*
X112790000Y-79495000D03*
X110890000Y-79495000D03*
D15*
G36*
X120680142Y-73513674D02*
G01*
X120703803Y-73517184D01*
X120727007Y-73522996D01*
X120749529Y-73531054D01*
X120771153Y-73541282D01*
X120791670Y-73553579D01*
X120810883Y-73567829D01*
X120828607Y-73583893D01*
X120844671Y-73601617D01*
X120858921Y-73620830D01*
X120871218Y-73641347D01*
X120881446Y-73662971D01*
X120889504Y-73685493D01*
X120895316Y-73708697D01*
X120898826Y-73732358D01*
X120900000Y-73756250D01*
X120900000Y-74243750D01*
X120898826Y-74267642D01*
X120895316Y-74291303D01*
X120889504Y-74314507D01*
X120881446Y-74337029D01*
X120871218Y-74358653D01*
X120858921Y-74379170D01*
X120844671Y-74398383D01*
X120828607Y-74416107D01*
X120810883Y-74432171D01*
X120791670Y-74446421D01*
X120771153Y-74458718D01*
X120749529Y-74468946D01*
X120727007Y-74477004D01*
X120703803Y-74482816D01*
X120680142Y-74486326D01*
X120656250Y-74487500D01*
X119743750Y-74487500D01*
X119719858Y-74486326D01*
X119696197Y-74482816D01*
X119672993Y-74477004D01*
X119650471Y-74468946D01*
X119628847Y-74458718D01*
X119608330Y-74446421D01*
X119589117Y-74432171D01*
X119571393Y-74416107D01*
X119555329Y-74398383D01*
X119541079Y-74379170D01*
X119528782Y-74358653D01*
X119518554Y-74337029D01*
X119510496Y-74314507D01*
X119504684Y-74291303D01*
X119501174Y-74267642D01*
X119500000Y-74243750D01*
X119500000Y-73756250D01*
X119501174Y-73732358D01*
X119504684Y-73708697D01*
X119510496Y-73685493D01*
X119518554Y-73662971D01*
X119528782Y-73641347D01*
X119541079Y-73620830D01*
X119555329Y-73601617D01*
X119571393Y-73583893D01*
X119589117Y-73567829D01*
X119608330Y-73553579D01*
X119628847Y-73541282D01*
X119650471Y-73531054D01*
X119672993Y-73522996D01*
X119696197Y-73517184D01*
X119719858Y-73513674D01*
X119743750Y-73512500D01*
X120656250Y-73512500D01*
X120680142Y-73513674D01*
X120680142Y-73513674D01*
G37*
D16*
X120200000Y-74000000D03*
D15*
G36*
X120680142Y-75388674D02*
G01*
X120703803Y-75392184D01*
X120727007Y-75397996D01*
X120749529Y-75406054D01*
X120771153Y-75416282D01*
X120791670Y-75428579D01*
X120810883Y-75442829D01*
X120828607Y-75458893D01*
X120844671Y-75476617D01*
X120858921Y-75495830D01*
X120871218Y-75516347D01*
X120881446Y-75537971D01*
X120889504Y-75560493D01*
X120895316Y-75583697D01*
X120898826Y-75607358D01*
X120900000Y-75631250D01*
X120900000Y-76118750D01*
X120898826Y-76142642D01*
X120895316Y-76166303D01*
X120889504Y-76189507D01*
X120881446Y-76212029D01*
X120871218Y-76233653D01*
X120858921Y-76254170D01*
X120844671Y-76273383D01*
X120828607Y-76291107D01*
X120810883Y-76307171D01*
X120791670Y-76321421D01*
X120771153Y-76333718D01*
X120749529Y-76343946D01*
X120727007Y-76352004D01*
X120703803Y-76357816D01*
X120680142Y-76361326D01*
X120656250Y-76362500D01*
X119743750Y-76362500D01*
X119719858Y-76361326D01*
X119696197Y-76357816D01*
X119672993Y-76352004D01*
X119650471Y-76343946D01*
X119628847Y-76333718D01*
X119608330Y-76321421D01*
X119589117Y-76307171D01*
X119571393Y-76291107D01*
X119555329Y-76273383D01*
X119541079Y-76254170D01*
X119528782Y-76233653D01*
X119518554Y-76212029D01*
X119510496Y-76189507D01*
X119504684Y-76166303D01*
X119501174Y-76142642D01*
X119500000Y-76118750D01*
X119500000Y-75631250D01*
X119501174Y-75607358D01*
X119504684Y-75583697D01*
X119510496Y-75560493D01*
X119518554Y-75537971D01*
X119528782Y-75516347D01*
X119541079Y-75495830D01*
X119555329Y-75476617D01*
X119571393Y-75458893D01*
X119589117Y-75442829D01*
X119608330Y-75428579D01*
X119628847Y-75416282D01*
X119650471Y-75406054D01*
X119672993Y-75397996D01*
X119696197Y-75392184D01*
X119719858Y-75388674D01*
X119743750Y-75387500D01*
X120656250Y-75387500D01*
X120680142Y-75388674D01*
X120680142Y-75388674D01*
G37*
D16*
X120200000Y-75875000D03*
D15*
G36*
X122880142Y-75351174D02*
G01*
X122903803Y-75354684D01*
X122927007Y-75360496D01*
X122949529Y-75368554D01*
X122971153Y-75378782D01*
X122991670Y-75391079D01*
X123010883Y-75405329D01*
X123028607Y-75421393D01*
X123044671Y-75439117D01*
X123058921Y-75458330D01*
X123071218Y-75478847D01*
X123081446Y-75500471D01*
X123089504Y-75522993D01*
X123095316Y-75546197D01*
X123098826Y-75569858D01*
X123100000Y-75593750D01*
X123100000Y-76081250D01*
X123098826Y-76105142D01*
X123095316Y-76128803D01*
X123089504Y-76152007D01*
X123081446Y-76174529D01*
X123071218Y-76196153D01*
X123058921Y-76216670D01*
X123044671Y-76235883D01*
X123028607Y-76253607D01*
X123010883Y-76269671D01*
X122991670Y-76283921D01*
X122971153Y-76296218D01*
X122949529Y-76306446D01*
X122927007Y-76314504D01*
X122903803Y-76320316D01*
X122880142Y-76323826D01*
X122856250Y-76325000D01*
X121943750Y-76325000D01*
X121919858Y-76323826D01*
X121896197Y-76320316D01*
X121872993Y-76314504D01*
X121850471Y-76306446D01*
X121828847Y-76296218D01*
X121808330Y-76283921D01*
X121789117Y-76269671D01*
X121771393Y-76253607D01*
X121755329Y-76235883D01*
X121741079Y-76216670D01*
X121728782Y-76196153D01*
X121718554Y-76174529D01*
X121710496Y-76152007D01*
X121704684Y-76128803D01*
X121701174Y-76105142D01*
X121700000Y-76081250D01*
X121700000Y-75593750D01*
X121701174Y-75569858D01*
X121704684Y-75546197D01*
X121710496Y-75522993D01*
X121718554Y-75500471D01*
X121728782Y-75478847D01*
X121741079Y-75458330D01*
X121755329Y-75439117D01*
X121771393Y-75421393D01*
X121789117Y-75405329D01*
X121808330Y-75391079D01*
X121828847Y-75378782D01*
X121850471Y-75368554D01*
X121872993Y-75360496D01*
X121896197Y-75354684D01*
X121919858Y-75351174D01*
X121943750Y-75350000D01*
X122856250Y-75350000D01*
X122880142Y-75351174D01*
X122880142Y-75351174D01*
G37*
D16*
X122400000Y-75837500D03*
D15*
G36*
X122880142Y-73476174D02*
G01*
X122903803Y-73479684D01*
X122927007Y-73485496D01*
X122949529Y-73493554D01*
X122971153Y-73503782D01*
X122991670Y-73516079D01*
X123010883Y-73530329D01*
X123028607Y-73546393D01*
X123044671Y-73564117D01*
X123058921Y-73583330D01*
X123071218Y-73603847D01*
X123081446Y-73625471D01*
X123089504Y-73647993D01*
X123095316Y-73671197D01*
X123098826Y-73694858D01*
X123100000Y-73718750D01*
X123100000Y-74206250D01*
X123098826Y-74230142D01*
X123095316Y-74253803D01*
X123089504Y-74277007D01*
X123081446Y-74299529D01*
X123071218Y-74321153D01*
X123058921Y-74341670D01*
X123044671Y-74360883D01*
X123028607Y-74378607D01*
X123010883Y-74394671D01*
X122991670Y-74408921D01*
X122971153Y-74421218D01*
X122949529Y-74431446D01*
X122927007Y-74439504D01*
X122903803Y-74445316D01*
X122880142Y-74448826D01*
X122856250Y-74450000D01*
X121943750Y-74450000D01*
X121919858Y-74448826D01*
X121896197Y-74445316D01*
X121872993Y-74439504D01*
X121850471Y-74431446D01*
X121828847Y-74421218D01*
X121808330Y-74408921D01*
X121789117Y-74394671D01*
X121771393Y-74378607D01*
X121755329Y-74360883D01*
X121741079Y-74341670D01*
X121728782Y-74321153D01*
X121718554Y-74299529D01*
X121710496Y-74277007D01*
X121704684Y-74253803D01*
X121701174Y-74230142D01*
X121700000Y-74206250D01*
X121700000Y-73718750D01*
X121701174Y-73694858D01*
X121704684Y-73671197D01*
X121710496Y-73647993D01*
X121718554Y-73625471D01*
X121728782Y-73603847D01*
X121741079Y-73583330D01*
X121755329Y-73564117D01*
X121771393Y-73546393D01*
X121789117Y-73530329D01*
X121808330Y-73516079D01*
X121828847Y-73503782D01*
X121850471Y-73493554D01*
X121872993Y-73485496D01*
X121896197Y-73479684D01*
X121919858Y-73476174D01*
X121943750Y-73475000D01*
X122856250Y-73475000D01*
X122880142Y-73476174D01*
X122880142Y-73476174D01*
G37*
D16*
X122400000Y-73962500D03*
D15*
G36*
X120480142Y-80513674D02*
G01*
X120503803Y-80517184D01*
X120527007Y-80522996D01*
X120549529Y-80531054D01*
X120571153Y-80541282D01*
X120591670Y-80553579D01*
X120610883Y-80567829D01*
X120628607Y-80583893D01*
X120644671Y-80601617D01*
X120658921Y-80620830D01*
X120671218Y-80641347D01*
X120681446Y-80662971D01*
X120689504Y-80685493D01*
X120695316Y-80708697D01*
X120698826Y-80732358D01*
X120700000Y-80756250D01*
X120700000Y-81243750D01*
X120698826Y-81267642D01*
X120695316Y-81291303D01*
X120689504Y-81314507D01*
X120681446Y-81337029D01*
X120671218Y-81358653D01*
X120658921Y-81379170D01*
X120644671Y-81398383D01*
X120628607Y-81416107D01*
X120610883Y-81432171D01*
X120591670Y-81446421D01*
X120571153Y-81458718D01*
X120549529Y-81468946D01*
X120527007Y-81477004D01*
X120503803Y-81482816D01*
X120480142Y-81486326D01*
X120456250Y-81487500D01*
X119543750Y-81487500D01*
X119519858Y-81486326D01*
X119496197Y-81482816D01*
X119472993Y-81477004D01*
X119450471Y-81468946D01*
X119428847Y-81458718D01*
X119408330Y-81446421D01*
X119389117Y-81432171D01*
X119371393Y-81416107D01*
X119355329Y-81398383D01*
X119341079Y-81379170D01*
X119328782Y-81358653D01*
X119318554Y-81337029D01*
X119310496Y-81314507D01*
X119304684Y-81291303D01*
X119301174Y-81267642D01*
X119300000Y-81243750D01*
X119300000Y-80756250D01*
X119301174Y-80732358D01*
X119304684Y-80708697D01*
X119310496Y-80685493D01*
X119318554Y-80662971D01*
X119328782Y-80641347D01*
X119341079Y-80620830D01*
X119355329Y-80601617D01*
X119371393Y-80583893D01*
X119389117Y-80567829D01*
X119408330Y-80553579D01*
X119428847Y-80541282D01*
X119450471Y-80531054D01*
X119472993Y-80522996D01*
X119496197Y-80517184D01*
X119519858Y-80513674D01*
X119543750Y-80512500D01*
X120456250Y-80512500D01*
X120480142Y-80513674D01*
X120480142Y-80513674D01*
G37*
D16*
X120000000Y-81000000D03*
D15*
G36*
X120480142Y-78638674D02*
G01*
X120503803Y-78642184D01*
X120527007Y-78647996D01*
X120549529Y-78656054D01*
X120571153Y-78666282D01*
X120591670Y-78678579D01*
X120610883Y-78692829D01*
X120628607Y-78708893D01*
X120644671Y-78726617D01*
X120658921Y-78745830D01*
X120671218Y-78766347D01*
X120681446Y-78787971D01*
X120689504Y-78810493D01*
X120695316Y-78833697D01*
X120698826Y-78857358D01*
X120700000Y-78881250D01*
X120700000Y-79368750D01*
X120698826Y-79392642D01*
X120695316Y-79416303D01*
X120689504Y-79439507D01*
X120681446Y-79462029D01*
X120671218Y-79483653D01*
X120658921Y-79504170D01*
X120644671Y-79523383D01*
X120628607Y-79541107D01*
X120610883Y-79557171D01*
X120591670Y-79571421D01*
X120571153Y-79583718D01*
X120549529Y-79593946D01*
X120527007Y-79602004D01*
X120503803Y-79607816D01*
X120480142Y-79611326D01*
X120456250Y-79612500D01*
X119543750Y-79612500D01*
X119519858Y-79611326D01*
X119496197Y-79607816D01*
X119472993Y-79602004D01*
X119450471Y-79593946D01*
X119428847Y-79583718D01*
X119408330Y-79571421D01*
X119389117Y-79557171D01*
X119371393Y-79541107D01*
X119355329Y-79523383D01*
X119341079Y-79504170D01*
X119328782Y-79483653D01*
X119318554Y-79462029D01*
X119310496Y-79439507D01*
X119304684Y-79416303D01*
X119301174Y-79392642D01*
X119300000Y-79368750D01*
X119300000Y-78881250D01*
X119301174Y-78857358D01*
X119304684Y-78833697D01*
X119310496Y-78810493D01*
X119318554Y-78787971D01*
X119328782Y-78766347D01*
X119341079Y-78745830D01*
X119355329Y-78726617D01*
X119371393Y-78708893D01*
X119389117Y-78692829D01*
X119408330Y-78678579D01*
X119428847Y-78666282D01*
X119450471Y-78656054D01*
X119472993Y-78647996D01*
X119496197Y-78642184D01*
X119519858Y-78638674D01*
X119543750Y-78637500D01*
X120456250Y-78637500D01*
X120480142Y-78638674D01*
X120480142Y-78638674D01*
G37*
D16*
X120000000Y-79125000D03*
D17*
X129540000Y-53340000D03*
X129540000Y-60960000D03*
X129540000Y-63500000D03*
X129540000Y-58420000D03*
X129540000Y-55880000D03*
D15*
G36*
X130867642Y-72001174D02*
G01*
X130891303Y-72004684D01*
X130914507Y-72010496D01*
X130937029Y-72018554D01*
X130958653Y-72028782D01*
X130979170Y-72041079D01*
X130998383Y-72055329D01*
X131016107Y-72071393D01*
X131032171Y-72089117D01*
X131046421Y-72108330D01*
X131058718Y-72128847D01*
X131068946Y-72150471D01*
X131077004Y-72172993D01*
X131082816Y-72196197D01*
X131086326Y-72219858D01*
X131087500Y-72243750D01*
X131087500Y-73156250D01*
X131086326Y-73180142D01*
X131082816Y-73203803D01*
X131077004Y-73227007D01*
X131068946Y-73249529D01*
X131058718Y-73271153D01*
X131046421Y-73291670D01*
X131032171Y-73310883D01*
X131016107Y-73328607D01*
X130998383Y-73344671D01*
X130979170Y-73358921D01*
X130958653Y-73371218D01*
X130937029Y-73381446D01*
X130914507Y-73389504D01*
X130891303Y-73395316D01*
X130867642Y-73398826D01*
X130843750Y-73400000D01*
X130356250Y-73400000D01*
X130332358Y-73398826D01*
X130308697Y-73395316D01*
X130285493Y-73389504D01*
X130262971Y-73381446D01*
X130241347Y-73371218D01*
X130220830Y-73358921D01*
X130201617Y-73344671D01*
X130183893Y-73328607D01*
X130167829Y-73310883D01*
X130153579Y-73291670D01*
X130141282Y-73271153D01*
X130131054Y-73249529D01*
X130122996Y-73227007D01*
X130117184Y-73203803D01*
X130113674Y-73180142D01*
X130112500Y-73156250D01*
X130112500Y-72243750D01*
X130113674Y-72219858D01*
X130117184Y-72196197D01*
X130122996Y-72172993D01*
X130131054Y-72150471D01*
X130141282Y-72128847D01*
X130153579Y-72108330D01*
X130167829Y-72089117D01*
X130183893Y-72071393D01*
X130201617Y-72055329D01*
X130220830Y-72041079D01*
X130241347Y-72028782D01*
X130262971Y-72018554D01*
X130285493Y-72010496D01*
X130308697Y-72004684D01*
X130332358Y-72001174D01*
X130356250Y-72000000D01*
X130843750Y-72000000D01*
X130867642Y-72001174D01*
X130867642Y-72001174D01*
G37*
D16*
X130600000Y-72700000D03*
D15*
G36*
X128992642Y-72001174D02*
G01*
X129016303Y-72004684D01*
X129039507Y-72010496D01*
X129062029Y-72018554D01*
X129083653Y-72028782D01*
X129104170Y-72041079D01*
X129123383Y-72055329D01*
X129141107Y-72071393D01*
X129157171Y-72089117D01*
X129171421Y-72108330D01*
X129183718Y-72128847D01*
X129193946Y-72150471D01*
X129202004Y-72172993D01*
X129207816Y-72196197D01*
X129211326Y-72219858D01*
X129212500Y-72243750D01*
X129212500Y-73156250D01*
X129211326Y-73180142D01*
X129207816Y-73203803D01*
X129202004Y-73227007D01*
X129193946Y-73249529D01*
X129183718Y-73271153D01*
X129171421Y-73291670D01*
X129157171Y-73310883D01*
X129141107Y-73328607D01*
X129123383Y-73344671D01*
X129104170Y-73358921D01*
X129083653Y-73371218D01*
X129062029Y-73381446D01*
X129039507Y-73389504D01*
X129016303Y-73395316D01*
X128992642Y-73398826D01*
X128968750Y-73400000D01*
X128481250Y-73400000D01*
X128457358Y-73398826D01*
X128433697Y-73395316D01*
X128410493Y-73389504D01*
X128387971Y-73381446D01*
X128366347Y-73371218D01*
X128345830Y-73358921D01*
X128326617Y-73344671D01*
X128308893Y-73328607D01*
X128292829Y-73310883D01*
X128278579Y-73291670D01*
X128266282Y-73271153D01*
X128256054Y-73249529D01*
X128247996Y-73227007D01*
X128242184Y-73203803D01*
X128238674Y-73180142D01*
X128237500Y-73156250D01*
X128237500Y-72243750D01*
X128238674Y-72219858D01*
X128242184Y-72196197D01*
X128247996Y-72172993D01*
X128256054Y-72150471D01*
X128266282Y-72128847D01*
X128278579Y-72108330D01*
X128292829Y-72089117D01*
X128308893Y-72071393D01*
X128326617Y-72055329D01*
X128345830Y-72041079D01*
X128366347Y-72028782D01*
X128387971Y-72018554D01*
X128410493Y-72010496D01*
X128433697Y-72004684D01*
X128457358Y-72001174D01*
X128481250Y-72000000D01*
X128968750Y-72000000D01*
X128992642Y-72001174D01*
X128992642Y-72001174D01*
G37*
D16*
X128725000Y-72700000D03*
D18*
X116200000Y-79050000D03*
D15*
G36*
X116949398Y-79050000D02*
G01*
X116949398Y-79074534D01*
X116944588Y-79123365D01*
X116935016Y-79171490D01*
X116920772Y-79218445D01*
X116901995Y-79263778D01*
X116878864Y-79307051D01*
X116851604Y-79347850D01*
X116820476Y-79385779D01*
X116785779Y-79420476D01*
X116747850Y-79451604D01*
X116707051Y-79478864D01*
X116663778Y-79501995D01*
X116618445Y-79520772D01*
X116571490Y-79535016D01*
X116523365Y-79544588D01*
X116474534Y-79549398D01*
X116450000Y-79549398D01*
X116450000Y-79550000D01*
X115950000Y-79550000D01*
X115950000Y-79549398D01*
X115925466Y-79549398D01*
X115876635Y-79544588D01*
X115828510Y-79535016D01*
X115781555Y-79520772D01*
X115736222Y-79501995D01*
X115692949Y-79478864D01*
X115652150Y-79451604D01*
X115614221Y-79420476D01*
X115579524Y-79385779D01*
X115548396Y-79347850D01*
X115521136Y-79307051D01*
X115498005Y-79263778D01*
X115479228Y-79218445D01*
X115464984Y-79171490D01*
X115455412Y-79123365D01*
X115450602Y-79074534D01*
X115450602Y-79050000D01*
X115450000Y-79050000D01*
X115450000Y-78550000D01*
X116950000Y-78550000D01*
X116950000Y-79050000D01*
X116949398Y-79050000D01*
X116949398Y-79050000D01*
G37*
D18*
X116200000Y-77750000D03*
D15*
G36*
X115450000Y-78250000D02*
G01*
X115450000Y-77750000D01*
X115450602Y-77750000D01*
X115450602Y-77725466D01*
X115455412Y-77676635D01*
X115464984Y-77628510D01*
X115479228Y-77581555D01*
X115498005Y-77536222D01*
X115521136Y-77492949D01*
X115548396Y-77452150D01*
X115579524Y-77414221D01*
X115614221Y-77379524D01*
X115652150Y-77348396D01*
X115692949Y-77321136D01*
X115736222Y-77298005D01*
X115781555Y-77279228D01*
X115828510Y-77264984D01*
X115876635Y-77255412D01*
X115925466Y-77250602D01*
X115950000Y-77250602D01*
X115950000Y-77250000D01*
X116450000Y-77250000D01*
X116450000Y-77250602D01*
X116474534Y-77250602D01*
X116523365Y-77255412D01*
X116571490Y-77264984D01*
X116618445Y-77279228D01*
X116663778Y-77298005D01*
X116707051Y-77321136D01*
X116747850Y-77348396D01*
X116785779Y-77379524D01*
X116820476Y-77414221D01*
X116851604Y-77452150D01*
X116878864Y-77492949D01*
X116901995Y-77536222D01*
X116920772Y-77581555D01*
X116935016Y-77628510D01*
X116944588Y-77676635D01*
X116949398Y-77725466D01*
X116949398Y-77750000D01*
X116950000Y-77750000D01*
X116950000Y-78250000D01*
X115450000Y-78250000D01*
X115450000Y-78250000D01*
G37*
G36*
X130825142Y-68446174D02*
G01*
X130848803Y-68449684D01*
X130872007Y-68455496D01*
X130894529Y-68463554D01*
X130916153Y-68473782D01*
X130936670Y-68486079D01*
X130955883Y-68500329D01*
X130973607Y-68516393D01*
X130989671Y-68534117D01*
X131003921Y-68553330D01*
X131016218Y-68573847D01*
X131026446Y-68595471D01*
X131034504Y-68617993D01*
X131040316Y-68641197D01*
X131043826Y-68664858D01*
X131045000Y-68688750D01*
X131045000Y-69601250D01*
X131043826Y-69625142D01*
X131040316Y-69648803D01*
X131034504Y-69672007D01*
X131026446Y-69694529D01*
X131016218Y-69716153D01*
X131003921Y-69736670D01*
X130989671Y-69755883D01*
X130973607Y-69773607D01*
X130955883Y-69789671D01*
X130936670Y-69803921D01*
X130916153Y-69816218D01*
X130894529Y-69826446D01*
X130872007Y-69834504D01*
X130848803Y-69840316D01*
X130825142Y-69843826D01*
X130801250Y-69845000D01*
X130313750Y-69845000D01*
X130289858Y-69843826D01*
X130266197Y-69840316D01*
X130242993Y-69834504D01*
X130220471Y-69826446D01*
X130198847Y-69816218D01*
X130178330Y-69803921D01*
X130159117Y-69789671D01*
X130141393Y-69773607D01*
X130125329Y-69755883D01*
X130111079Y-69736670D01*
X130098782Y-69716153D01*
X130088554Y-69694529D01*
X130080496Y-69672007D01*
X130074684Y-69648803D01*
X130071174Y-69625142D01*
X130070000Y-69601250D01*
X130070000Y-68688750D01*
X130071174Y-68664858D01*
X130074684Y-68641197D01*
X130080496Y-68617993D01*
X130088554Y-68595471D01*
X130098782Y-68573847D01*
X130111079Y-68553330D01*
X130125329Y-68534117D01*
X130141393Y-68516393D01*
X130159117Y-68500329D01*
X130178330Y-68486079D01*
X130198847Y-68473782D01*
X130220471Y-68463554D01*
X130242993Y-68455496D01*
X130266197Y-68449684D01*
X130289858Y-68446174D01*
X130313750Y-68445000D01*
X130801250Y-68445000D01*
X130825142Y-68446174D01*
X130825142Y-68446174D01*
G37*
D16*
X130557500Y-69145000D03*
D15*
G36*
X128950142Y-68446174D02*
G01*
X128973803Y-68449684D01*
X128997007Y-68455496D01*
X129019529Y-68463554D01*
X129041153Y-68473782D01*
X129061670Y-68486079D01*
X129080883Y-68500329D01*
X129098607Y-68516393D01*
X129114671Y-68534117D01*
X129128921Y-68553330D01*
X129141218Y-68573847D01*
X129151446Y-68595471D01*
X129159504Y-68617993D01*
X129165316Y-68641197D01*
X129168826Y-68664858D01*
X129170000Y-68688750D01*
X129170000Y-69601250D01*
X129168826Y-69625142D01*
X129165316Y-69648803D01*
X129159504Y-69672007D01*
X129151446Y-69694529D01*
X129141218Y-69716153D01*
X129128921Y-69736670D01*
X129114671Y-69755883D01*
X129098607Y-69773607D01*
X129080883Y-69789671D01*
X129061670Y-69803921D01*
X129041153Y-69816218D01*
X129019529Y-69826446D01*
X128997007Y-69834504D01*
X128973803Y-69840316D01*
X128950142Y-69843826D01*
X128926250Y-69845000D01*
X128438750Y-69845000D01*
X128414858Y-69843826D01*
X128391197Y-69840316D01*
X128367993Y-69834504D01*
X128345471Y-69826446D01*
X128323847Y-69816218D01*
X128303330Y-69803921D01*
X128284117Y-69789671D01*
X128266393Y-69773607D01*
X128250329Y-69755883D01*
X128236079Y-69736670D01*
X128223782Y-69716153D01*
X128213554Y-69694529D01*
X128205496Y-69672007D01*
X128199684Y-69648803D01*
X128196174Y-69625142D01*
X128195000Y-69601250D01*
X128195000Y-68688750D01*
X128196174Y-68664858D01*
X128199684Y-68641197D01*
X128205496Y-68617993D01*
X128213554Y-68595471D01*
X128223782Y-68573847D01*
X128236079Y-68553330D01*
X128250329Y-68534117D01*
X128266393Y-68516393D01*
X128284117Y-68500329D01*
X128303330Y-68486079D01*
X128323847Y-68473782D01*
X128345471Y-68463554D01*
X128367993Y-68455496D01*
X128391197Y-68449684D01*
X128414858Y-68446174D01*
X128438750Y-68445000D01*
X128926250Y-68445000D01*
X128950142Y-68446174D01*
X128950142Y-68446174D01*
G37*
D16*
X128682500Y-69145000D03*
D19*
X110000000Y-92500000D03*
X110950000Y-94500000D03*
X109050000Y-94500000D03*
X106950000Y-89000000D03*
X107900000Y-91000000D03*
X106000000Y-91000000D03*
D15*
G36*
X119205142Y-92801174D02*
G01*
X119228803Y-92804684D01*
X119252007Y-92810496D01*
X119274529Y-92818554D01*
X119296153Y-92828782D01*
X119316670Y-92841079D01*
X119335883Y-92855329D01*
X119353607Y-92871393D01*
X119369671Y-92889117D01*
X119383921Y-92908330D01*
X119396218Y-92928847D01*
X119406446Y-92950471D01*
X119414504Y-92972993D01*
X119420316Y-92996197D01*
X119423826Y-93019858D01*
X119425000Y-93043750D01*
X119425000Y-93956250D01*
X119423826Y-93980142D01*
X119420316Y-94003803D01*
X119414504Y-94027007D01*
X119406446Y-94049529D01*
X119396218Y-94071153D01*
X119383921Y-94091670D01*
X119369671Y-94110883D01*
X119353607Y-94128607D01*
X119335883Y-94144671D01*
X119316670Y-94158921D01*
X119296153Y-94171218D01*
X119274529Y-94181446D01*
X119252007Y-94189504D01*
X119228803Y-94195316D01*
X119205142Y-94198826D01*
X119181250Y-94200000D01*
X118693750Y-94200000D01*
X118669858Y-94198826D01*
X118646197Y-94195316D01*
X118622993Y-94189504D01*
X118600471Y-94181446D01*
X118578847Y-94171218D01*
X118558330Y-94158921D01*
X118539117Y-94144671D01*
X118521393Y-94128607D01*
X118505329Y-94110883D01*
X118491079Y-94091670D01*
X118478782Y-94071153D01*
X118468554Y-94049529D01*
X118460496Y-94027007D01*
X118454684Y-94003803D01*
X118451174Y-93980142D01*
X118450000Y-93956250D01*
X118450000Y-93043750D01*
X118451174Y-93019858D01*
X118454684Y-92996197D01*
X118460496Y-92972993D01*
X118468554Y-92950471D01*
X118478782Y-92928847D01*
X118491079Y-92908330D01*
X118505329Y-92889117D01*
X118521393Y-92871393D01*
X118539117Y-92855329D01*
X118558330Y-92841079D01*
X118578847Y-92828782D01*
X118600471Y-92818554D01*
X118622993Y-92810496D01*
X118646197Y-92804684D01*
X118669858Y-92801174D01*
X118693750Y-92800000D01*
X119181250Y-92800000D01*
X119205142Y-92801174D01*
X119205142Y-92801174D01*
G37*
D16*
X118937500Y-93500000D03*
D15*
G36*
X117330142Y-92801174D02*
G01*
X117353803Y-92804684D01*
X117377007Y-92810496D01*
X117399529Y-92818554D01*
X117421153Y-92828782D01*
X117441670Y-92841079D01*
X117460883Y-92855329D01*
X117478607Y-92871393D01*
X117494671Y-92889117D01*
X117508921Y-92908330D01*
X117521218Y-92928847D01*
X117531446Y-92950471D01*
X117539504Y-92972993D01*
X117545316Y-92996197D01*
X117548826Y-93019858D01*
X117550000Y-93043750D01*
X117550000Y-93956250D01*
X117548826Y-93980142D01*
X117545316Y-94003803D01*
X117539504Y-94027007D01*
X117531446Y-94049529D01*
X117521218Y-94071153D01*
X117508921Y-94091670D01*
X117494671Y-94110883D01*
X117478607Y-94128607D01*
X117460883Y-94144671D01*
X117441670Y-94158921D01*
X117421153Y-94171218D01*
X117399529Y-94181446D01*
X117377007Y-94189504D01*
X117353803Y-94195316D01*
X117330142Y-94198826D01*
X117306250Y-94200000D01*
X116818750Y-94200000D01*
X116794858Y-94198826D01*
X116771197Y-94195316D01*
X116747993Y-94189504D01*
X116725471Y-94181446D01*
X116703847Y-94171218D01*
X116683330Y-94158921D01*
X116664117Y-94144671D01*
X116646393Y-94128607D01*
X116630329Y-94110883D01*
X116616079Y-94091670D01*
X116603782Y-94071153D01*
X116593554Y-94049529D01*
X116585496Y-94027007D01*
X116579684Y-94003803D01*
X116576174Y-93980142D01*
X116575000Y-93956250D01*
X116575000Y-93043750D01*
X116576174Y-93019858D01*
X116579684Y-92996197D01*
X116585496Y-92972993D01*
X116593554Y-92950471D01*
X116603782Y-92928847D01*
X116616079Y-92908330D01*
X116630329Y-92889117D01*
X116646393Y-92871393D01*
X116664117Y-92855329D01*
X116683330Y-92841079D01*
X116703847Y-92828782D01*
X116725471Y-92818554D01*
X116747993Y-92810496D01*
X116771197Y-92804684D01*
X116794858Y-92801174D01*
X116818750Y-92800000D01*
X117306250Y-92800000D01*
X117330142Y-92801174D01*
X117330142Y-92801174D01*
G37*
D16*
X117062500Y-93500000D03*
D15*
G36*
X121180142Y-82713674D02*
G01*
X121203803Y-82717184D01*
X121227007Y-82722996D01*
X121249529Y-82731054D01*
X121271153Y-82741282D01*
X121291670Y-82753579D01*
X121310883Y-82767829D01*
X121328607Y-82783893D01*
X121344671Y-82801617D01*
X121358921Y-82820830D01*
X121371218Y-82841347D01*
X121381446Y-82862971D01*
X121389504Y-82885493D01*
X121395316Y-82908697D01*
X121398826Y-82932358D01*
X121400000Y-82956250D01*
X121400000Y-83443750D01*
X121398826Y-83467642D01*
X121395316Y-83491303D01*
X121389504Y-83514507D01*
X121381446Y-83537029D01*
X121371218Y-83558653D01*
X121358921Y-83579170D01*
X121344671Y-83598383D01*
X121328607Y-83616107D01*
X121310883Y-83632171D01*
X121291670Y-83646421D01*
X121271153Y-83658718D01*
X121249529Y-83668946D01*
X121227007Y-83677004D01*
X121203803Y-83682816D01*
X121180142Y-83686326D01*
X121156250Y-83687500D01*
X120243750Y-83687500D01*
X120219858Y-83686326D01*
X120196197Y-83682816D01*
X120172993Y-83677004D01*
X120150471Y-83668946D01*
X120128847Y-83658718D01*
X120108330Y-83646421D01*
X120089117Y-83632171D01*
X120071393Y-83616107D01*
X120055329Y-83598383D01*
X120041079Y-83579170D01*
X120028782Y-83558653D01*
X120018554Y-83537029D01*
X120010496Y-83514507D01*
X120004684Y-83491303D01*
X120001174Y-83467642D01*
X120000000Y-83443750D01*
X120000000Y-82956250D01*
X120001174Y-82932358D01*
X120004684Y-82908697D01*
X120010496Y-82885493D01*
X120018554Y-82862971D01*
X120028782Y-82841347D01*
X120041079Y-82820830D01*
X120055329Y-82801617D01*
X120071393Y-82783893D01*
X120089117Y-82767829D01*
X120108330Y-82753579D01*
X120128847Y-82741282D01*
X120150471Y-82731054D01*
X120172993Y-82722996D01*
X120196197Y-82717184D01*
X120219858Y-82713674D01*
X120243750Y-82712500D01*
X121156250Y-82712500D01*
X121180142Y-82713674D01*
X121180142Y-82713674D01*
G37*
D16*
X120700000Y-83200000D03*
D15*
G36*
X121180142Y-84588674D02*
G01*
X121203803Y-84592184D01*
X121227007Y-84597996D01*
X121249529Y-84606054D01*
X121271153Y-84616282D01*
X121291670Y-84628579D01*
X121310883Y-84642829D01*
X121328607Y-84658893D01*
X121344671Y-84676617D01*
X121358921Y-84695830D01*
X121371218Y-84716347D01*
X121381446Y-84737971D01*
X121389504Y-84760493D01*
X121395316Y-84783697D01*
X121398826Y-84807358D01*
X121400000Y-84831250D01*
X121400000Y-85318750D01*
X121398826Y-85342642D01*
X121395316Y-85366303D01*
X121389504Y-85389507D01*
X121381446Y-85412029D01*
X121371218Y-85433653D01*
X121358921Y-85454170D01*
X121344671Y-85473383D01*
X121328607Y-85491107D01*
X121310883Y-85507171D01*
X121291670Y-85521421D01*
X121271153Y-85533718D01*
X121249529Y-85543946D01*
X121227007Y-85552004D01*
X121203803Y-85557816D01*
X121180142Y-85561326D01*
X121156250Y-85562500D01*
X120243750Y-85562500D01*
X120219858Y-85561326D01*
X120196197Y-85557816D01*
X120172993Y-85552004D01*
X120150471Y-85543946D01*
X120128847Y-85533718D01*
X120108330Y-85521421D01*
X120089117Y-85507171D01*
X120071393Y-85491107D01*
X120055329Y-85473383D01*
X120041079Y-85454170D01*
X120028782Y-85433653D01*
X120018554Y-85412029D01*
X120010496Y-85389507D01*
X120004684Y-85366303D01*
X120001174Y-85342642D01*
X120000000Y-85318750D01*
X120000000Y-84831250D01*
X120001174Y-84807358D01*
X120004684Y-84783697D01*
X120010496Y-84760493D01*
X120018554Y-84737971D01*
X120028782Y-84716347D01*
X120041079Y-84695830D01*
X120055329Y-84676617D01*
X120071393Y-84658893D01*
X120089117Y-84642829D01*
X120108330Y-84628579D01*
X120128847Y-84616282D01*
X120150471Y-84606054D01*
X120172993Y-84597996D01*
X120196197Y-84592184D01*
X120219858Y-84588674D01*
X120243750Y-84587500D01*
X121156250Y-84587500D01*
X121180142Y-84588674D01*
X121180142Y-84588674D01*
G37*
D16*
X120700000Y-85075000D03*
D20*
X126600000Y-84800000D03*
X126600000Y-81300000D03*
D15*
G36*
X127080142Y-76438674D02*
G01*
X127103803Y-76442184D01*
X127127007Y-76447996D01*
X127149529Y-76456054D01*
X127171153Y-76466282D01*
X127191670Y-76478579D01*
X127210883Y-76492829D01*
X127228607Y-76508893D01*
X127244671Y-76526617D01*
X127258921Y-76545830D01*
X127271218Y-76566347D01*
X127281446Y-76587971D01*
X127289504Y-76610493D01*
X127295316Y-76633697D01*
X127298826Y-76657358D01*
X127300000Y-76681250D01*
X127300000Y-77168750D01*
X127298826Y-77192642D01*
X127295316Y-77216303D01*
X127289504Y-77239507D01*
X127281446Y-77262029D01*
X127271218Y-77283653D01*
X127258921Y-77304170D01*
X127244671Y-77323383D01*
X127228607Y-77341107D01*
X127210883Y-77357171D01*
X127191670Y-77371421D01*
X127171153Y-77383718D01*
X127149529Y-77393946D01*
X127127007Y-77402004D01*
X127103803Y-77407816D01*
X127080142Y-77411326D01*
X127056250Y-77412500D01*
X126143750Y-77412500D01*
X126119858Y-77411326D01*
X126096197Y-77407816D01*
X126072993Y-77402004D01*
X126050471Y-77393946D01*
X126028847Y-77383718D01*
X126008330Y-77371421D01*
X125989117Y-77357171D01*
X125971393Y-77341107D01*
X125955329Y-77323383D01*
X125941079Y-77304170D01*
X125928782Y-77283653D01*
X125918554Y-77262029D01*
X125910496Y-77239507D01*
X125904684Y-77216303D01*
X125901174Y-77192642D01*
X125900000Y-77168750D01*
X125900000Y-76681250D01*
X125901174Y-76657358D01*
X125904684Y-76633697D01*
X125910496Y-76610493D01*
X125918554Y-76587971D01*
X125928782Y-76566347D01*
X125941079Y-76545830D01*
X125955329Y-76526617D01*
X125971393Y-76508893D01*
X125989117Y-76492829D01*
X126008330Y-76478579D01*
X126028847Y-76466282D01*
X126050471Y-76456054D01*
X126072993Y-76447996D01*
X126096197Y-76442184D01*
X126119858Y-76438674D01*
X126143750Y-76437500D01*
X127056250Y-76437500D01*
X127080142Y-76438674D01*
X127080142Y-76438674D01*
G37*
D16*
X126600000Y-76925000D03*
D15*
G36*
X127080142Y-78313674D02*
G01*
X127103803Y-78317184D01*
X127127007Y-78322996D01*
X127149529Y-78331054D01*
X127171153Y-78341282D01*
X127191670Y-78353579D01*
X127210883Y-78367829D01*
X127228607Y-78383893D01*
X127244671Y-78401617D01*
X127258921Y-78420830D01*
X127271218Y-78441347D01*
X127281446Y-78462971D01*
X127289504Y-78485493D01*
X127295316Y-78508697D01*
X127298826Y-78532358D01*
X127300000Y-78556250D01*
X127300000Y-79043750D01*
X127298826Y-79067642D01*
X127295316Y-79091303D01*
X127289504Y-79114507D01*
X127281446Y-79137029D01*
X127271218Y-79158653D01*
X127258921Y-79179170D01*
X127244671Y-79198383D01*
X127228607Y-79216107D01*
X127210883Y-79232171D01*
X127191670Y-79246421D01*
X127171153Y-79258718D01*
X127149529Y-79268946D01*
X127127007Y-79277004D01*
X127103803Y-79282816D01*
X127080142Y-79286326D01*
X127056250Y-79287500D01*
X126143750Y-79287500D01*
X126119858Y-79286326D01*
X126096197Y-79282816D01*
X126072993Y-79277004D01*
X126050471Y-79268946D01*
X126028847Y-79258718D01*
X126008330Y-79246421D01*
X125989117Y-79232171D01*
X125971393Y-79216107D01*
X125955329Y-79198383D01*
X125941079Y-79179170D01*
X125928782Y-79158653D01*
X125918554Y-79137029D01*
X125910496Y-79114507D01*
X125904684Y-79091303D01*
X125901174Y-79067642D01*
X125900000Y-79043750D01*
X125900000Y-78556250D01*
X125901174Y-78532358D01*
X125904684Y-78508697D01*
X125910496Y-78485493D01*
X125918554Y-78462971D01*
X125928782Y-78441347D01*
X125941079Y-78420830D01*
X125955329Y-78401617D01*
X125971393Y-78383893D01*
X125989117Y-78367829D01*
X126008330Y-78353579D01*
X126028847Y-78341282D01*
X126050471Y-78331054D01*
X126072993Y-78322996D01*
X126096197Y-78317184D01*
X126119858Y-78313674D01*
X126143750Y-78312500D01*
X127056250Y-78312500D01*
X127080142Y-78313674D01*
X127080142Y-78313674D01*
G37*
D16*
X126600000Y-78800000D03*
D15*
G36*
X110680142Y-83838674D02*
G01*
X110703803Y-83842184D01*
X110727007Y-83847996D01*
X110749529Y-83856054D01*
X110771153Y-83866282D01*
X110791670Y-83878579D01*
X110810883Y-83892829D01*
X110828607Y-83908893D01*
X110844671Y-83926617D01*
X110858921Y-83945830D01*
X110871218Y-83966347D01*
X110881446Y-83987971D01*
X110889504Y-84010493D01*
X110895316Y-84033697D01*
X110898826Y-84057358D01*
X110900000Y-84081250D01*
X110900000Y-84568750D01*
X110898826Y-84592642D01*
X110895316Y-84616303D01*
X110889504Y-84639507D01*
X110881446Y-84662029D01*
X110871218Y-84683653D01*
X110858921Y-84704170D01*
X110844671Y-84723383D01*
X110828607Y-84741107D01*
X110810883Y-84757171D01*
X110791670Y-84771421D01*
X110771153Y-84783718D01*
X110749529Y-84793946D01*
X110727007Y-84802004D01*
X110703803Y-84807816D01*
X110680142Y-84811326D01*
X110656250Y-84812500D01*
X109743750Y-84812500D01*
X109719858Y-84811326D01*
X109696197Y-84807816D01*
X109672993Y-84802004D01*
X109650471Y-84793946D01*
X109628847Y-84783718D01*
X109608330Y-84771421D01*
X109589117Y-84757171D01*
X109571393Y-84741107D01*
X109555329Y-84723383D01*
X109541079Y-84704170D01*
X109528782Y-84683653D01*
X109518554Y-84662029D01*
X109510496Y-84639507D01*
X109504684Y-84616303D01*
X109501174Y-84592642D01*
X109500000Y-84568750D01*
X109500000Y-84081250D01*
X109501174Y-84057358D01*
X109504684Y-84033697D01*
X109510496Y-84010493D01*
X109518554Y-83987971D01*
X109528782Y-83966347D01*
X109541079Y-83945830D01*
X109555329Y-83926617D01*
X109571393Y-83908893D01*
X109589117Y-83892829D01*
X109608330Y-83878579D01*
X109628847Y-83866282D01*
X109650471Y-83856054D01*
X109672993Y-83847996D01*
X109696197Y-83842184D01*
X109719858Y-83838674D01*
X109743750Y-83837500D01*
X110656250Y-83837500D01*
X110680142Y-83838674D01*
X110680142Y-83838674D01*
G37*
D16*
X110200000Y-84325000D03*
D15*
G36*
X110680142Y-85713674D02*
G01*
X110703803Y-85717184D01*
X110727007Y-85722996D01*
X110749529Y-85731054D01*
X110771153Y-85741282D01*
X110791670Y-85753579D01*
X110810883Y-85767829D01*
X110828607Y-85783893D01*
X110844671Y-85801617D01*
X110858921Y-85820830D01*
X110871218Y-85841347D01*
X110881446Y-85862971D01*
X110889504Y-85885493D01*
X110895316Y-85908697D01*
X110898826Y-85932358D01*
X110900000Y-85956250D01*
X110900000Y-86443750D01*
X110898826Y-86467642D01*
X110895316Y-86491303D01*
X110889504Y-86514507D01*
X110881446Y-86537029D01*
X110871218Y-86558653D01*
X110858921Y-86579170D01*
X110844671Y-86598383D01*
X110828607Y-86616107D01*
X110810883Y-86632171D01*
X110791670Y-86646421D01*
X110771153Y-86658718D01*
X110749529Y-86668946D01*
X110727007Y-86677004D01*
X110703803Y-86682816D01*
X110680142Y-86686326D01*
X110656250Y-86687500D01*
X109743750Y-86687500D01*
X109719858Y-86686326D01*
X109696197Y-86682816D01*
X109672993Y-86677004D01*
X109650471Y-86668946D01*
X109628847Y-86658718D01*
X109608330Y-86646421D01*
X109589117Y-86632171D01*
X109571393Y-86616107D01*
X109555329Y-86598383D01*
X109541079Y-86579170D01*
X109528782Y-86558653D01*
X109518554Y-86537029D01*
X109510496Y-86514507D01*
X109504684Y-86491303D01*
X109501174Y-86467642D01*
X109500000Y-86443750D01*
X109500000Y-85956250D01*
X109501174Y-85932358D01*
X109504684Y-85908697D01*
X109510496Y-85885493D01*
X109518554Y-85862971D01*
X109528782Y-85841347D01*
X109541079Y-85820830D01*
X109555329Y-85801617D01*
X109571393Y-85783893D01*
X109589117Y-85767829D01*
X109608330Y-85753579D01*
X109628847Y-85741282D01*
X109650471Y-85731054D01*
X109672993Y-85722996D01*
X109696197Y-85717184D01*
X109719858Y-85713674D01*
X109743750Y-85712500D01*
X110656250Y-85712500D01*
X110680142Y-85713674D01*
X110680142Y-85713674D01*
G37*
D16*
X110200000Y-86200000D03*
D15*
G36*
X121180142Y-87876174D02*
G01*
X121203803Y-87879684D01*
X121227007Y-87885496D01*
X121249529Y-87893554D01*
X121271153Y-87903782D01*
X121291670Y-87916079D01*
X121310883Y-87930329D01*
X121328607Y-87946393D01*
X121344671Y-87964117D01*
X121358921Y-87983330D01*
X121371218Y-88003847D01*
X121381446Y-88025471D01*
X121389504Y-88047993D01*
X121395316Y-88071197D01*
X121398826Y-88094858D01*
X121400000Y-88118750D01*
X121400000Y-88606250D01*
X121398826Y-88630142D01*
X121395316Y-88653803D01*
X121389504Y-88677007D01*
X121381446Y-88699529D01*
X121371218Y-88721153D01*
X121358921Y-88741670D01*
X121344671Y-88760883D01*
X121328607Y-88778607D01*
X121310883Y-88794671D01*
X121291670Y-88808921D01*
X121271153Y-88821218D01*
X121249529Y-88831446D01*
X121227007Y-88839504D01*
X121203803Y-88845316D01*
X121180142Y-88848826D01*
X121156250Y-88850000D01*
X120243750Y-88850000D01*
X120219858Y-88848826D01*
X120196197Y-88845316D01*
X120172993Y-88839504D01*
X120150471Y-88831446D01*
X120128847Y-88821218D01*
X120108330Y-88808921D01*
X120089117Y-88794671D01*
X120071393Y-88778607D01*
X120055329Y-88760883D01*
X120041079Y-88741670D01*
X120028782Y-88721153D01*
X120018554Y-88699529D01*
X120010496Y-88677007D01*
X120004684Y-88653803D01*
X120001174Y-88630142D01*
X120000000Y-88606250D01*
X120000000Y-88118750D01*
X120001174Y-88094858D01*
X120004684Y-88071197D01*
X120010496Y-88047993D01*
X120018554Y-88025471D01*
X120028782Y-88003847D01*
X120041079Y-87983330D01*
X120055329Y-87964117D01*
X120071393Y-87946393D01*
X120089117Y-87930329D01*
X120108330Y-87916079D01*
X120128847Y-87903782D01*
X120150471Y-87893554D01*
X120172993Y-87885496D01*
X120196197Y-87879684D01*
X120219858Y-87876174D01*
X120243750Y-87875000D01*
X121156250Y-87875000D01*
X121180142Y-87876174D01*
X121180142Y-87876174D01*
G37*
D16*
X120700000Y-88362500D03*
D15*
G36*
X121180142Y-89751174D02*
G01*
X121203803Y-89754684D01*
X121227007Y-89760496D01*
X121249529Y-89768554D01*
X121271153Y-89778782D01*
X121291670Y-89791079D01*
X121310883Y-89805329D01*
X121328607Y-89821393D01*
X121344671Y-89839117D01*
X121358921Y-89858330D01*
X121371218Y-89878847D01*
X121381446Y-89900471D01*
X121389504Y-89922993D01*
X121395316Y-89946197D01*
X121398826Y-89969858D01*
X121400000Y-89993750D01*
X121400000Y-90481250D01*
X121398826Y-90505142D01*
X121395316Y-90528803D01*
X121389504Y-90552007D01*
X121381446Y-90574529D01*
X121371218Y-90596153D01*
X121358921Y-90616670D01*
X121344671Y-90635883D01*
X121328607Y-90653607D01*
X121310883Y-90669671D01*
X121291670Y-90683921D01*
X121271153Y-90696218D01*
X121249529Y-90706446D01*
X121227007Y-90714504D01*
X121203803Y-90720316D01*
X121180142Y-90723826D01*
X121156250Y-90725000D01*
X120243750Y-90725000D01*
X120219858Y-90723826D01*
X120196197Y-90720316D01*
X120172993Y-90714504D01*
X120150471Y-90706446D01*
X120128847Y-90696218D01*
X120108330Y-90683921D01*
X120089117Y-90669671D01*
X120071393Y-90653607D01*
X120055329Y-90635883D01*
X120041079Y-90616670D01*
X120028782Y-90596153D01*
X120018554Y-90574529D01*
X120010496Y-90552007D01*
X120004684Y-90528803D01*
X120001174Y-90505142D01*
X120000000Y-90481250D01*
X120000000Y-89993750D01*
X120001174Y-89969858D01*
X120004684Y-89946197D01*
X120010496Y-89922993D01*
X120018554Y-89900471D01*
X120028782Y-89878847D01*
X120041079Y-89858330D01*
X120055329Y-89839117D01*
X120071393Y-89821393D01*
X120089117Y-89805329D01*
X120108330Y-89791079D01*
X120128847Y-89778782D01*
X120150471Y-89768554D01*
X120172993Y-89760496D01*
X120196197Y-89754684D01*
X120219858Y-89751174D01*
X120243750Y-89750000D01*
X121156250Y-89750000D01*
X121180142Y-89751174D01*
X121180142Y-89751174D01*
G37*
D16*
X120700000Y-90237500D03*
D15*
G36*
X112480142Y-88513674D02*
G01*
X112503803Y-88517184D01*
X112527007Y-88522996D01*
X112549529Y-88531054D01*
X112571153Y-88541282D01*
X112591670Y-88553579D01*
X112610883Y-88567829D01*
X112628607Y-88583893D01*
X112644671Y-88601617D01*
X112658921Y-88620830D01*
X112671218Y-88641347D01*
X112681446Y-88662971D01*
X112689504Y-88685493D01*
X112695316Y-88708697D01*
X112698826Y-88732358D01*
X112700000Y-88756250D01*
X112700000Y-89243750D01*
X112698826Y-89267642D01*
X112695316Y-89291303D01*
X112689504Y-89314507D01*
X112681446Y-89337029D01*
X112671218Y-89358653D01*
X112658921Y-89379170D01*
X112644671Y-89398383D01*
X112628607Y-89416107D01*
X112610883Y-89432171D01*
X112591670Y-89446421D01*
X112571153Y-89458718D01*
X112549529Y-89468946D01*
X112527007Y-89477004D01*
X112503803Y-89482816D01*
X112480142Y-89486326D01*
X112456250Y-89487500D01*
X111543750Y-89487500D01*
X111519858Y-89486326D01*
X111496197Y-89482816D01*
X111472993Y-89477004D01*
X111450471Y-89468946D01*
X111428847Y-89458718D01*
X111408330Y-89446421D01*
X111389117Y-89432171D01*
X111371393Y-89416107D01*
X111355329Y-89398383D01*
X111341079Y-89379170D01*
X111328782Y-89358653D01*
X111318554Y-89337029D01*
X111310496Y-89314507D01*
X111304684Y-89291303D01*
X111301174Y-89267642D01*
X111300000Y-89243750D01*
X111300000Y-88756250D01*
X111301174Y-88732358D01*
X111304684Y-88708697D01*
X111310496Y-88685493D01*
X111318554Y-88662971D01*
X111328782Y-88641347D01*
X111341079Y-88620830D01*
X111355329Y-88601617D01*
X111371393Y-88583893D01*
X111389117Y-88567829D01*
X111408330Y-88553579D01*
X111428847Y-88541282D01*
X111450471Y-88531054D01*
X111472993Y-88522996D01*
X111496197Y-88517184D01*
X111519858Y-88513674D01*
X111543750Y-88512500D01*
X112456250Y-88512500D01*
X112480142Y-88513674D01*
X112480142Y-88513674D01*
G37*
D16*
X112000000Y-89000000D03*
D15*
G36*
X112480142Y-90388674D02*
G01*
X112503803Y-90392184D01*
X112527007Y-90397996D01*
X112549529Y-90406054D01*
X112571153Y-90416282D01*
X112591670Y-90428579D01*
X112610883Y-90442829D01*
X112628607Y-90458893D01*
X112644671Y-90476617D01*
X112658921Y-90495830D01*
X112671218Y-90516347D01*
X112681446Y-90537971D01*
X112689504Y-90560493D01*
X112695316Y-90583697D01*
X112698826Y-90607358D01*
X112700000Y-90631250D01*
X112700000Y-91118750D01*
X112698826Y-91142642D01*
X112695316Y-91166303D01*
X112689504Y-91189507D01*
X112681446Y-91212029D01*
X112671218Y-91233653D01*
X112658921Y-91254170D01*
X112644671Y-91273383D01*
X112628607Y-91291107D01*
X112610883Y-91307171D01*
X112591670Y-91321421D01*
X112571153Y-91333718D01*
X112549529Y-91343946D01*
X112527007Y-91352004D01*
X112503803Y-91357816D01*
X112480142Y-91361326D01*
X112456250Y-91362500D01*
X111543750Y-91362500D01*
X111519858Y-91361326D01*
X111496197Y-91357816D01*
X111472993Y-91352004D01*
X111450471Y-91343946D01*
X111428847Y-91333718D01*
X111408330Y-91321421D01*
X111389117Y-91307171D01*
X111371393Y-91291107D01*
X111355329Y-91273383D01*
X111341079Y-91254170D01*
X111328782Y-91233653D01*
X111318554Y-91212029D01*
X111310496Y-91189507D01*
X111304684Y-91166303D01*
X111301174Y-91142642D01*
X111300000Y-91118750D01*
X111300000Y-90631250D01*
X111301174Y-90607358D01*
X111304684Y-90583697D01*
X111310496Y-90560493D01*
X111318554Y-90537971D01*
X111328782Y-90516347D01*
X111341079Y-90495830D01*
X111355329Y-90476617D01*
X111371393Y-90458893D01*
X111389117Y-90442829D01*
X111408330Y-90428579D01*
X111428847Y-90416282D01*
X111450471Y-90406054D01*
X111472993Y-90397996D01*
X111496197Y-90392184D01*
X111519858Y-90388674D01*
X111543750Y-90387500D01*
X112456250Y-90387500D01*
X112480142Y-90388674D01*
X112480142Y-90388674D01*
G37*
D16*
X112000000Y-90875000D03*
D15*
G36*
X117180142Y-84588674D02*
G01*
X117203803Y-84592184D01*
X117227007Y-84597996D01*
X117249529Y-84606054D01*
X117271153Y-84616282D01*
X117291670Y-84628579D01*
X117310883Y-84642829D01*
X117328607Y-84658893D01*
X117344671Y-84676617D01*
X117358921Y-84695830D01*
X117371218Y-84716347D01*
X117381446Y-84737971D01*
X117389504Y-84760493D01*
X117395316Y-84783697D01*
X117398826Y-84807358D01*
X117400000Y-84831250D01*
X117400000Y-85318750D01*
X117398826Y-85342642D01*
X117395316Y-85366303D01*
X117389504Y-85389507D01*
X117381446Y-85412029D01*
X117371218Y-85433653D01*
X117358921Y-85454170D01*
X117344671Y-85473383D01*
X117328607Y-85491107D01*
X117310883Y-85507171D01*
X117291670Y-85521421D01*
X117271153Y-85533718D01*
X117249529Y-85543946D01*
X117227007Y-85552004D01*
X117203803Y-85557816D01*
X117180142Y-85561326D01*
X117156250Y-85562500D01*
X116243750Y-85562500D01*
X116219858Y-85561326D01*
X116196197Y-85557816D01*
X116172993Y-85552004D01*
X116150471Y-85543946D01*
X116128847Y-85533718D01*
X116108330Y-85521421D01*
X116089117Y-85507171D01*
X116071393Y-85491107D01*
X116055329Y-85473383D01*
X116041079Y-85454170D01*
X116028782Y-85433653D01*
X116018554Y-85412029D01*
X116010496Y-85389507D01*
X116004684Y-85366303D01*
X116001174Y-85342642D01*
X116000000Y-85318750D01*
X116000000Y-84831250D01*
X116001174Y-84807358D01*
X116004684Y-84783697D01*
X116010496Y-84760493D01*
X116018554Y-84737971D01*
X116028782Y-84716347D01*
X116041079Y-84695830D01*
X116055329Y-84676617D01*
X116071393Y-84658893D01*
X116089117Y-84642829D01*
X116108330Y-84628579D01*
X116128847Y-84616282D01*
X116150471Y-84606054D01*
X116172993Y-84597996D01*
X116196197Y-84592184D01*
X116219858Y-84588674D01*
X116243750Y-84587500D01*
X117156250Y-84587500D01*
X117180142Y-84588674D01*
X117180142Y-84588674D01*
G37*
D16*
X116700000Y-85075000D03*
D15*
G36*
X117180142Y-82713674D02*
G01*
X117203803Y-82717184D01*
X117227007Y-82722996D01*
X117249529Y-82731054D01*
X117271153Y-82741282D01*
X117291670Y-82753579D01*
X117310883Y-82767829D01*
X117328607Y-82783893D01*
X117344671Y-82801617D01*
X117358921Y-82820830D01*
X117371218Y-82841347D01*
X117381446Y-82862971D01*
X117389504Y-82885493D01*
X117395316Y-82908697D01*
X117398826Y-82932358D01*
X117400000Y-82956250D01*
X117400000Y-83443750D01*
X117398826Y-83467642D01*
X117395316Y-83491303D01*
X117389504Y-83514507D01*
X117381446Y-83537029D01*
X117371218Y-83558653D01*
X117358921Y-83579170D01*
X117344671Y-83598383D01*
X117328607Y-83616107D01*
X117310883Y-83632171D01*
X117291670Y-83646421D01*
X117271153Y-83658718D01*
X117249529Y-83668946D01*
X117227007Y-83677004D01*
X117203803Y-83682816D01*
X117180142Y-83686326D01*
X117156250Y-83687500D01*
X116243750Y-83687500D01*
X116219858Y-83686326D01*
X116196197Y-83682816D01*
X116172993Y-83677004D01*
X116150471Y-83668946D01*
X116128847Y-83658718D01*
X116108330Y-83646421D01*
X116089117Y-83632171D01*
X116071393Y-83616107D01*
X116055329Y-83598383D01*
X116041079Y-83579170D01*
X116028782Y-83558653D01*
X116018554Y-83537029D01*
X116010496Y-83514507D01*
X116004684Y-83491303D01*
X116001174Y-83467642D01*
X116000000Y-83443750D01*
X116000000Y-82956250D01*
X116001174Y-82932358D01*
X116004684Y-82908697D01*
X116010496Y-82885493D01*
X116018554Y-82862971D01*
X116028782Y-82841347D01*
X116041079Y-82820830D01*
X116055329Y-82801617D01*
X116071393Y-82783893D01*
X116089117Y-82767829D01*
X116108330Y-82753579D01*
X116128847Y-82741282D01*
X116150471Y-82731054D01*
X116172993Y-82722996D01*
X116196197Y-82717184D01*
X116219858Y-82713674D01*
X116243750Y-82712500D01*
X117156250Y-82712500D01*
X117180142Y-82713674D01*
X117180142Y-82713674D01*
G37*
D16*
X116700000Y-83200000D03*
D17*
X125600000Y-93500000D03*
X129540000Y-50800000D03*
D15*
G36*
X117180142Y-89813674D02*
G01*
X117203803Y-89817184D01*
X117227007Y-89822996D01*
X117249529Y-89831054D01*
X117271153Y-89841282D01*
X117291670Y-89853579D01*
X117310883Y-89867829D01*
X117328607Y-89883893D01*
X117344671Y-89901617D01*
X117358921Y-89920830D01*
X117371218Y-89941347D01*
X117381446Y-89962971D01*
X117389504Y-89985493D01*
X117395316Y-90008697D01*
X117398826Y-90032358D01*
X117400000Y-90056250D01*
X117400000Y-90543750D01*
X117398826Y-90567642D01*
X117395316Y-90591303D01*
X117389504Y-90614507D01*
X117381446Y-90637029D01*
X117371218Y-90658653D01*
X117358921Y-90679170D01*
X117344671Y-90698383D01*
X117328607Y-90716107D01*
X117310883Y-90732171D01*
X117291670Y-90746421D01*
X117271153Y-90758718D01*
X117249529Y-90768946D01*
X117227007Y-90777004D01*
X117203803Y-90782816D01*
X117180142Y-90786326D01*
X117156250Y-90787500D01*
X116243750Y-90787500D01*
X116219858Y-90786326D01*
X116196197Y-90782816D01*
X116172993Y-90777004D01*
X116150471Y-90768946D01*
X116128847Y-90758718D01*
X116108330Y-90746421D01*
X116089117Y-90732171D01*
X116071393Y-90716107D01*
X116055329Y-90698383D01*
X116041079Y-90679170D01*
X116028782Y-90658653D01*
X116018554Y-90637029D01*
X116010496Y-90614507D01*
X116004684Y-90591303D01*
X116001174Y-90567642D01*
X116000000Y-90543750D01*
X116000000Y-90056250D01*
X116001174Y-90032358D01*
X116004684Y-90008697D01*
X116010496Y-89985493D01*
X116018554Y-89962971D01*
X116028782Y-89941347D01*
X116041079Y-89920830D01*
X116055329Y-89901617D01*
X116071393Y-89883893D01*
X116089117Y-89867829D01*
X116108330Y-89853579D01*
X116128847Y-89841282D01*
X116150471Y-89831054D01*
X116172993Y-89822996D01*
X116196197Y-89817184D01*
X116219858Y-89813674D01*
X116243750Y-89812500D01*
X117156250Y-89812500D01*
X117180142Y-89813674D01*
X117180142Y-89813674D01*
G37*
D16*
X116700000Y-90300000D03*
D15*
G36*
X117180142Y-87938674D02*
G01*
X117203803Y-87942184D01*
X117227007Y-87947996D01*
X117249529Y-87956054D01*
X117271153Y-87966282D01*
X117291670Y-87978579D01*
X117310883Y-87992829D01*
X117328607Y-88008893D01*
X117344671Y-88026617D01*
X117358921Y-88045830D01*
X117371218Y-88066347D01*
X117381446Y-88087971D01*
X117389504Y-88110493D01*
X117395316Y-88133697D01*
X117398826Y-88157358D01*
X117400000Y-88181250D01*
X117400000Y-88668750D01*
X117398826Y-88692642D01*
X117395316Y-88716303D01*
X117389504Y-88739507D01*
X117381446Y-88762029D01*
X117371218Y-88783653D01*
X117358921Y-88804170D01*
X117344671Y-88823383D01*
X117328607Y-88841107D01*
X117310883Y-88857171D01*
X117291670Y-88871421D01*
X117271153Y-88883718D01*
X117249529Y-88893946D01*
X117227007Y-88902004D01*
X117203803Y-88907816D01*
X117180142Y-88911326D01*
X117156250Y-88912500D01*
X116243750Y-88912500D01*
X116219858Y-88911326D01*
X116196197Y-88907816D01*
X116172993Y-88902004D01*
X116150471Y-88893946D01*
X116128847Y-88883718D01*
X116108330Y-88871421D01*
X116089117Y-88857171D01*
X116071393Y-88841107D01*
X116055329Y-88823383D01*
X116041079Y-88804170D01*
X116028782Y-88783653D01*
X116018554Y-88762029D01*
X116010496Y-88739507D01*
X116004684Y-88716303D01*
X116001174Y-88692642D01*
X116000000Y-88668750D01*
X116000000Y-88181250D01*
X116001174Y-88157358D01*
X116004684Y-88133697D01*
X116010496Y-88110493D01*
X116018554Y-88087971D01*
X116028782Y-88066347D01*
X116041079Y-88045830D01*
X116055329Y-88026617D01*
X116071393Y-88008893D01*
X116089117Y-87992829D01*
X116108330Y-87978579D01*
X116128847Y-87966282D01*
X116150471Y-87956054D01*
X116172993Y-87947996D01*
X116196197Y-87942184D01*
X116219858Y-87938674D01*
X116243750Y-87937500D01*
X117156250Y-87937500D01*
X117180142Y-87938674D01*
X117180142Y-87938674D01*
G37*
D16*
X116700000Y-88425000D03*
D21*
X106670000Y-69205000D03*
X125600000Y-93500000D03*
X126600000Y-81300000D03*
X125100000Y-73100000D03*
X109900000Y-62100000D03*
X124000000Y-86000000D03*
X126600000Y-78800000D03*
X114600000Y-90500000D03*
X106000000Y-91000000D03*
X114200000Y-84400000D03*
X117600000Y-51100000D03*
X113200000Y-55300000D03*
X120700000Y-85075000D03*
X107100000Y-81100000D03*
X115630001Y-51969999D03*
X112100000Y-54900000D03*
X123100000Y-78500000D03*
X121300000Y-80000000D03*
X126200000Y-63100000D03*
X119500000Y-57900000D03*
D22*
X115950000Y-74750000D02*
X116200000Y-74500000D01*
X116450000Y-74750000D02*
X116200000Y-74500000D01*
X115025000Y-74750000D02*
X115950000Y-74750000D01*
X117375000Y-74750000D02*
X116450000Y-74750000D01*
D23*
X118000000Y-101800000D02*
X118000000Y-148594652D01*
D22*
X120600000Y-95162500D02*
X118937500Y-93500000D01*
X120600000Y-96500000D02*
X120600000Y-95162500D01*
X118000000Y-99100000D02*
X120600000Y-96500000D01*
X118000000Y-101800000D02*
X118000000Y-99100000D01*
X124892894Y-93500000D02*
X118937500Y-93500000D01*
X125600000Y-93500000D02*
X124892894Y-93500000D01*
X117912490Y-92474990D02*
X113599990Y-92474990D01*
X112556237Y-91431237D02*
X112000000Y-90875000D01*
X113599990Y-92474990D02*
X112556237Y-91431237D01*
X118937500Y-93500000D02*
X117912490Y-92474990D01*
X127156237Y-77481237D02*
X126600000Y-76925000D01*
X127625010Y-77950010D02*
X127156237Y-77481237D01*
X126600000Y-80400000D02*
X127625010Y-79374990D01*
X127625010Y-79374990D02*
X127625010Y-77950010D01*
X126600000Y-81300000D02*
X126600000Y-80400000D01*
X125100000Y-77300000D02*
X125100000Y-73100000D01*
X126600000Y-78800000D02*
X125100000Y-77300000D01*
X109685000Y-62315000D02*
X109900000Y-62100000D01*
X109685000Y-70950000D02*
X109685000Y-62315000D01*
X116762500Y-88362500D02*
X116700000Y-88425000D01*
X120700000Y-88362500D02*
X116762500Y-88362500D01*
X121637500Y-88362500D02*
X124000000Y-86000000D01*
X120700000Y-88362500D02*
X121637500Y-88362500D01*
X116762500Y-90237500D02*
X116700000Y-90300000D01*
X120700000Y-90237500D02*
X116762500Y-90237500D01*
X114800000Y-90300000D02*
X114600000Y-90500000D01*
X116700000Y-90300000D02*
X114800000Y-90300000D01*
X110000000Y-91000000D02*
X112000000Y-89000000D01*
X110000000Y-92500000D02*
X110000000Y-91000000D01*
X107400000Y-89000000D02*
X106950000Y-89000000D01*
X110200000Y-86200000D02*
X107400000Y-89000000D01*
X106950000Y-89700000D02*
X106950000Y-89000000D01*
X106950000Y-91700000D02*
X106950000Y-89700000D01*
X109050000Y-93800000D02*
X106950000Y-91700000D01*
X109050000Y-94500000D02*
X109050000Y-93800000D01*
X115435000Y-76985000D02*
X116200000Y-77750000D01*
X111840000Y-76985000D02*
X115435000Y-76985000D01*
X114200000Y-78902408D02*
X114200000Y-84400000D01*
X115352408Y-77750000D02*
X114200000Y-78902408D01*
X116200000Y-77750000D02*
X115352408Y-77750000D01*
X128832894Y-50800000D02*
X128532894Y-51100000D01*
X129540000Y-50800000D02*
X128832894Y-50800000D01*
X128532894Y-51100000D02*
X117600000Y-51100000D01*
X110955000Y-57545000D02*
X110955000Y-70950000D01*
X113200000Y-55300000D02*
X110955000Y-57545000D01*
X116700000Y-85075000D02*
X120700000Y-85075000D01*
X126325000Y-85075000D02*
X126600000Y-84800000D01*
X120700000Y-85075000D02*
X126325000Y-85075000D01*
X110955000Y-72200000D02*
X107100000Y-76055000D01*
X110955000Y-70950000D02*
X110955000Y-72200000D01*
X107100000Y-76055000D02*
X107100000Y-81100000D01*
X130557500Y-72657500D02*
X130600000Y-72700000D01*
X130557500Y-69145000D02*
X130557500Y-72657500D01*
X128169999Y-51969999D02*
X117755306Y-51969999D01*
X129540000Y-53340000D02*
X128169999Y-51969999D01*
X117755306Y-51969999D02*
X115630001Y-51969999D01*
X108415000Y-69700000D02*
X108415000Y-70950000D01*
X108415000Y-58585000D02*
X108415000Y-69700000D01*
X112100000Y-54900000D02*
X108415000Y-58585000D01*
X115674990Y-79575010D02*
X115675226Y-79574774D01*
X115674990Y-83998012D02*
X115674990Y-79575010D01*
X114548001Y-85125001D02*
X115674990Y-83998012D01*
X113851999Y-85125001D02*
X114548001Y-85125001D01*
X112790000Y-84063002D02*
X113851999Y-85125001D01*
X115675226Y-79574774D02*
X116200000Y-79050000D01*
X112790000Y-79495000D02*
X112790000Y-84063002D01*
X112790000Y-79185000D02*
X112790000Y-79495000D01*
X112169999Y-78564999D02*
X112790000Y-79185000D01*
X110269999Y-78629999D02*
X110334999Y-78564999D01*
X110269999Y-81533589D02*
X110269999Y-78629999D01*
X111225010Y-84804340D02*
X111225010Y-82488600D01*
X110891840Y-85137510D02*
X111225010Y-84804340D01*
X109508160Y-85137510D02*
X110891840Y-85137510D01*
X106374999Y-82004349D02*
X109508160Y-85137510D01*
X106374999Y-74240001D02*
X106374999Y-82004349D01*
X111225010Y-82488600D02*
X110269999Y-81533589D01*
X108415000Y-72200000D02*
X106374999Y-74240001D01*
X108415000Y-70950000D02*
X108415000Y-72200000D01*
X119925000Y-79050000D02*
X120000000Y-79125000D01*
X116200000Y-79050000D02*
X119925000Y-79050000D01*
X111035001Y-76304997D02*
X111035001Y-78564999D01*
X113589998Y-73750000D02*
X111035001Y-76304997D01*
X115025000Y-73750000D02*
X113589998Y-73750000D01*
X111035001Y-78564999D02*
X112169999Y-78564999D01*
X110334999Y-78564999D02*
X111035001Y-78564999D01*
X122362500Y-75875000D02*
X122400000Y-75837500D01*
X120200000Y-75875000D02*
X122362500Y-75875000D01*
X122400000Y-77800000D02*
X123100000Y-78500000D01*
X122400000Y-75837500D02*
X122400000Y-77800000D01*
X120875000Y-80000000D02*
X120000000Y-79125000D01*
X121300000Y-80000000D02*
X120875000Y-80000000D01*
X126200000Y-70175000D02*
X126200000Y-63100000D01*
X128725000Y-72700000D02*
X126200000Y-70175000D01*
X112225000Y-65175000D02*
X112225000Y-70950000D01*
X119500000Y-57900000D02*
X112225000Y-65175000D01*
X110200000Y-84325000D02*
X110200000Y-82100000D01*
X110200000Y-82100000D02*
X109500000Y-81400000D01*
X113495000Y-72200000D02*
X113495000Y-70950000D01*
X109500000Y-76195000D02*
X113495000Y-72200000D01*
X109500000Y-81400000D02*
X109500000Y-76195000D01*
X128915000Y-56505000D02*
X129540000Y-55880000D01*
X124130000Y-56505000D02*
X128915000Y-56505000D01*
X128895000Y-57775000D02*
X129540000Y-58420000D01*
X124130000Y-57775000D02*
X128895000Y-57775000D01*
X129040001Y-63000001D02*
X129540000Y-63500000D01*
X125085000Y-59045000D02*
X129040001Y-63000001D01*
X124130000Y-59045000D02*
X125085000Y-59045000D01*
X121115000Y-72110000D02*
X121115000Y-70950000D01*
X121115000Y-72677500D02*
X121115000Y-72110000D01*
X122400000Y-73962500D02*
X121115000Y-72677500D01*
X117900000Y-73750000D02*
X117375000Y-73750000D01*
X118915000Y-73750000D02*
X117900000Y-73750000D01*
X121115000Y-71550000D02*
X118915000Y-73750000D01*
X121115000Y-70950000D02*
X121115000Y-71550000D01*
X118950000Y-75250000D02*
X120200000Y-74000000D01*
X117375000Y-75250000D02*
X118950000Y-75250000D01*
X123425010Y-73240010D02*
X122385000Y-72200000D01*
X122385000Y-72200000D02*
X122385000Y-70950000D01*
X123425010Y-74441840D02*
X123425010Y-73240010D01*
X123091840Y-74775010D02*
X123425010Y-74441840D01*
X120975010Y-74775010D02*
X123091840Y-74775010D01*
X120200000Y-74000000D02*
X120975010Y-74775010D01*
D24*
G36*
X105173750Y-48758000D02*
G01*
X106523000Y-48758000D01*
X106523000Y-48738000D01*
X106777000Y-48738000D01*
X106777000Y-48758000D01*
X108126250Y-48758000D01*
X108257250Y-48627000D01*
X122542750Y-48627000D01*
X122673750Y-48758000D01*
X124023000Y-48758000D01*
X124023000Y-48738000D01*
X124277000Y-48738000D01*
X124277000Y-48758000D01*
X125626250Y-48758000D01*
X125757250Y-48627000D01*
X132340000Y-48627000D01*
X132340001Y-86450801D01*
X132209523Y-86492191D01*
X132154588Y-86515737D01*
X132099235Y-86538551D01*
X132091129Y-86542935D01*
X131834592Y-86683968D01*
X131785247Y-86717755D01*
X131735409Y-86750867D01*
X131728309Y-86756741D01*
X131504051Y-86944916D01*
X131462207Y-86987646D01*
X131419751Y-87029806D01*
X131413927Y-87036947D01*
X131230491Y-87265097D01*
X131197744Y-87315139D01*
X131164286Y-87364742D01*
X131159960Y-87372879D01*
X131024330Y-87632313D01*
X131001918Y-87687785D01*
X130978740Y-87742923D01*
X130976077Y-87751745D01*
X130893422Y-88032583D01*
X130882224Y-88091284D01*
X130870184Y-88149940D01*
X130869285Y-88159112D01*
X130842753Y-88450656D01*
X130843171Y-88510472D01*
X130842753Y-88570288D01*
X130843652Y-88579460D01*
X130874252Y-88870605D01*
X130886283Y-88929217D01*
X130897489Y-88987963D01*
X130900153Y-88996784D01*
X130986721Y-89276440D01*
X131009899Y-89331578D01*
X131032311Y-89387050D01*
X131036638Y-89395186D01*
X131175877Y-89652702D01*
X131209304Y-89702259D01*
X131242080Y-89752347D01*
X131247905Y-89759488D01*
X131434510Y-89985056D01*
X131476965Y-90027215D01*
X131518809Y-90069945D01*
X131525909Y-90075819D01*
X131752773Y-90260845D01*
X131802566Y-90293927D01*
X131851955Y-90327745D01*
X131860061Y-90332127D01*
X132118542Y-90469564D01*
X132173836Y-90492355D01*
X132228829Y-90515925D01*
X132237632Y-90518650D01*
X132340000Y-90549557D01*
X132340001Y-93646778D01*
X129660588Y-95433054D01*
X129631550Y-95448575D01*
X129581287Y-95489825D01*
X129531543Y-95530562D01*
X129531323Y-95530830D01*
X129531052Y-95531052D01*
X129489702Y-95581438D01*
X129448962Y-95630974D01*
X129448799Y-95631278D01*
X129448575Y-95631551D01*
X129417976Y-95688798D01*
X129387556Y-95745566D01*
X129387454Y-95745901D01*
X129387290Y-95746208D01*
X129368356Y-95808623D01*
X129349687Y-95869938D01*
X129349653Y-95870278D01*
X129349550Y-95870618D01*
X129343124Y-95935859D01*
X129336808Y-95999307D01*
X129340000Y-96032066D01*
X129340001Y-151663912D01*
X118721338Y-159386575D01*
X118314733Y-159479214D01*
X117827192Y-159493131D01*
X117323567Y-159408264D01*
X117297780Y-159400478D01*
X106660000Y-151663913D01*
X106660000Y-96032065D01*
X106663192Y-95999306D01*
X106656876Y-95935858D01*
X106650450Y-95870617D01*
X106650347Y-95870277D01*
X106650313Y-95869937D01*
X106631644Y-95808622D01*
X106612710Y-95746207D01*
X106612546Y-95745900D01*
X106612444Y-95745565D01*
X106582024Y-95688797D01*
X106551425Y-95631550D01*
X106551201Y-95631277D01*
X106551038Y-95630973D01*
X106510105Y-95581201D01*
X106468948Y-95531052D01*
X106468680Y-95530832D01*
X106468457Y-95530561D01*
X106417903Y-95489161D01*
X106368449Y-95448575D01*
X106339423Y-95433061D01*
X103660000Y-93646779D01*
X103660000Y-90550000D01*
X104961928Y-90550000D01*
X104961928Y-91450000D01*
X104974188Y-91574482D01*
X105010498Y-91694180D01*
X105069463Y-91804494D01*
X105148815Y-91901185D01*
X105245506Y-91980537D01*
X105355820Y-92039502D01*
X105475518Y-92075812D01*
X105600000Y-92088072D01*
X106295674Y-92088072D01*
X106315026Y-92124276D01*
X106345927Y-92161928D01*
X106409999Y-92240001D01*
X106439002Y-92263804D01*
X108041999Y-93866802D01*
X108024188Y-93925518D01*
X108011928Y-94050000D01*
X108011928Y-94950000D01*
X108024188Y-95074482D01*
X108060498Y-95194180D01*
X108119463Y-95304494D01*
X108198815Y-95401185D01*
X108295506Y-95480537D01*
X108405820Y-95539502D01*
X108525518Y-95575812D01*
X108650000Y-95588072D01*
X109450000Y-95588072D01*
X109574482Y-95575812D01*
X109694180Y-95539502D01*
X109804494Y-95480537D01*
X109901185Y-95401185D01*
X109980537Y-95304494D01*
X110000000Y-95268082D01*
X110019463Y-95304494D01*
X110098815Y-95401185D01*
X110195506Y-95480537D01*
X110305820Y-95539502D01*
X110425518Y-95575812D01*
X110550000Y-95588072D01*
X110664250Y-95585000D01*
X110823000Y-95426250D01*
X110823000Y-94627000D01*
X111077000Y-94627000D01*
X111077000Y-95426250D01*
X111235750Y-95585000D01*
X111350000Y-95588072D01*
X111474482Y-95575812D01*
X111594180Y-95539502D01*
X111704494Y-95480537D01*
X111801185Y-95401185D01*
X111880537Y-95304494D01*
X111939502Y-95194180D01*
X111975812Y-95074482D01*
X111988072Y-94950000D01*
X111985000Y-94785750D01*
X111826250Y-94627000D01*
X111077000Y-94627000D01*
X110823000Y-94627000D01*
X110803000Y-94627000D01*
X110803000Y-94373000D01*
X110823000Y-94373000D01*
X110823000Y-93573750D01*
X111077000Y-93573750D01*
X111077000Y-94373000D01*
X111826250Y-94373000D01*
X111985000Y-94214250D01*
X111985266Y-94200000D01*
X115936928Y-94200000D01*
X115949188Y-94324482D01*
X115985498Y-94444180D01*
X116044463Y-94554494D01*
X116123815Y-94651185D01*
X116220506Y-94730537D01*
X116330820Y-94789502D01*
X116450518Y-94825812D01*
X116575000Y-94838072D01*
X116776750Y-94835000D01*
X116935500Y-94676250D01*
X116935500Y-93627000D01*
X116098750Y-93627000D01*
X115940000Y-93785750D01*
X115936928Y-94200000D01*
X111985266Y-94200000D01*
X111988072Y-94050000D01*
X111975812Y-93925518D01*
X111939502Y-93805820D01*
X111880537Y-93695506D01*
X111801185Y-93598815D01*
X111704494Y-93519463D01*
X111594180Y-93460498D01*
X111474482Y-93424188D01*
X111350000Y-93411928D01*
X111235750Y-93415000D01*
X111077000Y-93573750D01*
X110823000Y-93573750D01*
X110738393Y-93489143D01*
X110754494Y-93480537D01*
X110851185Y-93401185D01*
X110930537Y-93304494D01*
X110989502Y-93194180D01*
X111025812Y-93074482D01*
X111038072Y-92950000D01*
X111038072Y-92050000D01*
X111025812Y-91925518D01*
X110989502Y-91805820D01*
X110983160Y-91793956D01*
X111053836Y-91851958D01*
X111206291Y-91933447D01*
X111371715Y-91983628D01*
X111543750Y-92000572D01*
X112050771Y-92000572D01*
X113036190Y-92985992D01*
X113059989Y-93014991D01*
X113175714Y-93109964D01*
X113307743Y-93180536D01*
X113451004Y-93223993D01*
X113562657Y-93234990D01*
X113562665Y-93234990D01*
X113599990Y-93238666D01*
X113637315Y-93234990D01*
X115960740Y-93234990D01*
X116098750Y-93373000D01*
X116935500Y-93373000D01*
X116935500Y-93353000D01*
X117189500Y-93353000D01*
X117189500Y-93373000D01*
X117209500Y-93373000D01*
X117209500Y-93627000D01*
X117189500Y-93627000D01*
X117189500Y-94676250D01*
X117348250Y-94835000D01*
X117550000Y-94838072D01*
X117674482Y-94825812D01*
X117794180Y-94789502D01*
X117904494Y-94730537D01*
X118001185Y-94651185D01*
X118064992Y-94573436D01*
X118070208Y-94579792D01*
X118203836Y-94689458D01*
X118356291Y-94770947D01*
X118521715Y-94821128D01*
X118693750Y-94838072D01*
X119181250Y-94838072D01*
X119199020Y-94836322D01*
X119840001Y-95477303D01*
X119840000Y-96185198D01*
X119621792Y-96403406D01*
X119104652Y-96246534D01*
X118000000Y-96137735D01*
X116895347Y-96246534D01*
X115833145Y-96568749D01*
X114854214Y-97091999D01*
X113996174Y-97796175D01*
X113291999Y-98654215D01*
X112768749Y-99633146D01*
X112446534Y-100695348D01*
X112365000Y-101523175D01*
X112365001Y-148871478D01*
X112446535Y-149699305D01*
X112768750Y-150761507D01*
X113292000Y-151740438D01*
X113996175Y-152598478D01*
X114854215Y-153302653D01*
X115833146Y-153825903D01*
X116895348Y-154148118D01*
X118000000Y-154256917D01*
X119104653Y-154148118D01*
X120166855Y-153825903D01*
X121145786Y-153302653D01*
X122003826Y-152598478D01*
X122708001Y-151740438D01*
X123231251Y-150761507D01*
X123553466Y-149699305D01*
X123635000Y-148871478D01*
X123635000Y-101523174D01*
X123553466Y-100695347D01*
X123231251Y-99633145D01*
X122708001Y-98654214D01*
X122003825Y-97796174D01*
X121145785Y-97091999D01*
X121104741Y-97070061D01*
X121111004Y-97063798D01*
X121140001Y-97040001D01*
X121234974Y-96924276D01*
X121305546Y-96792247D01*
X121349003Y-96648986D01*
X121360000Y-96537333D01*
X121360000Y-96537324D01*
X121363676Y-96500001D01*
X121360000Y-96462678D01*
X121360000Y-95199822D01*
X121363676Y-95162499D01*
X121360000Y-95125176D01*
X121360000Y-95125167D01*
X121349003Y-95013514D01*
X121305546Y-94870253D01*
X121286703Y-94835000D01*
X121234974Y-94738223D01*
X121163799Y-94651497D01*
X121140001Y-94622499D01*
X121111003Y-94598701D01*
X120772302Y-94260000D01*
X124754868Y-94260000D01*
X124876480Y-94381612D01*
X125062376Y-94505824D01*
X125268933Y-94591383D01*
X125488212Y-94635000D01*
X125711788Y-94635000D01*
X125931067Y-94591383D01*
X126137624Y-94505824D01*
X126323520Y-94381612D01*
X126481612Y-94223520D01*
X126605824Y-94037624D01*
X126691383Y-93831067D01*
X126735000Y-93611788D01*
X126735000Y-93388212D01*
X126691383Y-93168933D01*
X126605824Y-92962376D01*
X126481612Y-92776480D01*
X126323520Y-92618388D01*
X126137624Y-92494176D01*
X125931067Y-92408617D01*
X125711788Y-92365000D01*
X125488212Y-92365000D01*
X125268933Y-92408617D01*
X125062376Y-92494176D01*
X124876480Y-92618388D01*
X124754868Y-92740000D01*
X120006173Y-92740000D01*
X119995947Y-92706291D01*
X119914458Y-92553836D01*
X119804792Y-92420208D01*
X119671164Y-92310542D01*
X119518709Y-92229053D01*
X119353285Y-92178872D01*
X119181250Y-92161928D01*
X118693750Y-92161928D01*
X118675979Y-92163678D01*
X118476294Y-91963992D01*
X118452491Y-91934989D01*
X118336766Y-91840016D01*
X118204737Y-91769444D01*
X118061476Y-91725987D01*
X117949823Y-91714990D01*
X117949812Y-91714990D01*
X117912490Y-91711314D01*
X117875168Y-91714990D01*
X113914792Y-91714990D01*
X113336322Y-91136521D01*
X113338072Y-91118750D01*
X113338072Y-90631250D01*
X113321128Y-90459215D01*
X113270947Y-90293791D01*
X113189458Y-90141336D01*
X113079792Y-90007708D01*
X112994244Y-89937500D01*
X113079792Y-89867292D01*
X113189458Y-89733664D01*
X113270947Y-89581209D01*
X113321128Y-89415785D01*
X113338072Y-89243750D01*
X113338072Y-88756250D01*
X113321128Y-88584215D01*
X113270947Y-88418791D01*
X113189458Y-88266336D01*
X113079792Y-88132708D01*
X112946164Y-88023042D01*
X112793709Y-87941553D01*
X112628285Y-87891372D01*
X112456250Y-87874428D01*
X111543750Y-87874428D01*
X111371715Y-87891372D01*
X111206291Y-87941553D01*
X111053836Y-88023042D01*
X110920208Y-88132708D01*
X110810542Y-88266336D01*
X110729053Y-88418791D01*
X110678872Y-88584215D01*
X110661928Y-88756250D01*
X110661928Y-89243750D01*
X110663678Y-89261520D01*
X109488998Y-90436201D01*
X109460000Y-90459999D01*
X109436202Y-90488997D01*
X109436201Y-90488998D01*
X109365026Y-90575724D01*
X109294454Y-90707754D01*
X109268825Y-90792246D01*
X109250998Y-90851014D01*
X109246364Y-90898061D01*
X109236324Y-91000000D01*
X109240001Y-91037332D01*
X109240001Y-91523981D01*
X109148815Y-91598815D01*
X109069463Y-91695506D01*
X109010498Y-91805820D01*
X108974188Y-91925518D01*
X108961928Y-92050000D01*
X108961928Y-92637126D01*
X108402754Y-92077952D01*
X108424482Y-92075812D01*
X108544180Y-92039502D01*
X108654494Y-91980537D01*
X108751185Y-91901185D01*
X108830537Y-91804494D01*
X108889502Y-91694180D01*
X108925812Y-91574482D01*
X108938072Y-91450000D01*
X108935000Y-91285750D01*
X108776250Y-91127000D01*
X108027000Y-91127000D01*
X108027000Y-91147000D01*
X107773000Y-91147000D01*
X107773000Y-91127000D01*
X107753000Y-91127000D01*
X107753000Y-90873000D01*
X107773000Y-90873000D01*
X107773000Y-90073750D01*
X108027000Y-90073750D01*
X108027000Y-90873000D01*
X108776250Y-90873000D01*
X108935000Y-90714250D01*
X108938072Y-90550000D01*
X108925812Y-90425518D01*
X108889502Y-90305820D01*
X108830537Y-90195506D01*
X108751185Y-90098815D01*
X108654494Y-90019463D01*
X108544180Y-89960498D01*
X108424482Y-89924188D01*
X108300000Y-89911928D01*
X108185750Y-89915000D01*
X108027000Y-90073750D01*
X107773000Y-90073750D01*
X107710000Y-90010750D01*
X107710000Y-89976018D01*
X107801185Y-89901185D01*
X107880537Y-89804494D01*
X107939502Y-89694180D01*
X107975812Y-89574482D01*
X107984059Y-89490742D01*
X110149230Y-87325572D01*
X110656250Y-87325572D01*
X110828285Y-87308628D01*
X110993709Y-87258447D01*
X111146164Y-87176958D01*
X111279792Y-87067292D01*
X111389458Y-86933664D01*
X111470947Y-86781209D01*
X111521128Y-86615785D01*
X111538072Y-86443750D01*
X111538072Y-85956250D01*
X111521128Y-85784215D01*
X111474302Y-85629849D01*
X111736008Y-85368143D01*
X111765011Y-85344341D01*
X111859984Y-85228616D01*
X111930556Y-85096587D01*
X111974013Y-84953326D01*
X111985010Y-84841673D01*
X111985010Y-84841672D01*
X111988687Y-84804340D01*
X111985010Y-84767007D01*
X111985010Y-82525933D01*
X111988687Y-82488600D01*
X111974013Y-82339614D01*
X111930556Y-82196353D01*
X111859984Y-82064324D01*
X111788809Y-81977597D01*
X111765011Y-81948599D01*
X111736013Y-81924801D01*
X111029999Y-81218788D01*
X111029999Y-80589249D01*
X111175750Y-80735000D01*
X111185000Y-80738072D01*
X111309482Y-80725812D01*
X111429180Y-80689502D01*
X111539494Y-80630537D01*
X111636185Y-80551185D01*
X111715537Y-80454494D01*
X111774502Y-80344180D01*
X111810812Y-80224482D01*
X111823072Y-80100000D01*
X111820000Y-79780750D01*
X111661250Y-79622000D01*
X111029999Y-79622000D01*
X111029999Y-79368000D01*
X111661250Y-79368000D01*
X111704251Y-79324999D01*
X111855198Y-79324999D01*
X111856928Y-79326729D01*
X111856928Y-80100000D01*
X111869188Y-80224482D01*
X111905498Y-80344180D01*
X111964463Y-80454494D01*
X112030000Y-80534352D01*
X112030001Y-84025670D01*
X112026324Y-84063002D01*
X112030001Y-84100335D01*
X112040577Y-84207708D01*
X112040998Y-84211987D01*
X112084454Y-84355248D01*
X112155026Y-84487278D01*
X112196664Y-84538013D01*
X112250000Y-84603003D01*
X112278998Y-84626801D01*
X113288204Y-85636009D01*
X113311998Y-85665002D01*
X113340991Y-85688796D01*
X113340995Y-85688800D01*
X113397015Y-85734774D01*
X113427723Y-85759975D01*
X113559752Y-85830547D01*
X113703013Y-85874004D01*
X113814666Y-85885001D01*
X113814675Y-85885001D01*
X113851998Y-85888677D01*
X113889321Y-85885001D01*
X114510679Y-85885001D01*
X114548001Y-85888677D01*
X114585323Y-85885001D01*
X114585334Y-85885001D01*
X114696987Y-85874004D01*
X114840248Y-85830547D01*
X114972277Y-85759975D01*
X115088002Y-85665002D01*
X115111805Y-85635999D01*
X115367947Y-85379857D01*
X115378872Y-85490785D01*
X115429053Y-85656209D01*
X115510542Y-85808664D01*
X115620208Y-85942292D01*
X115753836Y-86051958D01*
X115906291Y-86133447D01*
X116071715Y-86183628D01*
X116243750Y-86200572D01*
X117156250Y-86200572D01*
X117328285Y-86183628D01*
X117493709Y-86133447D01*
X117646164Y-86051958D01*
X117779792Y-85942292D01*
X117867845Y-85835000D01*
X119532155Y-85835000D01*
X119620208Y-85942292D01*
X119753836Y-86051958D01*
X119906291Y-86133447D01*
X120071715Y-86183628D01*
X120243750Y-86200572D01*
X121156250Y-86200572D01*
X121328285Y-86183628D01*
X121493709Y-86133447D01*
X121646164Y-86051958D01*
X121779792Y-85942292D01*
X121867845Y-85835000D01*
X122977544Y-85835000D01*
X122965000Y-85898061D01*
X122965000Y-85960198D01*
X121576756Y-87348443D01*
X121493709Y-87304053D01*
X121328285Y-87253872D01*
X121156250Y-87236928D01*
X120243750Y-87236928D01*
X120071715Y-87253872D01*
X119906291Y-87304053D01*
X119753836Y-87385542D01*
X119620208Y-87495208D01*
X119532155Y-87602500D01*
X117816552Y-87602500D01*
X117779792Y-87557708D01*
X117646164Y-87448042D01*
X117493709Y-87366553D01*
X117328285Y-87316372D01*
X117156250Y-87299428D01*
X116243750Y-87299428D01*
X116071715Y-87316372D01*
X115906291Y-87366553D01*
X115753836Y-87448042D01*
X115620208Y-87557708D01*
X115510542Y-87691336D01*
X115429053Y-87843791D01*
X115378872Y-88009215D01*
X115361928Y-88181250D01*
X115361928Y-88668750D01*
X115378872Y-88840785D01*
X115429053Y-89006209D01*
X115510542Y-89158664D01*
X115620208Y-89292292D01*
X115705756Y-89362500D01*
X115620208Y-89432708D01*
X115532155Y-89540000D01*
X114986940Y-89540000D01*
X114901898Y-89504774D01*
X114701939Y-89465000D01*
X114498061Y-89465000D01*
X114298102Y-89504774D01*
X114109744Y-89582795D01*
X113940226Y-89696063D01*
X113796063Y-89840226D01*
X113682795Y-90009744D01*
X113604774Y-90198102D01*
X113565000Y-90398061D01*
X113565000Y-90601939D01*
X113604774Y-90801898D01*
X113682795Y-90990256D01*
X113796063Y-91159774D01*
X113940226Y-91303937D01*
X114109744Y-91417205D01*
X114298102Y-91495226D01*
X114498061Y-91535000D01*
X114701939Y-91535000D01*
X114901898Y-91495226D01*
X115090256Y-91417205D01*
X115259774Y-91303937D01*
X115403937Y-91159774D01*
X115470604Y-91060000D01*
X115532155Y-91060000D01*
X115620208Y-91167292D01*
X115753836Y-91276958D01*
X115906291Y-91358447D01*
X116071715Y-91408628D01*
X116243750Y-91425572D01*
X117156250Y-91425572D01*
X117328285Y-91408628D01*
X117493709Y-91358447D01*
X117646164Y-91276958D01*
X117779792Y-91167292D01*
X117889458Y-91033664D01*
X117908788Y-90997500D01*
X119532155Y-90997500D01*
X119620208Y-91104792D01*
X119753836Y-91214458D01*
X119906291Y-91295947D01*
X120071715Y-91346128D01*
X120243750Y-91363072D01*
X121156250Y-91363072D01*
X121328285Y-91346128D01*
X121493709Y-91295947D01*
X121646164Y-91214458D01*
X121779792Y-91104792D01*
X121889458Y-90971164D01*
X121970947Y-90818709D01*
X122021128Y-90653285D01*
X122038072Y-90481250D01*
X122038072Y-89993750D01*
X122021128Y-89821715D01*
X121970947Y-89656291D01*
X121889458Y-89503836D01*
X121779792Y-89370208D01*
X121694244Y-89300000D01*
X121779792Y-89229792D01*
X121889458Y-89096164D01*
X121899599Y-89077191D01*
X121929747Y-89068046D01*
X122061776Y-88997474D01*
X122177501Y-88902501D01*
X122201304Y-88873497D01*
X124039802Y-87035000D01*
X124101939Y-87035000D01*
X124301898Y-86995226D01*
X124490256Y-86917205D01*
X124659774Y-86803937D01*
X124803937Y-86659774D01*
X124917205Y-86490256D01*
X124995226Y-86301898D01*
X125035000Y-86101939D01*
X125035000Y-85898061D01*
X125022456Y-85835000D01*
X125244499Y-85835000D01*
X125298815Y-85901185D01*
X125395506Y-85980537D01*
X125505820Y-86039502D01*
X125625518Y-86075812D01*
X125750000Y-86088072D01*
X127450000Y-86088072D01*
X127574482Y-86075812D01*
X127694180Y-86039502D01*
X127804494Y-85980537D01*
X127901185Y-85901185D01*
X127980537Y-85804494D01*
X128039502Y-85694180D01*
X128075812Y-85574482D01*
X128088072Y-85450000D01*
X128088072Y-84150000D01*
X128075812Y-84025518D01*
X128039502Y-83905820D01*
X127980537Y-83795506D01*
X127901185Y-83698815D01*
X127804494Y-83619463D01*
X127694180Y-83560498D01*
X127574482Y-83524188D01*
X127450000Y-83511928D01*
X125750000Y-83511928D01*
X125625518Y-83524188D01*
X125505820Y-83560498D01*
X125395506Y-83619463D01*
X125298815Y-83698815D01*
X125219463Y-83795506D01*
X125160498Y-83905820D01*
X125124188Y-84025518D01*
X125111928Y-84150000D01*
X125111928Y-84315000D01*
X121867845Y-84315000D01*
X121779792Y-84207708D01*
X121773436Y-84202492D01*
X121851185Y-84138685D01*
X121930537Y-84041994D01*
X121989502Y-83931680D01*
X122025812Y-83811982D01*
X122038072Y-83687500D01*
X122035000Y-83485750D01*
X121876250Y-83327000D01*
X120827000Y-83327000D01*
X120827000Y-83347000D01*
X120573000Y-83347000D01*
X120573000Y-83327000D01*
X119523750Y-83327000D01*
X119365000Y-83485750D01*
X119361928Y-83687500D01*
X119374188Y-83811982D01*
X119410498Y-83931680D01*
X119469463Y-84041994D01*
X119548815Y-84138685D01*
X119626564Y-84202492D01*
X119620208Y-84207708D01*
X119532155Y-84315000D01*
X117867845Y-84315000D01*
X117779792Y-84207708D01*
X117773436Y-84202492D01*
X117851185Y-84138685D01*
X117930537Y-84041994D01*
X117989502Y-83931680D01*
X118025812Y-83811982D01*
X118038072Y-83687500D01*
X118035000Y-83485750D01*
X117876250Y-83327000D01*
X116827000Y-83327000D01*
X116827000Y-83347000D01*
X116573000Y-83347000D01*
X116573000Y-83327000D01*
X116553000Y-83327000D01*
X116553000Y-83073000D01*
X116573000Y-83073000D01*
X116573000Y-82236250D01*
X116827000Y-82236250D01*
X116827000Y-83073000D01*
X117876250Y-83073000D01*
X118035000Y-82914250D01*
X118038072Y-82712500D01*
X118025812Y-82588018D01*
X117989502Y-82468320D01*
X117930537Y-82358006D01*
X117851185Y-82261315D01*
X117754494Y-82181963D01*
X117644180Y-82122998D01*
X117524482Y-82086688D01*
X117400000Y-82074428D01*
X116985750Y-82077500D01*
X116827000Y-82236250D01*
X116573000Y-82236250D01*
X116434990Y-82098240D01*
X116434990Y-80188072D01*
X116450000Y-80188072D01*
X116474450Y-80185664D01*
X116499009Y-80185664D01*
X116623490Y-80173404D01*
X116719623Y-80154282D01*
X116839319Y-80117973D01*
X116929875Y-80080464D01*
X117040192Y-80021498D01*
X117121691Y-79967042D01*
X117218382Y-79887690D01*
X117287690Y-79818382D01*
X117294569Y-79810000D01*
X118784531Y-79810000D01*
X118810542Y-79858664D01*
X118920208Y-79992292D01*
X118926564Y-79997508D01*
X118848815Y-80061315D01*
X118769463Y-80158006D01*
X118710498Y-80268320D01*
X118674188Y-80388018D01*
X118661928Y-80512500D01*
X118665000Y-80714250D01*
X118823750Y-80873000D01*
X119873000Y-80873000D01*
X119873000Y-80853000D01*
X120127000Y-80853000D01*
X120127000Y-80873000D01*
X120147000Y-80873000D01*
X120147000Y-81127000D01*
X120127000Y-81127000D01*
X120127000Y-81147000D01*
X119873000Y-81147000D01*
X119873000Y-81127000D01*
X118823750Y-81127000D01*
X118665000Y-81285750D01*
X118661928Y-81487500D01*
X118674188Y-81611982D01*
X118710498Y-81731680D01*
X118769463Y-81841994D01*
X118848815Y-81938685D01*
X118945506Y-82018037D01*
X119055820Y-82077002D01*
X119175518Y-82113312D01*
X119300000Y-82125572D01*
X119714250Y-82122500D01*
X119872998Y-81963752D01*
X119872998Y-82087452D01*
X119755820Y-82122998D01*
X119645506Y-82181963D01*
X119548815Y-82261315D01*
X119469463Y-82358006D01*
X119410498Y-82468320D01*
X119374188Y-82588018D01*
X119361928Y-82712500D01*
X119365000Y-82914250D01*
X119523750Y-83073000D01*
X120573000Y-83073000D01*
X120573000Y-83053000D01*
X120827000Y-83053000D01*
X120827000Y-83073000D01*
X121876250Y-83073000D01*
X122035000Y-82914250D01*
X122038072Y-82712500D01*
X122025812Y-82588018D01*
X121989502Y-82468320D01*
X121930537Y-82358006D01*
X121851185Y-82261315D01*
X121754494Y-82181963D01*
X121644180Y-82122998D01*
X121524482Y-82086688D01*
X121400000Y-82074428D01*
X120985750Y-82077500D01*
X120827002Y-82236248D01*
X120827002Y-82112548D01*
X120944180Y-82077002D01*
X121054494Y-82018037D01*
X121151185Y-81938685D01*
X121230537Y-81841994D01*
X121289502Y-81731680D01*
X121325812Y-81611982D01*
X121338072Y-81487500D01*
X121335000Y-81285750D01*
X121176252Y-81127002D01*
X121335000Y-81127002D01*
X121335000Y-81035000D01*
X121401939Y-81035000D01*
X121601898Y-80995226D01*
X121790256Y-80917205D01*
X121959774Y-80803937D01*
X122103937Y-80659774D01*
X122217205Y-80490256D01*
X122295226Y-80301898D01*
X122335000Y-80101939D01*
X122335000Y-79898061D01*
X122295226Y-79698102D01*
X122217205Y-79509744D01*
X122103937Y-79340226D01*
X121959774Y-79196063D01*
X121790256Y-79082795D01*
X121601898Y-79004774D01*
X121401939Y-78965000D01*
X121338072Y-78965000D01*
X121338072Y-78881250D01*
X121321128Y-78709215D01*
X121270947Y-78543791D01*
X121189458Y-78391336D01*
X121079792Y-78257708D01*
X120946164Y-78148042D01*
X120793709Y-78066553D01*
X120628285Y-78016372D01*
X120456250Y-77999428D01*
X119543750Y-77999428D01*
X119371715Y-78016372D01*
X119206291Y-78066553D01*
X119053836Y-78148042D01*
X118920208Y-78257708D01*
X118893707Y-78290000D01*
X117584132Y-78290000D01*
X117588072Y-78250000D01*
X117588072Y-77750000D01*
X117585664Y-77725550D01*
X117585664Y-77700991D01*
X117573404Y-77576510D01*
X117554282Y-77480377D01*
X117517973Y-77360681D01*
X117480464Y-77270125D01*
X117421498Y-77159808D01*
X117367042Y-77078309D01*
X117287690Y-76981618D01*
X117218382Y-76912310D01*
X117121691Y-76832958D01*
X117040192Y-76778502D01*
X116929875Y-76719536D01*
X116839319Y-76682027D01*
X116719623Y-76645718D01*
X116623490Y-76626596D01*
X116499009Y-76614336D01*
X116474450Y-76614336D01*
X116450000Y-76611928D01*
X116136729Y-76611928D01*
X115998803Y-76474002D01*
X115975001Y-76444999D01*
X115859276Y-76350026D01*
X115727247Y-76279454D01*
X115583986Y-76235997D01*
X115472333Y-76225000D01*
X115472322Y-76225000D01*
X115435000Y-76221324D01*
X115397678Y-76225000D01*
X112751554Y-76225000D01*
X112724502Y-76135820D01*
X112665537Y-76025506D01*
X112586185Y-75928815D01*
X112531150Y-75883649D01*
X113904801Y-74510000D01*
X114124725Y-74510000D01*
X114115000Y-74591250D01*
X114180672Y-74656922D01*
X114219463Y-74729494D01*
X114235467Y-74748994D01*
X114229770Y-74755546D01*
X114178469Y-74845281D01*
X114115000Y-74908750D01*
X114125922Y-75000000D01*
X114115000Y-75091250D01*
X114178469Y-75154719D01*
X114229770Y-75244454D01*
X114252804Y-75270946D01*
X114115000Y-75408750D01*
X114127986Y-75517248D01*
X114167689Y-75635863D01*
X114229770Y-75744454D01*
X114311843Y-75838847D01*
X114410754Y-75915415D01*
X114522702Y-75971214D01*
X114643385Y-76004102D01*
X114739250Y-76010000D01*
X114898000Y-75851250D01*
X114898000Y-75125000D01*
X115063153Y-75125000D01*
X115061928Y-75350000D01*
X115074188Y-75474482D01*
X115110498Y-75594180D01*
X115152000Y-75671824D01*
X115152000Y-75851250D01*
X115310750Y-76010000D01*
X115406615Y-76004102D01*
X115527298Y-75971214D01*
X115539807Y-75964979D01*
X115575518Y-75975812D01*
X115700000Y-75988072D01*
X115914250Y-75985000D01*
X116073000Y-75826250D01*
X116073000Y-74627000D01*
X116053000Y-74627000D01*
X116053000Y-74373000D01*
X116073000Y-74373000D01*
X116073000Y-73173750D01*
X115914250Y-73015000D01*
X115700000Y-73011928D01*
X115575518Y-73024188D01*
X115541207Y-73034596D01*
X115424482Y-72999188D01*
X115300000Y-72986928D01*
X114750000Y-72986928D01*
X114718808Y-72990000D01*
X113779802Y-72990000D01*
X114006004Y-72763798D01*
X114035001Y-72740001D01*
X114129974Y-72624276D01*
X114167688Y-72553719D01*
X114240518Y-72575812D01*
X114365000Y-72588072D01*
X115165000Y-72588072D01*
X115289482Y-72575812D01*
X115400000Y-72542287D01*
X115510518Y-72575812D01*
X115635000Y-72588072D01*
X116435000Y-72588072D01*
X116559482Y-72575812D01*
X116670000Y-72542287D01*
X116780518Y-72575812D01*
X116905000Y-72588072D01*
X117705000Y-72588072D01*
X117829482Y-72575812D01*
X117940000Y-72542287D01*
X118050518Y-72575812D01*
X118175000Y-72588072D01*
X118975000Y-72588072D01*
X119005090Y-72585108D01*
X118600199Y-72990000D01*
X117681192Y-72990000D01*
X117650000Y-72986928D01*
X117100000Y-72986928D01*
X116975518Y-72999188D01*
X116858793Y-73034596D01*
X116824482Y-73024188D01*
X116700000Y-73011928D01*
X116485750Y-73015000D01*
X116327000Y-73173750D01*
X116327000Y-74373000D01*
X116347000Y-74373000D01*
X116347000Y-74627000D01*
X116327000Y-74627000D01*
X116327000Y-75826250D01*
X116485750Y-75985000D01*
X116700000Y-75988072D01*
X116824482Y-75975812D01*
X116858793Y-75965404D01*
X116975518Y-76000812D01*
X117100000Y-76013072D01*
X117650000Y-76013072D01*
X117681192Y-76010000D01*
X118861928Y-76010000D01*
X118861928Y-76118750D01*
X118878872Y-76290785D01*
X118929053Y-76456209D01*
X119010542Y-76608664D01*
X119120208Y-76742292D01*
X119253836Y-76851958D01*
X119406291Y-76933447D01*
X119571715Y-76983628D01*
X119743750Y-77000572D01*
X120656250Y-77000572D01*
X120828285Y-76983628D01*
X120993709Y-76933447D01*
X121146164Y-76851958D01*
X121279792Y-76742292D01*
X121315388Y-76698919D01*
X121320208Y-76704792D01*
X121453836Y-76814458D01*
X121606291Y-76895947D01*
X121640001Y-76906173D01*
X121640001Y-77762668D01*
X121636324Y-77800000D01*
X121640001Y-77837333D01*
X121650998Y-77948986D01*
X121663135Y-77988996D01*
X121694454Y-78092246D01*
X121765026Y-78224276D01*
X121827990Y-78300997D01*
X121860000Y-78340001D01*
X121888997Y-78363799D01*
X122065000Y-78539802D01*
X122065000Y-78601939D01*
X122104774Y-78801898D01*
X122182795Y-78990256D01*
X122296063Y-79159774D01*
X122440226Y-79303937D01*
X122609744Y-79417205D01*
X122798102Y-79495226D01*
X122998061Y-79535000D01*
X123201939Y-79535000D01*
X123401898Y-79495226D01*
X123590256Y-79417205D01*
X123759774Y-79303937D01*
X123903937Y-79159774D01*
X124017205Y-78990256D01*
X124095226Y-78801898D01*
X124135000Y-78601939D01*
X124135000Y-78398061D01*
X124095226Y-78198102D01*
X124017205Y-78009744D01*
X123903937Y-77840226D01*
X123759774Y-77696063D01*
X123590256Y-77582795D01*
X123401898Y-77504774D01*
X123201939Y-77465000D01*
X123160000Y-77465000D01*
X123160000Y-76906173D01*
X123193709Y-76895947D01*
X123346164Y-76814458D01*
X123479792Y-76704792D01*
X123589458Y-76571164D01*
X123670947Y-76418709D01*
X123721128Y-76253285D01*
X123738072Y-76081250D01*
X123738072Y-75593750D01*
X123721128Y-75421715D01*
X123674302Y-75267349D01*
X123936008Y-75005643D01*
X123965011Y-74981841D01*
X124059984Y-74866116D01*
X124130556Y-74734087D01*
X124174013Y-74590826D01*
X124185010Y-74479173D01*
X124185010Y-74479172D01*
X124188687Y-74441840D01*
X124185010Y-74404507D01*
X124185010Y-73593571D01*
X124296063Y-73759774D01*
X124340001Y-73803712D01*
X124340000Y-77262677D01*
X124336324Y-77300000D01*
X124340000Y-77337322D01*
X124340000Y-77337332D01*
X124350997Y-77448985D01*
X124389681Y-77576510D01*
X124394454Y-77592246D01*
X124465026Y-77724276D01*
X124498448Y-77765000D01*
X124559999Y-77840001D01*
X124589003Y-77863804D01*
X125263678Y-78538480D01*
X125261928Y-78556250D01*
X125261928Y-79043750D01*
X125278872Y-79215785D01*
X125329053Y-79381209D01*
X125410542Y-79533664D01*
X125520208Y-79667292D01*
X125653836Y-79776958D01*
X125806291Y-79858447D01*
X125971715Y-79908628D01*
X126016473Y-79913036D01*
X125965026Y-79975724D01*
X125945674Y-80011928D01*
X125750000Y-80011928D01*
X125625518Y-80024188D01*
X125505820Y-80060498D01*
X125395506Y-80119463D01*
X125298815Y-80198815D01*
X125219463Y-80295506D01*
X125160498Y-80405820D01*
X125124188Y-80525518D01*
X125111928Y-80650000D01*
X125111928Y-81950000D01*
X125124188Y-82074482D01*
X125160498Y-82194180D01*
X125219463Y-82304494D01*
X125298815Y-82401185D01*
X125395506Y-82480537D01*
X125505820Y-82539502D01*
X125625518Y-82575812D01*
X125750000Y-82588072D01*
X127450000Y-82588072D01*
X127574482Y-82575812D01*
X127694180Y-82539502D01*
X127804494Y-82480537D01*
X127901185Y-82401185D01*
X127980537Y-82304494D01*
X128039502Y-82194180D01*
X128075812Y-82074482D01*
X128088072Y-81950000D01*
X128088072Y-80650000D01*
X128075812Y-80525518D01*
X128039502Y-80405820D01*
X127980537Y-80295506D01*
X127901185Y-80198815D01*
X127887345Y-80187457D01*
X128136014Y-79938788D01*
X128165011Y-79914991D01*
X128210142Y-79859999D01*
X128259984Y-79799267D01*
X128330556Y-79667237D01*
X128348539Y-79607954D01*
X128374013Y-79523976D01*
X128385010Y-79412323D01*
X128385010Y-79412314D01*
X128388686Y-79374991D01*
X128385010Y-79337668D01*
X128385010Y-77987332D01*
X128388686Y-77950009D01*
X128385010Y-77912686D01*
X128385010Y-77912677D01*
X128374013Y-77801024D01*
X128330556Y-77657763D01*
X128300222Y-77601013D01*
X128259984Y-77525733D01*
X128204193Y-77457753D01*
X128165011Y-77410009D01*
X128136007Y-77386206D01*
X127936322Y-77186521D01*
X127938072Y-77168750D01*
X127938072Y-76681250D01*
X127921128Y-76509215D01*
X127870947Y-76343791D01*
X127789458Y-76191336D01*
X127679792Y-76057708D01*
X127546164Y-75948042D01*
X127393709Y-75866553D01*
X127228285Y-75816372D01*
X127056250Y-75799428D01*
X126143750Y-75799428D01*
X125971715Y-75816372D01*
X125860000Y-75850260D01*
X125860000Y-73803711D01*
X125903937Y-73759774D01*
X126017205Y-73590256D01*
X126095226Y-73401898D01*
X126135000Y-73201939D01*
X126135000Y-72998061D01*
X126095226Y-72798102D01*
X126017205Y-72609744D01*
X125903937Y-72440226D01*
X125759774Y-72296063D01*
X125590256Y-72182795D01*
X125401898Y-72104774D01*
X125201939Y-72065000D01*
X124998061Y-72065000D01*
X124798102Y-72104774D01*
X124609744Y-72182795D01*
X124440226Y-72296063D01*
X124296063Y-72440226D01*
X124182795Y-72609744D01*
X124104774Y-72798102D01*
X124090071Y-72872021D01*
X124059984Y-72815734D01*
X123965011Y-72700009D01*
X123936013Y-72676211D01*
X123393000Y-72133199D01*
X123410812Y-72074482D01*
X123423072Y-71950000D01*
X123423072Y-70243072D01*
X125130000Y-70243072D01*
X125254482Y-70230812D01*
X125374180Y-70194502D01*
X125437750Y-70160523D01*
X125436324Y-70175000D01*
X125440000Y-70212322D01*
X125440000Y-70212332D01*
X125450997Y-70323985D01*
X125488920Y-70449003D01*
X125494454Y-70467246D01*
X125565026Y-70599276D01*
X125604871Y-70647826D01*
X125659999Y-70715001D01*
X125689003Y-70738804D01*
X127599428Y-72649230D01*
X127599428Y-73156250D01*
X127616372Y-73328285D01*
X127666553Y-73493709D01*
X127748042Y-73646164D01*
X127857708Y-73779792D01*
X127991336Y-73889458D01*
X128143791Y-73970947D01*
X128309215Y-74021128D01*
X128481250Y-74038072D01*
X128968750Y-74038072D01*
X129140785Y-74021128D01*
X129306209Y-73970947D01*
X129458664Y-73889458D01*
X129592292Y-73779792D01*
X129662500Y-73694244D01*
X129732708Y-73779792D01*
X129866336Y-73889458D01*
X130018791Y-73970947D01*
X130184215Y-74021128D01*
X130356250Y-74038072D01*
X130843750Y-74038072D01*
X131015785Y-74021128D01*
X131181209Y-73970947D01*
X131333664Y-73889458D01*
X131467292Y-73779792D01*
X131576958Y-73646164D01*
X131658447Y-73493709D01*
X131708628Y-73328285D01*
X131725572Y-73156250D01*
X131725572Y-72243750D01*
X131708628Y-72071715D01*
X131658447Y-71906291D01*
X131576958Y-71753836D01*
X131467292Y-71620208D01*
X131333664Y-71510542D01*
X131317500Y-71501902D01*
X131317500Y-70312845D01*
X131424792Y-70224792D01*
X131534458Y-70091164D01*
X131615947Y-69938709D01*
X131666128Y-69773285D01*
X131683072Y-69601250D01*
X131683072Y-68688750D01*
X131666128Y-68516715D01*
X131615947Y-68351291D01*
X131534458Y-68198836D01*
X131424792Y-68065208D01*
X131291164Y-67955542D01*
X131138709Y-67874053D01*
X130973285Y-67823872D01*
X130801250Y-67806928D01*
X130313750Y-67806928D01*
X130141715Y-67823872D01*
X129976291Y-67874053D01*
X129823836Y-67955542D01*
X129690208Y-68065208D01*
X129684992Y-68071564D01*
X129621185Y-67993815D01*
X129524494Y-67914463D01*
X129414180Y-67855498D01*
X129294482Y-67819188D01*
X129170000Y-67806928D01*
X128968250Y-67810000D01*
X128809500Y-67968750D01*
X128809500Y-69018000D01*
X128829500Y-69018000D01*
X128829500Y-69272000D01*
X128809500Y-69272000D01*
X128809500Y-70321250D01*
X128968250Y-70480000D01*
X129170000Y-70483072D01*
X129294482Y-70470812D01*
X129414180Y-70434502D01*
X129524494Y-70375537D01*
X129621185Y-70296185D01*
X129684992Y-70218436D01*
X129690208Y-70224792D01*
X129797500Y-70312845D01*
X129797501Y-71567034D01*
X129732708Y-71620208D01*
X129662500Y-71705756D01*
X129592292Y-71620208D01*
X129458664Y-71510542D01*
X129306209Y-71429053D01*
X129140785Y-71378872D01*
X128968750Y-71361928D01*
X128481250Y-71361928D01*
X128463480Y-71363678D01*
X126960000Y-69860199D01*
X126960000Y-69845000D01*
X127556928Y-69845000D01*
X127569188Y-69969482D01*
X127605498Y-70089180D01*
X127664463Y-70199494D01*
X127743815Y-70296185D01*
X127840506Y-70375537D01*
X127950820Y-70434502D01*
X128070518Y-70470812D01*
X128195000Y-70483072D01*
X128396750Y-70480000D01*
X128555500Y-70321250D01*
X128555500Y-69272000D01*
X127718750Y-69272000D01*
X127560000Y-69430750D01*
X127556928Y-69845000D01*
X126960000Y-69845000D01*
X126960000Y-68445000D01*
X127556928Y-68445000D01*
X127560000Y-68859250D01*
X127718750Y-69018000D01*
X128555500Y-69018000D01*
X128555500Y-67968750D01*
X128396750Y-67810000D01*
X128195000Y-67806928D01*
X128070518Y-67819188D01*
X127950820Y-67855498D01*
X127840506Y-67914463D01*
X127743815Y-67993815D01*
X127664463Y-68090506D01*
X127605498Y-68200820D01*
X127569188Y-68320518D01*
X127556928Y-68445000D01*
X126960000Y-68445000D01*
X126960000Y-63803711D01*
X127003937Y-63759774D01*
X127117205Y-63590256D01*
X127195226Y-63401898D01*
X127235000Y-63201939D01*
X127235000Y-62998061D01*
X127195226Y-62798102D01*
X127117205Y-62609744D01*
X127003937Y-62440226D01*
X126859774Y-62296063D01*
X126690256Y-62182795D01*
X126501898Y-62104774D01*
X126301939Y-62065000D01*
X126098061Y-62065000D01*
X125898102Y-62104774D01*
X125736997Y-62171506D01*
X125755812Y-62109482D01*
X125768072Y-61985000D01*
X125768072Y-61185000D01*
X125755812Y-61060518D01*
X125722287Y-60950000D01*
X125755812Y-60839482D01*
X125760193Y-60794995D01*
X128405000Y-63439802D01*
X128405000Y-63611788D01*
X128448617Y-63831067D01*
X128534176Y-64037624D01*
X128658388Y-64223520D01*
X128816480Y-64381612D01*
X129002376Y-64505824D01*
X129208933Y-64591383D01*
X129428212Y-64635000D01*
X129651788Y-64635000D01*
X129871067Y-64591383D01*
X130077624Y-64505824D01*
X130263520Y-64381612D01*
X130421612Y-64223520D01*
X130545824Y-64037624D01*
X130631383Y-63831067D01*
X130675000Y-63611788D01*
X130675000Y-63388212D01*
X130631383Y-63168933D01*
X130545824Y-62962376D01*
X130421612Y-62776480D01*
X130263520Y-62618388D01*
X130077624Y-62494176D01*
X129871067Y-62408617D01*
X129651788Y-62365000D01*
X129479802Y-62365000D01*
X129138377Y-62023575D01*
X129180826Y-62042458D01*
X129398905Y-62091731D01*
X129622406Y-62097511D01*
X129842740Y-62059577D01*
X130051440Y-61979387D01*
X130103450Y-61951588D01*
X130138561Y-61738166D01*
X129540000Y-61139605D01*
X129525858Y-61153748D01*
X129346253Y-60974143D01*
X129360395Y-60960000D01*
X129719605Y-60960000D01*
X130318166Y-61558561D01*
X130531588Y-61523450D01*
X130622458Y-61319174D01*
X130671731Y-61101095D01*
X130677511Y-60877594D01*
X130639577Y-60657260D01*
X130559387Y-60448560D01*
X130531588Y-60396550D01*
X130318166Y-60361439D01*
X129719605Y-60960000D01*
X129360395Y-60960000D01*
X128761834Y-60361439D01*
X128548412Y-60396550D01*
X128457542Y-60600826D01*
X128408269Y-60818905D01*
X128402489Y-61042406D01*
X128440423Y-61262740D01*
X128479661Y-61364859D01*
X127296636Y-60181834D01*
X128941439Y-60181834D01*
X129540000Y-60780395D01*
X130138561Y-60181834D01*
X130103450Y-59968412D01*
X129899174Y-59877542D01*
X129681095Y-59828269D01*
X129457594Y-59822489D01*
X129237260Y-59860423D01*
X129028560Y-59940613D01*
X128976550Y-59968412D01*
X128941439Y-60181834D01*
X127296636Y-60181834D01*
X125768072Y-58653271D01*
X125768072Y-58645000D01*
X125757238Y-58535000D01*
X128405639Y-58535000D01*
X128448617Y-58751067D01*
X128534176Y-58957624D01*
X128658388Y-59143520D01*
X128816480Y-59301612D01*
X129002376Y-59425824D01*
X129208933Y-59511383D01*
X129428212Y-59555000D01*
X129651788Y-59555000D01*
X129871067Y-59511383D01*
X130077624Y-59425824D01*
X130263520Y-59301612D01*
X130421612Y-59143520D01*
X130545824Y-58957624D01*
X130631383Y-58751067D01*
X130675000Y-58531788D01*
X130675000Y-58308212D01*
X130631383Y-58088933D01*
X130545824Y-57882376D01*
X130421612Y-57696480D01*
X130263520Y-57538388D01*
X130077624Y-57414176D01*
X129871067Y-57328617D01*
X129651788Y-57285000D01*
X129479801Y-57285000D01*
X129458803Y-57264002D01*
X129435001Y-57234999D01*
X129327126Y-57146468D01*
X129339276Y-57139974D01*
X129455001Y-57045001D01*
X129478803Y-57015998D01*
X129479801Y-57015000D01*
X129651788Y-57015000D01*
X129871067Y-56971383D01*
X130077624Y-56885824D01*
X130263520Y-56761612D01*
X130421612Y-56603520D01*
X130545824Y-56417624D01*
X130631383Y-56211067D01*
X130675000Y-55991788D01*
X130675000Y-55768212D01*
X130631383Y-55548933D01*
X130545824Y-55342376D01*
X130421612Y-55156480D01*
X130263520Y-54998388D01*
X130077624Y-54874176D01*
X129871067Y-54788617D01*
X129651788Y-54745000D01*
X129428212Y-54745000D01*
X129208933Y-54788617D01*
X129002376Y-54874176D01*
X128816480Y-54998388D01*
X128658388Y-55156480D01*
X128534176Y-55342376D01*
X128448617Y-55548933D01*
X128409617Y-55745000D01*
X125757238Y-55745000D01*
X125768072Y-55635000D01*
X125768072Y-54835000D01*
X125755812Y-54710518D01*
X125722287Y-54600000D01*
X125755812Y-54489482D01*
X125768072Y-54365000D01*
X125768072Y-53565000D01*
X125755812Y-53440518D01*
X125722287Y-53330000D01*
X125755812Y-53219482D01*
X125768072Y-53095000D01*
X125768072Y-52729999D01*
X127855198Y-52729999D01*
X128405000Y-53279802D01*
X128405000Y-53451788D01*
X128448617Y-53671067D01*
X128534176Y-53877624D01*
X128658388Y-54063520D01*
X128816480Y-54221612D01*
X129002376Y-54345824D01*
X129208933Y-54431383D01*
X129428212Y-54475000D01*
X129651788Y-54475000D01*
X129871067Y-54431383D01*
X130077624Y-54345824D01*
X130263520Y-54221612D01*
X130421612Y-54063520D01*
X130545824Y-53877624D01*
X130631383Y-53671067D01*
X130675000Y-53451788D01*
X130675000Y-53228212D01*
X130631383Y-53008933D01*
X130545824Y-52802376D01*
X130421612Y-52616480D01*
X130263520Y-52458388D01*
X130077624Y-52334176D01*
X129871067Y-52248617D01*
X129651788Y-52205000D01*
X129479802Y-52205000D01*
X129135956Y-51861155D01*
X129208933Y-51891383D01*
X129428212Y-51935000D01*
X129651788Y-51935000D01*
X129871067Y-51891383D01*
X130077624Y-51805824D01*
X130263520Y-51681612D01*
X130421612Y-51523520D01*
X130545824Y-51337624D01*
X130631383Y-51131067D01*
X130675000Y-50911788D01*
X130675000Y-50688212D01*
X130631383Y-50468933D01*
X130545824Y-50262376D01*
X130421612Y-50076480D01*
X130263520Y-49918388D01*
X130077624Y-49794176D01*
X129871067Y-49708617D01*
X129651788Y-49665000D01*
X129428212Y-49665000D01*
X129208933Y-49708617D01*
X129002376Y-49794176D01*
X128816480Y-49918388D01*
X128683855Y-50051013D01*
X128540647Y-50094454D01*
X128408618Y-50165026D01*
X128292893Y-50259999D01*
X128269090Y-50289003D01*
X128218093Y-50340000D01*
X125684250Y-50340000D01*
X125626250Y-50282000D01*
X124277000Y-50282000D01*
X124277000Y-50302000D01*
X124023000Y-50302000D01*
X124023000Y-50282000D01*
X122673750Y-50282000D01*
X122615750Y-50340000D01*
X118303711Y-50340000D01*
X118259774Y-50296063D01*
X118090256Y-50182795D01*
X117901898Y-50104774D01*
X117701939Y-50065000D01*
X117498061Y-50065000D01*
X117298102Y-50104774D01*
X117109744Y-50182795D01*
X116940226Y-50296063D01*
X116796063Y-50440226D01*
X116682795Y-50609744D01*
X116604774Y-50798102D01*
X116565000Y-50998061D01*
X116565000Y-51201939D01*
X116566603Y-51209999D01*
X116333712Y-51209999D01*
X116289775Y-51166062D01*
X116120257Y-51052794D01*
X115931899Y-50974773D01*
X115731940Y-50934999D01*
X115528062Y-50934999D01*
X115328103Y-50974773D01*
X115139745Y-51052794D01*
X114970227Y-51166062D01*
X114826064Y-51310225D01*
X114712796Y-51479743D01*
X114634775Y-51668101D01*
X114595001Y-51868060D01*
X114595001Y-52071938D01*
X114634775Y-52271897D01*
X114712796Y-52460255D01*
X114826064Y-52629773D01*
X114970227Y-52773936D01*
X115139745Y-52887204D01*
X115328103Y-52965225D01*
X115528062Y-53004999D01*
X115731940Y-53004999D01*
X115931899Y-52965225D01*
X116120257Y-52887204D01*
X116289775Y-52773936D01*
X116333712Y-52729999D01*
X122491928Y-52729999D01*
X122491928Y-53095000D01*
X122504188Y-53219482D01*
X122537713Y-53330000D01*
X122504188Y-53440518D01*
X122491928Y-53565000D01*
X122491928Y-54365000D01*
X122504188Y-54489482D01*
X122537713Y-54600000D01*
X122504188Y-54710518D01*
X122491928Y-54835000D01*
X122491928Y-55635000D01*
X122504188Y-55759482D01*
X122537713Y-55870000D01*
X122504188Y-55980518D01*
X122491928Y-56105000D01*
X122491928Y-56905000D01*
X122504188Y-57029482D01*
X122537713Y-57140000D01*
X122504188Y-57250518D01*
X122491928Y-57375000D01*
X122491928Y-58175000D01*
X122504188Y-58299482D01*
X122537713Y-58410000D01*
X122504188Y-58520518D01*
X122491928Y-58645000D01*
X122491928Y-59445000D01*
X122504188Y-59569482D01*
X122537713Y-59680000D01*
X122504188Y-59790518D01*
X122491928Y-59915000D01*
X122491928Y-60715000D01*
X122504188Y-60839482D01*
X122537713Y-60950000D01*
X122504188Y-61060518D01*
X122491928Y-61185000D01*
X122491928Y-61985000D01*
X122504188Y-62109482D01*
X122537713Y-62220000D01*
X122504188Y-62330518D01*
X122491928Y-62455000D01*
X122491928Y-63255000D01*
X122504188Y-63379482D01*
X122537713Y-63490000D01*
X122504188Y-63600518D01*
X122491928Y-63725000D01*
X122491928Y-64525000D01*
X122504188Y-64649482D01*
X122537713Y-64760000D01*
X122504188Y-64870518D01*
X122491928Y-64995000D01*
X122491928Y-65795000D01*
X122504188Y-65919482D01*
X122537713Y-66030000D01*
X122504188Y-66140518D01*
X122491928Y-66265000D01*
X122491928Y-67065000D01*
X122504188Y-67189482D01*
X122537713Y-67300000D01*
X122504188Y-67410518D01*
X122491928Y-67535000D01*
X122491928Y-68335000D01*
X122504188Y-68459482D01*
X122537713Y-68570000D01*
X122504188Y-68680518D01*
X122491928Y-68805000D01*
X122491928Y-69311928D01*
X121985000Y-69311928D01*
X121860518Y-69324188D01*
X121750000Y-69357713D01*
X121639482Y-69324188D01*
X121515000Y-69311928D01*
X120715000Y-69311928D01*
X120590518Y-69324188D01*
X120480000Y-69357713D01*
X120369482Y-69324188D01*
X120245000Y-69311928D01*
X119445000Y-69311928D01*
X119320518Y-69324188D01*
X119210000Y-69357713D01*
X119099482Y-69324188D01*
X118975000Y-69311928D01*
X118175000Y-69311928D01*
X118050518Y-69324188D01*
X117940000Y-69357713D01*
X117829482Y-69324188D01*
X117705000Y-69311928D01*
X116905000Y-69311928D01*
X116780518Y-69324188D01*
X116670000Y-69357713D01*
X116559482Y-69324188D01*
X116435000Y-69311928D01*
X115635000Y-69311928D01*
X115510518Y-69324188D01*
X115400000Y-69357713D01*
X115289482Y-69324188D01*
X115165000Y-69311928D01*
X114365000Y-69311928D01*
X114240518Y-69324188D01*
X114130000Y-69357713D01*
X114019482Y-69324188D01*
X113895000Y-69311928D01*
X113095000Y-69311928D01*
X112985000Y-69322762D01*
X112985000Y-65489801D01*
X119539802Y-58935000D01*
X119601939Y-58935000D01*
X119801898Y-58895226D01*
X119990256Y-58817205D01*
X120159774Y-58703937D01*
X120303937Y-58559774D01*
X120417205Y-58390256D01*
X120495226Y-58201898D01*
X120535000Y-58001939D01*
X120535000Y-57798061D01*
X120495226Y-57598102D01*
X120417205Y-57409744D01*
X120303937Y-57240226D01*
X120159774Y-57096063D01*
X119990256Y-56982795D01*
X119801898Y-56904774D01*
X119601939Y-56865000D01*
X119398061Y-56865000D01*
X119198102Y-56904774D01*
X119009744Y-56982795D01*
X118840226Y-57096063D01*
X118696063Y-57240226D01*
X118582795Y-57409744D01*
X118504774Y-57598102D01*
X118465000Y-57798061D01*
X118465000Y-57860198D01*
X111715000Y-64610199D01*
X111715000Y-57859801D01*
X113239803Y-56335000D01*
X113301939Y-56335000D01*
X113501898Y-56295226D01*
X113690256Y-56217205D01*
X113859774Y-56103937D01*
X114003937Y-55959774D01*
X114117205Y-55790256D01*
X114195226Y-55601898D01*
X114235000Y-55401939D01*
X114235000Y-55198061D01*
X114195226Y-54998102D01*
X114117205Y-54809744D01*
X114003937Y-54640226D01*
X113859774Y-54496063D01*
X113690256Y-54382795D01*
X113501898Y-54304774D01*
X113301939Y-54265000D01*
X113098061Y-54265000D01*
X112941322Y-54296177D01*
X112903937Y-54240226D01*
X112759774Y-54096063D01*
X112590256Y-53982795D01*
X112401898Y-53904774D01*
X112201939Y-53865000D01*
X111998061Y-53865000D01*
X111798102Y-53904774D01*
X111609744Y-53982795D01*
X111440226Y-54096063D01*
X111296063Y-54240226D01*
X111182795Y-54409744D01*
X111104774Y-54598102D01*
X111065000Y-54798061D01*
X111065000Y-54860198D01*
X108308072Y-57617127D01*
X108308072Y-57375000D01*
X108295812Y-57250518D01*
X108262287Y-57140000D01*
X108295812Y-57029482D01*
X108308072Y-56905000D01*
X108308072Y-56105000D01*
X108295812Y-55980518D01*
X108262287Y-55870000D01*
X108295812Y-55759482D01*
X108308072Y-55635000D01*
X108308072Y-54835000D01*
X108295812Y-54710518D01*
X108262287Y-54600000D01*
X108295812Y-54489482D01*
X108308072Y-54365000D01*
X108308072Y-53565000D01*
X108295812Y-53440518D01*
X108262287Y-53330000D01*
X108295812Y-53219482D01*
X108308072Y-53095000D01*
X108305000Y-52980750D01*
X108146250Y-52822000D01*
X106797000Y-52822000D01*
X106797000Y-52842000D01*
X106543000Y-52842000D01*
X106543000Y-52822000D01*
X105193750Y-52822000D01*
X105035000Y-52980750D01*
X105031928Y-53095000D01*
X105044188Y-53219482D01*
X105077713Y-53330000D01*
X105044188Y-53440518D01*
X105031928Y-53565000D01*
X105031928Y-54365000D01*
X105044188Y-54489482D01*
X105077713Y-54600000D01*
X105044188Y-54710518D01*
X105031928Y-54835000D01*
X105031928Y-55635000D01*
X105044188Y-55759482D01*
X105077713Y-55870000D01*
X105044188Y-55980518D01*
X105031928Y-56105000D01*
X105031928Y-56905000D01*
X105044188Y-57029482D01*
X105077713Y-57140000D01*
X105044188Y-57250518D01*
X105031928Y-57375000D01*
X105031928Y-58175000D01*
X105044188Y-58299482D01*
X105077713Y-58410000D01*
X105044188Y-58520518D01*
X105031928Y-58645000D01*
X105031928Y-59445000D01*
X105044188Y-59569482D01*
X105077713Y-59680000D01*
X105044188Y-59790518D01*
X105031928Y-59915000D01*
X105031928Y-60715000D01*
X105044188Y-60839482D01*
X105077713Y-60950000D01*
X105044188Y-61060518D01*
X105031928Y-61185000D01*
X105031928Y-61985000D01*
X105044188Y-62109482D01*
X105077713Y-62220000D01*
X105044188Y-62330518D01*
X105031928Y-62455000D01*
X105031928Y-63255000D01*
X105044188Y-63379482D01*
X105077713Y-63490000D01*
X105044188Y-63600518D01*
X105031928Y-63725000D01*
X105031928Y-64525000D01*
X105044188Y-64649482D01*
X105077713Y-64760000D01*
X105044188Y-64870518D01*
X105031928Y-64995000D01*
X105031928Y-65795000D01*
X105044188Y-65919482D01*
X105077713Y-66030000D01*
X105044188Y-66140518D01*
X105031928Y-66265000D01*
X105031928Y-67065000D01*
X105044188Y-67189482D01*
X105077713Y-67300000D01*
X105044188Y-67410518D01*
X105031928Y-67535000D01*
X105031928Y-68335000D01*
X105044188Y-68459482D01*
X105077713Y-68570000D01*
X105044188Y-68680518D01*
X105031928Y-68805000D01*
X105035000Y-68919250D01*
X105193750Y-69078000D01*
X106543000Y-69078000D01*
X106543000Y-69058000D01*
X106797000Y-69058000D01*
X106797000Y-69078000D01*
X106817000Y-69078000D01*
X106817000Y-69332000D01*
X106797000Y-69332000D01*
X106797000Y-70081250D01*
X106955750Y-70240000D01*
X107376928Y-70241811D01*
X107376928Y-71950000D01*
X107389188Y-72074482D01*
X107407000Y-72133199D01*
X105864002Y-73676197D01*
X105834998Y-73700000D01*
X105793964Y-73750001D01*
X105740025Y-73815725D01*
X105670628Y-73945556D01*
X105669453Y-73947755D01*
X105625996Y-74091016D01*
X105614999Y-74202669D01*
X105614999Y-74202679D01*
X105611323Y-74240001D01*
X105614999Y-74277323D01*
X105615000Y-81967017D01*
X105611323Y-82004349D01*
X105625997Y-82153334D01*
X105669453Y-82296595D01*
X105740025Y-82428625D01*
X105782629Y-82480537D01*
X105834999Y-82544350D01*
X105863997Y-82568148D01*
X108925698Y-85629850D01*
X108878872Y-85784215D01*
X108861928Y-85956250D01*
X108861928Y-86443750D01*
X108863678Y-86461520D01*
X107407598Y-87917601D01*
X107350000Y-87911928D01*
X106550000Y-87911928D01*
X106425518Y-87924188D01*
X106305820Y-87960498D01*
X106195506Y-88019463D01*
X106098815Y-88098815D01*
X106019463Y-88195506D01*
X105960498Y-88305820D01*
X105924188Y-88425518D01*
X105911928Y-88550000D01*
X105911928Y-89450000D01*
X105924188Y-89574482D01*
X105960498Y-89694180D01*
X106019463Y-89804494D01*
X106098815Y-89901185D01*
X106111905Y-89911928D01*
X105600000Y-89911928D01*
X105475518Y-89924188D01*
X105355820Y-89960498D01*
X105245506Y-90019463D01*
X105148815Y-90098815D01*
X105069463Y-90195506D01*
X105010498Y-90305820D01*
X104974188Y-90425518D01*
X104961928Y-90550000D01*
X103660000Y-90550000D01*
X103660000Y-90549198D01*
X103790476Y-90507809D01*
X103845412Y-90484263D01*
X103900764Y-90461449D01*
X103908870Y-90457065D01*
X104165408Y-90316032D01*
X104214753Y-90282245D01*
X104264591Y-90249133D01*
X104271691Y-90243259D01*
X104495949Y-90055084D01*
X104537793Y-90012354D01*
X104580248Y-89970195D01*
X104586072Y-89963053D01*
X104769509Y-89734903D01*
X104802251Y-89684869D01*
X104835714Y-89635258D01*
X104840040Y-89627122D01*
X104975670Y-89367687D01*
X104998082Y-89312215D01*
X105021260Y-89257077D01*
X105023923Y-89248255D01*
X105106578Y-88967417D01*
X105117785Y-88908669D01*
X105129816Y-88850059D01*
X105130715Y-88840888D01*
X105157247Y-88549344D01*
X105156829Y-88489528D01*
X105157247Y-88429712D01*
X105156348Y-88420541D01*
X105125748Y-88129395D01*
X105113710Y-88070753D01*
X105102510Y-88012037D01*
X105099847Y-88003216D01*
X105013279Y-87723560D01*
X104990101Y-87668422D01*
X104967689Y-87612950D01*
X104963362Y-87604814D01*
X104824123Y-87347298D01*
X104790701Y-87297749D01*
X104757920Y-87247653D01*
X104752095Y-87240512D01*
X104565490Y-87014945D01*
X104523054Y-86972804D01*
X104481191Y-86930055D01*
X104474091Y-86924181D01*
X104247227Y-86739155D01*
X104197408Y-86706055D01*
X104148045Y-86672256D01*
X104139939Y-86667873D01*
X103881458Y-86530436D01*
X103826164Y-86507645D01*
X103771171Y-86484075D01*
X103762368Y-86481350D01*
X103660000Y-86450443D01*
X103660000Y-69605000D01*
X105031928Y-69605000D01*
X105044188Y-69729482D01*
X105080498Y-69849180D01*
X105139463Y-69959494D01*
X105218815Y-70056185D01*
X105315506Y-70135537D01*
X105425820Y-70194502D01*
X105545518Y-70230812D01*
X105670000Y-70243072D01*
X106384250Y-70240000D01*
X106543000Y-70081250D01*
X106543000Y-69332000D01*
X105193750Y-69332000D01*
X105035000Y-69490750D01*
X105031928Y-69605000D01*
X103660000Y-69605000D01*
X103660000Y-52295000D01*
X105031928Y-52295000D01*
X105035000Y-52409250D01*
X105193750Y-52568000D01*
X106543000Y-52568000D01*
X106543000Y-51818750D01*
X106797000Y-51818750D01*
X106797000Y-52568000D01*
X108146250Y-52568000D01*
X108305000Y-52409250D01*
X108308072Y-52295000D01*
X108295812Y-52170518D01*
X108259502Y-52050820D01*
X108200537Y-51940506D01*
X108121185Y-51843815D01*
X108024494Y-51764463D01*
X107914180Y-51705498D01*
X107794482Y-51669188D01*
X107670000Y-51656928D01*
X106955750Y-51660000D01*
X106797000Y-51818750D01*
X106543000Y-51818750D01*
X106384250Y-51660000D01*
X105670000Y-51656928D01*
X105545518Y-51669188D01*
X105425820Y-51705498D01*
X105315506Y-51764463D01*
X105218815Y-51843815D01*
X105139463Y-51940506D01*
X105080498Y-52050820D01*
X105044188Y-52170518D01*
X105031928Y-52295000D01*
X103660000Y-52295000D01*
X103660000Y-50555000D01*
X105011928Y-50555000D01*
X105024188Y-50679482D01*
X105060498Y-50799180D01*
X105119463Y-50909494D01*
X105198815Y-51006185D01*
X105295506Y-51085537D01*
X105405820Y-51144502D01*
X105525518Y-51180812D01*
X105650000Y-51193072D01*
X106364250Y-51190000D01*
X106523000Y-51031250D01*
X106523000Y-50282000D01*
X106777000Y-50282000D01*
X106777000Y-51031250D01*
X106935750Y-51190000D01*
X107650000Y-51193072D01*
X107774482Y-51180812D01*
X107894180Y-51144502D01*
X108004494Y-51085537D01*
X108101185Y-51006185D01*
X108180537Y-50909494D01*
X108239502Y-50799180D01*
X108275812Y-50679482D01*
X108288072Y-50555000D01*
X108285000Y-50440750D01*
X108126250Y-50282000D01*
X106777000Y-50282000D01*
X106523000Y-50282000D01*
X105173750Y-50282000D01*
X105015000Y-50440750D01*
X105011928Y-50555000D01*
X103660000Y-50555000D01*
X103660000Y-49285000D01*
X105011928Y-49285000D01*
X105024188Y-49409482D01*
X105057713Y-49520000D01*
X105024188Y-49630518D01*
X105011928Y-49755000D01*
X105015000Y-49869250D01*
X105173750Y-50028000D01*
X106523000Y-50028000D01*
X106523000Y-49012000D01*
X106777000Y-49012000D01*
X106777000Y-50028000D01*
X108126250Y-50028000D01*
X108285000Y-49869250D01*
X108288072Y-49755000D01*
X108275812Y-49630518D01*
X108242287Y-49520000D01*
X108275812Y-49409482D01*
X108288072Y-49285000D01*
X122511928Y-49285000D01*
X122524188Y-49409482D01*
X122557713Y-49520000D01*
X122524188Y-49630518D01*
X122511928Y-49755000D01*
X122515000Y-49869250D01*
X122673750Y-50028000D01*
X124023000Y-50028000D01*
X124023000Y-49012000D01*
X124277000Y-49012000D01*
X124277000Y-50028000D01*
X125626250Y-50028000D01*
X125785000Y-49869250D01*
X125788072Y-49755000D01*
X125775812Y-49630518D01*
X125742287Y-49520000D01*
X125775812Y-49409482D01*
X125788072Y-49285000D01*
X125785000Y-49170750D01*
X125626250Y-49012000D01*
X124277000Y-49012000D01*
X124023000Y-49012000D01*
X122673750Y-49012000D01*
X122515000Y-49170750D01*
X122511928Y-49285000D01*
X108288072Y-49285000D01*
X108285000Y-49170750D01*
X108126250Y-49012000D01*
X106777000Y-49012000D01*
X106523000Y-49012000D01*
X105173750Y-49012000D01*
X105015000Y-49170750D01*
X105011928Y-49285000D01*
X103660000Y-49285000D01*
X103660000Y-48627000D01*
X105042750Y-48627000D01*
X105173750Y-48758000D01*
X105173750Y-48758000D01*
G37*
X105173750Y-48758000D02*
X106523000Y-48758000D01*
X106523000Y-48738000D01*
X106777000Y-48738000D01*
X106777000Y-48758000D01*
X108126250Y-48758000D01*
X108257250Y-48627000D01*
X122542750Y-48627000D01*
X122673750Y-48758000D01*
X124023000Y-48758000D01*
X124023000Y-48738000D01*
X124277000Y-48738000D01*
X124277000Y-48758000D01*
X125626250Y-48758000D01*
X125757250Y-48627000D01*
X132340000Y-48627000D01*
X132340001Y-86450801D01*
X132209523Y-86492191D01*
X132154588Y-86515737D01*
X132099235Y-86538551D01*
X132091129Y-86542935D01*
X131834592Y-86683968D01*
X131785247Y-86717755D01*
X131735409Y-86750867D01*
X131728309Y-86756741D01*
X131504051Y-86944916D01*
X131462207Y-86987646D01*
X131419751Y-87029806D01*
X131413927Y-87036947D01*
X131230491Y-87265097D01*
X131197744Y-87315139D01*
X131164286Y-87364742D01*
X131159960Y-87372879D01*
X131024330Y-87632313D01*
X131001918Y-87687785D01*
X130978740Y-87742923D01*
X130976077Y-87751745D01*
X130893422Y-88032583D01*
X130882224Y-88091284D01*
X130870184Y-88149940D01*
X130869285Y-88159112D01*
X130842753Y-88450656D01*
X130843171Y-88510472D01*
X130842753Y-88570288D01*
X130843652Y-88579460D01*
X130874252Y-88870605D01*
X130886283Y-88929217D01*
X130897489Y-88987963D01*
X130900153Y-88996784D01*
X130986721Y-89276440D01*
X131009899Y-89331578D01*
X131032311Y-89387050D01*
X131036638Y-89395186D01*
X131175877Y-89652702D01*
X131209304Y-89702259D01*
X131242080Y-89752347D01*
X131247905Y-89759488D01*
X131434510Y-89985056D01*
X131476965Y-90027215D01*
X131518809Y-90069945D01*
X131525909Y-90075819D01*
X131752773Y-90260845D01*
X131802566Y-90293927D01*
X131851955Y-90327745D01*
X131860061Y-90332127D01*
X132118542Y-90469564D01*
X132173836Y-90492355D01*
X132228829Y-90515925D01*
X132237632Y-90518650D01*
X132340000Y-90549557D01*
X132340001Y-93646778D01*
X129660588Y-95433054D01*
X129631550Y-95448575D01*
X129581287Y-95489825D01*
X129531543Y-95530562D01*
X129531323Y-95530830D01*
X129531052Y-95531052D01*
X129489702Y-95581438D01*
X129448962Y-95630974D01*
X129448799Y-95631278D01*
X129448575Y-95631551D01*
X129417976Y-95688798D01*
X129387556Y-95745566D01*
X129387454Y-95745901D01*
X129387290Y-95746208D01*
X129368356Y-95808623D01*
X129349687Y-95869938D01*
X129349653Y-95870278D01*
X129349550Y-95870618D01*
X129343124Y-95935859D01*
X129336808Y-95999307D01*
X129340000Y-96032066D01*
X129340001Y-151663912D01*
X118721338Y-159386575D01*
X118314733Y-159479214D01*
X117827192Y-159493131D01*
X117323567Y-159408264D01*
X117297780Y-159400478D01*
X106660000Y-151663913D01*
X106660000Y-96032065D01*
X106663192Y-95999306D01*
X106656876Y-95935858D01*
X106650450Y-95870617D01*
X106650347Y-95870277D01*
X106650313Y-95869937D01*
X106631644Y-95808622D01*
X106612710Y-95746207D01*
X106612546Y-95745900D01*
X106612444Y-95745565D01*
X106582024Y-95688797D01*
X106551425Y-95631550D01*
X106551201Y-95631277D01*
X106551038Y-95630973D01*
X106510105Y-95581201D01*
X106468948Y-95531052D01*
X106468680Y-95530832D01*
X106468457Y-95530561D01*
X106417903Y-95489161D01*
X106368449Y-95448575D01*
X106339423Y-95433061D01*
X103660000Y-93646779D01*
X103660000Y-90550000D01*
X104961928Y-90550000D01*
X104961928Y-91450000D01*
X104974188Y-91574482D01*
X105010498Y-91694180D01*
X105069463Y-91804494D01*
X105148815Y-91901185D01*
X105245506Y-91980537D01*
X105355820Y-92039502D01*
X105475518Y-92075812D01*
X105600000Y-92088072D01*
X106295674Y-92088072D01*
X106315026Y-92124276D01*
X106345927Y-92161928D01*
X106409999Y-92240001D01*
X106439002Y-92263804D01*
X108041999Y-93866802D01*
X108024188Y-93925518D01*
X108011928Y-94050000D01*
X108011928Y-94950000D01*
X108024188Y-95074482D01*
X108060498Y-95194180D01*
X108119463Y-95304494D01*
X108198815Y-95401185D01*
X108295506Y-95480537D01*
X108405820Y-95539502D01*
X108525518Y-95575812D01*
X108650000Y-95588072D01*
X109450000Y-95588072D01*
X109574482Y-95575812D01*
X109694180Y-95539502D01*
X109804494Y-95480537D01*
X109901185Y-95401185D01*
X109980537Y-95304494D01*
X110000000Y-95268082D01*
X110019463Y-95304494D01*
X110098815Y-95401185D01*
X110195506Y-95480537D01*
X110305820Y-95539502D01*
X110425518Y-95575812D01*
X110550000Y-95588072D01*
X110664250Y-95585000D01*
X110823000Y-95426250D01*
X110823000Y-94627000D01*
X111077000Y-94627000D01*
X111077000Y-95426250D01*
X111235750Y-95585000D01*
X111350000Y-95588072D01*
X111474482Y-95575812D01*
X111594180Y-95539502D01*
X111704494Y-95480537D01*
X111801185Y-95401185D01*
X111880537Y-95304494D01*
X111939502Y-95194180D01*
X111975812Y-95074482D01*
X111988072Y-94950000D01*
X111985000Y-94785750D01*
X111826250Y-94627000D01*
X111077000Y-94627000D01*
X110823000Y-94627000D01*
X110803000Y-94627000D01*
X110803000Y-94373000D01*
X110823000Y-94373000D01*
X110823000Y-93573750D01*
X111077000Y-93573750D01*
X111077000Y-94373000D01*
X111826250Y-94373000D01*
X111985000Y-94214250D01*
X111985266Y-94200000D01*
X115936928Y-94200000D01*
X115949188Y-94324482D01*
X115985498Y-94444180D01*
X116044463Y-94554494D01*
X116123815Y-94651185D01*
X116220506Y-94730537D01*
X116330820Y-94789502D01*
X116450518Y-94825812D01*
X116575000Y-94838072D01*
X116776750Y-94835000D01*
X116935500Y-94676250D01*
X116935500Y-93627000D01*
X116098750Y-93627000D01*
X115940000Y-93785750D01*
X115936928Y-94200000D01*
X111985266Y-94200000D01*
X111988072Y-94050000D01*
X111975812Y-93925518D01*
X111939502Y-93805820D01*
X111880537Y-93695506D01*
X111801185Y-93598815D01*
X111704494Y-93519463D01*
X111594180Y-93460498D01*
X111474482Y-93424188D01*
X111350000Y-93411928D01*
X111235750Y-93415000D01*
X111077000Y-93573750D01*
X110823000Y-93573750D01*
X110738393Y-93489143D01*
X110754494Y-93480537D01*
X110851185Y-93401185D01*
X110930537Y-93304494D01*
X110989502Y-93194180D01*
X111025812Y-93074482D01*
X111038072Y-92950000D01*
X111038072Y-92050000D01*
X111025812Y-91925518D01*
X110989502Y-91805820D01*
X110983160Y-91793956D01*
X111053836Y-91851958D01*
X111206291Y-91933447D01*
X111371715Y-91983628D01*
X111543750Y-92000572D01*
X112050771Y-92000572D01*
X113036190Y-92985992D01*
X113059989Y-93014991D01*
X113175714Y-93109964D01*
X113307743Y-93180536D01*
X113451004Y-93223993D01*
X113562657Y-93234990D01*
X113562665Y-93234990D01*
X113599990Y-93238666D01*
X113637315Y-93234990D01*
X115960740Y-93234990D01*
X116098750Y-93373000D01*
X116935500Y-93373000D01*
X116935500Y-93353000D01*
X117189500Y-93353000D01*
X117189500Y-93373000D01*
X117209500Y-93373000D01*
X117209500Y-93627000D01*
X117189500Y-93627000D01*
X117189500Y-94676250D01*
X117348250Y-94835000D01*
X117550000Y-94838072D01*
X117674482Y-94825812D01*
X117794180Y-94789502D01*
X117904494Y-94730537D01*
X118001185Y-94651185D01*
X118064992Y-94573436D01*
X118070208Y-94579792D01*
X118203836Y-94689458D01*
X118356291Y-94770947D01*
X118521715Y-94821128D01*
X118693750Y-94838072D01*
X119181250Y-94838072D01*
X119199020Y-94836322D01*
X119840001Y-95477303D01*
X119840000Y-96185198D01*
X119621792Y-96403406D01*
X119104652Y-96246534D01*
X118000000Y-96137735D01*
X116895347Y-96246534D01*
X115833145Y-96568749D01*
X114854214Y-97091999D01*
X113996174Y-97796175D01*
X113291999Y-98654215D01*
X112768749Y-99633146D01*
X112446534Y-100695348D01*
X112365000Y-101523175D01*
X112365001Y-148871478D01*
X112446535Y-149699305D01*
X112768750Y-150761507D01*
X113292000Y-151740438D01*
X113996175Y-152598478D01*
X114854215Y-153302653D01*
X115833146Y-153825903D01*
X116895348Y-154148118D01*
X118000000Y-154256917D01*
X119104653Y-154148118D01*
X120166855Y-153825903D01*
X121145786Y-153302653D01*
X122003826Y-152598478D01*
X122708001Y-151740438D01*
X123231251Y-150761507D01*
X123553466Y-149699305D01*
X123635000Y-148871478D01*
X123635000Y-101523174D01*
X123553466Y-100695347D01*
X123231251Y-99633145D01*
X122708001Y-98654214D01*
X122003825Y-97796174D01*
X121145785Y-97091999D01*
X121104741Y-97070061D01*
X121111004Y-97063798D01*
X121140001Y-97040001D01*
X121234974Y-96924276D01*
X121305546Y-96792247D01*
X121349003Y-96648986D01*
X121360000Y-96537333D01*
X121360000Y-96537324D01*
X121363676Y-96500001D01*
X121360000Y-96462678D01*
X121360000Y-95199822D01*
X121363676Y-95162499D01*
X121360000Y-95125176D01*
X121360000Y-95125167D01*
X121349003Y-95013514D01*
X121305546Y-94870253D01*
X121286703Y-94835000D01*
X121234974Y-94738223D01*
X121163799Y-94651497D01*
X121140001Y-94622499D01*
X121111003Y-94598701D01*
X120772302Y-94260000D01*
X124754868Y-94260000D01*
X124876480Y-94381612D01*
X125062376Y-94505824D01*
X125268933Y-94591383D01*
X125488212Y-94635000D01*
X125711788Y-94635000D01*
X125931067Y-94591383D01*
X126137624Y-94505824D01*
X126323520Y-94381612D01*
X126481612Y-94223520D01*
X126605824Y-94037624D01*
X126691383Y-93831067D01*
X126735000Y-93611788D01*
X126735000Y-93388212D01*
X126691383Y-93168933D01*
X126605824Y-92962376D01*
X126481612Y-92776480D01*
X126323520Y-92618388D01*
X126137624Y-92494176D01*
X125931067Y-92408617D01*
X125711788Y-92365000D01*
X125488212Y-92365000D01*
X125268933Y-92408617D01*
X125062376Y-92494176D01*
X124876480Y-92618388D01*
X124754868Y-92740000D01*
X120006173Y-92740000D01*
X119995947Y-92706291D01*
X119914458Y-92553836D01*
X119804792Y-92420208D01*
X119671164Y-92310542D01*
X119518709Y-92229053D01*
X119353285Y-92178872D01*
X119181250Y-92161928D01*
X118693750Y-92161928D01*
X118675979Y-92163678D01*
X118476294Y-91963992D01*
X118452491Y-91934989D01*
X118336766Y-91840016D01*
X118204737Y-91769444D01*
X118061476Y-91725987D01*
X117949823Y-91714990D01*
X117949812Y-91714990D01*
X117912490Y-91711314D01*
X117875168Y-91714990D01*
X113914792Y-91714990D01*
X113336322Y-91136521D01*
X113338072Y-91118750D01*
X113338072Y-90631250D01*
X113321128Y-90459215D01*
X113270947Y-90293791D01*
X113189458Y-90141336D01*
X113079792Y-90007708D01*
X112994244Y-89937500D01*
X113079792Y-89867292D01*
X113189458Y-89733664D01*
X113270947Y-89581209D01*
X113321128Y-89415785D01*
X113338072Y-89243750D01*
X113338072Y-88756250D01*
X113321128Y-88584215D01*
X113270947Y-88418791D01*
X113189458Y-88266336D01*
X113079792Y-88132708D01*
X112946164Y-88023042D01*
X112793709Y-87941553D01*
X112628285Y-87891372D01*
X112456250Y-87874428D01*
X111543750Y-87874428D01*
X111371715Y-87891372D01*
X111206291Y-87941553D01*
X111053836Y-88023042D01*
X110920208Y-88132708D01*
X110810542Y-88266336D01*
X110729053Y-88418791D01*
X110678872Y-88584215D01*
X110661928Y-88756250D01*
X110661928Y-89243750D01*
X110663678Y-89261520D01*
X109488998Y-90436201D01*
X109460000Y-90459999D01*
X109436202Y-90488997D01*
X109436201Y-90488998D01*
X109365026Y-90575724D01*
X109294454Y-90707754D01*
X109268825Y-90792246D01*
X109250998Y-90851014D01*
X109246364Y-90898061D01*
X109236324Y-91000000D01*
X109240001Y-91037332D01*
X109240001Y-91523981D01*
X109148815Y-91598815D01*
X109069463Y-91695506D01*
X109010498Y-91805820D01*
X108974188Y-91925518D01*
X108961928Y-92050000D01*
X108961928Y-92637126D01*
X108402754Y-92077952D01*
X108424482Y-92075812D01*
X108544180Y-92039502D01*
X108654494Y-91980537D01*
X108751185Y-91901185D01*
X108830537Y-91804494D01*
X108889502Y-91694180D01*
X108925812Y-91574482D01*
X108938072Y-91450000D01*
X108935000Y-91285750D01*
X108776250Y-91127000D01*
X108027000Y-91127000D01*
X108027000Y-91147000D01*
X107773000Y-91147000D01*
X107773000Y-91127000D01*
X107753000Y-91127000D01*
X107753000Y-90873000D01*
X107773000Y-90873000D01*
X107773000Y-90073750D01*
X108027000Y-90073750D01*
X108027000Y-90873000D01*
X108776250Y-90873000D01*
X108935000Y-90714250D01*
X108938072Y-90550000D01*
X108925812Y-90425518D01*
X108889502Y-90305820D01*
X108830537Y-90195506D01*
X108751185Y-90098815D01*
X108654494Y-90019463D01*
X108544180Y-89960498D01*
X108424482Y-89924188D01*
X108300000Y-89911928D01*
X108185750Y-89915000D01*
X108027000Y-90073750D01*
X107773000Y-90073750D01*
X107710000Y-90010750D01*
X107710000Y-89976018D01*
X107801185Y-89901185D01*
X107880537Y-89804494D01*
X107939502Y-89694180D01*
X107975812Y-89574482D01*
X107984059Y-89490742D01*
X110149230Y-87325572D01*
X110656250Y-87325572D01*
X110828285Y-87308628D01*
X110993709Y-87258447D01*
X111146164Y-87176958D01*
X111279792Y-87067292D01*
X111389458Y-86933664D01*
X111470947Y-86781209D01*
X111521128Y-86615785D01*
X111538072Y-86443750D01*
X111538072Y-85956250D01*
X111521128Y-85784215D01*
X111474302Y-85629849D01*
X111736008Y-85368143D01*
X111765011Y-85344341D01*
X111859984Y-85228616D01*
X111930556Y-85096587D01*
X111974013Y-84953326D01*
X111985010Y-84841673D01*
X111985010Y-84841672D01*
X111988687Y-84804340D01*
X111985010Y-84767007D01*
X111985010Y-82525933D01*
X111988687Y-82488600D01*
X111974013Y-82339614D01*
X111930556Y-82196353D01*
X111859984Y-82064324D01*
X111788809Y-81977597D01*
X111765011Y-81948599D01*
X111736013Y-81924801D01*
X111029999Y-81218788D01*
X111029999Y-80589249D01*
X111175750Y-80735000D01*
X111185000Y-80738072D01*
X111309482Y-80725812D01*
X111429180Y-80689502D01*
X111539494Y-80630537D01*
X111636185Y-80551185D01*
X111715537Y-80454494D01*
X111774502Y-80344180D01*
X111810812Y-80224482D01*
X111823072Y-80100000D01*
X111820000Y-79780750D01*
X111661250Y-79622000D01*
X111029999Y-79622000D01*
X111029999Y-79368000D01*
X111661250Y-79368000D01*
X111704251Y-79324999D01*
X111855198Y-79324999D01*
X111856928Y-79326729D01*
X111856928Y-80100000D01*
X111869188Y-80224482D01*
X111905498Y-80344180D01*
X111964463Y-80454494D01*
X112030000Y-80534352D01*
X112030001Y-84025670D01*
X112026324Y-84063002D01*
X112030001Y-84100335D01*
X112040577Y-84207708D01*
X112040998Y-84211987D01*
X112084454Y-84355248D01*
X112155026Y-84487278D01*
X112196664Y-84538013D01*
X112250000Y-84603003D01*
X112278998Y-84626801D01*
X113288204Y-85636009D01*
X113311998Y-85665002D01*
X113340991Y-85688796D01*
X113340995Y-85688800D01*
X113397015Y-85734774D01*
X113427723Y-85759975D01*
X113559752Y-85830547D01*
X113703013Y-85874004D01*
X113814666Y-85885001D01*
X113814675Y-85885001D01*
X113851998Y-85888677D01*
X113889321Y-85885001D01*
X114510679Y-85885001D01*
X114548001Y-85888677D01*
X114585323Y-85885001D01*
X114585334Y-85885001D01*
X114696987Y-85874004D01*
X114840248Y-85830547D01*
X114972277Y-85759975D01*
X115088002Y-85665002D01*
X115111805Y-85635999D01*
X115367947Y-85379857D01*
X115378872Y-85490785D01*
X115429053Y-85656209D01*
X115510542Y-85808664D01*
X115620208Y-85942292D01*
X115753836Y-86051958D01*
X115906291Y-86133447D01*
X116071715Y-86183628D01*
X116243750Y-86200572D01*
X117156250Y-86200572D01*
X117328285Y-86183628D01*
X117493709Y-86133447D01*
X117646164Y-86051958D01*
X117779792Y-85942292D01*
X117867845Y-85835000D01*
X119532155Y-85835000D01*
X119620208Y-85942292D01*
X119753836Y-86051958D01*
X119906291Y-86133447D01*
X120071715Y-86183628D01*
X120243750Y-86200572D01*
X121156250Y-86200572D01*
X121328285Y-86183628D01*
X121493709Y-86133447D01*
X121646164Y-86051958D01*
X121779792Y-85942292D01*
X121867845Y-85835000D01*
X122977544Y-85835000D01*
X122965000Y-85898061D01*
X122965000Y-85960198D01*
X121576756Y-87348443D01*
X121493709Y-87304053D01*
X121328285Y-87253872D01*
X121156250Y-87236928D01*
X120243750Y-87236928D01*
X120071715Y-87253872D01*
X119906291Y-87304053D01*
X119753836Y-87385542D01*
X119620208Y-87495208D01*
X119532155Y-87602500D01*
X117816552Y-87602500D01*
X117779792Y-87557708D01*
X117646164Y-87448042D01*
X117493709Y-87366553D01*
X117328285Y-87316372D01*
X117156250Y-87299428D01*
X116243750Y-87299428D01*
X116071715Y-87316372D01*
X115906291Y-87366553D01*
X115753836Y-87448042D01*
X115620208Y-87557708D01*
X115510542Y-87691336D01*
X115429053Y-87843791D01*
X115378872Y-88009215D01*
X115361928Y-88181250D01*
X115361928Y-88668750D01*
X115378872Y-88840785D01*
X115429053Y-89006209D01*
X115510542Y-89158664D01*
X115620208Y-89292292D01*
X115705756Y-89362500D01*
X115620208Y-89432708D01*
X115532155Y-89540000D01*
X114986940Y-89540000D01*
X114901898Y-89504774D01*
X114701939Y-89465000D01*
X114498061Y-89465000D01*
X114298102Y-89504774D01*
X114109744Y-89582795D01*
X113940226Y-89696063D01*
X113796063Y-89840226D01*
X113682795Y-90009744D01*
X113604774Y-90198102D01*
X113565000Y-90398061D01*
X113565000Y-90601939D01*
X113604774Y-90801898D01*
X113682795Y-90990256D01*
X113796063Y-91159774D01*
X113940226Y-91303937D01*
X114109744Y-91417205D01*
X114298102Y-91495226D01*
X114498061Y-91535000D01*
X114701939Y-91535000D01*
X114901898Y-91495226D01*
X115090256Y-91417205D01*
X115259774Y-91303937D01*
X115403937Y-91159774D01*
X115470604Y-91060000D01*
X115532155Y-91060000D01*
X115620208Y-91167292D01*
X115753836Y-91276958D01*
X115906291Y-91358447D01*
X116071715Y-91408628D01*
X116243750Y-91425572D01*
X117156250Y-91425572D01*
X117328285Y-91408628D01*
X117493709Y-91358447D01*
X117646164Y-91276958D01*
X117779792Y-91167292D01*
X117889458Y-91033664D01*
X117908788Y-90997500D01*
X119532155Y-90997500D01*
X119620208Y-91104792D01*
X119753836Y-91214458D01*
X119906291Y-91295947D01*
X120071715Y-91346128D01*
X120243750Y-91363072D01*
X121156250Y-91363072D01*
X121328285Y-91346128D01*
X121493709Y-91295947D01*
X121646164Y-91214458D01*
X121779792Y-91104792D01*
X121889458Y-90971164D01*
X121970947Y-90818709D01*
X122021128Y-90653285D01*
X122038072Y-90481250D01*
X122038072Y-89993750D01*
X122021128Y-89821715D01*
X121970947Y-89656291D01*
X121889458Y-89503836D01*
X121779792Y-89370208D01*
X121694244Y-89300000D01*
X121779792Y-89229792D01*
X121889458Y-89096164D01*
X121899599Y-89077191D01*
X121929747Y-89068046D01*
X122061776Y-88997474D01*
X122177501Y-88902501D01*
X122201304Y-88873497D01*
X124039802Y-87035000D01*
X124101939Y-87035000D01*
X124301898Y-86995226D01*
X124490256Y-86917205D01*
X124659774Y-86803937D01*
X124803937Y-86659774D01*
X124917205Y-86490256D01*
X124995226Y-86301898D01*
X125035000Y-86101939D01*
X125035000Y-85898061D01*
X125022456Y-85835000D01*
X125244499Y-85835000D01*
X125298815Y-85901185D01*
X125395506Y-85980537D01*
X125505820Y-86039502D01*
X125625518Y-86075812D01*
X125750000Y-86088072D01*
X127450000Y-86088072D01*
X127574482Y-86075812D01*
X127694180Y-86039502D01*
X127804494Y-85980537D01*
X127901185Y-85901185D01*
X127980537Y-85804494D01*
X128039502Y-85694180D01*
X128075812Y-85574482D01*
X128088072Y-85450000D01*
X128088072Y-84150000D01*
X128075812Y-84025518D01*
X128039502Y-83905820D01*
X127980537Y-83795506D01*
X127901185Y-83698815D01*
X127804494Y-83619463D01*
X127694180Y-83560498D01*
X127574482Y-83524188D01*
X127450000Y-83511928D01*
X125750000Y-83511928D01*
X125625518Y-83524188D01*
X125505820Y-83560498D01*
X125395506Y-83619463D01*
X125298815Y-83698815D01*
X125219463Y-83795506D01*
X125160498Y-83905820D01*
X125124188Y-84025518D01*
X125111928Y-84150000D01*
X125111928Y-84315000D01*
X121867845Y-84315000D01*
X121779792Y-84207708D01*
X121773436Y-84202492D01*
X121851185Y-84138685D01*
X121930537Y-84041994D01*
X121989502Y-83931680D01*
X122025812Y-83811982D01*
X122038072Y-83687500D01*
X122035000Y-83485750D01*
X121876250Y-83327000D01*
X120827000Y-83327000D01*
X120827000Y-83347000D01*
X120573000Y-83347000D01*
X120573000Y-83327000D01*
X119523750Y-83327000D01*
X119365000Y-83485750D01*
X119361928Y-83687500D01*
X119374188Y-83811982D01*
X119410498Y-83931680D01*
X119469463Y-84041994D01*
X119548815Y-84138685D01*
X119626564Y-84202492D01*
X119620208Y-84207708D01*
X119532155Y-84315000D01*
X117867845Y-84315000D01*
X117779792Y-84207708D01*
X117773436Y-84202492D01*
X117851185Y-84138685D01*
X117930537Y-84041994D01*
X117989502Y-83931680D01*
X118025812Y-83811982D01*
X118038072Y-83687500D01*
X118035000Y-83485750D01*
X117876250Y-83327000D01*
X116827000Y-83327000D01*
X116827000Y-83347000D01*
X116573000Y-83347000D01*
X116573000Y-83327000D01*
X116553000Y-83327000D01*
X116553000Y-83073000D01*
X116573000Y-83073000D01*
X116573000Y-82236250D01*
X116827000Y-82236250D01*
X116827000Y-83073000D01*
X117876250Y-83073000D01*
X118035000Y-82914250D01*
X118038072Y-82712500D01*
X118025812Y-82588018D01*
X117989502Y-82468320D01*
X117930537Y-82358006D01*
X117851185Y-82261315D01*
X117754494Y-82181963D01*
X117644180Y-82122998D01*
X117524482Y-82086688D01*
X117400000Y-82074428D01*
X116985750Y-82077500D01*
X116827000Y-82236250D01*
X116573000Y-82236250D01*
X116434990Y-82098240D01*
X116434990Y-80188072D01*
X116450000Y-80188072D01*
X116474450Y-80185664D01*
X116499009Y-80185664D01*
X116623490Y-80173404D01*
X116719623Y-80154282D01*
X116839319Y-80117973D01*
X116929875Y-80080464D01*
X117040192Y-80021498D01*
X117121691Y-79967042D01*
X117218382Y-79887690D01*
X117287690Y-79818382D01*
X117294569Y-79810000D01*
X118784531Y-79810000D01*
X118810542Y-79858664D01*
X118920208Y-79992292D01*
X118926564Y-79997508D01*
X118848815Y-80061315D01*
X118769463Y-80158006D01*
X118710498Y-80268320D01*
X118674188Y-80388018D01*
X118661928Y-80512500D01*
X118665000Y-80714250D01*
X118823750Y-80873000D01*
X119873000Y-80873000D01*
X119873000Y-80853000D01*
X120127000Y-80853000D01*
X120127000Y-80873000D01*
X120147000Y-80873000D01*
X120147000Y-81127000D01*
X120127000Y-81127000D01*
X120127000Y-81147000D01*
X119873000Y-81147000D01*
X119873000Y-81127000D01*
X118823750Y-81127000D01*
X118665000Y-81285750D01*
X118661928Y-81487500D01*
X118674188Y-81611982D01*
X118710498Y-81731680D01*
X118769463Y-81841994D01*
X118848815Y-81938685D01*
X118945506Y-82018037D01*
X119055820Y-82077002D01*
X119175518Y-82113312D01*
X119300000Y-82125572D01*
X119714250Y-82122500D01*
X119872998Y-81963752D01*
X119872998Y-82087452D01*
X119755820Y-82122998D01*
X119645506Y-82181963D01*
X119548815Y-82261315D01*
X119469463Y-82358006D01*
X119410498Y-82468320D01*
X119374188Y-82588018D01*
X119361928Y-82712500D01*
X119365000Y-82914250D01*
X119523750Y-83073000D01*
X120573000Y-83073000D01*
X120573000Y-83053000D01*
X120827000Y-83053000D01*
X120827000Y-83073000D01*
X121876250Y-83073000D01*
X122035000Y-82914250D01*
X122038072Y-82712500D01*
X122025812Y-82588018D01*
X121989502Y-82468320D01*
X121930537Y-82358006D01*
X121851185Y-82261315D01*
X121754494Y-82181963D01*
X121644180Y-82122998D01*
X121524482Y-82086688D01*
X121400000Y-82074428D01*
X120985750Y-82077500D01*
X120827002Y-82236248D01*
X120827002Y-82112548D01*
X120944180Y-82077002D01*
X121054494Y-82018037D01*
X121151185Y-81938685D01*
X121230537Y-81841994D01*
X121289502Y-81731680D01*
X121325812Y-81611982D01*
X121338072Y-81487500D01*
X121335000Y-81285750D01*
X121176252Y-81127002D01*
X121335000Y-81127002D01*
X121335000Y-81035000D01*
X121401939Y-81035000D01*
X121601898Y-80995226D01*
X121790256Y-80917205D01*
X121959774Y-80803937D01*
X122103937Y-80659774D01*
X122217205Y-80490256D01*
X122295226Y-80301898D01*
X122335000Y-80101939D01*
X122335000Y-79898061D01*
X122295226Y-79698102D01*
X122217205Y-79509744D01*
X122103937Y-79340226D01*
X121959774Y-79196063D01*
X121790256Y-79082795D01*
X121601898Y-79004774D01*
X121401939Y-78965000D01*
X121338072Y-78965000D01*
X121338072Y-78881250D01*
X121321128Y-78709215D01*
X121270947Y-78543791D01*
X121189458Y-78391336D01*
X121079792Y-78257708D01*
X120946164Y-78148042D01*
X120793709Y-78066553D01*
X120628285Y-78016372D01*
X120456250Y-77999428D01*
X119543750Y-77999428D01*
X119371715Y-78016372D01*
X119206291Y-78066553D01*
X119053836Y-78148042D01*
X118920208Y-78257708D01*
X118893707Y-78290000D01*
X117584132Y-78290000D01*
X117588072Y-78250000D01*
X117588072Y-77750000D01*
X117585664Y-77725550D01*
X117585664Y-77700991D01*
X117573404Y-77576510D01*
X117554282Y-77480377D01*
X117517973Y-77360681D01*
X117480464Y-77270125D01*
X117421498Y-77159808D01*
X117367042Y-77078309D01*
X117287690Y-76981618D01*
X117218382Y-76912310D01*
X117121691Y-76832958D01*
X117040192Y-76778502D01*
X116929875Y-76719536D01*
X116839319Y-76682027D01*
X116719623Y-76645718D01*
X116623490Y-76626596D01*
X116499009Y-76614336D01*
X116474450Y-76614336D01*
X116450000Y-76611928D01*
X116136729Y-76611928D01*
X115998803Y-76474002D01*
X115975001Y-76444999D01*
X115859276Y-76350026D01*
X115727247Y-76279454D01*
X115583986Y-76235997D01*
X115472333Y-76225000D01*
X115472322Y-76225000D01*
X115435000Y-76221324D01*
X115397678Y-76225000D01*
X112751554Y-76225000D01*
X112724502Y-76135820D01*
X112665537Y-76025506D01*
X112586185Y-75928815D01*
X112531150Y-75883649D01*
X113904801Y-74510000D01*
X114124725Y-74510000D01*
X114115000Y-74591250D01*
X114180672Y-74656922D01*
X114219463Y-74729494D01*
X114235467Y-74748994D01*
X114229770Y-74755546D01*
X114178469Y-74845281D01*
X114115000Y-74908750D01*
X114125922Y-75000000D01*
X114115000Y-75091250D01*
X114178469Y-75154719D01*
X114229770Y-75244454D01*
X114252804Y-75270946D01*
X114115000Y-75408750D01*
X114127986Y-75517248D01*
X114167689Y-75635863D01*
X114229770Y-75744454D01*
X114311843Y-75838847D01*
X114410754Y-75915415D01*
X114522702Y-75971214D01*
X114643385Y-76004102D01*
X114739250Y-76010000D01*
X114898000Y-75851250D01*
X114898000Y-75125000D01*
X115063153Y-75125000D01*
X115061928Y-75350000D01*
X115074188Y-75474482D01*
X115110498Y-75594180D01*
X115152000Y-75671824D01*
X115152000Y-75851250D01*
X115310750Y-76010000D01*
X115406615Y-76004102D01*
X115527298Y-75971214D01*
X115539807Y-75964979D01*
X115575518Y-75975812D01*
X115700000Y-75988072D01*
X115914250Y-75985000D01*
X116073000Y-75826250D01*
X116073000Y-74627000D01*
X116053000Y-74627000D01*
X116053000Y-74373000D01*
X116073000Y-74373000D01*
X116073000Y-73173750D01*
X115914250Y-73015000D01*
X115700000Y-73011928D01*
X115575518Y-73024188D01*
X115541207Y-73034596D01*
X115424482Y-72999188D01*
X115300000Y-72986928D01*
X114750000Y-72986928D01*
X114718808Y-72990000D01*
X113779802Y-72990000D01*
X114006004Y-72763798D01*
X114035001Y-72740001D01*
X114129974Y-72624276D01*
X114167688Y-72553719D01*
X114240518Y-72575812D01*
X114365000Y-72588072D01*
X115165000Y-72588072D01*
X115289482Y-72575812D01*
X115400000Y-72542287D01*
X115510518Y-72575812D01*
X115635000Y-72588072D01*
X116435000Y-72588072D01*
X116559482Y-72575812D01*
X116670000Y-72542287D01*
X116780518Y-72575812D01*
X116905000Y-72588072D01*
X117705000Y-72588072D01*
X117829482Y-72575812D01*
X117940000Y-72542287D01*
X118050518Y-72575812D01*
X118175000Y-72588072D01*
X118975000Y-72588072D01*
X119005090Y-72585108D01*
X118600199Y-72990000D01*
X117681192Y-72990000D01*
X117650000Y-72986928D01*
X117100000Y-72986928D01*
X116975518Y-72999188D01*
X116858793Y-73034596D01*
X116824482Y-73024188D01*
X116700000Y-73011928D01*
X116485750Y-73015000D01*
X116327000Y-73173750D01*
X116327000Y-74373000D01*
X116347000Y-74373000D01*
X116347000Y-74627000D01*
X116327000Y-74627000D01*
X116327000Y-75826250D01*
X116485750Y-75985000D01*
X116700000Y-75988072D01*
X116824482Y-75975812D01*
X116858793Y-75965404D01*
X116975518Y-76000812D01*
X117100000Y-76013072D01*
X117650000Y-76013072D01*
X117681192Y-76010000D01*
X118861928Y-76010000D01*
X118861928Y-76118750D01*
X118878872Y-76290785D01*
X118929053Y-76456209D01*
X119010542Y-76608664D01*
X119120208Y-76742292D01*
X119253836Y-76851958D01*
X119406291Y-76933447D01*
X119571715Y-76983628D01*
X119743750Y-77000572D01*
X120656250Y-77000572D01*
X120828285Y-76983628D01*
X120993709Y-76933447D01*
X121146164Y-76851958D01*
X121279792Y-76742292D01*
X121315388Y-76698919D01*
X121320208Y-76704792D01*
X121453836Y-76814458D01*
X121606291Y-76895947D01*
X121640001Y-76906173D01*
X121640001Y-77762668D01*
X121636324Y-77800000D01*
X121640001Y-77837333D01*
X121650998Y-77948986D01*
X121663135Y-77988996D01*
X121694454Y-78092246D01*
X121765026Y-78224276D01*
X121827990Y-78300997D01*
X121860000Y-78340001D01*
X121888997Y-78363799D01*
X122065000Y-78539802D01*
X122065000Y-78601939D01*
X122104774Y-78801898D01*
X122182795Y-78990256D01*
X122296063Y-79159774D01*
X122440226Y-79303937D01*
X122609744Y-79417205D01*
X122798102Y-79495226D01*
X122998061Y-79535000D01*
X123201939Y-79535000D01*
X123401898Y-79495226D01*
X123590256Y-79417205D01*
X123759774Y-79303937D01*
X123903937Y-79159774D01*
X124017205Y-78990256D01*
X124095226Y-78801898D01*
X124135000Y-78601939D01*
X124135000Y-78398061D01*
X124095226Y-78198102D01*
X124017205Y-78009744D01*
X123903937Y-77840226D01*
X123759774Y-77696063D01*
X123590256Y-77582795D01*
X123401898Y-77504774D01*
X123201939Y-77465000D01*
X123160000Y-77465000D01*
X123160000Y-76906173D01*
X123193709Y-76895947D01*
X123346164Y-76814458D01*
X123479792Y-76704792D01*
X123589458Y-76571164D01*
X123670947Y-76418709D01*
X123721128Y-76253285D01*
X123738072Y-76081250D01*
X123738072Y-75593750D01*
X123721128Y-75421715D01*
X123674302Y-75267349D01*
X123936008Y-75005643D01*
X123965011Y-74981841D01*
X124059984Y-74866116D01*
X124130556Y-74734087D01*
X124174013Y-74590826D01*
X124185010Y-74479173D01*
X124185010Y-74479172D01*
X124188687Y-74441840D01*
X124185010Y-74404507D01*
X124185010Y-73593571D01*
X124296063Y-73759774D01*
X124340001Y-73803712D01*
X124340000Y-77262677D01*
X124336324Y-77300000D01*
X124340000Y-77337322D01*
X124340000Y-77337332D01*
X124350997Y-77448985D01*
X124389681Y-77576510D01*
X124394454Y-77592246D01*
X124465026Y-77724276D01*
X124498448Y-77765000D01*
X124559999Y-77840001D01*
X124589003Y-77863804D01*
X125263678Y-78538480D01*
X125261928Y-78556250D01*
X125261928Y-79043750D01*
X125278872Y-79215785D01*
X125329053Y-79381209D01*
X125410542Y-79533664D01*
X125520208Y-79667292D01*
X125653836Y-79776958D01*
X125806291Y-79858447D01*
X125971715Y-79908628D01*
X126016473Y-79913036D01*
X125965026Y-79975724D01*
X125945674Y-80011928D01*
X125750000Y-80011928D01*
X125625518Y-80024188D01*
X125505820Y-80060498D01*
X125395506Y-80119463D01*
X125298815Y-80198815D01*
X125219463Y-80295506D01*
X125160498Y-80405820D01*
X125124188Y-80525518D01*
X125111928Y-80650000D01*
X125111928Y-81950000D01*
X125124188Y-82074482D01*
X125160498Y-82194180D01*
X125219463Y-82304494D01*
X125298815Y-82401185D01*
X125395506Y-82480537D01*
X125505820Y-82539502D01*
X125625518Y-82575812D01*
X125750000Y-82588072D01*
X127450000Y-82588072D01*
X127574482Y-82575812D01*
X127694180Y-82539502D01*
X127804494Y-82480537D01*
X127901185Y-82401185D01*
X127980537Y-82304494D01*
X128039502Y-82194180D01*
X128075812Y-82074482D01*
X128088072Y-81950000D01*
X128088072Y-80650000D01*
X128075812Y-80525518D01*
X128039502Y-80405820D01*
X127980537Y-80295506D01*
X127901185Y-80198815D01*
X127887345Y-80187457D01*
X128136014Y-79938788D01*
X128165011Y-79914991D01*
X128210142Y-79859999D01*
X128259984Y-79799267D01*
X128330556Y-79667237D01*
X128348539Y-79607954D01*
X128374013Y-79523976D01*
X128385010Y-79412323D01*
X128385010Y-79412314D01*
X128388686Y-79374991D01*
X128385010Y-79337668D01*
X128385010Y-77987332D01*
X128388686Y-77950009D01*
X128385010Y-77912686D01*
X128385010Y-77912677D01*
X128374013Y-77801024D01*
X128330556Y-77657763D01*
X128300222Y-77601013D01*
X128259984Y-77525733D01*
X128204193Y-77457753D01*
X128165011Y-77410009D01*
X128136007Y-77386206D01*
X127936322Y-77186521D01*
X127938072Y-77168750D01*
X127938072Y-76681250D01*
X127921128Y-76509215D01*
X127870947Y-76343791D01*
X127789458Y-76191336D01*
X127679792Y-76057708D01*
X127546164Y-75948042D01*
X127393709Y-75866553D01*
X127228285Y-75816372D01*
X127056250Y-75799428D01*
X126143750Y-75799428D01*
X125971715Y-75816372D01*
X125860000Y-75850260D01*
X125860000Y-73803711D01*
X125903937Y-73759774D01*
X126017205Y-73590256D01*
X126095226Y-73401898D01*
X126135000Y-73201939D01*
X126135000Y-72998061D01*
X126095226Y-72798102D01*
X126017205Y-72609744D01*
X125903937Y-72440226D01*
X125759774Y-72296063D01*
X125590256Y-72182795D01*
X125401898Y-72104774D01*
X125201939Y-72065000D01*
X124998061Y-72065000D01*
X124798102Y-72104774D01*
X124609744Y-72182795D01*
X124440226Y-72296063D01*
X124296063Y-72440226D01*
X124182795Y-72609744D01*
X124104774Y-72798102D01*
X124090071Y-72872021D01*
X124059984Y-72815734D01*
X123965011Y-72700009D01*
X123936013Y-72676211D01*
X123393000Y-72133199D01*
X123410812Y-72074482D01*
X123423072Y-71950000D01*
X123423072Y-70243072D01*
X125130000Y-70243072D01*
X125254482Y-70230812D01*
X125374180Y-70194502D01*
X125437750Y-70160523D01*
X125436324Y-70175000D01*
X125440000Y-70212322D01*
X125440000Y-70212332D01*
X125450997Y-70323985D01*
X125488920Y-70449003D01*
X125494454Y-70467246D01*
X125565026Y-70599276D01*
X125604871Y-70647826D01*
X125659999Y-70715001D01*
X125689003Y-70738804D01*
X127599428Y-72649230D01*
X127599428Y-73156250D01*
X127616372Y-73328285D01*
X127666553Y-73493709D01*
X127748042Y-73646164D01*
X127857708Y-73779792D01*
X127991336Y-73889458D01*
X128143791Y-73970947D01*
X128309215Y-74021128D01*
X128481250Y-74038072D01*
X128968750Y-74038072D01*
X129140785Y-74021128D01*
X129306209Y-73970947D01*
X129458664Y-73889458D01*
X129592292Y-73779792D01*
X129662500Y-73694244D01*
X129732708Y-73779792D01*
X129866336Y-73889458D01*
X130018791Y-73970947D01*
X130184215Y-74021128D01*
X130356250Y-74038072D01*
X130843750Y-74038072D01*
X131015785Y-74021128D01*
X131181209Y-73970947D01*
X131333664Y-73889458D01*
X131467292Y-73779792D01*
X131576958Y-73646164D01*
X131658447Y-73493709D01*
X131708628Y-73328285D01*
X131725572Y-73156250D01*
X131725572Y-72243750D01*
X131708628Y-72071715D01*
X131658447Y-71906291D01*
X131576958Y-71753836D01*
X131467292Y-71620208D01*
X131333664Y-71510542D01*
X131317500Y-71501902D01*
X131317500Y-70312845D01*
X131424792Y-70224792D01*
X131534458Y-70091164D01*
X131615947Y-69938709D01*
X131666128Y-69773285D01*
X131683072Y-69601250D01*
X131683072Y-68688750D01*
X131666128Y-68516715D01*
X131615947Y-68351291D01*
X131534458Y-68198836D01*
X131424792Y-68065208D01*
X131291164Y-67955542D01*
X131138709Y-67874053D01*
X130973285Y-67823872D01*
X130801250Y-67806928D01*
X130313750Y-67806928D01*
X130141715Y-67823872D01*
X129976291Y-67874053D01*
X129823836Y-67955542D01*
X129690208Y-68065208D01*
X129684992Y-68071564D01*
X129621185Y-67993815D01*
X129524494Y-67914463D01*
X129414180Y-67855498D01*
X129294482Y-67819188D01*
X129170000Y-67806928D01*
X128968250Y-67810000D01*
X128809500Y-67968750D01*
X128809500Y-69018000D01*
X128829500Y-69018000D01*
X128829500Y-69272000D01*
X128809500Y-69272000D01*
X128809500Y-70321250D01*
X128968250Y-70480000D01*
X129170000Y-70483072D01*
X129294482Y-70470812D01*
X129414180Y-70434502D01*
X129524494Y-70375537D01*
X129621185Y-70296185D01*
X129684992Y-70218436D01*
X129690208Y-70224792D01*
X129797500Y-70312845D01*
X129797501Y-71567034D01*
X129732708Y-71620208D01*
X129662500Y-71705756D01*
X129592292Y-71620208D01*
X129458664Y-71510542D01*
X129306209Y-71429053D01*
X129140785Y-71378872D01*
X128968750Y-71361928D01*
X128481250Y-71361928D01*
X128463480Y-71363678D01*
X126960000Y-69860199D01*
X126960000Y-69845000D01*
X127556928Y-69845000D01*
X127569188Y-69969482D01*
X127605498Y-70089180D01*
X127664463Y-70199494D01*
X127743815Y-70296185D01*
X127840506Y-70375537D01*
X127950820Y-70434502D01*
X128070518Y-70470812D01*
X128195000Y-70483072D01*
X128396750Y-70480000D01*
X128555500Y-70321250D01*
X128555500Y-69272000D01*
X127718750Y-69272000D01*
X127560000Y-69430750D01*
X127556928Y-69845000D01*
X126960000Y-69845000D01*
X126960000Y-68445000D01*
X127556928Y-68445000D01*
X127560000Y-68859250D01*
X127718750Y-69018000D01*
X128555500Y-69018000D01*
X128555500Y-67968750D01*
X128396750Y-67810000D01*
X128195000Y-67806928D01*
X128070518Y-67819188D01*
X127950820Y-67855498D01*
X127840506Y-67914463D01*
X127743815Y-67993815D01*
X127664463Y-68090506D01*
X127605498Y-68200820D01*
X127569188Y-68320518D01*
X127556928Y-68445000D01*
X126960000Y-68445000D01*
X126960000Y-63803711D01*
X127003937Y-63759774D01*
X127117205Y-63590256D01*
X127195226Y-63401898D01*
X127235000Y-63201939D01*
X127235000Y-62998061D01*
X127195226Y-62798102D01*
X127117205Y-62609744D01*
X127003937Y-62440226D01*
X126859774Y-62296063D01*
X126690256Y-62182795D01*
X126501898Y-62104774D01*
X126301939Y-62065000D01*
X126098061Y-62065000D01*
X125898102Y-62104774D01*
X125736997Y-62171506D01*
X125755812Y-62109482D01*
X125768072Y-61985000D01*
X125768072Y-61185000D01*
X125755812Y-61060518D01*
X125722287Y-60950000D01*
X125755812Y-60839482D01*
X125760193Y-60794995D01*
X128405000Y-63439802D01*
X128405000Y-63611788D01*
X128448617Y-63831067D01*
X128534176Y-64037624D01*
X128658388Y-64223520D01*
X128816480Y-64381612D01*
X129002376Y-64505824D01*
X129208933Y-64591383D01*
X129428212Y-64635000D01*
X129651788Y-64635000D01*
X129871067Y-64591383D01*
X130077624Y-64505824D01*
X130263520Y-64381612D01*
X130421612Y-64223520D01*
X130545824Y-64037624D01*
X130631383Y-63831067D01*
X130675000Y-63611788D01*
X130675000Y-63388212D01*
X130631383Y-63168933D01*
X130545824Y-62962376D01*
X130421612Y-62776480D01*
X130263520Y-62618388D01*
X130077624Y-62494176D01*
X129871067Y-62408617D01*
X129651788Y-62365000D01*
X129479802Y-62365000D01*
X129138377Y-62023575D01*
X129180826Y-62042458D01*
X129398905Y-62091731D01*
X129622406Y-62097511D01*
X129842740Y-62059577D01*
X130051440Y-61979387D01*
X130103450Y-61951588D01*
X130138561Y-61738166D01*
X129540000Y-61139605D01*
X129525858Y-61153748D01*
X129346253Y-60974143D01*
X129360395Y-60960000D01*
X129719605Y-60960000D01*
X130318166Y-61558561D01*
X130531588Y-61523450D01*
X130622458Y-61319174D01*
X130671731Y-61101095D01*
X130677511Y-60877594D01*
X130639577Y-60657260D01*
X130559387Y-60448560D01*
X130531588Y-60396550D01*
X130318166Y-60361439D01*
X129719605Y-60960000D01*
X129360395Y-60960000D01*
X128761834Y-60361439D01*
X128548412Y-60396550D01*
X128457542Y-60600826D01*
X128408269Y-60818905D01*
X128402489Y-61042406D01*
X128440423Y-61262740D01*
X128479661Y-61364859D01*
X127296636Y-60181834D01*
X128941439Y-60181834D01*
X129540000Y-60780395D01*
X130138561Y-60181834D01*
X130103450Y-59968412D01*
X129899174Y-59877542D01*
X129681095Y-59828269D01*
X129457594Y-59822489D01*
X129237260Y-59860423D01*
X129028560Y-59940613D01*
X128976550Y-59968412D01*
X128941439Y-60181834D01*
X127296636Y-60181834D01*
X125768072Y-58653271D01*
X125768072Y-58645000D01*
X125757238Y-58535000D01*
X128405639Y-58535000D01*
X128448617Y-58751067D01*
X128534176Y-58957624D01*
X128658388Y-59143520D01*
X128816480Y-59301612D01*
X129002376Y-59425824D01*
X129208933Y-59511383D01*
X129428212Y-59555000D01*
X129651788Y-59555000D01*
X129871067Y-59511383D01*
X130077624Y-59425824D01*
X130263520Y-59301612D01*
X130421612Y-59143520D01*
X130545824Y-58957624D01*
X130631383Y-58751067D01*
X130675000Y-58531788D01*
X130675000Y-58308212D01*
X130631383Y-58088933D01*
X130545824Y-57882376D01*
X130421612Y-57696480D01*
X130263520Y-57538388D01*
X130077624Y-57414176D01*
X129871067Y-57328617D01*
X129651788Y-57285000D01*
X129479801Y-57285000D01*
X129458803Y-57264002D01*
X129435001Y-57234999D01*
X129327126Y-57146468D01*
X129339276Y-57139974D01*
X129455001Y-57045001D01*
X129478803Y-57015998D01*
X129479801Y-57015000D01*
X129651788Y-57015000D01*
X129871067Y-56971383D01*
X130077624Y-56885824D01*
X130263520Y-56761612D01*
X130421612Y-56603520D01*
X130545824Y-56417624D01*
X130631383Y-56211067D01*
X130675000Y-55991788D01*
X130675000Y-55768212D01*
X130631383Y-55548933D01*
X130545824Y-55342376D01*
X130421612Y-55156480D01*
X130263520Y-54998388D01*
X130077624Y-54874176D01*
X129871067Y-54788617D01*
X129651788Y-54745000D01*
X129428212Y-54745000D01*
X129208933Y-54788617D01*
X129002376Y-54874176D01*
X128816480Y-54998388D01*
X128658388Y-55156480D01*
X128534176Y-55342376D01*
X128448617Y-55548933D01*
X128409617Y-55745000D01*
X125757238Y-55745000D01*
X125768072Y-55635000D01*
X125768072Y-54835000D01*
X125755812Y-54710518D01*
X125722287Y-54600000D01*
X125755812Y-54489482D01*
X125768072Y-54365000D01*
X125768072Y-53565000D01*
X125755812Y-53440518D01*
X125722287Y-53330000D01*
X125755812Y-53219482D01*
X125768072Y-53095000D01*
X125768072Y-52729999D01*
X127855198Y-52729999D01*
X128405000Y-53279802D01*
X128405000Y-53451788D01*
X128448617Y-53671067D01*
X128534176Y-53877624D01*
X128658388Y-54063520D01*
X128816480Y-54221612D01*
X129002376Y-54345824D01*
X129208933Y-54431383D01*
X129428212Y-54475000D01*
X129651788Y-54475000D01*
X129871067Y-54431383D01*
X130077624Y-54345824D01*
X130263520Y-54221612D01*
X130421612Y-54063520D01*
X130545824Y-53877624D01*
X130631383Y-53671067D01*
X130675000Y-53451788D01*
X130675000Y-53228212D01*
X130631383Y-53008933D01*
X130545824Y-52802376D01*
X130421612Y-52616480D01*
X130263520Y-52458388D01*
X130077624Y-52334176D01*
X129871067Y-52248617D01*
X129651788Y-52205000D01*
X129479802Y-52205000D01*
X129135956Y-51861155D01*
X129208933Y-51891383D01*
X129428212Y-51935000D01*
X129651788Y-51935000D01*
X129871067Y-51891383D01*
X130077624Y-51805824D01*
X130263520Y-51681612D01*
X130421612Y-51523520D01*
X130545824Y-51337624D01*
X130631383Y-51131067D01*
X130675000Y-50911788D01*
X130675000Y-50688212D01*
X130631383Y-50468933D01*
X130545824Y-50262376D01*
X130421612Y-50076480D01*
X130263520Y-49918388D01*
X130077624Y-49794176D01*
X129871067Y-49708617D01*
X129651788Y-49665000D01*
X129428212Y-49665000D01*
X129208933Y-49708617D01*
X129002376Y-49794176D01*
X128816480Y-49918388D01*
X128683855Y-50051013D01*
X128540647Y-50094454D01*
X128408618Y-50165026D01*
X128292893Y-50259999D01*
X128269090Y-50289003D01*
X128218093Y-50340000D01*
X125684250Y-50340000D01*
X125626250Y-50282000D01*
X124277000Y-50282000D01*
X124277000Y-50302000D01*
X124023000Y-50302000D01*
X124023000Y-50282000D01*
X122673750Y-50282000D01*
X122615750Y-50340000D01*
X118303711Y-50340000D01*
X118259774Y-50296063D01*
X118090256Y-50182795D01*
X117901898Y-50104774D01*
X117701939Y-50065000D01*
X117498061Y-50065000D01*
X117298102Y-50104774D01*
X117109744Y-50182795D01*
X116940226Y-50296063D01*
X116796063Y-50440226D01*
X116682795Y-50609744D01*
X116604774Y-50798102D01*
X116565000Y-50998061D01*
X116565000Y-51201939D01*
X116566603Y-51209999D01*
X116333712Y-51209999D01*
X116289775Y-51166062D01*
X116120257Y-51052794D01*
X115931899Y-50974773D01*
X115731940Y-50934999D01*
X115528062Y-50934999D01*
X115328103Y-50974773D01*
X115139745Y-51052794D01*
X114970227Y-51166062D01*
X114826064Y-51310225D01*
X114712796Y-51479743D01*
X114634775Y-51668101D01*
X114595001Y-51868060D01*
X114595001Y-52071938D01*
X114634775Y-52271897D01*
X114712796Y-52460255D01*
X114826064Y-52629773D01*
X114970227Y-52773936D01*
X115139745Y-52887204D01*
X115328103Y-52965225D01*
X115528062Y-53004999D01*
X115731940Y-53004999D01*
X115931899Y-52965225D01*
X116120257Y-52887204D01*
X116289775Y-52773936D01*
X116333712Y-52729999D01*
X122491928Y-52729999D01*
X122491928Y-53095000D01*
X122504188Y-53219482D01*
X122537713Y-53330000D01*
X122504188Y-53440518D01*
X122491928Y-53565000D01*
X122491928Y-54365000D01*
X122504188Y-54489482D01*
X122537713Y-54600000D01*
X122504188Y-54710518D01*
X122491928Y-54835000D01*
X122491928Y-55635000D01*
X122504188Y-55759482D01*
X122537713Y-55870000D01*
X122504188Y-55980518D01*
X122491928Y-56105000D01*
X122491928Y-56905000D01*
X122504188Y-57029482D01*
X122537713Y-57140000D01*
X122504188Y-57250518D01*
X122491928Y-57375000D01*
X122491928Y-58175000D01*
X122504188Y-58299482D01*
X122537713Y-58410000D01*
X122504188Y-58520518D01*
X122491928Y-58645000D01*
X122491928Y-59445000D01*
X122504188Y-59569482D01*
X122537713Y-59680000D01*
X122504188Y-59790518D01*
X122491928Y-59915000D01*
X122491928Y-60715000D01*
X122504188Y-60839482D01*
X122537713Y-60950000D01*
X122504188Y-61060518D01*
X122491928Y-61185000D01*
X122491928Y-61985000D01*
X122504188Y-62109482D01*
X122537713Y-62220000D01*
X122504188Y-62330518D01*
X122491928Y-62455000D01*
X122491928Y-63255000D01*
X122504188Y-63379482D01*
X122537713Y-63490000D01*
X122504188Y-63600518D01*
X122491928Y-63725000D01*
X122491928Y-64525000D01*
X122504188Y-64649482D01*
X122537713Y-64760000D01*
X122504188Y-64870518D01*
X122491928Y-64995000D01*
X122491928Y-65795000D01*
X122504188Y-65919482D01*
X122537713Y-66030000D01*
X122504188Y-66140518D01*
X122491928Y-66265000D01*
X122491928Y-67065000D01*
X122504188Y-67189482D01*
X122537713Y-67300000D01*
X122504188Y-67410518D01*
X122491928Y-67535000D01*
X122491928Y-68335000D01*
X122504188Y-68459482D01*
X122537713Y-68570000D01*
X122504188Y-68680518D01*
X122491928Y-68805000D01*
X122491928Y-69311928D01*
X121985000Y-69311928D01*
X121860518Y-69324188D01*
X121750000Y-69357713D01*
X121639482Y-69324188D01*
X121515000Y-69311928D01*
X120715000Y-69311928D01*
X120590518Y-69324188D01*
X120480000Y-69357713D01*
X120369482Y-69324188D01*
X120245000Y-69311928D01*
X119445000Y-69311928D01*
X119320518Y-69324188D01*
X119210000Y-69357713D01*
X119099482Y-69324188D01*
X118975000Y-69311928D01*
X118175000Y-69311928D01*
X118050518Y-69324188D01*
X117940000Y-69357713D01*
X117829482Y-69324188D01*
X117705000Y-69311928D01*
X116905000Y-69311928D01*
X116780518Y-69324188D01*
X116670000Y-69357713D01*
X116559482Y-69324188D01*
X116435000Y-69311928D01*
X115635000Y-69311928D01*
X115510518Y-69324188D01*
X115400000Y-69357713D01*
X115289482Y-69324188D01*
X115165000Y-69311928D01*
X114365000Y-69311928D01*
X114240518Y-69324188D01*
X114130000Y-69357713D01*
X114019482Y-69324188D01*
X113895000Y-69311928D01*
X113095000Y-69311928D01*
X112985000Y-69322762D01*
X112985000Y-65489801D01*
X119539802Y-58935000D01*
X119601939Y-58935000D01*
X119801898Y-58895226D01*
X119990256Y-58817205D01*
X120159774Y-58703937D01*
X120303937Y-58559774D01*
X120417205Y-58390256D01*
X120495226Y-58201898D01*
X120535000Y-58001939D01*
X120535000Y-57798061D01*
X120495226Y-57598102D01*
X120417205Y-57409744D01*
X120303937Y-57240226D01*
X120159774Y-57096063D01*
X119990256Y-56982795D01*
X119801898Y-56904774D01*
X119601939Y-56865000D01*
X119398061Y-56865000D01*
X119198102Y-56904774D01*
X119009744Y-56982795D01*
X118840226Y-57096063D01*
X118696063Y-57240226D01*
X118582795Y-57409744D01*
X118504774Y-57598102D01*
X118465000Y-57798061D01*
X118465000Y-57860198D01*
X111715000Y-64610199D01*
X111715000Y-57859801D01*
X113239803Y-56335000D01*
X113301939Y-56335000D01*
X113501898Y-56295226D01*
X113690256Y-56217205D01*
X113859774Y-56103937D01*
X114003937Y-55959774D01*
X114117205Y-55790256D01*
X114195226Y-55601898D01*
X114235000Y-55401939D01*
X114235000Y-55198061D01*
X114195226Y-54998102D01*
X114117205Y-54809744D01*
X114003937Y-54640226D01*
X113859774Y-54496063D01*
X113690256Y-54382795D01*
X113501898Y-54304774D01*
X113301939Y-54265000D01*
X113098061Y-54265000D01*
X112941322Y-54296177D01*
X112903937Y-54240226D01*
X112759774Y-54096063D01*
X112590256Y-53982795D01*
X112401898Y-53904774D01*
X112201939Y-53865000D01*
X111998061Y-53865000D01*
X111798102Y-53904774D01*
X111609744Y-53982795D01*
X111440226Y-54096063D01*
X111296063Y-54240226D01*
X111182795Y-54409744D01*
X111104774Y-54598102D01*
X111065000Y-54798061D01*
X111065000Y-54860198D01*
X108308072Y-57617127D01*
X108308072Y-57375000D01*
X108295812Y-57250518D01*
X108262287Y-57140000D01*
X108295812Y-57029482D01*
X108308072Y-56905000D01*
X108308072Y-56105000D01*
X108295812Y-55980518D01*
X108262287Y-55870000D01*
X108295812Y-55759482D01*
X108308072Y-55635000D01*
X108308072Y-54835000D01*
X108295812Y-54710518D01*
X108262287Y-54600000D01*
X108295812Y-54489482D01*
X108308072Y-54365000D01*
X108308072Y-53565000D01*
X108295812Y-53440518D01*
X108262287Y-53330000D01*
X108295812Y-53219482D01*
X108308072Y-53095000D01*
X108305000Y-52980750D01*
X108146250Y-52822000D01*
X106797000Y-52822000D01*
X106797000Y-52842000D01*
X106543000Y-52842000D01*
X106543000Y-52822000D01*
X105193750Y-52822000D01*
X105035000Y-52980750D01*
X105031928Y-53095000D01*
X105044188Y-53219482D01*
X105077713Y-53330000D01*
X105044188Y-53440518D01*
X105031928Y-53565000D01*
X105031928Y-54365000D01*
X105044188Y-54489482D01*
X105077713Y-54600000D01*
X105044188Y-54710518D01*
X105031928Y-54835000D01*
X105031928Y-55635000D01*
X105044188Y-55759482D01*
X105077713Y-55870000D01*
X105044188Y-55980518D01*
X105031928Y-56105000D01*
X105031928Y-56905000D01*
X105044188Y-57029482D01*
X105077713Y-57140000D01*
X105044188Y-57250518D01*
X105031928Y-57375000D01*
X105031928Y-58175000D01*
X105044188Y-58299482D01*
X105077713Y-58410000D01*
X105044188Y-58520518D01*
X105031928Y-58645000D01*
X105031928Y-59445000D01*
X105044188Y-59569482D01*
X105077713Y-59680000D01*
X105044188Y-59790518D01*
X105031928Y-59915000D01*
X105031928Y-60715000D01*
X105044188Y-60839482D01*
X105077713Y-60950000D01*
X105044188Y-61060518D01*
X105031928Y-61185000D01*
X105031928Y-61985000D01*
X105044188Y-62109482D01*
X105077713Y-62220000D01*
X105044188Y-62330518D01*
X105031928Y-62455000D01*
X105031928Y-63255000D01*
X105044188Y-63379482D01*
X105077713Y-63490000D01*
X105044188Y-63600518D01*
X105031928Y-63725000D01*
X105031928Y-64525000D01*
X105044188Y-64649482D01*
X105077713Y-64760000D01*
X105044188Y-64870518D01*
X105031928Y-64995000D01*
X105031928Y-65795000D01*
X105044188Y-65919482D01*
X105077713Y-66030000D01*
X105044188Y-66140518D01*
X105031928Y-66265000D01*
X105031928Y-67065000D01*
X105044188Y-67189482D01*
X105077713Y-67300000D01*
X105044188Y-67410518D01*
X105031928Y-67535000D01*
X105031928Y-68335000D01*
X105044188Y-68459482D01*
X105077713Y-68570000D01*
X105044188Y-68680518D01*
X105031928Y-68805000D01*
X105035000Y-68919250D01*
X105193750Y-69078000D01*
X106543000Y-69078000D01*
X106543000Y-69058000D01*
X106797000Y-69058000D01*
X106797000Y-69078000D01*
X106817000Y-69078000D01*
X106817000Y-69332000D01*
X106797000Y-69332000D01*
X106797000Y-70081250D01*
X106955750Y-70240000D01*
X107376928Y-70241811D01*
X107376928Y-71950000D01*
X107389188Y-72074482D01*
X107407000Y-72133199D01*
X105864002Y-73676197D01*
X105834998Y-73700000D01*
X105793964Y-73750001D01*
X105740025Y-73815725D01*
X105670628Y-73945556D01*
X105669453Y-73947755D01*
X105625996Y-74091016D01*
X105614999Y-74202669D01*
X105614999Y-74202679D01*
X105611323Y-74240001D01*
X105614999Y-74277323D01*
X105615000Y-81967017D01*
X105611323Y-82004349D01*
X105625997Y-82153334D01*
X105669453Y-82296595D01*
X105740025Y-82428625D01*
X105782629Y-82480537D01*
X105834999Y-82544350D01*
X105863997Y-82568148D01*
X108925698Y-85629850D01*
X108878872Y-85784215D01*
X108861928Y-85956250D01*
X108861928Y-86443750D01*
X108863678Y-86461520D01*
X107407598Y-87917601D01*
X107350000Y-87911928D01*
X106550000Y-87911928D01*
X106425518Y-87924188D01*
X106305820Y-87960498D01*
X106195506Y-88019463D01*
X106098815Y-88098815D01*
X106019463Y-88195506D01*
X105960498Y-88305820D01*
X105924188Y-88425518D01*
X105911928Y-88550000D01*
X105911928Y-89450000D01*
X105924188Y-89574482D01*
X105960498Y-89694180D01*
X106019463Y-89804494D01*
X106098815Y-89901185D01*
X106111905Y-89911928D01*
X105600000Y-89911928D01*
X105475518Y-89924188D01*
X105355820Y-89960498D01*
X105245506Y-90019463D01*
X105148815Y-90098815D01*
X105069463Y-90195506D01*
X105010498Y-90305820D01*
X104974188Y-90425518D01*
X104961928Y-90550000D01*
X103660000Y-90550000D01*
X103660000Y-90549198D01*
X103790476Y-90507809D01*
X103845412Y-90484263D01*
X103900764Y-90461449D01*
X103908870Y-90457065D01*
X104165408Y-90316032D01*
X104214753Y-90282245D01*
X104264591Y-90249133D01*
X104271691Y-90243259D01*
X104495949Y-90055084D01*
X104537793Y-90012354D01*
X104580248Y-89970195D01*
X104586072Y-89963053D01*
X104769509Y-89734903D01*
X104802251Y-89684869D01*
X104835714Y-89635258D01*
X104840040Y-89627122D01*
X104975670Y-89367687D01*
X104998082Y-89312215D01*
X105021260Y-89257077D01*
X105023923Y-89248255D01*
X105106578Y-88967417D01*
X105117785Y-88908669D01*
X105129816Y-88850059D01*
X105130715Y-88840888D01*
X105157247Y-88549344D01*
X105156829Y-88489528D01*
X105157247Y-88429712D01*
X105156348Y-88420541D01*
X105125748Y-88129395D01*
X105113710Y-88070753D01*
X105102510Y-88012037D01*
X105099847Y-88003216D01*
X105013279Y-87723560D01*
X104990101Y-87668422D01*
X104967689Y-87612950D01*
X104963362Y-87604814D01*
X104824123Y-87347298D01*
X104790701Y-87297749D01*
X104757920Y-87247653D01*
X104752095Y-87240512D01*
X104565490Y-87014945D01*
X104523054Y-86972804D01*
X104481191Y-86930055D01*
X104474091Y-86924181D01*
X104247227Y-86739155D01*
X104197408Y-86706055D01*
X104148045Y-86672256D01*
X104139939Y-86667873D01*
X103881458Y-86530436D01*
X103826164Y-86507645D01*
X103771171Y-86484075D01*
X103762368Y-86481350D01*
X103660000Y-86450443D01*
X103660000Y-69605000D01*
X105031928Y-69605000D01*
X105044188Y-69729482D01*
X105080498Y-69849180D01*
X105139463Y-69959494D01*
X105218815Y-70056185D01*
X105315506Y-70135537D01*
X105425820Y-70194502D01*
X105545518Y-70230812D01*
X105670000Y-70243072D01*
X106384250Y-70240000D01*
X106543000Y-70081250D01*
X106543000Y-69332000D01*
X105193750Y-69332000D01*
X105035000Y-69490750D01*
X105031928Y-69605000D01*
X103660000Y-69605000D01*
X103660000Y-52295000D01*
X105031928Y-52295000D01*
X105035000Y-52409250D01*
X105193750Y-52568000D01*
X106543000Y-52568000D01*
X106543000Y-51818750D01*
X106797000Y-51818750D01*
X106797000Y-52568000D01*
X108146250Y-52568000D01*
X108305000Y-52409250D01*
X108308072Y-52295000D01*
X108295812Y-52170518D01*
X108259502Y-52050820D01*
X108200537Y-51940506D01*
X108121185Y-51843815D01*
X108024494Y-51764463D01*
X107914180Y-51705498D01*
X107794482Y-51669188D01*
X107670000Y-51656928D01*
X106955750Y-51660000D01*
X106797000Y-51818750D01*
X106543000Y-51818750D01*
X106384250Y-51660000D01*
X105670000Y-51656928D01*
X105545518Y-51669188D01*
X105425820Y-51705498D01*
X105315506Y-51764463D01*
X105218815Y-51843815D01*
X105139463Y-51940506D01*
X105080498Y-52050820D01*
X105044188Y-52170518D01*
X105031928Y-52295000D01*
X103660000Y-52295000D01*
X103660000Y-50555000D01*
X105011928Y-50555000D01*
X105024188Y-50679482D01*
X105060498Y-50799180D01*
X105119463Y-50909494D01*
X105198815Y-51006185D01*
X105295506Y-51085537D01*
X105405820Y-51144502D01*
X105525518Y-51180812D01*
X105650000Y-51193072D01*
X106364250Y-51190000D01*
X106523000Y-51031250D01*
X106523000Y-50282000D01*
X106777000Y-50282000D01*
X106777000Y-51031250D01*
X106935750Y-51190000D01*
X107650000Y-51193072D01*
X107774482Y-51180812D01*
X107894180Y-51144502D01*
X108004494Y-51085537D01*
X108101185Y-51006185D01*
X108180537Y-50909494D01*
X108239502Y-50799180D01*
X108275812Y-50679482D01*
X108288072Y-50555000D01*
X108285000Y-50440750D01*
X108126250Y-50282000D01*
X106777000Y-50282000D01*
X106523000Y-50282000D01*
X105173750Y-50282000D01*
X105015000Y-50440750D01*
X105011928Y-50555000D01*
X103660000Y-50555000D01*
X103660000Y-49285000D01*
X105011928Y-49285000D01*
X105024188Y-49409482D01*
X105057713Y-49520000D01*
X105024188Y-49630518D01*
X105011928Y-49755000D01*
X105015000Y-49869250D01*
X105173750Y-50028000D01*
X106523000Y-50028000D01*
X106523000Y-49012000D01*
X106777000Y-49012000D01*
X106777000Y-50028000D01*
X108126250Y-50028000D01*
X108285000Y-49869250D01*
X108288072Y-49755000D01*
X108275812Y-49630518D01*
X108242287Y-49520000D01*
X108275812Y-49409482D01*
X108288072Y-49285000D01*
X122511928Y-49285000D01*
X122524188Y-49409482D01*
X122557713Y-49520000D01*
X122524188Y-49630518D01*
X122511928Y-49755000D01*
X122515000Y-49869250D01*
X122673750Y-50028000D01*
X124023000Y-50028000D01*
X124023000Y-49012000D01*
X124277000Y-49012000D01*
X124277000Y-50028000D01*
X125626250Y-50028000D01*
X125785000Y-49869250D01*
X125788072Y-49755000D01*
X125775812Y-49630518D01*
X125742287Y-49520000D01*
X125775812Y-49409482D01*
X125788072Y-49285000D01*
X125785000Y-49170750D01*
X125626250Y-49012000D01*
X124277000Y-49012000D01*
X124023000Y-49012000D01*
X122673750Y-49012000D01*
X122515000Y-49170750D01*
X122511928Y-49285000D01*
X108288072Y-49285000D01*
X108285000Y-49170750D01*
X108126250Y-49012000D01*
X106777000Y-49012000D01*
X106523000Y-49012000D01*
X105173750Y-49012000D01*
X105015000Y-49170750D01*
X105011928Y-49285000D01*
X103660000Y-49285000D01*
X103660000Y-48627000D01*
X105042750Y-48627000D01*
X105173750Y-48758000D01*
M02*
