G04 #@! TF.GenerationSoftware,KiCad,Pcbnew,(5.1.2-1)-1*
G04 #@! TF.CreationDate,2021-02-24T07:54:15+01:00*
G04 #@! TF.ProjectId,parasite,70617261-7369-4746-952e-6b696361645f,1.1.0*
G04 #@! TF.SameCoordinates,Original*
G04 #@! TF.FileFunction,Soldermask,Top*
G04 #@! TF.FilePolarity,Negative*
%FSLAX46Y46*%
G04 Gerber Fmt 4.6, Leading zero omitted, Abs format (unit mm)*
G04 Created by KiCad (PCBNEW (5.1.2-1)-1) date 2021-02-24 07:54:15*
%MOMM*%
%LPD*%
G04 APERTURE LIST*
%ADD10C,0.100000*%
G04 APERTURE END LIST*
D10*
G36*
X111401000Y-95001000D02*
G01*
X110499000Y-95001000D01*
X110499000Y-93999000D01*
X111401000Y-93999000D01*
X111401000Y-95001000D01*
X111401000Y-95001000D01*
G37*
G36*
X109501000Y-95001000D02*
G01*
X108599000Y-95001000D01*
X108599000Y-93999000D01*
X109501000Y-93999000D01*
X109501000Y-95001000D01*
X109501000Y-95001000D01*
G37*
G36*
X119309468Y-92753565D02*
G01*
X119348138Y-92765296D01*
X119383777Y-92784346D01*
X119415017Y-92809983D01*
X119440654Y-92841223D01*
X119459704Y-92876862D01*
X119471435Y-92915532D01*
X119476000Y-92961888D01*
X119476000Y-94038112D01*
X119471435Y-94084468D01*
X119459704Y-94123138D01*
X119440654Y-94158777D01*
X119415017Y-94190017D01*
X119383777Y-94215654D01*
X119348138Y-94234704D01*
X119309468Y-94246435D01*
X119263112Y-94251000D01*
X118611888Y-94251000D01*
X118565532Y-94246435D01*
X118526862Y-94234704D01*
X118491223Y-94215654D01*
X118459983Y-94190017D01*
X118434346Y-94158777D01*
X118415296Y-94123138D01*
X118403565Y-94084468D01*
X118399000Y-94038112D01*
X118399000Y-92961888D01*
X118403565Y-92915532D01*
X118415296Y-92876862D01*
X118434346Y-92841223D01*
X118459983Y-92809983D01*
X118491223Y-92784346D01*
X118526862Y-92765296D01*
X118565532Y-92753565D01*
X118611888Y-92749000D01*
X119263112Y-92749000D01*
X119309468Y-92753565D01*
X119309468Y-92753565D01*
G37*
G36*
X117434468Y-92753565D02*
G01*
X117473138Y-92765296D01*
X117508777Y-92784346D01*
X117540017Y-92809983D01*
X117565654Y-92841223D01*
X117584704Y-92876862D01*
X117596435Y-92915532D01*
X117601000Y-92961888D01*
X117601000Y-94038112D01*
X117596435Y-94084468D01*
X117584704Y-94123138D01*
X117565654Y-94158777D01*
X117540017Y-94190017D01*
X117508777Y-94215654D01*
X117473138Y-94234704D01*
X117434468Y-94246435D01*
X117388112Y-94251000D01*
X116736888Y-94251000D01*
X116690532Y-94246435D01*
X116651862Y-94234704D01*
X116616223Y-94215654D01*
X116584983Y-94190017D01*
X116559346Y-94158777D01*
X116540296Y-94123138D01*
X116528565Y-94084468D01*
X116524000Y-94038112D01*
X116524000Y-92961888D01*
X116528565Y-92915532D01*
X116540296Y-92876862D01*
X116559346Y-92841223D01*
X116584983Y-92809983D01*
X116616223Y-92784346D01*
X116651862Y-92765296D01*
X116690532Y-92753565D01*
X116736888Y-92749000D01*
X117388112Y-92749000D01*
X117434468Y-92753565D01*
X117434468Y-92753565D01*
G37*
G36*
X125760721Y-92970174D02*
G01*
X125860995Y-93011709D01*
X125860996Y-93011710D01*
X125951242Y-93072010D01*
X126027990Y-93148758D01*
X126027991Y-93148760D01*
X126088291Y-93239005D01*
X126129826Y-93339279D01*
X126151000Y-93445730D01*
X126151000Y-93554270D01*
X126129826Y-93660721D01*
X126088291Y-93760995D01*
X126088290Y-93760996D01*
X126027990Y-93851242D01*
X125951242Y-93927990D01*
X125905812Y-93958345D01*
X125860995Y-93988291D01*
X125760721Y-94029826D01*
X125654270Y-94051000D01*
X125545730Y-94051000D01*
X125439279Y-94029826D01*
X125339005Y-93988291D01*
X125294188Y-93958345D01*
X125248758Y-93927990D01*
X125172010Y-93851242D01*
X125111710Y-93760996D01*
X125111709Y-93760995D01*
X125070174Y-93660721D01*
X125049000Y-93554270D01*
X125049000Y-93445730D01*
X125070174Y-93339279D01*
X125111709Y-93239005D01*
X125172009Y-93148760D01*
X125172010Y-93148758D01*
X125248758Y-93072010D01*
X125339004Y-93011710D01*
X125339005Y-93011709D01*
X125439279Y-92970174D01*
X125545730Y-92949000D01*
X125654270Y-92949000D01*
X125760721Y-92970174D01*
X125760721Y-92970174D01*
G37*
G36*
X110451000Y-93001000D02*
G01*
X109549000Y-93001000D01*
X109549000Y-91999000D01*
X110451000Y-91999000D01*
X110451000Y-93001000D01*
X110451000Y-93001000D01*
G37*
G36*
X108351000Y-91501000D02*
G01*
X107449000Y-91501000D01*
X107449000Y-90499000D01*
X108351000Y-90499000D01*
X108351000Y-91501000D01*
X108351000Y-91501000D01*
G37*
G36*
X106451000Y-91501000D02*
G01*
X105549000Y-91501000D01*
X105549000Y-90499000D01*
X106451000Y-90499000D01*
X106451000Y-91501000D01*
X106451000Y-91501000D01*
G37*
G36*
X112584468Y-90341065D02*
G01*
X112623138Y-90352796D01*
X112658777Y-90371846D01*
X112690017Y-90397483D01*
X112715654Y-90428723D01*
X112734704Y-90464362D01*
X112746435Y-90503032D01*
X112751000Y-90549388D01*
X112751000Y-91200612D01*
X112746435Y-91246968D01*
X112734704Y-91285638D01*
X112715654Y-91321277D01*
X112690017Y-91352517D01*
X112658777Y-91378154D01*
X112623138Y-91397204D01*
X112584468Y-91408935D01*
X112538112Y-91413500D01*
X111461888Y-91413500D01*
X111415532Y-91408935D01*
X111376862Y-91397204D01*
X111341223Y-91378154D01*
X111309983Y-91352517D01*
X111284346Y-91321277D01*
X111265296Y-91285638D01*
X111253565Y-91246968D01*
X111249000Y-91200612D01*
X111249000Y-90549388D01*
X111253565Y-90503032D01*
X111265296Y-90464362D01*
X111284346Y-90428723D01*
X111309983Y-90397483D01*
X111341223Y-90371846D01*
X111376862Y-90352796D01*
X111415532Y-90341065D01*
X111461888Y-90336500D01*
X112538112Y-90336500D01*
X112584468Y-90341065D01*
X112584468Y-90341065D01*
G37*
G36*
X117284468Y-89766065D02*
G01*
X117323138Y-89777796D01*
X117358777Y-89796846D01*
X117390017Y-89822483D01*
X117415654Y-89853723D01*
X117434704Y-89889362D01*
X117446435Y-89928032D01*
X117451000Y-89974388D01*
X117451000Y-90625612D01*
X117446435Y-90671968D01*
X117434704Y-90710638D01*
X117415654Y-90746277D01*
X117390017Y-90777517D01*
X117358777Y-90803154D01*
X117323138Y-90822204D01*
X117284468Y-90833935D01*
X117238112Y-90838500D01*
X116161888Y-90838500D01*
X116115532Y-90833935D01*
X116076862Y-90822204D01*
X116041223Y-90803154D01*
X116009983Y-90777517D01*
X115984346Y-90746277D01*
X115965296Y-90710638D01*
X115953565Y-90671968D01*
X115949000Y-90625612D01*
X115949000Y-89974388D01*
X115953565Y-89928032D01*
X115965296Y-89889362D01*
X115984346Y-89853723D01*
X116009983Y-89822483D01*
X116041223Y-89796846D01*
X116076862Y-89777796D01*
X116115532Y-89766065D01*
X116161888Y-89761500D01*
X117238112Y-89761500D01*
X117284468Y-89766065D01*
X117284468Y-89766065D01*
G37*
G36*
X121284468Y-89703565D02*
G01*
X121323138Y-89715296D01*
X121358777Y-89734346D01*
X121390017Y-89759983D01*
X121415654Y-89791223D01*
X121434704Y-89826862D01*
X121446435Y-89865532D01*
X121451000Y-89911888D01*
X121451000Y-90563112D01*
X121446435Y-90609468D01*
X121434704Y-90648138D01*
X121415654Y-90683777D01*
X121390017Y-90715017D01*
X121358777Y-90740654D01*
X121323138Y-90759704D01*
X121284468Y-90771435D01*
X121238112Y-90776000D01*
X120161888Y-90776000D01*
X120115532Y-90771435D01*
X120076862Y-90759704D01*
X120041223Y-90740654D01*
X120009983Y-90715017D01*
X119984346Y-90683777D01*
X119965296Y-90648138D01*
X119953565Y-90609468D01*
X119949000Y-90563112D01*
X119949000Y-89911888D01*
X119953565Y-89865532D01*
X119965296Y-89826862D01*
X119984346Y-89791223D01*
X120009983Y-89759983D01*
X120041223Y-89734346D01*
X120076862Y-89715296D01*
X120115532Y-89703565D01*
X120161888Y-89699000D01*
X121238112Y-89699000D01*
X121284468Y-89703565D01*
X121284468Y-89703565D01*
G37*
G36*
X112584468Y-88466065D02*
G01*
X112623138Y-88477796D01*
X112658777Y-88496846D01*
X112690017Y-88522483D01*
X112715654Y-88553723D01*
X112734704Y-88589362D01*
X112746435Y-88628032D01*
X112751000Y-88674388D01*
X112751000Y-89325612D01*
X112746435Y-89371968D01*
X112734704Y-89410638D01*
X112715654Y-89446277D01*
X112690017Y-89477517D01*
X112658777Y-89503154D01*
X112623138Y-89522204D01*
X112584468Y-89533935D01*
X112538112Y-89538500D01*
X111461888Y-89538500D01*
X111415532Y-89533935D01*
X111376862Y-89522204D01*
X111341223Y-89503154D01*
X111309983Y-89477517D01*
X111284346Y-89446277D01*
X111265296Y-89410638D01*
X111253565Y-89371968D01*
X111249000Y-89325612D01*
X111249000Y-88674388D01*
X111253565Y-88628032D01*
X111265296Y-88589362D01*
X111284346Y-88553723D01*
X111309983Y-88522483D01*
X111341223Y-88496846D01*
X111376862Y-88477796D01*
X111415532Y-88466065D01*
X111461888Y-88461500D01*
X112538112Y-88461500D01*
X112584468Y-88466065D01*
X112584468Y-88466065D01*
G37*
G36*
X107401000Y-89501000D02*
G01*
X106499000Y-89501000D01*
X106499000Y-88499000D01*
X107401000Y-88499000D01*
X107401000Y-89501000D01*
X107401000Y-89501000D01*
G37*
G36*
X117284468Y-87891065D02*
G01*
X117323138Y-87902796D01*
X117358777Y-87921846D01*
X117390017Y-87947483D01*
X117415654Y-87978723D01*
X117434704Y-88014362D01*
X117446435Y-88053032D01*
X117451000Y-88099388D01*
X117451000Y-88750612D01*
X117446435Y-88796968D01*
X117434704Y-88835638D01*
X117415654Y-88871277D01*
X117390017Y-88902517D01*
X117358777Y-88928154D01*
X117323138Y-88947204D01*
X117284468Y-88958935D01*
X117238112Y-88963500D01*
X116161888Y-88963500D01*
X116115532Y-88958935D01*
X116076862Y-88947204D01*
X116041223Y-88928154D01*
X116009983Y-88902517D01*
X115984346Y-88871277D01*
X115965296Y-88835638D01*
X115953565Y-88796968D01*
X115949000Y-88750612D01*
X115949000Y-88099388D01*
X115953565Y-88053032D01*
X115965296Y-88014362D01*
X115984346Y-87978723D01*
X116009983Y-87947483D01*
X116041223Y-87921846D01*
X116076862Y-87902796D01*
X116115532Y-87891065D01*
X116161888Y-87886500D01*
X117238112Y-87886500D01*
X117284468Y-87891065D01*
X117284468Y-87891065D01*
G37*
G36*
X121284468Y-87828565D02*
G01*
X121323138Y-87840296D01*
X121358777Y-87859346D01*
X121390017Y-87884983D01*
X121415654Y-87916223D01*
X121434704Y-87951862D01*
X121446435Y-87990532D01*
X121451000Y-88036888D01*
X121451000Y-88688112D01*
X121446435Y-88734468D01*
X121434704Y-88773138D01*
X121415654Y-88808777D01*
X121390017Y-88840017D01*
X121358777Y-88865654D01*
X121323138Y-88884704D01*
X121284468Y-88896435D01*
X121238112Y-88901000D01*
X120161888Y-88901000D01*
X120115532Y-88896435D01*
X120076862Y-88884704D01*
X120041223Y-88865654D01*
X120009983Y-88840017D01*
X119984346Y-88808777D01*
X119965296Y-88773138D01*
X119953565Y-88734468D01*
X119949000Y-88688112D01*
X119949000Y-88036888D01*
X119953565Y-87990532D01*
X119965296Y-87951862D01*
X119984346Y-87916223D01*
X120009983Y-87884983D01*
X120041223Y-87859346D01*
X120076862Y-87840296D01*
X120115532Y-87828565D01*
X120161888Y-87824000D01*
X121238112Y-87824000D01*
X121284468Y-87828565D01*
X121284468Y-87828565D01*
G37*
G36*
X110784468Y-85666065D02*
G01*
X110823138Y-85677796D01*
X110858777Y-85696846D01*
X110890017Y-85722483D01*
X110915654Y-85753723D01*
X110934704Y-85789362D01*
X110946435Y-85828032D01*
X110951000Y-85874388D01*
X110951000Y-86525612D01*
X110946435Y-86571968D01*
X110934704Y-86610638D01*
X110915654Y-86646277D01*
X110890017Y-86677517D01*
X110858777Y-86703154D01*
X110823138Y-86722204D01*
X110784468Y-86733935D01*
X110738112Y-86738500D01*
X109661888Y-86738500D01*
X109615532Y-86733935D01*
X109576862Y-86722204D01*
X109541223Y-86703154D01*
X109509983Y-86677517D01*
X109484346Y-86646277D01*
X109465296Y-86610638D01*
X109453565Y-86571968D01*
X109449000Y-86525612D01*
X109449000Y-85874388D01*
X109453565Y-85828032D01*
X109465296Y-85789362D01*
X109484346Y-85753723D01*
X109509983Y-85722483D01*
X109541223Y-85696846D01*
X109576862Y-85677796D01*
X109615532Y-85666065D01*
X109661888Y-85661500D01*
X110738112Y-85661500D01*
X110784468Y-85666065D01*
X110784468Y-85666065D01*
G37*
G36*
X121284468Y-84541065D02*
G01*
X121323138Y-84552796D01*
X121358777Y-84571846D01*
X121390017Y-84597483D01*
X121415654Y-84628723D01*
X121434704Y-84664362D01*
X121446435Y-84703032D01*
X121451000Y-84749388D01*
X121451000Y-85400612D01*
X121446435Y-85446968D01*
X121434704Y-85485638D01*
X121415654Y-85521277D01*
X121390017Y-85552517D01*
X121358777Y-85578154D01*
X121323138Y-85597204D01*
X121284468Y-85608935D01*
X121238112Y-85613500D01*
X120161888Y-85613500D01*
X120115532Y-85608935D01*
X120076862Y-85597204D01*
X120041223Y-85578154D01*
X120009983Y-85552517D01*
X119984346Y-85521277D01*
X119965296Y-85485638D01*
X119953565Y-85446968D01*
X119949000Y-85400612D01*
X119949000Y-84749388D01*
X119953565Y-84703032D01*
X119965296Y-84664362D01*
X119984346Y-84628723D01*
X120009983Y-84597483D01*
X120041223Y-84571846D01*
X120076862Y-84552796D01*
X120115532Y-84541065D01*
X120161888Y-84536500D01*
X121238112Y-84536500D01*
X121284468Y-84541065D01*
X121284468Y-84541065D01*
G37*
G36*
X117284468Y-84541065D02*
G01*
X117323138Y-84552796D01*
X117358777Y-84571846D01*
X117390017Y-84597483D01*
X117415654Y-84628723D01*
X117434704Y-84664362D01*
X117446435Y-84703032D01*
X117451000Y-84749388D01*
X117451000Y-85400612D01*
X117446435Y-85446968D01*
X117434704Y-85485638D01*
X117415654Y-85521277D01*
X117390017Y-85552517D01*
X117358777Y-85578154D01*
X117323138Y-85597204D01*
X117284468Y-85608935D01*
X117238112Y-85613500D01*
X116161888Y-85613500D01*
X116115532Y-85608935D01*
X116076862Y-85597204D01*
X116041223Y-85578154D01*
X116009983Y-85552517D01*
X115984346Y-85521277D01*
X115965296Y-85485638D01*
X115953565Y-85446968D01*
X115949000Y-85400612D01*
X115949000Y-84749388D01*
X115953565Y-84703032D01*
X115965296Y-84664362D01*
X115984346Y-84628723D01*
X116009983Y-84597483D01*
X116041223Y-84571846D01*
X116076862Y-84552796D01*
X116115532Y-84541065D01*
X116161888Y-84536500D01*
X117238112Y-84536500D01*
X117284468Y-84541065D01*
X117284468Y-84541065D01*
G37*
G36*
X127501000Y-85501000D02*
G01*
X125699000Y-85501000D01*
X125699000Y-84099000D01*
X127501000Y-84099000D01*
X127501000Y-85501000D01*
X127501000Y-85501000D01*
G37*
G36*
X110784468Y-83791065D02*
G01*
X110823138Y-83802796D01*
X110858777Y-83821846D01*
X110890017Y-83847483D01*
X110915654Y-83878723D01*
X110934704Y-83914362D01*
X110946435Y-83953032D01*
X110951000Y-83999388D01*
X110951000Y-84650612D01*
X110946435Y-84696968D01*
X110934704Y-84735638D01*
X110915654Y-84771277D01*
X110890017Y-84802517D01*
X110858777Y-84828154D01*
X110823138Y-84847204D01*
X110784468Y-84858935D01*
X110738112Y-84863500D01*
X109661888Y-84863500D01*
X109615532Y-84858935D01*
X109576862Y-84847204D01*
X109541223Y-84828154D01*
X109509983Y-84802517D01*
X109484346Y-84771277D01*
X109465296Y-84735638D01*
X109453565Y-84696968D01*
X109449000Y-84650612D01*
X109449000Y-83999388D01*
X109453565Y-83953032D01*
X109465296Y-83914362D01*
X109484346Y-83878723D01*
X109509983Y-83847483D01*
X109541223Y-83821846D01*
X109576862Y-83802796D01*
X109615532Y-83791065D01*
X109661888Y-83786500D01*
X110738112Y-83786500D01*
X110784468Y-83791065D01*
X110784468Y-83791065D01*
G37*
G36*
X117284468Y-82666065D02*
G01*
X117323138Y-82677796D01*
X117358777Y-82696846D01*
X117390017Y-82722483D01*
X117415654Y-82753723D01*
X117434704Y-82789362D01*
X117446435Y-82828032D01*
X117451000Y-82874388D01*
X117451000Y-83525612D01*
X117446435Y-83571968D01*
X117434704Y-83610638D01*
X117415654Y-83646277D01*
X117390017Y-83677517D01*
X117358777Y-83703154D01*
X117323138Y-83722204D01*
X117284468Y-83733935D01*
X117238112Y-83738500D01*
X116161888Y-83738500D01*
X116115532Y-83733935D01*
X116076862Y-83722204D01*
X116041223Y-83703154D01*
X116009983Y-83677517D01*
X115984346Y-83646277D01*
X115965296Y-83610638D01*
X115953565Y-83571968D01*
X115949000Y-83525612D01*
X115949000Y-82874388D01*
X115953565Y-82828032D01*
X115965296Y-82789362D01*
X115984346Y-82753723D01*
X116009983Y-82722483D01*
X116041223Y-82696846D01*
X116076862Y-82677796D01*
X116115532Y-82666065D01*
X116161888Y-82661500D01*
X117238112Y-82661500D01*
X117284468Y-82666065D01*
X117284468Y-82666065D01*
G37*
G36*
X121284468Y-82666065D02*
G01*
X121323138Y-82677796D01*
X121358777Y-82696846D01*
X121390017Y-82722483D01*
X121415654Y-82753723D01*
X121434704Y-82789362D01*
X121446435Y-82828032D01*
X121451000Y-82874388D01*
X121451000Y-83525612D01*
X121446435Y-83571968D01*
X121434704Y-83610638D01*
X121415654Y-83646277D01*
X121390017Y-83677517D01*
X121358777Y-83703154D01*
X121323138Y-83722204D01*
X121284468Y-83733935D01*
X121238112Y-83738500D01*
X120161888Y-83738500D01*
X120115532Y-83733935D01*
X120076862Y-83722204D01*
X120041223Y-83703154D01*
X120009983Y-83677517D01*
X119984346Y-83646277D01*
X119965296Y-83610638D01*
X119953565Y-83571968D01*
X119949000Y-83525612D01*
X119949000Y-82874388D01*
X119953565Y-82828032D01*
X119965296Y-82789362D01*
X119984346Y-82753723D01*
X120009983Y-82722483D01*
X120041223Y-82696846D01*
X120076862Y-82677796D01*
X120115532Y-82666065D01*
X120161888Y-82661500D01*
X121238112Y-82661500D01*
X121284468Y-82666065D01*
X121284468Y-82666065D01*
G37*
G36*
X127501000Y-82001000D02*
G01*
X125699000Y-82001000D01*
X125699000Y-80599000D01*
X127501000Y-80599000D01*
X127501000Y-82001000D01*
X127501000Y-82001000D01*
G37*
G36*
X120584468Y-80466065D02*
G01*
X120623138Y-80477796D01*
X120658777Y-80496846D01*
X120690017Y-80522483D01*
X120715654Y-80553723D01*
X120734704Y-80589362D01*
X120746435Y-80628032D01*
X120751000Y-80674388D01*
X120751000Y-81325612D01*
X120746435Y-81371968D01*
X120734704Y-81410638D01*
X120715654Y-81446277D01*
X120690017Y-81477517D01*
X120658777Y-81503154D01*
X120623138Y-81522204D01*
X120584468Y-81533935D01*
X120538112Y-81538500D01*
X119461888Y-81538500D01*
X119415532Y-81533935D01*
X119376862Y-81522204D01*
X119341223Y-81503154D01*
X119309983Y-81477517D01*
X119284346Y-81446277D01*
X119265296Y-81410638D01*
X119253565Y-81371968D01*
X119249000Y-81325612D01*
X119249000Y-80674388D01*
X119253565Y-80628032D01*
X119265296Y-80589362D01*
X119284346Y-80553723D01*
X119309983Y-80522483D01*
X119341223Y-80496846D01*
X119376862Y-80477796D01*
X119415532Y-80466065D01*
X119461888Y-80461500D01*
X120538112Y-80461500D01*
X120584468Y-80466065D01*
X120584468Y-80466065D01*
G37*
G36*
X113136000Y-80151000D02*
G01*
X112444000Y-80151000D01*
X112444000Y-78839000D01*
X113136000Y-78839000D01*
X113136000Y-80151000D01*
X113136000Y-80151000D01*
G37*
G36*
X111236000Y-80151000D02*
G01*
X110544000Y-80151000D01*
X110544000Y-78839000D01*
X111236000Y-78839000D01*
X111236000Y-80151000D01*
X111236000Y-80151000D01*
G37*
G36*
X120584468Y-78591065D02*
G01*
X120623138Y-78602796D01*
X120658777Y-78621846D01*
X120690017Y-78647483D01*
X120715654Y-78678723D01*
X120734704Y-78714362D01*
X120746435Y-78753032D01*
X120751000Y-78799388D01*
X120751000Y-79450612D01*
X120746435Y-79496968D01*
X120734704Y-79535638D01*
X120715654Y-79571277D01*
X120690017Y-79602517D01*
X120658777Y-79628154D01*
X120623138Y-79647204D01*
X120584468Y-79658935D01*
X120538112Y-79663500D01*
X119461888Y-79663500D01*
X119415532Y-79658935D01*
X119376862Y-79647204D01*
X119341223Y-79628154D01*
X119309983Y-79602517D01*
X119284346Y-79571277D01*
X119265296Y-79535638D01*
X119253565Y-79496968D01*
X119249000Y-79450612D01*
X119249000Y-78799388D01*
X119253565Y-78753032D01*
X119265296Y-78714362D01*
X119284346Y-78678723D01*
X119309983Y-78647483D01*
X119341223Y-78621846D01*
X119376862Y-78602796D01*
X119415532Y-78591065D01*
X119461888Y-78586500D01*
X120538112Y-78586500D01*
X120584468Y-78591065D01*
X120584468Y-78591065D01*
G37*
G36*
X116462199Y-77199954D02*
G01*
X116474450Y-77200556D01*
X116492869Y-77200556D01*
X116515149Y-77202750D01*
X116599233Y-77219476D01*
X116620660Y-77225976D01*
X116699858Y-77258780D01*
X116705303Y-77261691D01*
X116705309Y-77261693D01*
X116714169Y-77266429D01*
X116714173Y-77266432D01*
X116719614Y-77269340D01*
X116790899Y-77316971D01*
X116808204Y-77331172D01*
X116868828Y-77391796D01*
X116883029Y-77409101D01*
X116930660Y-77480386D01*
X116933568Y-77485827D01*
X116933571Y-77485831D01*
X116938307Y-77494691D01*
X116938309Y-77494697D01*
X116941220Y-77500142D01*
X116974024Y-77579340D01*
X116980524Y-77600767D01*
X116997250Y-77684851D01*
X116999444Y-77707131D01*
X116999444Y-77725550D01*
X117000046Y-77737801D01*
X117001852Y-77756139D01*
X117001852Y-78243860D01*
X117000263Y-78259999D01*
X116997348Y-78269608D01*
X116992610Y-78278472D01*
X116986237Y-78286237D01*
X116973794Y-78296448D01*
X116963425Y-78303378D01*
X116946098Y-78320705D01*
X116932485Y-78341080D01*
X116923109Y-78363720D01*
X116918329Y-78387753D01*
X116918330Y-78412257D01*
X116923112Y-78436290D01*
X116932490Y-78458929D01*
X116946105Y-78479302D01*
X116963432Y-78496629D01*
X116973802Y-78503558D01*
X116986237Y-78513763D01*
X116992610Y-78521528D01*
X116997348Y-78530392D01*
X117000263Y-78540001D01*
X117001852Y-78556140D01*
X117001852Y-79043862D01*
X117000046Y-79062199D01*
X116999444Y-79074450D01*
X116999444Y-79092869D01*
X116997250Y-79115149D01*
X116980524Y-79199233D01*
X116974024Y-79220660D01*
X116941220Y-79299858D01*
X116938309Y-79305303D01*
X116938307Y-79305309D01*
X116933571Y-79314169D01*
X116933568Y-79314173D01*
X116930660Y-79319614D01*
X116883029Y-79390899D01*
X116868828Y-79408204D01*
X116808204Y-79468828D01*
X116790899Y-79483029D01*
X116719614Y-79530660D01*
X116714173Y-79533568D01*
X116714169Y-79533571D01*
X116705309Y-79538307D01*
X116705303Y-79538309D01*
X116699858Y-79541220D01*
X116620660Y-79574024D01*
X116599233Y-79580524D01*
X116515149Y-79597250D01*
X116492869Y-79599444D01*
X116474450Y-79599444D01*
X116462199Y-79600046D01*
X116443862Y-79601852D01*
X115956138Y-79601852D01*
X115937801Y-79600046D01*
X115925550Y-79599444D01*
X115907131Y-79599444D01*
X115884851Y-79597250D01*
X115800767Y-79580524D01*
X115779340Y-79574024D01*
X115700142Y-79541220D01*
X115694697Y-79538309D01*
X115694691Y-79538307D01*
X115685831Y-79533571D01*
X115685827Y-79533568D01*
X115680386Y-79530660D01*
X115609101Y-79483029D01*
X115591796Y-79468828D01*
X115531172Y-79408204D01*
X115516971Y-79390899D01*
X115469340Y-79319614D01*
X115466432Y-79314173D01*
X115466429Y-79314169D01*
X115461693Y-79305309D01*
X115461691Y-79305303D01*
X115458780Y-79299858D01*
X115425976Y-79220660D01*
X115419476Y-79199233D01*
X115402750Y-79115149D01*
X115400556Y-79092869D01*
X115400556Y-79074450D01*
X115399954Y-79062199D01*
X115398148Y-79043862D01*
X115398148Y-78556140D01*
X115399737Y-78540001D01*
X115402652Y-78530392D01*
X115407390Y-78521528D01*
X115413763Y-78513763D01*
X115426206Y-78503552D01*
X115436575Y-78496622D01*
X115453902Y-78479295D01*
X115467515Y-78458920D01*
X115476891Y-78436280D01*
X115481671Y-78412247D01*
X115481670Y-78387743D01*
X115476888Y-78363710D01*
X115467510Y-78341071D01*
X115453895Y-78320698D01*
X115436568Y-78303371D01*
X115426198Y-78296442D01*
X115413763Y-78286237D01*
X115407390Y-78278472D01*
X115402652Y-78269608D01*
X115399737Y-78259999D01*
X115398148Y-78243860D01*
X115398148Y-77756139D01*
X115399954Y-77737801D01*
X115400556Y-77725550D01*
X115400556Y-77707131D01*
X115402750Y-77684851D01*
X115419476Y-77600767D01*
X115425976Y-77579340D01*
X115458780Y-77500142D01*
X115461691Y-77494697D01*
X115461693Y-77494691D01*
X115466429Y-77485831D01*
X115466432Y-77485827D01*
X115469340Y-77480386D01*
X115516971Y-77409101D01*
X115531172Y-77391796D01*
X115591796Y-77331172D01*
X115609101Y-77316971D01*
X115680386Y-77269340D01*
X115685827Y-77266432D01*
X115685831Y-77266429D01*
X115694691Y-77261693D01*
X115694697Y-77261691D01*
X115700142Y-77258780D01*
X115779340Y-77225976D01*
X115800767Y-77219476D01*
X115884851Y-77202750D01*
X115907131Y-77200556D01*
X115925550Y-77200556D01*
X115937801Y-77199954D01*
X115956139Y-77198148D01*
X116443861Y-77198148D01*
X116462199Y-77199954D01*
X116462199Y-77199954D01*
G37*
G36*
X127184468Y-78266065D02*
G01*
X127223138Y-78277796D01*
X127258777Y-78296846D01*
X127290017Y-78322483D01*
X127315654Y-78353723D01*
X127334704Y-78389362D01*
X127346435Y-78428032D01*
X127351000Y-78474388D01*
X127351000Y-79125612D01*
X127346435Y-79171968D01*
X127334704Y-79210638D01*
X127315654Y-79246277D01*
X127290017Y-79277517D01*
X127258777Y-79303154D01*
X127223138Y-79322204D01*
X127184468Y-79333935D01*
X127138112Y-79338500D01*
X126061888Y-79338500D01*
X126015532Y-79333935D01*
X125976862Y-79322204D01*
X125941223Y-79303154D01*
X125909983Y-79277517D01*
X125884346Y-79246277D01*
X125865296Y-79210638D01*
X125853565Y-79171968D01*
X125849000Y-79125612D01*
X125849000Y-78474388D01*
X125853565Y-78428032D01*
X125865296Y-78389362D01*
X125884346Y-78353723D01*
X125909983Y-78322483D01*
X125941223Y-78296846D01*
X125976862Y-78277796D01*
X126015532Y-78266065D01*
X126061888Y-78261500D01*
X127138112Y-78261500D01*
X127184468Y-78266065D01*
X127184468Y-78266065D01*
G37*
G36*
X112186000Y-77641000D02*
G01*
X111494000Y-77641000D01*
X111494000Y-76329000D01*
X112186000Y-76329000D01*
X112186000Y-77641000D01*
X112186000Y-77641000D01*
G37*
G36*
X127184468Y-76391065D02*
G01*
X127223138Y-76402796D01*
X127258777Y-76421846D01*
X127290017Y-76447483D01*
X127315654Y-76478723D01*
X127334704Y-76514362D01*
X127346435Y-76553032D01*
X127351000Y-76599388D01*
X127351000Y-77250612D01*
X127346435Y-77296968D01*
X127334704Y-77335638D01*
X127315654Y-77371277D01*
X127290017Y-77402517D01*
X127258777Y-77428154D01*
X127223138Y-77447204D01*
X127184468Y-77458935D01*
X127138112Y-77463500D01*
X126061888Y-77463500D01*
X126015532Y-77458935D01*
X125976862Y-77447204D01*
X125941223Y-77428154D01*
X125909983Y-77402517D01*
X125884346Y-77371277D01*
X125865296Y-77335638D01*
X125853565Y-77296968D01*
X125849000Y-77250612D01*
X125849000Y-76599388D01*
X125853565Y-76553032D01*
X125865296Y-76514362D01*
X125884346Y-76478723D01*
X125909983Y-76447483D01*
X125941223Y-76421846D01*
X125976862Y-76402796D01*
X126015532Y-76391065D01*
X126061888Y-76386500D01*
X127138112Y-76386500D01*
X127184468Y-76391065D01*
X127184468Y-76391065D01*
G37*
G36*
X120784468Y-75341065D02*
G01*
X120823138Y-75352796D01*
X120858777Y-75371846D01*
X120890017Y-75397483D01*
X120915654Y-75428723D01*
X120934704Y-75464362D01*
X120946435Y-75503032D01*
X120951000Y-75549388D01*
X120951000Y-76200612D01*
X120946435Y-76246968D01*
X120934704Y-76285638D01*
X120915654Y-76321277D01*
X120890017Y-76352517D01*
X120858777Y-76378154D01*
X120823138Y-76397204D01*
X120784468Y-76408935D01*
X120738112Y-76413500D01*
X119661888Y-76413500D01*
X119615532Y-76408935D01*
X119576862Y-76397204D01*
X119541223Y-76378154D01*
X119509983Y-76352517D01*
X119484346Y-76321277D01*
X119465296Y-76285638D01*
X119453565Y-76246968D01*
X119449000Y-76200612D01*
X119449000Y-75549388D01*
X119453565Y-75503032D01*
X119465296Y-75464362D01*
X119484346Y-75428723D01*
X119509983Y-75397483D01*
X119541223Y-75371846D01*
X119576862Y-75352796D01*
X119615532Y-75341065D01*
X119661888Y-75336500D01*
X120738112Y-75336500D01*
X120784468Y-75341065D01*
X120784468Y-75341065D01*
G37*
G36*
X122984468Y-75303565D02*
G01*
X123023138Y-75315296D01*
X123058777Y-75334346D01*
X123090017Y-75359983D01*
X123115654Y-75391223D01*
X123134704Y-75426862D01*
X123146435Y-75465532D01*
X123151000Y-75511888D01*
X123151000Y-76163112D01*
X123146435Y-76209468D01*
X123134704Y-76248138D01*
X123115654Y-76283777D01*
X123090017Y-76315017D01*
X123058777Y-76340654D01*
X123023138Y-76359704D01*
X122984468Y-76371435D01*
X122938112Y-76376000D01*
X121861888Y-76376000D01*
X121815532Y-76371435D01*
X121776862Y-76359704D01*
X121741223Y-76340654D01*
X121709983Y-76315017D01*
X121684346Y-76283777D01*
X121665296Y-76248138D01*
X121653565Y-76209468D01*
X121649000Y-76163112D01*
X121649000Y-75511888D01*
X121653565Y-75465532D01*
X121665296Y-75426862D01*
X121684346Y-75391223D01*
X121709983Y-75359983D01*
X121741223Y-75334346D01*
X121776862Y-75315296D01*
X121815532Y-75303565D01*
X121861888Y-75299000D01*
X122938112Y-75299000D01*
X122984468Y-75303565D01*
X122984468Y-75303565D01*
G37*
G36*
X115351000Y-75426000D02*
G01*
X114699000Y-75426000D01*
X114699000Y-73574000D01*
X115351000Y-73574000D01*
X115351000Y-75426000D01*
X115351000Y-75426000D01*
G37*
G36*
X117701000Y-75426000D02*
G01*
X117049000Y-75426000D01*
X117049000Y-73574000D01*
X117701000Y-73574000D01*
X117701000Y-75426000D01*
X117701000Y-75426000D01*
G37*
G36*
X116751000Y-75401000D02*
G01*
X115649000Y-75401000D01*
X115649000Y-73599000D01*
X116751000Y-73599000D01*
X116751000Y-75401000D01*
X116751000Y-75401000D01*
G37*
G36*
X120784468Y-73466065D02*
G01*
X120823138Y-73477796D01*
X120858777Y-73496846D01*
X120890017Y-73522483D01*
X120915654Y-73553723D01*
X120934704Y-73589362D01*
X120946435Y-73628032D01*
X120951000Y-73674388D01*
X120951000Y-74325612D01*
X120946435Y-74371968D01*
X120934704Y-74410638D01*
X120915654Y-74446277D01*
X120890017Y-74477517D01*
X120858777Y-74503154D01*
X120823138Y-74522204D01*
X120784468Y-74533935D01*
X120738112Y-74538500D01*
X119661888Y-74538500D01*
X119615532Y-74533935D01*
X119576862Y-74522204D01*
X119541223Y-74503154D01*
X119509983Y-74477517D01*
X119484346Y-74446277D01*
X119465296Y-74410638D01*
X119453565Y-74371968D01*
X119449000Y-74325612D01*
X119449000Y-73674388D01*
X119453565Y-73628032D01*
X119465296Y-73589362D01*
X119484346Y-73553723D01*
X119509983Y-73522483D01*
X119541223Y-73496846D01*
X119576862Y-73477796D01*
X119615532Y-73466065D01*
X119661888Y-73461500D01*
X120738112Y-73461500D01*
X120784468Y-73466065D01*
X120784468Y-73466065D01*
G37*
G36*
X122984468Y-73428565D02*
G01*
X123023138Y-73440296D01*
X123058777Y-73459346D01*
X123090017Y-73484983D01*
X123115654Y-73516223D01*
X123134704Y-73551862D01*
X123146435Y-73590532D01*
X123151000Y-73636888D01*
X123151000Y-74288112D01*
X123146435Y-74334468D01*
X123134704Y-74373138D01*
X123115654Y-74408777D01*
X123090017Y-74440017D01*
X123058777Y-74465654D01*
X123023138Y-74484704D01*
X122984468Y-74496435D01*
X122938112Y-74501000D01*
X121861888Y-74501000D01*
X121815532Y-74496435D01*
X121776862Y-74484704D01*
X121741223Y-74465654D01*
X121709983Y-74440017D01*
X121684346Y-74408777D01*
X121665296Y-74373138D01*
X121653565Y-74334468D01*
X121649000Y-74288112D01*
X121649000Y-73636888D01*
X121653565Y-73590532D01*
X121665296Y-73551862D01*
X121684346Y-73516223D01*
X121709983Y-73484983D01*
X121741223Y-73459346D01*
X121776862Y-73440296D01*
X121815532Y-73428565D01*
X121861888Y-73424000D01*
X122938112Y-73424000D01*
X122984468Y-73428565D01*
X122984468Y-73428565D01*
G37*
G36*
X130971968Y-71953565D02*
G01*
X131010638Y-71965296D01*
X131046277Y-71984346D01*
X131077517Y-72009983D01*
X131103154Y-72041223D01*
X131122204Y-72076862D01*
X131133935Y-72115532D01*
X131138500Y-72161888D01*
X131138500Y-73238112D01*
X131133935Y-73284468D01*
X131122204Y-73323138D01*
X131103154Y-73358777D01*
X131077517Y-73390017D01*
X131046277Y-73415654D01*
X131010638Y-73434704D01*
X130971968Y-73446435D01*
X130925612Y-73451000D01*
X130274388Y-73451000D01*
X130228032Y-73446435D01*
X130189362Y-73434704D01*
X130153723Y-73415654D01*
X130122483Y-73390017D01*
X130096846Y-73358777D01*
X130077796Y-73323138D01*
X130066065Y-73284468D01*
X130061500Y-73238112D01*
X130061500Y-72161888D01*
X130066065Y-72115532D01*
X130077796Y-72076862D01*
X130096846Y-72041223D01*
X130122483Y-72009983D01*
X130153723Y-71984346D01*
X130189362Y-71965296D01*
X130228032Y-71953565D01*
X130274388Y-71949000D01*
X130925612Y-71949000D01*
X130971968Y-71953565D01*
X130971968Y-71953565D01*
G37*
G36*
X129096968Y-71953565D02*
G01*
X129135638Y-71965296D01*
X129171277Y-71984346D01*
X129202517Y-72009983D01*
X129228154Y-72041223D01*
X129247204Y-72076862D01*
X129258935Y-72115532D01*
X129263500Y-72161888D01*
X129263500Y-73238112D01*
X129258935Y-73284468D01*
X129247204Y-73323138D01*
X129228154Y-73358777D01*
X129202517Y-73390017D01*
X129171277Y-73415654D01*
X129135638Y-73434704D01*
X129096968Y-73446435D01*
X129050612Y-73451000D01*
X128399388Y-73451000D01*
X128353032Y-73446435D01*
X128314362Y-73434704D01*
X128278723Y-73415654D01*
X128247483Y-73390017D01*
X128221846Y-73358777D01*
X128202796Y-73323138D01*
X128191065Y-73284468D01*
X128186500Y-73238112D01*
X128186500Y-72161888D01*
X128191065Y-72115532D01*
X128202796Y-72076862D01*
X128221846Y-72041223D01*
X128247483Y-72009983D01*
X128278723Y-71984346D01*
X128314362Y-71965296D01*
X128353032Y-71953565D01*
X128399388Y-71949000D01*
X129050612Y-71949000D01*
X129096968Y-71953565D01*
X129096968Y-71953565D01*
G37*
G36*
X112676000Y-72001000D02*
G01*
X111774000Y-72001000D01*
X111774000Y-69899000D01*
X112676000Y-69899000D01*
X112676000Y-72001000D01*
X112676000Y-72001000D01*
G37*
G36*
X111406000Y-72001000D02*
G01*
X110504000Y-72001000D01*
X110504000Y-69899000D01*
X111406000Y-69899000D01*
X111406000Y-72001000D01*
X111406000Y-72001000D01*
G37*
G36*
X110136000Y-72001000D02*
G01*
X109234000Y-72001000D01*
X109234000Y-69899000D01*
X110136000Y-69899000D01*
X110136000Y-72001000D01*
X110136000Y-72001000D01*
G37*
G36*
X108866000Y-72001000D02*
G01*
X107964000Y-72001000D01*
X107964000Y-69899000D01*
X108866000Y-69899000D01*
X108866000Y-72001000D01*
X108866000Y-72001000D01*
G37*
G36*
X113946000Y-72001000D02*
G01*
X113044000Y-72001000D01*
X113044000Y-69899000D01*
X113946000Y-69899000D01*
X113946000Y-72001000D01*
X113946000Y-72001000D01*
G37*
G36*
X119026000Y-72001000D02*
G01*
X118124000Y-72001000D01*
X118124000Y-69899000D01*
X119026000Y-69899000D01*
X119026000Y-72001000D01*
X119026000Y-72001000D01*
G37*
G36*
X120296000Y-72001000D02*
G01*
X119394000Y-72001000D01*
X119394000Y-69899000D01*
X120296000Y-69899000D01*
X120296000Y-72001000D01*
X120296000Y-72001000D01*
G37*
G36*
X115216000Y-72001000D02*
G01*
X114314000Y-72001000D01*
X114314000Y-69899000D01*
X115216000Y-69899000D01*
X115216000Y-72001000D01*
X115216000Y-72001000D01*
G37*
G36*
X116486000Y-72001000D02*
G01*
X115584000Y-72001000D01*
X115584000Y-69899000D01*
X116486000Y-69899000D01*
X116486000Y-72001000D01*
X116486000Y-72001000D01*
G37*
G36*
X121566000Y-72001000D02*
G01*
X120664000Y-72001000D01*
X120664000Y-69899000D01*
X121566000Y-69899000D01*
X121566000Y-72001000D01*
X121566000Y-72001000D01*
G37*
G36*
X122836000Y-72001000D02*
G01*
X121934000Y-72001000D01*
X121934000Y-69899000D01*
X122836000Y-69899000D01*
X122836000Y-72001000D01*
X122836000Y-72001000D01*
G37*
G36*
X117756000Y-72001000D02*
G01*
X116854000Y-72001000D01*
X116854000Y-69899000D01*
X117756000Y-69899000D01*
X117756000Y-72001000D01*
X117756000Y-72001000D01*
G37*
G36*
X129054468Y-68398565D02*
G01*
X129093138Y-68410296D01*
X129128777Y-68429346D01*
X129160017Y-68454983D01*
X129185654Y-68486223D01*
X129204704Y-68521862D01*
X129216435Y-68560532D01*
X129221000Y-68606888D01*
X129221000Y-69683112D01*
X129216435Y-69729468D01*
X129204704Y-69768138D01*
X129185654Y-69803777D01*
X129160017Y-69835017D01*
X129128777Y-69860654D01*
X129093138Y-69879704D01*
X129054468Y-69891435D01*
X129008112Y-69896000D01*
X128356888Y-69896000D01*
X128310532Y-69891435D01*
X128271862Y-69879704D01*
X128236223Y-69860654D01*
X128204983Y-69835017D01*
X128179346Y-69803777D01*
X128160296Y-69768138D01*
X128148565Y-69729468D01*
X128144000Y-69683112D01*
X128144000Y-68606888D01*
X128148565Y-68560532D01*
X128160296Y-68521862D01*
X128179346Y-68486223D01*
X128204983Y-68454983D01*
X128236223Y-68429346D01*
X128271862Y-68410296D01*
X128310532Y-68398565D01*
X128356888Y-68394000D01*
X129008112Y-68394000D01*
X129054468Y-68398565D01*
X129054468Y-68398565D01*
G37*
G36*
X130929468Y-68398565D02*
G01*
X130968138Y-68410296D01*
X131003777Y-68429346D01*
X131035017Y-68454983D01*
X131060654Y-68486223D01*
X131079704Y-68521862D01*
X131091435Y-68560532D01*
X131096000Y-68606888D01*
X131096000Y-69683112D01*
X131091435Y-69729468D01*
X131079704Y-69768138D01*
X131060654Y-69803777D01*
X131035017Y-69835017D01*
X131003777Y-69860654D01*
X130968138Y-69879704D01*
X130929468Y-69891435D01*
X130883112Y-69896000D01*
X130231888Y-69896000D01*
X130185532Y-69891435D01*
X130146862Y-69879704D01*
X130111223Y-69860654D01*
X130079983Y-69835017D01*
X130054346Y-69803777D01*
X130035296Y-69768138D01*
X130023565Y-69729468D01*
X130019000Y-69683112D01*
X130019000Y-68606888D01*
X130023565Y-68560532D01*
X130035296Y-68521862D01*
X130054346Y-68486223D01*
X130079983Y-68454983D01*
X130111223Y-68429346D01*
X130146862Y-68410296D01*
X130185532Y-68398565D01*
X130231888Y-68394000D01*
X130883112Y-68394000D01*
X130929468Y-68398565D01*
X130929468Y-68398565D01*
G37*
G36*
X107721000Y-69656000D02*
G01*
X105619000Y-69656000D01*
X105619000Y-68754000D01*
X107721000Y-68754000D01*
X107721000Y-69656000D01*
X107721000Y-69656000D01*
G37*
G36*
X125181000Y-69656000D02*
G01*
X123079000Y-69656000D01*
X123079000Y-68754000D01*
X125181000Y-68754000D01*
X125181000Y-69656000D01*
X125181000Y-69656000D01*
G37*
G36*
X107721000Y-68386000D02*
G01*
X105619000Y-68386000D01*
X105619000Y-67484000D01*
X107721000Y-67484000D01*
X107721000Y-68386000D01*
X107721000Y-68386000D01*
G37*
G36*
X125181000Y-68386000D02*
G01*
X123079000Y-68386000D01*
X123079000Y-67484000D01*
X125181000Y-67484000D01*
X125181000Y-68386000D01*
X125181000Y-68386000D01*
G37*
G36*
X125181000Y-67116000D02*
G01*
X123079000Y-67116000D01*
X123079000Y-66214000D01*
X125181000Y-66214000D01*
X125181000Y-67116000D01*
X125181000Y-67116000D01*
G37*
G36*
X107721000Y-67116000D02*
G01*
X105619000Y-67116000D01*
X105619000Y-66214000D01*
X107721000Y-66214000D01*
X107721000Y-67116000D01*
X107721000Y-67116000D01*
G37*
G36*
X125181000Y-65846000D02*
G01*
X123079000Y-65846000D01*
X123079000Y-64944000D01*
X125181000Y-64944000D01*
X125181000Y-65846000D01*
X125181000Y-65846000D01*
G37*
G36*
X107721000Y-65846000D02*
G01*
X105619000Y-65846000D01*
X105619000Y-64944000D01*
X107721000Y-64944000D01*
X107721000Y-65846000D01*
X107721000Y-65846000D01*
G37*
G36*
X125181000Y-64576000D02*
G01*
X123079000Y-64576000D01*
X123079000Y-63674000D01*
X125181000Y-63674000D01*
X125181000Y-64576000D01*
X125181000Y-64576000D01*
G37*
G36*
X107721000Y-64576000D02*
G01*
X105619000Y-64576000D01*
X105619000Y-63674000D01*
X107721000Y-63674000D01*
X107721000Y-64576000D01*
X107721000Y-64576000D01*
G37*
G36*
X129700721Y-62970174D02*
G01*
X129800995Y-63011709D01*
X129800996Y-63011710D01*
X129891242Y-63072010D01*
X129967990Y-63148758D01*
X129967991Y-63148760D01*
X130028291Y-63239005D01*
X130069826Y-63339279D01*
X130091000Y-63445730D01*
X130091000Y-63554270D01*
X130069826Y-63660721D01*
X130028291Y-63760995D01*
X130028290Y-63760996D01*
X129967990Y-63851242D01*
X129891242Y-63927990D01*
X129845812Y-63958345D01*
X129800995Y-63988291D01*
X129700721Y-64029826D01*
X129594270Y-64051000D01*
X129485730Y-64051000D01*
X129379279Y-64029826D01*
X129279005Y-63988291D01*
X129234188Y-63958345D01*
X129188758Y-63927990D01*
X129112010Y-63851242D01*
X129051710Y-63760996D01*
X129051709Y-63760995D01*
X129010174Y-63660721D01*
X128989000Y-63554270D01*
X128989000Y-63445730D01*
X129010174Y-63339279D01*
X129051709Y-63239005D01*
X129112009Y-63148760D01*
X129112010Y-63148758D01*
X129188758Y-63072010D01*
X129279004Y-63011710D01*
X129279005Y-63011709D01*
X129379279Y-62970174D01*
X129485730Y-62949000D01*
X129594270Y-62949000D01*
X129700721Y-62970174D01*
X129700721Y-62970174D01*
G37*
G36*
X125181000Y-63306000D02*
G01*
X123079000Y-63306000D01*
X123079000Y-62404000D01*
X125181000Y-62404000D01*
X125181000Y-63306000D01*
X125181000Y-63306000D01*
G37*
G36*
X107721000Y-63306000D02*
G01*
X105619000Y-63306000D01*
X105619000Y-62404000D01*
X107721000Y-62404000D01*
X107721000Y-63306000D01*
X107721000Y-63306000D01*
G37*
G36*
X125181000Y-62036000D02*
G01*
X123079000Y-62036000D01*
X123079000Y-61134000D01*
X125181000Y-61134000D01*
X125181000Y-62036000D01*
X125181000Y-62036000D01*
G37*
G36*
X107721000Y-62036000D02*
G01*
X105619000Y-62036000D01*
X105619000Y-61134000D01*
X107721000Y-61134000D01*
X107721000Y-62036000D01*
X107721000Y-62036000D01*
G37*
G36*
X129700721Y-60430174D02*
G01*
X129800995Y-60471709D01*
X129800996Y-60471710D01*
X129891242Y-60532010D01*
X129967990Y-60608758D01*
X129967991Y-60608760D01*
X130028291Y-60699005D01*
X130069826Y-60799279D01*
X130091000Y-60905730D01*
X130091000Y-61014270D01*
X130069826Y-61120721D01*
X130028291Y-61220995D01*
X130028290Y-61220996D01*
X129967990Y-61311242D01*
X129891242Y-61387990D01*
X129845812Y-61418345D01*
X129800995Y-61448291D01*
X129700721Y-61489826D01*
X129594270Y-61511000D01*
X129485730Y-61511000D01*
X129379279Y-61489826D01*
X129279005Y-61448291D01*
X129234188Y-61418345D01*
X129188758Y-61387990D01*
X129112010Y-61311242D01*
X129051710Y-61220996D01*
X129051709Y-61220995D01*
X129010174Y-61120721D01*
X128989000Y-61014270D01*
X128989000Y-60905730D01*
X129010174Y-60799279D01*
X129051709Y-60699005D01*
X129112009Y-60608760D01*
X129112010Y-60608758D01*
X129188758Y-60532010D01*
X129279004Y-60471710D01*
X129279005Y-60471709D01*
X129379279Y-60430174D01*
X129485730Y-60409000D01*
X129594270Y-60409000D01*
X129700721Y-60430174D01*
X129700721Y-60430174D01*
G37*
G36*
X125181000Y-60766000D02*
G01*
X123079000Y-60766000D01*
X123079000Y-59864000D01*
X125181000Y-59864000D01*
X125181000Y-60766000D01*
X125181000Y-60766000D01*
G37*
G36*
X107721000Y-60766000D02*
G01*
X105619000Y-60766000D01*
X105619000Y-59864000D01*
X107721000Y-59864000D01*
X107721000Y-60766000D01*
X107721000Y-60766000D01*
G37*
G36*
X125181000Y-59496000D02*
G01*
X123079000Y-59496000D01*
X123079000Y-58594000D01*
X125181000Y-58594000D01*
X125181000Y-59496000D01*
X125181000Y-59496000D01*
G37*
G36*
X107721000Y-59496000D02*
G01*
X105619000Y-59496000D01*
X105619000Y-58594000D01*
X107721000Y-58594000D01*
X107721000Y-59496000D01*
X107721000Y-59496000D01*
G37*
G36*
X129700721Y-57890174D02*
G01*
X129800995Y-57931709D01*
X129800996Y-57931710D01*
X129891242Y-57992010D01*
X129967990Y-58068758D01*
X129967991Y-58068760D01*
X130028291Y-58159005D01*
X130069826Y-58259279D01*
X130091000Y-58365730D01*
X130091000Y-58474270D01*
X130069826Y-58580721D01*
X130028291Y-58680995D01*
X130028290Y-58680996D01*
X129967990Y-58771242D01*
X129891242Y-58847990D01*
X129845812Y-58878345D01*
X129800995Y-58908291D01*
X129700721Y-58949826D01*
X129594270Y-58971000D01*
X129485730Y-58971000D01*
X129379279Y-58949826D01*
X129279005Y-58908291D01*
X129234188Y-58878345D01*
X129188758Y-58847990D01*
X129112010Y-58771242D01*
X129051710Y-58680996D01*
X129051709Y-58680995D01*
X129010174Y-58580721D01*
X128989000Y-58474270D01*
X128989000Y-58365730D01*
X129010174Y-58259279D01*
X129051709Y-58159005D01*
X129112009Y-58068760D01*
X129112010Y-58068758D01*
X129188758Y-57992010D01*
X129279004Y-57931710D01*
X129279005Y-57931709D01*
X129379279Y-57890174D01*
X129485730Y-57869000D01*
X129594270Y-57869000D01*
X129700721Y-57890174D01*
X129700721Y-57890174D01*
G37*
G36*
X107721000Y-58226000D02*
G01*
X105619000Y-58226000D01*
X105619000Y-57324000D01*
X107721000Y-57324000D01*
X107721000Y-58226000D01*
X107721000Y-58226000D01*
G37*
G36*
X125181000Y-58226000D02*
G01*
X123079000Y-58226000D01*
X123079000Y-57324000D01*
X125181000Y-57324000D01*
X125181000Y-58226000D01*
X125181000Y-58226000D01*
G37*
G36*
X107721000Y-56956000D02*
G01*
X105619000Y-56956000D01*
X105619000Y-56054000D01*
X107721000Y-56054000D01*
X107721000Y-56956000D01*
X107721000Y-56956000D01*
G37*
G36*
X125181000Y-56956000D02*
G01*
X123079000Y-56956000D01*
X123079000Y-56054000D01*
X125181000Y-56054000D01*
X125181000Y-56956000D01*
X125181000Y-56956000D01*
G37*
G36*
X129700721Y-55350174D02*
G01*
X129800995Y-55391709D01*
X129800996Y-55391710D01*
X129891242Y-55452010D01*
X129967990Y-55528758D01*
X129967991Y-55528760D01*
X130028291Y-55619005D01*
X130069826Y-55719279D01*
X130091000Y-55825730D01*
X130091000Y-55934270D01*
X130069826Y-56040721D01*
X130028291Y-56140995D01*
X130028290Y-56140996D01*
X129967990Y-56231242D01*
X129891242Y-56307990D01*
X129845812Y-56338345D01*
X129800995Y-56368291D01*
X129700721Y-56409826D01*
X129594270Y-56431000D01*
X129485730Y-56431000D01*
X129379279Y-56409826D01*
X129279005Y-56368291D01*
X129234188Y-56338345D01*
X129188758Y-56307990D01*
X129112010Y-56231242D01*
X129051710Y-56140996D01*
X129051709Y-56140995D01*
X129010174Y-56040721D01*
X128989000Y-55934270D01*
X128989000Y-55825730D01*
X129010174Y-55719279D01*
X129051709Y-55619005D01*
X129112009Y-55528760D01*
X129112010Y-55528758D01*
X129188758Y-55452010D01*
X129279004Y-55391710D01*
X129279005Y-55391709D01*
X129379279Y-55350174D01*
X129485730Y-55329000D01*
X129594270Y-55329000D01*
X129700721Y-55350174D01*
X129700721Y-55350174D01*
G37*
G36*
X107721000Y-55686000D02*
G01*
X105619000Y-55686000D01*
X105619000Y-54784000D01*
X107721000Y-54784000D01*
X107721000Y-55686000D01*
X107721000Y-55686000D01*
G37*
G36*
X125181000Y-55686000D02*
G01*
X123079000Y-55686000D01*
X123079000Y-54784000D01*
X125181000Y-54784000D01*
X125181000Y-55686000D01*
X125181000Y-55686000D01*
G37*
G36*
X125181000Y-54416000D02*
G01*
X123079000Y-54416000D01*
X123079000Y-53514000D01*
X125181000Y-53514000D01*
X125181000Y-54416000D01*
X125181000Y-54416000D01*
G37*
G36*
X107721000Y-54416000D02*
G01*
X105619000Y-54416000D01*
X105619000Y-53514000D01*
X107721000Y-53514000D01*
X107721000Y-54416000D01*
X107721000Y-54416000D01*
G37*
G36*
X129700721Y-52810174D02*
G01*
X129800995Y-52851709D01*
X129800996Y-52851710D01*
X129891242Y-52912010D01*
X129967990Y-52988758D01*
X129967991Y-52988760D01*
X130028291Y-53079005D01*
X130069826Y-53179279D01*
X130091000Y-53285730D01*
X130091000Y-53394270D01*
X130069826Y-53500721D01*
X130028291Y-53600995D01*
X130028290Y-53600996D01*
X129967990Y-53691242D01*
X129891242Y-53767990D01*
X129845812Y-53798345D01*
X129800995Y-53828291D01*
X129700721Y-53869826D01*
X129594270Y-53891000D01*
X129485730Y-53891000D01*
X129379279Y-53869826D01*
X129279005Y-53828291D01*
X129234188Y-53798345D01*
X129188758Y-53767990D01*
X129112010Y-53691242D01*
X129051710Y-53600996D01*
X129051709Y-53600995D01*
X129010174Y-53500721D01*
X128989000Y-53394270D01*
X128989000Y-53285730D01*
X129010174Y-53179279D01*
X129051709Y-53079005D01*
X129112009Y-52988760D01*
X129112010Y-52988758D01*
X129188758Y-52912010D01*
X129279004Y-52851710D01*
X129279005Y-52851709D01*
X129379279Y-52810174D01*
X129485730Y-52789000D01*
X129594270Y-52789000D01*
X129700721Y-52810174D01*
X129700721Y-52810174D01*
G37*
G36*
X125181000Y-53146000D02*
G01*
X123079000Y-53146000D01*
X123079000Y-52244000D01*
X125181000Y-52244000D01*
X125181000Y-53146000D01*
X125181000Y-53146000D01*
G37*
G36*
X107721000Y-53146000D02*
G01*
X105619000Y-53146000D01*
X105619000Y-52244000D01*
X107721000Y-52244000D01*
X107721000Y-53146000D01*
X107721000Y-53146000D01*
G37*
G36*
X129700721Y-50270174D02*
G01*
X129800995Y-50311709D01*
X129800996Y-50311710D01*
X129891242Y-50372010D01*
X129967990Y-50448758D01*
X129967991Y-50448760D01*
X130028291Y-50539005D01*
X130069826Y-50639279D01*
X130091000Y-50745730D01*
X130091000Y-50854270D01*
X130069826Y-50960721D01*
X130028291Y-51060995D01*
X130028290Y-51060996D01*
X129967990Y-51151242D01*
X129891242Y-51227990D01*
X129845812Y-51258345D01*
X129800995Y-51288291D01*
X129700721Y-51329826D01*
X129594270Y-51351000D01*
X129485730Y-51351000D01*
X129379279Y-51329826D01*
X129279005Y-51288291D01*
X129234188Y-51258345D01*
X129188758Y-51227990D01*
X129112010Y-51151242D01*
X129051710Y-51060996D01*
X129051709Y-51060995D01*
X129010174Y-50960721D01*
X128989000Y-50854270D01*
X128989000Y-50745730D01*
X129010174Y-50639279D01*
X129051709Y-50539005D01*
X129112009Y-50448760D01*
X129112010Y-50448758D01*
X129188758Y-50372010D01*
X129279004Y-50311710D01*
X129279005Y-50311709D01*
X129379279Y-50270174D01*
X129485730Y-50249000D01*
X129594270Y-50249000D01*
X129700721Y-50270174D01*
X129700721Y-50270174D01*
G37*
G36*
X125201000Y-50606000D02*
G01*
X123099000Y-50606000D01*
X123099000Y-49704000D01*
X125201000Y-49704000D01*
X125201000Y-50606000D01*
X125201000Y-50606000D01*
G37*
G36*
X107701000Y-50606000D02*
G01*
X105599000Y-50606000D01*
X105599000Y-49704000D01*
X107701000Y-49704000D01*
X107701000Y-50606000D01*
X107701000Y-50606000D01*
G37*
G36*
X107701000Y-49336000D02*
G01*
X105599000Y-49336000D01*
X105599000Y-48434000D01*
X107701000Y-48434000D01*
X107701000Y-49336000D01*
X107701000Y-49336000D01*
G37*
G36*
X125201000Y-49336000D02*
G01*
X123099000Y-49336000D01*
X123099000Y-48434000D01*
X125201000Y-48434000D01*
X125201000Y-49336000D01*
X125201000Y-49336000D01*
G37*
M02*
