G04 #@! TF.GenerationSoftware,KiCad,Pcbnew,(5.1.2-1)-1*
G04 #@! TF.CreationDate,2021-02-23T18:56:46+01:00*
G04 #@! TF.ProjectId,parasite,70617261-7369-4746-952e-6b696361645f,1.1.0*
G04 #@! TF.SameCoordinates,Original*
G04 #@! TF.FileFunction,Legend,Top*
G04 #@! TF.FilePolarity,Positive*
%FSLAX46Y46*%
G04 Gerber Fmt 4.6, Leading zero omitted, Abs format (unit mm)*
G04 Created by KiCad (PCBNEW (5.1.2-1)-1) date 2021-02-23 18:56:46*
%MOMM*%
%LPD*%
G04 APERTURE LIST*
%ADD10C,0.120000*%
%ADD11C,0.127000*%
%ADD12C,0.200000*%
%ADD13C,0.015000*%
%ADD14C,0.150000*%
%ADD15C,0.125000*%
G04 APERTURE END LIST*
D10*
X126082843Y-48900000D02*
G75*
G03X126082843Y-48900000I-282843J0D01*
G01*
X126082843Y-50100000D02*
G75*
G03X126082843Y-50100000I-282843J0D01*
G01*
X126082843Y-56600000D02*
G75*
G03X126082843Y-56600000I-282843J0D01*
G01*
X126082843Y-57800000D02*
G75*
G03X126082843Y-57800000I-282843J0D01*
G01*
X126082843Y-59100000D02*
G75*
G03X126082843Y-59100000I-282843J0D01*
G01*
X113782843Y-72600000D02*
G75*
G03X113782843Y-72600000I-282843J0D01*
G01*
X112482843Y-72600000D02*
G75*
G03X112482843Y-72600000I-282843J0D01*
G01*
X111182843Y-72600000D02*
G75*
G03X111182843Y-72600000I-282843J0D01*
G01*
X109882843Y-72600000D02*
G75*
G03X109882843Y-72600000I-282843J0D01*
G01*
X108682843Y-72600000D02*
G75*
G03X108682843Y-72600000I-282843J0D01*
G01*
X105182843Y-69200000D02*
G75*
G03X105182843Y-69200000I-282843J0D01*
G01*
X105182843Y-52700000D02*
G75*
G03X105182843Y-52700000I-282843J0D01*
G01*
X105182843Y-50100000D02*
G75*
G03X105182843Y-50100000I-282843J0D01*
G01*
X105182843Y-48900000D02*
G75*
G03X105182843Y-48900000I-282843J0D01*
G01*
X106500000Y-99000000D02*
X129500000Y-99000000D01*
D11*
X124150000Y-70950000D02*
X124150000Y-69925000D01*
X124150000Y-50875000D02*
X124150000Y-51975000D01*
X123105000Y-70950000D02*
X124150000Y-70950000D01*
X106650000Y-70950000D02*
X107695000Y-70950000D01*
X106650000Y-70950000D02*
X106650000Y-69925000D01*
X124150000Y-48165000D02*
X124150000Y-42250000D01*
X124150000Y-42250000D02*
X106650000Y-42250000D01*
X106650000Y-42250000D02*
X106650000Y-48165000D01*
X106650000Y-50875000D02*
X106650000Y-51975000D01*
D12*
X104700000Y-50100000D02*
G75*
G03X104700000Y-50100000I-100000J0D01*
G01*
X110840000Y-80740000D02*
G75*
G03X110840000Y-80740000I-100000J0D01*
G01*
D11*
X113399000Y-77340000D02*
X113399000Y-79140000D01*
X112449000Y-77340000D02*
X113399000Y-77340000D01*
X110281000Y-77340000D02*
X111231000Y-77340000D01*
X110281000Y-79140000D02*
X110281000Y-77340000D01*
D10*
X130240000Y-53340000D02*
G75*
G03X130240000Y-53340000I-700000J0D01*
G01*
X130240000Y-60960000D02*
G75*
G03X130240000Y-60960000I-700000J0D01*
G01*
X130240000Y-63500000D02*
G75*
G03X130240000Y-63500000I-700000J0D01*
G01*
X130240000Y-58420000D02*
G75*
G03X130240000Y-58420000I-700000J0D01*
G01*
X130240000Y-55880000D02*
G75*
G03X130240000Y-55880000I-700000J0D01*
G01*
X129403922Y-73410000D02*
X129921078Y-73410000D01*
X129403922Y-71990000D02*
X129921078Y-71990000D01*
X117200000Y-77700000D02*
X117200000Y-79100000D01*
X116500000Y-79800000D02*
X115900000Y-79800000D01*
X115200000Y-79100000D02*
X115200000Y-77700000D01*
X115900000Y-77000000D02*
X116500000Y-77000000D01*
X116500000Y-77000000D02*
G75*
G02X117200000Y-77700000I0J-700000D01*
G01*
X115200000Y-77700000D02*
G75*
G02X115900000Y-77000000I700000J0D01*
G01*
X115900000Y-79800000D02*
G75*
G02X115200000Y-79100000I0J700000D01*
G01*
X117200000Y-79100000D02*
G75*
G02X116500000Y-79800000I-700000J0D01*
G01*
X127935000Y-70105000D02*
X130620000Y-70105000D01*
X127935000Y-68185000D02*
X127935000Y-70105000D01*
X130620000Y-68185000D02*
X127935000Y-68185000D01*
X111580000Y-92740000D02*
X111580000Y-94200000D01*
X108420000Y-92740000D02*
X108420000Y-94900000D01*
X108420000Y-92740000D02*
X109350000Y-92740000D01*
X111580000Y-92740000D02*
X110650000Y-92740000D01*
X108530000Y-89240000D02*
X108530000Y-90700000D01*
X105370000Y-89240000D02*
X105370000Y-91400000D01*
X105370000Y-89240000D02*
X106300000Y-89240000D01*
X108530000Y-89240000D02*
X107600000Y-89240000D01*
X117741422Y-94210000D02*
X118258578Y-94210000D01*
X117741422Y-92790000D02*
X118258578Y-92790000D01*
X121410000Y-84396078D02*
X121410000Y-83878922D01*
X119990000Y-84396078D02*
X119990000Y-83878922D01*
X125600000Y-81300000D02*
X125600000Y-85600000D01*
X125600000Y-85600000D02*
X127600000Y-85600000D01*
X127600000Y-85600000D02*
X127600000Y-81300000D01*
X127310000Y-78121078D02*
X127310000Y-77603922D01*
X125890000Y-78121078D02*
X125890000Y-77603922D01*
X110910000Y-85003922D02*
X110910000Y-85521078D01*
X109490000Y-85003922D02*
X109490000Y-85521078D01*
X121410000Y-89558578D02*
X121410000Y-89041422D01*
X119990000Y-89558578D02*
X119990000Y-89041422D01*
X112710000Y-90196078D02*
X112710000Y-89678922D01*
X111290000Y-90196078D02*
X111290000Y-89678922D01*
X115990000Y-84396078D02*
X115990000Y-83878922D01*
X117410000Y-84396078D02*
X117410000Y-83878922D01*
X126300000Y-93500000D02*
G75*
G03X126300000Y-93500000I-700000J0D01*
G01*
X130240000Y-50800000D02*
G75*
G03X130240000Y-50800000I-700000J0D01*
G01*
X115990000Y-89621078D02*
X115990000Y-89103922D01*
X117410000Y-89621078D02*
X117410000Y-89103922D01*
D13*
X107813095Y-40677380D02*
X107813095Y-41486904D01*
X107860714Y-41582142D01*
X107908333Y-41629761D01*
X108003571Y-41677380D01*
X108194047Y-41677380D01*
X108289285Y-41629761D01*
X108336904Y-41582142D01*
X108384523Y-41486904D01*
X108384523Y-40677380D01*
X109384523Y-41677380D02*
X108813095Y-41677380D01*
X109098809Y-41677380D02*
X109098809Y-40677380D01*
X109003571Y-40820238D01*
X108908333Y-40915476D01*
X108813095Y-40963095D01*
D14*
X109747619Y-78395238D02*
X109700000Y-78490476D01*
X109604761Y-78585714D01*
X109461904Y-78728571D01*
X109414285Y-78823809D01*
X109414285Y-78919047D01*
X109652380Y-78871428D02*
X109604761Y-78966666D01*
X109509523Y-79061904D01*
X109319047Y-79109523D01*
X108985714Y-79109523D01*
X108795238Y-79061904D01*
X108700000Y-78966666D01*
X108652380Y-78871428D01*
X108652380Y-78680952D01*
X108700000Y-78585714D01*
X108795238Y-78490476D01*
X108985714Y-78442857D01*
X109319047Y-78442857D01*
X109509523Y-78490476D01*
X109604761Y-78585714D01*
X109652380Y-78680952D01*
X109652380Y-78871428D01*
X108652380Y-78109523D02*
X108652380Y-77490476D01*
X109033333Y-77823809D01*
X109033333Y-77680952D01*
X109080952Y-77585714D01*
X109128571Y-77538095D01*
X109223809Y-77490476D01*
X109461904Y-77490476D01*
X109557142Y-77538095D01*
X109604761Y-77585714D01*
X109652380Y-77680952D01*
X109652380Y-77966666D01*
X109604761Y-78061904D01*
X109557142Y-78109523D01*
X130659428Y-54140000D02*
X131259428Y-53940000D01*
X130659428Y-53740000D01*
X131202285Y-53197142D02*
X131230857Y-53225714D01*
X131259428Y-53311428D01*
X131259428Y-53368571D01*
X131230857Y-53454285D01*
X131173714Y-53511428D01*
X131116571Y-53540000D01*
X131002285Y-53568571D01*
X130916571Y-53568571D01*
X130802285Y-53540000D01*
X130745142Y-53511428D01*
X130688000Y-53454285D01*
X130659428Y-53368571D01*
X130659428Y-53311428D01*
X130688000Y-53225714D01*
X130716571Y-53197142D01*
X131202285Y-52597142D02*
X131230857Y-52625714D01*
X131259428Y-52711428D01*
X131259428Y-52768571D01*
X131230857Y-52854285D01*
X131173714Y-52911428D01*
X131116571Y-52940000D01*
X131002285Y-52968571D01*
X130916571Y-52968571D01*
X130802285Y-52940000D01*
X130745142Y-52911428D01*
X130688000Y-52854285D01*
X130659428Y-52768571D01*
X130659428Y-52711428D01*
X130688000Y-52625714D01*
X130716571Y-52597142D01*
X130688000Y-61417142D02*
X130659428Y-61474285D01*
X130659428Y-61560000D01*
X130688000Y-61645714D01*
X130745142Y-61702857D01*
X130802285Y-61731428D01*
X130916571Y-61760000D01*
X131002285Y-61760000D01*
X131116571Y-61731428D01*
X131173714Y-61702857D01*
X131230857Y-61645714D01*
X131259428Y-61560000D01*
X131259428Y-61502857D01*
X131230857Y-61417142D01*
X131202285Y-61388571D01*
X131002285Y-61388571D01*
X131002285Y-61502857D01*
X131259428Y-61131428D02*
X130659428Y-61131428D01*
X131259428Y-60788571D01*
X130659428Y-60788571D01*
X131259428Y-60502857D02*
X130659428Y-60502857D01*
X130659428Y-60360000D01*
X130688000Y-60274285D01*
X130745142Y-60217142D01*
X130802285Y-60188571D01*
X130916571Y-60160000D01*
X131002285Y-60160000D01*
X131116571Y-60188571D01*
X131173714Y-60217142D01*
X131230857Y-60274285D01*
X131259428Y-60360000D01*
X131259428Y-60502857D01*
X131259428Y-63828571D02*
X130973714Y-64028571D01*
X131259428Y-64171428D02*
X130659428Y-64171428D01*
X130659428Y-63942857D01*
X130688000Y-63885714D01*
X130716571Y-63857142D01*
X130773714Y-63828571D01*
X130859428Y-63828571D01*
X130916571Y-63857142D01*
X130945142Y-63885714D01*
X130973714Y-63942857D01*
X130973714Y-64171428D01*
X131230857Y-63600000D02*
X131259428Y-63514285D01*
X131259428Y-63371428D01*
X131230857Y-63314285D01*
X131202285Y-63285714D01*
X131145142Y-63257142D01*
X131088000Y-63257142D01*
X131030857Y-63285714D01*
X131002285Y-63314285D01*
X130973714Y-63371428D01*
X130945142Y-63485714D01*
X130916571Y-63542857D01*
X130888000Y-63571428D01*
X130830857Y-63600000D01*
X130773714Y-63600000D01*
X130716571Y-63571428D01*
X130688000Y-63542857D01*
X130659428Y-63485714D01*
X130659428Y-63342857D01*
X130688000Y-63257142D01*
X130659428Y-63085714D02*
X130659428Y-62742857D01*
X131259428Y-62914285D02*
X130659428Y-62914285D01*
X131202285Y-58777142D02*
X131230857Y-58805714D01*
X131259428Y-58891428D01*
X131259428Y-58948571D01*
X131230857Y-59034285D01*
X131173714Y-59091428D01*
X131116571Y-59120000D01*
X131002285Y-59148571D01*
X130916571Y-59148571D01*
X130802285Y-59120000D01*
X130745142Y-59091428D01*
X130688000Y-59034285D01*
X130659428Y-58948571D01*
X130659428Y-58891428D01*
X130688000Y-58805714D01*
X130716571Y-58777142D01*
X131259428Y-58234285D02*
X131259428Y-58520000D01*
X130659428Y-58520000D01*
X131259428Y-58034285D02*
X130659428Y-58034285D01*
X131259428Y-57691428D02*
X130916571Y-57948571D01*
X130659428Y-57691428D02*
X131002285Y-58034285D01*
X131259428Y-56194285D02*
X130659428Y-56194285D01*
X130659428Y-55794285D02*
X130659428Y-55680000D01*
X130688000Y-55622857D01*
X130745142Y-55565714D01*
X130859428Y-55537142D01*
X131059428Y-55537142D01*
X131173714Y-55565714D01*
X131230857Y-55622857D01*
X131259428Y-55680000D01*
X131259428Y-55794285D01*
X131230857Y-55851428D01*
X131173714Y-55908571D01*
X131059428Y-55937142D01*
X130859428Y-55937142D01*
X130745142Y-55908571D01*
X130688000Y-55851428D01*
X130659428Y-55794285D01*
X129495833Y-71502380D02*
X129162500Y-71026190D01*
X128924404Y-71502380D02*
X128924404Y-70502380D01*
X129305357Y-70502380D01*
X129400595Y-70550000D01*
X129448214Y-70597619D01*
X129495833Y-70692857D01*
X129495833Y-70835714D01*
X129448214Y-70930952D01*
X129400595Y-70978571D01*
X129305357Y-71026190D01*
X128924404Y-71026190D01*
X129876785Y-70597619D02*
X129924404Y-70550000D01*
X130019642Y-70502380D01*
X130257738Y-70502380D01*
X130352976Y-70550000D01*
X130400595Y-70597619D01*
X130448214Y-70692857D01*
X130448214Y-70788095D01*
X130400595Y-70930952D01*
X129829166Y-71502380D01*
X130448214Y-71502380D01*
X117452380Y-79233333D02*
X118166666Y-79233333D01*
X118309523Y-79280952D01*
X118404761Y-79376190D01*
X118452380Y-79519047D01*
X118452380Y-79614285D01*
X118452380Y-78757142D02*
X117452380Y-78757142D01*
X117452380Y-78376190D01*
X117500000Y-78280952D01*
X117547619Y-78233333D01*
X117642857Y-78185714D01*
X117785714Y-78185714D01*
X117880952Y-78233333D01*
X117928571Y-78280952D01*
X117976190Y-78376190D01*
X117976190Y-78757142D01*
X118452380Y-77233333D02*
X118452380Y-77804761D01*
X118452380Y-77519047D02*
X117452380Y-77519047D01*
X117595238Y-77614285D01*
X117690476Y-77709523D01*
X117738095Y-77804761D01*
X128881904Y-67947380D02*
X128881904Y-66947380D01*
X129120000Y-66947380D01*
X129262857Y-66995000D01*
X129358095Y-67090238D01*
X129405714Y-67185476D01*
X129453333Y-67375952D01*
X129453333Y-67518809D01*
X129405714Y-67709285D01*
X129358095Y-67804523D01*
X129262857Y-67899761D01*
X129120000Y-67947380D01*
X128881904Y-67947380D01*
X129834285Y-67042619D02*
X129881904Y-66995000D01*
X129977142Y-66947380D01*
X130215238Y-66947380D01*
X130310476Y-66995000D01*
X130358095Y-67042619D01*
X130405714Y-67137857D01*
X130405714Y-67233095D01*
X130358095Y-67375952D01*
X129786666Y-67947380D01*
X130405714Y-67947380D01*
X108047619Y-93595238D02*
X108000000Y-93690476D01*
X107904761Y-93785714D01*
X107761904Y-93928571D01*
X107714285Y-94023809D01*
X107714285Y-94119047D01*
X107952380Y-94071428D02*
X107904761Y-94166666D01*
X107809523Y-94261904D01*
X107619047Y-94309523D01*
X107285714Y-94309523D01*
X107095238Y-94261904D01*
X107000000Y-94166666D01*
X106952380Y-94071428D01*
X106952380Y-93880952D01*
X107000000Y-93785714D01*
X107095238Y-93690476D01*
X107285714Y-93642857D01*
X107619047Y-93642857D01*
X107809523Y-93690476D01*
X107904761Y-93785714D01*
X107952380Y-93880952D01*
X107952380Y-94071428D01*
X107047619Y-93261904D02*
X107000000Y-93214285D01*
X106952380Y-93119047D01*
X106952380Y-92880952D01*
X107000000Y-92785714D01*
X107047619Y-92738095D01*
X107142857Y-92690476D01*
X107238095Y-92690476D01*
X107380952Y-92738095D01*
X107952380Y-93309523D01*
X107952380Y-92690476D01*
X104997619Y-91095238D02*
X104950000Y-91190476D01*
X104854761Y-91285714D01*
X104711904Y-91428571D01*
X104664285Y-91523809D01*
X104664285Y-91619047D01*
X104902380Y-91571428D02*
X104854761Y-91666666D01*
X104759523Y-91761904D01*
X104569047Y-91809523D01*
X104235714Y-91809523D01*
X104045238Y-91761904D01*
X103950000Y-91666666D01*
X103902380Y-91571428D01*
X103902380Y-91380952D01*
X103950000Y-91285714D01*
X104045238Y-91190476D01*
X104235714Y-91142857D01*
X104569047Y-91142857D01*
X104759523Y-91190476D01*
X104854761Y-91285714D01*
X104902380Y-91380952D01*
X104902380Y-91571428D01*
X104902380Y-90190476D02*
X104902380Y-90761904D01*
X104902380Y-90476190D02*
X103902380Y-90476190D01*
X104045238Y-90571428D01*
X104140476Y-90666666D01*
X104188095Y-90761904D01*
D10*
X116533333Y-95385714D02*
X116495238Y-95423809D01*
X116380952Y-95461904D01*
X116304761Y-95461904D01*
X116190476Y-95423809D01*
X116114285Y-95347619D01*
X116076190Y-95271428D01*
X116038095Y-95119047D01*
X116038095Y-95004761D01*
X116076190Y-94852380D01*
X116114285Y-94776190D01*
X116190476Y-94700000D01*
X116304761Y-94661904D01*
X116380952Y-94661904D01*
X116495238Y-94700000D01*
X116533333Y-94738095D01*
X116876190Y-94928571D02*
X116876190Y-95728571D01*
X116876190Y-94966666D02*
X116952380Y-94928571D01*
X117104761Y-94928571D01*
X117180952Y-94966666D01*
X117219047Y-95004761D01*
X117257142Y-95080952D01*
X117257142Y-95309523D01*
X117219047Y-95385714D01*
X117180952Y-95423809D01*
X117104761Y-95461904D01*
X116952380Y-95461904D01*
X116876190Y-95423809D01*
X117942857Y-95461904D02*
X117942857Y-95042857D01*
X117904761Y-94966666D01*
X117828571Y-94928571D01*
X117676190Y-94928571D01*
X117600000Y-94966666D01*
X117942857Y-95423809D02*
X117866666Y-95461904D01*
X117676190Y-95461904D01*
X117600000Y-95423809D01*
X117561904Y-95347619D01*
X117561904Y-95271428D01*
X117600000Y-95195238D01*
X117676190Y-95157142D01*
X117866666Y-95157142D01*
X117942857Y-95119047D01*
X118323809Y-95461904D02*
X118323809Y-94928571D01*
X118323809Y-95080952D02*
X118361904Y-95004761D01*
X118400000Y-94966666D01*
X118476190Y-94928571D01*
X118552380Y-94928571D01*
X119161904Y-95461904D02*
X119161904Y-95042857D01*
X119123809Y-94966666D01*
X119047619Y-94928571D01*
X118895238Y-94928571D01*
X118819047Y-94966666D01*
X119161904Y-95423809D02*
X119085714Y-95461904D01*
X118895238Y-95461904D01*
X118819047Y-95423809D01*
X118780952Y-95347619D01*
X118780952Y-95271428D01*
X118819047Y-95195238D01*
X118895238Y-95157142D01*
X119085714Y-95157142D01*
X119161904Y-95119047D01*
X119961904Y-95461904D02*
X119504761Y-95461904D01*
X119733333Y-95461904D02*
X119733333Y-94661904D01*
X119657142Y-94776190D01*
X119580952Y-94852380D01*
X119504761Y-94890476D01*
D14*
X119407142Y-84304166D02*
X119454761Y-84351785D01*
X119502380Y-84494642D01*
X119502380Y-84589880D01*
X119454761Y-84732738D01*
X119359523Y-84827976D01*
X119264285Y-84875595D01*
X119073809Y-84923214D01*
X118930952Y-84923214D01*
X118740476Y-84875595D01*
X118645238Y-84827976D01*
X118550000Y-84732738D01*
X118502380Y-84589880D01*
X118502380Y-84494642D01*
X118550000Y-84351785D01*
X118597619Y-84304166D01*
X119502380Y-83351785D02*
X119502380Y-83923214D01*
X119502380Y-83637500D02*
X118502380Y-83637500D01*
X118645238Y-83732738D01*
X118740476Y-83827976D01*
X118788095Y-83923214D01*
X125052380Y-83788095D02*
X124052380Y-83788095D01*
X124052380Y-83550000D01*
X124100000Y-83407142D01*
X124195238Y-83311904D01*
X124290476Y-83264285D01*
X124480952Y-83216666D01*
X124623809Y-83216666D01*
X124814285Y-83264285D01*
X124909523Y-83311904D01*
X125004761Y-83407142D01*
X125052380Y-83550000D01*
X125052380Y-83788095D01*
X125052380Y-82264285D02*
X125052380Y-82835714D01*
X125052380Y-82550000D02*
X124052380Y-82550000D01*
X124195238Y-82645238D01*
X124290476Y-82740476D01*
X124338095Y-82835714D01*
X125402380Y-78029166D02*
X124926190Y-78362500D01*
X125402380Y-78600595D02*
X124402380Y-78600595D01*
X124402380Y-78219642D01*
X124450000Y-78124404D01*
X124497619Y-78076785D01*
X124592857Y-78029166D01*
X124735714Y-78029166D01*
X124830952Y-78076785D01*
X124878571Y-78124404D01*
X124926190Y-78219642D01*
X124926190Y-78600595D01*
X125402380Y-77076785D02*
X125402380Y-77648214D01*
X125402380Y-77362500D02*
X124402380Y-77362500D01*
X124545238Y-77457738D01*
X124640476Y-77552976D01*
X124688095Y-77648214D01*
X110033333Y-83452380D02*
X109700000Y-82976190D01*
X109461904Y-83452380D02*
X109461904Y-82452380D01*
X109842857Y-82452380D01*
X109938095Y-82500000D01*
X109985714Y-82547619D01*
X110033333Y-82642857D01*
X110033333Y-82785714D01*
X109985714Y-82880952D01*
X109938095Y-82928571D01*
X109842857Y-82976190D01*
X109461904Y-82976190D01*
X110366666Y-82452380D02*
X110985714Y-82452380D01*
X110652380Y-82833333D01*
X110795238Y-82833333D01*
X110890476Y-82880952D01*
X110938095Y-82928571D01*
X110985714Y-83023809D01*
X110985714Y-83261904D01*
X110938095Y-83357142D01*
X110890476Y-83404761D01*
X110795238Y-83452380D01*
X110509523Y-83452380D01*
X110414285Y-83404761D01*
X110366666Y-83357142D01*
X119502380Y-89466666D02*
X119026190Y-89800000D01*
X119502380Y-90038095D02*
X118502380Y-90038095D01*
X118502380Y-89657142D01*
X118550000Y-89561904D01*
X118597619Y-89514285D01*
X118692857Y-89466666D01*
X118835714Y-89466666D01*
X118930952Y-89514285D01*
X118978571Y-89561904D01*
X119026190Y-89657142D01*
X119026190Y-90038095D01*
X118835714Y-88609523D02*
X119502380Y-88609523D01*
X118454761Y-88847619D02*
X119169047Y-89085714D01*
X119169047Y-88466666D01*
X110802380Y-90104166D02*
X110326190Y-90437500D01*
X110802380Y-90675595D02*
X109802380Y-90675595D01*
X109802380Y-90294642D01*
X109850000Y-90199404D01*
X109897619Y-90151785D01*
X109992857Y-90104166D01*
X110135714Y-90104166D01*
X110230952Y-90151785D01*
X110278571Y-90199404D01*
X110326190Y-90294642D01*
X110326190Y-90675595D01*
X109802380Y-89199404D02*
X109802380Y-89675595D01*
X110278571Y-89723214D01*
X110230952Y-89675595D01*
X110183333Y-89580357D01*
X110183333Y-89342261D01*
X110230952Y-89247023D01*
X110278571Y-89199404D01*
X110373809Y-89151785D01*
X110611904Y-89151785D01*
X110707142Y-89199404D01*
X110754761Y-89247023D01*
X110802380Y-89342261D01*
X110802380Y-89580357D01*
X110754761Y-89675595D01*
X110707142Y-89723214D01*
X115502380Y-84304166D02*
X115026190Y-84637500D01*
X115502380Y-84875595D02*
X114502380Y-84875595D01*
X114502380Y-84494642D01*
X114550000Y-84399404D01*
X114597619Y-84351785D01*
X114692857Y-84304166D01*
X114835714Y-84304166D01*
X114930952Y-84351785D01*
X114978571Y-84399404D01*
X115026190Y-84494642D01*
X115026190Y-84875595D01*
X114502380Y-83447023D02*
X114502380Y-83637500D01*
X114550000Y-83732738D01*
X114597619Y-83780357D01*
X114740476Y-83875595D01*
X114930952Y-83923214D01*
X115311904Y-83923214D01*
X115407142Y-83875595D01*
X115454761Y-83827976D01*
X115502380Y-83732738D01*
X115502380Y-83542261D01*
X115454761Y-83447023D01*
X115407142Y-83399404D01*
X115311904Y-83351785D01*
X115073809Y-83351785D01*
X114978571Y-83399404D01*
X114930952Y-83447023D01*
X114883333Y-83542261D01*
X114883333Y-83732738D01*
X114930952Y-83827976D01*
X114978571Y-83875595D01*
X115073809Y-83923214D01*
X124004761Y-95407142D02*
X123957142Y-95454761D01*
X123814285Y-95502380D01*
X123719047Y-95502380D01*
X123576190Y-95454761D01*
X123480952Y-95359523D01*
X123433333Y-95264285D01*
X123385714Y-95073809D01*
X123385714Y-94930952D01*
X123433333Y-94740476D01*
X123480952Y-94645238D01*
X123576190Y-94550000D01*
X123719047Y-94502380D01*
X123814285Y-94502380D01*
X123957142Y-94550000D01*
X124004761Y-94597619D01*
X124385714Y-95454761D02*
X124480952Y-95502380D01*
X124671428Y-95502380D01*
X124766666Y-95454761D01*
X124814285Y-95359523D01*
X124814285Y-95311904D01*
X124766666Y-95216666D01*
X124671428Y-95169047D01*
X124528571Y-95169047D01*
X124433333Y-95121428D01*
X124385714Y-95026190D01*
X124385714Y-94978571D01*
X124433333Y-94883333D01*
X124528571Y-94835714D01*
X124671428Y-94835714D01*
X124766666Y-94883333D01*
X125623809Y-95454761D02*
X125528571Y-95502380D01*
X125338095Y-95502380D01*
X125242857Y-95454761D01*
X125195238Y-95359523D01*
X125195238Y-94978571D01*
X125242857Y-94883333D01*
X125338095Y-94835714D01*
X125528571Y-94835714D01*
X125623809Y-94883333D01*
X125671428Y-94978571D01*
X125671428Y-95073809D01*
X125195238Y-95169047D01*
X126100000Y-94835714D02*
X126100000Y-95502380D01*
X126100000Y-94930952D02*
X126147619Y-94883333D01*
X126242857Y-94835714D01*
X126385714Y-94835714D01*
X126480952Y-94883333D01*
X126528571Y-94978571D01*
X126528571Y-95502380D01*
X127004761Y-95121428D02*
X127766666Y-95121428D01*
X127385714Y-95502380D02*
X127385714Y-94740476D01*
D15*
X131242857Y-51828571D02*
X131271428Y-51742857D01*
X131271428Y-51600000D01*
X131242857Y-51542857D01*
X131214285Y-51514285D01*
X131157142Y-51485714D01*
X131100000Y-51485714D01*
X131042857Y-51514285D01*
X131014285Y-51542857D01*
X130985714Y-51600000D01*
X130957142Y-51714285D01*
X130928571Y-51771428D01*
X130900000Y-51800000D01*
X130842857Y-51828571D01*
X130785714Y-51828571D01*
X130728571Y-51800000D01*
X130700000Y-51771428D01*
X130671428Y-51714285D01*
X130671428Y-51571428D01*
X130700000Y-51485714D01*
X130671428Y-51114285D02*
X130671428Y-51000000D01*
X130700000Y-50942857D01*
X130757142Y-50885714D01*
X130871428Y-50857142D01*
X131071428Y-50857142D01*
X131185714Y-50885714D01*
X131242857Y-50942857D01*
X131271428Y-51000000D01*
X131271428Y-51114285D01*
X131242857Y-51171428D01*
X131185714Y-51228571D01*
X131071428Y-51257142D01*
X130871428Y-51257142D01*
X130757142Y-51228571D01*
X130700000Y-51171428D01*
X130671428Y-51114285D01*
X130671428Y-50600000D02*
X131157142Y-50600000D01*
X131214285Y-50571428D01*
X131242857Y-50542857D01*
X131271428Y-50485714D01*
X131271428Y-50371428D01*
X131242857Y-50314285D01*
X131214285Y-50285714D01*
X131157142Y-50257142D01*
X130671428Y-50257142D01*
X130671428Y-50057142D02*
X130671428Y-49714285D01*
X131271428Y-49885714D02*
X130671428Y-49885714D01*
D14*
X115407142Y-89529166D02*
X115454761Y-89576785D01*
X115502380Y-89719642D01*
X115502380Y-89814880D01*
X115454761Y-89957738D01*
X115359523Y-90052976D01*
X115264285Y-90100595D01*
X115073809Y-90148214D01*
X114930952Y-90148214D01*
X114740476Y-90100595D01*
X114645238Y-90052976D01*
X114550000Y-89957738D01*
X114502380Y-89814880D01*
X114502380Y-89719642D01*
X114550000Y-89576785D01*
X114597619Y-89529166D01*
X114502380Y-88672023D02*
X114502380Y-88862500D01*
X114550000Y-88957738D01*
X114597619Y-89005357D01*
X114740476Y-89100595D01*
X114930952Y-89148214D01*
X115311904Y-89148214D01*
X115407142Y-89100595D01*
X115454761Y-89052976D01*
X115502380Y-88957738D01*
X115502380Y-88767261D01*
X115454761Y-88672023D01*
X115407142Y-88624404D01*
X115311904Y-88576785D01*
X115073809Y-88576785D01*
X114978571Y-88624404D01*
X114930952Y-88672023D01*
X114883333Y-88767261D01*
X114883333Y-88957738D01*
X114930952Y-89052976D01*
X114978571Y-89100595D01*
X115073809Y-89148214D01*
M02*
