G04 #@! TF.GenerationSoftware,KiCad,Pcbnew,(5.1.2-1)-1*
G04 #@! TF.CreationDate,2021-10-09T10:13:21+02:00*
G04 #@! TF.ProjectId,parasite,70617261-7369-4746-952e-6b696361645f,1.2.0*
G04 #@! TF.SameCoordinates,Original*
G04 #@! TF.FileFunction,Paste,Top*
G04 #@! TF.FilePolarity,Positive*
%FSLAX46Y46*%
G04 Gerber Fmt 4.6, Leading zero omitted, Abs format (unit mm)*
G04 Created by KiCad (PCBNEW (5.1.2-1)-1) date 2021-10-09 10:13:21*
%MOMM*%
%LPD*%
G04 APERTURE LIST*
%ADD10R,1.000000X0.650000*%
%ADD11R,0.650000X1.000000*%
%ADD12R,0.800000X0.800000*%
%ADD13C,0.100000*%
%ADD14C,0.590000*%
%ADD15C,0.500000*%
%ADD16C,0.350000*%
%ADD17R,1.000000X1.800000*%
%ADD18R,0.800000X0.900000*%
%ADD19C,0.875000*%
%ADD20C,0.975000*%
%ADD21R,1.300000X1.700000*%
G04 APERTURE END LIST*
D10*
X60881000Y-42600000D03*
X60881000Y-41330000D03*
X60881000Y-40060000D03*
X60881000Y-38790000D03*
X60881000Y-37520000D03*
X60881000Y-36250000D03*
X60881000Y-34980000D03*
X60881000Y-33710000D03*
X60881000Y-32440000D03*
X60881000Y-31170000D03*
X73119000Y-38790000D03*
X73119000Y-31170000D03*
X73119000Y-37520000D03*
X73119000Y-32440000D03*
X73119000Y-33710000D03*
X73119000Y-34980000D03*
X73119000Y-40060000D03*
X73119000Y-36250000D03*
X73119000Y-41330000D03*
X73119000Y-42600000D03*
D11*
X70150000Y-44819000D03*
X62530000Y-44819000D03*
X68880000Y-44819000D03*
X63800000Y-44819000D03*
X65070000Y-44819000D03*
X66340000Y-44819000D03*
X71420000Y-44819000D03*
X67610000Y-44819000D03*
D12*
X58150000Y-29700000D03*
X59650000Y-29700000D03*
D13*
G36*
X59861958Y-28080710D02*
G01*
X59876276Y-28082834D01*
X59890317Y-28086351D01*
X59903946Y-28091228D01*
X59917031Y-28097417D01*
X59929447Y-28104858D01*
X59941073Y-28113481D01*
X59951798Y-28123202D01*
X59961519Y-28133927D01*
X59970142Y-28145553D01*
X59977583Y-28157969D01*
X59983772Y-28171054D01*
X59988649Y-28184683D01*
X59992166Y-28198724D01*
X59994290Y-28213042D01*
X59995000Y-28227500D01*
X59995000Y-28572500D01*
X59994290Y-28586958D01*
X59992166Y-28601276D01*
X59988649Y-28615317D01*
X59983772Y-28628946D01*
X59977583Y-28642031D01*
X59970142Y-28654447D01*
X59961519Y-28666073D01*
X59951798Y-28676798D01*
X59941073Y-28686519D01*
X59929447Y-28695142D01*
X59917031Y-28702583D01*
X59903946Y-28708772D01*
X59890317Y-28713649D01*
X59876276Y-28717166D01*
X59861958Y-28719290D01*
X59847500Y-28720000D01*
X59552500Y-28720000D01*
X59538042Y-28719290D01*
X59523724Y-28717166D01*
X59509683Y-28713649D01*
X59496054Y-28708772D01*
X59482969Y-28702583D01*
X59470553Y-28695142D01*
X59458927Y-28686519D01*
X59448202Y-28676798D01*
X59438481Y-28666073D01*
X59429858Y-28654447D01*
X59422417Y-28642031D01*
X59416228Y-28628946D01*
X59411351Y-28615317D01*
X59407834Y-28601276D01*
X59405710Y-28586958D01*
X59405000Y-28572500D01*
X59405000Y-28227500D01*
X59405710Y-28213042D01*
X59407834Y-28198724D01*
X59411351Y-28184683D01*
X59416228Y-28171054D01*
X59422417Y-28157969D01*
X59429858Y-28145553D01*
X59438481Y-28133927D01*
X59448202Y-28123202D01*
X59458927Y-28113481D01*
X59470553Y-28104858D01*
X59482969Y-28097417D01*
X59496054Y-28091228D01*
X59509683Y-28086351D01*
X59523724Y-28082834D01*
X59538042Y-28080710D01*
X59552500Y-28080000D01*
X59847500Y-28080000D01*
X59861958Y-28080710D01*
X59861958Y-28080710D01*
G37*
D14*
X59700000Y-28400000D03*
D13*
G36*
X58891958Y-28080710D02*
G01*
X58906276Y-28082834D01*
X58920317Y-28086351D01*
X58933946Y-28091228D01*
X58947031Y-28097417D01*
X58959447Y-28104858D01*
X58971073Y-28113481D01*
X58981798Y-28123202D01*
X58991519Y-28133927D01*
X59000142Y-28145553D01*
X59007583Y-28157969D01*
X59013772Y-28171054D01*
X59018649Y-28184683D01*
X59022166Y-28198724D01*
X59024290Y-28213042D01*
X59025000Y-28227500D01*
X59025000Y-28572500D01*
X59024290Y-28586958D01*
X59022166Y-28601276D01*
X59018649Y-28615317D01*
X59013772Y-28628946D01*
X59007583Y-28642031D01*
X59000142Y-28654447D01*
X58991519Y-28666073D01*
X58981798Y-28676798D01*
X58971073Y-28686519D01*
X58959447Y-28695142D01*
X58947031Y-28702583D01*
X58933946Y-28708772D01*
X58920317Y-28713649D01*
X58906276Y-28717166D01*
X58891958Y-28719290D01*
X58877500Y-28720000D01*
X58582500Y-28720000D01*
X58568042Y-28719290D01*
X58553724Y-28717166D01*
X58539683Y-28713649D01*
X58526054Y-28708772D01*
X58512969Y-28702583D01*
X58500553Y-28695142D01*
X58488927Y-28686519D01*
X58478202Y-28676798D01*
X58468481Y-28666073D01*
X58459858Y-28654447D01*
X58452417Y-28642031D01*
X58446228Y-28628946D01*
X58441351Y-28615317D01*
X58437834Y-28601276D01*
X58435710Y-28586958D01*
X58435000Y-28572500D01*
X58435000Y-28227500D01*
X58435710Y-28213042D01*
X58437834Y-28198724D01*
X58441351Y-28184683D01*
X58446228Y-28171054D01*
X58452417Y-28157969D01*
X58459858Y-28145553D01*
X58468481Y-28133927D01*
X58478202Y-28123202D01*
X58488927Y-28113481D01*
X58500553Y-28104858D01*
X58512969Y-28097417D01*
X58526054Y-28091228D01*
X58539683Y-28086351D01*
X58553724Y-28082834D01*
X58568042Y-28080710D01*
X58582500Y-28080000D01*
X58877500Y-28080000D01*
X58891958Y-28080710D01*
X58891958Y-28080710D01*
G37*
D14*
X58730000Y-28400000D03*
D13*
G36*
X72937252Y-49900602D02*
G01*
X72949386Y-49902402D01*
X72961286Y-49905382D01*
X72972835Y-49909515D01*
X72983925Y-49914760D01*
X72994446Y-49921066D01*
X73004299Y-49928374D01*
X73013388Y-49936612D01*
X73021626Y-49945701D01*
X73028934Y-49955554D01*
X73035240Y-49966075D01*
X73040485Y-49977165D01*
X73044618Y-49988714D01*
X73047598Y-50000614D01*
X73049398Y-50012748D01*
X73050000Y-50025000D01*
X73050000Y-51175000D01*
X73049398Y-51187252D01*
X73047598Y-51199386D01*
X73044618Y-51211286D01*
X73040485Y-51222835D01*
X73035240Y-51233925D01*
X73028934Y-51244446D01*
X73021626Y-51254299D01*
X73013388Y-51263388D01*
X73004299Y-51271626D01*
X72994446Y-51278934D01*
X72983925Y-51285240D01*
X72972835Y-51290485D01*
X72961286Y-51294618D01*
X72949386Y-51297598D01*
X72937252Y-51299398D01*
X72925000Y-51300000D01*
X72675000Y-51300000D01*
X72662748Y-51299398D01*
X72650614Y-51297598D01*
X72638714Y-51294618D01*
X72627165Y-51290485D01*
X72616075Y-51285240D01*
X72605554Y-51278934D01*
X72595701Y-51271626D01*
X72586612Y-51263388D01*
X72578374Y-51254299D01*
X72571066Y-51244446D01*
X72564760Y-51233925D01*
X72559515Y-51222835D01*
X72555382Y-51211286D01*
X72552402Y-51199386D01*
X72550602Y-51187252D01*
X72550000Y-51175000D01*
X72550000Y-50025000D01*
X72550602Y-50012748D01*
X72552402Y-50000614D01*
X72555382Y-49988714D01*
X72559515Y-49977165D01*
X72564760Y-49966075D01*
X72571066Y-49955554D01*
X72578374Y-49945701D01*
X72586612Y-49936612D01*
X72595701Y-49928374D01*
X72605554Y-49921066D01*
X72616075Y-49914760D01*
X72627165Y-49909515D01*
X72638714Y-49905382D01*
X72650614Y-49902402D01*
X72662748Y-49900602D01*
X72675000Y-49900000D01*
X72925000Y-49900000D01*
X72937252Y-49900602D01*
X72937252Y-49900602D01*
G37*
D15*
X72800000Y-50600000D03*
D13*
G36*
X71971076Y-50925421D02*
G01*
X71979570Y-50926681D01*
X71987900Y-50928768D01*
X71995985Y-50931661D01*
X72003747Y-50935332D01*
X72011112Y-50939746D01*
X72018009Y-50944862D01*
X72024372Y-50950628D01*
X72030138Y-50956991D01*
X72035254Y-50963888D01*
X72039668Y-50971253D01*
X72043339Y-50979015D01*
X72046232Y-50987100D01*
X72048319Y-50995430D01*
X72049579Y-51003924D01*
X72050000Y-51012500D01*
X72050000Y-51187500D01*
X72049579Y-51196076D01*
X72048319Y-51204570D01*
X72046232Y-51212900D01*
X72043339Y-51220985D01*
X72039668Y-51228747D01*
X72035254Y-51236112D01*
X72030138Y-51243009D01*
X72024372Y-51249372D01*
X72018009Y-51255138D01*
X72011112Y-51260254D01*
X72003747Y-51264668D01*
X71995985Y-51268339D01*
X71987900Y-51271232D01*
X71979570Y-51273319D01*
X71971076Y-51274579D01*
X71962500Y-51275000D01*
X71587500Y-51275000D01*
X71578924Y-51274579D01*
X71570430Y-51273319D01*
X71562100Y-51271232D01*
X71554015Y-51268339D01*
X71546253Y-51264668D01*
X71538888Y-51260254D01*
X71531991Y-51255138D01*
X71525628Y-51249372D01*
X71519862Y-51243009D01*
X71514746Y-51236112D01*
X71510332Y-51228747D01*
X71506661Y-51220985D01*
X71503768Y-51212900D01*
X71501681Y-51204570D01*
X71500421Y-51196076D01*
X71500000Y-51187500D01*
X71500000Y-51012500D01*
X71500421Y-51003924D01*
X71501681Y-50995430D01*
X71503768Y-50987100D01*
X71506661Y-50979015D01*
X71510332Y-50971253D01*
X71514746Y-50963888D01*
X71519862Y-50956991D01*
X71525628Y-50950628D01*
X71531991Y-50944862D01*
X71538888Y-50939746D01*
X71546253Y-50935332D01*
X71554015Y-50931661D01*
X71562100Y-50928768D01*
X71570430Y-50926681D01*
X71578924Y-50925421D01*
X71587500Y-50925000D01*
X71962500Y-50925000D01*
X71971076Y-50925421D01*
X71971076Y-50925421D01*
G37*
D16*
X71775000Y-51100000D03*
D13*
G36*
X71971076Y-49925421D02*
G01*
X71979570Y-49926681D01*
X71987900Y-49928768D01*
X71995985Y-49931661D01*
X72003747Y-49935332D01*
X72011112Y-49939746D01*
X72018009Y-49944862D01*
X72024372Y-49950628D01*
X72030138Y-49956991D01*
X72035254Y-49963888D01*
X72039668Y-49971253D01*
X72043339Y-49979015D01*
X72046232Y-49987100D01*
X72048319Y-49995430D01*
X72049579Y-50003924D01*
X72050000Y-50012500D01*
X72050000Y-50187500D01*
X72049579Y-50196076D01*
X72048319Y-50204570D01*
X72046232Y-50212900D01*
X72043339Y-50220985D01*
X72039668Y-50228747D01*
X72035254Y-50236112D01*
X72030138Y-50243009D01*
X72024372Y-50249372D01*
X72018009Y-50255138D01*
X72011112Y-50260254D01*
X72003747Y-50264668D01*
X71995985Y-50268339D01*
X71987900Y-50271232D01*
X71979570Y-50273319D01*
X71971076Y-50274579D01*
X71962500Y-50275000D01*
X71587500Y-50275000D01*
X71578924Y-50274579D01*
X71570430Y-50273319D01*
X71562100Y-50271232D01*
X71554015Y-50268339D01*
X71546253Y-50264668D01*
X71538888Y-50260254D01*
X71531991Y-50255138D01*
X71525628Y-50249372D01*
X71519862Y-50243009D01*
X71514746Y-50236112D01*
X71510332Y-50228747D01*
X71506661Y-50220985D01*
X71503768Y-50212900D01*
X71501681Y-50204570D01*
X71500421Y-50196076D01*
X71500000Y-50187500D01*
X71500000Y-50012500D01*
X71500421Y-50003924D01*
X71501681Y-49995430D01*
X71503768Y-49987100D01*
X71506661Y-49979015D01*
X71510332Y-49971253D01*
X71514746Y-49963888D01*
X71519862Y-49956991D01*
X71525628Y-49950628D01*
X71531991Y-49944862D01*
X71538888Y-49939746D01*
X71546253Y-49935332D01*
X71554015Y-49931661D01*
X71562100Y-49928768D01*
X71570430Y-49926681D01*
X71578924Y-49925421D01*
X71587500Y-49925000D01*
X71962500Y-49925000D01*
X71971076Y-49925421D01*
X71971076Y-49925421D01*
G37*
D16*
X71775000Y-50100000D03*
D13*
G36*
X74021076Y-49925421D02*
G01*
X74029570Y-49926681D01*
X74037900Y-49928768D01*
X74045985Y-49931661D01*
X74053747Y-49935332D01*
X74061112Y-49939746D01*
X74068009Y-49944862D01*
X74074372Y-49950628D01*
X74080138Y-49956991D01*
X74085254Y-49963888D01*
X74089668Y-49971253D01*
X74093339Y-49979015D01*
X74096232Y-49987100D01*
X74098319Y-49995430D01*
X74099579Y-50003924D01*
X74100000Y-50012500D01*
X74100000Y-50187500D01*
X74099579Y-50196076D01*
X74098319Y-50204570D01*
X74096232Y-50212900D01*
X74093339Y-50220985D01*
X74089668Y-50228747D01*
X74085254Y-50236112D01*
X74080138Y-50243009D01*
X74074372Y-50249372D01*
X74068009Y-50255138D01*
X74061112Y-50260254D01*
X74053747Y-50264668D01*
X74045985Y-50268339D01*
X74037900Y-50271232D01*
X74029570Y-50273319D01*
X74021076Y-50274579D01*
X74012500Y-50275000D01*
X73637500Y-50275000D01*
X73628924Y-50274579D01*
X73620430Y-50273319D01*
X73612100Y-50271232D01*
X73604015Y-50268339D01*
X73596253Y-50264668D01*
X73588888Y-50260254D01*
X73581991Y-50255138D01*
X73575628Y-50249372D01*
X73569862Y-50243009D01*
X73564746Y-50236112D01*
X73560332Y-50228747D01*
X73556661Y-50220985D01*
X73553768Y-50212900D01*
X73551681Y-50204570D01*
X73550421Y-50196076D01*
X73550000Y-50187500D01*
X73550000Y-50012500D01*
X73550421Y-50003924D01*
X73551681Y-49995430D01*
X73553768Y-49987100D01*
X73556661Y-49979015D01*
X73560332Y-49971253D01*
X73564746Y-49963888D01*
X73569862Y-49956991D01*
X73575628Y-49950628D01*
X73581991Y-49944862D01*
X73588888Y-49939746D01*
X73596253Y-49935332D01*
X73604015Y-49931661D01*
X73612100Y-49928768D01*
X73620430Y-49926681D01*
X73628924Y-49925421D01*
X73637500Y-49925000D01*
X74012500Y-49925000D01*
X74021076Y-49925421D01*
X74021076Y-49925421D01*
G37*
D16*
X73825000Y-50100000D03*
D13*
G36*
X74021076Y-50925421D02*
G01*
X74029570Y-50926681D01*
X74037900Y-50928768D01*
X74045985Y-50931661D01*
X74053747Y-50935332D01*
X74061112Y-50939746D01*
X74068009Y-50944862D01*
X74074372Y-50950628D01*
X74080138Y-50956991D01*
X74085254Y-50963888D01*
X74089668Y-50971253D01*
X74093339Y-50979015D01*
X74096232Y-50987100D01*
X74098319Y-50995430D01*
X74099579Y-51003924D01*
X74100000Y-51012500D01*
X74100000Y-51187500D01*
X74099579Y-51196076D01*
X74098319Y-51204570D01*
X74096232Y-51212900D01*
X74093339Y-51220985D01*
X74089668Y-51228747D01*
X74085254Y-51236112D01*
X74080138Y-51243009D01*
X74074372Y-51249372D01*
X74068009Y-51255138D01*
X74061112Y-51260254D01*
X74053747Y-51264668D01*
X74045985Y-51268339D01*
X74037900Y-51271232D01*
X74029570Y-51273319D01*
X74021076Y-51274579D01*
X74012500Y-51275000D01*
X73637500Y-51275000D01*
X73628924Y-51274579D01*
X73620430Y-51273319D01*
X73612100Y-51271232D01*
X73604015Y-51268339D01*
X73596253Y-51264668D01*
X73588888Y-51260254D01*
X73581991Y-51255138D01*
X73575628Y-51249372D01*
X73569862Y-51243009D01*
X73564746Y-51236112D01*
X73560332Y-51228747D01*
X73556661Y-51220985D01*
X73553768Y-51212900D01*
X73551681Y-51204570D01*
X73550421Y-51196076D01*
X73550000Y-51187500D01*
X73550000Y-51012500D01*
X73550421Y-51003924D01*
X73551681Y-50995430D01*
X73553768Y-50987100D01*
X73556661Y-50979015D01*
X73560332Y-50971253D01*
X73564746Y-50963888D01*
X73569862Y-50956991D01*
X73575628Y-50950628D01*
X73581991Y-50944862D01*
X73588888Y-50939746D01*
X73596253Y-50935332D01*
X73604015Y-50931661D01*
X73612100Y-50928768D01*
X73620430Y-50926681D01*
X73628924Y-50925421D01*
X73637500Y-50925000D01*
X74012500Y-50925000D01*
X74021076Y-50925421D01*
X74021076Y-50925421D01*
G37*
D16*
X73825000Y-51100000D03*
D17*
X67500000Y-48000000D03*
X65000000Y-48000000D03*
D13*
G36*
X72286958Y-48275710D02*
G01*
X72301276Y-48277834D01*
X72315317Y-48281351D01*
X72328946Y-48286228D01*
X72342031Y-48292417D01*
X72354447Y-48299858D01*
X72366073Y-48308481D01*
X72376798Y-48318202D01*
X72386519Y-48328927D01*
X72395142Y-48340553D01*
X72402583Y-48352969D01*
X72408772Y-48366054D01*
X72413649Y-48379683D01*
X72417166Y-48393724D01*
X72419290Y-48408042D01*
X72420000Y-48422500D01*
X72420000Y-48717500D01*
X72419290Y-48731958D01*
X72417166Y-48746276D01*
X72413649Y-48760317D01*
X72408772Y-48773946D01*
X72402583Y-48787031D01*
X72395142Y-48799447D01*
X72386519Y-48811073D01*
X72376798Y-48821798D01*
X72366073Y-48831519D01*
X72354447Y-48840142D01*
X72342031Y-48847583D01*
X72328946Y-48853772D01*
X72315317Y-48858649D01*
X72301276Y-48862166D01*
X72286958Y-48864290D01*
X72272500Y-48865000D01*
X71927500Y-48865000D01*
X71913042Y-48864290D01*
X71898724Y-48862166D01*
X71884683Y-48858649D01*
X71871054Y-48853772D01*
X71857969Y-48847583D01*
X71845553Y-48840142D01*
X71833927Y-48831519D01*
X71823202Y-48821798D01*
X71813481Y-48811073D01*
X71804858Y-48799447D01*
X71797417Y-48787031D01*
X71791228Y-48773946D01*
X71786351Y-48760317D01*
X71782834Y-48746276D01*
X71780710Y-48731958D01*
X71780000Y-48717500D01*
X71780000Y-48422500D01*
X71780710Y-48408042D01*
X71782834Y-48393724D01*
X71786351Y-48379683D01*
X71791228Y-48366054D01*
X71797417Y-48352969D01*
X71804858Y-48340553D01*
X71813481Y-48328927D01*
X71823202Y-48318202D01*
X71833927Y-48308481D01*
X71845553Y-48299858D01*
X71857969Y-48292417D01*
X71871054Y-48286228D01*
X71884683Y-48281351D01*
X71898724Y-48277834D01*
X71913042Y-48275710D01*
X71927500Y-48275000D01*
X72272500Y-48275000D01*
X72286958Y-48275710D01*
X72286958Y-48275710D01*
G37*
D14*
X72100000Y-48570000D03*
D13*
G36*
X72286958Y-47305710D02*
G01*
X72301276Y-47307834D01*
X72315317Y-47311351D01*
X72328946Y-47316228D01*
X72342031Y-47322417D01*
X72354447Y-47329858D01*
X72366073Y-47338481D01*
X72376798Y-47348202D01*
X72386519Y-47358927D01*
X72395142Y-47370553D01*
X72402583Y-47382969D01*
X72408772Y-47396054D01*
X72413649Y-47409683D01*
X72417166Y-47423724D01*
X72419290Y-47438042D01*
X72420000Y-47452500D01*
X72420000Y-47747500D01*
X72419290Y-47761958D01*
X72417166Y-47776276D01*
X72413649Y-47790317D01*
X72408772Y-47803946D01*
X72402583Y-47817031D01*
X72395142Y-47829447D01*
X72386519Y-47841073D01*
X72376798Y-47851798D01*
X72366073Y-47861519D01*
X72354447Y-47870142D01*
X72342031Y-47877583D01*
X72328946Y-47883772D01*
X72315317Y-47888649D01*
X72301276Y-47892166D01*
X72286958Y-47894290D01*
X72272500Y-47895000D01*
X71927500Y-47895000D01*
X71913042Y-47894290D01*
X71898724Y-47892166D01*
X71884683Y-47888649D01*
X71871054Y-47883772D01*
X71857969Y-47877583D01*
X71845553Y-47870142D01*
X71833927Y-47861519D01*
X71823202Y-47851798D01*
X71813481Y-47841073D01*
X71804858Y-47829447D01*
X71797417Y-47817031D01*
X71791228Y-47803946D01*
X71786351Y-47790317D01*
X71782834Y-47776276D01*
X71780710Y-47761958D01*
X71780000Y-47747500D01*
X71780000Y-47452500D01*
X71780710Y-47438042D01*
X71782834Y-47423724D01*
X71786351Y-47409683D01*
X71791228Y-47396054D01*
X71797417Y-47382969D01*
X71804858Y-47370553D01*
X71813481Y-47358927D01*
X71823202Y-47348202D01*
X71833927Y-47338481D01*
X71845553Y-47329858D01*
X71857969Y-47322417D01*
X71871054Y-47316228D01*
X71884683Y-47311351D01*
X71898724Y-47307834D01*
X71913042Y-47305710D01*
X71927500Y-47305000D01*
X72272500Y-47305000D01*
X72286958Y-47305710D01*
X72286958Y-47305710D01*
G37*
D14*
X72100000Y-47600000D03*
D13*
G36*
X70886958Y-47305710D02*
G01*
X70901276Y-47307834D01*
X70915317Y-47311351D01*
X70928946Y-47316228D01*
X70942031Y-47322417D01*
X70954447Y-47329858D01*
X70966073Y-47338481D01*
X70976798Y-47348202D01*
X70986519Y-47358927D01*
X70995142Y-47370553D01*
X71002583Y-47382969D01*
X71008772Y-47396054D01*
X71013649Y-47409683D01*
X71017166Y-47423724D01*
X71019290Y-47438042D01*
X71020000Y-47452500D01*
X71020000Y-47747500D01*
X71019290Y-47761958D01*
X71017166Y-47776276D01*
X71013649Y-47790317D01*
X71008772Y-47803946D01*
X71002583Y-47817031D01*
X70995142Y-47829447D01*
X70986519Y-47841073D01*
X70976798Y-47851798D01*
X70966073Y-47861519D01*
X70954447Y-47870142D01*
X70942031Y-47877583D01*
X70928946Y-47883772D01*
X70915317Y-47888649D01*
X70901276Y-47892166D01*
X70886958Y-47894290D01*
X70872500Y-47895000D01*
X70527500Y-47895000D01*
X70513042Y-47894290D01*
X70498724Y-47892166D01*
X70484683Y-47888649D01*
X70471054Y-47883772D01*
X70457969Y-47877583D01*
X70445553Y-47870142D01*
X70433927Y-47861519D01*
X70423202Y-47851798D01*
X70413481Y-47841073D01*
X70404858Y-47829447D01*
X70397417Y-47817031D01*
X70391228Y-47803946D01*
X70386351Y-47790317D01*
X70382834Y-47776276D01*
X70380710Y-47761958D01*
X70380000Y-47747500D01*
X70380000Y-47452500D01*
X70380710Y-47438042D01*
X70382834Y-47423724D01*
X70386351Y-47409683D01*
X70391228Y-47396054D01*
X70397417Y-47382969D01*
X70404858Y-47370553D01*
X70413481Y-47358927D01*
X70423202Y-47348202D01*
X70433927Y-47338481D01*
X70445553Y-47329858D01*
X70457969Y-47322417D01*
X70471054Y-47316228D01*
X70484683Y-47311351D01*
X70498724Y-47307834D01*
X70513042Y-47305710D01*
X70527500Y-47305000D01*
X70872500Y-47305000D01*
X70886958Y-47305710D01*
X70886958Y-47305710D01*
G37*
D14*
X70700000Y-47600000D03*
D13*
G36*
X70886958Y-48275710D02*
G01*
X70901276Y-48277834D01*
X70915317Y-48281351D01*
X70928946Y-48286228D01*
X70942031Y-48292417D01*
X70954447Y-48299858D01*
X70966073Y-48308481D01*
X70976798Y-48318202D01*
X70986519Y-48328927D01*
X70995142Y-48340553D01*
X71002583Y-48352969D01*
X71008772Y-48366054D01*
X71013649Y-48379683D01*
X71017166Y-48393724D01*
X71019290Y-48408042D01*
X71020000Y-48422500D01*
X71020000Y-48717500D01*
X71019290Y-48731958D01*
X71017166Y-48746276D01*
X71013649Y-48760317D01*
X71008772Y-48773946D01*
X71002583Y-48787031D01*
X70995142Y-48799447D01*
X70986519Y-48811073D01*
X70976798Y-48821798D01*
X70966073Y-48831519D01*
X70954447Y-48840142D01*
X70942031Y-48847583D01*
X70928946Y-48853772D01*
X70915317Y-48858649D01*
X70901276Y-48862166D01*
X70886958Y-48864290D01*
X70872500Y-48865000D01*
X70527500Y-48865000D01*
X70513042Y-48864290D01*
X70498724Y-48862166D01*
X70484683Y-48858649D01*
X70471054Y-48853772D01*
X70457969Y-48847583D01*
X70445553Y-48840142D01*
X70433927Y-48831519D01*
X70423202Y-48821798D01*
X70413481Y-48811073D01*
X70404858Y-48799447D01*
X70397417Y-48787031D01*
X70391228Y-48773946D01*
X70386351Y-48760317D01*
X70382834Y-48746276D01*
X70380710Y-48731958D01*
X70380000Y-48717500D01*
X70380000Y-48422500D01*
X70380710Y-48408042D01*
X70382834Y-48393724D01*
X70386351Y-48379683D01*
X70391228Y-48366054D01*
X70397417Y-48352969D01*
X70404858Y-48340553D01*
X70413481Y-48328927D01*
X70423202Y-48318202D01*
X70433927Y-48308481D01*
X70445553Y-48299858D01*
X70457969Y-48292417D01*
X70471054Y-48286228D01*
X70484683Y-48281351D01*
X70498724Y-48277834D01*
X70513042Y-48275710D01*
X70527500Y-48275000D01*
X70872500Y-48275000D01*
X70886958Y-48275710D01*
X70886958Y-48275710D01*
G37*
D14*
X70700000Y-48570000D03*
D13*
G36*
X69486958Y-50135710D02*
G01*
X69501276Y-50137834D01*
X69515317Y-50141351D01*
X69528946Y-50146228D01*
X69542031Y-50152417D01*
X69554447Y-50159858D01*
X69566073Y-50168481D01*
X69576798Y-50178202D01*
X69586519Y-50188927D01*
X69595142Y-50200553D01*
X69602583Y-50212969D01*
X69608772Y-50226054D01*
X69613649Y-50239683D01*
X69617166Y-50253724D01*
X69619290Y-50268042D01*
X69620000Y-50282500D01*
X69620000Y-50577500D01*
X69619290Y-50591958D01*
X69617166Y-50606276D01*
X69613649Y-50620317D01*
X69608772Y-50633946D01*
X69602583Y-50647031D01*
X69595142Y-50659447D01*
X69586519Y-50671073D01*
X69576798Y-50681798D01*
X69566073Y-50691519D01*
X69554447Y-50700142D01*
X69542031Y-50707583D01*
X69528946Y-50713772D01*
X69515317Y-50718649D01*
X69501276Y-50722166D01*
X69486958Y-50724290D01*
X69472500Y-50725000D01*
X69127500Y-50725000D01*
X69113042Y-50724290D01*
X69098724Y-50722166D01*
X69084683Y-50718649D01*
X69071054Y-50713772D01*
X69057969Y-50707583D01*
X69045553Y-50700142D01*
X69033927Y-50691519D01*
X69023202Y-50681798D01*
X69013481Y-50671073D01*
X69004858Y-50659447D01*
X68997417Y-50647031D01*
X68991228Y-50633946D01*
X68986351Y-50620317D01*
X68982834Y-50606276D01*
X68980710Y-50591958D01*
X68980000Y-50577500D01*
X68980000Y-50282500D01*
X68980710Y-50268042D01*
X68982834Y-50253724D01*
X68986351Y-50239683D01*
X68991228Y-50226054D01*
X68997417Y-50212969D01*
X69004858Y-50200553D01*
X69013481Y-50188927D01*
X69023202Y-50178202D01*
X69033927Y-50168481D01*
X69045553Y-50159858D01*
X69057969Y-50152417D01*
X69071054Y-50146228D01*
X69084683Y-50141351D01*
X69098724Y-50137834D01*
X69113042Y-50135710D01*
X69127500Y-50135000D01*
X69472500Y-50135000D01*
X69486958Y-50135710D01*
X69486958Y-50135710D01*
G37*
D14*
X69300000Y-50430000D03*
D13*
G36*
X69486958Y-51105710D02*
G01*
X69501276Y-51107834D01*
X69515317Y-51111351D01*
X69528946Y-51116228D01*
X69542031Y-51122417D01*
X69554447Y-51129858D01*
X69566073Y-51138481D01*
X69576798Y-51148202D01*
X69586519Y-51158927D01*
X69595142Y-51170553D01*
X69602583Y-51182969D01*
X69608772Y-51196054D01*
X69613649Y-51209683D01*
X69617166Y-51223724D01*
X69619290Y-51238042D01*
X69620000Y-51252500D01*
X69620000Y-51547500D01*
X69619290Y-51561958D01*
X69617166Y-51576276D01*
X69613649Y-51590317D01*
X69608772Y-51603946D01*
X69602583Y-51617031D01*
X69595142Y-51629447D01*
X69586519Y-51641073D01*
X69576798Y-51651798D01*
X69566073Y-51661519D01*
X69554447Y-51670142D01*
X69542031Y-51677583D01*
X69528946Y-51683772D01*
X69515317Y-51688649D01*
X69501276Y-51692166D01*
X69486958Y-51694290D01*
X69472500Y-51695000D01*
X69127500Y-51695000D01*
X69113042Y-51694290D01*
X69098724Y-51692166D01*
X69084683Y-51688649D01*
X69071054Y-51683772D01*
X69057969Y-51677583D01*
X69045553Y-51670142D01*
X69033927Y-51661519D01*
X69023202Y-51651798D01*
X69013481Y-51641073D01*
X69004858Y-51629447D01*
X68997417Y-51617031D01*
X68991228Y-51603946D01*
X68986351Y-51590317D01*
X68982834Y-51576276D01*
X68980710Y-51561958D01*
X68980000Y-51547500D01*
X68980000Y-51252500D01*
X68980710Y-51238042D01*
X68982834Y-51223724D01*
X68986351Y-51209683D01*
X68991228Y-51196054D01*
X68997417Y-51182969D01*
X69004858Y-51170553D01*
X69013481Y-51158927D01*
X69023202Y-51148202D01*
X69033927Y-51138481D01*
X69045553Y-51129858D01*
X69057969Y-51122417D01*
X69071054Y-51116228D01*
X69084683Y-51111351D01*
X69098724Y-51107834D01*
X69113042Y-51105710D01*
X69127500Y-51105000D01*
X69472500Y-51105000D01*
X69486958Y-51105710D01*
X69486958Y-51105710D01*
G37*
D14*
X69300000Y-51400000D03*
D13*
G36*
X70031958Y-55980710D02*
G01*
X70046276Y-55982834D01*
X70060317Y-55986351D01*
X70073946Y-55991228D01*
X70087031Y-55997417D01*
X70099447Y-56004858D01*
X70111073Y-56013481D01*
X70121798Y-56023202D01*
X70131519Y-56033927D01*
X70140142Y-56045553D01*
X70147583Y-56057969D01*
X70153772Y-56071054D01*
X70158649Y-56084683D01*
X70162166Y-56098724D01*
X70164290Y-56113042D01*
X70165000Y-56127500D01*
X70165000Y-56472500D01*
X70164290Y-56486958D01*
X70162166Y-56501276D01*
X70158649Y-56515317D01*
X70153772Y-56528946D01*
X70147583Y-56542031D01*
X70140142Y-56554447D01*
X70131519Y-56566073D01*
X70121798Y-56576798D01*
X70111073Y-56586519D01*
X70099447Y-56595142D01*
X70087031Y-56602583D01*
X70073946Y-56608772D01*
X70060317Y-56613649D01*
X70046276Y-56617166D01*
X70031958Y-56619290D01*
X70017500Y-56620000D01*
X69722500Y-56620000D01*
X69708042Y-56619290D01*
X69693724Y-56617166D01*
X69679683Y-56613649D01*
X69666054Y-56608772D01*
X69652969Y-56602583D01*
X69640553Y-56595142D01*
X69628927Y-56586519D01*
X69618202Y-56576798D01*
X69608481Y-56566073D01*
X69599858Y-56554447D01*
X69592417Y-56542031D01*
X69586228Y-56528946D01*
X69581351Y-56515317D01*
X69577834Y-56501276D01*
X69575710Y-56486958D01*
X69575000Y-56472500D01*
X69575000Y-56127500D01*
X69575710Y-56113042D01*
X69577834Y-56098724D01*
X69581351Y-56084683D01*
X69586228Y-56071054D01*
X69592417Y-56057969D01*
X69599858Y-56045553D01*
X69608481Y-56033927D01*
X69618202Y-56023202D01*
X69628927Y-56013481D01*
X69640553Y-56004858D01*
X69652969Y-55997417D01*
X69666054Y-55991228D01*
X69679683Y-55986351D01*
X69693724Y-55982834D01*
X69708042Y-55980710D01*
X69722500Y-55980000D01*
X70017500Y-55980000D01*
X70031958Y-55980710D01*
X70031958Y-55980710D01*
G37*
D14*
X69870000Y-56300000D03*
D13*
G36*
X69061958Y-55980710D02*
G01*
X69076276Y-55982834D01*
X69090317Y-55986351D01*
X69103946Y-55991228D01*
X69117031Y-55997417D01*
X69129447Y-56004858D01*
X69141073Y-56013481D01*
X69151798Y-56023202D01*
X69161519Y-56033927D01*
X69170142Y-56045553D01*
X69177583Y-56057969D01*
X69183772Y-56071054D01*
X69188649Y-56084683D01*
X69192166Y-56098724D01*
X69194290Y-56113042D01*
X69195000Y-56127500D01*
X69195000Y-56472500D01*
X69194290Y-56486958D01*
X69192166Y-56501276D01*
X69188649Y-56515317D01*
X69183772Y-56528946D01*
X69177583Y-56542031D01*
X69170142Y-56554447D01*
X69161519Y-56566073D01*
X69151798Y-56576798D01*
X69141073Y-56586519D01*
X69129447Y-56595142D01*
X69117031Y-56602583D01*
X69103946Y-56608772D01*
X69090317Y-56613649D01*
X69076276Y-56617166D01*
X69061958Y-56619290D01*
X69047500Y-56620000D01*
X68752500Y-56620000D01*
X68738042Y-56619290D01*
X68723724Y-56617166D01*
X68709683Y-56613649D01*
X68696054Y-56608772D01*
X68682969Y-56602583D01*
X68670553Y-56595142D01*
X68658927Y-56586519D01*
X68648202Y-56576798D01*
X68638481Y-56566073D01*
X68629858Y-56554447D01*
X68622417Y-56542031D01*
X68616228Y-56528946D01*
X68611351Y-56515317D01*
X68607834Y-56501276D01*
X68605710Y-56486958D01*
X68605000Y-56472500D01*
X68605000Y-56127500D01*
X68605710Y-56113042D01*
X68607834Y-56098724D01*
X68611351Y-56084683D01*
X68616228Y-56071054D01*
X68622417Y-56057969D01*
X68629858Y-56045553D01*
X68638481Y-56033927D01*
X68648202Y-56023202D01*
X68658927Y-56013481D01*
X68670553Y-56004858D01*
X68682969Y-55997417D01*
X68696054Y-55991228D01*
X68709683Y-55986351D01*
X68723724Y-55982834D01*
X68738042Y-55980710D01*
X68752500Y-55980000D01*
X69047500Y-55980000D01*
X69061958Y-55980710D01*
X69061958Y-55980710D01*
G37*
D14*
X68900000Y-56300000D03*
D13*
G36*
X61591958Y-57880710D02*
G01*
X61606276Y-57882834D01*
X61620317Y-57886351D01*
X61633946Y-57891228D01*
X61647031Y-57897417D01*
X61659447Y-57904858D01*
X61671073Y-57913481D01*
X61681798Y-57923202D01*
X61691519Y-57933927D01*
X61700142Y-57945553D01*
X61707583Y-57957969D01*
X61713772Y-57971054D01*
X61718649Y-57984683D01*
X61722166Y-57998724D01*
X61724290Y-58013042D01*
X61725000Y-58027500D01*
X61725000Y-58372500D01*
X61724290Y-58386958D01*
X61722166Y-58401276D01*
X61718649Y-58415317D01*
X61713772Y-58428946D01*
X61707583Y-58442031D01*
X61700142Y-58454447D01*
X61691519Y-58466073D01*
X61681798Y-58476798D01*
X61671073Y-58486519D01*
X61659447Y-58495142D01*
X61647031Y-58502583D01*
X61633946Y-58508772D01*
X61620317Y-58513649D01*
X61606276Y-58517166D01*
X61591958Y-58519290D01*
X61577500Y-58520000D01*
X61282500Y-58520000D01*
X61268042Y-58519290D01*
X61253724Y-58517166D01*
X61239683Y-58513649D01*
X61226054Y-58508772D01*
X61212969Y-58502583D01*
X61200553Y-58495142D01*
X61188927Y-58486519D01*
X61178202Y-58476798D01*
X61168481Y-58466073D01*
X61159858Y-58454447D01*
X61152417Y-58442031D01*
X61146228Y-58428946D01*
X61141351Y-58415317D01*
X61137834Y-58401276D01*
X61135710Y-58386958D01*
X61135000Y-58372500D01*
X61135000Y-58027500D01*
X61135710Y-58013042D01*
X61137834Y-57998724D01*
X61141351Y-57984683D01*
X61146228Y-57971054D01*
X61152417Y-57957969D01*
X61159858Y-57945553D01*
X61168481Y-57933927D01*
X61178202Y-57923202D01*
X61188927Y-57913481D01*
X61200553Y-57904858D01*
X61212969Y-57897417D01*
X61226054Y-57891228D01*
X61239683Y-57886351D01*
X61253724Y-57882834D01*
X61268042Y-57880710D01*
X61282500Y-57880000D01*
X61577500Y-57880000D01*
X61591958Y-57880710D01*
X61591958Y-57880710D01*
G37*
D14*
X61430000Y-58200000D03*
D13*
G36*
X62561958Y-57880710D02*
G01*
X62576276Y-57882834D01*
X62590317Y-57886351D01*
X62603946Y-57891228D01*
X62617031Y-57897417D01*
X62629447Y-57904858D01*
X62641073Y-57913481D01*
X62651798Y-57923202D01*
X62661519Y-57933927D01*
X62670142Y-57945553D01*
X62677583Y-57957969D01*
X62683772Y-57971054D01*
X62688649Y-57984683D01*
X62692166Y-57998724D01*
X62694290Y-58013042D01*
X62695000Y-58027500D01*
X62695000Y-58372500D01*
X62694290Y-58386958D01*
X62692166Y-58401276D01*
X62688649Y-58415317D01*
X62683772Y-58428946D01*
X62677583Y-58442031D01*
X62670142Y-58454447D01*
X62661519Y-58466073D01*
X62651798Y-58476798D01*
X62641073Y-58486519D01*
X62629447Y-58495142D01*
X62617031Y-58502583D01*
X62603946Y-58508772D01*
X62590317Y-58513649D01*
X62576276Y-58517166D01*
X62561958Y-58519290D01*
X62547500Y-58520000D01*
X62252500Y-58520000D01*
X62238042Y-58519290D01*
X62223724Y-58517166D01*
X62209683Y-58513649D01*
X62196054Y-58508772D01*
X62182969Y-58502583D01*
X62170553Y-58495142D01*
X62158927Y-58486519D01*
X62148202Y-58476798D01*
X62138481Y-58466073D01*
X62129858Y-58454447D01*
X62122417Y-58442031D01*
X62116228Y-58428946D01*
X62111351Y-58415317D01*
X62107834Y-58401276D01*
X62105710Y-58386958D01*
X62105000Y-58372500D01*
X62105000Y-58027500D01*
X62105710Y-58013042D01*
X62107834Y-57998724D01*
X62111351Y-57984683D01*
X62116228Y-57971054D01*
X62122417Y-57957969D01*
X62129858Y-57945553D01*
X62138481Y-57933927D01*
X62148202Y-57923202D01*
X62158927Y-57913481D01*
X62170553Y-57904858D01*
X62182969Y-57897417D01*
X62196054Y-57891228D01*
X62209683Y-57886351D01*
X62223724Y-57882834D01*
X62238042Y-57880710D01*
X62252500Y-57880000D01*
X62547500Y-57880000D01*
X62561958Y-57880710D01*
X62561958Y-57880710D01*
G37*
D14*
X62400000Y-58200000D03*
D13*
G36*
X67946958Y-55980710D02*
G01*
X67961276Y-55982834D01*
X67975317Y-55986351D01*
X67988946Y-55991228D01*
X68002031Y-55997417D01*
X68014447Y-56004858D01*
X68026073Y-56013481D01*
X68036798Y-56023202D01*
X68046519Y-56033927D01*
X68055142Y-56045553D01*
X68062583Y-56057969D01*
X68068772Y-56071054D01*
X68073649Y-56084683D01*
X68077166Y-56098724D01*
X68079290Y-56113042D01*
X68080000Y-56127500D01*
X68080000Y-56472500D01*
X68079290Y-56486958D01*
X68077166Y-56501276D01*
X68073649Y-56515317D01*
X68068772Y-56528946D01*
X68062583Y-56542031D01*
X68055142Y-56554447D01*
X68046519Y-56566073D01*
X68036798Y-56576798D01*
X68026073Y-56586519D01*
X68014447Y-56595142D01*
X68002031Y-56602583D01*
X67988946Y-56608772D01*
X67975317Y-56613649D01*
X67961276Y-56617166D01*
X67946958Y-56619290D01*
X67932500Y-56620000D01*
X67637500Y-56620000D01*
X67623042Y-56619290D01*
X67608724Y-56617166D01*
X67594683Y-56613649D01*
X67581054Y-56608772D01*
X67567969Y-56602583D01*
X67555553Y-56595142D01*
X67543927Y-56586519D01*
X67533202Y-56576798D01*
X67523481Y-56566073D01*
X67514858Y-56554447D01*
X67507417Y-56542031D01*
X67501228Y-56528946D01*
X67496351Y-56515317D01*
X67492834Y-56501276D01*
X67490710Y-56486958D01*
X67490000Y-56472500D01*
X67490000Y-56127500D01*
X67490710Y-56113042D01*
X67492834Y-56098724D01*
X67496351Y-56084683D01*
X67501228Y-56071054D01*
X67507417Y-56057969D01*
X67514858Y-56045553D01*
X67523481Y-56033927D01*
X67533202Y-56023202D01*
X67543927Y-56013481D01*
X67555553Y-56004858D01*
X67567969Y-55997417D01*
X67581054Y-55991228D01*
X67594683Y-55986351D01*
X67608724Y-55982834D01*
X67623042Y-55980710D01*
X67637500Y-55980000D01*
X67932500Y-55980000D01*
X67946958Y-55980710D01*
X67946958Y-55980710D01*
G37*
D14*
X67785000Y-56300000D03*
D13*
G36*
X66976958Y-55980710D02*
G01*
X66991276Y-55982834D01*
X67005317Y-55986351D01*
X67018946Y-55991228D01*
X67032031Y-55997417D01*
X67044447Y-56004858D01*
X67056073Y-56013481D01*
X67066798Y-56023202D01*
X67076519Y-56033927D01*
X67085142Y-56045553D01*
X67092583Y-56057969D01*
X67098772Y-56071054D01*
X67103649Y-56084683D01*
X67107166Y-56098724D01*
X67109290Y-56113042D01*
X67110000Y-56127500D01*
X67110000Y-56472500D01*
X67109290Y-56486958D01*
X67107166Y-56501276D01*
X67103649Y-56515317D01*
X67098772Y-56528946D01*
X67092583Y-56542031D01*
X67085142Y-56554447D01*
X67076519Y-56566073D01*
X67066798Y-56576798D01*
X67056073Y-56586519D01*
X67044447Y-56595142D01*
X67032031Y-56602583D01*
X67018946Y-56608772D01*
X67005317Y-56613649D01*
X66991276Y-56617166D01*
X66976958Y-56619290D01*
X66962500Y-56620000D01*
X66667500Y-56620000D01*
X66653042Y-56619290D01*
X66638724Y-56617166D01*
X66624683Y-56613649D01*
X66611054Y-56608772D01*
X66597969Y-56602583D01*
X66585553Y-56595142D01*
X66573927Y-56586519D01*
X66563202Y-56576798D01*
X66553481Y-56566073D01*
X66544858Y-56554447D01*
X66537417Y-56542031D01*
X66531228Y-56528946D01*
X66526351Y-56515317D01*
X66522834Y-56501276D01*
X66520710Y-56486958D01*
X66520000Y-56472500D01*
X66520000Y-56127500D01*
X66520710Y-56113042D01*
X66522834Y-56098724D01*
X66526351Y-56084683D01*
X66531228Y-56071054D01*
X66537417Y-56057969D01*
X66544858Y-56045553D01*
X66553481Y-56033927D01*
X66563202Y-56023202D01*
X66573927Y-56013481D01*
X66585553Y-56004858D01*
X66597969Y-55997417D01*
X66611054Y-55991228D01*
X66624683Y-55986351D01*
X66638724Y-55982834D01*
X66653042Y-55980710D01*
X66667500Y-55980000D01*
X66962500Y-55980000D01*
X66976958Y-55980710D01*
X66976958Y-55980710D01*
G37*
D14*
X66815000Y-56300000D03*
D13*
G36*
X62186958Y-47675710D02*
G01*
X62201276Y-47677834D01*
X62215317Y-47681351D01*
X62228946Y-47686228D01*
X62242031Y-47692417D01*
X62254447Y-47699858D01*
X62266073Y-47708481D01*
X62276798Y-47718202D01*
X62286519Y-47728927D01*
X62295142Y-47740553D01*
X62302583Y-47752969D01*
X62308772Y-47766054D01*
X62313649Y-47779683D01*
X62317166Y-47793724D01*
X62319290Y-47808042D01*
X62320000Y-47822500D01*
X62320000Y-48117500D01*
X62319290Y-48131958D01*
X62317166Y-48146276D01*
X62313649Y-48160317D01*
X62308772Y-48173946D01*
X62302583Y-48187031D01*
X62295142Y-48199447D01*
X62286519Y-48211073D01*
X62276798Y-48221798D01*
X62266073Y-48231519D01*
X62254447Y-48240142D01*
X62242031Y-48247583D01*
X62228946Y-48253772D01*
X62215317Y-48258649D01*
X62201276Y-48262166D01*
X62186958Y-48264290D01*
X62172500Y-48265000D01*
X61827500Y-48265000D01*
X61813042Y-48264290D01*
X61798724Y-48262166D01*
X61784683Y-48258649D01*
X61771054Y-48253772D01*
X61757969Y-48247583D01*
X61745553Y-48240142D01*
X61733927Y-48231519D01*
X61723202Y-48221798D01*
X61713481Y-48211073D01*
X61704858Y-48199447D01*
X61697417Y-48187031D01*
X61691228Y-48173946D01*
X61686351Y-48160317D01*
X61682834Y-48146276D01*
X61680710Y-48131958D01*
X61680000Y-48117500D01*
X61680000Y-47822500D01*
X61680710Y-47808042D01*
X61682834Y-47793724D01*
X61686351Y-47779683D01*
X61691228Y-47766054D01*
X61697417Y-47752969D01*
X61704858Y-47740553D01*
X61713481Y-47728927D01*
X61723202Y-47718202D01*
X61733927Y-47708481D01*
X61745553Y-47699858D01*
X61757969Y-47692417D01*
X61771054Y-47686228D01*
X61784683Y-47681351D01*
X61798724Y-47677834D01*
X61813042Y-47675710D01*
X61827500Y-47675000D01*
X62172500Y-47675000D01*
X62186958Y-47675710D01*
X62186958Y-47675710D01*
G37*
D14*
X62000000Y-47970000D03*
D13*
G36*
X62186958Y-46705710D02*
G01*
X62201276Y-46707834D01*
X62215317Y-46711351D01*
X62228946Y-46716228D01*
X62242031Y-46722417D01*
X62254447Y-46729858D01*
X62266073Y-46738481D01*
X62276798Y-46748202D01*
X62286519Y-46758927D01*
X62295142Y-46770553D01*
X62302583Y-46782969D01*
X62308772Y-46796054D01*
X62313649Y-46809683D01*
X62317166Y-46823724D01*
X62319290Y-46838042D01*
X62320000Y-46852500D01*
X62320000Y-47147500D01*
X62319290Y-47161958D01*
X62317166Y-47176276D01*
X62313649Y-47190317D01*
X62308772Y-47203946D01*
X62302583Y-47217031D01*
X62295142Y-47229447D01*
X62286519Y-47241073D01*
X62276798Y-47251798D01*
X62266073Y-47261519D01*
X62254447Y-47270142D01*
X62242031Y-47277583D01*
X62228946Y-47283772D01*
X62215317Y-47288649D01*
X62201276Y-47292166D01*
X62186958Y-47294290D01*
X62172500Y-47295000D01*
X61827500Y-47295000D01*
X61813042Y-47294290D01*
X61798724Y-47292166D01*
X61784683Y-47288649D01*
X61771054Y-47283772D01*
X61757969Y-47277583D01*
X61745553Y-47270142D01*
X61733927Y-47261519D01*
X61723202Y-47251798D01*
X61713481Y-47241073D01*
X61704858Y-47229447D01*
X61697417Y-47217031D01*
X61691228Y-47203946D01*
X61686351Y-47190317D01*
X61682834Y-47176276D01*
X61680710Y-47161958D01*
X61680000Y-47147500D01*
X61680000Y-46852500D01*
X61680710Y-46838042D01*
X61682834Y-46823724D01*
X61686351Y-46809683D01*
X61691228Y-46796054D01*
X61697417Y-46782969D01*
X61704858Y-46770553D01*
X61713481Y-46758927D01*
X61723202Y-46748202D01*
X61733927Y-46738481D01*
X61745553Y-46729858D01*
X61757969Y-46722417D01*
X61771054Y-46716228D01*
X61784683Y-46711351D01*
X61798724Y-46707834D01*
X61813042Y-46705710D01*
X61827500Y-46705000D01*
X62172500Y-46705000D01*
X62186958Y-46705710D01*
X62186958Y-46705710D01*
G37*
D14*
X62000000Y-47000000D03*
D13*
G36*
X62646958Y-54080710D02*
G01*
X62661276Y-54082834D01*
X62675317Y-54086351D01*
X62688946Y-54091228D01*
X62702031Y-54097417D01*
X62714447Y-54104858D01*
X62726073Y-54113481D01*
X62736798Y-54123202D01*
X62746519Y-54133927D01*
X62755142Y-54145553D01*
X62762583Y-54157969D01*
X62768772Y-54171054D01*
X62773649Y-54184683D01*
X62777166Y-54198724D01*
X62779290Y-54213042D01*
X62780000Y-54227500D01*
X62780000Y-54572500D01*
X62779290Y-54586958D01*
X62777166Y-54601276D01*
X62773649Y-54615317D01*
X62768772Y-54628946D01*
X62762583Y-54642031D01*
X62755142Y-54654447D01*
X62746519Y-54666073D01*
X62736798Y-54676798D01*
X62726073Y-54686519D01*
X62714447Y-54695142D01*
X62702031Y-54702583D01*
X62688946Y-54708772D01*
X62675317Y-54713649D01*
X62661276Y-54717166D01*
X62646958Y-54719290D01*
X62632500Y-54720000D01*
X62337500Y-54720000D01*
X62323042Y-54719290D01*
X62308724Y-54717166D01*
X62294683Y-54713649D01*
X62281054Y-54708772D01*
X62267969Y-54702583D01*
X62255553Y-54695142D01*
X62243927Y-54686519D01*
X62233202Y-54676798D01*
X62223481Y-54666073D01*
X62214858Y-54654447D01*
X62207417Y-54642031D01*
X62201228Y-54628946D01*
X62196351Y-54615317D01*
X62192834Y-54601276D01*
X62190710Y-54586958D01*
X62190000Y-54572500D01*
X62190000Y-54227500D01*
X62190710Y-54213042D01*
X62192834Y-54198724D01*
X62196351Y-54184683D01*
X62201228Y-54171054D01*
X62207417Y-54157969D01*
X62214858Y-54145553D01*
X62223481Y-54133927D01*
X62233202Y-54123202D01*
X62243927Y-54113481D01*
X62255553Y-54104858D01*
X62267969Y-54097417D01*
X62281054Y-54091228D01*
X62294683Y-54086351D01*
X62308724Y-54082834D01*
X62323042Y-54080710D01*
X62337500Y-54080000D01*
X62632500Y-54080000D01*
X62646958Y-54080710D01*
X62646958Y-54080710D01*
G37*
D14*
X62485000Y-54400000D03*
D13*
G36*
X61676958Y-54080710D02*
G01*
X61691276Y-54082834D01*
X61705317Y-54086351D01*
X61718946Y-54091228D01*
X61732031Y-54097417D01*
X61744447Y-54104858D01*
X61756073Y-54113481D01*
X61766798Y-54123202D01*
X61776519Y-54133927D01*
X61785142Y-54145553D01*
X61792583Y-54157969D01*
X61798772Y-54171054D01*
X61803649Y-54184683D01*
X61807166Y-54198724D01*
X61809290Y-54213042D01*
X61810000Y-54227500D01*
X61810000Y-54572500D01*
X61809290Y-54586958D01*
X61807166Y-54601276D01*
X61803649Y-54615317D01*
X61798772Y-54628946D01*
X61792583Y-54642031D01*
X61785142Y-54654447D01*
X61776519Y-54666073D01*
X61766798Y-54676798D01*
X61756073Y-54686519D01*
X61744447Y-54695142D01*
X61732031Y-54702583D01*
X61718946Y-54708772D01*
X61705317Y-54713649D01*
X61691276Y-54717166D01*
X61676958Y-54719290D01*
X61662500Y-54720000D01*
X61367500Y-54720000D01*
X61353042Y-54719290D01*
X61338724Y-54717166D01*
X61324683Y-54713649D01*
X61311054Y-54708772D01*
X61297969Y-54702583D01*
X61285553Y-54695142D01*
X61273927Y-54686519D01*
X61263202Y-54676798D01*
X61253481Y-54666073D01*
X61244858Y-54654447D01*
X61237417Y-54642031D01*
X61231228Y-54628946D01*
X61226351Y-54615317D01*
X61222834Y-54601276D01*
X61220710Y-54586958D01*
X61220000Y-54572500D01*
X61220000Y-54227500D01*
X61220710Y-54213042D01*
X61222834Y-54198724D01*
X61226351Y-54184683D01*
X61231228Y-54171054D01*
X61237417Y-54157969D01*
X61244858Y-54145553D01*
X61253481Y-54133927D01*
X61263202Y-54123202D01*
X61273927Y-54113481D01*
X61285553Y-54104858D01*
X61297969Y-54097417D01*
X61311054Y-54091228D01*
X61324683Y-54086351D01*
X61338724Y-54082834D01*
X61353042Y-54080710D01*
X61367500Y-54080000D01*
X61662500Y-54080000D01*
X61676958Y-54080710D01*
X61676958Y-54080710D01*
G37*
D14*
X61515000Y-54400000D03*
D18*
X73100000Y-58300000D03*
X72150000Y-56300000D03*
X74050000Y-56300000D03*
D13*
G36*
X62277691Y-49988553D02*
G01*
X62298926Y-49991703D01*
X62319750Y-49996919D01*
X62339962Y-50004151D01*
X62359368Y-50013330D01*
X62377781Y-50024366D01*
X62395024Y-50037154D01*
X62410930Y-50051570D01*
X62425346Y-50067476D01*
X62438134Y-50084719D01*
X62449170Y-50103132D01*
X62458349Y-50122538D01*
X62465581Y-50142750D01*
X62470797Y-50163574D01*
X62473947Y-50184809D01*
X62475000Y-50206250D01*
X62475000Y-50643750D01*
X62473947Y-50665191D01*
X62470797Y-50686426D01*
X62465581Y-50707250D01*
X62458349Y-50727462D01*
X62449170Y-50746868D01*
X62438134Y-50765281D01*
X62425346Y-50782524D01*
X62410930Y-50798430D01*
X62395024Y-50812846D01*
X62377781Y-50825634D01*
X62359368Y-50836670D01*
X62339962Y-50845849D01*
X62319750Y-50853081D01*
X62298926Y-50858297D01*
X62277691Y-50861447D01*
X62256250Y-50862500D01*
X61743750Y-50862500D01*
X61722309Y-50861447D01*
X61701074Y-50858297D01*
X61680250Y-50853081D01*
X61660038Y-50845849D01*
X61640632Y-50836670D01*
X61622219Y-50825634D01*
X61604976Y-50812846D01*
X61589070Y-50798430D01*
X61574654Y-50782524D01*
X61561866Y-50765281D01*
X61550830Y-50746868D01*
X61541651Y-50727462D01*
X61534419Y-50707250D01*
X61529203Y-50686426D01*
X61526053Y-50665191D01*
X61525000Y-50643750D01*
X61525000Y-50206250D01*
X61526053Y-50184809D01*
X61529203Y-50163574D01*
X61534419Y-50142750D01*
X61541651Y-50122538D01*
X61550830Y-50103132D01*
X61561866Y-50084719D01*
X61574654Y-50067476D01*
X61589070Y-50051570D01*
X61604976Y-50037154D01*
X61622219Y-50024366D01*
X61640632Y-50013330D01*
X61660038Y-50004151D01*
X61680250Y-49996919D01*
X61701074Y-49991703D01*
X61722309Y-49988553D01*
X61743750Y-49987500D01*
X62256250Y-49987500D01*
X62277691Y-49988553D01*
X62277691Y-49988553D01*
G37*
D19*
X62000000Y-50425000D03*
D13*
G36*
X62277691Y-51563553D02*
G01*
X62298926Y-51566703D01*
X62319750Y-51571919D01*
X62339962Y-51579151D01*
X62359368Y-51588330D01*
X62377781Y-51599366D01*
X62395024Y-51612154D01*
X62410930Y-51626570D01*
X62425346Y-51642476D01*
X62438134Y-51659719D01*
X62449170Y-51678132D01*
X62458349Y-51697538D01*
X62465581Y-51717750D01*
X62470797Y-51738574D01*
X62473947Y-51759809D01*
X62475000Y-51781250D01*
X62475000Y-52218750D01*
X62473947Y-52240191D01*
X62470797Y-52261426D01*
X62465581Y-52282250D01*
X62458349Y-52302462D01*
X62449170Y-52321868D01*
X62438134Y-52340281D01*
X62425346Y-52357524D01*
X62410930Y-52373430D01*
X62395024Y-52387846D01*
X62377781Y-52400634D01*
X62359368Y-52411670D01*
X62339962Y-52420849D01*
X62319750Y-52428081D01*
X62298926Y-52433297D01*
X62277691Y-52436447D01*
X62256250Y-52437500D01*
X61743750Y-52437500D01*
X61722309Y-52436447D01*
X61701074Y-52433297D01*
X61680250Y-52428081D01*
X61660038Y-52420849D01*
X61640632Y-52411670D01*
X61622219Y-52400634D01*
X61604976Y-52387846D01*
X61589070Y-52373430D01*
X61574654Y-52357524D01*
X61561866Y-52340281D01*
X61550830Y-52321868D01*
X61541651Y-52302462D01*
X61534419Y-52282250D01*
X61529203Y-52261426D01*
X61526053Y-52240191D01*
X61525000Y-52218750D01*
X61525000Y-51781250D01*
X61526053Y-51759809D01*
X61529203Y-51738574D01*
X61534419Y-51717750D01*
X61541651Y-51697538D01*
X61550830Y-51678132D01*
X61561866Y-51659719D01*
X61574654Y-51642476D01*
X61589070Y-51626570D01*
X61604976Y-51612154D01*
X61622219Y-51599366D01*
X61640632Y-51588330D01*
X61660038Y-51579151D01*
X61680250Y-51571919D01*
X61701074Y-51566703D01*
X61722309Y-51563553D01*
X61743750Y-51562500D01*
X62256250Y-51562500D01*
X62277691Y-51563553D01*
X62277691Y-51563553D01*
G37*
D19*
X62000000Y-52000000D03*
D13*
G36*
X61591958Y-56080710D02*
G01*
X61606276Y-56082834D01*
X61620317Y-56086351D01*
X61633946Y-56091228D01*
X61647031Y-56097417D01*
X61659447Y-56104858D01*
X61671073Y-56113481D01*
X61681798Y-56123202D01*
X61691519Y-56133927D01*
X61700142Y-56145553D01*
X61707583Y-56157969D01*
X61713772Y-56171054D01*
X61718649Y-56184683D01*
X61722166Y-56198724D01*
X61724290Y-56213042D01*
X61725000Y-56227500D01*
X61725000Y-56572500D01*
X61724290Y-56586958D01*
X61722166Y-56601276D01*
X61718649Y-56615317D01*
X61713772Y-56628946D01*
X61707583Y-56642031D01*
X61700142Y-56654447D01*
X61691519Y-56666073D01*
X61681798Y-56676798D01*
X61671073Y-56686519D01*
X61659447Y-56695142D01*
X61647031Y-56702583D01*
X61633946Y-56708772D01*
X61620317Y-56713649D01*
X61606276Y-56717166D01*
X61591958Y-56719290D01*
X61577500Y-56720000D01*
X61282500Y-56720000D01*
X61268042Y-56719290D01*
X61253724Y-56717166D01*
X61239683Y-56713649D01*
X61226054Y-56708772D01*
X61212969Y-56702583D01*
X61200553Y-56695142D01*
X61188927Y-56686519D01*
X61178202Y-56676798D01*
X61168481Y-56666073D01*
X61159858Y-56654447D01*
X61152417Y-56642031D01*
X61146228Y-56628946D01*
X61141351Y-56615317D01*
X61137834Y-56601276D01*
X61135710Y-56586958D01*
X61135000Y-56572500D01*
X61135000Y-56227500D01*
X61135710Y-56213042D01*
X61137834Y-56198724D01*
X61141351Y-56184683D01*
X61146228Y-56171054D01*
X61152417Y-56157969D01*
X61159858Y-56145553D01*
X61168481Y-56133927D01*
X61178202Y-56123202D01*
X61188927Y-56113481D01*
X61200553Y-56104858D01*
X61212969Y-56097417D01*
X61226054Y-56091228D01*
X61239683Y-56086351D01*
X61253724Y-56082834D01*
X61268042Y-56080710D01*
X61282500Y-56080000D01*
X61577500Y-56080000D01*
X61591958Y-56080710D01*
X61591958Y-56080710D01*
G37*
D14*
X61430000Y-56400000D03*
D13*
G36*
X62561958Y-56080710D02*
G01*
X62576276Y-56082834D01*
X62590317Y-56086351D01*
X62603946Y-56091228D01*
X62617031Y-56097417D01*
X62629447Y-56104858D01*
X62641073Y-56113481D01*
X62651798Y-56123202D01*
X62661519Y-56133927D01*
X62670142Y-56145553D01*
X62677583Y-56157969D01*
X62683772Y-56171054D01*
X62688649Y-56184683D01*
X62692166Y-56198724D01*
X62694290Y-56213042D01*
X62695000Y-56227500D01*
X62695000Y-56572500D01*
X62694290Y-56586958D01*
X62692166Y-56601276D01*
X62688649Y-56615317D01*
X62683772Y-56628946D01*
X62677583Y-56642031D01*
X62670142Y-56654447D01*
X62661519Y-56666073D01*
X62651798Y-56676798D01*
X62641073Y-56686519D01*
X62629447Y-56695142D01*
X62617031Y-56702583D01*
X62603946Y-56708772D01*
X62590317Y-56713649D01*
X62576276Y-56717166D01*
X62561958Y-56719290D01*
X62547500Y-56720000D01*
X62252500Y-56720000D01*
X62238042Y-56719290D01*
X62223724Y-56717166D01*
X62209683Y-56713649D01*
X62196054Y-56708772D01*
X62182969Y-56702583D01*
X62170553Y-56695142D01*
X62158927Y-56686519D01*
X62148202Y-56676798D01*
X62138481Y-56666073D01*
X62129858Y-56654447D01*
X62122417Y-56642031D01*
X62116228Y-56628946D01*
X62111351Y-56615317D01*
X62107834Y-56601276D01*
X62105710Y-56586958D01*
X62105000Y-56572500D01*
X62105000Y-56227500D01*
X62105710Y-56213042D01*
X62107834Y-56198724D01*
X62111351Y-56184683D01*
X62116228Y-56171054D01*
X62122417Y-56157969D01*
X62129858Y-56145553D01*
X62138481Y-56133927D01*
X62148202Y-56123202D01*
X62158927Y-56113481D01*
X62170553Y-56104858D01*
X62182969Y-56097417D01*
X62196054Y-56091228D01*
X62209683Y-56086351D01*
X62223724Y-56082834D01*
X62238042Y-56080710D01*
X62252500Y-56080000D01*
X62547500Y-56080000D01*
X62561958Y-56080710D01*
X62561958Y-56080710D01*
G37*
D14*
X62400000Y-56400000D03*
D13*
G36*
X66386958Y-50135710D02*
G01*
X66401276Y-50137834D01*
X66415317Y-50141351D01*
X66428946Y-50146228D01*
X66442031Y-50152417D01*
X66454447Y-50159858D01*
X66466073Y-50168481D01*
X66476798Y-50178202D01*
X66486519Y-50188927D01*
X66495142Y-50200553D01*
X66502583Y-50212969D01*
X66508772Y-50226054D01*
X66513649Y-50239683D01*
X66517166Y-50253724D01*
X66519290Y-50268042D01*
X66520000Y-50282500D01*
X66520000Y-50577500D01*
X66519290Y-50591958D01*
X66517166Y-50606276D01*
X66513649Y-50620317D01*
X66508772Y-50633946D01*
X66502583Y-50647031D01*
X66495142Y-50659447D01*
X66486519Y-50671073D01*
X66476798Y-50681798D01*
X66466073Y-50691519D01*
X66454447Y-50700142D01*
X66442031Y-50707583D01*
X66428946Y-50713772D01*
X66415317Y-50718649D01*
X66401276Y-50722166D01*
X66386958Y-50724290D01*
X66372500Y-50725000D01*
X66027500Y-50725000D01*
X66013042Y-50724290D01*
X65998724Y-50722166D01*
X65984683Y-50718649D01*
X65971054Y-50713772D01*
X65957969Y-50707583D01*
X65945553Y-50700142D01*
X65933927Y-50691519D01*
X65923202Y-50681798D01*
X65913481Y-50671073D01*
X65904858Y-50659447D01*
X65897417Y-50647031D01*
X65891228Y-50633946D01*
X65886351Y-50620317D01*
X65882834Y-50606276D01*
X65880710Y-50591958D01*
X65880000Y-50577500D01*
X65880000Y-50282500D01*
X65880710Y-50268042D01*
X65882834Y-50253724D01*
X65886351Y-50239683D01*
X65891228Y-50226054D01*
X65897417Y-50212969D01*
X65904858Y-50200553D01*
X65913481Y-50188927D01*
X65923202Y-50178202D01*
X65933927Y-50168481D01*
X65945553Y-50159858D01*
X65957969Y-50152417D01*
X65971054Y-50146228D01*
X65984683Y-50141351D01*
X65998724Y-50137834D01*
X66013042Y-50135710D01*
X66027500Y-50135000D01*
X66372500Y-50135000D01*
X66386958Y-50135710D01*
X66386958Y-50135710D01*
G37*
D14*
X66200000Y-50430000D03*
D13*
G36*
X66386958Y-51105710D02*
G01*
X66401276Y-51107834D01*
X66415317Y-51111351D01*
X66428946Y-51116228D01*
X66442031Y-51122417D01*
X66454447Y-51129858D01*
X66466073Y-51138481D01*
X66476798Y-51148202D01*
X66486519Y-51158927D01*
X66495142Y-51170553D01*
X66502583Y-51182969D01*
X66508772Y-51196054D01*
X66513649Y-51209683D01*
X66517166Y-51223724D01*
X66519290Y-51238042D01*
X66520000Y-51252500D01*
X66520000Y-51547500D01*
X66519290Y-51561958D01*
X66517166Y-51576276D01*
X66513649Y-51590317D01*
X66508772Y-51603946D01*
X66502583Y-51617031D01*
X66495142Y-51629447D01*
X66486519Y-51641073D01*
X66476798Y-51651798D01*
X66466073Y-51661519D01*
X66454447Y-51670142D01*
X66442031Y-51677583D01*
X66428946Y-51683772D01*
X66415317Y-51688649D01*
X66401276Y-51692166D01*
X66386958Y-51694290D01*
X66372500Y-51695000D01*
X66027500Y-51695000D01*
X66013042Y-51694290D01*
X65998724Y-51692166D01*
X65984683Y-51688649D01*
X65971054Y-51683772D01*
X65957969Y-51677583D01*
X65945553Y-51670142D01*
X65933927Y-51661519D01*
X65923202Y-51651798D01*
X65913481Y-51641073D01*
X65904858Y-51629447D01*
X65897417Y-51617031D01*
X65891228Y-51603946D01*
X65886351Y-51590317D01*
X65882834Y-51576276D01*
X65880710Y-51561958D01*
X65880000Y-51547500D01*
X65880000Y-51252500D01*
X65880710Y-51238042D01*
X65882834Y-51223724D01*
X65886351Y-51209683D01*
X65891228Y-51196054D01*
X65897417Y-51182969D01*
X65904858Y-51170553D01*
X65913481Y-51158927D01*
X65923202Y-51148202D01*
X65933927Y-51138481D01*
X65945553Y-51129858D01*
X65957969Y-51122417D01*
X65971054Y-51116228D01*
X65984683Y-51111351D01*
X65998724Y-51107834D01*
X66013042Y-51105710D01*
X66027500Y-51105000D01*
X66372500Y-51105000D01*
X66386958Y-51105710D01*
X66386958Y-51105710D01*
G37*
D14*
X66200000Y-51400000D03*
D13*
G36*
X64986958Y-51105710D02*
G01*
X65001276Y-51107834D01*
X65015317Y-51111351D01*
X65028946Y-51116228D01*
X65042031Y-51122417D01*
X65054447Y-51129858D01*
X65066073Y-51138481D01*
X65076798Y-51148202D01*
X65086519Y-51158927D01*
X65095142Y-51170553D01*
X65102583Y-51182969D01*
X65108772Y-51196054D01*
X65113649Y-51209683D01*
X65117166Y-51223724D01*
X65119290Y-51238042D01*
X65120000Y-51252500D01*
X65120000Y-51547500D01*
X65119290Y-51561958D01*
X65117166Y-51576276D01*
X65113649Y-51590317D01*
X65108772Y-51603946D01*
X65102583Y-51617031D01*
X65095142Y-51629447D01*
X65086519Y-51641073D01*
X65076798Y-51651798D01*
X65066073Y-51661519D01*
X65054447Y-51670142D01*
X65042031Y-51677583D01*
X65028946Y-51683772D01*
X65015317Y-51688649D01*
X65001276Y-51692166D01*
X64986958Y-51694290D01*
X64972500Y-51695000D01*
X64627500Y-51695000D01*
X64613042Y-51694290D01*
X64598724Y-51692166D01*
X64584683Y-51688649D01*
X64571054Y-51683772D01*
X64557969Y-51677583D01*
X64545553Y-51670142D01*
X64533927Y-51661519D01*
X64523202Y-51651798D01*
X64513481Y-51641073D01*
X64504858Y-51629447D01*
X64497417Y-51617031D01*
X64491228Y-51603946D01*
X64486351Y-51590317D01*
X64482834Y-51576276D01*
X64480710Y-51561958D01*
X64480000Y-51547500D01*
X64480000Y-51252500D01*
X64480710Y-51238042D01*
X64482834Y-51223724D01*
X64486351Y-51209683D01*
X64491228Y-51196054D01*
X64497417Y-51182969D01*
X64504858Y-51170553D01*
X64513481Y-51158927D01*
X64523202Y-51148202D01*
X64533927Y-51138481D01*
X64545553Y-51129858D01*
X64557969Y-51122417D01*
X64571054Y-51116228D01*
X64584683Y-51111351D01*
X64598724Y-51107834D01*
X64613042Y-51105710D01*
X64627500Y-51105000D01*
X64972500Y-51105000D01*
X64986958Y-51105710D01*
X64986958Y-51105710D01*
G37*
D14*
X64800000Y-51400000D03*
D13*
G36*
X64986958Y-50135710D02*
G01*
X65001276Y-50137834D01*
X65015317Y-50141351D01*
X65028946Y-50146228D01*
X65042031Y-50152417D01*
X65054447Y-50159858D01*
X65066073Y-50168481D01*
X65076798Y-50178202D01*
X65086519Y-50188927D01*
X65095142Y-50200553D01*
X65102583Y-50212969D01*
X65108772Y-50226054D01*
X65113649Y-50239683D01*
X65117166Y-50253724D01*
X65119290Y-50268042D01*
X65120000Y-50282500D01*
X65120000Y-50577500D01*
X65119290Y-50591958D01*
X65117166Y-50606276D01*
X65113649Y-50620317D01*
X65108772Y-50633946D01*
X65102583Y-50647031D01*
X65095142Y-50659447D01*
X65086519Y-50671073D01*
X65076798Y-50681798D01*
X65066073Y-50691519D01*
X65054447Y-50700142D01*
X65042031Y-50707583D01*
X65028946Y-50713772D01*
X65015317Y-50718649D01*
X65001276Y-50722166D01*
X64986958Y-50724290D01*
X64972500Y-50725000D01*
X64627500Y-50725000D01*
X64613042Y-50724290D01*
X64598724Y-50722166D01*
X64584683Y-50718649D01*
X64571054Y-50713772D01*
X64557969Y-50707583D01*
X64545553Y-50700142D01*
X64533927Y-50691519D01*
X64523202Y-50681798D01*
X64513481Y-50671073D01*
X64504858Y-50659447D01*
X64497417Y-50647031D01*
X64491228Y-50633946D01*
X64486351Y-50620317D01*
X64482834Y-50606276D01*
X64480710Y-50591958D01*
X64480000Y-50577500D01*
X64480000Y-50282500D01*
X64480710Y-50268042D01*
X64482834Y-50253724D01*
X64486351Y-50239683D01*
X64491228Y-50226054D01*
X64497417Y-50212969D01*
X64504858Y-50200553D01*
X64513481Y-50188927D01*
X64523202Y-50178202D01*
X64533927Y-50168481D01*
X64545553Y-50159858D01*
X64557969Y-50152417D01*
X64571054Y-50146228D01*
X64584683Y-50141351D01*
X64598724Y-50137834D01*
X64613042Y-50135710D01*
X64627500Y-50135000D01*
X64972500Y-50135000D01*
X64986958Y-50135710D01*
X64986958Y-50135710D01*
G37*
D14*
X64800000Y-50430000D03*
D13*
G36*
X72491958Y-53480710D02*
G01*
X72506276Y-53482834D01*
X72520317Y-53486351D01*
X72533946Y-53491228D01*
X72547031Y-53497417D01*
X72559447Y-53504858D01*
X72571073Y-53513481D01*
X72581798Y-53523202D01*
X72591519Y-53533927D01*
X72600142Y-53545553D01*
X72607583Y-53557969D01*
X72613772Y-53571054D01*
X72618649Y-53584683D01*
X72622166Y-53598724D01*
X72624290Y-53613042D01*
X72625000Y-53627500D01*
X72625000Y-53972500D01*
X72624290Y-53986958D01*
X72622166Y-54001276D01*
X72618649Y-54015317D01*
X72613772Y-54028946D01*
X72607583Y-54042031D01*
X72600142Y-54054447D01*
X72591519Y-54066073D01*
X72581798Y-54076798D01*
X72571073Y-54086519D01*
X72559447Y-54095142D01*
X72547031Y-54102583D01*
X72533946Y-54108772D01*
X72520317Y-54113649D01*
X72506276Y-54117166D01*
X72491958Y-54119290D01*
X72477500Y-54120000D01*
X72182500Y-54120000D01*
X72168042Y-54119290D01*
X72153724Y-54117166D01*
X72139683Y-54113649D01*
X72126054Y-54108772D01*
X72112969Y-54102583D01*
X72100553Y-54095142D01*
X72088927Y-54086519D01*
X72078202Y-54076798D01*
X72068481Y-54066073D01*
X72059858Y-54054447D01*
X72052417Y-54042031D01*
X72046228Y-54028946D01*
X72041351Y-54015317D01*
X72037834Y-54001276D01*
X72035710Y-53986958D01*
X72035000Y-53972500D01*
X72035000Y-53627500D01*
X72035710Y-53613042D01*
X72037834Y-53598724D01*
X72041351Y-53584683D01*
X72046228Y-53571054D01*
X72052417Y-53557969D01*
X72059858Y-53545553D01*
X72068481Y-53533927D01*
X72078202Y-53523202D01*
X72088927Y-53513481D01*
X72100553Y-53504858D01*
X72112969Y-53497417D01*
X72126054Y-53491228D01*
X72139683Y-53486351D01*
X72153724Y-53482834D01*
X72168042Y-53480710D01*
X72182500Y-53480000D01*
X72477500Y-53480000D01*
X72491958Y-53480710D01*
X72491958Y-53480710D01*
G37*
D14*
X72330000Y-53800000D03*
D13*
G36*
X73461958Y-53480710D02*
G01*
X73476276Y-53482834D01*
X73490317Y-53486351D01*
X73503946Y-53491228D01*
X73517031Y-53497417D01*
X73529447Y-53504858D01*
X73541073Y-53513481D01*
X73551798Y-53523202D01*
X73561519Y-53533927D01*
X73570142Y-53545553D01*
X73577583Y-53557969D01*
X73583772Y-53571054D01*
X73588649Y-53584683D01*
X73592166Y-53598724D01*
X73594290Y-53613042D01*
X73595000Y-53627500D01*
X73595000Y-53972500D01*
X73594290Y-53986958D01*
X73592166Y-54001276D01*
X73588649Y-54015317D01*
X73583772Y-54028946D01*
X73577583Y-54042031D01*
X73570142Y-54054447D01*
X73561519Y-54066073D01*
X73551798Y-54076798D01*
X73541073Y-54086519D01*
X73529447Y-54095142D01*
X73517031Y-54102583D01*
X73503946Y-54108772D01*
X73490317Y-54113649D01*
X73476276Y-54117166D01*
X73461958Y-54119290D01*
X73447500Y-54120000D01*
X73152500Y-54120000D01*
X73138042Y-54119290D01*
X73123724Y-54117166D01*
X73109683Y-54113649D01*
X73096054Y-54108772D01*
X73082969Y-54102583D01*
X73070553Y-54095142D01*
X73058927Y-54086519D01*
X73048202Y-54076798D01*
X73038481Y-54066073D01*
X73029858Y-54054447D01*
X73022417Y-54042031D01*
X73016228Y-54028946D01*
X73011351Y-54015317D01*
X73007834Y-54001276D01*
X73005710Y-53986958D01*
X73005000Y-53972500D01*
X73005000Y-53627500D01*
X73005710Y-53613042D01*
X73007834Y-53598724D01*
X73011351Y-53584683D01*
X73016228Y-53571054D01*
X73022417Y-53557969D01*
X73029858Y-53545553D01*
X73038481Y-53533927D01*
X73048202Y-53523202D01*
X73058927Y-53513481D01*
X73070553Y-53504858D01*
X73082969Y-53497417D01*
X73096054Y-53491228D01*
X73109683Y-53486351D01*
X73123724Y-53482834D01*
X73138042Y-53480710D01*
X73152500Y-53480000D01*
X73447500Y-53480000D01*
X73461958Y-53480710D01*
X73461958Y-53480710D01*
G37*
D14*
X73300000Y-53800000D03*
D13*
G36*
X68186958Y-50135710D02*
G01*
X68201276Y-50137834D01*
X68215317Y-50141351D01*
X68228946Y-50146228D01*
X68242031Y-50152417D01*
X68254447Y-50159858D01*
X68266073Y-50168481D01*
X68276798Y-50178202D01*
X68286519Y-50188927D01*
X68295142Y-50200553D01*
X68302583Y-50212969D01*
X68308772Y-50226054D01*
X68313649Y-50239683D01*
X68317166Y-50253724D01*
X68319290Y-50268042D01*
X68320000Y-50282500D01*
X68320000Y-50577500D01*
X68319290Y-50591958D01*
X68317166Y-50606276D01*
X68313649Y-50620317D01*
X68308772Y-50633946D01*
X68302583Y-50647031D01*
X68295142Y-50659447D01*
X68286519Y-50671073D01*
X68276798Y-50681798D01*
X68266073Y-50691519D01*
X68254447Y-50700142D01*
X68242031Y-50707583D01*
X68228946Y-50713772D01*
X68215317Y-50718649D01*
X68201276Y-50722166D01*
X68186958Y-50724290D01*
X68172500Y-50725000D01*
X67827500Y-50725000D01*
X67813042Y-50724290D01*
X67798724Y-50722166D01*
X67784683Y-50718649D01*
X67771054Y-50713772D01*
X67757969Y-50707583D01*
X67745553Y-50700142D01*
X67733927Y-50691519D01*
X67723202Y-50681798D01*
X67713481Y-50671073D01*
X67704858Y-50659447D01*
X67697417Y-50647031D01*
X67691228Y-50633946D01*
X67686351Y-50620317D01*
X67682834Y-50606276D01*
X67680710Y-50591958D01*
X67680000Y-50577500D01*
X67680000Y-50282500D01*
X67680710Y-50268042D01*
X67682834Y-50253724D01*
X67686351Y-50239683D01*
X67691228Y-50226054D01*
X67697417Y-50212969D01*
X67704858Y-50200553D01*
X67713481Y-50188927D01*
X67723202Y-50178202D01*
X67733927Y-50168481D01*
X67745553Y-50159858D01*
X67757969Y-50152417D01*
X67771054Y-50146228D01*
X67784683Y-50141351D01*
X67798724Y-50137834D01*
X67813042Y-50135710D01*
X67827500Y-50135000D01*
X68172500Y-50135000D01*
X68186958Y-50135710D01*
X68186958Y-50135710D01*
G37*
D14*
X68000000Y-50430000D03*
D13*
G36*
X68186958Y-51105710D02*
G01*
X68201276Y-51107834D01*
X68215317Y-51111351D01*
X68228946Y-51116228D01*
X68242031Y-51122417D01*
X68254447Y-51129858D01*
X68266073Y-51138481D01*
X68276798Y-51148202D01*
X68286519Y-51158927D01*
X68295142Y-51170553D01*
X68302583Y-51182969D01*
X68308772Y-51196054D01*
X68313649Y-51209683D01*
X68317166Y-51223724D01*
X68319290Y-51238042D01*
X68320000Y-51252500D01*
X68320000Y-51547500D01*
X68319290Y-51561958D01*
X68317166Y-51576276D01*
X68313649Y-51590317D01*
X68308772Y-51603946D01*
X68302583Y-51617031D01*
X68295142Y-51629447D01*
X68286519Y-51641073D01*
X68276798Y-51651798D01*
X68266073Y-51661519D01*
X68254447Y-51670142D01*
X68242031Y-51677583D01*
X68228946Y-51683772D01*
X68215317Y-51688649D01*
X68201276Y-51692166D01*
X68186958Y-51694290D01*
X68172500Y-51695000D01*
X67827500Y-51695000D01*
X67813042Y-51694290D01*
X67798724Y-51692166D01*
X67784683Y-51688649D01*
X67771054Y-51683772D01*
X67757969Y-51677583D01*
X67745553Y-51670142D01*
X67733927Y-51661519D01*
X67723202Y-51651798D01*
X67713481Y-51641073D01*
X67704858Y-51629447D01*
X67697417Y-51617031D01*
X67691228Y-51603946D01*
X67686351Y-51590317D01*
X67682834Y-51576276D01*
X67680710Y-51561958D01*
X67680000Y-51547500D01*
X67680000Y-51252500D01*
X67680710Y-51238042D01*
X67682834Y-51223724D01*
X67686351Y-51209683D01*
X67691228Y-51196054D01*
X67697417Y-51182969D01*
X67704858Y-51170553D01*
X67713481Y-51158927D01*
X67723202Y-51148202D01*
X67733927Y-51138481D01*
X67745553Y-51129858D01*
X67757969Y-51122417D01*
X67771054Y-51116228D01*
X67784683Y-51111351D01*
X67798724Y-51107834D01*
X67813042Y-51105710D01*
X67827500Y-51105000D01*
X68172500Y-51105000D01*
X68186958Y-51105710D01*
X68186958Y-51105710D01*
G37*
D14*
X68000000Y-51400000D03*
D18*
X68450000Y-57700000D03*
X69400000Y-59700000D03*
X67500000Y-59700000D03*
X64800000Y-57700000D03*
X65750000Y-59700000D03*
X63850000Y-59700000D03*
D13*
G36*
X64580142Y-52876174D02*
G01*
X64603803Y-52879684D01*
X64627007Y-52885496D01*
X64649529Y-52893554D01*
X64671153Y-52903782D01*
X64691670Y-52916079D01*
X64710883Y-52930329D01*
X64728607Y-52946393D01*
X64744671Y-52964117D01*
X64758921Y-52983330D01*
X64771218Y-53003847D01*
X64781446Y-53025471D01*
X64789504Y-53047993D01*
X64795316Y-53071197D01*
X64798826Y-53094858D01*
X64800000Y-53118750D01*
X64800000Y-53606250D01*
X64798826Y-53630142D01*
X64795316Y-53653803D01*
X64789504Y-53677007D01*
X64781446Y-53699529D01*
X64771218Y-53721153D01*
X64758921Y-53741670D01*
X64744671Y-53760883D01*
X64728607Y-53778607D01*
X64710883Y-53794671D01*
X64691670Y-53808921D01*
X64671153Y-53821218D01*
X64649529Y-53831446D01*
X64627007Y-53839504D01*
X64603803Y-53845316D01*
X64580142Y-53848826D01*
X64556250Y-53850000D01*
X63643750Y-53850000D01*
X63619858Y-53848826D01*
X63596197Y-53845316D01*
X63572993Y-53839504D01*
X63550471Y-53831446D01*
X63528847Y-53821218D01*
X63508330Y-53808921D01*
X63489117Y-53794671D01*
X63471393Y-53778607D01*
X63455329Y-53760883D01*
X63441079Y-53741670D01*
X63428782Y-53721153D01*
X63418554Y-53699529D01*
X63410496Y-53677007D01*
X63404684Y-53653803D01*
X63401174Y-53630142D01*
X63400000Y-53606250D01*
X63400000Y-53118750D01*
X63401174Y-53094858D01*
X63404684Y-53071197D01*
X63410496Y-53047993D01*
X63418554Y-53025471D01*
X63428782Y-53003847D01*
X63441079Y-52983330D01*
X63455329Y-52964117D01*
X63471393Y-52946393D01*
X63489117Y-52930329D01*
X63508330Y-52916079D01*
X63528847Y-52903782D01*
X63550471Y-52893554D01*
X63572993Y-52885496D01*
X63596197Y-52879684D01*
X63619858Y-52876174D01*
X63643750Y-52875000D01*
X64556250Y-52875000D01*
X64580142Y-52876174D01*
X64580142Y-52876174D01*
G37*
D20*
X64100000Y-53362500D03*
D13*
G36*
X64580142Y-54751174D02*
G01*
X64603803Y-54754684D01*
X64627007Y-54760496D01*
X64649529Y-54768554D01*
X64671153Y-54778782D01*
X64691670Y-54791079D01*
X64710883Y-54805329D01*
X64728607Y-54821393D01*
X64744671Y-54839117D01*
X64758921Y-54858330D01*
X64771218Y-54878847D01*
X64781446Y-54900471D01*
X64789504Y-54922993D01*
X64795316Y-54946197D01*
X64798826Y-54969858D01*
X64800000Y-54993750D01*
X64800000Y-55481250D01*
X64798826Y-55505142D01*
X64795316Y-55528803D01*
X64789504Y-55552007D01*
X64781446Y-55574529D01*
X64771218Y-55596153D01*
X64758921Y-55616670D01*
X64744671Y-55635883D01*
X64728607Y-55653607D01*
X64710883Y-55669671D01*
X64691670Y-55683921D01*
X64671153Y-55696218D01*
X64649529Y-55706446D01*
X64627007Y-55714504D01*
X64603803Y-55720316D01*
X64580142Y-55723826D01*
X64556250Y-55725000D01*
X63643750Y-55725000D01*
X63619858Y-55723826D01*
X63596197Y-55720316D01*
X63572993Y-55714504D01*
X63550471Y-55706446D01*
X63528847Y-55696218D01*
X63508330Y-55683921D01*
X63489117Y-55669671D01*
X63471393Y-55653607D01*
X63455329Y-55635883D01*
X63441079Y-55616670D01*
X63428782Y-55596153D01*
X63418554Y-55574529D01*
X63410496Y-55552007D01*
X63404684Y-55528803D01*
X63401174Y-55505142D01*
X63400000Y-55481250D01*
X63400000Y-54993750D01*
X63401174Y-54969858D01*
X63404684Y-54946197D01*
X63410496Y-54922993D01*
X63418554Y-54900471D01*
X63428782Y-54878847D01*
X63441079Y-54858330D01*
X63455329Y-54839117D01*
X63471393Y-54821393D01*
X63489117Y-54805329D01*
X63508330Y-54791079D01*
X63528847Y-54778782D01*
X63550471Y-54768554D01*
X63572993Y-54760496D01*
X63596197Y-54754684D01*
X63619858Y-54751174D01*
X63643750Y-54750000D01*
X64556250Y-54750000D01*
X64580142Y-54751174D01*
X64580142Y-54751174D01*
G37*
D20*
X64100000Y-55237500D03*
D21*
X69700000Y-53700000D03*
X66200000Y-53700000D03*
M02*
