M48
; DRILL file {KiCad (5.1.2-1)-1} date 2021 October 09, Saturday 10:12:47
; FORMAT={3:3/ absolute / metric / suppress leading zeros}
; #@! TF.CreationDate,2021-10-09T10:12:47+02:00
; #@! TF.GenerationSoftware,Kicad,Pcbnew,(5.1.2-1)-1
FMAT,2
METRIC,TZ
T1C0.400
%
G90
G05
T1
X58400Y-50400
X59200Y-42000
X59200Y-43100
X59200Y-44200
X59600Y-35400
X59600Y-36300
X59600Y-37200
X59700Y-33500
X60900Y-45600
X62100Y-35600
X62925Y-31530
X63000Y-33800
X63500Y-38200
X63500Y-49600
X63500Y-50500
X63500Y-51400
X63600Y-41600
X63600Y-42700
X63800Y-64300
X64100Y-55238
X64700Y-38200
X65800Y-38200
X65800Y-61100
X65863Y-55238
X67100Y-38200
X67100Y-67700
X67199Y-55038
X67800Y-67000
X68550Y-66250
X68700Y-60700
X69500Y-34400
X69500Y-34400
X69900Y-37400
X69900Y-38400
X70800Y-36300
X71300Y-52400
X71600Y-37700
X71800Y-34700
X72200Y-52400
X73119Y-42600
X74494Y-47510
X74700Y-45700
X74800Y-53800
X74800Y-54700
X75100Y-31800
X75300Y-43200
X75900Y-40300
X76100Y-38200
T0
M30
