G04 #@! TF.GenerationSoftware,KiCad,Pcbnew,7.0.1-0*
G04 #@! TF.CreationDate,2023-03-19T14:40:06+01:00*
G04 #@! TF.ProjectId,parasite,70617261-7369-4746-952e-6b696361645f,2.0.0*
G04 #@! TF.SameCoordinates,Original*
G04 #@! TF.FileFunction,Paste,Top*
G04 #@! TF.FilePolarity,Positive*
%FSLAX46Y46*%
G04 Gerber Fmt 4.6, Leading zero omitted, Abs format (unit mm)*
G04 Created by KiCad (PCBNEW 7.0.1-0) date 2023-03-19 14:40:06*
%MOMM*%
%LPD*%
G01*
G04 APERTURE LIST*
G04 Aperture macros list*
%AMRoundRect*
0 Rectangle with rounded corners*
0 $1 Rounding radius*
0 $2 $3 $4 $5 $6 $7 $8 $9 X,Y pos of 4 corners*
0 Add a 4 corners polygon primitive as box body*
4,1,4,$2,$3,$4,$5,$6,$7,$8,$9,$2,$3,0*
0 Add four circle primitives for the rounded corners*
1,1,$1+$1,$2,$3*
1,1,$1+$1,$4,$5*
1,1,$1+$1,$6,$7*
1,1,$1+$1,$8,$9*
0 Add four rect primitives between the rounded corners*
20,1,$1+$1,$2,$3,$4,$5,0*
20,1,$1+$1,$4,$5,$6,$7,0*
20,1,$1+$1,$6,$7,$8,$9,0*
20,1,$1+$1,$8,$9,$2,$3,0*%
G04 Aperture macros list end*
%ADD10R,1.700000X0.800000*%
%ADD11RoundRect,0.147500X-0.172500X0.147500X-0.172500X-0.147500X0.172500X-0.147500X0.172500X0.147500X0*%
%ADD12RoundRect,0.147500X0.147500X0.172500X-0.147500X0.172500X-0.147500X-0.172500X0.147500X-0.172500X0*%
%ADD13R,0.900000X0.800000*%
%ADD14RoundRect,0.147500X-0.147500X-0.172500X0.147500X-0.172500X0.147500X0.172500X-0.147500X0.172500X0*%
%ADD15RoundRect,0.147500X0.172500X-0.147500X0.172500X0.147500X-0.172500X0.147500X-0.172500X-0.147500X0*%
%ADD16R,1.000000X1.800000*%
%ADD17RoundRect,0.218750X0.218750X0.256250X-0.218750X0.256250X-0.218750X-0.256250X0.218750X-0.256250X0*%
%ADD18RoundRect,0.125000X0.125000X0.575000X-0.125000X0.575000X-0.125000X-0.575000X0.125000X-0.575000X0*%
%ADD19RoundRect,0.087500X0.187500X0.087500X-0.187500X0.087500X-0.187500X-0.087500X0.187500X-0.087500X0*%
%ADD20RoundRect,0.087500X-0.187500X-0.087500X0.187500X-0.087500X0.187500X0.087500X-0.187500X0.087500X0*%
%ADD21R,1.300000X1.700000*%
%ADD22R,2.000000X1.000000*%
%ADD23R,1.000000X2.000000*%
%ADD24R,0.900000X0.900000*%
%ADD25R,0.800000X0.800000*%
G04 APERTURE END LIST*
D10*
X63920000Y-48502000D03*
X63920000Y-51902000D03*
X72302000Y-51902000D03*
X72302000Y-48502000D03*
D11*
X69762000Y-58584000D03*
X69762000Y-59554000D03*
X71540000Y-58584000D03*
X71540000Y-59554000D03*
D12*
X62015000Y-57822000D03*
X61045000Y-57822000D03*
D13*
X65936000Y-59518000D03*
X65936000Y-57618000D03*
X63936000Y-58568000D03*
D14*
X61045000Y-55663000D03*
X62015000Y-55663000D03*
D12*
X61865000Y-50202000D03*
X60895000Y-50202000D03*
D15*
X70524000Y-55917000D03*
X70524000Y-54947000D03*
D16*
X69138500Y-49694000D03*
X66638500Y-49694000D03*
D17*
X61405500Y-52869000D03*
X59830500Y-52869000D03*
D11*
X68884500Y-52534000D03*
X68884500Y-53504000D03*
D15*
X67106500Y-53481000D03*
X67106500Y-52511000D03*
D11*
X74588000Y-52534000D03*
X74588000Y-53504000D03*
D15*
X76239000Y-53504000D03*
X76239000Y-52534000D03*
D18*
X74080000Y-56044000D03*
D19*
X75105000Y-55544000D03*
D20*
X73055000Y-55544000D03*
X73055000Y-56544000D03*
D19*
X75105000Y-56544000D03*
D21*
X68492000Y-55536000D03*
X64992000Y-55536000D03*
D22*
X60468000Y-31542550D03*
X60468000Y-32812550D03*
X60468000Y-34082550D03*
X60468000Y-35352550D03*
X60468000Y-36622550D03*
X60468000Y-37892550D03*
X60468000Y-39162550D03*
X60468000Y-40432550D03*
X60468000Y-41702550D03*
X60468000Y-42972550D03*
D23*
X62528000Y-45572550D03*
D24*
X63158000Y-43472550D03*
D23*
X63798000Y-45572550D03*
D24*
X64428000Y-43472550D03*
D23*
X65068000Y-45572550D03*
D24*
X65698000Y-43472550D03*
D23*
X66338000Y-45572550D03*
D24*
X66968000Y-43472550D03*
D23*
X67608000Y-45572550D03*
D24*
X68238000Y-43472550D03*
D23*
X68878000Y-45572550D03*
D24*
X69508000Y-43472550D03*
D23*
X70148000Y-45572550D03*
D24*
X70778000Y-43472550D03*
D23*
X71418000Y-45572550D03*
D22*
X73468000Y-42972550D03*
X73468000Y-41702550D03*
D24*
X71368000Y-41067550D03*
D22*
X73468000Y-40432550D03*
D24*
X71368000Y-39797550D03*
D22*
X73468000Y-39162550D03*
D24*
X71368000Y-38527550D03*
D22*
X73468000Y-37892550D03*
D24*
X71368000Y-37257550D03*
D22*
X73468000Y-36622550D03*
D24*
X71368000Y-35987550D03*
D22*
X73468000Y-35352550D03*
D24*
X71368000Y-34717550D03*
D22*
X73468000Y-34082550D03*
D24*
X71368000Y-33447550D03*
D22*
X73468000Y-32812550D03*
D24*
X71368000Y-32177550D03*
D22*
X73468000Y-31542550D03*
D12*
X59325000Y-29882000D03*
X58355000Y-29882000D03*
D25*
X58078000Y-33426000D03*
X58078000Y-31926000D03*
M02*
