G04 #@! TF.GenerationSoftware,KiCad,Pcbnew,(5.1.2-1)-1*
G04 #@! TF.CreationDate,2021-10-09T10:13:21+02:00*
G04 #@! TF.ProjectId,parasite,70617261-7369-4746-952e-6b696361645f,1.2.0*
G04 #@! TF.SameCoordinates,Original*
G04 #@! TF.FileFunction,Legend,Top*
G04 #@! TF.FilePolarity,Positive*
%FSLAX46Y46*%
G04 Gerber Fmt 4.6, Leading zero omitted, Abs format (unit mm)*
G04 Created by KiCad (PCBNEW (5.1.2-1)-1) date 2021-10-09 10:13:21*
%MOMM*%
%LPD*%
G04 APERTURE LIST*
%ADD10C,0.200000*%
%ADD11C,0.120000*%
%ADD12C,0.100000*%
%ADD13C,0.010000*%
%ADD14C,0.150000*%
G04 APERTURE END LIST*
D10*
X66233333Y-42966666D02*
X67233333Y-42966666D01*
X67433333Y-43033333D01*
X67566666Y-43166666D01*
X67633333Y-43366666D01*
X67633333Y-43500000D01*
X67633333Y-41633333D02*
X67633333Y-42300000D01*
X66233333Y-42300000D01*
X67500000Y-40366666D02*
X67566666Y-40433333D01*
X67633333Y-40633333D01*
X67633333Y-40766666D01*
X67566666Y-40966666D01*
X67433333Y-41100000D01*
X67300000Y-41166666D01*
X67033333Y-41233333D01*
X66833333Y-41233333D01*
X66566666Y-41166666D01*
X66433333Y-41100000D01*
X66300000Y-40966666D01*
X66233333Y-40766666D01*
X66233333Y-40633333D01*
X66300000Y-40433333D01*
X66366666Y-40366666D01*
X66233333Y-39366666D02*
X67233333Y-39366666D01*
X67433333Y-39433333D01*
X67566666Y-39566666D01*
X67633333Y-39766666D01*
X67633333Y-39900000D01*
X67633333Y-38033333D02*
X67633333Y-38700000D01*
X66233333Y-38700000D01*
X67500000Y-36766666D02*
X67566666Y-36833333D01*
X67633333Y-37033333D01*
X67633333Y-37166666D01*
X67566666Y-37366666D01*
X67433333Y-37500000D01*
X67300000Y-37566666D01*
X67033333Y-37633333D01*
X66833333Y-37633333D01*
X66566666Y-37566666D01*
X66433333Y-37500000D01*
X66300000Y-37366666D01*
X66233333Y-37166666D01*
X66233333Y-37033333D01*
X66300000Y-36833333D01*
X66366666Y-36766666D01*
X66233333Y-35766666D02*
X67233333Y-35766666D01*
X67433333Y-35833333D01*
X67566666Y-35966666D01*
X67633333Y-36166666D01*
X67633333Y-36300000D01*
X67633333Y-34433333D02*
X67633333Y-35100000D01*
X66233333Y-35100000D01*
X67500000Y-33166666D02*
X67566666Y-33233333D01*
X67633333Y-33433333D01*
X67633333Y-33566666D01*
X67566666Y-33766666D01*
X67433333Y-33900000D01*
X67300000Y-33966666D01*
X67033333Y-34033333D01*
X66833333Y-34033333D01*
X66566666Y-33966666D01*
X66433333Y-33900000D01*
X66300000Y-33766666D01*
X66233333Y-33566666D01*
X66233333Y-33433333D01*
X66300000Y-33233333D01*
X66366666Y-33166666D01*
X66233333Y-32166666D02*
X67233333Y-32166666D01*
X67433333Y-32233333D01*
X67566666Y-32366666D01*
X67633333Y-32566666D01*
X67633333Y-32700000D01*
X67633333Y-30833333D02*
X67633333Y-31500000D01*
X66233333Y-31500000D01*
X67500000Y-29566666D02*
X67566666Y-29633333D01*
X67633333Y-29833333D01*
X67633333Y-29966666D01*
X67566666Y-30166666D01*
X67433333Y-30300000D01*
X67300000Y-30366666D01*
X67033333Y-30433333D01*
X66833333Y-30433333D01*
X66566666Y-30366666D01*
X66433333Y-30300000D01*
X66300000Y-30166666D01*
X66233333Y-29966666D01*
X66233333Y-29833333D01*
X66300000Y-29633333D01*
X66366666Y-29566666D01*
D11*
X74200000Y-51700000D02*
G75*
G03X74200000Y-51700000I-200000J0D01*
G01*
D12*
X64914285Y-84061904D02*
X64914285Y-83261904D01*
X64914285Y-83566666D02*
X64990476Y-83528571D01*
X65142857Y-83528571D01*
X65219047Y-83566666D01*
X65257142Y-83604761D01*
X65295238Y-83680952D01*
X65295238Y-83909523D01*
X65257142Y-83985714D01*
X65219047Y-84023809D01*
X65142857Y-84061904D01*
X64990476Y-84061904D01*
X64914285Y-84023809D01*
X65638095Y-83757142D02*
X66247619Y-83757142D01*
X66628571Y-83528571D02*
X66628571Y-84328571D01*
X66628571Y-83566666D02*
X66704761Y-83528571D01*
X66857142Y-83528571D01*
X66933333Y-83566666D01*
X66971428Y-83604761D01*
X67009523Y-83680952D01*
X67009523Y-83909523D01*
X66971428Y-83985714D01*
X66933333Y-84023809D01*
X66857142Y-84061904D01*
X66704761Y-84061904D01*
X66628571Y-84023809D01*
X67695238Y-84061904D02*
X67695238Y-83642857D01*
X67657142Y-83566666D01*
X67580952Y-83528571D01*
X67428571Y-83528571D01*
X67352380Y-83566666D01*
X67695238Y-84023809D02*
X67619047Y-84061904D01*
X67428571Y-84061904D01*
X67352380Y-84023809D01*
X67314285Y-83947619D01*
X67314285Y-83871428D01*
X67352380Y-83795238D01*
X67428571Y-83757142D01*
X67619047Y-83757142D01*
X67695238Y-83719047D01*
X68076190Y-84061904D02*
X68076190Y-83528571D01*
X68076190Y-83680952D02*
X68114285Y-83604761D01*
X68152380Y-83566666D01*
X68228571Y-83528571D01*
X68304761Y-83528571D01*
X68914285Y-84061904D02*
X68914285Y-83642857D01*
X68876190Y-83566666D01*
X68800000Y-83528571D01*
X68647619Y-83528571D01*
X68571428Y-83566666D01*
X68914285Y-84023809D02*
X68838095Y-84061904D01*
X68647619Y-84061904D01*
X68571428Y-84023809D01*
X68533333Y-83947619D01*
X68533333Y-83871428D01*
X68571428Y-83795238D01*
X68647619Y-83757142D01*
X68838095Y-83757142D01*
X68914285Y-83719047D01*
X69257142Y-84023809D02*
X69333333Y-84061904D01*
X69485714Y-84061904D01*
X69561904Y-84023809D01*
X69600000Y-83947619D01*
X69600000Y-83909523D01*
X69561904Y-83833333D01*
X69485714Y-83795238D01*
X69371428Y-83795238D01*
X69295238Y-83757142D01*
X69257142Y-83680952D01*
X69257142Y-83642857D01*
X69295238Y-83566666D01*
X69371428Y-83528571D01*
X69485714Y-83528571D01*
X69561904Y-83566666D01*
X69942857Y-84061904D02*
X69942857Y-83528571D01*
X69942857Y-83261904D02*
X69904761Y-83300000D01*
X69942857Y-83338095D01*
X69980952Y-83300000D01*
X69942857Y-83261904D01*
X69942857Y-83338095D01*
X70209523Y-83528571D02*
X70514285Y-83528571D01*
X70323809Y-83261904D02*
X70323809Y-83947619D01*
X70361904Y-84023809D01*
X70438095Y-84061904D01*
X70514285Y-84061904D01*
X71085714Y-84023809D02*
X71009523Y-84061904D01*
X70857142Y-84061904D01*
X70780952Y-84023809D01*
X70742857Y-83947619D01*
X70742857Y-83642857D01*
X70780952Y-83566666D01*
X70857142Y-83528571D01*
X71009523Y-83528571D01*
X71085714Y-83566666D01*
X71123809Y-83642857D01*
X71123809Y-83719047D01*
X70742857Y-83795238D01*
X67085714Y-85361904D02*
X66628571Y-85361904D01*
X66857142Y-85361904D02*
X66857142Y-84561904D01*
X66780952Y-84676190D01*
X66704761Y-84752380D01*
X66628571Y-84790476D01*
X67428571Y-85285714D02*
X67466666Y-85323809D01*
X67428571Y-85361904D01*
X67390476Y-85323809D01*
X67428571Y-85285714D01*
X67428571Y-85361904D01*
X67771428Y-84638095D02*
X67809523Y-84600000D01*
X67885714Y-84561904D01*
X68076190Y-84561904D01*
X68152380Y-84600000D01*
X68190476Y-84638095D01*
X68228571Y-84714285D01*
X68228571Y-84790476D01*
X68190476Y-84904761D01*
X67733333Y-85361904D01*
X68228571Y-85361904D01*
X68571428Y-85285714D02*
X68609523Y-85323809D01*
X68571428Y-85361904D01*
X68533333Y-85323809D01*
X68571428Y-85285714D01*
X68571428Y-85361904D01*
X69104761Y-84561904D02*
X69180952Y-84561904D01*
X69257142Y-84600000D01*
X69295238Y-84638095D01*
X69333333Y-84714285D01*
X69371428Y-84866666D01*
X69371428Y-85057142D01*
X69333333Y-85209523D01*
X69295238Y-85285714D01*
X69257142Y-85323809D01*
X69180952Y-85361904D01*
X69104761Y-85361904D01*
X69028571Y-85323809D01*
X68990476Y-85285714D01*
X68952380Y-85209523D01*
X68914285Y-85057142D01*
X68914285Y-84866666D01*
X68952380Y-84714285D01*
X68990476Y-84638095D01*
X69028571Y-84600000D01*
X69104761Y-84561904D01*
X65123809Y-86661904D02*
X65123809Y-86128571D01*
X65123809Y-86280952D02*
X65161904Y-86204761D01*
X65200000Y-86166666D01*
X65276190Y-86128571D01*
X65352380Y-86128571D01*
X65619047Y-86661904D02*
X65619047Y-85861904D01*
X65619047Y-86166666D02*
X65695238Y-86128571D01*
X65847619Y-86128571D01*
X65923809Y-86166666D01*
X65961904Y-86204761D01*
X66000000Y-86280952D01*
X66000000Y-86509523D01*
X65961904Y-86585714D01*
X65923809Y-86623809D01*
X65847619Y-86661904D01*
X65695238Y-86661904D01*
X65619047Y-86623809D01*
X66685714Y-86661904D02*
X66685714Y-86242857D01*
X66647619Y-86166666D01*
X66571428Y-86128571D01*
X66419047Y-86128571D01*
X66342857Y-86166666D01*
X66685714Y-86623809D02*
X66609523Y-86661904D01*
X66419047Y-86661904D01*
X66342857Y-86623809D01*
X66304761Y-86547619D01*
X66304761Y-86471428D01*
X66342857Y-86395238D01*
X66419047Y-86357142D01*
X66609523Y-86357142D01*
X66685714Y-86319047D01*
X67066666Y-86661904D02*
X67066666Y-86128571D01*
X67066666Y-86280952D02*
X67104761Y-86204761D01*
X67142857Y-86166666D01*
X67219047Y-86128571D01*
X67295238Y-86128571D01*
X67676190Y-86661904D02*
X67600000Y-86623809D01*
X67561904Y-86585714D01*
X67523809Y-86509523D01*
X67523809Y-86280952D01*
X67561904Y-86204761D01*
X67600000Y-86166666D01*
X67676190Y-86128571D01*
X67790476Y-86128571D01*
X67866666Y-86166666D01*
X67904761Y-86204761D01*
X67942857Y-86280952D01*
X67942857Y-86509523D01*
X67904761Y-86585714D01*
X67866666Y-86623809D01*
X67790476Y-86661904D01*
X67676190Y-86661904D01*
X68285714Y-86128571D02*
X68285714Y-86661904D01*
X68285714Y-86204761D02*
X68323809Y-86166666D01*
X68400000Y-86128571D01*
X68514285Y-86128571D01*
X68590476Y-86166666D01*
X68628571Y-86242857D01*
X68628571Y-86661904D01*
X69009523Y-86585714D02*
X69047619Y-86623809D01*
X69009523Y-86661904D01*
X68971428Y-86623809D01*
X69009523Y-86585714D01*
X69009523Y-86661904D01*
X69390476Y-86128571D02*
X69390476Y-86661904D01*
X69390476Y-86204761D02*
X69428571Y-86166666D01*
X69504761Y-86128571D01*
X69619047Y-86128571D01*
X69695238Y-86166666D01*
X69733333Y-86242857D01*
X69733333Y-86661904D01*
X70419047Y-86623809D02*
X70342857Y-86661904D01*
X70190476Y-86661904D01*
X70114285Y-86623809D01*
X70076190Y-86547619D01*
X70076190Y-86242857D01*
X70114285Y-86166666D01*
X70190476Y-86128571D01*
X70342857Y-86128571D01*
X70419047Y-86166666D01*
X70457142Y-86242857D01*
X70457142Y-86319047D01*
X70076190Y-86395238D01*
X70685714Y-86128571D02*
X70990476Y-86128571D01*
X70800000Y-85861904D02*
X70800000Y-86547619D01*
X70838095Y-86623809D01*
X70914285Y-86661904D01*
X70990476Y-86661904D01*
D11*
X58000000Y-99000000D02*
X78000000Y-99000000D01*
X59900000Y-31500000D02*
G75*
G03X59900000Y-31500000I-700000J0D01*
G01*
D10*
X57250000Y-29700000D02*
G75*
G03X57250000Y-29700000I-100000J0D01*
G01*
D13*
G36*
X68555814Y-77468931D02*
G01*
X68639635Y-77913555D01*
X68948920Y-78041053D01*
X69258206Y-78168551D01*
X69629246Y-77916246D01*
X69733157Y-77845996D01*
X69827087Y-77783272D01*
X69906652Y-77730938D01*
X69967470Y-77691857D01*
X70005157Y-77668893D01*
X70015421Y-77663942D01*
X70033910Y-77676676D01*
X70073420Y-77711882D01*
X70129522Y-77765062D01*
X70197787Y-77831718D01*
X70273786Y-77907354D01*
X70353092Y-77987472D01*
X70431275Y-78067574D01*
X70503907Y-78143164D01*
X70566559Y-78209745D01*
X70614803Y-78262818D01*
X70644210Y-78297887D01*
X70651241Y-78309623D01*
X70641123Y-78331260D01*
X70612759Y-78378662D01*
X70569129Y-78447193D01*
X70513218Y-78532215D01*
X70448006Y-78629093D01*
X70410219Y-78684350D01*
X70341343Y-78785248D01*
X70280140Y-78876299D01*
X70229578Y-78952970D01*
X70192628Y-79010728D01*
X70172258Y-79045043D01*
X70169197Y-79052254D01*
X70176136Y-79072748D01*
X70195051Y-79120513D01*
X70223087Y-79188832D01*
X70257391Y-79270989D01*
X70295109Y-79360270D01*
X70333387Y-79449958D01*
X70369370Y-79533338D01*
X70400206Y-79603694D01*
X70423039Y-79654310D01*
X70435017Y-79678471D01*
X70435724Y-79679422D01*
X70454531Y-79684036D01*
X70504618Y-79694328D01*
X70580793Y-79709287D01*
X70677865Y-79727901D01*
X70790643Y-79749159D01*
X70856442Y-79761418D01*
X70976950Y-79784362D01*
X71085797Y-79806195D01*
X71177476Y-79825722D01*
X71246481Y-79841748D01*
X71287304Y-79853079D01*
X71295511Y-79856674D01*
X71303548Y-79881006D01*
X71310033Y-79935959D01*
X71314970Y-80015108D01*
X71318364Y-80112026D01*
X71320218Y-80220287D01*
X71320538Y-80333465D01*
X71319327Y-80445135D01*
X71316590Y-80548868D01*
X71312331Y-80638241D01*
X71306555Y-80706826D01*
X71299267Y-80748197D01*
X71294895Y-80756810D01*
X71268764Y-80767133D01*
X71213393Y-80781892D01*
X71136107Y-80799352D01*
X71044230Y-80817780D01*
X71012158Y-80823741D01*
X70857524Y-80852066D01*
X70735375Y-80874876D01*
X70641673Y-80893080D01*
X70572384Y-80907583D01*
X70523471Y-80919292D01*
X70490897Y-80929115D01*
X70470628Y-80937956D01*
X70458626Y-80946724D01*
X70456947Y-80948457D01*
X70440184Y-80976371D01*
X70414614Y-81030695D01*
X70382788Y-81104777D01*
X70347260Y-81191965D01*
X70310583Y-81285608D01*
X70275311Y-81379052D01*
X70243996Y-81465647D01*
X70219193Y-81538740D01*
X70203454Y-81591678D01*
X70199332Y-81617811D01*
X70199676Y-81618726D01*
X70213641Y-81640086D01*
X70245322Y-81687084D01*
X70291391Y-81754827D01*
X70348518Y-81838423D01*
X70413373Y-81932982D01*
X70431843Y-81959854D01*
X70497699Y-82057275D01*
X70555650Y-82146163D01*
X70602538Y-82221412D01*
X70635207Y-82277920D01*
X70650500Y-82310581D01*
X70651241Y-82314593D01*
X70638392Y-82335684D01*
X70602888Y-82377464D01*
X70549293Y-82435445D01*
X70482171Y-82505135D01*
X70406087Y-82582045D01*
X70325604Y-82661683D01*
X70245287Y-82739561D01*
X70169699Y-82811186D01*
X70103405Y-82872070D01*
X70050969Y-82917721D01*
X70016955Y-82943650D01*
X70007545Y-82947883D01*
X69985643Y-82937912D01*
X69940800Y-82911020D01*
X69880321Y-82871736D01*
X69833789Y-82840117D01*
X69749475Y-82782098D01*
X69649626Y-82713784D01*
X69549473Y-82645579D01*
X69495627Y-82609075D01*
X69313371Y-82485800D01*
X69160381Y-82568520D01*
X69090682Y-82604759D01*
X69031414Y-82632926D01*
X68991311Y-82648991D01*
X68981103Y-82651226D01*
X68968829Y-82634722D01*
X68944613Y-82588082D01*
X68910263Y-82515609D01*
X68867588Y-82421606D01*
X68818394Y-82310374D01*
X68764490Y-82186215D01*
X68707684Y-82053432D01*
X68649782Y-81916327D01*
X68592593Y-81779202D01*
X68537924Y-81646358D01*
X68487584Y-81522098D01*
X68443380Y-81410725D01*
X68407119Y-81316539D01*
X68380609Y-81243844D01*
X68365658Y-81196941D01*
X68363254Y-81180833D01*
X68382311Y-81160286D01*
X68424036Y-81126933D01*
X68479706Y-81087702D01*
X68484378Y-81084599D01*
X68628264Y-80969423D01*
X68744283Y-80835053D01*
X68831430Y-80685784D01*
X68888699Y-80525913D01*
X68915086Y-80359737D01*
X68909585Y-80191552D01*
X68871190Y-80025655D01*
X68798895Y-79866342D01*
X68777626Y-79831487D01*
X68666996Y-79690737D01*
X68536302Y-79577714D01*
X68390064Y-79493003D01*
X68232808Y-79437194D01*
X68069057Y-79410874D01*
X67903333Y-79414630D01*
X67740162Y-79449050D01*
X67584065Y-79514723D01*
X67439567Y-79612235D01*
X67394869Y-79651813D01*
X67281112Y-79775703D01*
X67198218Y-79906124D01*
X67141356Y-80052315D01*
X67109687Y-80197088D01*
X67101869Y-80359860D01*
X67127938Y-80523440D01*
X67185245Y-80682298D01*
X67271144Y-80830906D01*
X67382986Y-80963735D01*
X67518123Y-81075256D01*
X67535883Y-81087011D01*
X67592150Y-81125508D01*
X67634923Y-81158863D01*
X67655372Y-81180160D01*
X67655669Y-81180833D01*
X67651279Y-81203871D01*
X67633876Y-81256157D01*
X67605268Y-81333390D01*
X67567265Y-81431268D01*
X67521674Y-81545491D01*
X67470303Y-81671758D01*
X67414962Y-81805767D01*
X67357458Y-81943218D01*
X67299601Y-82079808D01*
X67243198Y-82211237D01*
X67190058Y-82333205D01*
X67141990Y-82441409D01*
X67100801Y-82531549D01*
X67068301Y-82599323D01*
X67046297Y-82640430D01*
X67037436Y-82651226D01*
X67010360Y-82642819D01*
X66959697Y-82620272D01*
X66894183Y-82587613D01*
X66858159Y-82568520D01*
X66705168Y-82485800D01*
X66522912Y-82609075D01*
X66429875Y-82672228D01*
X66328015Y-82741727D01*
X66232562Y-82807165D01*
X66184750Y-82840117D01*
X66117505Y-82885273D01*
X66060564Y-82921057D01*
X66021354Y-82942938D01*
X66008619Y-82947563D01*
X65990083Y-82935085D01*
X65949059Y-82900252D01*
X65889525Y-82846678D01*
X65815458Y-82777983D01*
X65730835Y-82697781D01*
X65677315Y-82646286D01*
X65583681Y-82554286D01*
X65502759Y-82471999D01*
X65437823Y-82402945D01*
X65392142Y-82350644D01*
X65368989Y-82318616D01*
X65366768Y-82312116D01*
X65377076Y-82287394D01*
X65405561Y-82237405D01*
X65449063Y-82167212D01*
X65504423Y-82081875D01*
X65568480Y-81986456D01*
X65586697Y-81959854D01*
X65653073Y-81863167D01*
X65712622Y-81776117D01*
X65762016Y-81703595D01*
X65797925Y-81650493D01*
X65817019Y-81621703D01*
X65818864Y-81618726D01*
X65816105Y-81595782D01*
X65801462Y-81545336D01*
X65777487Y-81474041D01*
X65746734Y-81388547D01*
X65711756Y-81295507D01*
X65675107Y-81201574D01*
X65639339Y-81113399D01*
X65607006Y-81037634D01*
X65580662Y-80980931D01*
X65562858Y-80949943D01*
X65561593Y-80948457D01*
X65550706Y-80939601D01*
X65532318Y-80930843D01*
X65502394Y-80921277D01*
X65456897Y-80909996D01*
X65391791Y-80896093D01*
X65303039Y-80878663D01*
X65186607Y-80856798D01*
X65038458Y-80829591D01*
X65006382Y-80823741D01*
X64911314Y-80805374D01*
X64828435Y-80787405D01*
X64765070Y-80771569D01*
X64728542Y-80759600D01*
X64723644Y-80756810D01*
X64715573Y-80732072D01*
X64709013Y-80676790D01*
X64703967Y-80597389D01*
X64700441Y-80500296D01*
X64698439Y-80391938D01*
X64697964Y-80278740D01*
X64699023Y-80167128D01*
X64701618Y-80063529D01*
X64705754Y-79974368D01*
X64711437Y-79906072D01*
X64718669Y-79865066D01*
X64723029Y-79856674D01*
X64747302Y-79848208D01*
X64802574Y-79834435D01*
X64883338Y-79816550D01*
X64984088Y-79795748D01*
X65099317Y-79773223D01*
X65162098Y-79761418D01*
X65281213Y-79739151D01*
X65387435Y-79718979D01*
X65475573Y-79701915D01*
X65540434Y-79688969D01*
X65576826Y-79681155D01*
X65582816Y-79679422D01*
X65592939Y-79659890D01*
X65614338Y-79612843D01*
X65644161Y-79545003D01*
X65679555Y-79463091D01*
X65717668Y-79373828D01*
X65755647Y-79283935D01*
X65790640Y-79200135D01*
X65819794Y-79129147D01*
X65840257Y-79077694D01*
X65849177Y-79052497D01*
X65849343Y-79051396D01*
X65839231Y-79031519D01*
X65810883Y-78985777D01*
X65767277Y-78918717D01*
X65711394Y-78834884D01*
X65646213Y-78738826D01*
X65608321Y-78683650D01*
X65539275Y-78582481D01*
X65477950Y-78490630D01*
X65427337Y-78412744D01*
X65390429Y-78353469D01*
X65370218Y-78317451D01*
X65367299Y-78309377D01*
X65379847Y-78290584D01*
X65414537Y-78250457D01*
X65466937Y-78193493D01*
X65532616Y-78124185D01*
X65607144Y-78047031D01*
X65686087Y-77966525D01*
X65765017Y-77887163D01*
X65839500Y-77813440D01*
X65905106Y-77749852D01*
X65957404Y-77700894D01*
X65991961Y-77671061D01*
X66003522Y-77663942D01*
X66022346Y-77673953D01*
X66067369Y-77702078D01*
X66134213Y-77745454D01*
X66218501Y-77801218D01*
X66315856Y-77866506D01*
X66389293Y-77916246D01*
X66760333Y-78168551D01*
X67378905Y-77913555D01*
X67462725Y-77468931D01*
X67546546Y-77024307D01*
X68471994Y-77024307D01*
X68555814Y-77468931D01*
X68555814Y-77468931D01*
G37*
X68555814Y-77468931D02*
X68639635Y-77913555D01*
X68948920Y-78041053D01*
X69258206Y-78168551D01*
X69629246Y-77916246D01*
X69733157Y-77845996D01*
X69827087Y-77783272D01*
X69906652Y-77730938D01*
X69967470Y-77691857D01*
X70005157Y-77668893D01*
X70015421Y-77663942D01*
X70033910Y-77676676D01*
X70073420Y-77711882D01*
X70129522Y-77765062D01*
X70197787Y-77831718D01*
X70273786Y-77907354D01*
X70353092Y-77987472D01*
X70431275Y-78067574D01*
X70503907Y-78143164D01*
X70566559Y-78209745D01*
X70614803Y-78262818D01*
X70644210Y-78297887D01*
X70651241Y-78309623D01*
X70641123Y-78331260D01*
X70612759Y-78378662D01*
X70569129Y-78447193D01*
X70513218Y-78532215D01*
X70448006Y-78629093D01*
X70410219Y-78684350D01*
X70341343Y-78785248D01*
X70280140Y-78876299D01*
X70229578Y-78952970D01*
X70192628Y-79010728D01*
X70172258Y-79045043D01*
X70169197Y-79052254D01*
X70176136Y-79072748D01*
X70195051Y-79120513D01*
X70223087Y-79188832D01*
X70257391Y-79270989D01*
X70295109Y-79360270D01*
X70333387Y-79449958D01*
X70369370Y-79533338D01*
X70400206Y-79603694D01*
X70423039Y-79654310D01*
X70435017Y-79678471D01*
X70435724Y-79679422D01*
X70454531Y-79684036D01*
X70504618Y-79694328D01*
X70580793Y-79709287D01*
X70677865Y-79727901D01*
X70790643Y-79749159D01*
X70856442Y-79761418D01*
X70976950Y-79784362D01*
X71085797Y-79806195D01*
X71177476Y-79825722D01*
X71246481Y-79841748D01*
X71287304Y-79853079D01*
X71295511Y-79856674D01*
X71303548Y-79881006D01*
X71310033Y-79935959D01*
X71314970Y-80015108D01*
X71318364Y-80112026D01*
X71320218Y-80220287D01*
X71320538Y-80333465D01*
X71319327Y-80445135D01*
X71316590Y-80548868D01*
X71312331Y-80638241D01*
X71306555Y-80706826D01*
X71299267Y-80748197D01*
X71294895Y-80756810D01*
X71268764Y-80767133D01*
X71213393Y-80781892D01*
X71136107Y-80799352D01*
X71044230Y-80817780D01*
X71012158Y-80823741D01*
X70857524Y-80852066D01*
X70735375Y-80874876D01*
X70641673Y-80893080D01*
X70572384Y-80907583D01*
X70523471Y-80919292D01*
X70490897Y-80929115D01*
X70470628Y-80937956D01*
X70458626Y-80946724D01*
X70456947Y-80948457D01*
X70440184Y-80976371D01*
X70414614Y-81030695D01*
X70382788Y-81104777D01*
X70347260Y-81191965D01*
X70310583Y-81285608D01*
X70275311Y-81379052D01*
X70243996Y-81465647D01*
X70219193Y-81538740D01*
X70203454Y-81591678D01*
X70199332Y-81617811D01*
X70199676Y-81618726D01*
X70213641Y-81640086D01*
X70245322Y-81687084D01*
X70291391Y-81754827D01*
X70348518Y-81838423D01*
X70413373Y-81932982D01*
X70431843Y-81959854D01*
X70497699Y-82057275D01*
X70555650Y-82146163D01*
X70602538Y-82221412D01*
X70635207Y-82277920D01*
X70650500Y-82310581D01*
X70651241Y-82314593D01*
X70638392Y-82335684D01*
X70602888Y-82377464D01*
X70549293Y-82435445D01*
X70482171Y-82505135D01*
X70406087Y-82582045D01*
X70325604Y-82661683D01*
X70245287Y-82739561D01*
X70169699Y-82811186D01*
X70103405Y-82872070D01*
X70050969Y-82917721D01*
X70016955Y-82943650D01*
X70007545Y-82947883D01*
X69985643Y-82937912D01*
X69940800Y-82911020D01*
X69880321Y-82871736D01*
X69833789Y-82840117D01*
X69749475Y-82782098D01*
X69649626Y-82713784D01*
X69549473Y-82645579D01*
X69495627Y-82609075D01*
X69313371Y-82485800D01*
X69160381Y-82568520D01*
X69090682Y-82604759D01*
X69031414Y-82632926D01*
X68991311Y-82648991D01*
X68981103Y-82651226D01*
X68968829Y-82634722D01*
X68944613Y-82588082D01*
X68910263Y-82515609D01*
X68867588Y-82421606D01*
X68818394Y-82310374D01*
X68764490Y-82186215D01*
X68707684Y-82053432D01*
X68649782Y-81916327D01*
X68592593Y-81779202D01*
X68537924Y-81646358D01*
X68487584Y-81522098D01*
X68443380Y-81410725D01*
X68407119Y-81316539D01*
X68380609Y-81243844D01*
X68365658Y-81196941D01*
X68363254Y-81180833D01*
X68382311Y-81160286D01*
X68424036Y-81126933D01*
X68479706Y-81087702D01*
X68484378Y-81084599D01*
X68628264Y-80969423D01*
X68744283Y-80835053D01*
X68831430Y-80685784D01*
X68888699Y-80525913D01*
X68915086Y-80359737D01*
X68909585Y-80191552D01*
X68871190Y-80025655D01*
X68798895Y-79866342D01*
X68777626Y-79831487D01*
X68666996Y-79690737D01*
X68536302Y-79577714D01*
X68390064Y-79493003D01*
X68232808Y-79437194D01*
X68069057Y-79410874D01*
X67903333Y-79414630D01*
X67740162Y-79449050D01*
X67584065Y-79514723D01*
X67439567Y-79612235D01*
X67394869Y-79651813D01*
X67281112Y-79775703D01*
X67198218Y-79906124D01*
X67141356Y-80052315D01*
X67109687Y-80197088D01*
X67101869Y-80359860D01*
X67127938Y-80523440D01*
X67185245Y-80682298D01*
X67271144Y-80830906D01*
X67382986Y-80963735D01*
X67518123Y-81075256D01*
X67535883Y-81087011D01*
X67592150Y-81125508D01*
X67634923Y-81158863D01*
X67655372Y-81180160D01*
X67655669Y-81180833D01*
X67651279Y-81203871D01*
X67633876Y-81256157D01*
X67605268Y-81333390D01*
X67567265Y-81431268D01*
X67521674Y-81545491D01*
X67470303Y-81671758D01*
X67414962Y-81805767D01*
X67357458Y-81943218D01*
X67299601Y-82079808D01*
X67243198Y-82211237D01*
X67190058Y-82333205D01*
X67141990Y-82441409D01*
X67100801Y-82531549D01*
X67068301Y-82599323D01*
X67046297Y-82640430D01*
X67037436Y-82651226D01*
X67010360Y-82642819D01*
X66959697Y-82620272D01*
X66894183Y-82587613D01*
X66858159Y-82568520D01*
X66705168Y-82485800D01*
X66522912Y-82609075D01*
X66429875Y-82672228D01*
X66328015Y-82741727D01*
X66232562Y-82807165D01*
X66184750Y-82840117D01*
X66117505Y-82885273D01*
X66060564Y-82921057D01*
X66021354Y-82942938D01*
X66008619Y-82947563D01*
X65990083Y-82935085D01*
X65949059Y-82900252D01*
X65889525Y-82846678D01*
X65815458Y-82777983D01*
X65730835Y-82697781D01*
X65677315Y-82646286D01*
X65583681Y-82554286D01*
X65502759Y-82471999D01*
X65437823Y-82402945D01*
X65392142Y-82350644D01*
X65368989Y-82318616D01*
X65366768Y-82312116D01*
X65377076Y-82287394D01*
X65405561Y-82237405D01*
X65449063Y-82167212D01*
X65504423Y-82081875D01*
X65568480Y-81986456D01*
X65586697Y-81959854D01*
X65653073Y-81863167D01*
X65712622Y-81776117D01*
X65762016Y-81703595D01*
X65797925Y-81650493D01*
X65817019Y-81621703D01*
X65818864Y-81618726D01*
X65816105Y-81595782D01*
X65801462Y-81545336D01*
X65777487Y-81474041D01*
X65746734Y-81388547D01*
X65711756Y-81295507D01*
X65675107Y-81201574D01*
X65639339Y-81113399D01*
X65607006Y-81037634D01*
X65580662Y-80980931D01*
X65562858Y-80949943D01*
X65561593Y-80948457D01*
X65550706Y-80939601D01*
X65532318Y-80930843D01*
X65502394Y-80921277D01*
X65456897Y-80909996D01*
X65391791Y-80896093D01*
X65303039Y-80878663D01*
X65186607Y-80856798D01*
X65038458Y-80829591D01*
X65006382Y-80823741D01*
X64911314Y-80805374D01*
X64828435Y-80787405D01*
X64765070Y-80771569D01*
X64728542Y-80759600D01*
X64723644Y-80756810D01*
X64715573Y-80732072D01*
X64709013Y-80676790D01*
X64703967Y-80597389D01*
X64700441Y-80500296D01*
X64698439Y-80391938D01*
X64697964Y-80278740D01*
X64699023Y-80167128D01*
X64701618Y-80063529D01*
X64705754Y-79974368D01*
X64711437Y-79906072D01*
X64718669Y-79865066D01*
X64723029Y-79856674D01*
X64747302Y-79848208D01*
X64802574Y-79834435D01*
X64883338Y-79816550D01*
X64984088Y-79795748D01*
X65099317Y-79773223D01*
X65162098Y-79761418D01*
X65281213Y-79739151D01*
X65387435Y-79718979D01*
X65475573Y-79701915D01*
X65540434Y-79688969D01*
X65576826Y-79681155D01*
X65582816Y-79679422D01*
X65592939Y-79659890D01*
X65614338Y-79612843D01*
X65644161Y-79545003D01*
X65679555Y-79463091D01*
X65717668Y-79373828D01*
X65755647Y-79283935D01*
X65790640Y-79200135D01*
X65819794Y-79129147D01*
X65840257Y-79077694D01*
X65849177Y-79052497D01*
X65849343Y-79051396D01*
X65839231Y-79031519D01*
X65810883Y-78985777D01*
X65767277Y-78918717D01*
X65711394Y-78834884D01*
X65646213Y-78738826D01*
X65608321Y-78683650D01*
X65539275Y-78582481D01*
X65477950Y-78490630D01*
X65427337Y-78412744D01*
X65390429Y-78353469D01*
X65370218Y-78317451D01*
X65367299Y-78309377D01*
X65379847Y-78290584D01*
X65414537Y-78250457D01*
X65466937Y-78193493D01*
X65532616Y-78124185D01*
X65607144Y-78047031D01*
X65686087Y-77966525D01*
X65765017Y-77887163D01*
X65839500Y-77813440D01*
X65905106Y-77749852D01*
X65957404Y-77700894D01*
X65991961Y-77671061D01*
X66003522Y-77663942D01*
X66022346Y-77673953D01*
X66067369Y-77702078D01*
X66134213Y-77745454D01*
X66218501Y-77801218D01*
X66315856Y-77866506D01*
X66389293Y-77916246D01*
X66760333Y-78168551D01*
X67378905Y-77913555D01*
X67462725Y-77468931D01*
X67546546Y-77024307D01*
X68471994Y-77024307D01*
X68555814Y-77468931D01*
D11*
X72800000Y-51710000D02*
X71800000Y-51710000D01*
X73800000Y-49490000D02*
X71800000Y-49490000D01*
X66925000Y-47125000D02*
X65575000Y-47125000D01*
X66925000Y-48875000D02*
X65575000Y-48875000D01*
X71520000Y-58060000D02*
X72450000Y-58060000D01*
X74680000Y-58060000D02*
X73750000Y-58060000D01*
X74680000Y-58060000D02*
X74680000Y-55900000D01*
X71520000Y-58060000D02*
X71520000Y-56600000D01*
X61265000Y-50412500D02*
X61265000Y-52697500D01*
X61265000Y-52697500D02*
X62735000Y-52697500D01*
X62735000Y-52697500D02*
X62735000Y-50412500D01*
X77340000Y-34340000D02*
G75*
G03X77340000Y-34340000I-700000J0D01*
G01*
X77340000Y-41960000D02*
G75*
G03X77340000Y-41960000I-700000J0D01*
G01*
X77340000Y-44500000D02*
G75*
G03X77340000Y-44500000I-700000J0D01*
G01*
X77340000Y-39420000D02*
G75*
G03X77340000Y-39420000I-700000J0D01*
G01*
X77340000Y-36880000D02*
G75*
G03X77340000Y-36880000I-700000J0D01*
G01*
X70030000Y-57940000D02*
X69100000Y-57940000D01*
X66870000Y-57940000D02*
X67800000Y-57940000D01*
X66870000Y-57940000D02*
X66870000Y-60100000D01*
X70030000Y-57940000D02*
X70030000Y-59400000D01*
X66380000Y-57940000D02*
X65450000Y-57940000D01*
X63220000Y-57940000D02*
X64150000Y-57940000D01*
X63220000Y-57940000D02*
X63220000Y-60100000D01*
X66380000Y-57940000D02*
X66380000Y-59400000D01*
X63390000Y-54558578D02*
X63390000Y-54041422D01*
X64810000Y-54558578D02*
X64810000Y-54041422D01*
X70500000Y-52700000D02*
X66200000Y-52700000D01*
X70500000Y-54700000D02*
X70500000Y-52700000D01*
X66200000Y-54700000D02*
X70500000Y-54700000D01*
X77340000Y-31800000D02*
G75*
G03X77340000Y-31800000I-700000J0D01*
G01*
D12*
X57200000Y-33171428D02*
X57200000Y-32571428D01*
X57428571Y-32571428D01*
X57485714Y-32600000D01*
X57514285Y-32628571D01*
X57542857Y-32685714D01*
X57542857Y-32771428D01*
X57514285Y-32828571D01*
X57485714Y-32857142D01*
X57428571Y-32885714D01*
X57200000Y-32885714D01*
X57800000Y-33171428D02*
X57800000Y-32571428D01*
X57800000Y-32857142D02*
X58142857Y-32857142D01*
X58142857Y-33171428D02*
X58142857Y-32571428D01*
X58342857Y-32571428D02*
X58685714Y-32571428D01*
X58514285Y-33171428D02*
X58514285Y-32571428D01*
D11*
X74066666Y-27216666D02*
X74066666Y-27783333D01*
X74100000Y-27850000D01*
X74133333Y-27883333D01*
X74200000Y-27916666D01*
X74333333Y-27916666D01*
X74400000Y-27883333D01*
X74433333Y-27850000D01*
X74466666Y-27783333D01*
X74466666Y-27216666D01*
X75166666Y-27916666D02*
X74766666Y-27916666D01*
X74966666Y-27916666D02*
X74966666Y-27216666D01*
X74900000Y-27316666D01*
X74833333Y-27383333D01*
X74766666Y-27416666D01*
D14*
X60785714Y-27928571D02*
X61119047Y-27928571D01*
X61261904Y-28452380D02*
X60785714Y-28452380D01*
X60785714Y-27452380D01*
X61261904Y-27452380D01*
X61595238Y-27452380D02*
X62261904Y-27452380D01*
X61833333Y-28452380D01*
X62547619Y-27452380D02*
X63166666Y-27452380D01*
X62833333Y-27833333D01*
X62976190Y-27833333D01*
X63071428Y-27880952D01*
X63119047Y-27928571D01*
X63166666Y-28023809D01*
X63166666Y-28261904D01*
X63119047Y-28357142D01*
X63071428Y-28404761D01*
X62976190Y-28452380D01*
X62690476Y-28452380D01*
X62595238Y-28404761D01*
X62547619Y-28357142D01*
X63595238Y-28071428D02*
X64357142Y-28071428D01*
X64785714Y-27547619D02*
X64833333Y-27500000D01*
X64928571Y-27452380D01*
X65166666Y-27452380D01*
X65261904Y-27500000D01*
X65309523Y-27547619D01*
X65357142Y-27642857D01*
X65357142Y-27738095D01*
X65309523Y-27880952D01*
X64738095Y-28452380D01*
X65357142Y-28452380D01*
X66309523Y-27500000D02*
X66214285Y-27452380D01*
X66071428Y-27452380D01*
X65928571Y-27500000D01*
X65833333Y-27595238D01*
X65785714Y-27690476D01*
X65738095Y-27880952D01*
X65738095Y-28023809D01*
X65785714Y-28214285D01*
X65833333Y-28309523D01*
X65928571Y-28404761D01*
X66071428Y-28452380D01*
X66166666Y-28452380D01*
X66309523Y-28404761D01*
X66357142Y-28357142D01*
X66357142Y-28023809D01*
X66166666Y-28023809D01*
X67214285Y-27785714D02*
X67214285Y-28452380D01*
X66976190Y-27404761D02*
X66738095Y-28119047D01*
X67357142Y-28119047D01*
X67738095Y-28452380D02*
X67738095Y-27452380D01*
X68071428Y-28166666D01*
X68404761Y-27452380D01*
X68404761Y-28452380D01*
X69071428Y-27452380D02*
X69166666Y-27452380D01*
X69261904Y-27500000D01*
X69309523Y-27547619D01*
X69357142Y-27642857D01*
X69404761Y-27833333D01*
X69404761Y-28071428D01*
X69357142Y-28261904D01*
X69309523Y-28357142D01*
X69261904Y-28404761D01*
X69166666Y-28452380D01*
X69071428Y-28452380D01*
X68976190Y-28404761D01*
X68928571Y-28357142D01*
X68880952Y-28261904D01*
X68833333Y-28071428D01*
X68833333Y-27833333D01*
X68880952Y-27642857D01*
X68928571Y-27547619D01*
X68976190Y-27500000D01*
X69071428Y-27452380D01*
X69976190Y-27880952D02*
X69880952Y-27833333D01*
X69833333Y-27785714D01*
X69785714Y-27690476D01*
X69785714Y-27642857D01*
X69833333Y-27547619D01*
X69880952Y-27500000D01*
X69976190Y-27452380D01*
X70166666Y-27452380D01*
X70261904Y-27500000D01*
X70309523Y-27547619D01*
X70357142Y-27642857D01*
X70357142Y-27690476D01*
X70309523Y-27785714D01*
X70261904Y-27833333D01*
X70166666Y-27880952D01*
X69976190Y-27880952D01*
X69880952Y-27928571D01*
X69833333Y-27976190D01*
X69785714Y-28071428D01*
X69785714Y-28261904D01*
X69833333Y-28357142D01*
X69880952Y-28404761D01*
X69976190Y-28452380D01*
X70166666Y-28452380D01*
X70261904Y-28404761D01*
X70309523Y-28357142D01*
X70357142Y-28261904D01*
X70357142Y-28071428D01*
X70309523Y-27976190D01*
X70261904Y-27928571D01*
X70166666Y-27880952D01*
X70738095Y-28404761D02*
X70880952Y-28452380D01*
X71119047Y-28452380D01*
X71214285Y-28404761D01*
X71261904Y-28357142D01*
X71309523Y-28261904D01*
X71309523Y-28166666D01*
X71261904Y-28071428D01*
X71214285Y-28023809D01*
X71119047Y-27976190D01*
X70928571Y-27928571D01*
X70833333Y-27880952D01*
X70785714Y-27833333D01*
X70738095Y-27738095D01*
X70738095Y-27642857D01*
X70785714Y-27547619D01*
X70833333Y-27500000D01*
X70928571Y-27452380D01*
X71166666Y-27452380D01*
X71309523Y-27500000D01*
X72261904Y-28452380D02*
X71690476Y-28452380D01*
X71976190Y-28452380D02*
X71976190Y-27452380D01*
X71880952Y-27595238D01*
X71785714Y-27690476D01*
X71690476Y-27738095D01*
X73261904Y-28357142D02*
X73214285Y-28404761D01*
X73071428Y-28452380D01*
X72976190Y-28452380D01*
X72833333Y-28404761D01*
X72738095Y-28309523D01*
X72690476Y-28214285D01*
X72642857Y-28023809D01*
X72642857Y-27880952D01*
X72690476Y-27690476D01*
X72738095Y-27595238D01*
X72833333Y-27500000D01*
X72976190Y-27452380D01*
X73071428Y-27452380D01*
X73214285Y-27500000D01*
X73261904Y-27547619D01*
D12*
X57852380Y-31073809D02*
X57804761Y-31050000D01*
X57757142Y-31002380D01*
X57685714Y-30930952D01*
X57638095Y-30907142D01*
X57590476Y-30907142D01*
X57614285Y-31026190D02*
X57566666Y-31002380D01*
X57519047Y-30954761D01*
X57495238Y-30859523D01*
X57495238Y-30692857D01*
X57519047Y-30597619D01*
X57566666Y-30550000D01*
X57614285Y-30526190D01*
X57709523Y-30526190D01*
X57757142Y-30550000D01*
X57804761Y-30597619D01*
X57828571Y-30692857D01*
X57828571Y-30859523D01*
X57804761Y-30954761D01*
X57757142Y-31002380D01*
X57709523Y-31026190D01*
X57614285Y-31026190D01*
X58257142Y-30692857D02*
X58257142Y-31026190D01*
X58138095Y-30502380D02*
X58019047Y-30859523D01*
X58328571Y-30859523D01*
X59178571Y-27826190D02*
X59011904Y-27588095D01*
X58892857Y-27826190D02*
X58892857Y-27326190D01*
X59083333Y-27326190D01*
X59130952Y-27350000D01*
X59154761Y-27373809D01*
X59178571Y-27421428D01*
X59178571Y-27492857D01*
X59154761Y-27540476D01*
X59130952Y-27564285D01*
X59083333Y-27588095D01*
X58892857Y-27588095D01*
X59654761Y-27826190D02*
X59369047Y-27826190D01*
X59511904Y-27826190D02*
X59511904Y-27326190D01*
X59464285Y-27397619D01*
X59416666Y-27445238D01*
X59369047Y-27469047D01*
X59964285Y-27326190D02*
X60011904Y-27326190D01*
X60059523Y-27350000D01*
X60083333Y-27373809D01*
X60107142Y-27421428D01*
X60130952Y-27516666D01*
X60130952Y-27635714D01*
X60107142Y-27730952D01*
X60083333Y-27778571D01*
X60059523Y-27802380D01*
X60011904Y-27826190D01*
X59964285Y-27826190D01*
X59916666Y-27802380D01*
X59892857Y-27778571D01*
X59869047Y-27730952D01*
X59845238Y-27635714D01*
X59845238Y-27516666D01*
X59869047Y-27421428D01*
X59892857Y-27373809D01*
X59916666Y-27350000D01*
X59964285Y-27326190D01*
D11*
X74466666Y-50316666D02*
X74466666Y-50883333D01*
X74500000Y-50950000D01*
X74533333Y-50983333D01*
X74600000Y-51016666D01*
X74733333Y-51016666D01*
X74800000Y-50983333D01*
X74833333Y-50950000D01*
X74866666Y-50883333D01*
X74866666Y-50316666D01*
X75166666Y-50383333D02*
X75200000Y-50350000D01*
X75266666Y-50316666D01*
X75433333Y-50316666D01*
X75500000Y-50350000D01*
X75533333Y-50383333D01*
X75566666Y-50450000D01*
X75566666Y-50516666D01*
X75533333Y-50616666D01*
X75133333Y-51016666D01*
X75566666Y-51016666D01*
X65916666Y-46383333D02*
X65916666Y-46716666D01*
X65683333Y-46016666D02*
X65916666Y-46383333D01*
X66150000Y-46016666D01*
X66750000Y-46716666D02*
X66350000Y-46716666D01*
X66550000Y-46716666D02*
X66550000Y-46016666D01*
X66483333Y-46116666D01*
X66416666Y-46183333D01*
X66350000Y-46216666D01*
X71983333Y-47016666D02*
X71750000Y-46683333D01*
X71583333Y-47016666D02*
X71583333Y-46316666D01*
X71850000Y-46316666D01*
X71916666Y-46350000D01*
X71950000Y-46383333D01*
X71983333Y-46450000D01*
X71983333Y-46550000D01*
X71950000Y-46616666D01*
X71916666Y-46650000D01*
X71850000Y-46683333D01*
X71583333Y-46683333D01*
X72383333Y-46616666D02*
X72316666Y-46583333D01*
X72283333Y-46550000D01*
X72250000Y-46483333D01*
X72250000Y-46450000D01*
X72283333Y-46383333D01*
X72316666Y-46350000D01*
X72383333Y-46316666D01*
X72516666Y-46316666D01*
X72583333Y-46350000D01*
X72616666Y-46383333D01*
X72650000Y-46450000D01*
X72650000Y-46483333D01*
X72616666Y-46550000D01*
X72583333Y-46583333D01*
X72516666Y-46616666D01*
X72383333Y-46616666D01*
X72316666Y-46650000D01*
X72283333Y-46683333D01*
X72250000Y-46750000D01*
X72250000Y-46883333D01*
X72283333Y-46950000D01*
X72316666Y-46983333D01*
X72383333Y-47016666D01*
X72516666Y-47016666D01*
X72583333Y-46983333D01*
X72616666Y-46950000D01*
X72650000Y-46883333D01*
X72650000Y-46750000D01*
X72616666Y-46683333D01*
X72583333Y-46650000D01*
X72516666Y-46616666D01*
X70683333Y-47016666D02*
X70450000Y-46683333D01*
X70283333Y-47016666D02*
X70283333Y-46316666D01*
X70550000Y-46316666D01*
X70616666Y-46350000D01*
X70650000Y-46383333D01*
X70683333Y-46450000D01*
X70683333Y-46550000D01*
X70650000Y-46616666D01*
X70616666Y-46650000D01*
X70550000Y-46683333D01*
X70283333Y-46683333D01*
X70916666Y-46316666D02*
X71383333Y-46316666D01*
X71083333Y-47016666D01*
X69183333Y-49946666D02*
X68950000Y-49613333D01*
X68783333Y-49946666D02*
X68783333Y-49246666D01*
X69050000Y-49246666D01*
X69116666Y-49280000D01*
X69150000Y-49313333D01*
X69183333Y-49380000D01*
X69183333Y-49480000D01*
X69150000Y-49546666D01*
X69116666Y-49580000D01*
X69050000Y-49613333D01*
X68783333Y-49613333D01*
X69783333Y-49246666D02*
X69650000Y-49246666D01*
X69583333Y-49280000D01*
X69550000Y-49313333D01*
X69483333Y-49413333D01*
X69450000Y-49546666D01*
X69450000Y-49813333D01*
X69483333Y-49880000D01*
X69516666Y-49913333D01*
X69583333Y-49946666D01*
X69716666Y-49946666D01*
X69783333Y-49913333D01*
X69816666Y-49880000D01*
X69850000Y-49813333D01*
X69850000Y-49646666D01*
X69816666Y-49580000D01*
X69783333Y-49546666D01*
X69716666Y-49513333D01*
X69583333Y-49513333D01*
X69516666Y-49546666D01*
X69483333Y-49580000D01*
X69450000Y-49646666D01*
X69383333Y-55716666D02*
X69150000Y-55383333D01*
X68983333Y-55716666D02*
X68983333Y-55016666D01*
X69250000Y-55016666D01*
X69316666Y-55050000D01*
X69350000Y-55083333D01*
X69383333Y-55150000D01*
X69383333Y-55250000D01*
X69350000Y-55316666D01*
X69316666Y-55350000D01*
X69250000Y-55383333D01*
X68983333Y-55383333D01*
X70016666Y-55016666D02*
X69683333Y-55016666D01*
X69650000Y-55350000D01*
X69683333Y-55316666D01*
X69750000Y-55283333D01*
X69916666Y-55283333D01*
X69983333Y-55316666D01*
X70016666Y-55350000D01*
X70050000Y-55416666D01*
X70050000Y-55583333D01*
X70016666Y-55650000D01*
X69983333Y-55683333D01*
X69916666Y-55716666D01*
X69750000Y-55716666D01*
X69683333Y-55683333D01*
X69650000Y-55650000D01*
X61783333Y-57616666D02*
X61550000Y-57283333D01*
X61383333Y-57616666D02*
X61383333Y-56916666D01*
X61650000Y-56916666D01*
X61716666Y-56950000D01*
X61750000Y-56983333D01*
X61783333Y-57050000D01*
X61783333Y-57150000D01*
X61750000Y-57216666D01*
X61716666Y-57250000D01*
X61650000Y-57283333D01*
X61383333Y-57283333D01*
X62383333Y-57150000D02*
X62383333Y-57616666D01*
X62216666Y-56883333D02*
X62050000Y-57383333D01*
X62483333Y-57383333D01*
X67283333Y-55716666D02*
X67050000Y-55383333D01*
X66883333Y-55716666D02*
X66883333Y-55016666D01*
X67150000Y-55016666D01*
X67216666Y-55050000D01*
X67250000Y-55083333D01*
X67283333Y-55150000D01*
X67283333Y-55250000D01*
X67250000Y-55316666D01*
X67216666Y-55350000D01*
X67150000Y-55383333D01*
X66883333Y-55383333D01*
X67516666Y-55016666D02*
X67950000Y-55016666D01*
X67716666Y-55283333D01*
X67816666Y-55283333D01*
X67883333Y-55316666D01*
X67916666Y-55350000D01*
X67950000Y-55416666D01*
X67950000Y-55583333D01*
X67916666Y-55650000D01*
X67883333Y-55683333D01*
X67816666Y-55716666D01*
X67616666Y-55716666D01*
X67550000Y-55683333D01*
X67516666Y-55650000D01*
X61883333Y-46416666D02*
X61650000Y-46083333D01*
X61483333Y-46416666D02*
X61483333Y-45716666D01*
X61750000Y-45716666D01*
X61816666Y-45750000D01*
X61850000Y-45783333D01*
X61883333Y-45850000D01*
X61883333Y-45950000D01*
X61850000Y-46016666D01*
X61816666Y-46050000D01*
X61750000Y-46083333D01*
X61483333Y-46083333D01*
X62150000Y-45783333D02*
X62183333Y-45750000D01*
X62250000Y-45716666D01*
X62416666Y-45716666D01*
X62483333Y-45750000D01*
X62516666Y-45783333D01*
X62550000Y-45850000D01*
X62550000Y-45916666D01*
X62516666Y-46016666D01*
X62116666Y-46416666D01*
X62550000Y-46416666D01*
X61883333Y-53546666D02*
X61650000Y-53213333D01*
X61483333Y-53546666D02*
X61483333Y-52846666D01*
X61750000Y-52846666D01*
X61816666Y-52880000D01*
X61850000Y-52913333D01*
X61883333Y-52980000D01*
X61883333Y-53080000D01*
X61850000Y-53146666D01*
X61816666Y-53180000D01*
X61750000Y-53213333D01*
X61483333Y-53213333D01*
X62550000Y-53546666D02*
X62150000Y-53546666D01*
X62350000Y-53546666D02*
X62350000Y-52846666D01*
X62283333Y-52946666D01*
X62216666Y-53013333D01*
X62150000Y-53046666D01*
X74333333Y-59083333D02*
X74266666Y-59050000D01*
X74200000Y-58983333D01*
X74100000Y-58883333D01*
X74033333Y-58850000D01*
X73966666Y-58850000D01*
X74000000Y-59016666D02*
X73933333Y-58983333D01*
X73866666Y-58916666D01*
X73833333Y-58783333D01*
X73833333Y-58550000D01*
X73866666Y-58416666D01*
X73933333Y-58350000D01*
X74000000Y-58316666D01*
X74133333Y-58316666D01*
X74200000Y-58350000D01*
X74266666Y-58416666D01*
X74300000Y-58550000D01*
X74300000Y-58783333D01*
X74266666Y-58916666D01*
X74200000Y-58983333D01*
X74133333Y-59016666D01*
X74000000Y-59016666D01*
X74533333Y-58316666D02*
X74966666Y-58316666D01*
X74733333Y-58583333D01*
X74833333Y-58583333D01*
X74900000Y-58616666D01*
X74933333Y-58650000D01*
X74966666Y-58716666D01*
X74966666Y-58883333D01*
X74933333Y-58950000D01*
X74900000Y-58983333D01*
X74833333Y-59016666D01*
X74633333Y-59016666D01*
X74566666Y-58983333D01*
X74533333Y-58950000D01*
X61483333Y-49741666D02*
X61483333Y-49041666D01*
X61650000Y-49041666D01*
X61750000Y-49075000D01*
X61816666Y-49141666D01*
X61850000Y-49208333D01*
X61883333Y-49341666D01*
X61883333Y-49441666D01*
X61850000Y-49575000D01*
X61816666Y-49641666D01*
X61750000Y-49708333D01*
X61650000Y-49741666D01*
X61483333Y-49741666D01*
X62150000Y-49108333D02*
X62183333Y-49075000D01*
X62250000Y-49041666D01*
X62416666Y-49041666D01*
X62483333Y-49075000D01*
X62516666Y-49108333D01*
X62550000Y-49175000D01*
X62550000Y-49241666D01*
X62516666Y-49341666D01*
X62116666Y-49741666D01*
X62550000Y-49741666D01*
X61883333Y-55750000D02*
X61850000Y-55783333D01*
X61750000Y-55816666D01*
X61683333Y-55816666D01*
X61583333Y-55783333D01*
X61516666Y-55716666D01*
X61483333Y-55650000D01*
X61450000Y-55516666D01*
X61450000Y-55416666D01*
X61483333Y-55283333D01*
X61516666Y-55216666D01*
X61583333Y-55150000D01*
X61683333Y-55116666D01*
X61750000Y-55116666D01*
X61850000Y-55150000D01*
X61883333Y-55183333D01*
X62483333Y-55116666D02*
X62350000Y-55116666D01*
X62283333Y-55150000D01*
X62250000Y-55183333D01*
X62183333Y-55283333D01*
X62150000Y-55416666D01*
X62150000Y-55683333D01*
X62183333Y-55750000D01*
X62216666Y-55783333D01*
X62283333Y-55816666D01*
X62416666Y-55816666D01*
X62483333Y-55783333D01*
X62516666Y-55750000D01*
X62550000Y-55683333D01*
X62550000Y-55516666D01*
X62516666Y-55450000D01*
X62483333Y-55416666D01*
X62416666Y-55383333D01*
X62283333Y-55383333D01*
X62216666Y-55416666D01*
X62183333Y-55450000D01*
X62150000Y-55516666D01*
X66083333Y-49850000D02*
X66050000Y-49883333D01*
X65950000Y-49916666D01*
X65883333Y-49916666D01*
X65783333Y-49883333D01*
X65716666Y-49816666D01*
X65683333Y-49750000D01*
X65650000Y-49616666D01*
X65650000Y-49516666D01*
X65683333Y-49383333D01*
X65716666Y-49316666D01*
X65783333Y-49250000D01*
X65883333Y-49216666D01*
X65950000Y-49216666D01*
X66050000Y-49250000D01*
X66083333Y-49283333D01*
X66683333Y-49450000D02*
X66683333Y-49916666D01*
X66516666Y-49183333D02*
X66350000Y-49683333D01*
X66783333Y-49683333D01*
X64683333Y-49850000D02*
X64650000Y-49883333D01*
X64550000Y-49916666D01*
X64483333Y-49916666D01*
X64383333Y-49883333D01*
X64316666Y-49816666D01*
X64283333Y-49750000D01*
X64250000Y-49616666D01*
X64250000Y-49516666D01*
X64283333Y-49383333D01*
X64316666Y-49316666D01*
X64383333Y-49250000D01*
X64483333Y-49216666D01*
X64550000Y-49216666D01*
X64650000Y-49250000D01*
X64683333Y-49283333D01*
X64916666Y-49216666D02*
X65350000Y-49216666D01*
X65116666Y-49483333D01*
X65216666Y-49483333D01*
X65283333Y-49516666D01*
X65316666Y-49550000D01*
X65350000Y-49616666D01*
X65350000Y-49783333D01*
X65316666Y-49850000D01*
X65283333Y-49883333D01*
X65216666Y-49916666D01*
X65016666Y-49916666D01*
X64950000Y-49883333D01*
X64916666Y-49850000D01*
X74480000Y-53916666D02*
X74513333Y-53950000D01*
X74546666Y-54050000D01*
X74546666Y-54116666D01*
X74513333Y-54216666D01*
X74446666Y-54283333D01*
X74380000Y-54316666D01*
X74246666Y-54350000D01*
X74146666Y-54350000D01*
X74013333Y-54316666D01*
X73946666Y-54283333D01*
X73880000Y-54216666D01*
X73846666Y-54116666D01*
X73846666Y-54050000D01*
X73880000Y-53950000D01*
X73913333Y-53916666D01*
X73913333Y-53650000D02*
X73880000Y-53616666D01*
X73846666Y-53550000D01*
X73846666Y-53383333D01*
X73880000Y-53316666D01*
X73913333Y-53283333D01*
X73980000Y-53250000D01*
X74046666Y-53250000D01*
X74146666Y-53283333D01*
X74546666Y-53683333D01*
X74546666Y-53250000D01*
X67883333Y-49850000D02*
X67850000Y-49883333D01*
X67750000Y-49916666D01*
X67683333Y-49916666D01*
X67583333Y-49883333D01*
X67516666Y-49816666D01*
X67483333Y-49750000D01*
X67450000Y-49616666D01*
X67450000Y-49516666D01*
X67483333Y-49383333D01*
X67516666Y-49316666D01*
X67583333Y-49250000D01*
X67683333Y-49216666D01*
X67750000Y-49216666D01*
X67850000Y-49250000D01*
X67883333Y-49283333D01*
X68550000Y-49916666D02*
X68150000Y-49916666D01*
X68350000Y-49916666D02*
X68350000Y-49216666D01*
X68283333Y-49316666D01*
X68216666Y-49383333D01*
X68150000Y-49416666D01*
X77806666Y-35273333D02*
X78506666Y-35040000D01*
X77806666Y-34806666D01*
X78440000Y-34173333D02*
X78473333Y-34206666D01*
X78506666Y-34306666D01*
X78506666Y-34373333D01*
X78473333Y-34473333D01*
X78406666Y-34540000D01*
X78340000Y-34573333D01*
X78206666Y-34606666D01*
X78106666Y-34606666D01*
X77973333Y-34573333D01*
X77906666Y-34540000D01*
X77840000Y-34473333D01*
X77806666Y-34373333D01*
X77806666Y-34306666D01*
X77840000Y-34206666D01*
X77873333Y-34173333D01*
X78440000Y-33473333D02*
X78473333Y-33506666D01*
X78506666Y-33606666D01*
X78506666Y-33673333D01*
X78473333Y-33773333D01*
X78406666Y-33840000D01*
X78340000Y-33873333D01*
X78206666Y-33906666D01*
X78106666Y-33906666D01*
X77973333Y-33873333D01*
X77906666Y-33840000D01*
X77840000Y-33773333D01*
X77806666Y-33673333D01*
X77806666Y-33606666D01*
X77840000Y-33506666D01*
X77873333Y-33473333D01*
X77840000Y-42493333D02*
X77806666Y-42560000D01*
X77806666Y-42660000D01*
X77840000Y-42760000D01*
X77906666Y-42826666D01*
X77973333Y-42860000D01*
X78106666Y-42893333D01*
X78206666Y-42893333D01*
X78340000Y-42860000D01*
X78406666Y-42826666D01*
X78473333Y-42760000D01*
X78506666Y-42660000D01*
X78506666Y-42593333D01*
X78473333Y-42493333D01*
X78440000Y-42460000D01*
X78206666Y-42460000D01*
X78206666Y-42593333D01*
X78506666Y-42160000D02*
X77806666Y-42160000D01*
X78506666Y-41760000D01*
X77806666Y-41760000D01*
X78506666Y-41426666D02*
X77806666Y-41426666D01*
X77806666Y-41260000D01*
X77840000Y-41160000D01*
X77906666Y-41093333D01*
X77973333Y-41060000D01*
X78106666Y-41026666D01*
X78206666Y-41026666D01*
X78340000Y-41060000D01*
X78406666Y-41093333D01*
X78473333Y-41160000D01*
X78506666Y-41260000D01*
X78506666Y-41426666D01*
X78506666Y-44883333D02*
X78173333Y-45116666D01*
X78506666Y-45283333D02*
X77806666Y-45283333D01*
X77806666Y-45016666D01*
X77840000Y-44950000D01*
X77873333Y-44916666D01*
X77940000Y-44883333D01*
X78040000Y-44883333D01*
X78106666Y-44916666D01*
X78140000Y-44950000D01*
X78173333Y-45016666D01*
X78173333Y-45283333D01*
X78473333Y-44616666D02*
X78506666Y-44516666D01*
X78506666Y-44350000D01*
X78473333Y-44283333D01*
X78440000Y-44250000D01*
X78373333Y-44216666D01*
X78306666Y-44216666D01*
X78240000Y-44250000D01*
X78206666Y-44283333D01*
X78173333Y-44350000D01*
X78140000Y-44483333D01*
X78106666Y-44550000D01*
X78073333Y-44583333D01*
X78006666Y-44616666D01*
X77940000Y-44616666D01*
X77873333Y-44583333D01*
X77840000Y-44550000D01*
X77806666Y-44483333D01*
X77806666Y-44316666D01*
X77840000Y-44216666D01*
X77806666Y-44016666D02*
X77806666Y-43616666D01*
X78506666Y-43816666D02*
X77806666Y-43816666D01*
X78440000Y-39836666D02*
X78473333Y-39870000D01*
X78506666Y-39970000D01*
X78506666Y-40036666D01*
X78473333Y-40136666D01*
X78406666Y-40203333D01*
X78340000Y-40236666D01*
X78206666Y-40270000D01*
X78106666Y-40270000D01*
X77973333Y-40236666D01*
X77906666Y-40203333D01*
X77840000Y-40136666D01*
X77806666Y-40036666D01*
X77806666Y-39970000D01*
X77840000Y-39870000D01*
X77873333Y-39836666D01*
X78506666Y-39203333D02*
X78506666Y-39536666D01*
X77806666Y-39536666D01*
X78506666Y-38970000D02*
X77806666Y-38970000D01*
X78506666Y-38570000D02*
X78106666Y-38870000D01*
X77806666Y-38570000D02*
X78206666Y-38970000D01*
X78506666Y-37246666D02*
X77806666Y-37246666D01*
X77806666Y-36780000D02*
X77806666Y-36646666D01*
X77840000Y-36580000D01*
X77906666Y-36513333D01*
X78040000Y-36480000D01*
X78273333Y-36480000D01*
X78406666Y-36513333D01*
X78473333Y-36580000D01*
X78506666Y-36646666D01*
X78506666Y-36780000D01*
X78473333Y-36846666D01*
X78406666Y-36913333D01*
X78273333Y-36946666D01*
X78040000Y-36946666D01*
X77906666Y-36913333D01*
X77840000Y-36846666D01*
X77806666Y-36780000D01*
X67133333Y-57583333D02*
X67066666Y-57550000D01*
X67000000Y-57483333D01*
X66900000Y-57383333D01*
X66833333Y-57350000D01*
X66766666Y-57350000D01*
X66800000Y-57516666D02*
X66733333Y-57483333D01*
X66666666Y-57416666D01*
X66633333Y-57283333D01*
X66633333Y-57050000D01*
X66666666Y-56916666D01*
X66733333Y-56850000D01*
X66800000Y-56816666D01*
X66933333Y-56816666D01*
X67000000Y-56850000D01*
X67066666Y-56916666D01*
X67100000Y-57050000D01*
X67100000Y-57283333D01*
X67066666Y-57416666D01*
X67000000Y-57483333D01*
X66933333Y-57516666D01*
X66800000Y-57516666D01*
X67366666Y-56883333D02*
X67400000Y-56850000D01*
X67466666Y-56816666D01*
X67633333Y-56816666D01*
X67700000Y-56850000D01*
X67733333Y-56883333D01*
X67766666Y-56950000D01*
X67766666Y-57016666D01*
X67733333Y-57116666D01*
X67333333Y-57516666D01*
X67766666Y-57516666D01*
X63533333Y-57583333D02*
X63466666Y-57550000D01*
X63400000Y-57483333D01*
X63300000Y-57383333D01*
X63233333Y-57350000D01*
X63166666Y-57350000D01*
X63200000Y-57516666D02*
X63133333Y-57483333D01*
X63066666Y-57416666D01*
X63033333Y-57283333D01*
X63033333Y-57050000D01*
X63066666Y-56916666D01*
X63133333Y-56850000D01*
X63200000Y-56816666D01*
X63333333Y-56816666D01*
X63400000Y-56850000D01*
X63466666Y-56916666D01*
X63500000Y-57050000D01*
X63500000Y-57283333D01*
X63466666Y-57416666D01*
X63400000Y-57483333D01*
X63333333Y-57516666D01*
X63200000Y-57516666D01*
X64166666Y-57516666D02*
X63766666Y-57516666D01*
X63966666Y-57516666D02*
X63966666Y-56816666D01*
X63900000Y-56916666D01*
X63833333Y-56983333D01*
X63766666Y-57016666D01*
X62916666Y-52550000D02*
X62883333Y-52583333D01*
X62783333Y-52616666D01*
X62716666Y-52616666D01*
X62616666Y-52583333D01*
X62550000Y-52516666D01*
X62516666Y-52450000D01*
X62483333Y-52316666D01*
X62483333Y-52216666D01*
X62516666Y-52083333D01*
X62550000Y-52016666D01*
X62616666Y-51950000D01*
X62716666Y-51916666D01*
X62783333Y-51916666D01*
X62883333Y-51950000D01*
X62916666Y-51983333D01*
X63216666Y-52150000D02*
X63216666Y-52850000D01*
X63216666Y-52183333D02*
X63283333Y-52150000D01*
X63416666Y-52150000D01*
X63483333Y-52183333D01*
X63516666Y-52216666D01*
X63550000Y-52283333D01*
X63550000Y-52483333D01*
X63516666Y-52550000D01*
X63483333Y-52583333D01*
X63416666Y-52616666D01*
X63283333Y-52616666D01*
X63216666Y-52583333D01*
X64150000Y-52616666D02*
X64150000Y-52250000D01*
X64116666Y-52183333D01*
X64050000Y-52150000D01*
X63916666Y-52150000D01*
X63850000Y-52183333D01*
X64150000Y-52583333D02*
X64083333Y-52616666D01*
X63916666Y-52616666D01*
X63850000Y-52583333D01*
X63816666Y-52516666D01*
X63816666Y-52450000D01*
X63850000Y-52383333D01*
X63916666Y-52350000D01*
X64083333Y-52350000D01*
X64150000Y-52316666D01*
X64483333Y-52616666D02*
X64483333Y-52150000D01*
X64483333Y-52283333D02*
X64516666Y-52216666D01*
X64550000Y-52183333D01*
X64616666Y-52150000D01*
X64683333Y-52150000D01*
X65216666Y-52616666D02*
X65216666Y-52250000D01*
X65183333Y-52183333D01*
X65116666Y-52150000D01*
X64983333Y-52150000D01*
X64916666Y-52183333D01*
X65216666Y-52583333D02*
X65150000Y-52616666D01*
X64983333Y-52616666D01*
X64916666Y-52583333D01*
X64883333Y-52516666D01*
X64883333Y-52450000D01*
X64916666Y-52383333D01*
X64983333Y-52350000D01*
X65150000Y-52350000D01*
X65216666Y-52316666D01*
X65916666Y-52616666D02*
X65516666Y-52616666D01*
X65716666Y-52616666D02*
X65716666Y-51916666D01*
X65650000Y-52016666D01*
X65583333Y-52083333D01*
X65516666Y-52116666D01*
X65283333Y-55516666D02*
X65283333Y-54816666D01*
X65450000Y-54816666D01*
X65550000Y-54850000D01*
X65616666Y-54916666D01*
X65650000Y-54983333D01*
X65683333Y-55116666D01*
X65683333Y-55216666D01*
X65650000Y-55350000D01*
X65616666Y-55416666D01*
X65550000Y-55483333D01*
X65450000Y-55516666D01*
X65283333Y-55516666D01*
X66350000Y-55516666D02*
X65950000Y-55516666D01*
X66150000Y-55516666D02*
X66150000Y-54816666D01*
X66083333Y-54916666D01*
X66016666Y-54983333D01*
X65950000Y-55016666D01*
X77916666Y-32733333D02*
X78616666Y-32500000D01*
X77916666Y-32266666D01*
X78583333Y-32066666D02*
X78616666Y-31966666D01*
X78616666Y-31800000D01*
X78583333Y-31733333D01*
X78550000Y-31700000D01*
X78483333Y-31666666D01*
X78416666Y-31666666D01*
X78350000Y-31700000D01*
X78316666Y-31733333D01*
X78283333Y-31800000D01*
X78250000Y-31933333D01*
X78216666Y-32000000D01*
X78183333Y-32033333D01*
X78116666Y-32066666D01*
X78050000Y-32066666D01*
X77983333Y-32033333D01*
X77950000Y-32000000D01*
X77916666Y-31933333D01*
X77916666Y-31766666D01*
X77950000Y-31666666D01*
X77916666Y-31233333D02*
X77916666Y-31100000D01*
X77950000Y-31033333D01*
X78016666Y-30966666D01*
X78150000Y-30933333D01*
X78383333Y-30933333D01*
X78516666Y-30966666D01*
X78583333Y-31033333D01*
X78616666Y-31100000D01*
X78616666Y-31233333D01*
X78583333Y-31300000D01*
X78516666Y-31366666D01*
X78383333Y-31400000D01*
X78150000Y-31400000D01*
X78016666Y-31366666D01*
X77950000Y-31300000D01*
X77916666Y-31233333D01*
M02*
