G04 #@! TF.GenerationSoftware,KiCad,Pcbnew,(5.1.10)-1*
G04 #@! TF.CreationDate,2021-05-27T11:01:41+03:00*
G04 #@! TF.ProjectId,parasite,70617261-7369-4746-952e-6b696361645f,1.0.0*
G04 #@! TF.SameCoordinates,Original*
G04 #@! TF.FileFunction,Copper,L1,Top*
G04 #@! TF.FilePolarity,Positive*
%FSLAX46Y46*%
G04 Gerber Fmt 4.6, Leading zero omitted, Abs format (unit mm)*
G04 Created by KiCad (PCBNEW (5.1.10)-1) date 2021-05-27 11:01:41*
%MOMM*%
%LPD*%
G01*
G04 APERTURE LIST*
G04 #@! TA.AperFunction,ComponentPad*
%ADD10C,1.600000*%
G04 #@! TD*
G04 #@! TA.AperFunction,SMDPad,CuDef*
%ADD11R,1.000000X0.650000*%
G04 #@! TD*
G04 #@! TA.AperFunction,SMDPad,CuDef*
%ADD12R,0.650000X1.000000*%
G04 #@! TD*
G04 #@! TA.AperFunction,SMDPad,CuDef*
%ADD13R,1.000000X1.800000*%
G04 #@! TD*
G04 #@! TA.AperFunction,SMDPad,CuDef*
%ADD14R,0.800000X0.900000*%
G04 #@! TD*
G04 #@! TA.AperFunction,SMDPad,CuDef*
%ADD15C,1.000000*%
G04 #@! TD*
G04 #@! TA.AperFunction,SMDPad,CuDef*
%ADD16R,1.300000X1.700000*%
G04 #@! TD*
G04 #@! TA.AperFunction,ViaPad*
%ADD17C,0.800000*%
G04 #@! TD*
G04 #@! TA.AperFunction,Conductor*
%ADD18C,0.250000*%
G04 #@! TD*
G04 #@! TA.AperFunction,Conductor*
%ADD19C,10.000000*%
G04 #@! TD*
G04 #@! TA.AperFunction,Conductor*
%ADD20C,0.500000*%
G04 #@! TD*
G04 #@! TA.AperFunction,Conductor*
%ADD21C,0.254000*%
G04 #@! TD*
G04 #@! TA.AperFunction,Conductor*
%ADD22C,0.100000*%
G04 #@! TD*
G04 APERTURE END LIST*
D10*
X74560000Y-29050000D03*
X77100000Y-29050000D03*
G04 #@! TA.AperFunction,SMDPad,CuDef*
G36*
G01*
X59277500Y-38455000D02*
X59622500Y-38455000D01*
G75*
G02*
X59770000Y-38602500I0J-147500D01*
G01*
X59770000Y-38897500D01*
G75*
G02*
X59622500Y-39045000I-147500J0D01*
G01*
X59277500Y-39045000D01*
G75*
G02*
X59130000Y-38897500I0J147500D01*
G01*
X59130000Y-38602500D01*
G75*
G02*
X59277500Y-38455000I147500J0D01*
G01*
G37*
G04 #@! TD.AperFunction*
G04 #@! TA.AperFunction,SMDPad,CuDef*
G36*
G01*
X59277500Y-37485000D02*
X59622500Y-37485000D01*
G75*
G02*
X59770000Y-37632500I0J-147500D01*
G01*
X59770000Y-37927500D01*
G75*
G02*
X59622500Y-38075000I-147500J0D01*
G01*
X59277500Y-38075000D01*
G75*
G02*
X59130000Y-37927500I0J147500D01*
G01*
X59130000Y-37632500D01*
G75*
G02*
X59277500Y-37485000I147500J0D01*
G01*
G37*
G04 #@! TD.AperFunction*
G04 #@! TA.AperFunction,SMDPad,CuDef*
G36*
G01*
X73150000Y-49975000D02*
X73150000Y-51225000D01*
G75*
G02*
X72975000Y-51400000I-175000J0D01*
G01*
X72625000Y-51400000D01*
G75*
G02*
X72450000Y-51225000I0J175000D01*
G01*
X72450000Y-49975000D01*
G75*
G02*
X72625000Y-49800000I175000J0D01*
G01*
X72975000Y-49800000D01*
G75*
G02*
X73150000Y-49975000I0J-175000D01*
G01*
G37*
G04 #@! TD.AperFunction*
G04 #@! TA.AperFunction,SMDPad,CuDef*
G36*
G01*
X72150000Y-51012500D02*
X72150000Y-51187500D01*
G75*
G02*
X72062500Y-51275000I-87500J0D01*
G01*
X71687500Y-51275000D01*
G75*
G02*
X71600000Y-51187500I0J87500D01*
G01*
X71600000Y-51012500D01*
G75*
G02*
X71687500Y-50925000I87500J0D01*
G01*
X72062500Y-50925000D01*
G75*
G02*
X72150000Y-51012500I0J-87500D01*
G01*
G37*
G04 #@! TD.AperFunction*
G04 #@! TA.AperFunction,SMDPad,CuDef*
G36*
G01*
X72150000Y-50012500D02*
X72150000Y-50187500D01*
G75*
G02*
X72062500Y-50275000I-87500J0D01*
G01*
X71687500Y-50275000D01*
G75*
G02*
X71600000Y-50187500I0J87500D01*
G01*
X71600000Y-50012500D01*
G75*
G02*
X71687500Y-49925000I87500J0D01*
G01*
X72062500Y-49925000D01*
G75*
G02*
X72150000Y-50012500I0J-87500D01*
G01*
G37*
G04 #@! TD.AperFunction*
G04 #@! TA.AperFunction,SMDPad,CuDef*
G36*
G01*
X74000000Y-50012500D02*
X74000000Y-50187500D01*
G75*
G02*
X73912500Y-50275000I-87500J0D01*
G01*
X73537500Y-50275000D01*
G75*
G02*
X73450000Y-50187500I0J87500D01*
G01*
X73450000Y-50012500D01*
G75*
G02*
X73537500Y-49925000I87500J0D01*
G01*
X73912500Y-49925000D01*
G75*
G02*
X74000000Y-50012500I0J-87500D01*
G01*
G37*
G04 #@! TD.AperFunction*
G04 #@! TA.AperFunction,SMDPad,CuDef*
G36*
G01*
X74000000Y-51012500D02*
X74000000Y-51187500D01*
G75*
G02*
X73912500Y-51275000I-87500J0D01*
G01*
X73537500Y-51275000D01*
G75*
G02*
X73450000Y-51187500I0J87500D01*
G01*
X73450000Y-51012500D01*
G75*
G02*
X73537500Y-50925000I87500J0D01*
G01*
X73912500Y-50925000D01*
G75*
G02*
X74000000Y-51012500I0J-87500D01*
G01*
G37*
G04 #@! TD.AperFunction*
D11*
X60881000Y-42600000D03*
X60881000Y-41330000D03*
X60881000Y-40060000D03*
X60881000Y-38790000D03*
X60881000Y-37520000D03*
X60881000Y-36250000D03*
X60881000Y-34980000D03*
X60881000Y-33710000D03*
X60881000Y-32440000D03*
X60881000Y-31170000D03*
X73119000Y-38790000D03*
X73119000Y-31170000D03*
X73119000Y-37520000D03*
X73119000Y-32440000D03*
X73119000Y-33710000D03*
X73119000Y-34980000D03*
X73119000Y-40060000D03*
X73119000Y-36250000D03*
X73119000Y-41330000D03*
X73119000Y-42600000D03*
D12*
X70150000Y-44819000D03*
X62530000Y-44819000D03*
X68880000Y-44819000D03*
X63800000Y-44819000D03*
X65070000Y-44819000D03*
X66340000Y-44819000D03*
X71420000Y-44819000D03*
X67610000Y-44819000D03*
D13*
X67500000Y-48000000D03*
X65000000Y-48000000D03*
G04 #@! TA.AperFunction,SMDPad,CuDef*
G36*
G01*
X71927500Y-48275000D02*
X72272500Y-48275000D01*
G75*
G02*
X72420000Y-48422500I0J-147500D01*
G01*
X72420000Y-48717500D01*
G75*
G02*
X72272500Y-48865000I-147500J0D01*
G01*
X71927500Y-48865000D01*
G75*
G02*
X71780000Y-48717500I0J147500D01*
G01*
X71780000Y-48422500D01*
G75*
G02*
X71927500Y-48275000I147500J0D01*
G01*
G37*
G04 #@! TD.AperFunction*
G04 #@! TA.AperFunction,SMDPad,CuDef*
G36*
G01*
X71927500Y-47305000D02*
X72272500Y-47305000D01*
G75*
G02*
X72420000Y-47452500I0J-147500D01*
G01*
X72420000Y-47747500D01*
G75*
G02*
X72272500Y-47895000I-147500J0D01*
G01*
X71927500Y-47895000D01*
G75*
G02*
X71780000Y-47747500I0J147500D01*
G01*
X71780000Y-47452500D01*
G75*
G02*
X71927500Y-47305000I147500J0D01*
G01*
G37*
G04 #@! TD.AperFunction*
G04 #@! TA.AperFunction,SMDPad,CuDef*
G36*
G01*
X70872500Y-47895000D02*
X70527500Y-47895000D01*
G75*
G02*
X70380000Y-47747500I0J147500D01*
G01*
X70380000Y-47452500D01*
G75*
G02*
X70527500Y-47305000I147500J0D01*
G01*
X70872500Y-47305000D01*
G75*
G02*
X71020000Y-47452500I0J-147500D01*
G01*
X71020000Y-47747500D01*
G75*
G02*
X70872500Y-47895000I-147500J0D01*
G01*
G37*
G04 #@! TD.AperFunction*
G04 #@! TA.AperFunction,SMDPad,CuDef*
G36*
G01*
X70872500Y-48865000D02*
X70527500Y-48865000D01*
G75*
G02*
X70380000Y-48717500I0J147500D01*
G01*
X70380000Y-48422500D01*
G75*
G02*
X70527500Y-48275000I147500J0D01*
G01*
X70872500Y-48275000D01*
G75*
G02*
X71020000Y-48422500I0J-147500D01*
G01*
X71020000Y-48717500D01*
G75*
G02*
X70872500Y-48865000I-147500J0D01*
G01*
G37*
G04 #@! TD.AperFunction*
G04 #@! TA.AperFunction,SMDPad,CuDef*
G36*
G01*
X69472500Y-50725000D02*
X69127500Y-50725000D01*
G75*
G02*
X68980000Y-50577500I0J147500D01*
G01*
X68980000Y-50282500D01*
G75*
G02*
X69127500Y-50135000I147500J0D01*
G01*
X69472500Y-50135000D01*
G75*
G02*
X69620000Y-50282500I0J-147500D01*
G01*
X69620000Y-50577500D01*
G75*
G02*
X69472500Y-50725000I-147500J0D01*
G01*
G37*
G04 #@! TD.AperFunction*
G04 #@! TA.AperFunction,SMDPad,CuDef*
G36*
G01*
X69472500Y-51695000D02*
X69127500Y-51695000D01*
G75*
G02*
X68980000Y-51547500I0J147500D01*
G01*
X68980000Y-51252500D01*
G75*
G02*
X69127500Y-51105000I147500J0D01*
G01*
X69472500Y-51105000D01*
G75*
G02*
X69620000Y-51252500I0J-147500D01*
G01*
X69620000Y-51547500D01*
G75*
G02*
X69472500Y-51695000I-147500J0D01*
G01*
G37*
G04 #@! TD.AperFunction*
G04 #@! TA.AperFunction,SMDPad,CuDef*
G36*
G01*
X69575000Y-56472500D02*
X69575000Y-56127500D01*
G75*
G02*
X69722500Y-55980000I147500J0D01*
G01*
X70017500Y-55980000D01*
G75*
G02*
X70165000Y-56127500I0J-147500D01*
G01*
X70165000Y-56472500D01*
G75*
G02*
X70017500Y-56620000I-147500J0D01*
G01*
X69722500Y-56620000D01*
G75*
G02*
X69575000Y-56472500I0J147500D01*
G01*
G37*
G04 #@! TD.AperFunction*
G04 #@! TA.AperFunction,SMDPad,CuDef*
G36*
G01*
X68605000Y-56472500D02*
X68605000Y-56127500D01*
G75*
G02*
X68752500Y-55980000I147500J0D01*
G01*
X69047500Y-55980000D01*
G75*
G02*
X69195000Y-56127500I0J-147500D01*
G01*
X69195000Y-56472500D01*
G75*
G02*
X69047500Y-56620000I-147500J0D01*
G01*
X68752500Y-56620000D01*
G75*
G02*
X68605000Y-56472500I0J147500D01*
G01*
G37*
G04 #@! TD.AperFunction*
G04 #@! TA.AperFunction,SMDPad,CuDef*
G36*
G01*
X61725000Y-58027500D02*
X61725000Y-58372500D01*
G75*
G02*
X61577500Y-58520000I-147500J0D01*
G01*
X61282500Y-58520000D01*
G75*
G02*
X61135000Y-58372500I0J147500D01*
G01*
X61135000Y-58027500D01*
G75*
G02*
X61282500Y-57880000I147500J0D01*
G01*
X61577500Y-57880000D01*
G75*
G02*
X61725000Y-58027500I0J-147500D01*
G01*
G37*
G04 #@! TD.AperFunction*
G04 #@! TA.AperFunction,SMDPad,CuDef*
G36*
G01*
X62695000Y-58027500D02*
X62695000Y-58372500D01*
G75*
G02*
X62547500Y-58520000I-147500J0D01*
G01*
X62252500Y-58520000D01*
G75*
G02*
X62105000Y-58372500I0J147500D01*
G01*
X62105000Y-58027500D01*
G75*
G02*
X62252500Y-57880000I147500J0D01*
G01*
X62547500Y-57880000D01*
G75*
G02*
X62695000Y-58027500I0J-147500D01*
G01*
G37*
G04 #@! TD.AperFunction*
G04 #@! TA.AperFunction,SMDPad,CuDef*
G36*
G01*
X67490000Y-56472500D02*
X67490000Y-56127500D01*
G75*
G02*
X67637500Y-55980000I147500J0D01*
G01*
X67932500Y-55980000D01*
G75*
G02*
X68080000Y-56127500I0J-147500D01*
G01*
X68080000Y-56472500D01*
G75*
G02*
X67932500Y-56620000I-147500J0D01*
G01*
X67637500Y-56620000D01*
G75*
G02*
X67490000Y-56472500I0J147500D01*
G01*
G37*
G04 #@! TD.AperFunction*
G04 #@! TA.AperFunction,SMDPad,CuDef*
G36*
G01*
X66520000Y-56472500D02*
X66520000Y-56127500D01*
G75*
G02*
X66667500Y-55980000I147500J0D01*
G01*
X66962500Y-55980000D01*
G75*
G02*
X67110000Y-56127500I0J-147500D01*
G01*
X67110000Y-56472500D01*
G75*
G02*
X66962500Y-56620000I-147500J0D01*
G01*
X66667500Y-56620000D01*
G75*
G02*
X66520000Y-56472500I0J147500D01*
G01*
G37*
G04 #@! TD.AperFunction*
G04 #@! TA.AperFunction,SMDPad,CuDef*
G36*
G01*
X61827500Y-47675000D02*
X62172500Y-47675000D01*
G75*
G02*
X62320000Y-47822500I0J-147500D01*
G01*
X62320000Y-48117500D01*
G75*
G02*
X62172500Y-48265000I-147500J0D01*
G01*
X61827500Y-48265000D01*
G75*
G02*
X61680000Y-48117500I0J147500D01*
G01*
X61680000Y-47822500D01*
G75*
G02*
X61827500Y-47675000I147500J0D01*
G01*
G37*
G04 #@! TD.AperFunction*
G04 #@! TA.AperFunction,SMDPad,CuDef*
G36*
G01*
X61827500Y-46705000D02*
X62172500Y-46705000D01*
G75*
G02*
X62320000Y-46852500I0J-147500D01*
G01*
X62320000Y-47147500D01*
G75*
G02*
X62172500Y-47295000I-147500J0D01*
G01*
X61827500Y-47295000D01*
G75*
G02*
X61680000Y-47147500I0J147500D01*
G01*
X61680000Y-46852500D01*
G75*
G02*
X61827500Y-46705000I147500J0D01*
G01*
G37*
G04 #@! TD.AperFunction*
G04 #@! TA.AperFunction,SMDPad,CuDef*
G36*
G01*
X62190000Y-54572500D02*
X62190000Y-54227500D01*
G75*
G02*
X62337500Y-54080000I147500J0D01*
G01*
X62632500Y-54080000D01*
G75*
G02*
X62780000Y-54227500I0J-147500D01*
G01*
X62780000Y-54572500D01*
G75*
G02*
X62632500Y-54720000I-147500J0D01*
G01*
X62337500Y-54720000D01*
G75*
G02*
X62190000Y-54572500I0J147500D01*
G01*
G37*
G04 #@! TD.AperFunction*
G04 #@! TA.AperFunction,SMDPad,CuDef*
G36*
G01*
X61220000Y-54572500D02*
X61220000Y-54227500D01*
G75*
G02*
X61367500Y-54080000I147500J0D01*
G01*
X61662500Y-54080000D01*
G75*
G02*
X61810000Y-54227500I0J-147500D01*
G01*
X61810000Y-54572500D01*
G75*
G02*
X61662500Y-54720000I-147500J0D01*
G01*
X61367500Y-54720000D01*
G75*
G02*
X61220000Y-54572500I0J147500D01*
G01*
G37*
G04 #@! TD.AperFunction*
D14*
X73100000Y-58300000D03*
X72150000Y-56300000D03*
X74050000Y-56300000D03*
G04 #@! TA.AperFunction,SMDPad,CuDef*
G36*
G01*
X62256250Y-50862500D02*
X61743750Y-50862500D01*
G75*
G02*
X61525000Y-50643750I0J218750D01*
G01*
X61525000Y-50206250D01*
G75*
G02*
X61743750Y-49987500I218750J0D01*
G01*
X62256250Y-49987500D01*
G75*
G02*
X62475000Y-50206250I0J-218750D01*
G01*
X62475000Y-50643750D01*
G75*
G02*
X62256250Y-50862500I-218750J0D01*
G01*
G37*
G04 #@! TD.AperFunction*
G04 #@! TA.AperFunction,SMDPad,CuDef*
G36*
G01*
X62256250Y-52437500D02*
X61743750Y-52437500D01*
G75*
G02*
X61525000Y-52218750I0J218750D01*
G01*
X61525000Y-51781250D01*
G75*
G02*
X61743750Y-51562500I218750J0D01*
G01*
X62256250Y-51562500D01*
G75*
G02*
X62475000Y-51781250I0J-218750D01*
G01*
X62475000Y-52218750D01*
G75*
G02*
X62256250Y-52437500I-218750J0D01*
G01*
G37*
G04 #@! TD.AperFunction*
G04 #@! TA.AperFunction,SMDPad,CuDef*
G36*
G01*
X61725000Y-56227500D02*
X61725000Y-56572500D01*
G75*
G02*
X61577500Y-56720000I-147500J0D01*
G01*
X61282500Y-56720000D01*
G75*
G02*
X61135000Y-56572500I0J147500D01*
G01*
X61135000Y-56227500D01*
G75*
G02*
X61282500Y-56080000I147500J0D01*
G01*
X61577500Y-56080000D01*
G75*
G02*
X61725000Y-56227500I0J-147500D01*
G01*
G37*
G04 #@! TD.AperFunction*
G04 #@! TA.AperFunction,SMDPad,CuDef*
G36*
G01*
X62695000Y-56227500D02*
X62695000Y-56572500D01*
G75*
G02*
X62547500Y-56720000I-147500J0D01*
G01*
X62252500Y-56720000D01*
G75*
G02*
X62105000Y-56572500I0J147500D01*
G01*
X62105000Y-56227500D01*
G75*
G02*
X62252500Y-56080000I147500J0D01*
G01*
X62547500Y-56080000D01*
G75*
G02*
X62695000Y-56227500I0J-147500D01*
G01*
G37*
G04 #@! TD.AperFunction*
G04 #@! TA.AperFunction,SMDPad,CuDef*
G36*
G01*
X66372500Y-50725000D02*
X66027500Y-50725000D01*
G75*
G02*
X65880000Y-50577500I0J147500D01*
G01*
X65880000Y-50282500D01*
G75*
G02*
X66027500Y-50135000I147500J0D01*
G01*
X66372500Y-50135000D01*
G75*
G02*
X66520000Y-50282500I0J-147500D01*
G01*
X66520000Y-50577500D01*
G75*
G02*
X66372500Y-50725000I-147500J0D01*
G01*
G37*
G04 #@! TD.AperFunction*
G04 #@! TA.AperFunction,SMDPad,CuDef*
G36*
G01*
X66372500Y-51695000D02*
X66027500Y-51695000D01*
G75*
G02*
X65880000Y-51547500I0J147500D01*
G01*
X65880000Y-51252500D01*
G75*
G02*
X66027500Y-51105000I147500J0D01*
G01*
X66372500Y-51105000D01*
G75*
G02*
X66520000Y-51252500I0J-147500D01*
G01*
X66520000Y-51547500D01*
G75*
G02*
X66372500Y-51695000I-147500J0D01*
G01*
G37*
G04 #@! TD.AperFunction*
G04 #@! TA.AperFunction,SMDPad,CuDef*
G36*
G01*
X64627500Y-51105000D02*
X64972500Y-51105000D01*
G75*
G02*
X65120000Y-51252500I0J-147500D01*
G01*
X65120000Y-51547500D01*
G75*
G02*
X64972500Y-51695000I-147500J0D01*
G01*
X64627500Y-51695000D01*
G75*
G02*
X64480000Y-51547500I0J147500D01*
G01*
X64480000Y-51252500D01*
G75*
G02*
X64627500Y-51105000I147500J0D01*
G01*
G37*
G04 #@! TD.AperFunction*
G04 #@! TA.AperFunction,SMDPad,CuDef*
G36*
G01*
X64627500Y-50135000D02*
X64972500Y-50135000D01*
G75*
G02*
X65120000Y-50282500I0J-147500D01*
G01*
X65120000Y-50577500D01*
G75*
G02*
X64972500Y-50725000I-147500J0D01*
G01*
X64627500Y-50725000D01*
G75*
G02*
X64480000Y-50577500I0J147500D01*
G01*
X64480000Y-50282500D01*
G75*
G02*
X64627500Y-50135000I147500J0D01*
G01*
G37*
G04 #@! TD.AperFunction*
G04 #@! TA.AperFunction,SMDPad,CuDef*
G36*
G01*
X72625000Y-53627500D02*
X72625000Y-53972500D01*
G75*
G02*
X72477500Y-54120000I-147500J0D01*
G01*
X72182500Y-54120000D01*
G75*
G02*
X72035000Y-53972500I0J147500D01*
G01*
X72035000Y-53627500D01*
G75*
G02*
X72182500Y-53480000I147500J0D01*
G01*
X72477500Y-53480000D01*
G75*
G02*
X72625000Y-53627500I0J-147500D01*
G01*
G37*
G04 #@! TD.AperFunction*
G04 #@! TA.AperFunction,SMDPad,CuDef*
G36*
G01*
X73595000Y-53627500D02*
X73595000Y-53972500D01*
G75*
G02*
X73447500Y-54120000I-147500J0D01*
G01*
X73152500Y-54120000D01*
G75*
G02*
X73005000Y-53972500I0J147500D01*
G01*
X73005000Y-53627500D01*
G75*
G02*
X73152500Y-53480000I147500J0D01*
G01*
X73447500Y-53480000D01*
G75*
G02*
X73595000Y-53627500I0J-147500D01*
G01*
G37*
G04 #@! TD.AperFunction*
G04 #@! TA.AperFunction,SMDPad,CuDef*
G36*
G01*
X68172500Y-50725000D02*
X67827500Y-50725000D01*
G75*
G02*
X67680000Y-50577500I0J147500D01*
G01*
X67680000Y-50282500D01*
G75*
G02*
X67827500Y-50135000I147500J0D01*
G01*
X68172500Y-50135000D01*
G75*
G02*
X68320000Y-50282500I0J-147500D01*
G01*
X68320000Y-50577500D01*
G75*
G02*
X68172500Y-50725000I-147500J0D01*
G01*
G37*
G04 #@! TD.AperFunction*
G04 #@! TA.AperFunction,SMDPad,CuDef*
G36*
G01*
X68172500Y-51695000D02*
X67827500Y-51695000D01*
G75*
G02*
X67680000Y-51547500I0J147500D01*
G01*
X67680000Y-51252500D01*
G75*
G02*
X67827500Y-51105000I147500J0D01*
G01*
X68172500Y-51105000D01*
G75*
G02*
X68320000Y-51252500I0J-147500D01*
G01*
X68320000Y-51547500D01*
G75*
G02*
X68172500Y-51695000I-147500J0D01*
G01*
G37*
G04 #@! TD.AperFunction*
D15*
X76640000Y-34340000D03*
X76640000Y-41960000D03*
X76640000Y-44500000D03*
X76640000Y-39420000D03*
X76640000Y-36880000D03*
D14*
X68450000Y-57700000D03*
X69400000Y-59700000D03*
X67500000Y-59700000D03*
X64800000Y-57700000D03*
X65750000Y-59700000D03*
X63850000Y-59700000D03*
G04 #@! TA.AperFunction,SMDPad,CuDef*
G36*
G01*
X64556250Y-53850000D02*
X63643750Y-53850000D01*
G75*
G02*
X63400000Y-53606250I0J243750D01*
G01*
X63400000Y-53118750D01*
G75*
G02*
X63643750Y-52875000I243750J0D01*
G01*
X64556250Y-52875000D01*
G75*
G02*
X64800000Y-53118750I0J-243750D01*
G01*
X64800000Y-53606250D01*
G75*
G02*
X64556250Y-53850000I-243750J0D01*
G01*
G37*
G04 #@! TD.AperFunction*
G04 #@! TA.AperFunction,SMDPad,CuDef*
G36*
G01*
X64556250Y-55725000D02*
X63643750Y-55725000D01*
G75*
G02*
X63400000Y-55481250I0J243750D01*
G01*
X63400000Y-54993750D01*
G75*
G02*
X63643750Y-54750000I243750J0D01*
G01*
X64556250Y-54750000D01*
G75*
G02*
X64800000Y-54993750I0J-243750D01*
G01*
X64800000Y-55481250D01*
G75*
G02*
X64556250Y-55725000I-243750J0D01*
G01*
G37*
G04 #@! TD.AperFunction*
D16*
X69700000Y-53700000D03*
X66200000Y-53700000D03*
D15*
X76640000Y-31800000D03*
D17*
X68700000Y-60700000D03*
X65800000Y-61100000D03*
X74800000Y-53800000D03*
X74800000Y-54700000D03*
X71300000Y-52400000D03*
X72200000Y-52400000D03*
X63500000Y-51400000D03*
X63500000Y-50500000D03*
X63500000Y-49600000D03*
X67198744Y-55038241D03*
X64100000Y-55237500D03*
X65862500Y-55237500D03*
X63500000Y-38200000D03*
X64700000Y-38200000D03*
X65800000Y-38200000D03*
X67100000Y-38200000D03*
X67100000Y-67700000D03*
X67800000Y-67000000D03*
X68550000Y-66250000D03*
X63000000Y-33800000D03*
X75100000Y-31800000D03*
X63800000Y-64300000D03*
X62100000Y-35600000D03*
X60900000Y-45600000D03*
X58400000Y-50400000D03*
X59699999Y-33500000D03*
X71800000Y-34700000D03*
X76100000Y-38200000D03*
X69500000Y-34400000D03*
X75900000Y-40300000D03*
X69500000Y-34400000D03*
X75300000Y-43200000D03*
X73119000Y-42600000D03*
X74700000Y-45700000D03*
X71600000Y-37700000D03*
X70800000Y-36300000D03*
X74493886Y-47510431D03*
D18*
X67580000Y-50430000D02*
X68000000Y-50430000D01*
X66944168Y-51065832D02*
X67580000Y-50430000D01*
X66534168Y-51065832D02*
X66944168Y-51065832D01*
X66200000Y-51400000D02*
X66534168Y-51065832D01*
X66999485Y-55237500D02*
X67198744Y-55038241D01*
X64100000Y-55237500D02*
X65862500Y-55237500D01*
X65862500Y-55237500D02*
X66999485Y-55237500D01*
X65750000Y-61050000D02*
X65800000Y-61100000D01*
X65750000Y-59700000D02*
X65750000Y-61050000D01*
X68700000Y-60400000D02*
X69400000Y-59700000D01*
X68700000Y-60700000D02*
X68700000Y-60400000D01*
X60881000Y-36250000D02*
X61056000Y-36250000D01*
X64500000Y-38200000D02*
X65800000Y-38200000D01*
X63497000Y-38197000D02*
X63500000Y-38200000D01*
X61056000Y-36250000D02*
X63003000Y-38197000D01*
X63003000Y-38197000D02*
X63497000Y-38197000D01*
D19*
X68000000Y-86000000D02*
X68000000Y-126000000D01*
D18*
X62485000Y-54400000D02*
X62485000Y-53715000D01*
X62837500Y-53362500D02*
X64100000Y-53362500D01*
X62485000Y-53715000D02*
X62837500Y-53362500D01*
X65862500Y-53362500D02*
X66200000Y-53700000D01*
X64100000Y-53362500D02*
X65862500Y-53362500D01*
X68900000Y-55500000D02*
X68900000Y-55880000D01*
X67100000Y-53700000D02*
X68900000Y-55500000D01*
X68900000Y-55880000D02*
X68900000Y-56300000D01*
X66200000Y-53700000D02*
X67100000Y-53700000D01*
X63074999Y-63951999D02*
X65026998Y-62000000D01*
X63074999Y-81074999D02*
X63074999Y-63951999D01*
X68000000Y-86000000D02*
X63074999Y-81074999D01*
X70213222Y-55654990D02*
X69345010Y-55654990D01*
X70949990Y-56391758D02*
X70213222Y-55654990D01*
X70949990Y-59585012D02*
X70949990Y-56391758D01*
X68535002Y-62000000D02*
X70949990Y-59585012D01*
X65026998Y-62000000D02*
X68535002Y-62000000D01*
X69234168Y-55965832D02*
X68900000Y-56300000D01*
X69234168Y-55765832D02*
X69234168Y-55965832D01*
X69345010Y-55654990D02*
X69234168Y-55765832D01*
X61430000Y-56400000D02*
X61430000Y-58200000D01*
X61515000Y-56315000D02*
X61430000Y-56400000D01*
X61515000Y-54400000D02*
X61515000Y-56315000D01*
X61180832Y-54065832D02*
X61515000Y-54400000D01*
X60174999Y-45251999D02*
X60174999Y-53059999D01*
X60174999Y-53059999D02*
X61180832Y-54065832D01*
X61432999Y-43993999D02*
X60174999Y-45251999D01*
X64419999Y-43993999D02*
X61432999Y-43993999D01*
X65070000Y-44644000D02*
X64419999Y-43993999D01*
X65070000Y-44819000D02*
X65070000Y-44644000D01*
X63850000Y-59650000D02*
X62400000Y-58200000D01*
X63850000Y-59700000D02*
X63850000Y-59650000D01*
X62400000Y-58200000D02*
X62400000Y-56400000D01*
X69870000Y-56720000D02*
X69870000Y-56300000D01*
X69870000Y-56930000D02*
X69870000Y-56720000D01*
X69100000Y-57700000D02*
X69870000Y-56930000D01*
X68450000Y-57700000D02*
X69100000Y-57700000D01*
X67450832Y-56634168D02*
X67785000Y-56300000D01*
X67450832Y-56652400D02*
X67450832Y-56634168D01*
X66403232Y-57700000D02*
X67450832Y-56652400D01*
X64800000Y-57700000D02*
X66403232Y-57700000D01*
X66403232Y-57903232D02*
X66403232Y-57700000D01*
X67500000Y-59000000D02*
X66403232Y-57903232D01*
X67500000Y-59700000D02*
X67500000Y-59000000D01*
D20*
X73100000Y-61700000D02*
X68550000Y-66250000D01*
X73100000Y-58300000D02*
X73100000Y-61700000D01*
X67800000Y-67000000D02*
X67100000Y-67700000D01*
X68550000Y-66250000D02*
X67800000Y-67000000D01*
D18*
X69700000Y-51800000D02*
X69300000Y-51400000D01*
X69700000Y-53700000D02*
X69700000Y-51800000D01*
X68000000Y-51400000D02*
X69300000Y-51400000D01*
X62910000Y-33710000D02*
X63000000Y-33800000D01*
X60881000Y-33710000D02*
X62910000Y-33710000D01*
X75100000Y-31800000D02*
X76640000Y-31800000D01*
X69700000Y-53900000D02*
X69700000Y-53700000D01*
X70600000Y-54800000D02*
X69700000Y-53900000D01*
X71400000Y-54800000D02*
X70600000Y-54800000D01*
X71400000Y-61386814D02*
X71400000Y-54800000D01*
X72000000Y-61986814D02*
X71400000Y-61386814D01*
X69686814Y-64300000D02*
X72000000Y-61986814D01*
X63800000Y-64300000D02*
X69686814Y-64300000D01*
X62000000Y-47970000D02*
X62000000Y-50425000D01*
D20*
X67610000Y-44453998D02*
X67610000Y-44819000D01*
X68194999Y-43868999D02*
X67610000Y-44453998D01*
X69565001Y-43868999D02*
X68194999Y-43868999D01*
X70150000Y-44453998D02*
X69565001Y-43868999D01*
X70150000Y-44819000D02*
X70150000Y-44453998D01*
X70150000Y-47050000D02*
X70700000Y-47600000D01*
X70150000Y-44819000D02*
X70150000Y-47050000D01*
X70700000Y-47600000D02*
X72100000Y-47600000D01*
X73725000Y-53375000D02*
X73300000Y-53800000D01*
X73725000Y-51100000D02*
X73725000Y-53375000D01*
X73300000Y-55150000D02*
X73300000Y-53800000D01*
X72150000Y-56300000D02*
X73300000Y-55150000D01*
X74100000Y-51100000D02*
X73725000Y-51100000D01*
X75793897Y-49406103D02*
X74100000Y-51100000D01*
X75793897Y-45535895D02*
X75793897Y-49406103D01*
X75108001Y-44849999D02*
X75793897Y-45535895D01*
X74291999Y-44849999D02*
X75108001Y-44849999D01*
X72434168Y-46707830D02*
X74291999Y-44849999D01*
X72434168Y-47265832D02*
X72434168Y-46707830D01*
X72100000Y-47600000D02*
X72434168Y-47265832D01*
X76140001Y-34839999D02*
X76640000Y-34340000D01*
X74400000Y-36580000D02*
X76140001Y-34839999D01*
X74400000Y-44141998D02*
X74400000Y-36580000D01*
X75108001Y-44849999D02*
X74400000Y-44141998D01*
D18*
X61480000Y-34980000D02*
X62100000Y-35600000D01*
X60881000Y-34980000D02*
X61480000Y-34980000D01*
X62000000Y-46700000D02*
X60900000Y-45600000D01*
X62000000Y-47000000D02*
X62000000Y-46700000D01*
X60881000Y-32440000D02*
X60759999Y-32440000D01*
X60759999Y-32440000D02*
X59699999Y-33500000D01*
X66420000Y-56300000D02*
X66815000Y-56300000D01*
X63020010Y-58183600D02*
X63020010Y-57831778D01*
X63761409Y-58924999D02*
X63020010Y-58183600D01*
X64551788Y-56300000D02*
X66420000Y-56300000D01*
X59200000Y-51765685D02*
X59200000Y-56958232D01*
X64510001Y-58924999D02*
X63761409Y-58924999D01*
X64510001Y-60475001D02*
X64575001Y-60410001D01*
X59200000Y-56958232D02*
X62716769Y-60475001D01*
X64575001Y-60410001D02*
X64575001Y-58989999D01*
X58400000Y-50965685D02*
X59200000Y-51765685D01*
X62716769Y-60475001D02*
X64510001Y-60475001D01*
X63020010Y-57831778D02*
X64551788Y-56300000D01*
X64575001Y-58989999D02*
X64510001Y-58924999D01*
X58400000Y-50400000D02*
X58400000Y-50965685D01*
X72080000Y-34980000D02*
X71800000Y-34700000D01*
X73119000Y-34980000D02*
X72080000Y-34980000D01*
X76100000Y-37420000D02*
X76640000Y-36880000D01*
X76100000Y-38200000D02*
X76100000Y-37420000D01*
X70190000Y-33710000D02*
X69500000Y-34400000D01*
X73119000Y-33710000D02*
X70190000Y-33710000D01*
X75900000Y-40300000D02*
X75900000Y-40160000D01*
X75900000Y-40160000D02*
X76640000Y-39420000D01*
X76600000Y-44500000D02*
X75300000Y-43200000D01*
X76640000Y-44500000D02*
X76600000Y-44500000D01*
X72330000Y-48570000D02*
X73500000Y-47400000D01*
X72100000Y-48570000D02*
X72330000Y-48570000D01*
X73500000Y-46900000D02*
X74700000Y-45700000D01*
X73500000Y-47400000D02*
X73500000Y-46900000D01*
X72939000Y-37700000D02*
X73119000Y-37520000D01*
X71600000Y-37700000D02*
X72939000Y-37700000D01*
X75099999Y-46099999D02*
X74700000Y-45700000D01*
X75218887Y-46218887D02*
X75099999Y-46099999D01*
X75218887Y-48331113D02*
X75218887Y-46218887D01*
X73725000Y-49825000D02*
X75218887Y-48331113D01*
X73725000Y-50100000D02*
X73725000Y-49825000D01*
X70700000Y-48925000D02*
X71875000Y-50100000D01*
X70700000Y-48570000D02*
X70700000Y-48925000D01*
X73069000Y-36300000D02*
X73119000Y-36250000D01*
X70800000Y-36300000D02*
X73069000Y-36300000D01*
X72529327Y-49474990D02*
X74493886Y-47510431D01*
X72225010Y-49474990D02*
X72529327Y-49474990D01*
X71875000Y-49825000D02*
X72225010Y-49474990D01*
X71875000Y-50100000D02*
X71875000Y-49825000D01*
X62530000Y-45130000D02*
X65000000Y-47600000D01*
X65000000Y-47600000D02*
X65000000Y-48000000D01*
X62530000Y-44819000D02*
X62530000Y-45130000D01*
X64800000Y-48200000D02*
X65000000Y-48000000D01*
X64800000Y-50430000D02*
X64800000Y-48200000D01*
X67500000Y-47600000D02*
X67500000Y-48000000D01*
X65580999Y-46774999D02*
X66674999Y-46774999D01*
X66674999Y-46774999D02*
X67500000Y-47600000D01*
X63800000Y-44994000D02*
X65580999Y-46774999D01*
X63800000Y-44819000D02*
X63800000Y-44994000D01*
X66200000Y-50430000D02*
X67000000Y-49630000D01*
X67500000Y-49150000D02*
X67500000Y-48000000D01*
X67020000Y-49630000D02*
X67500000Y-49150000D01*
X67000000Y-49630000D02*
X67020000Y-49630000D01*
X60861000Y-38770000D02*
X60881000Y-38790000D01*
X60841000Y-38750000D02*
X60881000Y-38790000D01*
X59450000Y-38750000D02*
X60841000Y-38750000D01*
X63016998Y-38790000D02*
X60881000Y-38790000D01*
X67448001Y-38925001D02*
X63151999Y-38925001D01*
X68750000Y-37623002D02*
X67448001Y-38925001D01*
X68750000Y-34056410D02*
X68750000Y-37623002D01*
X63151999Y-38925001D02*
X63016998Y-38790000D01*
X72286411Y-30519999D02*
X68750000Y-34056410D01*
X75630001Y-30519999D02*
X72286411Y-30519999D01*
X77100000Y-29050000D02*
X75630001Y-30519999D01*
X73560000Y-30050000D02*
X74560000Y-29050000D01*
X72120000Y-30050000D02*
X73560000Y-30050000D01*
X71000000Y-31170000D02*
X72120000Y-30050000D01*
X60601000Y-31170000D02*
X71000000Y-31170000D01*
D21*
X78340001Y-126726618D02*
X68556139Y-136510479D01*
X68417802Y-136624109D01*
X68288623Y-136693375D01*
X68148451Y-136736230D01*
X68002623Y-136751043D01*
X67856695Y-136737248D01*
X67716222Y-136695371D01*
X67586563Y-136627010D01*
X67448982Y-136515599D01*
X57660000Y-126726620D01*
X57660000Y-51144350D01*
X57694454Y-51257932D01*
X57711059Y-51288997D01*
X57765026Y-51389961D01*
X57836201Y-51476687D01*
X57860000Y-51505686D01*
X57888998Y-51529484D01*
X58440000Y-52080487D01*
X58440001Y-56920900D01*
X58436324Y-56958232D01*
X58440001Y-56995565D01*
X58450998Y-57107218D01*
X58461173Y-57140760D01*
X58494454Y-57250478D01*
X58565026Y-57382508D01*
X58636201Y-57469234D01*
X58660000Y-57498233D01*
X58688998Y-57522031D01*
X62152974Y-60986009D01*
X62176768Y-61015002D01*
X62205761Y-61038796D01*
X62205765Y-61038800D01*
X62276454Y-61096812D01*
X62292493Y-61109975D01*
X62424522Y-61180547D01*
X62567783Y-61224004D01*
X62679436Y-61235001D01*
X62679445Y-61235001D01*
X62716768Y-61238677D01*
X62754091Y-61235001D01*
X64472679Y-61235001D01*
X64510001Y-61238677D01*
X64547323Y-61235001D01*
X64547334Y-61235001D01*
X64658987Y-61224004D01*
X64802248Y-61180547D01*
X64934277Y-61109975D01*
X65050002Y-61015002D01*
X65073805Y-60985998D01*
X65085999Y-60973804D01*
X65115002Y-60950002D01*
X65209975Y-60834277D01*
X65240440Y-60777282D01*
X65350000Y-60788072D01*
X65464250Y-60785000D01*
X65623000Y-60626250D01*
X65623000Y-59827000D01*
X65603000Y-59827000D01*
X65603000Y-59573000D01*
X65623000Y-59573000D01*
X65623000Y-58773750D01*
X65538393Y-58689143D01*
X65554494Y-58680537D01*
X65651185Y-58601185D01*
X65730537Y-58504494D01*
X65754320Y-58460000D01*
X65883662Y-58460000D01*
X65892234Y-58467036D01*
X66040082Y-58614884D01*
X66035750Y-58615000D01*
X65877000Y-58773750D01*
X65877000Y-59573000D01*
X65897000Y-59573000D01*
X65897000Y-59827000D01*
X65877000Y-59827000D01*
X65877000Y-60626250D01*
X66035750Y-60785000D01*
X66150000Y-60788072D01*
X66274482Y-60775812D01*
X66394180Y-60739502D01*
X66504494Y-60680537D01*
X66601185Y-60601185D01*
X66625000Y-60572166D01*
X66648815Y-60601185D01*
X66745506Y-60680537D01*
X66855820Y-60739502D01*
X66975518Y-60775812D01*
X67100000Y-60788072D01*
X67900000Y-60788072D01*
X68024482Y-60775812D01*
X68144180Y-60739502D01*
X68254494Y-60680537D01*
X68351185Y-60601185D01*
X68430537Y-60504494D01*
X68450000Y-60468082D01*
X68469463Y-60504494D01*
X68548815Y-60601185D01*
X68645506Y-60680537D01*
X68732933Y-60727268D01*
X68220201Y-61240000D01*
X65064320Y-61240000D01*
X65026997Y-61236324D01*
X64989674Y-61240000D01*
X64989665Y-61240000D01*
X64878012Y-61250997D01*
X64734751Y-61294454D01*
X64602722Y-61365026D01*
X64602720Y-61365027D01*
X64602721Y-61365027D01*
X64515994Y-61436201D01*
X64515990Y-61436205D01*
X64486997Y-61459999D01*
X64463203Y-61488992D01*
X62563997Y-63388200D01*
X62534999Y-63411998D01*
X62511201Y-63440996D01*
X62511200Y-63440997D01*
X62440025Y-63527723D01*
X62369453Y-63659753D01*
X62367854Y-63665026D01*
X62330249Y-63788998D01*
X62325997Y-63803014D01*
X62311323Y-63951999D01*
X62315000Y-63989332D01*
X62315000Y-66372094D01*
X61987206Y-66153068D01*
X61607918Y-65995962D01*
X61205269Y-65915870D01*
X60794731Y-65915870D01*
X60392082Y-65995962D01*
X60012794Y-66153068D01*
X59671445Y-66381151D01*
X59381151Y-66671445D01*
X59153068Y-67012794D01*
X58995962Y-67392082D01*
X58915870Y-67794731D01*
X58915870Y-68205269D01*
X58995962Y-68607918D01*
X59153068Y-68987206D01*
X59381151Y-69328555D01*
X59671445Y-69618849D01*
X60012794Y-69846932D01*
X60392082Y-70004038D01*
X60794731Y-70084130D01*
X61205269Y-70084130D01*
X61607918Y-70004038D01*
X61987206Y-69846932D01*
X62315000Y-69627906D01*
X62314999Y-81037677D01*
X62311323Y-81074999D01*
X62314999Y-81112321D01*
X62314999Y-81112331D01*
X62325996Y-81223984D01*
X62346628Y-81291999D01*
X62369453Y-81367245D01*
X62440025Y-81499275D01*
X62479870Y-81547825D01*
X62534998Y-81615000D01*
X62564002Y-81638803D01*
X63511703Y-82586504D01*
X63291999Y-82854215D01*
X62768749Y-83833146D01*
X62446534Y-84895348D01*
X62365000Y-85723175D01*
X62365001Y-126276826D01*
X62446535Y-127104653D01*
X62768750Y-128166855D01*
X63292000Y-129145786D01*
X63996175Y-130003826D01*
X64854215Y-130708001D01*
X65833146Y-131231251D01*
X66895348Y-131553466D01*
X68000000Y-131662265D01*
X69104653Y-131553466D01*
X70166855Y-131231251D01*
X71145786Y-130708001D01*
X72003826Y-130003826D01*
X72708001Y-129145786D01*
X73231251Y-128166855D01*
X73553466Y-127104653D01*
X73635000Y-126276826D01*
X73635000Y-85723174D01*
X73553466Y-84895347D01*
X73231251Y-83833145D01*
X72708001Y-82854214D01*
X72003825Y-81996174D01*
X71145785Y-81291999D01*
X70166854Y-80768749D01*
X69104652Y-80446534D01*
X68000000Y-80337735D01*
X66895347Y-80446534D01*
X65833145Y-80768749D01*
X64854214Y-81291999D01*
X64586504Y-81511703D01*
X63834999Y-80760198D01*
X63834999Y-65335000D01*
X63901939Y-65335000D01*
X64101898Y-65295226D01*
X64290256Y-65217205D01*
X64459774Y-65103937D01*
X64503711Y-65060000D01*
X68488422Y-65060000D01*
X68304957Y-65243465D01*
X68248102Y-65254774D01*
X68059744Y-65332795D01*
X67890226Y-65446063D01*
X67746063Y-65590226D01*
X67632795Y-65759744D01*
X67554774Y-65948102D01*
X67545372Y-65995372D01*
X67498102Y-66004774D01*
X67309744Y-66082795D01*
X67140226Y-66196063D01*
X66996063Y-66340226D01*
X66882795Y-66509744D01*
X66804774Y-66698102D01*
X66803667Y-66703667D01*
X66798102Y-66704774D01*
X66609744Y-66782795D01*
X66440226Y-66896063D01*
X66296063Y-67040226D01*
X66182795Y-67209744D01*
X66104774Y-67398102D01*
X66065000Y-67598061D01*
X66065000Y-67801939D01*
X66104774Y-68001898D01*
X66182795Y-68190256D01*
X66296063Y-68359774D01*
X66440226Y-68503937D01*
X66609744Y-68617205D01*
X66798102Y-68695226D01*
X66998061Y-68735000D01*
X67201939Y-68735000D01*
X67401898Y-68695226D01*
X67590256Y-68617205D01*
X67759774Y-68503937D01*
X67903937Y-68359774D01*
X68017205Y-68190256D01*
X68095226Y-68001898D01*
X68096333Y-67996333D01*
X68101898Y-67995226D01*
X68290256Y-67917205D01*
X68459774Y-67803937D01*
X68468980Y-67794731D01*
X72915870Y-67794731D01*
X72915870Y-68205269D01*
X72995962Y-68607918D01*
X73153068Y-68987206D01*
X73381151Y-69328555D01*
X73671445Y-69618849D01*
X74012794Y-69846932D01*
X74392082Y-70004038D01*
X74794731Y-70084130D01*
X75205269Y-70084130D01*
X75607918Y-70004038D01*
X75987206Y-69846932D01*
X76328555Y-69618849D01*
X76618849Y-69328555D01*
X76846932Y-68987206D01*
X77004038Y-68607918D01*
X77084130Y-68205269D01*
X77084130Y-67794731D01*
X77004038Y-67392082D01*
X76846932Y-67012794D01*
X76618849Y-66671445D01*
X76328555Y-66381151D01*
X75987206Y-66153068D01*
X75607918Y-65995962D01*
X75205269Y-65915870D01*
X74794731Y-65915870D01*
X74392082Y-65995962D01*
X74012794Y-66153068D01*
X73671445Y-66381151D01*
X73381151Y-66671445D01*
X73153068Y-67012794D01*
X72995962Y-67392082D01*
X72915870Y-67794731D01*
X68468980Y-67794731D01*
X68603937Y-67659774D01*
X68717205Y-67490256D01*
X68795226Y-67301898D01*
X68804628Y-67254628D01*
X68851898Y-67245226D01*
X69040256Y-67167205D01*
X69209774Y-67053937D01*
X69353937Y-66909774D01*
X69467205Y-66740256D01*
X69545226Y-66551898D01*
X69556535Y-66495043D01*
X73695049Y-62356530D01*
X73728817Y-62328817D01*
X73758830Y-62292247D01*
X73839411Y-62194059D01*
X73863503Y-62148985D01*
X73921589Y-62040313D01*
X73972195Y-61873490D01*
X73985000Y-61743477D01*
X73985000Y-61743469D01*
X73989281Y-61700000D01*
X73985000Y-61656531D01*
X73985000Y-59159981D01*
X74030537Y-59104494D01*
X74089502Y-58994180D01*
X74125812Y-58874482D01*
X74138072Y-58750000D01*
X74138072Y-57850000D01*
X74125812Y-57725518D01*
X74089502Y-57605820D01*
X74030537Y-57495506D01*
X73951185Y-57398815D01*
X73854494Y-57319463D01*
X73838393Y-57310857D01*
X73923000Y-57226250D01*
X73923000Y-56427000D01*
X74177000Y-56427000D01*
X74177000Y-57226250D01*
X74335750Y-57385000D01*
X74450000Y-57388072D01*
X74574482Y-57375812D01*
X74694180Y-57339502D01*
X74804494Y-57280537D01*
X74901185Y-57201185D01*
X74980537Y-57104494D01*
X75039502Y-56994180D01*
X75075812Y-56874482D01*
X75088072Y-56750000D01*
X75085000Y-56585750D01*
X74926250Y-56427000D01*
X74177000Y-56427000D01*
X73923000Y-56427000D01*
X73903000Y-56427000D01*
X73903000Y-56173000D01*
X73923000Y-56173000D01*
X73923000Y-56153000D01*
X74177000Y-56153000D01*
X74177000Y-56173000D01*
X74926250Y-56173000D01*
X75085000Y-56014250D01*
X75088072Y-55850000D01*
X75075812Y-55725518D01*
X75039502Y-55605820D01*
X74980537Y-55495506D01*
X74901185Y-55398815D01*
X74804494Y-55319463D01*
X74694180Y-55260498D01*
X74574482Y-55224188D01*
X74450000Y-55211928D01*
X74335750Y-55215000D01*
X74177002Y-55373748D01*
X74177002Y-55274686D01*
X74185000Y-55193477D01*
X74185000Y-55193469D01*
X74189281Y-55150000D01*
X74185000Y-55106531D01*
X74185000Y-54234469D01*
X74214562Y-54137016D01*
X74320044Y-54031534D01*
X74353817Y-54003817D01*
X74464411Y-53869059D01*
X74546589Y-53715313D01*
X74597195Y-53548490D01*
X74610000Y-53418477D01*
X74610000Y-53418469D01*
X74614281Y-53375000D01*
X74610000Y-53331531D01*
X74610000Y-51826328D01*
X74728817Y-51728817D01*
X74756534Y-51695044D01*
X76388946Y-50062633D01*
X76422714Y-50034920D01*
X76466248Y-49981875D01*
X76515184Y-49922246D01*
X76533308Y-49900162D01*
X76615486Y-49746416D01*
X76666092Y-49579593D01*
X76678897Y-49449580D01*
X76678897Y-49449570D01*
X76683178Y-49406104D01*
X76678897Y-49362638D01*
X76678897Y-45635000D01*
X76751788Y-45635000D01*
X76971067Y-45591383D01*
X77177624Y-45505824D01*
X77363520Y-45381612D01*
X77521612Y-45223520D01*
X77645824Y-45037624D01*
X77731383Y-44831067D01*
X77775000Y-44611788D01*
X77775000Y-44388212D01*
X77731383Y-44168933D01*
X77645824Y-43962376D01*
X77521612Y-43776480D01*
X77363520Y-43618388D01*
X77177624Y-43494176D01*
X76971067Y-43408617D01*
X76751788Y-43365000D01*
X76539802Y-43365000D01*
X76335000Y-43160199D01*
X76335000Y-43098061D01*
X76325969Y-43052658D01*
X76498905Y-43091731D01*
X76722406Y-43097511D01*
X76942740Y-43059577D01*
X77151440Y-42979387D01*
X77203450Y-42951588D01*
X77238561Y-42738166D01*
X76640000Y-42139605D01*
X76625858Y-42153748D01*
X76446253Y-41974143D01*
X76460395Y-41960000D01*
X76819605Y-41960000D01*
X77418166Y-42558561D01*
X77631588Y-42523450D01*
X77722458Y-42319174D01*
X77771731Y-42101095D01*
X77777511Y-41877594D01*
X77739577Y-41657260D01*
X77659387Y-41448560D01*
X77631588Y-41396550D01*
X77418166Y-41361439D01*
X76819605Y-41960000D01*
X76460395Y-41960000D01*
X76446253Y-41945858D01*
X76625858Y-41766253D01*
X76640000Y-41780395D01*
X77238561Y-41181834D01*
X77203450Y-40968412D01*
X76999174Y-40877542D01*
X76790401Y-40830372D01*
X76817205Y-40790256D01*
X76895226Y-40601898D01*
X76910848Y-40523361D01*
X76971067Y-40511383D01*
X77177624Y-40425824D01*
X77363520Y-40301612D01*
X77521612Y-40143520D01*
X77645824Y-39957624D01*
X77731383Y-39751067D01*
X77775000Y-39531788D01*
X77775000Y-39308212D01*
X77731383Y-39088933D01*
X77645824Y-38882376D01*
X77521612Y-38696480D01*
X77363520Y-38538388D01*
X77177624Y-38414176D01*
X77117619Y-38389321D01*
X77135000Y-38301939D01*
X77135000Y-38098061D01*
X77099242Y-37918291D01*
X77177624Y-37885824D01*
X77363520Y-37761612D01*
X77521612Y-37603520D01*
X77645824Y-37417624D01*
X77731383Y-37211067D01*
X77775000Y-36991788D01*
X77775000Y-36768212D01*
X77731383Y-36548933D01*
X77645824Y-36342376D01*
X77521612Y-36156480D01*
X77363520Y-35998388D01*
X77177624Y-35874176D01*
X76971067Y-35788617D01*
X76751788Y-35745000D01*
X76528212Y-35745000D01*
X76476241Y-35755338D01*
X76757769Y-35473810D01*
X76971067Y-35431383D01*
X77177624Y-35345824D01*
X77363520Y-35221612D01*
X77521612Y-35063520D01*
X77645824Y-34877624D01*
X77731383Y-34671067D01*
X77775000Y-34451788D01*
X77775000Y-34228212D01*
X77731383Y-34008933D01*
X77645824Y-33802376D01*
X77521612Y-33616480D01*
X77363520Y-33458388D01*
X77177624Y-33334176D01*
X76971067Y-33248617D01*
X76751788Y-33205000D01*
X76528212Y-33205000D01*
X76308933Y-33248617D01*
X76102376Y-33334176D01*
X75916480Y-33458388D01*
X75758388Y-33616480D01*
X75634176Y-33802376D01*
X75548617Y-34008933D01*
X75506190Y-34222231D01*
X74221243Y-35507179D01*
X74244812Y-35429482D01*
X74257072Y-35305000D01*
X74257072Y-34655000D01*
X74244812Y-34530518D01*
X74208502Y-34410820D01*
X74173320Y-34345000D01*
X74208502Y-34279180D01*
X74244812Y-34159482D01*
X74257072Y-34035000D01*
X74257072Y-33385000D01*
X74244812Y-33260518D01*
X74208502Y-33140820D01*
X74173320Y-33075000D01*
X74208502Y-33009180D01*
X74244812Y-32889482D01*
X74257072Y-32765000D01*
X74257072Y-32401420D01*
X74296063Y-32459774D01*
X74440226Y-32603937D01*
X74609744Y-32717205D01*
X74798102Y-32795226D01*
X74998061Y-32835000D01*
X75201939Y-32835000D01*
X75401898Y-32795226D01*
X75590256Y-32717205D01*
X75759774Y-32603937D01*
X75799290Y-32564422D01*
X75916480Y-32681612D01*
X76102376Y-32805824D01*
X76308933Y-32891383D01*
X76528212Y-32935000D01*
X76751788Y-32935000D01*
X76971067Y-32891383D01*
X77177624Y-32805824D01*
X77363520Y-32681612D01*
X77521612Y-32523520D01*
X77645824Y-32337624D01*
X77731383Y-32131067D01*
X77775000Y-31911788D01*
X77775000Y-31688212D01*
X77731383Y-31468933D01*
X77645824Y-31262376D01*
X77521612Y-31076480D01*
X77363520Y-30918388D01*
X77177624Y-30794176D01*
X77015447Y-30727000D01*
X78340000Y-30727000D01*
X78340001Y-126726618D01*
G04 #@! TA.AperFunction,Conductor*
D22*
G36*
X78340001Y-126726618D02*
G01*
X68556139Y-136510479D01*
X68417802Y-136624109D01*
X68288623Y-136693375D01*
X68148451Y-136736230D01*
X68002623Y-136751043D01*
X67856695Y-136737248D01*
X67716222Y-136695371D01*
X67586563Y-136627010D01*
X67448982Y-136515599D01*
X57660000Y-126726620D01*
X57660000Y-51144350D01*
X57694454Y-51257932D01*
X57711059Y-51288997D01*
X57765026Y-51389961D01*
X57836201Y-51476687D01*
X57860000Y-51505686D01*
X57888998Y-51529484D01*
X58440000Y-52080487D01*
X58440001Y-56920900D01*
X58436324Y-56958232D01*
X58440001Y-56995565D01*
X58450998Y-57107218D01*
X58461173Y-57140760D01*
X58494454Y-57250478D01*
X58565026Y-57382508D01*
X58636201Y-57469234D01*
X58660000Y-57498233D01*
X58688998Y-57522031D01*
X62152974Y-60986009D01*
X62176768Y-61015002D01*
X62205761Y-61038796D01*
X62205765Y-61038800D01*
X62276454Y-61096812D01*
X62292493Y-61109975D01*
X62424522Y-61180547D01*
X62567783Y-61224004D01*
X62679436Y-61235001D01*
X62679445Y-61235001D01*
X62716768Y-61238677D01*
X62754091Y-61235001D01*
X64472679Y-61235001D01*
X64510001Y-61238677D01*
X64547323Y-61235001D01*
X64547334Y-61235001D01*
X64658987Y-61224004D01*
X64802248Y-61180547D01*
X64934277Y-61109975D01*
X65050002Y-61015002D01*
X65073805Y-60985998D01*
X65085999Y-60973804D01*
X65115002Y-60950002D01*
X65209975Y-60834277D01*
X65240440Y-60777282D01*
X65350000Y-60788072D01*
X65464250Y-60785000D01*
X65623000Y-60626250D01*
X65623000Y-59827000D01*
X65603000Y-59827000D01*
X65603000Y-59573000D01*
X65623000Y-59573000D01*
X65623000Y-58773750D01*
X65538393Y-58689143D01*
X65554494Y-58680537D01*
X65651185Y-58601185D01*
X65730537Y-58504494D01*
X65754320Y-58460000D01*
X65883662Y-58460000D01*
X65892234Y-58467036D01*
X66040082Y-58614884D01*
X66035750Y-58615000D01*
X65877000Y-58773750D01*
X65877000Y-59573000D01*
X65897000Y-59573000D01*
X65897000Y-59827000D01*
X65877000Y-59827000D01*
X65877000Y-60626250D01*
X66035750Y-60785000D01*
X66150000Y-60788072D01*
X66274482Y-60775812D01*
X66394180Y-60739502D01*
X66504494Y-60680537D01*
X66601185Y-60601185D01*
X66625000Y-60572166D01*
X66648815Y-60601185D01*
X66745506Y-60680537D01*
X66855820Y-60739502D01*
X66975518Y-60775812D01*
X67100000Y-60788072D01*
X67900000Y-60788072D01*
X68024482Y-60775812D01*
X68144180Y-60739502D01*
X68254494Y-60680537D01*
X68351185Y-60601185D01*
X68430537Y-60504494D01*
X68450000Y-60468082D01*
X68469463Y-60504494D01*
X68548815Y-60601185D01*
X68645506Y-60680537D01*
X68732933Y-60727268D01*
X68220201Y-61240000D01*
X65064320Y-61240000D01*
X65026997Y-61236324D01*
X64989674Y-61240000D01*
X64989665Y-61240000D01*
X64878012Y-61250997D01*
X64734751Y-61294454D01*
X64602722Y-61365026D01*
X64602720Y-61365027D01*
X64602721Y-61365027D01*
X64515994Y-61436201D01*
X64515990Y-61436205D01*
X64486997Y-61459999D01*
X64463203Y-61488992D01*
X62563997Y-63388200D01*
X62534999Y-63411998D01*
X62511201Y-63440996D01*
X62511200Y-63440997D01*
X62440025Y-63527723D01*
X62369453Y-63659753D01*
X62367854Y-63665026D01*
X62330249Y-63788998D01*
X62325997Y-63803014D01*
X62311323Y-63951999D01*
X62315000Y-63989332D01*
X62315000Y-66372094D01*
X61987206Y-66153068D01*
X61607918Y-65995962D01*
X61205269Y-65915870D01*
X60794731Y-65915870D01*
X60392082Y-65995962D01*
X60012794Y-66153068D01*
X59671445Y-66381151D01*
X59381151Y-66671445D01*
X59153068Y-67012794D01*
X58995962Y-67392082D01*
X58915870Y-67794731D01*
X58915870Y-68205269D01*
X58995962Y-68607918D01*
X59153068Y-68987206D01*
X59381151Y-69328555D01*
X59671445Y-69618849D01*
X60012794Y-69846932D01*
X60392082Y-70004038D01*
X60794731Y-70084130D01*
X61205269Y-70084130D01*
X61607918Y-70004038D01*
X61987206Y-69846932D01*
X62315000Y-69627906D01*
X62314999Y-81037677D01*
X62311323Y-81074999D01*
X62314999Y-81112321D01*
X62314999Y-81112331D01*
X62325996Y-81223984D01*
X62346628Y-81291999D01*
X62369453Y-81367245D01*
X62440025Y-81499275D01*
X62479870Y-81547825D01*
X62534998Y-81615000D01*
X62564002Y-81638803D01*
X63511703Y-82586504D01*
X63291999Y-82854215D01*
X62768749Y-83833146D01*
X62446534Y-84895348D01*
X62365000Y-85723175D01*
X62365001Y-126276826D01*
X62446535Y-127104653D01*
X62768750Y-128166855D01*
X63292000Y-129145786D01*
X63996175Y-130003826D01*
X64854215Y-130708001D01*
X65833146Y-131231251D01*
X66895348Y-131553466D01*
X68000000Y-131662265D01*
X69104653Y-131553466D01*
X70166855Y-131231251D01*
X71145786Y-130708001D01*
X72003826Y-130003826D01*
X72708001Y-129145786D01*
X73231251Y-128166855D01*
X73553466Y-127104653D01*
X73635000Y-126276826D01*
X73635000Y-85723174D01*
X73553466Y-84895347D01*
X73231251Y-83833145D01*
X72708001Y-82854214D01*
X72003825Y-81996174D01*
X71145785Y-81291999D01*
X70166854Y-80768749D01*
X69104652Y-80446534D01*
X68000000Y-80337735D01*
X66895347Y-80446534D01*
X65833145Y-80768749D01*
X64854214Y-81291999D01*
X64586504Y-81511703D01*
X63834999Y-80760198D01*
X63834999Y-65335000D01*
X63901939Y-65335000D01*
X64101898Y-65295226D01*
X64290256Y-65217205D01*
X64459774Y-65103937D01*
X64503711Y-65060000D01*
X68488422Y-65060000D01*
X68304957Y-65243465D01*
X68248102Y-65254774D01*
X68059744Y-65332795D01*
X67890226Y-65446063D01*
X67746063Y-65590226D01*
X67632795Y-65759744D01*
X67554774Y-65948102D01*
X67545372Y-65995372D01*
X67498102Y-66004774D01*
X67309744Y-66082795D01*
X67140226Y-66196063D01*
X66996063Y-66340226D01*
X66882795Y-66509744D01*
X66804774Y-66698102D01*
X66803667Y-66703667D01*
X66798102Y-66704774D01*
X66609744Y-66782795D01*
X66440226Y-66896063D01*
X66296063Y-67040226D01*
X66182795Y-67209744D01*
X66104774Y-67398102D01*
X66065000Y-67598061D01*
X66065000Y-67801939D01*
X66104774Y-68001898D01*
X66182795Y-68190256D01*
X66296063Y-68359774D01*
X66440226Y-68503937D01*
X66609744Y-68617205D01*
X66798102Y-68695226D01*
X66998061Y-68735000D01*
X67201939Y-68735000D01*
X67401898Y-68695226D01*
X67590256Y-68617205D01*
X67759774Y-68503937D01*
X67903937Y-68359774D01*
X68017205Y-68190256D01*
X68095226Y-68001898D01*
X68096333Y-67996333D01*
X68101898Y-67995226D01*
X68290256Y-67917205D01*
X68459774Y-67803937D01*
X68468980Y-67794731D01*
X72915870Y-67794731D01*
X72915870Y-68205269D01*
X72995962Y-68607918D01*
X73153068Y-68987206D01*
X73381151Y-69328555D01*
X73671445Y-69618849D01*
X74012794Y-69846932D01*
X74392082Y-70004038D01*
X74794731Y-70084130D01*
X75205269Y-70084130D01*
X75607918Y-70004038D01*
X75987206Y-69846932D01*
X76328555Y-69618849D01*
X76618849Y-69328555D01*
X76846932Y-68987206D01*
X77004038Y-68607918D01*
X77084130Y-68205269D01*
X77084130Y-67794731D01*
X77004038Y-67392082D01*
X76846932Y-67012794D01*
X76618849Y-66671445D01*
X76328555Y-66381151D01*
X75987206Y-66153068D01*
X75607918Y-65995962D01*
X75205269Y-65915870D01*
X74794731Y-65915870D01*
X74392082Y-65995962D01*
X74012794Y-66153068D01*
X73671445Y-66381151D01*
X73381151Y-66671445D01*
X73153068Y-67012794D01*
X72995962Y-67392082D01*
X72915870Y-67794731D01*
X68468980Y-67794731D01*
X68603937Y-67659774D01*
X68717205Y-67490256D01*
X68795226Y-67301898D01*
X68804628Y-67254628D01*
X68851898Y-67245226D01*
X69040256Y-67167205D01*
X69209774Y-67053937D01*
X69353937Y-66909774D01*
X69467205Y-66740256D01*
X69545226Y-66551898D01*
X69556535Y-66495043D01*
X73695049Y-62356530D01*
X73728817Y-62328817D01*
X73758830Y-62292247D01*
X73839411Y-62194059D01*
X73863503Y-62148985D01*
X73921589Y-62040313D01*
X73972195Y-61873490D01*
X73985000Y-61743477D01*
X73985000Y-61743469D01*
X73989281Y-61700000D01*
X73985000Y-61656531D01*
X73985000Y-59159981D01*
X74030537Y-59104494D01*
X74089502Y-58994180D01*
X74125812Y-58874482D01*
X74138072Y-58750000D01*
X74138072Y-57850000D01*
X74125812Y-57725518D01*
X74089502Y-57605820D01*
X74030537Y-57495506D01*
X73951185Y-57398815D01*
X73854494Y-57319463D01*
X73838393Y-57310857D01*
X73923000Y-57226250D01*
X73923000Y-56427000D01*
X74177000Y-56427000D01*
X74177000Y-57226250D01*
X74335750Y-57385000D01*
X74450000Y-57388072D01*
X74574482Y-57375812D01*
X74694180Y-57339502D01*
X74804494Y-57280537D01*
X74901185Y-57201185D01*
X74980537Y-57104494D01*
X75039502Y-56994180D01*
X75075812Y-56874482D01*
X75088072Y-56750000D01*
X75085000Y-56585750D01*
X74926250Y-56427000D01*
X74177000Y-56427000D01*
X73923000Y-56427000D01*
X73903000Y-56427000D01*
X73903000Y-56173000D01*
X73923000Y-56173000D01*
X73923000Y-56153000D01*
X74177000Y-56153000D01*
X74177000Y-56173000D01*
X74926250Y-56173000D01*
X75085000Y-56014250D01*
X75088072Y-55850000D01*
X75075812Y-55725518D01*
X75039502Y-55605820D01*
X74980537Y-55495506D01*
X74901185Y-55398815D01*
X74804494Y-55319463D01*
X74694180Y-55260498D01*
X74574482Y-55224188D01*
X74450000Y-55211928D01*
X74335750Y-55215000D01*
X74177002Y-55373748D01*
X74177002Y-55274686D01*
X74185000Y-55193477D01*
X74185000Y-55193469D01*
X74189281Y-55150000D01*
X74185000Y-55106531D01*
X74185000Y-54234469D01*
X74214562Y-54137016D01*
X74320044Y-54031534D01*
X74353817Y-54003817D01*
X74464411Y-53869059D01*
X74546589Y-53715313D01*
X74597195Y-53548490D01*
X74610000Y-53418477D01*
X74610000Y-53418469D01*
X74614281Y-53375000D01*
X74610000Y-53331531D01*
X74610000Y-51826328D01*
X74728817Y-51728817D01*
X74756534Y-51695044D01*
X76388946Y-50062633D01*
X76422714Y-50034920D01*
X76466248Y-49981875D01*
X76515184Y-49922246D01*
X76533308Y-49900162D01*
X76615486Y-49746416D01*
X76666092Y-49579593D01*
X76678897Y-49449580D01*
X76678897Y-49449570D01*
X76683178Y-49406104D01*
X76678897Y-49362638D01*
X76678897Y-45635000D01*
X76751788Y-45635000D01*
X76971067Y-45591383D01*
X77177624Y-45505824D01*
X77363520Y-45381612D01*
X77521612Y-45223520D01*
X77645824Y-45037624D01*
X77731383Y-44831067D01*
X77775000Y-44611788D01*
X77775000Y-44388212D01*
X77731383Y-44168933D01*
X77645824Y-43962376D01*
X77521612Y-43776480D01*
X77363520Y-43618388D01*
X77177624Y-43494176D01*
X76971067Y-43408617D01*
X76751788Y-43365000D01*
X76539802Y-43365000D01*
X76335000Y-43160199D01*
X76335000Y-43098061D01*
X76325969Y-43052658D01*
X76498905Y-43091731D01*
X76722406Y-43097511D01*
X76942740Y-43059577D01*
X77151440Y-42979387D01*
X77203450Y-42951588D01*
X77238561Y-42738166D01*
X76640000Y-42139605D01*
X76625858Y-42153748D01*
X76446253Y-41974143D01*
X76460395Y-41960000D01*
X76819605Y-41960000D01*
X77418166Y-42558561D01*
X77631588Y-42523450D01*
X77722458Y-42319174D01*
X77771731Y-42101095D01*
X77777511Y-41877594D01*
X77739577Y-41657260D01*
X77659387Y-41448560D01*
X77631588Y-41396550D01*
X77418166Y-41361439D01*
X76819605Y-41960000D01*
X76460395Y-41960000D01*
X76446253Y-41945858D01*
X76625858Y-41766253D01*
X76640000Y-41780395D01*
X77238561Y-41181834D01*
X77203450Y-40968412D01*
X76999174Y-40877542D01*
X76790401Y-40830372D01*
X76817205Y-40790256D01*
X76895226Y-40601898D01*
X76910848Y-40523361D01*
X76971067Y-40511383D01*
X77177624Y-40425824D01*
X77363520Y-40301612D01*
X77521612Y-40143520D01*
X77645824Y-39957624D01*
X77731383Y-39751067D01*
X77775000Y-39531788D01*
X77775000Y-39308212D01*
X77731383Y-39088933D01*
X77645824Y-38882376D01*
X77521612Y-38696480D01*
X77363520Y-38538388D01*
X77177624Y-38414176D01*
X77117619Y-38389321D01*
X77135000Y-38301939D01*
X77135000Y-38098061D01*
X77099242Y-37918291D01*
X77177624Y-37885824D01*
X77363520Y-37761612D01*
X77521612Y-37603520D01*
X77645824Y-37417624D01*
X77731383Y-37211067D01*
X77775000Y-36991788D01*
X77775000Y-36768212D01*
X77731383Y-36548933D01*
X77645824Y-36342376D01*
X77521612Y-36156480D01*
X77363520Y-35998388D01*
X77177624Y-35874176D01*
X76971067Y-35788617D01*
X76751788Y-35745000D01*
X76528212Y-35745000D01*
X76476241Y-35755338D01*
X76757769Y-35473810D01*
X76971067Y-35431383D01*
X77177624Y-35345824D01*
X77363520Y-35221612D01*
X77521612Y-35063520D01*
X77645824Y-34877624D01*
X77731383Y-34671067D01*
X77775000Y-34451788D01*
X77775000Y-34228212D01*
X77731383Y-34008933D01*
X77645824Y-33802376D01*
X77521612Y-33616480D01*
X77363520Y-33458388D01*
X77177624Y-33334176D01*
X76971067Y-33248617D01*
X76751788Y-33205000D01*
X76528212Y-33205000D01*
X76308933Y-33248617D01*
X76102376Y-33334176D01*
X75916480Y-33458388D01*
X75758388Y-33616480D01*
X75634176Y-33802376D01*
X75548617Y-34008933D01*
X75506190Y-34222231D01*
X74221243Y-35507179D01*
X74244812Y-35429482D01*
X74257072Y-35305000D01*
X74257072Y-34655000D01*
X74244812Y-34530518D01*
X74208502Y-34410820D01*
X74173320Y-34345000D01*
X74208502Y-34279180D01*
X74244812Y-34159482D01*
X74257072Y-34035000D01*
X74257072Y-33385000D01*
X74244812Y-33260518D01*
X74208502Y-33140820D01*
X74173320Y-33075000D01*
X74208502Y-33009180D01*
X74244812Y-32889482D01*
X74257072Y-32765000D01*
X74257072Y-32401420D01*
X74296063Y-32459774D01*
X74440226Y-32603937D01*
X74609744Y-32717205D01*
X74798102Y-32795226D01*
X74998061Y-32835000D01*
X75201939Y-32835000D01*
X75401898Y-32795226D01*
X75590256Y-32717205D01*
X75759774Y-32603937D01*
X75799290Y-32564422D01*
X75916480Y-32681612D01*
X76102376Y-32805824D01*
X76308933Y-32891383D01*
X76528212Y-32935000D01*
X76751788Y-32935000D01*
X76971067Y-32891383D01*
X77177624Y-32805824D01*
X77363520Y-32681612D01*
X77521612Y-32523520D01*
X77645824Y-32337624D01*
X77731383Y-32131067D01*
X77775000Y-31911788D01*
X77775000Y-31688212D01*
X77731383Y-31468933D01*
X77645824Y-31262376D01*
X77521612Y-31076480D01*
X77363520Y-30918388D01*
X77177624Y-30794176D01*
X77015447Y-30727000D01*
X78340000Y-30727000D01*
X78340001Y-126726618D01*
G37*
G04 #@! TD.AperFunction*
D21*
X70189990Y-58748594D02*
X70154494Y-58719463D01*
X70044180Y-58660498D01*
X69924482Y-58624188D01*
X69800000Y-58611928D01*
X69685750Y-58615000D01*
X69527000Y-58773750D01*
X69527000Y-59573000D01*
X69547000Y-59573000D01*
X69547000Y-59827000D01*
X69527000Y-59827000D01*
X69527000Y-59847000D01*
X69273000Y-59847000D01*
X69273000Y-59827000D01*
X69253000Y-59827000D01*
X69253000Y-59573000D01*
X69273000Y-59573000D01*
X69273000Y-58773750D01*
X69188393Y-58689143D01*
X69204494Y-58680537D01*
X69301185Y-58601185D01*
X69380537Y-58504494D01*
X69439502Y-58394180D01*
X69444532Y-58377599D01*
X69524276Y-58334974D01*
X69640001Y-58240001D01*
X69663803Y-58210998D01*
X70189991Y-57684812D01*
X70189990Y-58748594D01*
G04 #@! TA.AperFunction,Conductor*
D22*
G36*
X70189990Y-58748594D02*
G01*
X70154494Y-58719463D01*
X70044180Y-58660498D01*
X69924482Y-58624188D01*
X69800000Y-58611928D01*
X69685750Y-58615000D01*
X69527000Y-58773750D01*
X69527000Y-59573000D01*
X69547000Y-59573000D01*
X69547000Y-59827000D01*
X69527000Y-59827000D01*
X69527000Y-59847000D01*
X69273000Y-59847000D01*
X69273000Y-59827000D01*
X69253000Y-59827000D01*
X69253000Y-59573000D01*
X69273000Y-59573000D01*
X69273000Y-58773750D01*
X69188393Y-58689143D01*
X69204494Y-58680537D01*
X69301185Y-58601185D01*
X69380537Y-58504494D01*
X69439502Y-58394180D01*
X69444532Y-58377599D01*
X69524276Y-58334974D01*
X69640001Y-58240001D01*
X69663803Y-58210998D01*
X70189991Y-57684812D01*
X70189990Y-58748594D01*
G37*
G04 #@! TD.AperFunction*
D21*
X67667126Y-55341928D02*
X67637500Y-55341928D01*
X67484243Y-55357023D01*
X67336875Y-55401726D01*
X67300000Y-55421436D01*
X67263125Y-55401726D01*
X67115757Y-55357023D01*
X66962500Y-55341928D01*
X66667500Y-55341928D01*
X66514243Y-55357023D01*
X66366875Y-55401726D01*
X66231060Y-55474321D01*
X66151030Y-55540000D01*
X65435255Y-55540000D01*
X65435000Y-55523250D01*
X65276250Y-55364500D01*
X64227000Y-55364500D01*
X64227000Y-55384500D01*
X63973000Y-55384500D01*
X63973000Y-55364500D01*
X63953000Y-55364500D01*
X63953000Y-55110500D01*
X63973000Y-55110500D01*
X63973000Y-55090500D01*
X64227000Y-55090500D01*
X64227000Y-55110500D01*
X65251562Y-55110500D01*
X65305820Y-55139502D01*
X65425518Y-55175812D01*
X65550000Y-55188072D01*
X66850000Y-55188072D01*
X66974482Y-55175812D01*
X67094180Y-55139502D01*
X67204494Y-55080537D01*
X67301185Y-55001185D01*
X67312543Y-54987345D01*
X67667126Y-55341928D01*
G04 #@! TA.AperFunction,Conductor*
D22*
G36*
X67667126Y-55341928D02*
G01*
X67637500Y-55341928D01*
X67484243Y-55357023D01*
X67336875Y-55401726D01*
X67300000Y-55421436D01*
X67263125Y-55401726D01*
X67115757Y-55357023D01*
X66962500Y-55341928D01*
X66667500Y-55341928D01*
X66514243Y-55357023D01*
X66366875Y-55401726D01*
X66231060Y-55474321D01*
X66151030Y-55540000D01*
X65435255Y-55540000D01*
X65435000Y-55523250D01*
X65276250Y-55364500D01*
X64227000Y-55364500D01*
X64227000Y-55384500D01*
X63973000Y-55384500D01*
X63973000Y-55364500D01*
X63953000Y-55364500D01*
X63953000Y-55110500D01*
X63973000Y-55110500D01*
X63973000Y-55090500D01*
X64227000Y-55090500D01*
X64227000Y-55110500D01*
X65251562Y-55110500D01*
X65305820Y-55139502D01*
X65425518Y-55175812D01*
X65550000Y-55188072D01*
X66850000Y-55188072D01*
X66974482Y-55175812D01*
X67094180Y-55139502D01*
X67204494Y-55080537D01*
X67301185Y-55001185D01*
X67312543Y-54987345D01*
X67667126Y-55341928D01*
G37*
G04 #@! TD.AperFunction*
D21*
X69027000Y-44946000D02*
X69007000Y-44946000D01*
X69007000Y-45795250D01*
X69165750Y-45954000D01*
X69205000Y-45957072D01*
X69265001Y-45951163D01*
X69265001Y-47006521D01*
X69260719Y-47050000D01*
X69277805Y-47223490D01*
X69328412Y-47390313D01*
X69410590Y-47544059D01*
X69493468Y-47645046D01*
X69493471Y-47645049D01*
X69521184Y-47678817D01*
X69554952Y-47706530D01*
X69760438Y-47912016D01*
X69801726Y-48048125D01*
X69821436Y-48085000D01*
X69801726Y-48121875D01*
X69757023Y-48269243D01*
X69741928Y-48422500D01*
X69741928Y-48717500D01*
X69757023Y-48870757D01*
X69801726Y-49018125D01*
X69874321Y-49153940D01*
X69972017Y-49272983D01*
X70065120Y-49349391D01*
X70159999Y-49465001D01*
X70189001Y-49488802D01*
X70970038Y-50269840D01*
X70975870Y-50329052D01*
X71017159Y-50465164D01*
X71072334Y-50568389D01*
X71017250Y-50665119D01*
X70977747Y-50783801D01*
X70965000Y-50893250D01*
X71123750Y-51052000D01*
X71748000Y-51052000D01*
X71748000Y-50953000D01*
X71811928Y-50953000D01*
X71811928Y-51225000D01*
X71827551Y-51383622D01*
X71873819Y-51536149D01*
X71948955Y-51676719D01*
X72002000Y-51741354D01*
X72002000Y-51751250D01*
X72047288Y-51796538D01*
X72050071Y-51799929D01*
X72053462Y-51802712D01*
X72160750Y-51910000D01*
X72186959Y-51908356D01*
X72313851Y-51976181D01*
X72466378Y-52022449D01*
X72625000Y-52038072D01*
X72840000Y-52038072D01*
X72840001Y-52881647D01*
X72749482Y-52854188D01*
X72625000Y-52841928D01*
X72615750Y-52845000D01*
X72457000Y-53003750D01*
X72457000Y-53270237D01*
X72426726Y-53326875D01*
X72382023Y-53474243D01*
X72366928Y-53627500D01*
X72366928Y-53972500D01*
X72382023Y-54125757D01*
X72415001Y-54234471D01*
X72415000Y-54783421D01*
X72160000Y-55038421D01*
X72160000Y-54837333D01*
X72163677Y-54800000D01*
X72149003Y-54651014D01*
X72148824Y-54650426D01*
X72203000Y-54596250D01*
X72203000Y-53927000D01*
X71558750Y-53927000D01*
X71444995Y-54040755D01*
X71437333Y-54040000D01*
X71400000Y-54036323D01*
X71362667Y-54040000D01*
X70988072Y-54040000D01*
X70988072Y-53480000D01*
X71396928Y-53480000D01*
X71400000Y-53514250D01*
X71558750Y-53673000D01*
X72203000Y-53673000D01*
X72203000Y-53003750D01*
X72044250Y-52845000D01*
X72035000Y-52841928D01*
X71910518Y-52854188D01*
X71790820Y-52890498D01*
X71680506Y-52949463D01*
X71583815Y-53028815D01*
X71504463Y-53125506D01*
X71445498Y-53235820D01*
X71409188Y-53355518D01*
X71396928Y-53480000D01*
X70988072Y-53480000D01*
X70988072Y-52850000D01*
X70975812Y-52725518D01*
X70939502Y-52605820D01*
X70880537Y-52495506D01*
X70801185Y-52398815D01*
X70704494Y-52319463D01*
X70594180Y-52260498D01*
X70474482Y-52224188D01*
X70460000Y-52222762D01*
X70460000Y-51837322D01*
X70463676Y-51799999D01*
X70460000Y-51762676D01*
X70460000Y-51762667D01*
X70449003Y-51651014D01*
X70405546Y-51507753D01*
X70334974Y-51375724D01*
X70278369Y-51306750D01*
X70965000Y-51306750D01*
X70977747Y-51416199D01*
X71017250Y-51534881D01*
X71079147Y-51643576D01*
X71161061Y-51738108D01*
X71259843Y-51814842D01*
X71371697Y-51870830D01*
X71492324Y-51903921D01*
X71589250Y-51910000D01*
X71748000Y-51751250D01*
X71748000Y-51148000D01*
X71123750Y-51148000D01*
X70965000Y-51306750D01*
X70278369Y-51306750D01*
X70258072Y-51282019D01*
X70258072Y-51252500D01*
X70242977Y-51099243D01*
X70205688Y-50976316D01*
X70209502Y-50969180D01*
X70245812Y-50849482D01*
X70258072Y-50725000D01*
X70255000Y-50715750D01*
X70096250Y-50557000D01*
X69829763Y-50557000D01*
X69773125Y-50526726D01*
X69625757Y-50482023D01*
X69472500Y-50466928D01*
X69127500Y-50466928D01*
X68974243Y-50482023D01*
X68826875Y-50526726D01*
X68770237Y-50557000D01*
X68529763Y-50557000D01*
X68473125Y-50526726D01*
X68325757Y-50482023D01*
X68172500Y-50466928D01*
X67853000Y-50466928D01*
X67853000Y-50303000D01*
X67873000Y-50303000D01*
X67873000Y-50283000D01*
X68127000Y-50283000D01*
X68127000Y-50303000D01*
X69173000Y-50303000D01*
X69173000Y-49658750D01*
X69427000Y-49658750D01*
X69427000Y-50303000D01*
X70096250Y-50303000D01*
X70255000Y-50144250D01*
X70258072Y-50135000D01*
X70245812Y-50010518D01*
X70209502Y-49890820D01*
X70150537Y-49780506D01*
X70071185Y-49683815D01*
X69974494Y-49604463D01*
X69864180Y-49545498D01*
X69744482Y-49509188D01*
X69620000Y-49496928D01*
X69585750Y-49500000D01*
X69427000Y-49658750D01*
X69173000Y-49658750D01*
X69014250Y-49500000D01*
X68980000Y-49496928D01*
X68855518Y-49509188D01*
X68735820Y-49545498D01*
X68650000Y-49591370D01*
X68564180Y-49545498D01*
X68444482Y-49509188D01*
X68320000Y-49496928D01*
X68285750Y-49500000D01*
X68127002Y-49658748D01*
X68127002Y-49583990D01*
X68134974Y-49574276D01*
X68167923Y-49512634D01*
X68244180Y-49489502D01*
X68354494Y-49430537D01*
X68451185Y-49351185D01*
X68530537Y-49254494D01*
X68589502Y-49144180D01*
X68625812Y-49024482D01*
X68638072Y-48900000D01*
X68638072Y-47100000D01*
X68625812Y-46975518D01*
X68589502Y-46855820D01*
X68530537Y-46745506D01*
X68451185Y-46648815D01*
X68354494Y-46569463D01*
X68244180Y-46510498D01*
X68124482Y-46474188D01*
X68000000Y-46461928D01*
X67436729Y-46461928D01*
X67238802Y-46264001D01*
X67215000Y-46234998D01*
X67099275Y-46140025D01*
X66967246Y-46069453D01*
X66823985Y-46025996D01*
X66712332Y-46014999D01*
X66712321Y-46014999D01*
X66674999Y-46011323D01*
X66637677Y-46014999D01*
X65895801Y-46014999D01*
X65797352Y-45916550D01*
X65890518Y-45944812D01*
X66015000Y-45957072D01*
X66665000Y-45957072D01*
X66789482Y-45944812D01*
X66909180Y-45908502D01*
X66975000Y-45873320D01*
X67040820Y-45908502D01*
X67160518Y-45944812D01*
X67285000Y-45957072D01*
X67935000Y-45957072D01*
X68059482Y-45944812D01*
X68179180Y-45908502D01*
X68245000Y-45873320D01*
X68310820Y-45908502D01*
X68430518Y-45944812D01*
X68555000Y-45957072D01*
X68594250Y-45954000D01*
X68753000Y-45795250D01*
X68753000Y-44946000D01*
X68733000Y-44946000D01*
X68733000Y-44753999D01*
X69027000Y-44753999D01*
X69027000Y-44946000D01*
G04 #@! TA.AperFunction,Conductor*
D22*
G36*
X69027000Y-44946000D02*
G01*
X69007000Y-44946000D01*
X69007000Y-45795250D01*
X69165750Y-45954000D01*
X69205000Y-45957072D01*
X69265001Y-45951163D01*
X69265001Y-47006521D01*
X69260719Y-47050000D01*
X69277805Y-47223490D01*
X69328412Y-47390313D01*
X69410590Y-47544059D01*
X69493468Y-47645046D01*
X69493471Y-47645049D01*
X69521184Y-47678817D01*
X69554952Y-47706530D01*
X69760438Y-47912016D01*
X69801726Y-48048125D01*
X69821436Y-48085000D01*
X69801726Y-48121875D01*
X69757023Y-48269243D01*
X69741928Y-48422500D01*
X69741928Y-48717500D01*
X69757023Y-48870757D01*
X69801726Y-49018125D01*
X69874321Y-49153940D01*
X69972017Y-49272983D01*
X70065120Y-49349391D01*
X70159999Y-49465001D01*
X70189001Y-49488802D01*
X70970038Y-50269840D01*
X70975870Y-50329052D01*
X71017159Y-50465164D01*
X71072334Y-50568389D01*
X71017250Y-50665119D01*
X70977747Y-50783801D01*
X70965000Y-50893250D01*
X71123750Y-51052000D01*
X71748000Y-51052000D01*
X71748000Y-50953000D01*
X71811928Y-50953000D01*
X71811928Y-51225000D01*
X71827551Y-51383622D01*
X71873819Y-51536149D01*
X71948955Y-51676719D01*
X72002000Y-51741354D01*
X72002000Y-51751250D01*
X72047288Y-51796538D01*
X72050071Y-51799929D01*
X72053462Y-51802712D01*
X72160750Y-51910000D01*
X72186959Y-51908356D01*
X72313851Y-51976181D01*
X72466378Y-52022449D01*
X72625000Y-52038072D01*
X72840000Y-52038072D01*
X72840001Y-52881647D01*
X72749482Y-52854188D01*
X72625000Y-52841928D01*
X72615750Y-52845000D01*
X72457000Y-53003750D01*
X72457000Y-53270237D01*
X72426726Y-53326875D01*
X72382023Y-53474243D01*
X72366928Y-53627500D01*
X72366928Y-53972500D01*
X72382023Y-54125757D01*
X72415001Y-54234471D01*
X72415000Y-54783421D01*
X72160000Y-55038421D01*
X72160000Y-54837333D01*
X72163677Y-54800000D01*
X72149003Y-54651014D01*
X72148824Y-54650426D01*
X72203000Y-54596250D01*
X72203000Y-53927000D01*
X71558750Y-53927000D01*
X71444995Y-54040755D01*
X71437333Y-54040000D01*
X71400000Y-54036323D01*
X71362667Y-54040000D01*
X70988072Y-54040000D01*
X70988072Y-53480000D01*
X71396928Y-53480000D01*
X71400000Y-53514250D01*
X71558750Y-53673000D01*
X72203000Y-53673000D01*
X72203000Y-53003750D01*
X72044250Y-52845000D01*
X72035000Y-52841928D01*
X71910518Y-52854188D01*
X71790820Y-52890498D01*
X71680506Y-52949463D01*
X71583815Y-53028815D01*
X71504463Y-53125506D01*
X71445498Y-53235820D01*
X71409188Y-53355518D01*
X71396928Y-53480000D01*
X70988072Y-53480000D01*
X70988072Y-52850000D01*
X70975812Y-52725518D01*
X70939502Y-52605820D01*
X70880537Y-52495506D01*
X70801185Y-52398815D01*
X70704494Y-52319463D01*
X70594180Y-52260498D01*
X70474482Y-52224188D01*
X70460000Y-52222762D01*
X70460000Y-51837322D01*
X70463676Y-51799999D01*
X70460000Y-51762676D01*
X70460000Y-51762667D01*
X70449003Y-51651014D01*
X70405546Y-51507753D01*
X70334974Y-51375724D01*
X70278369Y-51306750D01*
X70965000Y-51306750D01*
X70977747Y-51416199D01*
X71017250Y-51534881D01*
X71079147Y-51643576D01*
X71161061Y-51738108D01*
X71259843Y-51814842D01*
X71371697Y-51870830D01*
X71492324Y-51903921D01*
X71589250Y-51910000D01*
X71748000Y-51751250D01*
X71748000Y-51148000D01*
X71123750Y-51148000D01*
X70965000Y-51306750D01*
X70278369Y-51306750D01*
X70258072Y-51282019D01*
X70258072Y-51252500D01*
X70242977Y-51099243D01*
X70205688Y-50976316D01*
X70209502Y-50969180D01*
X70245812Y-50849482D01*
X70258072Y-50725000D01*
X70255000Y-50715750D01*
X70096250Y-50557000D01*
X69829763Y-50557000D01*
X69773125Y-50526726D01*
X69625757Y-50482023D01*
X69472500Y-50466928D01*
X69127500Y-50466928D01*
X68974243Y-50482023D01*
X68826875Y-50526726D01*
X68770237Y-50557000D01*
X68529763Y-50557000D01*
X68473125Y-50526726D01*
X68325757Y-50482023D01*
X68172500Y-50466928D01*
X67853000Y-50466928D01*
X67853000Y-50303000D01*
X67873000Y-50303000D01*
X67873000Y-50283000D01*
X68127000Y-50283000D01*
X68127000Y-50303000D01*
X69173000Y-50303000D01*
X69173000Y-49658750D01*
X69427000Y-49658750D01*
X69427000Y-50303000D01*
X70096250Y-50303000D01*
X70255000Y-50144250D01*
X70258072Y-50135000D01*
X70245812Y-50010518D01*
X70209502Y-49890820D01*
X70150537Y-49780506D01*
X70071185Y-49683815D01*
X69974494Y-49604463D01*
X69864180Y-49545498D01*
X69744482Y-49509188D01*
X69620000Y-49496928D01*
X69585750Y-49500000D01*
X69427000Y-49658750D01*
X69173000Y-49658750D01*
X69014250Y-49500000D01*
X68980000Y-49496928D01*
X68855518Y-49509188D01*
X68735820Y-49545498D01*
X68650000Y-49591370D01*
X68564180Y-49545498D01*
X68444482Y-49509188D01*
X68320000Y-49496928D01*
X68285750Y-49500000D01*
X68127002Y-49658748D01*
X68127002Y-49583990D01*
X68134974Y-49574276D01*
X68167923Y-49512634D01*
X68244180Y-49489502D01*
X68354494Y-49430537D01*
X68451185Y-49351185D01*
X68530537Y-49254494D01*
X68589502Y-49144180D01*
X68625812Y-49024482D01*
X68638072Y-48900000D01*
X68638072Y-47100000D01*
X68625812Y-46975518D01*
X68589502Y-46855820D01*
X68530537Y-46745506D01*
X68451185Y-46648815D01*
X68354494Y-46569463D01*
X68244180Y-46510498D01*
X68124482Y-46474188D01*
X68000000Y-46461928D01*
X67436729Y-46461928D01*
X67238802Y-46264001D01*
X67215000Y-46234998D01*
X67099275Y-46140025D01*
X66967246Y-46069453D01*
X66823985Y-46025996D01*
X66712332Y-46014999D01*
X66712321Y-46014999D01*
X66674999Y-46011323D01*
X66637677Y-46014999D01*
X65895801Y-46014999D01*
X65797352Y-45916550D01*
X65890518Y-45944812D01*
X66015000Y-45957072D01*
X66665000Y-45957072D01*
X66789482Y-45944812D01*
X66909180Y-45908502D01*
X66975000Y-45873320D01*
X67040820Y-45908502D01*
X67160518Y-45944812D01*
X67285000Y-45957072D01*
X67935000Y-45957072D01*
X68059482Y-45944812D01*
X68179180Y-45908502D01*
X68245000Y-45873320D01*
X68310820Y-45908502D01*
X68430518Y-45944812D01*
X68555000Y-45957072D01*
X68594250Y-45954000D01*
X68753000Y-45795250D01*
X68753000Y-44946000D01*
X68733000Y-44946000D01*
X68733000Y-44753999D01*
X69027000Y-44753999D01*
X69027000Y-44946000D01*
G37*
G04 #@! TD.AperFunction*
D21*
X63861928Y-47536731D02*
X63861928Y-48900000D01*
X63874188Y-49024482D01*
X63910498Y-49144180D01*
X63969463Y-49254494D01*
X64040000Y-49340444D01*
X64040000Y-49766029D01*
X63974321Y-49846060D01*
X63901726Y-49981875D01*
X63857023Y-50129243D01*
X63841928Y-50282500D01*
X63841928Y-50577500D01*
X63857023Y-50730757D01*
X63894312Y-50853684D01*
X63890498Y-50860820D01*
X63854188Y-50980518D01*
X63841928Y-51105000D01*
X63845000Y-51114250D01*
X64003750Y-51273000D01*
X64270237Y-51273000D01*
X64326875Y-51303274D01*
X64474243Y-51347977D01*
X64627500Y-51363072D01*
X64972500Y-51363072D01*
X65125757Y-51347977D01*
X65273125Y-51303274D01*
X65329763Y-51273000D01*
X65670237Y-51273000D01*
X65726875Y-51303274D01*
X65874243Y-51347977D01*
X66027500Y-51363072D01*
X66347000Y-51363072D01*
X66347000Y-51527000D01*
X66327000Y-51527000D01*
X66327000Y-51547000D01*
X66073000Y-51547000D01*
X66073000Y-51527000D01*
X64927000Y-51527000D01*
X64927000Y-51547000D01*
X64673000Y-51547000D01*
X64673000Y-51527000D01*
X64003750Y-51527000D01*
X63845000Y-51685750D01*
X63841928Y-51695000D01*
X63854188Y-51819482D01*
X63890498Y-51939180D01*
X63949463Y-52049494D01*
X64028815Y-52146185D01*
X64125506Y-52225537D01*
X64146817Y-52236928D01*
X63643750Y-52236928D01*
X63471715Y-52253872D01*
X63306291Y-52304053D01*
X63153836Y-52385542D01*
X63112704Y-52419299D01*
X63110000Y-52285750D01*
X62951250Y-52127000D01*
X62127000Y-52127000D01*
X62127000Y-52913750D01*
X62169225Y-52955975D01*
X61973998Y-53151201D01*
X61945000Y-53174999D01*
X61921202Y-53203997D01*
X61921201Y-53203998D01*
X61850026Y-53290724D01*
X61779454Y-53422754D01*
X61776996Y-53430858D01*
X61770414Y-53452557D01*
X61662500Y-53441928D01*
X61631730Y-53441928D01*
X61099865Y-52910064D01*
X61170506Y-52968037D01*
X61280820Y-53027002D01*
X61400518Y-53063312D01*
X61525000Y-53075572D01*
X61714250Y-53072500D01*
X61873000Y-52913750D01*
X61873000Y-52127000D01*
X61853000Y-52127000D01*
X61853000Y-51873000D01*
X61873000Y-51873000D01*
X61873000Y-51853000D01*
X62127000Y-51853000D01*
X62127000Y-51873000D01*
X62951250Y-51873000D01*
X63110000Y-51714250D01*
X63113072Y-51562500D01*
X63100812Y-51438018D01*
X63064502Y-51318320D01*
X63005537Y-51208006D01*
X62950900Y-51141430D01*
X62968671Y-51119775D01*
X63047850Y-50971642D01*
X63096608Y-50810908D01*
X63113072Y-50643750D01*
X63113072Y-50206250D01*
X63096608Y-50039092D01*
X63047850Y-49878358D01*
X62968671Y-49730225D01*
X62862115Y-49600385D01*
X62760000Y-49516582D01*
X62760000Y-48633970D01*
X62825679Y-48553940D01*
X62898274Y-48418125D01*
X62942977Y-48270757D01*
X62958072Y-48117500D01*
X62958072Y-47822500D01*
X62942977Y-47669243D01*
X62898274Y-47521875D01*
X62878564Y-47485000D01*
X62898274Y-47448125D01*
X62942977Y-47300757D01*
X62958072Y-47147500D01*
X62958072Y-46852500D01*
X62942977Y-46699243D01*
X62907505Y-46582307D01*
X63861928Y-47536731D01*
G04 #@! TA.AperFunction,Conductor*
D22*
G36*
X63861928Y-47536731D02*
G01*
X63861928Y-48900000D01*
X63874188Y-49024482D01*
X63910498Y-49144180D01*
X63969463Y-49254494D01*
X64040000Y-49340444D01*
X64040000Y-49766029D01*
X63974321Y-49846060D01*
X63901726Y-49981875D01*
X63857023Y-50129243D01*
X63841928Y-50282500D01*
X63841928Y-50577500D01*
X63857023Y-50730757D01*
X63894312Y-50853684D01*
X63890498Y-50860820D01*
X63854188Y-50980518D01*
X63841928Y-51105000D01*
X63845000Y-51114250D01*
X64003750Y-51273000D01*
X64270237Y-51273000D01*
X64326875Y-51303274D01*
X64474243Y-51347977D01*
X64627500Y-51363072D01*
X64972500Y-51363072D01*
X65125757Y-51347977D01*
X65273125Y-51303274D01*
X65329763Y-51273000D01*
X65670237Y-51273000D01*
X65726875Y-51303274D01*
X65874243Y-51347977D01*
X66027500Y-51363072D01*
X66347000Y-51363072D01*
X66347000Y-51527000D01*
X66327000Y-51527000D01*
X66327000Y-51547000D01*
X66073000Y-51547000D01*
X66073000Y-51527000D01*
X64927000Y-51527000D01*
X64927000Y-51547000D01*
X64673000Y-51547000D01*
X64673000Y-51527000D01*
X64003750Y-51527000D01*
X63845000Y-51685750D01*
X63841928Y-51695000D01*
X63854188Y-51819482D01*
X63890498Y-51939180D01*
X63949463Y-52049494D01*
X64028815Y-52146185D01*
X64125506Y-52225537D01*
X64146817Y-52236928D01*
X63643750Y-52236928D01*
X63471715Y-52253872D01*
X63306291Y-52304053D01*
X63153836Y-52385542D01*
X63112704Y-52419299D01*
X63110000Y-52285750D01*
X62951250Y-52127000D01*
X62127000Y-52127000D01*
X62127000Y-52913750D01*
X62169225Y-52955975D01*
X61973998Y-53151201D01*
X61945000Y-53174999D01*
X61921202Y-53203997D01*
X61921201Y-53203998D01*
X61850026Y-53290724D01*
X61779454Y-53422754D01*
X61776996Y-53430858D01*
X61770414Y-53452557D01*
X61662500Y-53441928D01*
X61631730Y-53441928D01*
X61099865Y-52910064D01*
X61170506Y-52968037D01*
X61280820Y-53027002D01*
X61400518Y-53063312D01*
X61525000Y-53075572D01*
X61714250Y-53072500D01*
X61873000Y-52913750D01*
X61873000Y-52127000D01*
X61853000Y-52127000D01*
X61853000Y-51873000D01*
X61873000Y-51873000D01*
X61873000Y-51853000D01*
X62127000Y-51853000D01*
X62127000Y-51873000D01*
X62951250Y-51873000D01*
X63110000Y-51714250D01*
X63113072Y-51562500D01*
X63100812Y-51438018D01*
X63064502Y-51318320D01*
X63005537Y-51208006D01*
X62950900Y-51141430D01*
X62968671Y-51119775D01*
X63047850Y-50971642D01*
X63096608Y-50810908D01*
X63113072Y-50643750D01*
X63113072Y-50206250D01*
X63096608Y-50039092D01*
X63047850Y-49878358D01*
X62968671Y-49730225D01*
X62862115Y-49600385D01*
X62760000Y-49516582D01*
X62760000Y-48633970D01*
X62825679Y-48553940D01*
X62898274Y-48418125D01*
X62942977Y-48270757D01*
X62958072Y-48117500D01*
X62958072Y-47822500D01*
X62942977Y-47669243D01*
X62898274Y-47521875D01*
X62878564Y-47485000D01*
X62898274Y-47448125D01*
X62942977Y-47300757D01*
X62958072Y-47147500D01*
X62958072Y-46852500D01*
X62942977Y-46699243D01*
X62907505Y-46582307D01*
X63861928Y-47536731D01*
G37*
G04 #@! TD.AperFunction*
D21*
X59742928Y-30845000D02*
X59742928Y-31495000D01*
X59755188Y-31619482D01*
X59791498Y-31739180D01*
X59826680Y-31805000D01*
X59791498Y-31870820D01*
X59755188Y-31990518D01*
X59742928Y-32115000D01*
X59742928Y-32382269D01*
X59660197Y-32465000D01*
X59598060Y-32465000D01*
X59398101Y-32504774D01*
X59209743Y-32582795D01*
X59040225Y-32696063D01*
X58896062Y-32840226D01*
X58782794Y-33009744D01*
X58704773Y-33198102D01*
X58664999Y-33398061D01*
X58664999Y-33601939D01*
X58704773Y-33801898D01*
X58782794Y-33990256D01*
X58896062Y-34159774D01*
X59040225Y-34303937D01*
X59209743Y-34417205D01*
X59398101Y-34495226D01*
X59598060Y-34535000D01*
X59754747Y-34535000D01*
X59742928Y-34655000D01*
X59742928Y-35305000D01*
X59755188Y-35429482D01*
X59791498Y-35549180D01*
X59826680Y-35615000D01*
X59791498Y-35680820D01*
X59755188Y-35800518D01*
X59742928Y-35925000D01*
X59746000Y-35964250D01*
X59904750Y-36123000D01*
X60754000Y-36123000D01*
X60754000Y-36103000D01*
X61008000Y-36103000D01*
X61008000Y-36123000D01*
X61028000Y-36123000D01*
X61028000Y-36377000D01*
X61008000Y-36377000D01*
X61008000Y-36397000D01*
X60754000Y-36397000D01*
X60754000Y-36377000D01*
X59904750Y-36377000D01*
X59746000Y-36535750D01*
X59742928Y-36575000D01*
X59755188Y-36699482D01*
X59791498Y-36819180D01*
X59808349Y-36850705D01*
X59770000Y-36846928D01*
X59735750Y-36850000D01*
X59577000Y-37008750D01*
X59577000Y-37653000D01*
X59597000Y-37653000D01*
X59597000Y-37816928D01*
X59277500Y-37816928D01*
X59124243Y-37832023D01*
X58976875Y-37876726D01*
X58920237Y-37907000D01*
X58653750Y-37907000D01*
X58495000Y-38065750D01*
X58491928Y-38075000D01*
X58504188Y-38199482D01*
X58540498Y-38319180D01*
X58544312Y-38326316D01*
X58507023Y-38449243D01*
X58491928Y-38602500D01*
X58491928Y-38897500D01*
X58507023Y-39050757D01*
X58551726Y-39198125D01*
X58624321Y-39333940D01*
X58722017Y-39452983D01*
X58841060Y-39550679D01*
X58976875Y-39623274D01*
X59124243Y-39667977D01*
X59277500Y-39683072D01*
X59622500Y-39683072D01*
X59749272Y-39670586D01*
X59742928Y-39735000D01*
X59742928Y-40385000D01*
X59755188Y-40509482D01*
X59791498Y-40629180D01*
X59826680Y-40695000D01*
X59791498Y-40760820D01*
X59755188Y-40880518D01*
X59742928Y-41005000D01*
X59742928Y-41655000D01*
X59755188Y-41779482D01*
X59791498Y-41899180D01*
X59826680Y-41965000D01*
X59791498Y-42030820D01*
X59755188Y-42150518D01*
X59742928Y-42275000D01*
X59742928Y-42925000D01*
X59755188Y-43049482D01*
X59791498Y-43169180D01*
X59850463Y-43279494D01*
X59929815Y-43376185D01*
X60026506Y-43455537D01*
X60136820Y-43514502D01*
X60256518Y-43550812D01*
X60381000Y-43563072D01*
X60789124Y-43563072D01*
X59664002Y-44688195D01*
X59634998Y-44711998D01*
X59600529Y-44753999D01*
X59540025Y-44827723D01*
X59479558Y-44940848D01*
X59469453Y-44959753D01*
X59425996Y-45103014D01*
X59414999Y-45214667D01*
X59414999Y-45214677D01*
X59411323Y-45251999D01*
X59414999Y-45289321D01*
X59415000Y-50197512D01*
X59395226Y-50098102D01*
X59317205Y-49909744D01*
X59203937Y-49740226D01*
X59059774Y-49596063D01*
X58890256Y-49482795D01*
X58701898Y-49404774D01*
X58501939Y-49365000D01*
X58298061Y-49365000D01*
X58098102Y-49404774D01*
X57909744Y-49482795D01*
X57740226Y-49596063D01*
X57660000Y-49676289D01*
X57660000Y-37485000D01*
X58491928Y-37485000D01*
X58495000Y-37494250D01*
X58653750Y-37653000D01*
X59323000Y-37653000D01*
X59323000Y-37008750D01*
X59164250Y-36850000D01*
X59130000Y-36846928D01*
X59005518Y-36859188D01*
X58885820Y-36895498D01*
X58775506Y-36954463D01*
X58678815Y-37033815D01*
X58599463Y-37130506D01*
X58540498Y-37240820D01*
X58504188Y-37360518D01*
X58491928Y-37485000D01*
X57660000Y-37485000D01*
X57660000Y-30727000D01*
X59754550Y-30727000D01*
X59742928Y-30845000D01*
G04 #@! TA.AperFunction,Conductor*
D22*
G36*
X59742928Y-30845000D02*
G01*
X59742928Y-31495000D01*
X59755188Y-31619482D01*
X59791498Y-31739180D01*
X59826680Y-31805000D01*
X59791498Y-31870820D01*
X59755188Y-31990518D01*
X59742928Y-32115000D01*
X59742928Y-32382269D01*
X59660197Y-32465000D01*
X59598060Y-32465000D01*
X59398101Y-32504774D01*
X59209743Y-32582795D01*
X59040225Y-32696063D01*
X58896062Y-32840226D01*
X58782794Y-33009744D01*
X58704773Y-33198102D01*
X58664999Y-33398061D01*
X58664999Y-33601939D01*
X58704773Y-33801898D01*
X58782794Y-33990256D01*
X58896062Y-34159774D01*
X59040225Y-34303937D01*
X59209743Y-34417205D01*
X59398101Y-34495226D01*
X59598060Y-34535000D01*
X59754747Y-34535000D01*
X59742928Y-34655000D01*
X59742928Y-35305000D01*
X59755188Y-35429482D01*
X59791498Y-35549180D01*
X59826680Y-35615000D01*
X59791498Y-35680820D01*
X59755188Y-35800518D01*
X59742928Y-35925000D01*
X59746000Y-35964250D01*
X59904750Y-36123000D01*
X60754000Y-36123000D01*
X60754000Y-36103000D01*
X61008000Y-36103000D01*
X61008000Y-36123000D01*
X61028000Y-36123000D01*
X61028000Y-36377000D01*
X61008000Y-36377000D01*
X61008000Y-36397000D01*
X60754000Y-36397000D01*
X60754000Y-36377000D01*
X59904750Y-36377000D01*
X59746000Y-36535750D01*
X59742928Y-36575000D01*
X59755188Y-36699482D01*
X59791498Y-36819180D01*
X59808349Y-36850705D01*
X59770000Y-36846928D01*
X59735750Y-36850000D01*
X59577000Y-37008750D01*
X59577000Y-37653000D01*
X59597000Y-37653000D01*
X59597000Y-37816928D01*
X59277500Y-37816928D01*
X59124243Y-37832023D01*
X58976875Y-37876726D01*
X58920237Y-37907000D01*
X58653750Y-37907000D01*
X58495000Y-38065750D01*
X58491928Y-38075000D01*
X58504188Y-38199482D01*
X58540498Y-38319180D01*
X58544312Y-38326316D01*
X58507023Y-38449243D01*
X58491928Y-38602500D01*
X58491928Y-38897500D01*
X58507023Y-39050757D01*
X58551726Y-39198125D01*
X58624321Y-39333940D01*
X58722017Y-39452983D01*
X58841060Y-39550679D01*
X58976875Y-39623274D01*
X59124243Y-39667977D01*
X59277500Y-39683072D01*
X59622500Y-39683072D01*
X59749272Y-39670586D01*
X59742928Y-39735000D01*
X59742928Y-40385000D01*
X59755188Y-40509482D01*
X59791498Y-40629180D01*
X59826680Y-40695000D01*
X59791498Y-40760820D01*
X59755188Y-40880518D01*
X59742928Y-41005000D01*
X59742928Y-41655000D01*
X59755188Y-41779482D01*
X59791498Y-41899180D01*
X59826680Y-41965000D01*
X59791498Y-42030820D01*
X59755188Y-42150518D01*
X59742928Y-42275000D01*
X59742928Y-42925000D01*
X59755188Y-43049482D01*
X59791498Y-43169180D01*
X59850463Y-43279494D01*
X59929815Y-43376185D01*
X60026506Y-43455537D01*
X60136820Y-43514502D01*
X60256518Y-43550812D01*
X60381000Y-43563072D01*
X60789124Y-43563072D01*
X59664002Y-44688195D01*
X59634998Y-44711998D01*
X59600529Y-44753999D01*
X59540025Y-44827723D01*
X59479558Y-44940848D01*
X59469453Y-44959753D01*
X59425996Y-45103014D01*
X59414999Y-45214667D01*
X59414999Y-45214677D01*
X59411323Y-45251999D01*
X59414999Y-45289321D01*
X59415000Y-50197512D01*
X59395226Y-50098102D01*
X59317205Y-49909744D01*
X59203937Y-49740226D01*
X59059774Y-49596063D01*
X58890256Y-49482795D01*
X58701898Y-49404774D01*
X58501939Y-49365000D01*
X58298061Y-49365000D01*
X58098102Y-49404774D01*
X57909744Y-49482795D01*
X57740226Y-49596063D01*
X57660000Y-49676289D01*
X57660000Y-37485000D01*
X58491928Y-37485000D01*
X58495000Y-37494250D01*
X58653750Y-37653000D01*
X59323000Y-37653000D01*
X59323000Y-37008750D01*
X59164250Y-36850000D01*
X59130000Y-36846928D01*
X59005518Y-36859188D01*
X58885820Y-36895498D01*
X58775506Y-36954463D01*
X58678815Y-37033815D01*
X58599463Y-37130506D01*
X58540498Y-37240820D01*
X58504188Y-37360518D01*
X58491928Y-37485000D01*
X57660000Y-37485000D01*
X57660000Y-30727000D01*
X59754550Y-30727000D01*
X59742928Y-30845000D01*
G37*
G04 #@! TD.AperFunction*
D21*
X68239003Y-33492606D02*
X68209999Y-33516409D01*
X68154871Y-33583584D01*
X68115026Y-33632134D01*
X68073405Y-33710001D01*
X68044454Y-33764164D01*
X68000997Y-33907425D01*
X67990000Y-34019078D01*
X67990000Y-34019088D01*
X67986324Y-34056410D01*
X67990000Y-34093733D01*
X67990001Y-37308199D01*
X67133200Y-38165001D01*
X63453429Y-38165001D01*
X63441274Y-38155026D01*
X63309245Y-38084454D01*
X63165984Y-38040997D01*
X63054331Y-38030000D01*
X63054320Y-38030000D01*
X63016998Y-38026324D01*
X62979676Y-38030000D01*
X61988454Y-38030000D01*
X62006812Y-37969482D01*
X62019072Y-37845000D01*
X62019072Y-37195000D01*
X62006812Y-37070518D01*
X61970502Y-36950820D01*
X61935320Y-36885000D01*
X61970502Y-36819180D01*
X62006812Y-36699482D01*
X62013163Y-36635000D01*
X62201939Y-36635000D01*
X62401898Y-36595226D01*
X62590256Y-36517205D01*
X62759774Y-36403937D01*
X62903937Y-36259774D01*
X63017205Y-36090256D01*
X63095226Y-35901898D01*
X63135000Y-35701939D01*
X63135000Y-35498061D01*
X63095226Y-35298102D01*
X63017205Y-35109744D01*
X62903937Y-34940226D01*
X62774042Y-34810331D01*
X62898061Y-34835000D01*
X63101939Y-34835000D01*
X63301898Y-34795226D01*
X63490256Y-34717205D01*
X63659774Y-34603937D01*
X63803937Y-34459774D01*
X63917205Y-34290256D01*
X63995226Y-34101898D01*
X64035000Y-33901939D01*
X64035000Y-33698061D01*
X63995226Y-33498102D01*
X63917205Y-33309744D01*
X63803937Y-33140226D01*
X63659774Y-32996063D01*
X63490256Y-32882795D01*
X63301898Y-32804774D01*
X63101939Y-32765000D01*
X62898061Y-32765000D01*
X62698102Y-32804774D01*
X62509744Y-32882795D01*
X62409164Y-32950000D01*
X61988454Y-32950000D01*
X62006812Y-32889482D01*
X62019072Y-32765000D01*
X62019072Y-32115000D01*
X62006812Y-31990518D01*
X61988454Y-31930000D01*
X69801608Y-31930000D01*
X68239003Y-33492606D01*
G04 #@! TA.AperFunction,Conductor*
D22*
G36*
X68239003Y-33492606D02*
G01*
X68209999Y-33516409D01*
X68154871Y-33583584D01*
X68115026Y-33632134D01*
X68073405Y-33710001D01*
X68044454Y-33764164D01*
X68000997Y-33907425D01*
X67990000Y-34019078D01*
X67990000Y-34019088D01*
X67986324Y-34056410D01*
X67990000Y-34093733D01*
X67990001Y-37308199D01*
X67133200Y-38165001D01*
X63453429Y-38165001D01*
X63441274Y-38155026D01*
X63309245Y-38084454D01*
X63165984Y-38040997D01*
X63054331Y-38030000D01*
X63054320Y-38030000D01*
X63016998Y-38026324D01*
X62979676Y-38030000D01*
X61988454Y-38030000D01*
X62006812Y-37969482D01*
X62019072Y-37845000D01*
X62019072Y-37195000D01*
X62006812Y-37070518D01*
X61970502Y-36950820D01*
X61935320Y-36885000D01*
X61970502Y-36819180D01*
X62006812Y-36699482D01*
X62013163Y-36635000D01*
X62201939Y-36635000D01*
X62401898Y-36595226D01*
X62590256Y-36517205D01*
X62759774Y-36403937D01*
X62903937Y-36259774D01*
X63017205Y-36090256D01*
X63095226Y-35901898D01*
X63135000Y-35701939D01*
X63135000Y-35498061D01*
X63095226Y-35298102D01*
X63017205Y-35109744D01*
X62903937Y-34940226D01*
X62774042Y-34810331D01*
X62898061Y-34835000D01*
X63101939Y-34835000D01*
X63301898Y-34795226D01*
X63490256Y-34717205D01*
X63659774Y-34603937D01*
X63803937Y-34459774D01*
X63917205Y-34290256D01*
X63995226Y-34101898D01*
X64035000Y-33901939D01*
X64035000Y-33698061D01*
X63995226Y-33498102D01*
X63917205Y-33309744D01*
X63803937Y-33140226D01*
X63659774Y-32996063D01*
X63490256Y-32882795D01*
X63301898Y-32804774D01*
X63101939Y-32765000D01*
X62898061Y-32765000D01*
X62698102Y-32804774D01*
X62509744Y-32882795D01*
X62409164Y-32950000D01*
X61988454Y-32950000D01*
X62006812Y-32889482D01*
X62019072Y-32765000D01*
X62019072Y-32115000D01*
X62006812Y-31990518D01*
X61988454Y-31930000D01*
X69801608Y-31930000D01*
X68239003Y-33492606D01*
G37*
G04 #@! TD.AperFunction*
M02*
