G04 #@! TF.GenerationSoftware,KiCad,Pcbnew,(5.1.2-1)-1*
G04 #@! TF.CreationDate,2021-10-09T10:13:21+02:00*
G04 #@! TF.ProjectId,parasite,70617261-7369-4746-952e-6b696361645f,1.2.0*
G04 #@! TF.SameCoordinates,Original*
G04 #@! TF.FileFunction,Soldermask,Bot*
G04 #@! TF.FilePolarity,Negative*
%FSLAX46Y46*%
G04 Gerber Fmt 4.6, Leading zero omitted, Abs format (unit mm)*
G04 Created by KiCad (PCBNEW (5.1.2-1)-1) date 2021-10-09 10:13:21*
%MOMM*%
%LPD*%
G04 APERTURE LIST*
%ADD10C,0.100000*%
G04 APERTURE END LIST*
D10*
G36*
X69701000Y-70301000D02*
G01*
X64499000Y-70301000D01*
X64499000Y-65099000D01*
X69701000Y-65099000D01*
X69701000Y-70301000D01*
X69701000Y-70301000D01*
G37*
G36*
X69710909Y-46292981D02*
G01*
X71339887Y-46967726D01*
X71339888Y-46967727D01*
X72805930Y-47947304D01*
X74052696Y-49194070D01*
X74707228Y-50173648D01*
X75032274Y-50660113D01*
X75707019Y-52289091D01*
X76051000Y-54018402D01*
X76051000Y-55781598D01*
X75707019Y-57510909D01*
X75032274Y-59139887D01*
X75032273Y-59139888D01*
X74052696Y-60605930D01*
X72805930Y-61852696D01*
X71826352Y-62507228D01*
X71339887Y-62832274D01*
X69710909Y-63507019D01*
X67981598Y-63851000D01*
X66218402Y-63851000D01*
X64489091Y-63507019D01*
X62860113Y-62832274D01*
X62373648Y-62507228D01*
X61394070Y-61852696D01*
X60147304Y-60605930D01*
X59167727Y-59139888D01*
X59167726Y-59139887D01*
X58492981Y-57510909D01*
X58149000Y-55781598D01*
X58149000Y-54018402D01*
X58492981Y-52289091D01*
X59167726Y-50660113D01*
X59492772Y-50173648D01*
X60147304Y-49194070D01*
X61394070Y-47947304D01*
X62860112Y-46967727D01*
X62860113Y-46967726D01*
X64489091Y-46292981D01*
X66218402Y-45949000D01*
X67981598Y-45949000D01*
X69710909Y-46292981D01*
X69710909Y-46292981D01*
G37*
G36*
X69701000Y-44701000D02*
G01*
X64499000Y-44701000D01*
X64499000Y-39499000D01*
X69701000Y-39499000D01*
X69701000Y-44701000D01*
X69701000Y-44701000D01*
G37*
M02*
