G04 #@! TF.GenerationSoftware,KiCad,Pcbnew,(5.1.2-1)-1*
G04 #@! TF.CreationDate,2021-10-09T10:13:21+02:00*
G04 #@! TF.ProjectId,parasite,70617261-7369-4746-952e-6b696361645f,1.2.0*
G04 #@! TF.SameCoordinates,Original*
G04 #@! TF.FileFunction,Copper,L1,Top*
G04 #@! TF.FilePolarity,Positive*
%FSLAX46Y46*%
G04 Gerber Fmt 4.6, Leading zero omitted, Abs format (unit mm)*
G04 Created by KiCad (PCBNEW (5.1.2-1)-1) date 2021-10-09 10:13:21*
%MOMM*%
%LPD*%
G04 APERTURE LIST*
%ADD10C,1.000000*%
%ADD11R,1.000000X0.650000*%
%ADD12R,0.650000X1.000000*%
%ADD13R,0.800000X0.800000*%
%ADD14C,0.100000*%
%ADD15C,0.590000*%
%ADD16C,0.700000*%
%ADD17C,0.350000*%
%ADD18R,1.000000X1.800000*%
%ADD19R,0.800000X0.900000*%
%ADD20C,0.875000*%
%ADD21C,0.975000*%
%ADD22R,1.300000X1.700000*%
%ADD23C,0.800000*%
%ADD24C,0.250000*%
%ADD25C,10.000000*%
%ADD26C,0.500000*%
%ADD27C,0.254000*%
G04 APERTURE END LIST*
D10*
X59200000Y-31500000D03*
D11*
X60881000Y-42600000D03*
X60881000Y-41330000D03*
X60881000Y-40060000D03*
X60881000Y-38790000D03*
X60881000Y-37520000D03*
X60881000Y-36250000D03*
X60881000Y-34980000D03*
X60881000Y-33710000D03*
X60881000Y-32440000D03*
X60881000Y-31170000D03*
X73119000Y-38790000D03*
X73119000Y-31170000D03*
X73119000Y-37520000D03*
X73119000Y-32440000D03*
X73119000Y-33710000D03*
X73119000Y-34980000D03*
X73119000Y-40060000D03*
X73119000Y-36250000D03*
X73119000Y-41330000D03*
X73119000Y-42600000D03*
D12*
X70150000Y-44819000D03*
X62530000Y-44819000D03*
X68880000Y-44819000D03*
X63800000Y-44819000D03*
X65070000Y-44819000D03*
X66340000Y-44819000D03*
X71420000Y-44819000D03*
X67610000Y-44819000D03*
D13*
X58150000Y-29700000D03*
X59650000Y-29700000D03*
D14*
G36*
X59861958Y-28080710D02*
G01*
X59876276Y-28082834D01*
X59890317Y-28086351D01*
X59903946Y-28091228D01*
X59917031Y-28097417D01*
X59929447Y-28104858D01*
X59941073Y-28113481D01*
X59951798Y-28123202D01*
X59961519Y-28133927D01*
X59970142Y-28145553D01*
X59977583Y-28157969D01*
X59983772Y-28171054D01*
X59988649Y-28184683D01*
X59992166Y-28198724D01*
X59994290Y-28213042D01*
X59995000Y-28227500D01*
X59995000Y-28572500D01*
X59994290Y-28586958D01*
X59992166Y-28601276D01*
X59988649Y-28615317D01*
X59983772Y-28628946D01*
X59977583Y-28642031D01*
X59970142Y-28654447D01*
X59961519Y-28666073D01*
X59951798Y-28676798D01*
X59941073Y-28686519D01*
X59929447Y-28695142D01*
X59917031Y-28702583D01*
X59903946Y-28708772D01*
X59890317Y-28713649D01*
X59876276Y-28717166D01*
X59861958Y-28719290D01*
X59847500Y-28720000D01*
X59552500Y-28720000D01*
X59538042Y-28719290D01*
X59523724Y-28717166D01*
X59509683Y-28713649D01*
X59496054Y-28708772D01*
X59482969Y-28702583D01*
X59470553Y-28695142D01*
X59458927Y-28686519D01*
X59448202Y-28676798D01*
X59438481Y-28666073D01*
X59429858Y-28654447D01*
X59422417Y-28642031D01*
X59416228Y-28628946D01*
X59411351Y-28615317D01*
X59407834Y-28601276D01*
X59405710Y-28586958D01*
X59405000Y-28572500D01*
X59405000Y-28227500D01*
X59405710Y-28213042D01*
X59407834Y-28198724D01*
X59411351Y-28184683D01*
X59416228Y-28171054D01*
X59422417Y-28157969D01*
X59429858Y-28145553D01*
X59438481Y-28133927D01*
X59448202Y-28123202D01*
X59458927Y-28113481D01*
X59470553Y-28104858D01*
X59482969Y-28097417D01*
X59496054Y-28091228D01*
X59509683Y-28086351D01*
X59523724Y-28082834D01*
X59538042Y-28080710D01*
X59552500Y-28080000D01*
X59847500Y-28080000D01*
X59861958Y-28080710D01*
X59861958Y-28080710D01*
G37*
D15*
X59700000Y-28400000D03*
D14*
G36*
X58891958Y-28080710D02*
G01*
X58906276Y-28082834D01*
X58920317Y-28086351D01*
X58933946Y-28091228D01*
X58947031Y-28097417D01*
X58959447Y-28104858D01*
X58971073Y-28113481D01*
X58981798Y-28123202D01*
X58991519Y-28133927D01*
X59000142Y-28145553D01*
X59007583Y-28157969D01*
X59013772Y-28171054D01*
X59018649Y-28184683D01*
X59022166Y-28198724D01*
X59024290Y-28213042D01*
X59025000Y-28227500D01*
X59025000Y-28572500D01*
X59024290Y-28586958D01*
X59022166Y-28601276D01*
X59018649Y-28615317D01*
X59013772Y-28628946D01*
X59007583Y-28642031D01*
X59000142Y-28654447D01*
X58991519Y-28666073D01*
X58981798Y-28676798D01*
X58971073Y-28686519D01*
X58959447Y-28695142D01*
X58947031Y-28702583D01*
X58933946Y-28708772D01*
X58920317Y-28713649D01*
X58906276Y-28717166D01*
X58891958Y-28719290D01*
X58877500Y-28720000D01*
X58582500Y-28720000D01*
X58568042Y-28719290D01*
X58553724Y-28717166D01*
X58539683Y-28713649D01*
X58526054Y-28708772D01*
X58512969Y-28702583D01*
X58500553Y-28695142D01*
X58488927Y-28686519D01*
X58478202Y-28676798D01*
X58468481Y-28666073D01*
X58459858Y-28654447D01*
X58452417Y-28642031D01*
X58446228Y-28628946D01*
X58441351Y-28615317D01*
X58437834Y-28601276D01*
X58435710Y-28586958D01*
X58435000Y-28572500D01*
X58435000Y-28227500D01*
X58435710Y-28213042D01*
X58437834Y-28198724D01*
X58441351Y-28184683D01*
X58446228Y-28171054D01*
X58452417Y-28157969D01*
X58459858Y-28145553D01*
X58468481Y-28133927D01*
X58478202Y-28123202D01*
X58488927Y-28113481D01*
X58500553Y-28104858D01*
X58512969Y-28097417D01*
X58526054Y-28091228D01*
X58539683Y-28086351D01*
X58553724Y-28082834D01*
X58568042Y-28080710D01*
X58582500Y-28080000D01*
X58877500Y-28080000D01*
X58891958Y-28080710D01*
X58891958Y-28080710D01*
G37*
D15*
X58730000Y-28400000D03*
D14*
G36*
X72992153Y-49800843D02*
G01*
X73009141Y-49803363D01*
X73025800Y-49807535D01*
X73041970Y-49813321D01*
X73057494Y-49820664D01*
X73072225Y-49829493D01*
X73086019Y-49839723D01*
X73098744Y-49851256D01*
X73110277Y-49863981D01*
X73120507Y-49877775D01*
X73129336Y-49892506D01*
X73136679Y-49908030D01*
X73142465Y-49924200D01*
X73146637Y-49940859D01*
X73149157Y-49957847D01*
X73150000Y-49975000D01*
X73150000Y-51225000D01*
X73149157Y-51242153D01*
X73146637Y-51259141D01*
X73142465Y-51275800D01*
X73136679Y-51291970D01*
X73129336Y-51307494D01*
X73120507Y-51322225D01*
X73110277Y-51336019D01*
X73098744Y-51348744D01*
X73086019Y-51360277D01*
X73072225Y-51370507D01*
X73057494Y-51379336D01*
X73041970Y-51386679D01*
X73025800Y-51392465D01*
X73009141Y-51396637D01*
X72992153Y-51399157D01*
X72975000Y-51400000D01*
X72625000Y-51400000D01*
X72607847Y-51399157D01*
X72590859Y-51396637D01*
X72574200Y-51392465D01*
X72558030Y-51386679D01*
X72542506Y-51379336D01*
X72527775Y-51370507D01*
X72513981Y-51360277D01*
X72501256Y-51348744D01*
X72489723Y-51336019D01*
X72479493Y-51322225D01*
X72470664Y-51307494D01*
X72463321Y-51291970D01*
X72457535Y-51275800D01*
X72453363Y-51259141D01*
X72450843Y-51242153D01*
X72450000Y-51225000D01*
X72450000Y-49975000D01*
X72450843Y-49957847D01*
X72453363Y-49940859D01*
X72457535Y-49924200D01*
X72463321Y-49908030D01*
X72470664Y-49892506D01*
X72479493Y-49877775D01*
X72489723Y-49863981D01*
X72501256Y-49851256D01*
X72513981Y-49839723D01*
X72527775Y-49829493D01*
X72542506Y-49820664D01*
X72558030Y-49813321D01*
X72574200Y-49807535D01*
X72590859Y-49803363D01*
X72607847Y-49800843D01*
X72625000Y-49800000D01*
X72975000Y-49800000D01*
X72992153Y-49800843D01*
X72992153Y-49800843D01*
G37*
D16*
X72800000Y-50600000D03*
D14*
G36*
X72071076Y-50925421D02*
G01*
X72079570Y-50926681D01*
X72087900Y-50928768D01*
X72095985Y-50931661D01*
X72103747Y-50935332D01*
X72111112Y-50939746D01*
X72118009Y-50944862D01*
X72124372Y-50950628D01*
X72130138Y-50956991D01*
X72135254Y-50963888D01*
X72139668Y-50971253D01*
X72143339Y-50979015D01*
X72146232Y-50987100D01*
X72148319Y-50995430D01*
X72149579Y-51003924D01*
X72150000Y-51012500D01*
X72150000Y-51187500D01*
X72149579Y-51196076D01*
X72148319Y-51204570D01*
X72146232Y-51212900D01*
X72143339Y-51220985D01*
X72139668Y-51228747D01*
X72135254Y-51236112D01*
X72130138Y-51243009D01*
X72124372Y-51249372D01*
X72118009Y-51255138D01*
X72111112Y-51260254D01*
X72103747Y-51264668D01*
X72095985Y-51268339D01*
X72087900Y-51271232D01*
X72079570Y-51273319D01*
X72071076Y-51274579D01*
X72062500Y-51275000D01*
X71687500Y-51275000D01*
X71678924Y-51274579D01*
X71670430Y-51273319D01*
X71662100Y-51271232D01*
X71654015Y-51268339D01*
X71646253Y-51264668D01*
X71638888Y-51260254D01*
X71631991Y-51255138D01*
X71625628Y-51249372D01*
X71619862Y-51243009D01*
X71614746Y-51236112D01*
X71610332Y-51228747D01*
X71606661Y-51220985D01*
X71603768Y-51212900D01*
X71601681Y-51204570D01*
X71600421Y-51196076D01*
X71600000Y-51187500D01*
X71600000Y-51012500D01*
X71600421Y-51003924D01*
X71601681Y-50995430D01*
X71603768Y-50987100D01*
X71606661Y-50979015D01*
X71610332Y-50971253D01*
X71614746Y-50963888D01*
X71619862Y-50956991D01*
X71625628Y-50950628D01*
X71631991Y-50944862D01*
X71638888Y-50939746D01*
X71646253Y-50935332D01*
X71654015Y-50931661D01*
X71662100Y-50928768D01*
X71670430Y-50926681D01*
X71678924Y-50925421D01*
X71687500Y-50925000D01*
X72062500Y-50925000D01*
X72071076Y-50925421D01*
X72071076Y-50925421D01*
G37*
D17*
X71875000Y-51100000D03*
D14*
G36*
X72071076Y-49925421D02*
G01*
X72079570Y-49926681D01*
X72087900Y-49928768D01*
X72095985Y-49931661D01*
X72103747Y-49935332D01*
X72111112Y-49939746D01*
X72118009Y-49944862D01*
X72124372Y-49950628D01*
X72130138Y-49956991D01*
X72135254Y-49963888D01*
X72139668Y-49971253D01*
X72143339Y-49979015D01*
X72146232Y-49987100D01*
X72148319Y-49995430D01*
X72149579Y-50003924D01*
X72150000Y-50012500D01*
X72150000Y-50187500D01*
X72149579Y-50196076D01*
X72148319Y-50204570D01*
X72146232Y-50212900D01*
X72143339Y-50220985D01*
X72139668Y-50228747D01*
X72135254Y-50236112D01*
X72130138Y-50243009D01*
X72124372Y-50249372D01*
X72118009Y-50255138D01*
X72111112Y-50260254D01*
X72103747Y-50264668D01*
X72095985Y-50268339D01*
X72087900Y-50271232D01*
X72079570Y-50273319D01*
X72071076Y-50274579D01*
X72062500Y-50275000D01*
X71687500Y-50275000D01*
X71678924Y-50274579D01*
X71670430Y-50273319D01*
X71662100Y-50271232D01*
X71654015Y-50268339D01*
X71646253Y-50264668D01*
X71638888Y-50260254D01*
X71631991Y-50255138D01*
X71625628Y-50249372D01*
X71619862Y-50243009D01*
X71614746Y-50236112D01*
X71610332Y-50228747D01*
X71606661Y-50220985D01*
X71603768Y-50212900D01*
X71601681Y-50204570D01*
X71600421Y-50196076D01*
X71600000Y-50187500D01*
X71600000Y-50012500D01*
X71600421Y-50003924D01*
X71601681Y-49995430D01*
X71603768Y-49987100D01*
X71606661Y-49979015D01*
X71610332Y-49971253D01*
X71614746Y-49963888D01*
X71619862Y-49956991D01*
X71625628Y-49950628D01*
X71631991Y-49944862D01*
X71638888Y-49939746D01*
X71646253Y-49935332D01*
X71654015Y-49931661D01*
X71662100Y-49928768D01*
X71670430Y-49926681D01*
X71678924Y-49925421D01*
X71687500Y-49925000D01*
X72062500Y-49925000D01*
X72071076Y-49925421D01*
X72071076Y-49925421D01*
G37*
D17*
X71875000Y-50100000D03*
D14*
G36*
X73921076Y-49925421D02*
G01*
X73929570Y-49926681D01*
X73937900Y-49928768D01*
X73945985Y-49931661D01*
X73953747Y-49935332D01*
X73961112Y-49939746D01*
X73968009Y-49944862D01*
X73974372Y-49950628D01*
X73980138Y-49956991D01*
X73985254Y-49963888D01*
X73989668Y-49971253D01*
X73993339Y-49979015D01*
X73996232Y-49987100D01*
X73998319Y-49995430D01*
X73999579Y-50003924D01*
X74000000Y-50012500D01*
X74000000Y-50187500D01*
X73999579Y-50196076D01*
X73998319Y-50204570D01*
X73996232Y-50212900D01*
X73993339Y-50220985D01*
X73989668Y-50228747D01*
X73985254Y-50236112D01*
X73980138Y-50243009D01*
X73974372Y-50249372D01*
X73968009Y-50255138D01*
X73961112Y-50260254D01*
X73953747Y-50264668D01*
X73945985Y-50268339D01*
X73937900Y-50271232D01*
X73929570Y-50273319D01*
X73921076Y-50274579D01*
X73912500Y-50275000D01*
X73537500Y-50275000D01*
X73528924Y-50274579D01*
X73520430Y-50273319D01*
X73512100Y-50271232D01*
X73504015Y-50268339D01*
X73496253Y-50264668D01*
X73488888Y-50260254D01*
X73481991Y-50255138D01*
X73475628Y-50249372D01*
X73469862Y-50243009D01*
X73464746Y-50236112D01*
X73460332Y-50228747D01*
X73456661Y-50220985D01*
X73453768Y-50212900D01*
X73451681Y-50204570D01*
X73450421Y-50196076D01*
X73450000Y-50187500D01*
X73450000Y-50012500D01*
X73450421Y-50003924D01*
X73451681Y-49995430D01*
X73453768Y-49987100D01*
X73456661Y-49979015D01*
X73460332Y-49971253D01*
X73464746Y-49963888D01*
X73469862Y-49956991D01*
X73475628Y-49950628D01*
X73481991Y-49944862D01*
X73488888Y-49939746D01*
X73496253Y-49935332D01*
X73504015Y-49931661D01*
X73512100Y-49928768D01*
X73520430Y-49926681D01*
X73528924Y-49925421D01*
X73537500Y-49925000D01*
X73912500Y-49925000D01*
X73921076Y-49925421D01*
X73921076Y-49925421D01*
G37*
D17*
X73725000Y-50100000D03*
D14*
G36*
X73921076Y-50925421D02*
G01*
X73929570Y-50926681D01*
X73937900Y-50928768D01*
X73945985Y-50931661D01*
X73953747Y-50935332D01*
X73961112Y-50939746D01*
X73968009Y-50944862D01*
X73974372Y-50950628D01*
X73980138Y-50956991D01*
X73985254Y-50963888D01*
X73989668Y-50971253D01*
X73993339Y-50979015D01*
X73996232Y-50987100D01*
X73998319Y-50995430D01*
X73999579Y-51003924D01*
X74000000Y-51012500D01*
X74000000Y-51187500D01*
X73999579Y-51196076D01*
X73998319Y-51204570D01*
X73996232Y-51212900D01*
X73993339Y-51220985D01*
X73989668Y-51228747D01*
X73985254Y-51236112D01*
X73980138Y-51243009D01*
X73974372Y-51249372D01*
X73968009Y-51255138D01*
X73961112Y-51260254D01*
X73953747Y-51264668D01*
X73945985Y-51268339D01*
X73937900Y-51271232D01*
X73929570Y-51273319D01*
X73921076Y-51274579D01*
X73912500Y-51275000D01*
X73537500Y-51275000D01*
X73528924Y-51274579D01*
X73520430Y-51273319D01*
X73512100Y-51271232D01*
X73504015Y-51268339D01*
X73496253Y-51264668D01*
X73488888Y-51260254D01*
X73481991Y-51255138D01*
X73475628Y-51249372D01*
X73469862Y-51243009D01*
X73464746Y-51236112D01*
X73460332Y-51228747D01*
X73456661Y-51220985D01*
X73453768Y-51212900D01*
X73451681Y-51204570D01*
X73450421Y-51196076D01*
X73450000Y-51187500D01*
X73450000Y-51012500D01*
X73450421Y-51003924D01*
X73451681Y-50995430D01*
X73453768Y-50987100D01*
X73456661Y-50979015D01*
X73460332Y-50971253D01*
X73464746Y-50963888D01*
X73469862Y-50956991D01*
X73475628Y-50950628D01*
X73481991Y-50944862D01*
X73488888Y-50939746D01*
X73496253Y-50935332D01*
X73504015Y-50931661D01*
X73512100Y-50928768D01*
X73520430Y-50926681D01*
X73528924Y-50925421D01*
X73537500Y-50925000D01*
X73912500Y-50925000D01*
X73921076Y-50925421D01*
X73921076Y-50925421D01*
G37*
D17*
X73725000Y-51100000D03*
D18*
X67500000Y-48000000D03*
X65000000Y-48000000D03*
D14*
G36*
X72286958Y-48275710D02*
G01*
X72301276Y-48277834D01*
X72315317Y-48281351D01*
X72328946Y-48286228D01*
X72342031Y-48292417D01*
X72354447Y-48299858D01*
X72366073Y-48308481D01*
X72376798Y-48318202D01*
X72386519Y-48328927D01*
X72395142Y-48340553D01*
X72402583Y-48352969D01*
X72408772Y-48366054D01*
X72413649Y-48379683D01*
X72417166Y-48393724D01*
X72419290Y-48408042D01*
X72420000Y-48422500D01*
X72420000Y-48717500D01*
X72419290Y-48731958D01*
X72417166Y-48746276D01*
X72413649Y-48760317D01*
X72408772Y-48773946D01*
X72402583Y-48787031D01*
X72395142Y-48799447D01*
X72386519Y-48811073D01*
X72376798Y-48821798D01*
X72366073Y-48831519D01*
X72354447Y-48840142D01*
X72342031Y-48847583D01*
X72328946Y-48853772D01*
X72315317Y-48858649D01*
X72301276Y-48862166D01*
X72286958Y-48864290D01*
X72272500Y-48865000D01*
X71927500Y-48865000D01*
X71913042Y-48864290D01*
X71898724Y-48862166D01*
X71884683Y-48858649D01*
X71871054Y-48853772D01*
X71857969Y-48847583D01*
X71845553Y-48840142D01*
X71833927Y-48831519D01*
X71823202Y-48821798D01*
X71813481Y-48811073D01*
X71804858Y-48799447D01*
X71797417Y-48787031D01*
X71791228Y-48773946D01*
X71786351Y-48760317D01*
X71782834Y-48746276D01*
X71780710Y-48731958D01*
X71780000Y-48717500D01*
X71780000Y-48422500D01*
X71780710Y-48408042D01*
X71782834Y-48393724D01*
X71786351Y-48379683D01*
X71791228Y-48366054D01*
X71797417Y-48352969D01*
X71804858Y-48340553D01*
X71813481Y-48328927D01*
X71823202Y-48318202D01*
X71833927Y-48308481D01*
X71845553Y-48299858D01*
X71857969Y-48292417D01*
X71871054Y-48286228D01*
X71884683Y-48281351D01*
X71898724Y-48277834D01*
X71913042Y-48275710D01*
X71927500Y-48275000D01*
X72272500Y-48275000D01*
X72286958Y-48275710D01*
X72286958Y-48275710D01*
G37*
D15*
X72100000Y-48570000D03*
D14*
G36*
X72286958Y-47305710D02*
G01*
X72301276Y-47307834D01*
X72315317Y-47311351D01*
X72328946Y-47316228D01*
X72342031Y-47322417D01*
X72354447Y-47329858D01*
X72366073Y-47338481D01*
X72376798Y-47348202D01*
X72386519Y-47358927D01*
X72395142Y-47370553D01*
X72402583Y-47382969D01*
X72408772Y-47396054D01*
X72413649Y-47409683D01*
X72417166Y-47423724D01*
X72419290Y-47438042D01*
X72420000Y-47452500D01*
X72420000Y-47747500D01*
X72419290Y-47761958D01*
X72417166Y-47776276D01*
X72413649Y-47790317D01*
X72408772Y-47803946D01*
X72402583Y-47817031D01*
X72395142Y-47829447D01*
X72386519Y-47841073D01*
X72376798Y-47851798D01*
X72366073Y-47861519D01*
X72354447Y-47870142D01*
X72342031Y-47877583D01*
X72328946Y-47883772D01*
X72315317Y-47888649D01*
X72301276Y-47892166D01*
X72286958Y-47894290D01*
X72272500Y-47895000D01*
X71927500Y-47895000D01*
X71913042Y-47894290D01*
X71898724Y-47892166D01*
X71884683Y-47888649D01*
X71871054Y-47883772D01*
X71857969Y-47877583D01*
X71845553Y-47870142D01*
X71833927Y-47861519D01*
X71823202Y-47851798D01*
X71813481Y-47841073D01*
X71804858Y-47829447D01*
X71797417Y-47817031D01*
X71791228Y-47803946D01*
X71786351Y-47790317D01*
X71782834Y-47776276D01*
X71780710Y-47761958D01*
X71780000Y-47747500D01*
X71780000Y-47452500D01*
X71780710Y-47438042D01*
X71782834Y-47423724D01*
X71786351Y-47409683D01*
X71791228Y-47396054D01*
X71797417Y-47382969D01*
X71804858Y-47370553D01*
X71813481Y-47358927D01*
X71823202Y-47348202D01*
X71833927Y-47338481D01*
X71845553Y-47329858D01*
X71857969Y-47322417D01*
X71871054Y-47316228D01*
X71884683Y-47311351D01*
X71898724Y-47307834D01*
X71913042Y-47305710D01*
X71927500Y-47305000D01*
X72272500Y-47305000D01*
X72286958Y-47305710D01*
X72286958Y-47305710D01*
G37*
D15*
X72100000Y-47600000D03*
D14*
G36*
X70886958Y-47305710D02*
G01*
X70901276Y-47307834D01*
X70915317Y-47311351D01*
X70928946Y-47316228D01*
X70942031Y-47322417D01*
X70954447Y-47329858D01*
X70966073Y-47338481D01*
X70976798Y-47348202D01*
X70986519Y-47358927D01*
X70995142Y-47370553D01*
X71002583Y-47382969D01*
X71008772Y-47396054D01*
X71013649Y-47409683D01*
X71017166Y-47423724D01*
X71019290Y-47438042D01*
X71020000Y-47452500D01*
X71020000Y-47747500D01*
X71019290Y-47761958D01*
X71017166Y-47776276D01*
X71013649Y-47790317D01*
X71008772Y-47803946D01*
X71002583Y-47817031D01*
X70995142Y-47829447D01*
X70986519Y-47841073D01*
X70976798Y-47851798D01*
X70966073Y-47861519D01*
X70954447Y-47870142D01*
X70942031Y-47877583D01*
X70928946Y-47883772D01*
X70915317Y-47888649D01*
X70901276Y-47892166D01*
X70886958Y-47894290D01*
X70872500Y-47895000D01*
X70527500Y-47895000D01*
X70513042Y-47894290D01*
X70498724Y-47892166D01*
X70484683Y-47888649D01*
X70471054Y-47883772D01*
X70457969Y-47877583D01*
X70445553Y-47870142D01*
X70433927Y-47861519D01*
X70423202Y-47851798D01*
X70413481Y-47841073D01*
X70404858Y-47829447D01*
X70397417Y-47817031D01*
X70391228Y-47803946D01*
X70386351Y-47790317D01*
X70382834Y-47776276D01*
X70380710Y-47761958D01*
X70380000Y-47747500D01*
X70380000Y-47452500D01*
X70380710Y-47438042D01*
X70382834Y-47423724D01*
X70386351Y-47409683D01*
X70391228Y-47396054D01*
X70397417Y-47382969D01*
X70404858Y-47370553D01*
X70413481Y-47358927D01*
X70423202Y-47348202D01*
X70433927Y-47338481D01*
X70445553Y-47329858D01*
X70457969Y-47322417D01*
X70471054Y-47316228D01*
X70484683Y-47311351D01*
X70498724Y-47307834D01*
X70513042Y-47305710D01*
X70527500Y-47305000D01*
X70872500Y-47305000D01*
X70886958Y-47305710D01*
X70886958Y-47305710D01*
G37*
D15*
X70700000Y-47600000D03*
D14*
G36*
X70886958Y-48275710D02*
G01*
X70901276Y-48277834D01*
X70915317Y-48281351D01*
X70928946Y-48286228D01*
X70942031Y-48292417D01*
X70954447Y-48299858D01*
X70966073Y-48308481D01*
X70976798Y-48318202D01*
X70986519Y-48328927D01*
X70995142Y-48340553D01*
X71002583Y-48352969D01*
X71008772Y-48366054D01*
X71013649Y-48379683D01*
X71017166Y-48393724D01*
X71019290Y-48408042D01*
X71020000Y-48422500D01*
X71020000Y-48717500D01*
X71019290Y-48731958D01*
X71017166Y-48746276D01*
X71013649Y-48760317D01*
X71008772Y-48773946D01*
X71002583Y-48787031D01*
X70995142Y-48799447D01*
X70986519Y-48811073D01*
X70976798Y-48821798D01*
X70966073Y-48831519D01*
X70954447Y-48840142D01*
X70942031Y-48847583D01*
X70928946Y-48853772D01*
X70915317Y-48858649D01*
X70901276Y-48862166D01*
X70886958Y-48864290D01*
X70872500Y-48865000D01*
X70527500Y-48865000D01*
X70513042Y-48864290D01*
X70498724Y-48862166D01*
X70484683Y-48858649D01*
X70471054Y-48853772D01*
X70457969Y-48847583D01*
X70445553Y-48840142D01*
X70433927Y-48831519D01*
X70423202Y-48821798D01*
X70413481Y-48811073D01*
X70404858Y-48799447D01*
X70397417Y-48787031D01*
X70391228Y-48773946D01*
X70386351Y-48760317D01*
X70382834Y-48746276D01*
X70380710Y-48731958D01*
X70380000Y-48717500D01*
X70380000Y-48422500D01*
X70380710Y-48408042D01*
X70382834Y-48393724D01*
X70386351Y-48379683D01*
X70391228Y-48366054D01*
X70397417Y-48352969D01*
X70404858Y-48340553D01*
X70413481Y-48328927D01*
X70423202Y-48318202D01*
X70433927Y-48308481D01*
X70445553Y-48299858D01*
X70457969Y-48292417D01*
X70471054Y-48286228D01*
X70484683Y-48281351D01*
X70498724Y-48277834D01*
X70513042Y-48275710D01*
X70527500Y-48275000D01*
X70872500Y-48275000D01*
X70886958Y-48275710D01*
X70886958Y-48275710D01*
G37*
D15*
X70700000Y-48570000D03*
D14*
G36*
X69486958Y-50135710D02*
G01*
X69501276Y-50137834D01*
X69515317Y-50141351D01*
X69528946Y-50146228D01*
X69542031Y-50152417D01*
X69554447Y-50159858D01*
X69566073Y-50168481D01*
X69576798Y-50178202D01*
X69586519Y-50188927D01*
X69595142Y-50200553D01*
X69602583Y-50212969D01*
X69608772Y-50226054D01*
X69613649Y-50239683D01*
X69617166Y-50253724D01*
X69619290Y-50268042D01*
X69620000Y-50282500D01*
X69620000Y-50577500D01*
X69619290Y-50591958D01*
X69617166Y-50606276D01*
X69613649Y-50620317D01*
X69608772Y-50633946D01*
X69602583Y-50647031D01*
X69595142Y-50659447D01*
X69586519Y-50671073D01*
X69576798Y-50681798D01*
X69566073Y-50691519D01*
X69554447Y-50700142D01*
X69542031Y-50707583D01*
X69528946Y-50713772D01*
X69515317Y-50718649D01*
X69501276Y-50722166D01*
X69486958Y-50724290D01*
X69472500Y-50725000D01*
X69127500Y-50725000D01*
X69113042Y-50724290D01*
X69098724Y-50722166D01*
X69084683Y-50718649D01*
X69071054Y-50713772D01*
X69057969Y-50707583D01*
X69045553Y-50700142D01*
X69033927Y-50691519D01*
X69023202Y-50681798D01*
X69013481Y-50671073D01*
X69004858Y-50659447D01*
X68997417Y-50647031D01*
X68991228Y-50633946D01*
X68986351Y-50620317D01*
X68982834Y-50606276D01*
X68980710Y-50591958D01*
X68980000Y-50577500D01*
X68980000Y-50282500D01*
X68980710Y-50268042D01*
X68982834Y-50253724D01*
X68986351Y-50239683D01*
X68991228Y-50226054D01*
X68997417Y-50212969D01*
X69004858Y-50200553D01*
X69013481Y-50188927D01*
X69023202Y-50178202D01*
X69033927Y-50168481D01*
X69045553Y-50159858D01*
X69057969Y-50152417D01*
X69071054Y-50146228D01*
X69084683Y-50141351D01*
X69098724Y-50137834D01*
X69113042Y-50135710D01*
X69127500Y-50135000D01*
X69472500Y-50135000D01*
X69486958Y-50135710D01*
X69486958Y-50135710D01*
G37*
D15*
X69300000Y-50430000D03*
D14*
G36*
X69486958Y-51105710D02*
G01*
X69501276Y-51107834D01*
X69515317Y-51111351D01*
X69528946Y-51116228D01*
X69542031Y-51122417D01*
X69554447Y-51129858D01*
X69566073Y-51138481D01*
X69576798Y-51148202D01*
X69586519Y-51158927D01*
X69595142Y-51170553D01*
X69602583Y-51182969D01*
X69608772Y-51196054D01*
X69613649Y-51209683D01*
X69617166Y-51223724D01*
X69619290Y-51238042D01*
X69620000Y-51252500D01*
X69620000Y-51547500D01*
X69619290Y-51561958D01*
X69617166Y-51576276D01*
X69613649Y-51590317D01*
X69608772Y-51603946D01*
X69602583Y-51617031D01*
X69595142Y-51629447D01*
X69586519Y-51641073D01*
X69576798Y-51651798D01*
X69566073Y-51661519D01*
X69554447Y-51670142D01*
X69542031Y-51677583D01*
X69528946Y-51683772D01*
X69515317Y-51688649D01*
X69501276Y-51692166D01*
X69486958Y-51694290D01*
X69472500Y-51695000D01*
X69127500Y-51695000D01*
X69113042Y-51694290D01*
X69098724Y-51692166D01*
X69084683Y-51688649D01*
X69071054Y-51683772D01*
X69057969Y-51677583D01*
X69045553Y-51670142D01*
X69033927Y-51661519D01*
X69023202Y-51651798D01*
X69013481Y-51641073D01*
X69004858Y-51629447D01*
X68997417Y-51617031D01*
X68991228Y-51603946D01*
X68986351Y-51590317D01*
X68982834Y-51576276D01*
X68980710Y-51561958D01*
X68980000Y-51547500D01*
X68980000Y-51252500D01*
X68980710Y-51238042D01*
X68982834Y-51223724D01*
X68986351Y-51209683D01*
X68991228Y-51196054D01*
X68997417Y-51182969D01*
X69004858Y-51170553D01*
X69013481Y-51158927D01*
X69023202Y-51148202D01*
X69033927Y-51138481D01*
X69045553Y-51129858D01*
X69057969Y-51122417D01*
X69071054Y-51116228D01*
X69084683Y-51111351D01*
X69098724Y-51107834D01*
X69113042Y-51105710D01*
X69127500Y-51105000D01*
X69472500Y-51105000D01*
X69486958Y-51105710D01*
X69486958Y-51105710D01*
G37*
D15*
X69300000Y-51400000D03*
D14*
G36*
X70031958Y-55980710D02*
G01*
X70046276Y-55982834D01*
X70060317Y-55986351D01*
X70073946Y-55991228D01*
X70087031Y-55997417D01*
X70099447Y-56004858D01*
X70111073Y-56013481D01*
X70121798Y-56023202D01*
X70131519Y-56033927D01*
X70140142Y-56045553D01*
X70147583Y-56057969D01*
X70153772Y-56071054D01*
X70158649Y-56084683D01*
X70162166Y-56098724D01*
X70164290Y-56113042D01*
X70165000Y-56127500D01*
X70165000Y-56472500D01*
X70164290Y-56486958D01*
X70162166Y-56501276D01*
X70158649Y-56515317D01*
X70153772Y-56528946D01*
X70147583Y-56542031D01*
X70140142Y-56554447D01*
X70131519Y-56566073D01*
X70121798Y-56576798D01*
X70111073Y-56586519D01*
X70099447Y-56595142D01*
X70087031Y-56602583D01*
X70073946Y-56608772D01*
X70060317Y-56613649D01*
X70046276Y-56617166D01*
X70031958Y-56619290D01*
X70017500Y-56620000D01*
X69722500Y-56620000D01*
X69708042Y-56619290D01*
X69693724Y-56617166D01*
X69679683Y-56613649D01*
X69666054Y-56608772D01*
X69652969Y-56602583D01*
X69640553Y-56595142D01*
X69628927Y-56586519D01*
X69618202Y-56576798D01*
X69608481Y-56566073D01*
X69599858Y-56554447D01*
X69592417Y-56542031D01*
X69586228Y-56528946D01*
X69581351Y-56515317D01*
X69577834Y-56501276D01*
X69575710Y-56486958D01*
X69575000Y-56472500D01*
X69575000Y-56127500D01*
X69575710Y-56113042D01*
X69577834Y-56098724D01*
X69581351Y-56084683D01*
X69586228Y-56071054D01*
X69592417Y-56057969D01*
X69599858Y-56045553D01*
X69608481Y-56033927D01*
X69618202Y-56023202D01*
X69628927Y-56013481D01*
X69640553Y-56004858D01*
X69652969Y-55997417D01*
X69666054Y-55991228D01*
X69679683Y-55986351D01*
X69693724Y-55982834D01*
X69708042Y-55980710D01*
X69722500Y-55980000D01*
X70017500Y-55980000D01*
X70031958Y-55980710D01*
X70031958Y-55980710D01*
G37*
D15*
X69870000Y-56300000D03*
D14*
G36*
X69061958Y-55980710D02*
G01*
X69076276Y-55982834D01*
X69090317Y-55986351D01*
X69103946Y-55991228D01*
X69117031Y-55997417D01*
X69129447Y-56004858D01*
X69141073Y-56013481D01*
X69151798Y-56023202D01*
X69161519Y-56033927D01*
X69170142Y-56045553D01*
X69177583Y-56057969D01*
X69183772Y-56071054D01*
X69188649Y-56084683D01*
X69192166Y-56098724D01*
X69194290Y-56113042D01*
X69195000Y-56127500D01*
X69195000Y-56472500D01*
X69194290Y-56486958D01*
X69192166Y-56501276D01*
X69188649Y-56515317D01*
X69183772Y-56528946D01*
X69177583Y-56542031D01*
X69170142Y-56554447D01*
X69161519Y-56566073D01*
X69151798Y-56576798D01*
X69141073Y-56586519D01*
X69129447Y-56595142D01*
X69117031Y-56602583D01*
X69103946Y-56608772D01*
X69090317Y-56613649D01*
X69076276Y-56617166D01*
X69061958Y-56619290D01*
X69047500Y-56620000D01*
X68752500Y-56620000D01*
X68738042Y-56619290D01*
X68723724Y-56617166D01*
X68709683Y-56613649D01*
X68696054Y-56608772D01*
X68682969Y-56602583D01*
X68670553Y-56595142D01*
X68658927Y-56586519D01*
X68648202Y-56576798D01*
X68638481Y-56566073D01*
X68629858Y-56554447D01*
X68622417Y-56542031D01*
X68616228Y-56528946D01*
X68611351Y-56515317D01*
X68607834Y-56501276D01*
X68605710Y-56486958D01*
X68605000Y-56472500D01*
X68605000Y-56127500D01*
X68605710Y-56113042D01*
X68607834Y-56098724D01*
X68611351Y-56084683D01*
X68616228Y-56071054D01*
X68622417Y-56057969D01*
X68629858Y-56045553D01*
X68638481Y-56033927D01*
X68648202Y-56023202D01*
X68658927Y-56013481D01*
X68670553Y-56004858D01*
X68682969Y-55997417D01*
X68696054Y-55991228D01*
X68709683Y-55986351D01*
X68723724Y-55982834D01*
X68738042Y-55980710D01*
X68752500Y-55980000D01*
X69047500Y-55980000D01*
X69061958Y-55980710D01*
X69061958Y-55980710D01*
G37*
D15*
X68900000Y-56300000D03*
D14*
G36*
X61591958Y-57880710D02*
G01*
X61606276Y-57882834D01*
X61620317Y-57886351D01*
X61633946Y-57891228D01*
X61647031Y-57897417D01*
X61659447Y-57904858D01*
X61671073Y-57913481D01*
X61681798Y-57923202D01*
X61691519Y-57933927D01*
X61700142Y-57945553D01*
X61707583Y-57957969D01*
X61713772Y-57971054D01*
X61718649Y-57984683D01*
X61722166Y-57998724D01*
X61724290Y-58013042D01*
X61725000Y-58027500D01*
X61725000Y-58372500D01*
X61724290Y-58386958D01*
X61722166Y-58401276D01*
X61718649Y-58415317D01*
X61713772Y-58428946D01*
X61707583Y-58442031D01*
X61700142Y-58454447D01*
X61691519Y-58466073D01*
X61681798Y-58476798D01*
X61671073Y-58486519D01*
X61659447Y-58495142D01*
X61647031Y-58502583D01*
X61633946Y-58508772D01*
X61620317Y-58513649D01*
X61606276Y-58517166D01*
X61591958Y-58519290D01*
X61577500Y-58520000D01*
X61282500Y-58520000D01*
X61268042Y-58519290D01*
X61253724Y-58517166D01*
X61239683Y-58513649D01*
X61226054Y-58508772D01*
X61212969Y-58502583D01*
X61200553Y-58495142D01*
X61188927Y-58486519D01*
X61178202Y-58476798D01*
X61168481Y-58466073D01*
X61159858Y-58454447D01*
X61152417Y-58442031D01*
X61146228Y-58428946D01*
X61141351Y-58415317D01*
X61137834Y-58401276D01*
X61135710Y-58386958D01*
X61135000Y-58372500D01*
X61135000Y-58027500D01*
X61135710Y-58013042D01*
X61137834Y-57998724D01*
X61141351Y-57984683D01*
X61146228Y-57971054D01*
X61152417Y-57957969D01*
X61159858Y-57945553D01*
X61168481Y-57933927D01*
X61178202Y-57923202D01*
X61188927Y-57913481D01*
X61200553Y-57904858D01*
X61212969Y-57897417D01*
X61226054Y-57891228D01*
X61239683Y-57886351D01*
X61253724Y-57882834D01*
X61268042Y-57880710D01*
X61282500Y-57880000D01*
X61577500Y-57880000D01*
X61591958Y-57880710D01*
X61591958Y-57880710D01*
G37*
D15*
X61430000Y-58200000D03*
D14*
G36*
X62561958Y-57880710D02*
G01*
X62576276Y-57882834D01*
X62590317Y-57886351D01*
X62603946Y-57891228D01*
X62617031Y-57897417D01*
X62629447Y-57904858D01*
X62641073Y-57913481D01*
X62651798Y-57923202D01*
X62661519Y-57933927D01*
X62670142Y-57945553D01*
X62677583Y-57957969D01*
X62683772Y-57971054D01*
X62688649Y-57984683D01*
X62692166Y-57998724D01*
X62694290Y-58013042D01*
X62695000Y-58027500D01*
X62695000Y-58372500D01*
X62694290Y-58386958D01*
X62692166Y-58401276D01*
X62688649Y-58415317D01*
X62683772Y-58428946D01*
X62677583Y-58442031D01*
X62670142Y-58454447D01*
X62661519Y-58466073D01*
X62651798Y-58476798D01*
X62641073Y-58486519D01*
X62629447Y-58495142D01*
X62617031Y-58502583D01*
X62603946Y-58508772D01*
X62590317Y-58513649D01*
X62576276Y-58517166D01*
X62561958Y-58519290D01*
X62547500Y-58520000D01*
X62252500Y-58520000D01*
X62238042Y-58519290D01*
X62223724Y-58517166D01*
X62209683Y-58513649D01*
X62196054Y-58508772D01*
X62182969Y-58502583D01*
X62170553Y-58495142D01*
X62158927Y-58486519D01*
X62148202Y-58476798D01*
X62138481Y-58466073D01*
X62129858Y-58454447D01*
X62122417Y-58442031D01*
X62116228Y-58428946D01*
X62111351Y-58415317D01*
X62107834Y-58401276D01*
X62105710Y-58386958D01*
X62105000Y-58372500D01*
X62105000Y-58027500D01*
X62105710Y-58013042D01*
X62107834Y-57998724D01*
X62111351Y-57984683D01*
X62116228Y-57971054D01*
X62122417Y-57957969D01*
X62129858Y-57945553D01*
X62138481Y-57933927D01*
X62148202Y-57923202D01*
X62158927Y-57913481D01*
X62170553Y-57904858D01*
X62182969Y-57897417D01*
X62196054Y-57891228D01*
X62209683Y-57886351D01*
X62223724Y-57882834D01*
X62238042Y-57880710D01*
X62252500Y-57880000D01*
X62547500Y-57880000D01*
X62561958Y-57880710D01*
X62561958Y-57880710D01*
G37*
D15*
X62400000Y-58200000D03*
D14*
G36*
X67946958Y-55980710D02*
G01*
X67961276Y-55982834D01*
X67975317Y-55986351D01*
X67988946Y-55991228D01*
X68002031Y-55997417D01*
X68014447Y-56004858D01*
X68026073Y-56013481D01*
X68036798Y-56023202D01*
X68046519Y-56033927D01*
X68055142Y-56045553D01*
X68062583Y-56057969D01*
X68068772Y-56071054D01*
X68073649Y-56084683D01*
X68077166Y-56098724D01*
X68079290Y-56113042D01*
X68080000Y-56127500D01*
X68080000Y-56472500D01*
X68079290Y-56486958D01*
X68077166Y-56501276D01*
X68073649Y-56515317D01*
X68068772Y-56528946D01*
X68062583Y-56542031D01*
X68055142Y-56554447D01*
X68046519Y-56566073D01*
X68036798Y-56576798D01*
X68026073Y-56586519D01*
X68014447Y-56595142D01*
X68002031Y-56602583D01*
X67988946Y-56608772D01*
X67975317Y-56613649D01*
X67961276Y-56617166D01*
X67946958Y-56619290D01*
X67932500Y-56620000D01*
X67637500Y-56620000D01*
X67623042Y-56619290D01*
X67608724Y-56617166D01*
X67594683Y-56613649D01*
X67581054Y-56608772D01*
X67567969Y-56602583D01*
X67555553Y-56595142D01*
X67543927Y-56586519D01*
X67533202Y-56576798D01*
X67523481Y-56566073D01*
X67514858Y-56554447D01*
X67507417Y-56542031D01*
X67501228Y-56528946D01*
X67496351Y-56515317D01*
X67492834Y-56501276D01*
X67490710Y-56486958D01*
X67490000Y-56472500D01*
X67490000Y-56127500D01*
X67490710Y-56113042D01*
X67492834Y-56098724D01*
X67496351Y-56084683D01*
X67501228Y-56071054D01*
X67507417Y-56057969D01*
X67514858Y-56045553D01*
X67523481Y-56033927D01*
X67533202Y-56023202D01*
X67543927Y-56013481D01*
X67555553Y-56004858D01*
X67567969Y-55997417D01*
X67581054Y-55991228D01*
X67594683Y-55986351D01*
X67608724Y-55982834D01*
X67623042Y-55980710D01*
X67637500Y-55980000D01*
X67932500Y-55980000D01*
X67946958Y-55980710D01*
X67946958Y-55980710D01*
G37*
D15*
X67785000Y-56300000D03*
D14*
G36*
X66976958Y-55980710D02*
G01*
X66991276Y-55982834D01*
X67005317Y-55986351D01*
X67018946Y-55991228D01*
X67032031Y-55997417D01*
X67044447Y-56004858D01*
X67056073Y-56013481D01*
X67066798Y-56023202D01*
X67076519Y-56033927D01*
X67085142Y-56045553D01*
X67092583Y-56057969D01*
X67098772Y-56071054D01*
X67103649Y-56084683D01*
X67107166Y-56098724D01*
X67109290Y-56113042D01*
X67110000Y-56127500D01*
X67110000Y-56472500D01*
X67109290Y-56486958D01*
X67107166Y-56501276D01*
X67103649Y-56515317D01*
X67098772Y-56528946D01*
X67092583Y-56542031D01*
X67085142Y-56554447D01*
X67076519Y-56566073D01*
X67066798Y-56576798D01*
X67056073Y-56586519D01*
X67044447Y-56595142D01*
X67032031Y-56602583D01*
X67018946Y-56608772D01*
X67005317Y-56613649D01*
X66991276Y-56617166D01*
X66976958Y-56619290D01*
X66962500Y-56620000D01*
X66667500Y-56620000D01*
X66653042Y-56619290D01*
X66638724Y-56617166D01*
X66624683Y-56613649D01*
X66611054Y-56608772D01*
X66597969Y-56602583D01*
X66585553Y-56595142D01*
X66573927Y-56586519D01*
X66563202Y-56576798D01*
X66553481Y-56566073D01*
X66544858Y-56554447D01*
X66537417Y-56542031D01*
X66531228Y-56528946D01*
X66526351Y-56515317D01*
X66522834Y-56501276D01*
X66520710Y-56486958D01*
X66520000Y-56472500D01*
X66520000Y-56127500D01*
X66520710Y-56113042D01*
X66522834Y-56098724D01*
X66526351Y-56084683D01*
X66531228Y-56071054D01*
X66537417Y-56057969D01*
X66544858Y-56045553D01*
X66553481Y-56033927D01*
X66563202Y-56023202D01*
X66573927Y-56013481D01*
X66585553Y-56004858D01*
X66597969Y-55997417D01*
X66611054Y-55991228D01*
X66624683Y-55986351D01*
X66638724Y-55982834D01*
X66653042Y-55980710D01*
X66667500Y-55980000D01*
X66962500Y-55980000D01*
X66976958Y-55980710D01*
X66976958Y-55980710D01*
G37*
D15*
X66815000Y-56300000D03*
D14*
G36*
X62186958Y-47675710D02*
G01*
X62201276Y-47677834D01*
X62215317Y-47681351D01*
X62228946Y-47686228D01*
X62242031Y-47692417D01*
X62254447Y-47699858D01*
X62266073Y-47708481D01*
X62276798Y-47718202D01*
X62286519Y-47728927D01*
X62295142Y-47740553D01*
X62302583Y-47752969D01*
X62308772Y-47766054D01*
X62313649Y-47779683D01*
X62317166Y-47793724D01*
X62319290Y-47808042D01*
X62320000Y-47822500D01*
X62320000Y-48117500D01*
X62319290Y-48131958D01*
X62317166Y-48146276D01*
X62313649Y-48160317D01*
X62308772Y-48173946D01*
X62302583Y-48187031D01*
X62295142Y-48199447D01*
X62286519Y-48211073D01*
X62276798Y-48221798D01*
X62266073Y-48231519D01*
X62254447Y-48240142D01*
X62242031Y-48247583D01*
X62228946Y-48253772D01*
X62215317Y-48258649D01*
X62201276Y-48262166D01*
X62186958Y-48264290D01*
X62172500Y-48265000D01*
X61827500Y-48265000D01*
X61813042Y-48264290D01*
X61798724Y-48262166D01*
X61784683Y-48258649D01*
X61771054Y-48253772D01*
X61757969Y-48247583D01*
X61745553Y-48240142D01*
X61733927Y-48231519D01*
X61723202Y-48221798D01*
X61713481Y-48211073D01*
X61704858Y-48199447D01*
X61697417Y-48187031D01*
X61691228Y-48173946D01*
X61686351Y-48160317D01*
X61682834Y-48146276D01*
X61680710Y-48131958D01*
X61680000Y-48117500D01*
X61680000Y-47822500D01*
X61680710Y-47808042D01*
X61682834Y-47793724D01*
X61686351Y-47779683D01*
X61691228Y-47766054D01*
X61697417Y-47752969D01*
X61704858Y-47740553D01*
X61713481Y-47728927D01*
X61723202Y-47718202D01*
X61733927Y-47708481D01*
X61745553Y-47699858D01*
X61757969Y-47692417D01*
X61771054Y-47686228D01*
X61784683Y-47681351D01*
X61798724Y-47677834D01*
X61813042Y-47675710D01*
X61827500Y-47675000D01*
X62172500Y-47675000D01*
X62186958Y-47675710D01*
X62186958Y-47675710D01*
G37*
D15*
X62000000Y-47970000D03*
D14*
G36*
X62186958Y-46705710D02*
G01*
X62201276Y-46707834D01*
X62215317Y-46711351D01*
X62228946Y-46716228D01*
X62242031Y-46722417D01*
X62254447Y-46729858D01*
X62266073Y-46738481D01*
X62276798Y-46748202D01*
X62286519Y-46758927D01*
X62295142Y-46770553D01*
X62302583Y-46782969D01*
X62308772Y-46796054D01*
X62313649Y-46809683D01*
X62317166Y-46823724D01*
X62319290Y-46838042D01*
X62320000Y-46852500D01*
X62320000Y-47147500D01*
X62319290Y-47161958D01*
X62317166Y-47176276D01*
X62313649Y-47190317D01*
X62308772Y-47203946D01*
X62302583Y-47217031D01*
X62295142Y-47229447D01*
X62286519Y-47241073D01*
X62276798Y-47251798D01*
X62266073Y-47261519D01*
X62254447Y-47270142D01*
X62242031Y-47277583D01*
X62228946Y-47283772D01*
X62215317Y-47288649D01*
X62201276Y-47292166D01*
X62186958Y-47294290D01*
X62172500Y-47295000D01*
X61827500Y-47295000D01*
X61813042Y-47294290D01*
X61798724Y-47292166D01*
X61784683Y-47288649D01*
X61771054Y-47283772D01*
X61757969Y-47277583D01*
X61745553Y-47270142D01*
X61733927Y-47261519D01*
X61723202Y-47251798D01*
X61713481Y-47241073D01*
X61704858Y-47229447D01*
X61697417Y-47217031D01*
X61691228Y-47203946D01*
X61686351Y-47190317D01*
X61682834Y-47176276D01*
X61680710Y-47161958D01*
X61680000Y-47147500D01*
X61680000Y-46852500D01*
X61680710Y-46838042D01*
X61682834Y-46823724D01*
X61686351Y-46809683D01*
X61691228Y-46796054D01*
X61697417Y-46782969D01*
X61704858Y-46770553D01*
X61713481Y-46758927D01*
X61723202Y-46748202D01*
X61733927Y-46738481D01*
X61745553Y-46729858D01*
X61757969Y-46722417D01*
X61771054Y-46716228D01*
X61784683Y-46711351D01*
X61798724Y-46707834D01*
X61813042Y-46705710D01*
X61827500Y-46705000D01*
X62172500Y-46705000D01*
X62186958Y-46705710D01*
X62186958Y-46705710D01*
G37*
D15*
X62000000Y-47000000D03*
D14*
G36*
X62646958Y-54080710D02*
G01*
X62661276Y-54082834D01*
X62675317Y-54086351D01*
X62688946Y-54091228D01*
X62702031Y-54097417D01*
X62714447Y-54104858D01*
X62726073Y-54113481D01*
X62736798Y-54123202D01*
X62746519Y-54133927D01*
X62755142Y-54145553D01*
X62762583Y-54157969D01*
X62768772Y-54171054D01*
X62773649Y-54184683D01*
X62777166Y-54198724D01*
X62779290Y-54213042D01*
X62780000Y-54227500D01*
X62780000Y-54572500D01*
X62779290Y-54586958D01*
X62777166Y-54601276D01*
X62773649Y-54615317D01*
X62768772Y-54628946D01*
X62762583Y-54642031D01*
X62755142Y-54654447D01*
X62746519Y-54666073D01*
X62736798Y-54676798D01*
X62726073Y-54686519D01*
X62714447Y-54695142D01*
X62702031Y-54702583D01*
X62688946Y-54708772D01*
X62675317Y-54713649D01*
X62661276Y-54717166D01*
X62646958Y-54719290D01*
X62632500Y-54720000D01*
X62337500Y-54720000D01*
X62323042Y-54719290D01*
X62308724Y-54717166D01*
X62294683Y-54713649D01*
X62281054Y-54708772D01*
X62267969Y-54702583D01*
X62255553Y-54695142D01*
X62243927Y-54686519D01*
X62233202Y-54676798D01*
X62223481Y-54666073D01*
X62214858Y-54654447D01*
X62207417Y-54642031D01*
X62201228Y-54628946D01*
X62196351Y-54615317D01*
X62192834Y-54601276D01*
X62190710Y-54586958D01*
X62190000Y-54572500D01*
X62190000Y-54227500D01*
X62190710Y-54213042D01*
X62192834Y-54198724D01*
X62196351Y-54184683D01*
X62201228Y-54171054D01*
X62207417Y-54157969D01*
X62214858Y-54145553D01*
X62223481Y-54133927D01*
X62233202Y-54123202D01*
X62243927Y-54113481D01*
X62255553Y-54104858D01*
X62267969Y-54097417D01*
X62281054Y-54091228D01*
X62294683Y-54086351D01*
X62308724Y-54082834D01*
X62323042Y-54080710D01*
X62337500Y-54080000D01*
X62632500Y-54080000D01*
X62646958Y-54080710D01*
X62646958Y-54080710D01*
G37*
D15*
X62485000Y-54400000D03*
D14*
G36*
X61676958Y-54080710D02*
G01*
X61691276Y-54082834D01*
X61705317Y-54086351D01*
X61718946Y-54091228D01*
X61732031Y-54097417D01*
X61744447Y-54104858D01*
X61756073Y-54113481D01*
X61766798Y-54123202D01*
X61776519Y-54133927D01*
X61785142Y-54145553D01*
X61792583Y-54157969D01*
X61798772Y-54171054D01*
X61803649Y-54184683D01*
X61807166Y-54198724D01*
X61809290Y-54213042D01*
X61810000Y-54227500D01*
X61810000Y-54572500D01*
X61809290Y-54586958D01*
X61807166Y-54601276D01*
X61803649Y-54615317D01*
X61798772Y-54628946D01*
X61792583Y-54642031D01*
X61785142Y-54654447D01*
X61776519Y-54666073D01*
X61766798Y-54676798D01*
X61756073Y-54686519D01*
X61744447Y-54695142D01*
X61732031Y-54702583D01*
X61718946Y-54708772D01*
X61705317Y-54713649D01*
X61691276Y-54717166D01*
X61676958Y-54719290D01*
X61662500Y-54720000D01*
X61367500Y-54720000D01*
X61353042Y-54719290D01*
X61338724Y-54717166D01*
X61324683Y-54713649D01*
X61311054Y-54708772D01*
X61297969Y-54702583D01*
X61285553Y-54695142D01*
X61273927Y-54686519D01*
X61263202Y-54676798D01*
X61253481Y-54666073D01*
X61244858Y-54654447D01*
X61237417Y-54642031D01*
X61231228Y-54628946D01*
X61226351Y-54615317D01*
X61222834Y-54601276D01*
X61220710Y-54586958D01*
X61220000Y-54572500D01*
X61220000Y-54227500D01*
X61220710Y-54213042D01*
X61222834Y-54198724D01*
X61226351Y-54184683D01*
X61231228Y-54171054D01*
X61237417Y-54157969D01*
X61244858Y-54145553D01*
X61253481Y-54133927D01*
X61263202Y-54123202D01*
X61273927Y-54113481D01*
X61285553Y-54104858D01*
X61297969Y-54097417D01*
X61311054Y-54091228D01*
X61324683Y-54086351D01*
X61338724Y-54082834D01*
X61353042Y-54080710D01*
X61367500Y-54080000D01*
X61662500Y-54080000D01*
X61676958Y-54080710D01*
X61676958Y-54080710D01*
G37*
D15*
X61515000Y-54400000D03*
D19*
X73100000Y-58300000D03*
X72150000Y-56300000D03*
X74050000Y-56300000D03*
D14*
G36*
X62277691Y-49988553D02*
G01*
X62298926Y-49991703D01*
X62319750Y-49996919D01*
X62339962Y-50004151D01*
X62359368Y-50013330D01*
X62377781Y-50024366D01*
X62395024Y-50037154D01*
X62410930Y-50051570D01*
X62425346Y-50067476D01*
X62438134Y-50084719D01*
X62449170Y-50103132D01*
X62458349Y-50122538D01*
X62465581Y-50142750D01*
X62470797Y-50163574D01*
X62473947Y-50184809D01*
X62475000Y-50206250D01*
X62475000Y-50643750D01*
X62473947Y-50665191D01*
X62470797Y-50686426D01*
X62465581Y-50707250D01*
X62458349Y-50727462D01*
X62449170Y-50746868D01*
X62438134Y-50765281D01*
X62425346Y-50782524D01*
X62410930Y-50798430D01*
X62395024Y-50812846D01*
X62377781Y-50825634D01*
X62359368Y-50836670D01*
X62339962Y-50845849D01*
X62319750Y-50853081D01*
X62298926Y-50858297D01*
X62277691Y-50861447D01*
X62256250Y-50862500D01*
X61743750Y-50862500D01*
X61722309Y-50861447D01*
X61701074Y-50858297D01*
X61680250Y-50853081D01*
X61660038Y-50845849D01*
X61640632Y-50836670D01*
X61622219Y-50825634D01*
X61604976Y-50812846D01*
X61589070Y-50798430D01*
X61574654Y-50782524D01*
X61561866Y-50765281D01*
X61550830Y-50746868D01*
X61541651Y-50727462D01*
X61534419Y-50707250D01*
X61529203Y-50686426D01*
X61526053Y-50665191D01*
X61525000Y-50643750D01*
X61525000Y-50206250D01*
X61526053Y-50184809D01*
X61529203Y-50163574D01*
X61534419Y-50142750D01*
X61541651Y-50122538D01*
X61550830Y-50103132D01*
X61561866Y-50084719D01*
X61574654Y-50067476D01*
X61589070Y-50051570D01*
X61604976Y-50037154D01*
X61622219Y-50024366D01*
X61640632Y-50013330D01*
X61660038Y-50004151D01*
X61680250Y-49996919D01*
X61701074Y-49991703D01*
X61722309Y-49988553D01*
X61743750Y-49987500D01*
X62256250Y-49987500D01*
X62277691Y-49988553D01*
X62277691Y-49988553D01*
G37*
D20*
X62000000Y-50425000D03*
D14*
G36*
X62277691Y-51563553D02*
G01*
X62298926Y-51566703D01*
X62319750Y-51571919D01*
X62339962Y-51579151D01*
X62359368Y-51588330D01*
X62377781Y-51599366D01*
X62395024Y-51612154D01*
X62410930Y-51626570D01*
X62425346Y-51642476D01*
X62438134Y-51659719D01*
X62449170Y-51678132D01*
X62458349Y-51697538D01*
X62465581Y-51717750D01*
X62470797Y-51738574D01*
X62473947Y-51759809D01*
X62475000Y-51781250D01*
X62475000Y-52218750D01*
X62473947Y-52240191D01*
X62470797Y-52261426D01*
X62465581Y-52282250D01*
X62458349Y-52302462D01*
X62449170Y-52321868D01*
X62438134Y-52340281D01*
X62425346Y-52357524D01*
X62410930Y-52373430D01*
X62395024Y-52387846D01*
X62377781Y-52400634D01*
X62359368Y-52411670D01*
X62339962Y-52420849D01*
X62319750Y-52428081D01*
X62298926Y-52433297D01*
X62277691Y-52436447D01*
X62256250Y-52437500D01*
X61743750Y-52437500D01*
X61722309Y-52436447D01*
X61701074Y-52433297D01*
X61680250Y-52428081D01*
X61660038Y-52420849D01*
X61640632Y-52411670D01*
X61622219Y-52400634D01*
X61604976Y-52387846D01*
X61589070Y-52373430D01*
X61574654Y-52357524D01*
X61561866Y-52340281D01*
X61550830Y-52321868D01*
X61541651Y-52302462D01*
X61534419Y-52282250D01*
X61529203Y-52261426D01*
X61526053Y-52240191D01*
X61525000Y-52218750D01*
X61525000Y-51781250D01*
X61526053Y-51759809D01*
X61529203Y-51738574D01*
X61534419Y-51717750D01*
X61541651Y-51697538D01*
X61550830Y-51678132D01*
X61561866Y-51659719D01*
X61574654Y-51642476D01*
X61589070Y-51626570D01*
X61604976Y-51612154D01*
X61622219Y-51599366D01*
X61640632Y-51588330D01*
X61660038Y-51579151D01*
X61680250Y-51571919D01*
X61701074Y-51566703D01*
X61722309Y-51563553D01*
X61743750Y-51562500D01*
X62256250Y-51562500D01*
X62277691Y-51563553D01*
X62277691Y-51563553D01*
G37*
D20*
X62000000Y-52000000D03*
D14*
G36*
X61591958Y-56080710D02*
G01*
X61606276Y-56082834D01*
X61620317Y-56086351D01*
X61633946Y-56091228D01*
X61647031Y-56097417D01*
X61659447Y-56104858D01*
X61671073Y-56113481D01*
X61681798Y-56123202D01*
X61691519Y-56133927D01*
X61700142Y-56145553D01*
X61707583Y-56157969D01*
X61713772Y-56171054D01*
X61718649Y-56184683D01*
X61722166Y-56198724D01*
X61724290Y-56213042D01*
X61725000Y-56227500D01*
X61725000Y-56572500D01*
X61724290Y-56586958D01*
X61722166Y-56601276D01*
X61718649Y-56615317D01*
X61713772Y-56628946D01*
X61707583Y-56642031D01*
X61700142Y-56654447D01*
X61691519Y-56666073D01*
X61681798Y-56676798D01*
X61671073Y-56686519D01*
X61659447Y-56695142D01*
X61647031Y-56702583D01*
X61633946Y-56708772D01*
X61620317Y-56713649D01*
X61606276Y-56717166D01*
X61591958Y-56719290D01*
X61577500Y-56720000D01*
X61282500Y-56720000D01*
X61268042Y-56719290D01*
X61253724Y-56717166D01*
X61239683Y-56713649D01*
X61226054Y-56708772D01*
X61212969Y-56702583D01*
X61200553Y-56695142D01*
X61188927Y-56686519D01*
X61178202Y-56676798D01*
X61168481Y-56666073D01*
X61159858Y-56654447D01*
X61152417Y-56642031D01*
X61146228Y-56628946D01*
X61141351Y-56615317D01*
X61137834Y-56601276D01*
X61135710Y-56586958D01*
X61135000Y-56572500D01*
X61135000Y-56227500D01*
X61135710Y-56213042D01*
X61137834Y-56198724D01*
X61141351Y-56184683D01*
X61146228Y-56171054D01*
X61152417Y-56157969D01*
X61159858Y-56145553D01*
X61168481Y-56133927D01*
X61178202Y-56123202D01*
X61188927Y-56113481D01*
X61200553Y-56104858D01*
X61212969Y-56097417D01*
X61226054Y-56091228D01*
X61239683Y-56086351D01*
X61253724Y-56082834D01*
X61268042Y-56080710D01*
X61282500Y-56080000D01*
X61577500Y-56080000D01*
X61591958Y-56080710D01*
X61591958Y-56080710D01*
G37*
D15*
X61430000Y-56400000D03*
D14*
G36*
X62561958Y-56080710D02*
G01*
X62576276Y-56082834D01*
X62590317Y-56086351D01*
X62603946Y-56091228D01*
X62617031Y-56097417D01*
X62629447Y-56104858D01*
X62641073Y-56113481D01*
X62651798Y-56123202D01*
X62661519Y-56133927D01*
X62670142Y-56145553D01*
X62677583Y-56157969D01*
X62683772Y-56171054D01*
X62688649Y-56184683D01*
X62692166Y-56198724D01*
X62694290Y-56213042D01*
X62695000Y-56227500D01*
X62695000Y-56572500D01*
X62694290Y-56586958D01*
X62692166Y-56601276D01*
X62688649Y-56615317D01*
X62683772Y-56628946D01*
X62677583Y-56642031D01*
X62670142Y-56654447D01*
X62661519Y-56666073D01*
X62651798Y-56676798D01*
X62641073Y-56686519D01*
X62629447Y-56695142D01*
X62617031Y-56702583D01*
X62603946Y-56708772D01*
X62590317Y-56713649D01*
X62576276Y-56717166D01*
X62561958Y-56719290D01*
X62547500Y-56720000D01*
X62252500Y-56720000D01*
X62238042Y-56719290D01*
X62223724Y-56717166D01*
X62209683Y-56713649D01*
X62196054Y-56708772D01*
X62182969Y-56702583D01*
X62170553Y-56695142D01*
X62158927Y-56686519D01*
X62148202Y-56676798D01*
X62138481Y-56666073D01*
X62129858Y-56654447D01*
X62122417Y-56642031D01*
X62116228Y-56628946D01*
X62111351Y-56615317D01*
X62107834Y-56601276D01*
X62105710Y-56586958D01*
X62105000Y-56572500D01*
X62105000Y-56227500D01*
X62105710Y-56213042D01*
X62107834Y-56198724D01*
X62111351Y-56184683D01*
X62116228Y-56171054D01*
X62122417Y-56157969D01*
X62129858Y-56145553D01*
X62138481Y-56133927D01*
X62148202Y-56123202D01*
X62158927Y-56113481D01*
X62170553Y-56104858D01*
X62182969Y-56097417D01*
X62196054Y-56091228D01*
X62209683Y-56086351D01*
X62223724Y-56082834D01*
X62238042Y-56080710D01*
X62252500Y-56080000D01*
X62547500Y-56080000D01*
X62561958Y-56080710D01*
X62561958Y-56080710D01*
G37*
D15*
X62400000Y-56400000D03*
D14*
G36*
X66386958Y-50135710D02*
G01*
X66401276Y-50137834D01*
X66415317Y-50141351D01*
X66428946Y-50146228D01*
X66442031Y-50152417D01*
X66454447Y-50159858D01*
X66466073Y-50168481D01*
X66476798Y-50178202D01*
X66486519Y-50188927D01*
X66495142Y-50200553D01*
X66502583Y-50212969D01*
X66508772Y-50226054D01*
X66513649Y-50239683D01*
X66517166Y-50253724D01*
X66519290Y-50268042D01*
X66520000Y-50282500D01*
X66520000Y-50577500D01*
X66519290Y-50591958D01*
X66517166Y-50606276D01*
X66513649Y-50620317D01*
X66508772Y-50633946D01*
X66502583Y-50647031D01*
X66495142Y-50659447D01*
X66486519Y-50671073D01*
X66476798Y-50681798D01*
X66466073Y-50691519D01*
X66454447Y-50700142D01*
X66442031Y-50707583D01*
X66428946Y-50713772D01*
X66415317Y-50718649D01*
X66401276Y-50722166D01*
X66386958Y-50724290D01*
X66372500Y-50725000D01*
X66027500Y-50725000D01*
X66013042Y-50724290D01*
X65998724Y-50722166D01*
X65984683Y-50718649D01*
X65971054Y-50713772D01*
X65957969Y-50707583D01*
X65945553Y-50700142D01*
X65933927Y-50691519D01*
X65923202Y-50681798D01*
X65913481Y-50671073D01*
X65904858Y-50659447D01*
X65897417Y-50647031D01*
X65891228Y-50633946D01*
X65886351Y-50620317D01*
X65882834Y-50606276D01*
X65880710Y-50591958D01*
X65880000Y-50577500D01*
X65880000Y-50282500D01*
X65880710Y-50268042D01*
X65882834Y-50253724D01*
X65886351Y-50239683D01*
X65891228Y-50226054D01*
X65897417Y-50212969D01*
X65904858Y-50200553D01*
X65913481Y-50188927D01*
X65923202Y-50178202D01*
X65933927Y-50168481D01*
X65945553Y-50159858D01*
X65957969Y-50152417D01*
X65971054Y-50146228D01*
X65984683Y-50141351D01*
X65998724Y-50137834D01*
X66013042Y-50135710D01*
X66027500Y-50135000D01*
X66372500Y-50135000D01*
X66386958Y-50135710D01*
X66386958Y-50135710D01*
G37*
D15*
X66200000Y-50430000D03*
D14*
G36*
X66386958Y-51105710D02*
G01*
X66401276Y-51107834D01*
X66415317Y-51111351D01*
X66428946Y-51116228D01*
X66442031Y-51122417D01*
X66454447Y-51129858D01*
X66466073Y-51138481D01*
X66476798Y-51148202D01*
X66486519Y-51158927D01*
X66495142Y-51170553D01*
X66502583Y-51182969D01*
X66508772Y-51196054D01*
X66513649Y-51209683D01*
X66517166Y-51223724D01*
X66519290Y-51238042D01*
X66520000Y-51252500D01*
X66520000Y-51547500D01*
X66519290Y-51561958D01*
X66517166Y-51576276D01*
X66513649Y-51590317D01*
X66508772Y-51603946D01*
X66502583Y-51617031D01*
X66495142Y-51629447D01*
X66486519Y-51641073D01*
X66476798Y-51651798D01*
X66466073Y-51661519D01*
X66454447Y-51670142D01*
X66442031Y-51677583D01*
X66428946Y-51683772D01*
X66415317Y-51688649D01*
X66401276Y-51692166D01*
X66386958Y-51694290D01*
X66372500Y-51695000D01*
X66027500Y-51695000D01*
X66013042Y-51694290D01*
X65998724Y-51692166D01*
X65984683Y-51688649D01*
X65971054Y-51683772D01*
X65957969Y-51677583D01*
X65945553Y-51670142D01*
X65933927Y-51661519D01*
X65923202Y-51651798D01*
X65913481Y-51641073D01*
X65904858Y-51629447D01*
X65897417Y-51617031D01*
X65891228Y-51603946D01*
X65886351Y-51590317D01*
X65882834Y-51576276D01*
X65880710Y-51561958D01*
X65880000Y-51547500D01*
X65880000Y-51252500D01*
X65880710Y-51238042D01*
X65882834Y-51223724D01*
X65886351Y-51209683D01*
X65891228Y-51196054D01*
X65897417Y-51182969D01*
X65904858Y-51170553D01*
X65913481Y-51158927D01*
X65923202Y-51148202D01*
X65933927Y-51138481D01*
X65945553Y-51129858D01*
X65957969Y-51122417D01*
X65971054Y-51116228D01*
X65984683Y-51111351D01*
X65998724Y-51107834D01*
X66013042Y-51105710D01*
X66027500Y-51105000D01*
X66372500Y-51105000D01*
X66386958Y-51105710D01*
X66386958Y-51105710D01*
G37*
D15*
X66200000Y-51400000D03*
D14*
G36*
X64986958Y-51105710D02*
G01*
X65001276Y-51107834D01*
X65015317Y-51111351D01*
X65028946Y-51116228D01*
X65042031Y-51122417D01*
X65054447Y-51129858D01*
X65066073Y-51138481D01*
X65076798Y-51148202D01*
X65086519Y-51158927D01*
X65095142Y-51170553D01*
X65102583Y-51182969D01*
X65108772Y-51196054D01*
X65113649Y-51209683D01*
X65117166Y-51223724D01*
X65119290Y-51238042D01*
X65120000Y-51252500D01*
X65120000Y-51547500D01*
X65119290Y-51561958D01*
X65117166Y-51576276D01*
X65113649Y-51590317D01*
X65108772Y-51603946D01*
X65102583Y-51617031D01*
X65095142Y-51629447D01*
X65086519Y-51641073D01*
X65076798Y-51651798D01*
X65066073Y-51661519D01*
X65054447Y-51670142D01*
X65042031Y-51677583D01*
X65028946Y-51683772D01*
X65015317Y-51688649D01*
X65001276Y-51692166D01*
X64986958Y-51694290D01*
X64972500Y-51695000D01*
X64627500Y-51695000D01*
X64613042Y-51694290D01*
X64598724Y-51692166D01*
X64584683Y-51688649D01*
X64571054Y-51683772D01*
X64557969Y-51677583D01*
X64545553Y-51670142D01*
X64533927Y-51661519D01*
X64523202Y-51651798D01*
X64513481Y-51641073D01*
X64504858Y-51629447D01*
X64497417Y-51617031D01*
X64491228Y-51603946D01*
X64486351Y-51590317D01*
X64482834Y-51576276D01*
X64480710Y-51561958D01*
X64480000Y-51547500D01*
X64480000Y-51252500D01*
X64480710Y-51238042D01*
X64482834Y-51223724D01*
X64486351Y-51209683D01*
X64491228Y-51196054D01*
X64497417Y-51182969D01*
X64504858Y-51170553D01*
X64513481Y-51158927D01*
X64523202Y-51148202D01*
X64533927Y-51138481D01*
X64545553Y-51129858D01*
X64557969Y-51122417D01*
X64571054Y-51116228D01*
X64584683Y-51111351D01*
X64598724Y-51107834D01*
X64613042Y-51105710D01*
X64627500Y-51105000D01*
X64972500Y-51105000D01*
X64986958Y-51105710D01*
X64986958Y-51105710D01*
G37*
D15*
X64800000Y-51400000D03*
D14*
G36*
X64986958Y-50135710D02*
G01*
X65001276Y-50137834D01*
X65015317Y-50141351D01*
X65028946Y-50146228D01*
X65042031Y-50152417D01*
X65054447Y-50159858D01*
X65066073Y-50168481D01*
X65076798Y-50178202D01*
X65086519Y-50188927D01*
X65095142Y-50200553D01*
X65102583Y-50212969D01*
X65108772Y-50226054D01*
X65113649Y-50239683D01*
X65117166Y-50253724D01*
X65119290Y-50268042D01*
X65120000Y-50282500D01*
X65120000Y-50577500D01*
X65119290Y-50591958D01*
X65117166Y-50606276D01*
X65113649Y-50620317D01*
X65108772Y-50633946D01*
X65102583Y-50647031D01*
X65095142Y-50659447D01*
X65086519Y-50671073D01*
X65076798Y-50681798D01*
X65066073Y-50691519D01*
X65054447Y-50700142D01*
X65042031Y-50707583D01*
X65028946Y-50713772D01*
X65015317Y-50718649D01*
X65001276Y-50722166D01*
X64986958Y-50724290D01*
X64972500Y-50725000D01*
X64627500Y-50725000D01*
X64613042Y-50724290D01*
X64598724Y-50722166D01*
X64584683Y-50718649D01*
X64571054Y-50713772D01*
X64557969Y-50707583D01*
X64545553Y-50700142D01*
X64533927Y-50691519D01*
X64523202Y-50681798D01*
X64513481Y-50671073D01*
X64504858Y-50659447D01*
X64497417Y-50647031D01*
X64491228Y-50633946D01*
X64486351Y-50620317D01*
X64482834Y-50606276D01*
X64480710Y-50591958D01*
X64480000Y-50577500D01*
X64480000Y-50282500D01*
X64480710Y-50268042D01*
X64482834Y-50253724D01*
X64486351Y-50239683D01*
X64491228Y-50226054D01*
X64497417Y-50212969D01*
X64504858Y-50200553D01*
X64513481Y-50188927D01*
X64523202Y-50178202D01*
X64533927Y-50168481D01*
X64545553Y-50159858D01*
X64557969Y-50152417D01*
X64571054Y-50146228D01*
X64584683Y-50141351D01*
X64598724Y-50137834D01*
X64613042Y-50135710D01*
X64627500Y-50135000D01*
X64972500Y-50135000D01*
X64986958Y-50135710D01*
X64986958Y-50135710D01*
G37*
D15*
X64800000Y-50430000D03*
D14*
G36*
X72491958Y-53480710D02*
G01*
X72506276Y-53482834D01*
X72520317Y-53486351D01*
X72533946Y-53491228D01*
X72547031Y-53497417D01*
X72559447Y-53504858D01*
X72571073Y-53513481D01*
X72581798Y-53523202D01*
X72591519Y-53533927D01*
X72600142Y-53545553D01*
X72607583Y-53557969D01*
X72613772Y-53571054D01*
X72618649Y-53584683D01*
X72622166Y-53598724D01*
X72624290Y-53613042D01*
X72625000Y-53627500D01*
X72625000Y-53972500D01*
X72624290Y-53986958D01*
X72622166Y-54001276D01*
X72618649Y-54015317D01*
X72613772Y-54028946D01*
X72607583Y-54042031D01*
X72600142Y-54054447D01*
X72591519Y-54066073D01*
X72581798Y-54076798D01*
X72571073Y-54086519D01*
X72559447Y-54095142D01*
X72547031Y-54102583D01*
X72533946Y-54108772D01*
X72520317Y-54113649D01*
X72506276Y-54117166D01*
X72491958Y-54119290D01*
X72477500Y-54120000D01*
X72182500Y-54120000D01*
X72168042Y-54119290D01*
X72153724Y-54117166D01*
X72139683Y-54113649D01*
X72126054Y-54108772D01*
X72112969Y-54102583D01*
X72100553Y-54095142D01*
X72088927Y-54086519D01*
X72078202Y-54076798D01*
X72068481Y-54066073D01*
X72059858Y-54054447D01*
X72052417Y-54042031D01*
X72046228Y-54028946D01*
X72041351Y-54015317D01*
X72037834Y-54001276D01*
X72035710Y-53986958D01*
X72035000Y-53972500D01*
X72035000Y-53627500D01*
X72035710Y-53613042D01*
X72037834Y-53598724D01*
X72041351Y-53584683D01*
X72046228Y-53571054D01*
X72052417Y-53557969D01*
X72059858Y-53545553D01*
X72068481Y-53533927D01*
X72078202Y-53523202D01*
X72088927Y-53513481D01*
X72100553Y-53504858D01*
X72112969Y-53497417D01*
X72126054Y-53491228D01*
X72139683Y-53486351D01*
X72153724Y-53482834D01*
X72168042Y-53480710D01*
X72182500Y-53480000D01*
X72477500Y-53480000D01*
X72491958Y-53480710D01*
X72491958Y-53480710D01*
G37*
D15*
X72330000Y-53800000D03*
D14*
G36*
X73461958Y-53480710D02*
G01*
X73476276Y-53482834D01*
X73490317Y-53486351D01*
X73503946Y-53491228D01*
X73517031Y-53497417D01*
X73529447Y-53504858D01*
X73541073Y-53513481D01*
X73551798Y-53523202D01*
X73561519Y-53533927D01*
X73570142Y-53545553D01*
X73577583Y-53557969D01*
X73583772Y-53571054D01*
X73588649Y-53584683D01*
X73592166Y-53598724D01*
X73594290Y-53613042D01*
X73595000Y-53627500D01*
X73595000Y-53972500D01*
X73594290Y-53986958D01*
X73592166Y-54001276D01*
X73588649Y-54015317D01*
X73583772Y-54028946D01*
X73577583Y-54042031D01*
X73570142Y-54054447D01*
X73561519Y-54066073D01*
X73551798Y-54076798D01*
X73541073Y-54086519D01*
X73529447Y-54095142D01*
X73517031Y-54102583D01*
X73503946Y-54108772D01*
X73490317Y-54113649D01*
X73476276Y-54117166D01*
X73461958Y-54119290D01*
X73447500Y-54120000D01*
X73152500Y-54120000D01*
X73138042Y-54119290D01*
X73123724Y-54117166D01*
X73109683Y-54113649D01*
X73096054Y-54108772D01*
X73082969Y-54102583D01*
X73070553Y-54095142D01*
X73058927Y-54086519D01*
X73048202Y-54076798D01*
X73038481Y-54066073D01*
X73029858Y-54054447D01*
X73022417Y-54042031D01*
X73016228Y-54028946D01*
X73011351Y-54015317D01*
X73007834Y-54001276D01*
X73005710Y-53986958D01*
X73005000Y-53972500D01*
X73005000Y-53627500D01*
X73005710Y-53613042D01*
X73007834Y-53598724D01*
X73011351Y-53584683D01*
X73016228Y-53571054D01*
X73022417Y-53557969D01*
X73029858Y-53545553D01*
X73038481Y-53533927D01*
X73048202Y-53523202D01*
X73058927Y-53513481D01*
X73070553Y-53504858D01*
X73082969Y-53497417D01*
X73096054Y-53491228D01*
X73109683Y-53486351D01*
X73123724Y-53482834D01*
X73138042Y-53480710D01*
X73152500Y-53480000D01*
X73447500Y-53480000D01*
X73461958Y-53480710D01*
X73461958Y-53480710D01*
G37*
D15*
X73300000Y-53800000D03*
D14*
G36*
X68186958Y-50135710D02*
G01*
X68201276Y-50137834D01*
X68215317Y-50141351D01*
X68228946Y-50146228D01*
X68242031Y-50152417D01*
X68254447Y-50159858D01*
X68266073Y-50168481D01*
X68276798Y-50178202D01*
X68286519Y-50188927D01*
X68295142Y-50200553D01*
X68302583Y-50212969D01*
X68308772Y-50226054D01*
X68313649Y-50239683D01*
X68317166Y-50253724D01*
X68319290Y-50268042D01*
X68320000Y-50282500D01*
X68320000Y-50577500D01*
X68319290Y-50591958D01*
X68317166Y-50606276D01*
X68313649Y-50620317D01*
X68308772Y-50633946D01*
X68302583Y-50647031D01*
X68295142Y-50659447D01*
X68286519Y-50671073D01*
X68276798Y-50681798D01*
X68266073Y-50691519D01*
X68254447Y-50700142D01*
X68242031Y-50707583D01*
X68228946Y-50713772D01*
X68215317Y-50718649D01*
X68201276Y-50722166D01*
X68186958Y-50724290D01*
X68172500Y-50725000D01*
X67827500Y-50725000D01*
X67813042Y-50724290D01*
X67798724Y-50722166D01*
X67784683Y-50718649D01*
X67771054Y-50713772D01*
X67757969Y-50707583D01*
X67745553Y-50700142D01*
X67733927Y-50691519D01*
X67723202Y-50681798D01*
X67713481Y-50671073D01*
X67704858Y-50659447D01*
X67697417Y-50647031D01*
X67691228Y-50633946D01*
X67686351Y-50620317D01*
X67682834Y-50606276D01*
X67680710Y-50591958D01*
X67680000Y-50577500D01*
X67680000Y-50282500D01*
X67680710Y-50268042D01*
X67682834Y-50253724D01*
X67686351Y-50239683D01*
X67691228Y-50226054D01*
X67697417Y-50212969D01*
X67704858Y-50200553D01*
X67713481Y-50188927D01*
X67723202Y-50178202D01*
X67733927Y-50168481D01*
X67745553Y-50159858D01*
X67757969Y-50152417D01*
X67771054Y-50146228D01*
X67784683Y-50141351D01*
X67798724Y-50137834D01*
X67813042Y-50135710D01*
X67827500Y-50135000D01*
X68172500Y-50135000D01*
X68186958Y-50135710D01*
X68186958Y-50135710D01*
G37*
D15*
X68000000Y-50430000D03*
D14*
G36*
X68186958Y-51105710D02*
G01*
X68201276Y-51107834D01*
X68215317Y-51111351D01*
X68228946Y-51116228D01*
X68242031Y-51122417D01*
X68254447Y-51129858D01*
X68266073Y-51138481D01*
X68276798Y-51148202D01*
X68286519Y-51158927D01*
X68295142Y-51170553D01*
X68302583Y-51182969D01*
X68308772Y-51196054D01*
X68313649Y-51209683D01*
X68317166Y-51223724D01*
X68319290Y-51238042D01*
X68320000Y-51252500D01*
X68320000Y-51547500D01*
X68319290Y-51561958D01*
X68317166Y-51576276D01*
X68313649Y-51590317D01*
X68308772Y-51603946D01*
X68302583Y-51617031D01*
X68295142Y-51629447D01*
X68286519Y-51641073D01*
X68276798Y-51651798D01*
X68266073Y-51661519D01*
X68254447Y-51670142D01*
X68242031Y-51677583D01*
X68228946Y-51683772D01*
X68215317Y-51688649D01*
X68201276Y-51692166D01*
X68186958Y-51694290D01*
X68172500Y-51695000D01*
X67827500Y-51695000D01*
X67813042Y-51694290D01*
X67798724Y-51692166D01*
X67784683Y-51688649D01*
X67771054Y-51683772D01*
X67757969Y-51677583D01*
X67745553Y-51670142D01*
X67733927Y-51661519D01*
X67723202Y-51651798D01*
X67713481Y-51641073D01*
X67704858Y-51629447D01*
X67697417Y-51617031D01*
X67691228Y-51603946D01*
X67686351Y-51590317D01*
X67682834Y-51576276D01*
X67680710Y-51561958D01*
X67680000Y-51547500D01*
X67680000Y-51252500D01*
X67680710Y-51238042D01*
X67682834Y-51223724D01*
X67686351Y-51209683D01*
X67691228Y-51196054D01*
X67697417Y-51182969D01*
X67704858Y-51170553D01*
X67713481Y-51158927D01*
X67723202Y-51148202D01*
X67733927Y-51138481D01*
X67745553Y-51129858D01*
X67757969Y-51122417D01*
X67771054Y-51116228D01*
X67784683Y-51111351D01*
X67798724Y-51107834D01*
X67813042Y-51105710D01*
X67827500Y-51105000D01*
X68172500Y-51105000D01*
X68186958Y-51105710D01*
X68186958Y-51105710D01*
G37*
D15*
X68000000Y-51400000D03*
D10*
X76640000Y-34340000D03*
X76640000Y-41960000D03*
X76640000Y-44500000D03*
X76640000Y-39420000D03*
X76640000Y-36880000D03*
D19*
X68450000Y-57700000D03*
X69400000Y-59700000D03*
X67500000Y-59700000D03*
X64800000Y-57700000D03*
X65750000Y-59700000D03*
X63850000Y-59700000D03*
D14*
G36*
X64580142Y-52876174D02*
G01*
X64603803Y-52879684D01*
X64627007Y-52885496D01*
X64649529Y-52893554D01*
X64671153Y-52903782D01*
X64691670Y-52916079D01*
X64710883Y-52930329D01*
X64728607Y-52946393D01*
X64744671Y-52964117D01*
X64758921Y-52983330D01*
X64771218Y-53003847D01*
X64781446Y-53025471D01*
X64789504Y-53047993D01*
X64795316Y-53071197D01*
X64798826Y-53094858D01*
X64800000Y-53118750D01*
X64800000Y-53606250D01*
X64798826Y-53630142D01*
X64795316Y-53653803D01*
X64789504Y-53677007D01*
X64781446Y-53699529D01*
X64771218Y-53721153D01*
X64758921Y-53741670D01*
X64744671Y-53760883D01*
X64728607Y-53778607D01*
X64710883Y-53794671D01*
X64691670Y-53808921D01*
X64671153Y-53821218D01*
X64649529Y-53831446D01*
X64627007Y-53839504D01*
X64603803Y-53845316D01*
X64580142Y-53848826D01*
X64556250Y-53850000D01*
X63643750Y-53850000D01*
X63619858Y-53848826D01*
X63596197Y-53845316D01*
X63572993Y-53839504D01*
X63550471Y-53831446D01*
X63528847Y-53821218D01*
X63508330Y-53808921D01*
X63489117Y-53794671D01*
X63471393Y-53778607D01*
X63455329Y-53760883D01*
X63441079Y-53741670D01*
X63428782Y-53721153D01*
X63418554Y-53699529D01*
X63410496Y-53677007D01*
X63404684Y-53653803D01*
X63401174Y-53630142D01*
X63400000Y-53606250D01*
X63400000Y-53118750D01*
X63401174Y-53094858D01*
X63404684Y-53071197D01*
X63410496Y-53047993D01*
X63418554Y-53025471D01*
X63428782Y-53003847D01*
X63441079Y-52983330D01*
X63455329Y-52964117D01*
X63471393Y-52946393D01*
X63489117Y-52930329D01*
X63508330Y-52916079D01*
X63528847Y-52903782D01*
X63550471Y-52893554D01*
X63572993Y-52885496D01*
X63596197Y-52879684D01*
X63619858Y-52876174D01*
X63643750Y-52875000D01*
X64556250Y-52875000D01*
X64580142Y-52876174D01*
X64580142Y-52876174D01*
G37*
D21*
X64100000Y-53362500D03*
D14*
G36*
X64580142Y-54751174D02*
G01*
X64603803Y-54754684D01*
X64627007Y-54760496D01*
X64649529Y-54768554D01*
X64671153Y-54778782D01*
X64691670Y-54791079D01*
X64710883Y-54805329D01*
X64728607Y-54821393D01*
X64744671Y-54839117D01*
X64758921Y-54858330D01*
X64771218Y-54878847D01*
X64781446Y-54900471D01*
X64789504Y-54922993D01*
X64795316Y-54946197D01*
X64798826Y-54969858D01*
X64800000Y-54993750D01*
X64800000Y-55481250D01*
X64798826Y-55505142D01*
X64795316Y-55528803D01*
X64789504Y-55552007D01*
X64781446Y-55574529D01*
X64771218Y-55596153D01*
X64758921Y-55616670D01*
X64744671Y-55635883D01*
X64728607Y-55653607D01*
X64710883Y-55669671D01*
X64691670Y-55683921D01*
X64671153Y-55696218D01*
X64649529Y-55706446D01*
X64627007Y-55714504D01*
X64603803Y-55720316D01*
X64580142Y-55723826D01*
X64556250Y-55725000D01*
X63643750Y-55725000D01*
X63619858Y-55723826D01*
X63596197Y-55720316D01*
X63572993Y-55714504D01*
X63550471Y-55706446D01*
X63528847Y-55696218D01*
X63508330Y-55683921D01*
X63489117Y-55669671D01*
X63471393Y-55653607D01*
X63455329Y-55635883D01*
X63441079Y-55616670D01*
X63428782Y-55596153D01*
X63418554Y-55574529D01*
X63410496Y-55552007D01*
X63404684Y-55528803D01*
X63401174Y-55505142D01*
X63400000Y-55481250D01*
X63400000Y-54993750D01*
X63401174Y-54969858D01*
X63404684Y-54946197D01*
X63410496Y-54922993D01*
X63418554Y-54900471D01*
X63428782Y-54878847D01*
X63441079Y-54858330D01*
X63455329Y-54839117D01*
X63471393Y-54821393D01*
X63489117Y-54805329D01*
X63508330Y-54791079D01*
X63528847Y-54778782D01*
X63550471Y-54768554D01*
X63572993Y-54760496D01*
X63596197Y-54754684D01*
X63619858Y-54751174D01*
X63643750Y-54750000D01*
X64556250Y-54750000D01*
X64580142Y-54751174D01*
X64580142Y-54751174D01*
G37*
D21*
X64100000Y-55237500D03*
D22*
X69700000Y-53700000D03*
X66200000Y-53700000D03*
D10*
X76640000Y-31800000D03*
D23*
X68700000Y-60700000D03*
X65800000Y-61100000D03*
X74800000Y-53800000D03*
X74800000Y-54700000D03*
X71300000Y-52400000D03*
X72200000Y-52400000D03*
X63500000Y-51400000D03*
X63500000Y-50500000D03*
X63500000Y-49600000D03*
X67198744Y-55038241D03*
X64100000Y-55237500D03*
X65862500Y-55237500D03*
X63500000Y-38200000D03*
X64700000Y-38200000D03*
X65800000Y-38200000D03*
X67100000Y-38200000D03*
X63600000Y-41600000D03*
X63600000Y-42700000D03*
X69900000Y-37400000D03*
X69900000Y-38400000D03*
X59600000Y-35400000D03*
X59600000Y-36300000D03*
X59600000Y-37200000D03*
X62925065Y-31530239D03*
X59200000Y-42000000D03*
X59200000Y-43100000D03*
X59200000Y-44200000D03*
X67100000Y-67700000D03*
X67800000Y-67000000D03*
X68550000Y-66250000D03*
X63000000Y-33800000D03*
X75100000Y-31800000D03*
X63800000Y-64300000D03*
X62100000Y-35600000D03*
X60900000Y-45600000D03*
X58400000Y-50400000D03*
X59699999Y-33500000D03*
X71800000Y-34700000D03*
X76100000Y-38200000D03*
X69500000Y-34400000D03*
X75900000Y-40300000D03*
X69500000Y-34400000D03*
X75300000Y-43200000D03*
X73119000Y-42600000D03*
X74700000Y-45700000D03*
X71600000Y-37700000D03*
X70800000Y-36300000D03*
X74493886Y-47510431D03*
D24*
X67580000Y-50430000D02*
X68000000Y-50430000D01*
X66944168Y-51065832D02*
X67580000Y-50430000D01*
X66534168Y-51065832D02*
X66944168Y-51065832D01*
X66200000Y-51400000D02*
X66534168Y-51065832D01*
X66999485Y-55237500D02*
X67198744Y-55038241D01*
X64100000Y-55237500D02*
X65862500Y-55237500D01*
X65862500Y-55237500D02*
X66999485Y-55237500D01*
X65750000Y-61050000D02*
X65800000Y-61100000D01*
X65750000Y-59700000D02*
X65750000Y-61050000D01*
X68700000Y-60400000D02*
X69400000Y-59700000D01*
X68700000Y-60700000D02*
X68700000Y-60400000D01*
X60881000Y-36250000D02*
X61056000Y-36250000D01*
X64500000Y-38200000D02*
X65800000Y-38200000D01*
X63497000Y-38197000D02*
X63500000Y-38200000D01*
X61056000Y-36250000D02*
X63003000Y-38197000D01*
X63003000Y-38197000D02*
X63497000Y-38197000D01*
X59700000Y-28400000D02*
X60000000Y-28400000D01*
X60000000Y-28400000D02*
X61000000Y-29400000D01*
X61000000Y-29400000D02*
X61000000Y-29900000D01*
X61000000Y-29900000D02*
X61216095Y-30116095D01*
X61216095Y-30116095D02*
X61594624Y-30116095D01*
X62925065Y-31446536D02*
X62925065Y-31530239D01*
X61594624Y-30116095D02*
X62925065Y-31446536D01*
D25*
X68000000Y-102000000D02*
X68000000Y-142000000D01*
D24*
X62485000Y-54400000D02*
X62485000Y-53715000D01*
X62837500Y-53362500D02*
X64100000Y-53362500D01*
X62485000Y-53715000D02*
X62837500Y-53362500D01*
X65862500Y-53362500D02*
X66200000Y-53700000D01*
X64100000Y-53362500D02*
X65862500Y-53362500D01*
X68900000Y-55500000D02*
X68900000Y-55880000D01*
X67100000Y-53700000D02*
X68900000Y-55500000D01*
X68900000Y-55880000D02*
X68900000Y-56300000D01*
X66200000Y-53700000D02*
X67100000Y-53700000D01*
X69234168Y-55965832D02*
X68900000Y-56300000D01*
X70213222Y-55654990D02*
X69345010Y-55654990D01*
X70949990Y-56391758D02*
X70213222Y-55654990D01*
X69345010Y-55654990D02*
X69234168Y-55765832D01*
X70949990Y-59585012D02*
X70949990Y-56391758D01*
X65026998Y-62000000D02*
X68535002Y-62000000D01*
X68535002Y-62000000D02*
X70949990Y-59585012D01*
X69234168Y-55765832D02*
X69234168Y-55965832D01*
X68000000Y-102000000D02*
X63074999Y-97074999D01*
X63074999Y-97074999D02*
X63074999Y-63951999D01*
X63074999Y-63951999D02*
X65026998Y-62000000D01*
X61430000Y-56400000D02*
X61430000Y-58200000D01*
X61515000Y-56315000D02*
X61430000Y-56400000D01*
X61515000Y-54400000D02*
X61515000Y-56315000D01*
X61180832Y-54065832D02*
X61515000Y-54400000D01*
X60174999Y-45251999D02*
X60174999Y-53059999D01*
X60174999Y-53059999D02*
X61180832Y-54065832D01*
X61432999Y-43993999D02*
X60174999Y-45251999D01*
X64419999Y-43993999D02*
X61432999Y-43993999D01*
X65070000Y-44644000D02*
X64419999Y-43993999D01*
X65070000Y-44819000D02*
X65070000Y-44644000D01*
X63850000Y-59650000D02*
X62400000Y-58200000D01*
X63850000Y-59700000D02*
X63850000Y-59650000D01*
X62400000Y-58200000D02*
X62400000Y-56400000D01*
X69870000Y-56720000D02*
X69870000Y-56300000D01*
X69870000Y-56930000D02*
X69870000Y-56720000D01*
X69100000Y-57700000D02*
X69870000Y-56930000D01*
X68450000Y-57700000D02*
X69100000Y-57700000D01*
X67450832Y-56634168D02*
X67785000Y-56300000D01*
X67450832Y-56652400D02*
X67450832Y-56634168D01*
X66403232Y-57700000D02*
X67450832Y-56652400D01*
X64800000Y-57700000D02*
X66403232Y-57700000D01*
X66403232Y-57903232D02*
X66403232Y-57700000D01*
X67500000Y-59000000D02*
X66403232Y-57903232D01*
X67500000Y-59700000D02*
X67500000Y-59000000D01*
D26*
X73100000Y-61700000D02*
X68550000Y-66250000D01*
X73100000Y-58300000D02*
X73100000Y-61700000D01*
X67800000Y-67000000D02*
X67100000Y-67700000D01*
X68550000Y-66250000D02*
X67800000Y-67000000D01*
D24*
X69700000Y-51800000D02*
X69300000Y-51400000D01*
X69700000Y-53700000D02*
X69700000Y-51800000D01*
X68000000Y-51400000D02*
X69300000Y-51400000D01*
X62910000Y-33710000D02*
X63000000Y-33800000D01*
X60881000Y-33710000D02*
X62910000Y-33710000D01*
X75100000Y-31800000D02*
X76640000Y-31800000D01*
X69700000Y-53900000D02*
X69700000Y-53700000D01*
X70600000Y-54800000D02*
X69700000Y-53900000D01*
X71400000Y-54800000D02*
X70600000Y-54800000D01*
X71400000Y-61386814D02*
X71400000Y-54800000D01*
X72000000Y-61986814D02*
X71400000Y-61386814D01*
X69686814Y-64300000D02*
X72000000Y-61986814D01*
X63800000Y-64300000D02*
X69686814Y-64300000D01*
X62000000Y-47970000D02*
X62000000Y-50425000D01*
D26*
X67610000Y-44453998D02*
X67610000Y-44819000D01*
X68194999Y-43868999D02*
X67610000Y-44453998D01*
X69565001Y-43868999D02*
X68194999Y-43868999D01*
X70150000Y-44453998D02*
X69565001Y-43868999D01*
X70150000Y-44819000D02*
X70150000Y-44453998D01*
X70150000Y-47050000D02*
X70700000Y-47600000D01*
X70150000Y-44819000D02*
X70150000Y-47050000D01*
X70700000Y-47600000D02*
X72100000Y-47600000D01*
X73725000Y-53375000D02*
X73300000Y-53800000D01*
X73725000Y-51100000D02*
X73725000Y-53375000D01*
X73300000Y-55150000D02*
X73300000Y-53800000D01*
X72150000Y-56300000D02*
X73300000Y-55150000D01*
X74100000Y-51100000D02*
X73725000Y-51100000D01*
X75793897Y-49406103D02*
X74100000Y-51100000D01*
X75793897Y-45535895D02*
X75793897Y-49406103D01*
X75108001Y-44849999D02*
X75793897Y-45535895D01*
X74291999Y-44849999D02*
X75108001Y-44849999D01*
X72434168Y-46707830D02*
X74291999Y-44849999D01*
X72434168Y-47265832D02*
X72434168Y-46707830D01*
X72100000Y-47600000D02*
X72434168Y-47265832D01*
X76140001Y-34839999D02*
X76640000Y-34340000D01*
X74400000Y-36580000D02*
X76140001Y-34839999D01*
X74400000Y-44141998D02*
X74400000Y-36580000D01*
X75108001Y-44849999D02*
X74400000Y-44141998D01*
D24*
X61480000Y-34980000D02*
X62100000Y-35600000D01*
X60881000Y-34980000D02*
X61480000Y-34980000D01*
X62000000Y-46700000D02*
X60900000Y-45600000D01*
X62000000Y-47000000D02*
X62000000Y-46700000D01*
X60881000Y-32440000D02*
X60759999Y-32440000D01*
X60759999Y-32440000D02*
X59699999Y-33500000D01*
X66420000Y-56300000D02*
X66815000Y-56300000D01*
X63020010Y-58183600D02*
X63020010Y-57831778D01*
X63761409Y-58924999D02*
X63020010Y-58183600D01*
X64551788Y-56300000D02*
X66420000Y-56300000D01*
X59200000Y-51765685D02*
X59200000Y-56958232D01*
X64510001Y-58924999D02*
X63761409Y-58924999D01*
X64510001Y-60475001D02*
X64575001Y-60410001D01*
X59200000Y-56958232D02*
X62716769Y-60475001D01*
X64575001Y-60410001D02*
X64575001Y-58989999D01*
X58400000Y-50965685D02*
X59200000Y-51765685D01*
X62716769Y-60475001D02*
X64510001Y-60475001D01*
X63020010Y-57831778D02*
X64551788Y-56300000D01*
X64575001Y-58989999D02*
X64510001Y-58924999D01*
X58400000Y-50400000D02*
X58400000Y-50965685D01*
X72080000Y-34980000D02*
X71800000Y-34700000D01*
X73119000Y-34980000D02*
X72080000Y-34980000D01*
X76100000Y-37420000D02*
X76640000Y-36880000D01*
X76100000Y-38200000D02*
X76100000Y-37420000D01*
X70190000Y-33710000D02*
X69500000Y-34400000D01*
X73119000Y-33710000D02*
X70190000Y-33710000D01*
X75900000Y-40300000D02*
X75900000Y-40160000D01*
X75900000Y-40160000D02*
X76640000Y-39420000D01*
X76600000Y-44500000D02*
X75300000Y-43200000D01*
X76640000Y-44500000D02*
X76600000Y-44500000D01*
X72330000Y-48570000D02*
X73500000Y-47400000D01*
X72100000Y-48570000D02*
X72330000Y-48570000D01*
X73500000Y-46900000D02*
X74700000Y-45700000D01*
X73500000Y-47400000D02*
X73500000Y-46900000D01*
X72939000Y-37700000D02*
X73119000Y-37520000D01*
X71600000Y-37700000D02*
X72939000Y-37700000D01*
X75099999Y-46099999D02*
X74700000Y-45700000D01*
X75218887Y-46218887D02*
X75099999Y-46099999D01*
X75218887Y-48331113D02*
X75218887Y-46218887D01*
X73725000Y-49825000D02*
X75218887Y-48331113D01*
X73725000Y-50100000D02*
X73725000Y-49825000D01*
X70700000Y-48925000D02*
X71875000Y-50100000D01*
X70700000Y-48570000D02*
X70700000Y-48925000D01*
X73069000Y-36300000D02*
X73119000Y-36250000D01*
X70800000Y-36300000D02*
X73069000Y-36300000D01*
X72529327Y-49474990D02*
X74493886Y-47510431D01*
X72225010Y-49474990D02*
X72529327Y-49474990D01*
X71875000Y-49825000D02*
X72225010Y-49474990D01*
X71875000Y-50100000D02*
X71875000Y-49825000D01*
X62530000Y-45130000D02*
X65000000Y-47600000D01*
X65000000Y-47600000D02*
X65000000Y-48000000D01*
X62530000Y-44819000D02*
X62530000Y-45130000D01*
X64800000Y-48200000D02*
X65000000Y-48000000D01*
X64800000Y-50430000D02*
X64800000Y-48200000D01*
X67500000Y-47600000D02*
X67500000Y-48000000D01*
X65580999Y-46774999D02*
X66674999Y-46774999D01*
X66674999Y-46774999D02*
X67500000Y-47600000D01*
X63800000Y-44994000D02*
X65580999Y-46774999D01*
X63800000Y-44819000D02*
X63800000Y-44994000D01*
X66200000Y-50430000D02*
X67000000Y-49630000D01*
X67500000Y-49150000D02*
X67500000Y-48000000D01*
X67020000Y-49630000D02*
X67500000Y-49150000D01*
X67000000Y-49630000D02*
X67020000Y-49630000D01*
X60861000Y-38770000D02*
X60881000Y-38790000D01*
X60841000Y-38750000D02*
X60881000Y-38790000D01*
X60881000Y-38790000D02*
X61056000Y-38790000D01*
X60871000Y-38800000D02*
X60881000Y-38790000D01*
X59450000Y-29700000D02*
X59450000Y-29650000D01*
X58800000Y-31989841D02*
X59095609Y-31694232D01*
X58800000Y-38000000D02*
X58800000Y-31989841D01*
X59590000Y-38790000D02*
X58800000Y-38000000D01*
X60881000Y-38790000D02*
X59590000Y-38790000D01*
X59650000Y-29700000D02*
X59600000Y-29700000D01*
X58884848Y-28984848D02*
X58884848Y-28549291D01*
X59600000Y-29700000D02*
X58884848Y-28984848D01*
X59650000Y-29700000D02*
X59650000Y-29850000D01*
X59200000Y-30300000D02*
X59200000Y-31500000D01*
X59650000Y-29850000D02*
X59200000Y-30300000D01*
X60741000Y-40200000D02*
X60881000Y-40060000D01*
X60841000Y-40100000D02*
X60881000Y-40060000D01*
X57950000Y-29700000D02*
X57950000Y-32240512D01*
X57950000Y-32240512D02*
X58300000Y-32590512D01*
X58300000Y-32590512D02*
X58300000Y-38500000D01*
X59860000Y-40060000D02*
X58300000Y-38500000D01*
X60881000Y-40060000D02*
X59860000Y-40060000D01*
D27*
G36*
X78340000Y-142726619D02*
G01*
X68556139Y-152510479D01*
X68417802Y-152624109D01*
X68288623Y-152693375D01*
X68148451Y-152736230D01*
X68002623Y-152751043D01*
X67856695Y-152737248D01*
X67716222Y-152695371D01*
X67586563Y-152627010D01*
X67448982Y-152515599D01*
X57660000Y-142726620D01*
X57660000Y-51144350D01*
X57694454Y-51257932D01*
X57711059Y-51288997D01*
X57765026Y-51389961D01*
X57836201Y-51476687D01*
X57860000Y-51505686D01*
X57888998Y-51529484D01*
X58440000Y-52080487D01*
X58440001Y-56920900D01*
X58436324Y-56958232D01*
X58440001Y-56995565D01*
X58450998Y-57107218D01*
X58461173Y-57140760D01*
X58494454Y-57250478D01*
X58565026Y-57382508D01*
X58636201Y-57469234D01*
X58660000Y-57498233D01*
X58688998Y-57522031D01*
X62152974Y-60986009D01*
X62176768Y-61015002D01*
X62205761Y-61038796D01*
X62205765Y-61038800D01*
X62276454Y-61096812D01*
X62292493Y-61109975D01*
X62424522Y-61180547D01*
X62567783Y-61224004D01*
X62679436Y-61235001D01*
X62679445Y-61235001D01*
X62716768Y-61238677D01*
X62754091Y-61235001D01*
X64472679Y-61235001D01*
X64510001Y-61238677D01*
X64547323Y-61235001D01*
X64547334Y-61235001D01*
X64658987Y-61224004D01*
X64802248Y-61180547D01*
X64934277Y-61109975D01*
X65050002Y-61015002D01*
X65073805Y-60985998D01*
X65085999Y-60973804D01*
X65115002Y-60950002D01*
X65209975Y-60834277D01*
X65240440Y-60777282D01*
X65350000Y-60788072D01*
X65464250Y-60785000D01*
X65623000Y-60626250D01*
X65623000Y-59827000D01*
X65603000Y-59827000D01*
X65603000Y-59573000D01*
X65623000Y-59573000D01*
X65623000Y-58773750D01*
X65538393Y-58689143D01*
X65554494Y-58680537D01*
X65651185Y-58601185D01*
X65730537Y-58504494D01*
X65754320Y-58460000D01*
X65883662Y-58460000D01*
X65892234Y-58467036D01*
X66040082Y-58614884D01*
X66035750Y-58615000D01*
X65877000Y-58773750D01*
X65877000Y-59573000D01*
X65897000Y-59573000D01*
X65897000Y-59827000D01*
X65877000Y-59827000D01*
X65877000Y-60626250D01*
X66035750Y-60785000D01*
X66150000Y-60788072D01*
X66274482Y-60775812D01*
X66394180Y-60739502D01*
X66504494Y-60680537D01*
X66601185Y-60601185D01*
X66625000Y-60572166D01*
X66648815Y-60601185D01*
X66745506Y-60680537D01*
X66855820Y-60739502D01*
X66975518Y-60775812D01*
X67100000Y-60788072D01*
X67900000Y-60788072D01*
X68024482Y-60775812D01*
X68144180Y-60739502D01*
X68254494Y-60680537D01*
X68351185Y-60601185D01*
X68430537Y-60504494D01*
X68450000Y-60468082D01*
X68469463Y-60504494D01*
X68548815Y-60601185D01*
X68645506Y-60680537D01*
X68732933Y-60727268D01*
X68220201Y-61240000D01*
X65064320Y-61240000D01*
X65026997Y-61236324D01*
X64989674Y-61240000D01*
X64989665Y-61240000D01*
X64878012Y-61250997D01*
X64734751Y-61294454D01*
X64602722Y-61365026D01*
X64602720Y-61365027D01*
X64602721Y-61365027D01*
X64515994Y-61436201D01*
X64515990Y-61436205D01*
X64486997Y-61459999D01*
X64463203Y-61488992D01*
X62563997Y-63388200D01*
X62534999Y-63411998D01*
X62511201Y-63440996D01*
X62511200Y-63440997D01*
X62440025Y-63527723D01*
X62369453Y-63659753D01*
X62367854Y-63665026D01*
X62330249Y-63788998D01*
X62325997Y-63803014D01*
X62311323Y-63951999D01*
X62315000Y-63989332D01*
X62315000Y-66382478D01*
X62122136Y-66231797D01*
X61757319Y-66047514D01*
X61363656Y-65937602D01*
X60956142Y-65906245D01*
X60550298Y-65954639D01*
X60161583Y-66080940D01*
X59804804Y-66280338D01*
X59493549Y-66545237D01*
X59239674Y-66865547D01*
X59052849Y-67229068D01*
X58940191Y-67621954D01*
X58905990Y-68029240D01*
X58951550Y-68435412D01*
X59075134Y-68824999D01*
X59272036Y-69183162D01*
X59534755Y-69496259D01*
X59853285Y-69752364D01*
X60215494Y-69941721D01*
X60607583Y-70057120D01*
X61014620Y-70094163D01*
X61421100Y-70051440D01*
X61811541Y-69930579D01*
X62171070Y-69736182D01*
X62315000Y-69617113D01*
X62314999Y-97037677D01*
X62311323Y-97074999D01*
X62314999Y-97112321D01*
X62314999Y-97112331D01*
X62325996Y-97223984D01*
X62346628Y-97291999D01*
X62369453Y-97367245D01*
X62440025Y-97499275D01*
X62479870Y-97547825D01*
X62534998Y-97615000D01*
X62564002Y-97638803D01*
X63511703Y-98586504D01*
X63291999Y-98854215D01*
X62768749Y-99833146D01*
X62446534Y-100895348D01*
X62365000Y-101723175D01*
X62365001Y-142276826D01*
X62446535Y-143104653D01*
X62768750Y-144166855D01*
X63292000Y-145145786D01*
X63996175Y-146003826D01*
X64854215Y-146708001D01*
X65833146Y-147231251D01*
X66895348Y-147553466D01*
X68000000Y-147662265D01*
X69104653Y-147553466D01*
X70166855Y-147231251D01*
X71145786Y-146708001D01*
X72003826Y-146003826D01*
X72708001Y-145145786D01*
X73231251Y-144166855D01*
X73553466Y-143104653D01*
X73635000Y-142276826D01*
X73635000Y-101723174D01*
X73553466Y-100895347D01*
X73231251Y-99833145D01*
X72708001Y-98854214D01*
X72003825Y-97996174D01*
X71145785Y-97291999D01*
X70166854Y-96768749D01*
X69104652Y-96446534D01*
X68000000Y-96337735D01*
X66895347Y-96446534D01*
X65833145Y-96768749D01*
X64854214Y-97291999D01*
X64586504Y-97511703D01*
X63834999Y-96760198D01*
X63834999Y-65335000D01*
X63901939Y-65335000D01*
X64101898Y-65295226D01*
X64290256Y-65217205D01*
X64459774Y-65103937D01*
X64503711Y-65060000D01*
X68488422Y-65060000D01*
X68304957Y-65243465D01*
X68248102Y-65254774D01*
X68059744Y-65332795D01*
X67890226Y-65446063D01*
X67746063Y-65590226D01*
X67632795Y-65759744D01*
X67554774Y-65948102D01*
X67545372Y-65995372D01*
X67498102Y-66004774D01*
X67309744Y-66082795D01*
X67140226Y-66196063D01*
X66996063Y-66340226D01*
X66882795Y-66509744D01*
X66804774Y-66698102D01*
X66803667Y-66703667D01*
X66798102Y-66704774D01*
X66609744Y-66782795D01*
X66440226Y-66896063D01*
X66296063Y-67040226D01*
X66182795Y-67209744D01*
X66104774Y-67398102D01*
X66065000Y-67598061D01*
X66065000Y-67801939D01*
X66104774Y-68001898D01*
X66182795Y-68190256D01*
X66296063Y-68359774D01*
X66440226Y-68503937D01*
X66609744Y-68617205D01*
X66798102Y-68695226D01*
X66998061Y-68735000D01*
X67201939Y-68735000D01*
X67401898Y-68695226D01*
X67590256Y-68617205D01*
X67759774Y-68503937D01*
X67903937Y-68359774D01*
X68017205Y-68190256D01*
X68083900Y-68029240D01*
X72905990Y-68029240D01*
X72951550Y-68435412D01*
X73075134Y-68824999D01*
X73272036Y-69183162D01*
X73534755Y-69496259D01*
X73853285Y-69752364D01*
X74215494Y-69941721D01*
X74607583Y-70057120D01*
X75014620Y-70094163D01*
X75421100Y-70051440D01*
X75811541Y-69930579D01*
X76171070Y-69736182D01*
X76485993Y-69475655D01*
X76744315Y-69158920D01*
X76936197Y-68798043D01*
X77054330Y-68406768D01*
X77094214Y-68000000D01*
X77093397Y-67941526D01*
X77042171Y-67536030D01*
X76913160Y-67148206D01*
X76711276Y-66792827D01*
X76444211Y-66483429D01*
X76122136Y-66231797D01*
X75757319Y-66047514D01*
X75363656Y-65937602D01*
X74956142Y-65906245D01*
X74550298Y-65954639D01*
X74161583Y-66080940D01*
X73804804Y-66280338D01*
X73493549Y-66545237D01*
X73239674Y-66865547D01*
X73052849Y-67229068D01*
X72940191Y-67621954D01*
X72905990Y-68029240D01*
X68083900Y-68029240D01*
X68095226Y-68001898D01*
X68096333Y-67996333D01*
X68101898Y-67995226D01*
X68290256Y-67917205D01*
X68459774Y-67803937D01*
X68603937Y-67659774D01*
X68717205Y-67490256D01*
X68795226Y-67301898D01*
X68804628Y-67254628D01*
X68851898Y-67245226D01*
X69040256Y-67167205D01*
X69209774Y-67053937D01*
X69353937Y-66909774D01*
X69467205Y-66740256D01*
X69545226Y-66551898D01*
X69556535Y-66495043D01*
X73695049Y-62356530D01*
X73728817Y-62328817D01*
X73758830Y-62292247D01*
X73839411Y-62194059D01*
X73863503Y-62148985D01*
X73921589Y-62040313D01*
X73972195Y-61873490D01*
X73985000Y-61743477D01*
X73985000Y-61743469D01*
X73989281Y-61700000D01*
X73985000Y-61656531D01*
X73985000Y-59159981D01*
X74030537Y-59104494D01*
X74089502Y-58994180D01*
X74125812Y-58874482D01*
X74138072Y-58750000D01*
X74138072Y-57850000D01*
X74125812Y-57725518D01*
X74089502Y-57605820D01*
X74030537Y-57495506D01*
X73951185Y-57398815D01*
X73854494Y-57319463D01*
X73838393Y-57310857D01*
X73923000Y-57226250D01*
X73923000Y-56427000D01*
X74177000Y-56427000D01*
X74177000Y-57226250D01*
X74335750Y-57385000D01*
X74450000Y-57388072D01*
X74574482Y-57375812D01*
X74694180Y-57339502D01*
X74804494Y-57280537D01*
X74901185Y-57201185D01*
X74980537Y-57104494D01*
X75039502Y-56994180D01*
X75075812Y-56874482D01*
X75088072Y-56750000D01*
X75085000Y-56585750D01*
X74926250Y-56427000D01*
X74177000Y-56427000D01*
X73923000Y-56427000D01*
X73903000Y-56427000D01*
X73903000Y-56173000D01*
X73923000Y-56173000D01*
X73923000Y-56153000D01*
X74177000Y-56153000D01*
X74177000Y-56173000D01*
X74926250Y-56173000D01*
X75085000Y-56014250D01*
X75088072Y-55850000D01*
X75075812Y-55725518D01*
X75039502Y-55605820D01*
X74980537Y-55495506D01*
X74901185Y-55398815D01*
X74804494Y-55319463D01*
X74694180Y-55260498D01*
X74574482Y-55224188D01*
X74450000Y-55211928D01*
X74335750Y-55215000D01*
X74177002Y-55373748D01*
X74177002Y-55274686D01*
X74185000Y-55193477D01*
X74185000Y-55193469D01*
X74189281Y-55150000D01*
X74185000Y-55106531D01*
X74185000Y-54234469D01*
X74214562Y-54137016D01*
X74320044Y-54031534D01*
X74353817Y-54003817D01*
X74464411Y-53869059D01*
X74546589Y-53715313D01*
X74597195Y-53548490D01*
X74610000Y-53418477D01*
X74610000Y-53418469D01*
X74614281Y-53375000D01*
X74610000Y-53331531D01*
X74610000Y-51826328D01*
X74728817Y-51728817D01*
X74756534Y-51695044D01*
X76388946Y-50062633D01*
X76422714Y-50034920D01*
X76466248Y-49981875D01*
X76515184Y-49922246D01*
X76533308Y-49900162D01*
X76615486Y-49746416D01*
X76666092Y-49579593D01*
X76678897Y-49449580D01*
X76678897Y-49449570D01*
X76683178Y-49406104D01*
X76678897Y-49362638D01*
X76678897Y-45635000D01*
X76751788Y-45635000D01*
X76971067Y-45591383D01*
X77177624Y-45505824D01*
X77363520Y-45381612D01*
X77521612Y-45223520D01*
X77645824Y-45037624D01*
X77731383Y-44831067D01*
X77775000Y-44611788D01*
X77775000Y-44388212D01*
X77731383Y-44168933D01*
X77645824Y-43962376D01*
X77521612Y-43776480D01*
X77363520Y-43618388D01*
X77177624Y-43494176D01*
X76971067Y-43408617D01*
X76751788Y-43365000D01*
X76539802Y-43365000D01*
X76335000Y-43160199D01*
X76335000Y-43098061D01*
X76325969Y-43052658D01*
X76498905Y-43091731D01*
X76722406Y-43097511D01*
X76942740Y-43059577D01*
X77151440Y-42979387D01*
X77203450Y-42951588D01*
X77238561Y-42738166D01*
X76640000Y-42139605D01*
X76625858Y-42153748D01*
X76446253Y-41974143D01*
X76460395Y-41960000D01*
X76819605Y-41960000D01*
X77418166Y-42558561D01*
X77631588Y-42523450D01*
X77722458Y-42319174D01*
X77771731Y-42101095D01*
X77777511Y-41877594D01*
X77739577Y-41657260D01*
X77659387Y-41448560D01*
X77631588Y-41396550D01*
X77418166Y-41361439D01*
X76819605Y-41960000D01*
X76460395Y-41960000D01*
X76446253Y-41945858D01*
X76625858Y-41766253D01*
X76640000Y-41780395D01*
X77238561Y-41181834D01*
X77203450Y-40968412D01*
X76999174Y-40877542D01*
X76790401Y-40830372D01*
X76817205Y-40790256D01*
X76895226Y-40601898D01*
X76910848Y-40523361D01*
X76971067Y-40511383D01*
X77177624Y-40425824D01*
X77363520Y-40301612D01*
X77521612Y-40143520D01*
X77645824Y-39957624D01*
X77731383Y-39751067D01*
X77775000Y-39531788D01*
X77775000Y-39308212D01*
X77731383Y-39088933D01*
X77645824Y-38882376D01*
X77521612Y-38696480D01*
X77363520Y-38538388D01*
X77177624Y-38414176D01*
X77117619Y-38389321D01*
X77135000Y-38301939D01*
X77135000Y-38098061D01*
X77099242Y-37918291D01*
X77177624Y-37885824D01*
X77363520Y-37761612D01*
X77521612Y-37603520D01*
X77645824Y-37417624D01*
X77731383Y-37211067D01*
X77775000Y-36991788D01*
X77775000Y-36768212D01*
X77731383Y-36548933D01*
X77645824Y-36342376D01*
X77521612Y-36156480D01*
X77363520Y-35998388D01*
X77177624Y-35874176D01*
X76971067Y-35788617D01*
X76751788Y-35745000D01*
X76528212Y-35745000D01*
X76476241Y-35755338D01*
X76757769Y-35473810D01*
X76971067Y-35431383D01*
X77177624Y-35345824D01*
X77363520Y-35221612D01*
X77521612Y-35063520D01*
X77645824Y-34877624D01*
X77731383Y-34671067D01*
X77775000Y-34451788D01*
X77775000Y-34228212D01*
X77731383Y-34008933D01*
X77645824Y-33802376D01*
X77521612Y-33616480D01*
X77363520Y-33458388D01*
X77177624Y-33334176D01*
X76971067Y-33248617D01*
X76751788Y-33205000D01*
X76528212Y-33205000D01*
X76308933Y-33248617D01*
X76102376Y-33334176D01*
X75916480Y-33458388D01*
X75758388Y-33616480D01*
X75634176Y-33802376D01*
X75548617Y-34008933D01*
X75506190Y-34222231D01*
X74221243Y-35507179D01*
X74244812Y-35429482D01*
X74257072Y-35305000D01*
X74257072Y-34655000D01*
X74244812Y-34530518D01*
X74208502Y-34410820D01*
X74173320Y-34345000D01*
X74208502Y-34279180D01*
X74244812Y-34159482D01*
X74257072Y-34035000D01*
X74257072Y-33385000D01*
X74244812Y-33260518D01*
X74208502Y-33140820D01*
X74173320Y-33075000D01*
X74208502Y-33009180D01*
X74244812Y-32889482D01*
X74257072Y-32765000D01*
X74257072Y-32401420D01*
X74296063Y-32459774D01*
X74440226Y-32603937D01*
X74609744Y-32717205D01*
X74798102Y-32795226D01*
X74998061Y-32835000D01*
X75201939Y-32835000D01*
X75401898Y-32795226D01*
X75590256Y-32717205D01*
X75759774Y-32603937D01*
X75799290Y-32564422D01*
X75916480Y-32681612D01*
X76102376Y-32805824D01*
X76308933Y-32891383D01*
X76528212Y-32935000D01*
X76751788Y-32935000D01*
X76971067Y-32891383D01*
X77177624Y-32805824D01*
X77363520Y-32681612D01*
X77521612Y-32523520D01*
X77645824Y-32337624D01*
X77731383Y-32131067D01*
X77775000Y-31911788D01*
X77775000Y-31688212D01*
X77731383Y-31468933D01*
X77645824Y-31262376D01*
X77521612Y-31076480D01*
X77363520Y-30918388D01*
X77177624Y-30794176D01*
X77015447Y-30727000D01*
X78340001Y-30727000D01*
X78340000Y-142726619D01*
X78340000Y-142726619D01*
G37*
X78340000Y-142726619D02*
X68556139Y-152510479D01*
X68417802Y-152624109D01*
X68288623Y-152693375D01*
X68148451Y-152736230D01*
X68002623Y-152751043D01*
X67856695Y-152737248D01*
X67716222Y-152695371D01*
X67586563Y-152627010D01*
X67448982Y-152515599D01*
X57660000Y-142726620D01*
X57660000Y-51144350D01*
X57694454Y-51257932D01*
X57711059Y-51288997D01*
X57765026Y-51389961D01*
X57836201Y-51476687D01*
X57860000Y-51505686D01*
X57888998Y-51529484D01*
X58440000Y-52080487D01*
X58440001Y-56920900D01*
X58436324Y-56958232D01*
X58440001Y-56995565D01*
X58450998Y-57107218D01*
X58461173Y-57140760D01*
X58494454Y-57250478D01*
X58565026Y-57382508D01*
X58636201Y-57469234D01*
X58660000Y-57498233D01*
X58688998Y-57522031D01*
X62152974Y-60986009D01*
X62176768Y-61015002D01*
X62205761Y-61038796D01*
X62205765Y-61038800D01*
X62276454Y-61096812D01*
X62292493Y-61109975D01*
X62424522Y-61180547D01*
X62567783Y-61224004D01*
X62679436Y-61235001D01*
X62679445Y-61235001D01*
X62716768Y-61238677D01*
X62754091Y-61235001D01*
X64472679Y-61235001D01*
X64510001Y-61238677D01*
X64547323Y-61235001D01*
X64547334Y-61235001D01*
X64658987Y-61224004D01*
X64802248Y-61180547D01*
X64934277Y-61109975D01*
X65050002Y-61015002D01*
X65073805Y-60985998D01*
X65085999Y-60973804D01*
X65115002Y-60950002D01*
X65209975Y-60834277D01*
X65240440Y-60777282D01*
X65350000Y-60788072D01*
X65464250Y-60785000D01*
X65623000Y-60626250D01*
X65623000Y-59827000D01*
X65603000Y-59827000D01*
X65603000Y-59573000D01*
X65623000Y-59573000D01*
X65623000Y-58773750D01*
X65538393Y-58689143D01*
X65554494Y-58680537D01*
X65651185Y-58601185D01*
X65730537Y-58504494D01*
X65754320Y-58460000D01*
X65883662Y-58460000D01*
X65892234Y-58467036D01*
X66040082Y-58614884D01*
X66035750Y-58615000D01*
X65877000Y-58773750D01*
X65877000Y-59573000D01*
X65897000Y-59573000D01*
X65897000Y-59827000D01*
X65877000Y-59827000D01*
X65877000Y-60626250D01*
X66035750Y-60785000D01*
X66150000Y-60788072D01*
X66274482Y-60775812D01*
X66394180Y-60739502D01*
X66504494Y-60680537D01*
X66601185Y-60601185D01*
X66625000Y-60572166D01*
X66648815Y-60601185D01*
X66745506Y-60680537D01*
X66855820Y-60739502D01*
X66975518Y-60775812D01*
X67100000Y-60788072D01*
X67900000Y-60788072D01*
X68024482Y-60775812D01*
X68144180Y-60739502D01*
X68254494Y-60680537D01*
X68351185Y-60601185D01*
X68430537Y-60504494D01*
X68450000Y-60468082D01*
X68469463Y-60504494D01*
X68548815Y-60601185D01*
X68645506Y-60680537D01*
X68732933Y-60727268D01*
X68220201Y-61240000D01*
X65064320Y-61240000D01*
X65026997Y-61236324D01*
X64989674Y-61240000D01*
X64989665Y-61240000D01*
X64878012Y-61250997D01*
X64734751Y-61294454D01*
X64602722Y-61365026D01*
X64602720Y-61365027D01*
X64602721Y-61365027D01*
X64515994Y-61436201D01*
X64515990Y-61436205D01*
X64486997Y-61459999D01*
X64463203Y-61488992D01*
X62563997Y-63388200D01*
X62534999Y-63411998D01*
X62511201Y-63440996D01*
X62511200Y-63440997D01*
X62440025Y-63527723D01*
X62369453Y-63659753D01*
X62367854Y-63665026D01*
X62330249Y-63788998D01*
X62325997Y-63803014D01*
X62311323Y-63951999D01*
X62315000Y-63989332D01*
X62315000Y-66382478D01*
X62122136Y-66231797D01*
X61757319Y-66047514D01*
X61363656Y-65937602D01*
X60956142Y-65906245D01*
X60550298Y-65954639D01*
X60161583Y-66080940D01*
X59804804Y-66280338D01*
X59493549Y-66545237D01*
X59239674Y-66865547D01*
X59052849Y-67229068D01*
X58940191Y-67621954D01*
X58905990Y-68029240D01*
X58951550Y-68435412D01*
X59075134Y-68824999D01*
X59272036Y-69183162D01*
X59534755Y-69496259D01*
X59853285Y-69752364D01*
X60215494Y-69941721D01*
X60607583Y-70057120D01*
X61014620Y-70094163D01*
X61421100Y-70051440D01*
X61811541Y-69930579D01*
X62171070Y-69736182D01*
X62315000Y-69617113D01*
X62314999Y-97037677D01*
X62311323Y-97074999D01*
X62314999Y-97112321D01*
X62314999Y-97112331D01*
X62325996Y-97223984D01*
X62346628Y-97291999D01*
X62369453Y-97367245D01*
X62440025Y-97499275D01*
X62479870Y-97547825D01*
X62534998Y-97615000D01*
X62564002Y-97638803D01*
X63511703Y-98586504D01*
X63291999Y-98854215D01*
X62768749Y-99833146D01*
X62446534Y-100895348D01*
X62365000Y-101723175D01*
X62365001Y-142276826D01*
X62446535Y-143104653D01*
X62768750Y-144166855D01*
X63292000Y-145145786D01*
X63996175Y-146003826D01*
X64854215Y-146708001D01*
X65833146Y-147231251D01*
X66895348Y-147553466D01*
X68000000Y-147662265D01*
X69104653Y-147553466D01*
X70166855Y-147231251D01*
X71145786Y-146708001D01*
X72003826Y-146003826D01*
X72708001Y-145145786D01*
X73231251Y-144166855D01*
X73553466Y-143104653D01*
X73635000Y-142276826D01*
X73635000Y-101723174D01*
X73553466Y-100895347D01*
X73231251Y-99833145D01*
X72708001Y-98854214D01*
X72003825Y-97996174D01*
X71145785Y-97291999D01*
X70166854Y-96768749D01*
X69104652Y-96446534D01*
X68000000Y-96337735D01*
X66895347Y-96446534D01*
X65833145Y-96768749D01*
X64854214Y-97291999D01*
X64586504Y-97511703D01*
X63834999Y-96760198D01*
X63834999Y-65335000D01*
X63901939Y-65335000D01*
X64101898Y-65295226D01*
X64290256Y-65217205D01*
X64459774Y-65103937D01*
X64503711Y-65060000D01*
X68488422Y-65060000D01*
X68304957Y-65243465D01*
X68248102Y-65254774D01*
X68059744Y-65332795D01*
X67890226Y-65446063D01*
X67746063Y-65590226D01*
X67632795Y-65759744D01*
X67554774Y-65948102D01*
X67545372Y-65995372D01*
X67498102Y-66004774D01*
X67309744Y-66082795D01*
X67140226Y-66196063D01*
X66996063Y-66340226D01*
X66882795Y-66509744D01*
X66804774Y-66698102D01*
X66803667Y-66703667D01*
X66798102Y-66704774D01*
X66609744Y-66782795D01*
X66440226Y-66896063D01*
X66296063Y-67040226D01*
X66182795Y-67209744D01*
X66104774Y-67398102D01*
X66065000Y-67598061D01*
X66065000Y-67801939D01*
X66104774Y-68001898D01*
X66182795Y-68190256D01*
X66296063Y-68359774D01*
X66440226Y-68503937D01*
X66609744Y-68617205D01*
X66798102Y-68695226D01*
X66998061Y-68735000D01*
X67201939Y-68735000D01*
X67401898Y-68695226D01*
X67590256Y-68617205D01*
X67759774Y-68503937D01*
X67903937Y-68359774D01*
X68017205Y-68190256D01*
X68083900Y-68029240D01*
X72905990Y-68029240D01*
X72951550Y-68435412D01*
X73075134Y-68824999D01*
X73272036Y-69183162D01*
X73534755Y-69496259D01*
X73853285Y-69752364D01*
X74215494Y-69941721D01*
X74607583Y-70057120D01*
X75014620Y-70094163D01*
X75421100Y-70051440D01*
X75811541Y-69930579D01*
X76171070Y-69736182D01*
X76485993Y-69475655D01*
X76744315Y-69158920D01*
X76936197Y-68798043D01*
X77054330Y-68406768D01*
X77094214Y-68000000D01*
X77093397Y-67941526D01*
X77042171Y-67536030D01*
X76913160Y-67148206D01*
X76711276Y-66792827D01*
X76444211Y-66483429D01*
X76122136Y-66231797D01*
X75757319Y-66047514D01*
X75363656Y-65937602D01*
X74956142Y-65906245D01*
X74550298Y-65954639D01*
X74161583Y-66080940D01*
X73804804Y-66280338D01*
X73493549Y-66545237D01*
X73239674Y-66865547D01*
X73052849Y-67229068D01*
X72940191Y-67621954D01*
X72905990Y-68029240D01*
X68083900Y-68029240D01*
X68095226Y-68001898D01*
X68096333Y-67996333D01*
X68101898Y-67995226D01*
X68290256Y-67917205D01*
X68459774Y-67803937D01*
X68603937Y-67659774D01*
X68717205Y-67490256D01*
X68795226Y-67301898D01*
X68804628Y-67254628D01*
X68851898Y-67245226D01*
X69040256Y-67167205D01*
X69209774Y-67053937D01*
X69353937Y-66909774D01*
X69467205Y-66740256D01*
X69545226Y-66551898D01*
X69556535Y-66495043D01*
X73695049Y-62356530D01*
X73728817Y-62328817D01*
X73758830Y-62292247D01*
X73839411Y-62194059D01*
X73863503Y-62148985D01*
X73921589Y-62040313D01*
X73972195Y-61873490D01*
X73985000Y-61743477D01*
X73985000Y-61743469D01*
X73989281Y-61700000D01*
X73985000Y-61656531D01*
X73985000Y-59159981D01*
X74030537Y-59104494D01*
X74089502Y-58994180D01*
X74125812Y-58874482D01*
X74138072Y-58750000D01*
X74138072Y-57850000D01*
X74125812Y-57725518D01*
X74089502Y-57605820D01*
X74030537Y-57495506D01*
X73951185Y-57398815D01*
X73854494Y-57319463D01*
X73838393Y-57310857D01*
X73923000Y-57226250D01*
X73923000Y-56427000D01*
X74177000Y-56427000D01*
X74177000Y-57226250D01*
X74335750Y-57385000D01*
X74450000Y-57388072D01*
X74574482Y-57375812D01*
X74694180Y-57339502D01*
X74804494Y-57280537D01*
X74901185Y-57201185D01*
X74980537Y-57104494D01*
X75039502Y-56994180D01*
X75075812Y-56874482D01*
X75088072Y-56750000D01*
X75085000Y-56585750D01*
X74926250Y-56427000D01*
X74177000Y-56427000D01*
X73923000Y-56427000D01*
X73903000Y-56427000D01*
X73903000Y-56173000D01*
X73923000Y-56173000D01*
X73923000Y-56153000D01*
X74177000Y-56153000D01*
X74177000Y-56173000D01*
X74926250Y-56173000D01*
X75085000Y-56014250D01*
X75088072Y-55850000D01*
X75075812Y-55725518D01*
X75039502Y-55605820D01*
X74980537Y-55495506D01*
X74901185Y-55398815D01*
X74804494Y-55319463D01*
X74694180Y-55260498D01*
X74574482Y-55224188D01*
X74450000Y-55211928D01*
X74335750Y-55215000D01*
X74177002Y-55373748D01*
X74177002Y-55274686D01*
X74185000Y-55193477D01*
X74185000Y-55193469D01*
X74189281Y-55150000D01*
X74185000Y-55106531D01*
X74185000Y-54234469D01*
X74214562Y-54137016D01*
X74320044Y-54031534D01*
X74353817Y-54003817D01*
X74464411Y-53869059D01*
X74546589Y-53715313D01*
X74597195Y-53548490D01*
X74610000Y-53418477D01*
X74610000Y-53418469D01*
X74614281Y-53375000D01*
X74610000Y-53331531D01*
X74610000Y-51826328D01*
X74728817Y-51728817D01*
X74756534Y-51695044D01*
X76388946Y-50062633D01*
X76422714Y-50034920D01*
X76466248Y-49981875D01*
X76515184Y-49922246D01*
X76533308Y-49900162D01*
X76615486Y-49746416D01*
X76666092Y-49579593D01*
X76678897Y-49449580D01*
X76678897Y-49449570D01*
X76683178Y-49406104D01*
X76678897Y-49362638D01*
X76678897Y-45635000D01*
X76751788Y-45635000D01*
X76971067Y-45591383D01*
X77177624Y-45505824D01*
X77363520Y-45381612D01*
X77521612Y-45223520D01*
X77645824Y-45037624D01*
X77731383Y-44831067D01*
X77775000Y-44611788D01*
X77775000Y-44388212D01*
X77731383Y-44168933D01*
X77645824Y-43962376D01*
X77521612Y-43776480D01*
X77363520Y-43618388D01*
X77177624Y-43494176D01*
X76971067Y-43408617D01*
X76751788Y-43365000D01*
X76539802Y-43365000D01*
X76335000Y-43160199D01*
X76335000Y-43098061D01*
X76325969Y-43052658D01*
X76498905Y-43091731D01*
X76722406Y-43097511D01*
X76942740Y-43059577D01*
X77151440Y-42979387D01*
X77203450Y-42951588D01*
X77238561Y-42738166D01*
X76640000Y-42139605D01*
X76625858Y-42153748D01*
X76446253Y-41974143D01*
X76460395Y-41960000D01*
X76819605Y-41960000D01*
X77418166Y-42558561D01*
X77631588Y-42523450D01*
X77722458Y-42319174D01*
X77771731Y-42101095D01*
X77777511Y-41877594D01*
X77739577Y-41657260D01*
X77659387Y-41448560D01*
X77631588Y-41396550D01*
X77418166Y-41361439D01*
X76819605Y-41960000D01*
X76460395Y-41960000D01*
X76446253Y-41945858D01*
X76625858Y-41766253D01*
X76640000Y-41780395D01*
X77238561Y-41181834D01*
X77203450Y-40968412D01*
X76999174Y-40877542D01*
X76790401Y-40830372D01*
X76817205Y-40790256D01*
X76895226Y-40601898D01*
X76910848Y-40523361D01*
X76971067Y-40511383D01*
X77177624Y-40425824D01*
X77363520Y-40301612D01*
X77521612Y-40143520D01*
X77645824Y-39957624D01*
X77731383Y-39751067D01*
X77775000Y-39531788D01*
X77775000Y-39308212D01*
X77731383Y-39088933D01*
X77645824Y-38882376D01*
X77521612Y-38696480D01*
X77363520Y-38538388D01*
X77177624Y-38414176D01*
X77117619Y-38389321D01*
X77135000Y-38301939D01*
X77135000Y-38098061D01*
X77099242Y-37918291D01*
X77177624Y-37885824D01*
X77363520Y-37761612D01*
X77521612Y-37603520D01*
X77645824Y-37417624D01*
X77731383Y-37211067D01*
X77775000Y-36991788D01*
X77775000Y-36768212D01*
X77731383Y-36548933D01*
X77645824Y-36342376D01*
X77521612Y-36156480D01*
X77363520Y-35998388D01*
X77177624Y-35874176D01*
X76971067Y-35788617D01*
X76751788Y-35745000D01*
X76528212Y-35745000D01*
X76476241Y-35755338D01*
X76757769Y-35473810D01*
X76971067Y-35431383D01*
X77177624Y-35345824D01*
X77363520Y-35221612D01*
X77521612Y-35063520D01*
X77645824Y-34877624D01*
X77731383Y-34671067D01*
X77775000Y-34451788D01*
X77775000Y-34228212D01*
X77731383Y-34008933D01*
X77645824Y-33802376D01*
X77521612Y-33616480D01*
X77363520Y-33458388D01*
X77177624Y-33334176D01*
X76971067Y-33248617D01*
X76751788Y-33205000D01*
X76528212Y-33205000D01*
X76308933Y-33248617D01*
X76102376Y-33334176D01*
X75916480Y-33458388D01*
X75758388Y-33616480D01*
X75634176Y-33802376D01*
X75548617Y-34008933D01*
X75506190Y-34222231D01*
X74221243Y-35507179D01*
X74244812Y-35429482D01*
X74257072Y-35305000D01*
X74257072Y-34655000D01*
X74244812Y-34530518D01*
X74208502Y-34410820D01*
X74173320Y-34345000D01*
X74208502Y-34279180D01*
X74244812Y-34159482D01*
X74257072Y-34035000D01*
X74257072Y-33385000D01*
X74244812Y-33260518D01*
X74208502Y-33140820D01*
X74173320Y-33075000D01*
X74208502Y-33009180D01*
X74244812Y-32889482D01*
X74257072Y-32765000D01*
X74257072Y-32401420D01*
X74296063Y-32459774D01*
X74440226Y-32603937D01*
X74609744Y-32717205D01*
X74798102Y-32795226D01*
X74998061Y-32835000D01*
X75201939Y-32835000D01*
X75401898Y-32795226D01*
X75590256Y-32717205D01*
X75759774Y-32603937D01*
X75799290Y-32564422D01*
X75916480Y-32681612D01*
X76102376Y-32805824D01*
X76308933Y-32891383D01*
X76528212Y-32935000D01*
X76751788Y-32935000D01*
X76971067Y-32891383D01*
X77177624Y-32805824D01*
X77363520Y-32681612D01*
X77521612Y-32523520D01*
X77645824Y-32337624D01*
X77731383Y-32131067D01*
X77775000Y-31911788D01*
X77775000Y-31688212D01*
X77731383Y-31468933D01*
X77645824Y-31262376D01*
X77521612Y-31076480D01*
X77363520Y-30918388D01*
X77177624Y-30794176D01*
X77015447Y-30727000D01*
X78340001Y-30727000D01*
X78340000Y-142726619D01*
G36*
X70189990Y-58748594D02*
G01*
X70154494Y-58719463D01*
X70044180Y-58660498D01*
X69924482Y-58624188D01*
X69800000Y-58611928D01*
X69685750Y-58615000D01*
X69527000Y-58773750D01*
X69527000Y-59573000D01*
X69547000Y-59573000D01*
X69547000Y-59827000D01*
X69527000Y-59827000D01*
X69527000Y-59847000D01*
X69273000Y-59847000D01*
X69273000Y-59827000D01*
X69253000Y-59827000D01*
X69253000Y-59573000D01*
X69273000Y-59573000D01*
X69273000Y-58773750D01*
X69188393Y-58689143D01*
X69204494Y-58680537D01*
X69301185Y-58601185D01*
X69380537Y-58504494D01*
X69439502Y-58394180D01*
X69444532Y-58377599D01*
X69524276Y-58334974D01*
X69640001Y-58240001D01*
X69663803Y-58210998D01*
X70189991Y-57684812D01*
X70189990Y-58748594D01*
X70189990Y-58748594D01*
G37*
X70189990Y-58748594D02*
X70154494Y-58719463D01*
X70044180Y-58660498D01*
X69924482Y-58624188D01*
X69800000Y-58611928D01*
X69685750Y-58615000D01*
X69527000Y-58773750D01*
X69527000Y-59573000D01*
X69547000Y-59573000D01*
X69547000Y-59827000D01*
X69527000Y-59827000D01*
X69527000Y-59847000D01*
X69273000Y-59847000D01*
X69273000Y-59827000D01*
X69253000Y-59827000D01*
X69253000Y-59573000D01*
X69273000Y-59573000D01*
X69273000Y-58773750D01*
X69188393Y-58689143D01*
X69204494Y-58680537D01*
X69301185Y-58601185D01*
X69380537Y-58504494D01*
X69439502Y-58394180D01*
X69444532Y-58377599D01*
X69524276Y-58334974D01*
X69640001Y-58240001D01*
X69663803Y-58210998D01*
X70189991Y-57684812D01*
X70189990Y-58748594D01*
G36*
X67667126Y-55341928D02*
G01*
X67637500Y-55341928D01*
X67484243Y-55357023D01*
X67336875Y-55401726D01*
X67300000Y-55421436D01*
X67263125Y-55401726D01*
X67115757Y-55357023D01*
X66962500Y-55341928D01*
X66667500Y-55341928D01*
X66514243Y-55357023D01*
X66366875Y-55401726D01*
X66231060Y-55474321D01*
X66151030Y-55540000D01*
X65435255Y-55540000D01*
X65435000Y-55523250D01*
X65276250Y-55364500D01*
X64227000Y-55364500D01*
X64227000Y-55384500D01*
X63973000Y-55384500D01*
X63973000Y-55364500D01*
X63953000Y-55364500D01*
X63953000Y-55110500D01*
X63973000Y-55110500D01*
X63973000Y-55090500D01*
X64227000Y-55090500D01*
X64227000Y-55110500D01*
X65251562Y-55110500D01*
X65305820Y-55139502D01*
X65425518Y-55175812D01*
X65550000Y-55188072D01*
X66850000Y-55188072D01*
X66974482Y-55175812D01*
X67094180Y-55139502D01*
X67204494Y-55080537D01*
X67301185Y-55001185D01*
X67312543Y-54987345D01*
X67667126Y-55341928D01*
X67667126Y-55341928D01*
G37*
X67667126Y-55341928D02*
X67637500Y-55341928D01*
X67484243Y-55357023D01*
X67336875Y-55401726D01*
X67300000Y-55421436D01*
X67263125Y-55401726D01*
X67115757Y-55357023D01*
X66962500Y-55341928D01*
X66667500Y-55341928D01*
X66514243Y-55357023D01*
X66366875Y-55401726D01*
X66231060Y-55474321D01*
X66151030Y-55540000D01*
X65435255Y-55540000D01*
X65435000Y-55523250D01*
X65276250Y-55364500D01*
X64227000Y-55364500D01*
X64227000Y-55384500D01*
X63973000Y-55384500D01*
X63973000Y-55364500D01*
X63953000Y-55364500D01*
X63953000Y-55110500D01*
X63973000Y-55110500D01*
X63973000Y-55090500D01*
X64227000Y-55090500D01*
X64227000Y-55110500D01*
X65251562Y-55110500D01*
X65305820Y-55139502D01*
X65425518Y-55175812D01*
X65550000Y-55188072D01*
X66850000Y-55188072D01*
X66974482Y-55175812D01*
X67094180Y-55139502D01*
X67204494Y-55080537D01*
X67301185Y-55001185D01*
X67312543Y-54987345D01*
X67667126Y-55341928D01*
G36*
X69027000Y-44946000D02*
G01*
X69007000Y-44946000D01*
X69007000Y-45795250D01*
X69165750Y-45954000D01*
X69205000Y-45957072D01*
X69265001Y-45951163D01*
X69265001Y-47006521D01*
X69260719Y-47050000D01*
X69277805Y-47223490D01*
X69328412Y-47390313D01*
X69410590Y-47544059D01*
X69493468Y-47645046D01*
X69493471Y-47645049D01*
X69521184Y-47678817D01*
X69554952Y-47706530D01*
X69760438Y-47912016D01*
X69801726Y-48048125D01*
X69821436Y-48085000D01*
X69801726Y-48121875D01*
X69757023Y-48269243D01*
X69741928Y-48422500D01*
X69741928Y-48717500D01*
X69757023Y-48870757D01*
X69801726Y-49018125D01*
X69874321Y-49153940D01*
X69972017Y-49272983D01*
X70065120Y-49349391D01*
X70159999Y-49465001D01*
X70189001Y-49488802D01*
X70970038Y-50269840D01*
X70975870Y-50329052D01*
X71017159Y-50465164D01*
X71072334Y-50568389D01*
X71017250Y-50665119D01*
X70977747Y-50783801D01*
X70965000Y-50893250D01*
X71123750Y-51052000D01*
X71748000Y-51052000D01*
X71748000Y-50953000D01*
X71811928Y-50953000D01*
X71811928Y-51225000D01*
X71827551Y-51383622D01*
X71873819Y-51536149D01*
X71948955Y-51676719D01*
X72002000Y-51741354D01*
X72002000Y-51751250D01*
X72047288Y-51796538D01*
X72050071Y-51799929D01*
X72053462Y-51802712D01*
X72160750Y-51910000D01*
X72186959Y-51908356D01*
X72313851Y-51976181D01*
X72466378Y-52022449D01*
X72625000Y-52038072D01*
X72840000Y-52038072D01*
X72840001Y-52881647D01*
X72749482Y-52854188D01*
X72625000Y-52841928D01*
X72615750Y-52845000D01*
X72457000Y-53003750D01*
X72457000Y-53270237D01*
X72426726Y-53326875D01*
X72382023Y-53474243D01*
X72366928Y-53627500D01*
X72366928Y-53972500D01*
X72382023Y-54125757D01*
X72415001Y-54234471D01*
X72415000Y-54783421D01*
X72160000Y-55038421D01*
X72160000Y-54837333D01*
X72163677Y-54800000D01*
X72149003Y-54651014D01*
X72148824Y-54650426D01*
X72203000Y-54596250D01*
X72203000Y-53927000D01*
X71558750Y-53927000D01*
X71444995Y-54040755D01*
X71437333Y-54040000D01*
X71400000Y-54036323D01*
X71362667Y-54040000D01*
X70988072Y-54040000D01*
X70988072Y-53480000D01*
X71396928Y-53480000D01*
X71400000Y-53514250D01*
X71558750Y-53673000D01*
X72203000Y-53673000D01*
X72203000Y-53003750D01*
X72044250Y-52845000D01*
X72035000Y-52841928D01*
X71910518Y-52854188D01*
X71790820Y-52890498D01*
X71680506Y-52949463D01*
X71583815Y-53028815D01*
X71504463Y-53125506D01*
X71445498Y-53235820D01*
X71409188Y-53355518D01*
X71396928Y-53480000D01*
X70988072Y-53480000D01*
X70988072Y-52850000D01*
X70975812Y-52725518D01*
X70939502Y-52605820D01*
X70880537Y-52495506D01*
X70801185Y-52398815D01*
X70704494Y-52319463D01*
X70594180Y-52260498D01*
X70474482Y-52224188D01*
X70460000Y-52222762D01*
X70460000Y-51837322D01*
X70463676Y-51799999D01*
X70460000Y-51762676D01*
X70460000Y-51762667D01*
X70449003Y-51651014D01*
X70405546Y-51507753D01*
X70334974Y-51375724D01*
X70278369Y-51306750D01*
X70965000Y-51306750D01*
X70977747Y-51416199D01*
X71017250Y-51534881D01*
X71079147Y-51643576D01*
X71161061Y-51738108D01*
X71259843Y-51814842D01*
X71371697Y-51870830D01*
X71492324Y-51903921D01*
X71589250Y-51910000D01*
X71748000Y-51751250D01*
X71748000Y-51148000D01*
X71123750Y-51148000D01*
X70965000Y-51306750D01*
X70278369Y-51306750D01*
X70258072Y-51282019D01*
X70258072Y-51252500D01*
X70242977Y-51099243D01*
X70205688Y-50976316D01*
X70209502Y-50969180D01*
X70245812Y-50849482D01*
X70258072Y-50725000D01*
X70255000Y-50715750D01*
X70096250Y-50557000D01*
X69829763Y-50557000D01*
X69773125Y-50526726D01*
X69625757Y-50482023D01*
X69472500Y-50466928D01*
X69127500Y-50466928D01*
X68974243Y-50482023D01*
X68826875Y-50526726D01*
X68770237Y-50557000D01*
X68529763Y-50557000D01*
X68473125Y-50526726D01*
X68325757Y-50482023D01*
X68172500Y-50466928D01*
X67853000Y-50466928D01*
X67853000Y-50303000D01*
X67873000Y-50303000D01*
X67873000Y-50283000D01*
X68127000Y-50283000D01*
X68127000Y-50303000D01*
X69173000Y-50303000D01*
X69173000Y-49658750D01*
X69427000Y-49658750D01*
X69427000Y-50303000D01*
X70096250Y-50303000D01*
X70255000Y-50144250D01*
X70258072Y-50135000D01*
X70245812Y-50010518D01*
X70209502Y-49890820D01*
X70150537Y-49780506D01*
X70071185Y-49683815D01*
X69974494Y-49604463D01*
X69864180Y-49545498D01*
X69744482Y-49509188D01*
X69620000Y-49496928D01*
X69585750Y-49500000D01*
X69427000Y-49658750D01*
X69173000Y-49658750D01*
X69014250Y-49500000D01*
X68980000Y-49496928D01*
X68855518Y-49509188D01*
X68735820Y-49545498D01*
X68650000Y-49591370D01*
X68564180Y-49545498D01*
X68444482Y-49509188D01*
X68320000Y-49496928D01*
X68285750Y-49500000D01*
X68127002Y-49658748D01*
X68127002Y-49583990D01*
X68134974Y-49574276D01*
X68167923Y-49512634D01*
X68244180Y-49489502D01*
X68354494Y-49430537D01*
X68451185Y-49351185D01*
X68530537Y-49254494D01*
X68589502Y-49144180D01*
X68625812Y-49024482D01*
X68638072Y-48900000D01*
X68638072Y-47100000D01*
X68625812Y-46975518D01*
X68589502Y-46855820D01*
X68530537Y-46745506D01*
X68451185Y-46648815D01*
X68354494Y-46569463D01*
X68244180Y-46510498D01*
X68124482Y-46474188D01*
X68000000Y-46461928D01*
X67436729Y-46461928D01*
X67238802Y-46264001D01*
X67215000Y-46234998D01*
X67099275Y-46140025D01*
X66967246Y-46069453D01*
X66823985Y-46025996D01*
X66712332Y-46014999D01*
X66712321Y-46014999D01*
X66674999Y-46011323D01*
X66637677Y-46014999D01*
X65895801Y-46014999D01*
X65797352Y-45916550D01*
X65890518Y-45944812D01*
X66015000Y-45957072D01*
X66665000Y-45957072D01*
X66789482Y-45944812D01*
X66909180Y-45908502D01*
X66975000Y-45873320D01*
X67040820Y-45908502D01*
X67160518Y-45944812D01*
X67285000Y-45957072D01*
X67935000Y-45957072D01*
X68059482Y-45944812D01*
X68179180Y-45908502D01*
X68245000Y-45873320D01*
X68310820Y-45908502D01*
X68430518Y-45944812D01*
X68555000Y-45957072D01*
X68594250Y-45954000D01*
X68753000Y-45795250D01*
X68753000Y-44946000D01*
X68733000Y-44946000D01*
X68733000Y-44753999D01*
X69027000Y-44753999D01*
X69027000Y-44946000D01*
X69027000Y-44946000D01*
G37*
X69027000Y-44946000D02*
X69007000Y-44946000D01*
X69007000Y-45795250D01*
X69165750Y-45954000D01*
X69205000Y-45957072D01*
X69265001Y-45951163D01*
X69265001Y-47006521D01*
X69260719Y-47050000D01*
X69277805Y-47223490D01*
X69328412Y-47390313D01*
X69410590Y-47544059D01*
X69493468Y-47645046D01*
X69493471Y-47645049D01*
X69521184Y-47678817D01*
X69554952Y-47706530D01*
X69760438Y-47912016D01*
X69801726Y-48048125D01*
X69821436Y-48085000D01*
X69801726Y-48121875D01*
X69757023Y-48269243D01*
X69741928Y-48422500D01*
X69741928Y-48717500D01*
X69757023Y-48870757D01*
X69801726Y-49018125D01*
X69874321Y-49153940D01*
X69972017Y-49272983D01*
X70065120Y-49349391D01*
X70159999Y-49465001D01*
X70189001Y-49488802D01*
X70970038Y-50269840D01*
X70975870Y-50329052D01*
X71017159Y-50465164D01*
X71072334Y-50568389D01*
X71017250Y-50665119D01*
X70977747Y-50783801D01*
X70965000Y-50893250D01*
X71123750Y-51052000D01*
X71748000Y-51052000D01*
X71748000Y-50953000D01*
X71811928Y-50953000D01*
X71811928Y-51225000D01*
X71827551Y-51383622D01*
X71873819Y-51536149D01*
X71948955Y-51676719D01*
X72002000Y-51741354D01*
X72002000Y-51751250D01*
X72047288Y-51796538D01*
X72050071Y-51799929D01*
X72053462Y-51802712D01*
X72160750Y-51910000D01*
X72186959Y-51908356D01*
X72313851Y-51976181D01*
X72466378Y-52022449D01*
X72625000Y-52038072D01*
X72840000Y-52038072D01*
X72840001Y-52881647D01*
X72749482Y-52854188D01*
X72625000Y-52841928D01*
X72615750Y-52845000D01*
X72457000Y-53003750D01*
X72457000Y-53270237D01*
X72426726Y-53326875D01*
X72382023Y-53474243D01*
X72366928Y-53627500D01*
X72366928Y-53972500D01*
X72382023Y-54125757D01*
X72415001Y-54234471D01*
X72415000Y-54783421D01*
X72160000Y-55038421D01*
X72160000Y-54837333D01*
X72163677Y-54800000D01*
X72149003Y-54651014D01*
X72148824Y-54650426D01*
X72203000Y-54596250D01*
X72203000Y-53927000D01*
X71558750Y-53927000D01*
X71444995Y-54040755D01*
X71437333Y-54040000D01*
X71400000Y-54036323D01*
X71362667Y-54040000D01*
X70988072Y-54040000D01*
X70988072Y-53480000D01*
X71396928Y-53480000D01*
X71400000Y-53514250D01*
X71558750Y-53673000D01*
X72203000Y-53673000D01*
X72203000Y-53003750D01*
X72044250Y-52845000D01*
X72035000Y-52841928D01*
X71910518Y-52854188D01*
X71790820Y-52890498D01*
X71680506Y-52949463D01*
X71583815Y-53028815D01*
X71504463Y-53125506D01*
X71445498Y-53235820D01*
X71409188Y-53355518D01*
X71396928Y-53480000D01*
X70988072Y-53480000D01*
X70988072Y-52850000D01*
X70975812Y-52725518D01*
X70939502Y-52605820D01*
X70880537Y-52495506D01*
X70801185Y-52398815D01*
X70704494Y-52319463D01*
X70594180Y-52260498D01*
X70474482Y-52224188D01*
X70460000Y-52222762D01*
X70460000Y-51837322D01*
X70463676Y-51799999D01*
X70460000Y-51762676D01*
X70460000Y-51762667D01*
X70449003Y-51651014D01*
X70405546Y-51507753D01*
X70334974Y-51375724D01*
X70278369Y-51306750D01*
X70965000Y-51306750D01*
X70977747Y-51416199D01*
X71017250Y-51534881D01*
X71079147Y-51643576D01*
X71161061Y-51738108D01*
X71259843Y-51814842D01*
X71371697Y-51870830D01*
X71492324Y-51903921D01*
X71589250Y-51910000D01*
X71748000Y-51751250D01*
X71748000Y-51148000D01*
X71123750Y-51148000D01*
X70965000Y-51306750D01*
X70278369Y-51306750D01*
X70258072Y-51282019D01*
X70258072Y-51252500D01*
X70242977Y-51099243D01*
X70205688Y-50976316D01*
X70209502Y-50969180D01*
X70245812Y-50849482D01*
X70258072Y-50725000D01*
X70255000Y-50715750D01*
X70096250Y-50557000D01*
X69829763Y-50557000D01*
X69773125Y-50526726D01*
X69625757Y-50482023D01*
X69472500Y-50466928D01*
X69127500Y-50466928D01*
X68974243Y-50482023D01*
X68826875Y-50526726D01*
X68770237Y-50557000D01*
X68529763Y-50557000D01*
X68473125Y-50526726D01*
X68325757Y-50482023D01*
X68172500Y-50466928D01*
X67853000Y-50466928D01*
X67853000Y-50303000D01*
X67873000Y-50303000D01*
X67873000Y-50283000D01*
X68127000Y-50283000D01*
X68127000Y-50303000D01*
X69173000Y-50303000D01*
X69173000Y-49658750D01*
X69427000Y-49658750D01*
X69427000Y-50303000D01*
X70096250Y-50303000D01*
X70255000Y-50144250D01*
X70258072Y-50135000D01*
X70245812Y-50010518D01*
X70209502Y-49890820D01*
X70150537Y-49780506D01*
X70071185Y-49683815D01*
X69974494Y-49604463D01*
X69864180Y-49545498D01*
X69744482Y-49509188D01*
X69620000Y-49496928D01*
X69585750Y-49500000D01*
X69427000Y-49658750D01*
X69173000Y-49658750D01*
X69014250Y-49500000D01*
X68980000Y-49496928D01*
X68855518Y-49509188D01*
X68735820Y-49545498D01*
X68650000Y-49591370D01*
X68564180Y-49545498D01*
X68444482Y-49509188D01*
X68320000Y-49496928D01*
X68285750Y-49500000D01*
X68127002Y-49658748D01*
X68127002Y-49583990D01*
X68134974Y-49574276D01*
X68167923Y-49512634D01*
X68244180Y-49489502D01*
X68354494Y-49430537D01*
X68451185Y-49351185D01*
X68530537Y-49254494D01*
X68589502Y-49144180D01*
X68625812Y-49024482D01*
X68638072Y-48900000D01*
X68638072Y-47100000D01*
X68625812Y-46975518D01*
X68589502Y-46855820D01*
X68530537Y-46745506D01*
X68451185Y-46648815D01*
X68354494Y-46569463D01*
X68244180Y-46510498D01*
X68124482Y-46474188D01*
X68000000Y-46461928D01*
X67436729Y-46461928D01*
X67238802Y-46264001D01*
X67215000Y-46234998D01*
X67099275Y-46140025D01*
X66967246Y-46069453D01*
X66823985Y-46025996D01*
X66712332Y-46014999D01*
X66712321Y-46014999D01*
X66674999Y-46011323D01*
X66637677Y-46014999D01*
X65895801Y-46014999D01*
X65797352Y-45916550D01*
X65890518Y-45944812D01*
X66015000Y-45957072D01*
X66665000Y-45957072D01*
X66789482Y-45944812D01*
X66909180Y-45908502D01*
X66975000Y-45873320D01*
X67040820Y-45908502D01*
X67160518Y-45944812D01*
X67285000Y-45957072D01*
X67935000Y-45957072D01*
X68059482Y-45944812D01*
X68179180Y-45908502D01*
X68245000Y-45873320D01*
X68310820Y-45908502D01*
X68430518Y-45944812D01*
X68555000Y-45957072D01*
X68594250Y-45954000D01*
X68753000Y-45795250D01*
X68753000Y-44946000D01*
X68733000Y-44946000D01*
X68733000Y-44753999D01*
X69027000Y-44753999D01*
X69027000Y-44946000D01*
G36*
X63861928Y-47536731D02*
G01*
X63861928Y-48900000D01*
X63874188Y-49024482D01*
X63910498Y-49144180D01*
X63969463Y-49254494D01*
X64040000Y-49340444D01*
X64040000Y-49766029D01*
X63974321Y-49846060D01*
X63901726Y-49981875D01*
X63857023Y-50129243D01*
X63841928Y-50282500D01*
X63841928Y-50577500D01*
X63857023Y-50730757D01*
X63894312Y-50853684D01*
X63890498Y-50860820D01*
X63854188Y-50980518D01*
X63841928Y-51105000D01*
X63845000Y-51114250D01*
X64003750Y-51273000D01*
X64270237Y-51273000D01*
X64326875Y-51303274D01*
X64474243Y-51347977D01*
X64627500Y-51363072D01*
X64972500Y-51363072D01*
X65125757Y-51347977D01*
X65273125Y-51303274D01*
X65329763Y-51273000D01*
X65670237Y-51273000D01*
X65726875Y-51303274D01*
X65874243Y-51347977D01*
X66027500Y-51363072D01*
X66347000Y-51363072D01*
X66347000Y-51527000D01*
X66327000Y-51527000D01*
X66327000Y-51547000D01*
X66073000Y-51547000D01*
X66073000Y-51527000D01*
X64927000Y-51527000D01*
X64927000Y-51547000D01*
X64673000Y-51547000D01*
X64673000Y-51527000D01*
X64003750Y-51527000D01*
X63845000Y-51685750D01*
X63841928Y-51695000D01*
X63854188Y-51819482D01*
X63890498Y-51939180D01*
X63949463Y-52049494D01*
X64028815Y-52146185D01*
X64125506Y-52225537D01*
X64146817Y-52236928D01*
X63643750Y-52236928D01*
X63471715Y-52253872D01*
X63306291Y-52304053D01*
X63153836Y-52385542D01*
X63112704Y-52419299D01*
X63110000Y-52285750D01*
X62951250Y-52127000D01*
X62127000Y-52127000D01*
X62127000Y-52913750D01*
X62169225Y-52955975D01*
X61973998Y-53151201D01*
X61945000Y-53174999D01*
X61921202Y-53203997D01*
X61921201Y-53203998D01*
X61850026Y-53290724D01*
X61779454Y-53422754D01*
X61776996Y-53430858D01*
X61770414Y-53452557D01*
X61662500Y-53441928D01*
X61631730Y-53441928D01*
X61099865Y-52910064D01*
X61170506Y-52968037D01*
X61280820Y-53027002D01*
X61400518Y-53063312D01*
X61525000Y-53075572D01*
X61714250Y-53072500D01*
X61873000Y-52913750D01*
X61873000Y-52127000D01*
X61853000Y-52127000D01*
X61853000Y-51873000D01*
X61873000Y-51873000D01*
X61873000Y-51853000D01*
X62127000Y-51853000D01*
X62127000Y-51873000D01*
X62951250Y-51873000D01*
X63110000Y-51714250D01*
X63113072Y-51562500D01*
X63100812Y-51438018D01*
X63064502Y-51318320D01*
X63005537Y-51208006D01*
X62950900Y-51141430D01*
X62968671Y-51119775D01*
X63047850Y-50971642D01*
X63096608Y-50810908D01*
X63113072Y-50643750D01*
X63113072Y-50206250D01*
X63096608Y-50039092D01*
X63047850Y-49878358D01*
X62968671Y-49730225D01*
X62862115Y-49600385D01*
X62760000Y-49516582D01*
X62760000Y-48633970D01*
X62825679Y-48553940D01*
X62898274Y-48418125D01*
X62942977Y-48270757D01*
X62958072Y-48117500D01*
X62958072Y-47822500D01*
X62942977Y-47669243D01*
X62898274Y-47521875D01*
X62878564Y-47485000D01*
X62898274Y-47448125D01*
X62942977Y-47300757D01*
X62958072Y-47147500D01*
X62958072Y-46852500D01*
X62942977Y-46699243D01*
X62907505Y-46582307D01*
X63861928Y-47536731D01*
X63861928Y-47536731D01*
G37*
X63861928Y-47536731D02*
X63861928Y-48900000D01*
X63874188Y-49024482D01*
X63910498Y-49144180D01*
X63969463Y-49254494D01*
X64040000Y-49340444D01*
X64040000Y-49766029D01*
X63974321Y-49846060D01*
X63901726Y-49981875D01*
X63857023Y-50129243D01*
X63841928Y-50282500D01*
X63841928Y-50577500D01*
X63857023Y-50730757D01*
X63894312Y-50853684D01*
X63890498Y-50860820D01*
X63854188Y-50980518D01*
X63841928Y-51105000D01*
X63845000Y-51114250D01*
X64003750Y-51273000D01*
X64270237Y-51273000D01*
X64326875Y-51303274D01*
X64474243Y-51347977D01*
X64627500Y-51363072D01*
X64972500Y-51363072D01*
X65125757Y-51347977D01*
X65273125Y-51303274D01*
X65329763Y-51273000D01*
X65670237Y-51273000D01*
X65726875Y-51303274D01*
X65874243Y-51347977D01*
X66027500Y-51363072D01*
X66347000Y-51363072D01*
X66347000Y-51527000D01*
X66327000Y-51527000D01*
X66327000Y-51547000D01*
X66073000Y-51547000D01*
X66073000Y-51527000D01*
X64927000Y-51527000D01*
X64927000Y-51547000D01*
X64673000Y-51547000D01*
X64673000Y-51527000D01*
X64003750Y-51527000D01*
X63845000Y-51685750D01*
X63841928Y-51695000D01*
X63854188Y-51819482D01*
X63890498Y-51939180D01*
X63949463Y-52049494D01*
X64028815Y-52146185D01*
X64125506Y-52225537D01*
X64146817Y-52236928D01*
X63643750Y-52236928D01*
X63471715Y-52253872D01*
X63306291Y-52304053D01*
X63153836Y-52385542D01*
X63112704Y-52419299D01*
X63110000Y-52285750D01*
X62951250Y-52127000D01*
X62127000Y-52127000D01*
X62127000Y-52913750D01*
X62169225Y-52955975D01*
X61973998Y-53151201D01*
X61945000Y-53174999D01*
X61921202Y-53203997D01*
X61921201Y-53203998D01*
X61850026Y-53290724D01*
X61779454Y-53422754D01*
X61776996Y-53430858D01*
X61770414Y-53452557D01*
X61662500Y-53441928D01*
X61631730Y-53441928D01*
X61099865Y-52910064D01*
X61170506Y-52968037D01*
X61280820Y-53027002D01*
X61400518Y-53063312D01*
X61525000Y-53075572D01*
X61714250Y-53072500D01*
X61873000Y-52913750D01*
X61873000Y-52127000D01*
X61853000Y-52127000D01*
X61853000Y-51873000D01*
X61873000Y-51873000D01*
X61873000Y-51853000D01*
X62127000Y-51853000D01*
X62127000Y-51873000D01*
X62951250Y-51873000D01*
X63110000Y-51714250D01*
X63113072Y-51562500D01*
X63100812Y-51438018D01*
X63064502Y-51318320D01*
X63005537Y-51208006D01*
X62950900Y-51141430D01*
X62968671Y-51119775D01*
X63047850Y-50971642D01*
X63096608Y-50810908D01*
X63113072Y-50643750D01*
X63113072Y-50206250D01*
X63096608Y-50039092D01*
X63047850Y-49878358D01*
X62968671Y-49730225D01*
X62862115Y-49600385D01*
X62760000Y-49516582D01*
X62760000Y-48633970D01*
X62825679Y-48553940D01*
X62898274Y-48418125D01*
X62942977Y-48270757D01*
X62958072Y-48117500D01*
X62958072Y-47822500D01*
X62942977Y-47669243D01*
X62898274Y-47521875D01*
X62878564Y-47485000D01*
X62898274Y-47448125D01*
X62942977Y-47300757D01*
X62958072Y-47147500D01*
X62958072Y-46852500D01*
X62942977Y-46699243D01*
X62907505Y-46582307D01*
X63861928Y-47536731D01*
G36*
X67041928Y-51252500D02*
G01*
X67041928Y-51272998D01*
X66996252Y-51272998D01*
X67044679Y-51224571D01*
X67041928Y-51252500D01*
X67041928Y-51252500D01*
G37*
X67041928Y-51252500D02*
X67041928Y-51272998D01*
X66996252Y-51272998D01*
X67044679Y-51224571D01*
X67041928Y-51252500D01*
G36*
X57665026Y-38924276D02*
G01*
X57723663Y-38995724D01*
X57760000Y-39040001D01*
X57788998Y-39063799D01*
X59296200Y-40571002D01*
X59319999Y-40600001D01*
X59348997Y-40623799D01*
X59435723Y-40694974D01*
X59519962Y-40740001D01*
X59567753Y-40765546D01*
X59711014Y-40809003D01*
X59774971Y-40815302D01*
X59755188Y-40880518D01*
X59742928Y-41005000D01*
X59742928Y-41655000D01*
X59755188Y-41779482D01*
X59791498Y-41899180D01*
X59826680Y-41965000D01*
X59791498Y-42030820D01*
X59755188Y-42150518D01*
X59742928Y-42275000D01*
X59742928Y-42925000D01*
X59755188Y-43049482D01*
X59791498Y-43169180D01*
X59850463Y-43279494D01*
X59929815Y-43376185D01*
X60026506Y-43455537D01*
X60136820Y-43514502D01*
X60256518Y-43550812D01*
X60381000Y-43563072D01*
X60789124Y-43563072D01*
X59664002Y-44688195D01*
X59634998Y-44711998D01*
X59600529Y-44753999D01*
X59540025Y-44827723D01*
X59479558Y-44940848D01*
X59469453Y-44959753D01*
X59425996Y-45103014D01*
X59414999Y-45214667D01*
X59414999Y-45214677D01*
X59411323Y-45251999D01*
X59414999Y-45289321D01*
X59415000Y-50197512D01*
X59395226Y-50098102D01*
X59317205Y-49909744D01*
X59203937Y-49740226D01*
X59059774Y-49596063D01*
X58890256Y-49482795D01*
X58701898Y-49404774D01*
X58501939Y-49365000D01*
X58298061Y-49365000D01*
X58098102Y-49404774D01*
X57909744Y-49482795D01*
X57740226Y-49596063D01*
X57660000Y-49676289D01*
X57660000Y-38914873D01*
X57665026Y-38924276D01*
X57665026Y-38924276D01*
G37*
X57665026Y-38924276D02*
X57723663Y-38995724D01*
X57760000Y-39040001D01*
X57788998Y-39063799D01*
X59296200Y-40571002D01*
X59319999Y-40600001D01*
X59348997Y-40623799D01*
X59435723Y-40694974D01*
X59519962Y-40740001D01*
X59567753Y-40765546D01*
X59711014Y-40809003D01*
X59774971Y-40815302D01*
X59755188Y-40880518D01*
X59742928Y-41005000D01*
X59742928Y-41655000D01*
X59755188Y-41779482D01*
X59791498Y-41899180D01*
X59826680Y-41965000D01*
X59791498Y-42030820D01*
X59755188Y-42150518D01*
X59742928Y-42275000D01*
X59742928Y-42925000D01*
X59755188Y-43049482D01*
X59791498Y-43169180D01*
X59850463Y-43279494D01*
X59929815Y-43376185D01*
X60026506Y-43455537D01*
X60136820Y-43514502D01*
X60256518Y-43550812D01*
X60381000Y-43563072D01*
X60789124Y-43563072D01*
X59664002Y-44688195D01*
X59634998Y-44711998D01*
X59600529Y-44753999D01*
X59540025Y-44827723D01*
X59479558Y-44940848D01*
X59469453Y-44959753D01*
X59425996Y-45103014D01*
X59414999Y-45214667D01*
X59414999Y-45214677D01*
X59411323Y-45251999D01*
X59414999Y-45289321D01*
X59415000Y-50197512D01*
X59395226Y-50098102D01*
X59317205Y-49909744D01*
X59203937Y-49740226D01*
X59059774Y-49596063D01*
X58890256Y-49482795D01*
X58701898Y-49404774D01*
X58501939Y-49365000D01*
X58298061Y-49365000D01*
X58098102Y-49404774D01*
X57909744Y-49482795D01*
X57740226Y-49596063D01*
X57660000Y-49676289D01*
X57660000Y-38914873D01*
X57665026Y-38924276D01*
G36*
X71980928Y-30845000D02*
G01*
X71980928Y-31495000D01*
X71993188Y-31619482D01*
X72029498Y-31739180D01*
X72064680Y-31805000D01*
X72029498Y-31870820D01*
X71993188Y-31990518D01*
X71980928Y-32115000D01*
X71980928Y-32765000D01*
X71993188Y-32889482D01*
X72011546Y-32950000D01*
X70227322Y-32950000D01*
X70189999Y-32946324D01*
X70152676Y-32950000D01*
X70152667Y-32950000D01*
X70041014Y-32960997D01*
X69897753Y-33004454D01*
X69765724Y-33075026D01*
X69649999Y-33169999D01*
X69626201Y-33198998D01*
X69460198Y-33365000D01*
X69398061Y-33365000D01*
X69198102Y-33404774D01*
X69009744Y-33482795D01*
X68840226Y-33596063D01*
X68696063Y-33740226D01*
X68582795Y-33909744D01*
X68504774Y-34098102D01*
X68465000Y-34298061D01*
X68465000Y-34501939D01*
X68504774Y-34701898D01*
X68582795Y-34890256D01*
X68696063Y-35059774D01*
X68840226Y-35203937D01*
X69009744Y-35317205D01*
X69198102Y-35395226D01*
X69398061Y-35435000D01*
X69601939Y-35435000D01*
X69801898Y-35395226D01*
X69990256Y-35317205D01*
X70159774Y-35203937D01*
X70303937Y-35059774D01*
X70417205Y-34890256D01*
X70495226Y-34701898D01*
X70535000Y-34501939D01*
X70535000Y-34470000D01*
X70790473Y-34470000D01*
X70765000Y-34598061D01*
X70765000Y-34801939D01*
X70804774Y-35001898D01*
X70882795Y-35190256D01*
X70937458Y-35272065D01*
X70901939Y-35265000D01*
X70698061Y-35265000D01*
X70498102Y-35304774D01*
X70309744Y-35382795D01*
X70140226Y-35496063D01*
X69996063Y-35640226D01*
X69882795Y-35809744D01*
X69804774Y-35998102D01*
X69765000Y-36198061D01*
X69765000Y-36401939D01*
X69804774Y-36601898D01*
X69882795Y-36790256D01*
X69996063Y-36959774D01*
X70140226Y-37103937D01*
X70309744Y-37217205D01*
X70498102Y-37295226D01*
X70636023Y-37322660D01*
X70604774Y-37398102D01*
X70565000Y-37598061D01*
X70565000Y-37801939D01*
X70604774Y-38001898D01*
X70682795Y-38190256D01*
X70796063Y-38359774D01*
X70940226Y-38503937D01*
X71109744Y-38617205D01*
X71298102Y-38695226D01*
X71498061Y-38735000D01*
X71701939Y-38735000D01*
X71901898Y-38695226D01*
X71980928Y-38662490D01*
X71980928Y-39115000D01*
X71993188Y-39239482D01*
X72029498Y-39359180D01*
X72064680Y-39425000D01*
X72029498Y-39490820D01*
X71993188Y-39610518D01*
X71980928Y-39735000D01*
X71980928Y-40385000D01*
X71993188Y-40509482D01*
X72029498Y-40629180D01*
X72064680Y-40695000D01*
X72029498Y-40760820D01*
X71993188Y-40880518D01*
X71980928Y-41005000D01*
X71980928Y-41655000D01*
X71993188Y-41779482D01*
X72029498Y-41899180D01*
X72064680Y-41965000D01*
X72029498Y-42030820D01*
X71993188Y-42150518D01*
X71980928Y-42275000D01*
X71980928Y-42925000D01*
X71993188Y-43049482D01*
X72029498Y-43169180D01*
X72088463Y-43279494D01*
X72167815Y-43376185D01*
X72264506Y-43455537D01*
X72374820Y-43514502D01*
X72494518Y-43550812D01*
X72619000Y-43563072D01*
X72739476Y-43563072D01*
X72817102Y-43595226D01*
X73017061Y-43635000D01*
X73220939Y-43635000D01*
X73420898Y-43595226D01*
X73498524Y-43563072D01*
X73515000Y-43563072D01*
X73515000Y-44098529D01*
X73510719Y-44141998D01*
X73515000Y-44185467D01*
X73515000Y-44185474D01*
X73519878Y-44235000D01*
X73527805Y-44315488D01*
X73530673Y-44324941D01*
X73538774Y-44351645D01*
X72337664Y-45552755D01*
X72370812Y-45443482D01*
X72383072Y-45319000D01*
X72383072Y-44319000D01*
X72370812Y-44194518D01*
X72334502Y-44074820D01*
X72275537Y-43964506D01*
X72196185Y-43867815D01*
X72099494Y-43788463D01*
X71989180Y-43729498D01*
X71869482Y-43693188D01*
X71745000Y-43680928D01*
X71095000Y-43680928D01*
X70970518Y-43693188D01*
X70850820Y-43729498D01*
X70785000Y-43764680D01*
X70719180Y-43729498D01*
X70658745Y-43711165D01*
X70221535Y-43273955D01*
X70193818Y-43240182D01*
X70059060Y-43129588D01*
X69905314Y-43047410D01*
X69738491Y-42996804D01*
X69608478Y-42983999D01*
X69608470Y-42983999D01*
X69565001Y-42979718D01*
X69521532Y-42983999D01*
X68238468Y-42983999D01*
X68194999Y-42979718D01*
X68151530Y-42983999D01*
X68151522Y-42983999D01*
X68021509Y-42996804D01*
X67854685Y-43047410D01*
X67700940Y-43129588D01*
X67566182Y-43240182D01*
X67538465Y-43273955D01*
X67101255Y-43711165D01*
X67040820Y-43729498D01*
X66975000Y-43764680D01*
X66909180Y-43729498D01*
X66789482Y-43693188D01*
X66665000Y-43680928D01*
X66015000Y-43680928D01*
X65890518Y-43693188D01*
X65770820Y-43729498D01*
X65705000Y-43764680D01*
X65639180Y-43729498D01*
X65519482Y-43693188D01*
X65395000Y-43680928D01*
X65181729Y-43680928D01*
X64983802Y-43483001D01*
X64960000Y-43453998D01*
X64844275Y-43359025D01*
X64712246Y-43288453D01*
X64568985Y-43244996D01*
X64457332Y-43233999D01*
X64457321Y-43233999D01*
X64419999Y-43230323D01*
X64382677Y-43233999D01*
X61935855Y-43233999D01*
X61970502Y-43169180D01*
X62006812Y-43049482D01*
X62019072Y-42925000D01*
X62019072Y-42275000D01*
X62006812Y-42150518D01*
X61970502Y-42030820D01*
X61935320Y-41965000D01*
X61970502Y-41899180D01*
X62006812Y-41779482D01*
X62019072Y-41655000D01*
X62019072Y-41005000D01*
X62006812Y-40880518D01*
X61970502Y-40760820D01*
X61935320Y-40695000D01*
X61970502Y-40629180D01*
X62006812Y-40509482D01*
X62019072Y-40385000D01*
X62019072Y-39735000D01*
X62006812Y-39610518D01*
X61970502Y-39490820D01*
X61935320Y-39425000D01*
X61970502Y-39359180D01*
X62006812Y-39239482D01*
X62019072Y-39115000D01*
X62019072Y-38465000D01*
X62006812Y-38340518D01*
X61970502Y-38220820D01*
X61935320Y-38155000D01*
X61970502Y-38089180D01*
X62006812Y-37969482D01*
X62019072Y-37845000D01*
X62019072Y-37195000D01*
X62006812Y-37070518D01*
X61970502Y-36950820D01*
X61935320Y-36885000D01*
X61970502Y-36819180D01*
X62006812Y-36699482D01*
X62013163Y-36635000D01*
X62201939Y-36635000D01*
X62401898Y-36595226D01*
X62590256Y-36517205D01*
X62759774Y-36403937D01*
X62903937Y-36259774D01*
X63017205Y-36090256D01*
X63095226Y-35901898D01*
X63135000Y-35701939D01*
X63135000Y-35498061D01*
X63095226Y-35298102D01*
X63017205Y-35109744D01*
X62903937Y-34940226D01*
X62774042Y-34810331D01*
X62898061Y-34835000D01*
X63101939Y-34835000D01*
X63301898Y-34795226D01*
X63490256Y-34717205D01*
X63659774Y-34603937D01*
X63803937Y-34459774D01*
X63917205Y-34290256D01*
X63995226Y-34101898D01*
X64035000Y-33901939D01*
X64035000Y-33698061D01*
X63995226Y-33498102D01*
X63917205Y-33309744D01*
X63803937Y-33140226D01*
X63659774Y-32996063D01*
X63490256Y-32882795D01*
X63301898Y-32804774D01*
X63101939Y-32765000D01*
X62898061Y-32765000D01*
X62698102Y-32804774D01*
X62509744Y-32882795D01*
X62409164Y-32950000D01*
X61988454Y-32950000D01*
X62006812Y-32889482D01*
X62019072Y-32765000D01*
X62019072Y-32115000D01*
X62006812Y-31990518D01*
X61970502Y-31870820D01*
X61935320Y-31805000D01*
X61970502Y-31739180D01*
X62006812Y-31619482D01*
X62019072Y-31495000D01*
X62019072Y-30845000D01*
X62007450Y-30727000D01*
X71992550Y-30727000D01*
X71980928Y-30845000D01*
X71980928Y-30845000D01*
G37*
X71980928Y-30845000D02*
X71980928Y-31495000D01*
X71993188Y-31619482D01*
X72029498Y-31739180D01*
X72064680Y-31805000D01*
X72029498Y-31870820D01*
X71993188Y-31990518D01*
X71980928Y-32115000D01*
X71980928Y-32765000D01*
X71993188Y-32889482D01*
X72011546Y-32950000D01*
X70227322Y-32950000D01*
X70189999Y-32946324D01*
X70152676Y-32950000D01*
X70152667Y-32950000D01*
X70041014Y-32960997D01*
X69897753Y-33004454D01*
X69765724Y-33075026D01*
X69649999Y-33169999D01*
X69626201Y-33198998D01*
X69460198Y-33365000D01*
X69398061Y-33365000D01*
X69198102Y-33404774D01*
X69009744Y-33482795D01*
X68840226Y-33596063D01*
X68696063Y-33740226D01*
X68582795Y-33909744D01*
X68504774Y-34098102D01*
X68465000Y-34298061D01*
X68465000Y-34501939D01*
X68504774Y-34701898D01*
X68582795Y-34890256D01*
X68696063Y-35059774D01*
X68840226Y-35203937D01*
X69009744Y-35317205D01*
X69198102Y-35395226D01*
X69398061Y-35435000D01*
X69601939Y-35435000D01*
X69801898Y-35395226D01*
X69990256Y-35317205D01*
X70159774Y-35203937D01*
X70303937Y-35059774D01*
X70417205Y-34890256D01*
X70495226Y-34701898D01*
X70535000Y-34501939D01*
X70535000Y-34470000D01*
X70790473Y-34470000D01*
X70765000Y-34598061D01*
X70765000Y-34801939D01*
X70804774Y-35001898D01*
X70882795Y-35190256D01*
X70937458Y-35272065D01*
X70901939Y-35265000D01*
X70698061Y-35265000D01*
X70498102Y-35304774D01*
X70309744Y-35382795D01*
X70140226Y-35496063D01*
X69996063Y-35640226D01*
X69882795Y-35809744D01*
X69804774Y-35998102D01*
X69765000Y-36198061D01*
X69765000Y-36401939D01*
X69804774Y-36601898D01*
X69882795Y-36790256D01*
X69996063Y-36959774D01*
X70140226Y-37103937D01*
X70309744Y-37217205D01*
X70498102Y-37295226D01*
X70636023Y-37322660D01*
X70604774Y-37398102D01*
X70565000Y-37598061D01*
X70565000Y-37801939D01*
X70604774Y-38001898D01*
X70682795Y-38190256D01*
X70796063Y-38359774D01*
X70940226Y-38503937D01*
X71109744Y-38617205D01*
X71298102Y-38695226D01*
X71498061Y-38735000D01*
X71701939Y-38735000D01*
X71901898Y-38695226D01*
X71980928Y-38662490D01*
X71980928Y-39115000D01*
X71993188Y-39239482D01*
X72029498Y-39359180D01*
X72064680Y-39425000D01*
X72029498Y-39490820D01*
X71993188Y-39610518D01*
X71980928Y-39735000D01*
X71980928Y-40385000D01*
X71993188Y-40509482D01*
X72029498Y-40629180D01*
X72064680Y-40695000D01*
X72029498Y-40760820D01*
X71993188Y-40880518D01*
X71980928Y-41005000D01*
X71980928Y-41655000D01*
X71993188Y-41779482D01*
X72029498Y-41899180D01*
X72064680Y-41965000D01*
X72029498Y-42030820D01*
X71993188Y-42150518D01*
X71980928Y-42275000D01*
X71980928Y-42925000D01*
X71993188Y-43049482D01*
X72029498Y-43169180D01*
X72088463Y-43279494D01*
X72167815Y-43376185D01*
X72264506Y-43455537D01*
X72374820Y-43514502D01*
X72494518Y-43550812D01*
X72619000Y-43563072D01*
X72739476Y-43563072D01*
X72817102Y-43595226D01*
X73017061Y-43635000D01*
X73220939Y-43635000D01*
X73420898Y-43595226D01*
X73498524Y-43563072D01*
X73515000Y-43563072D01*
X73515000Y-44098529D01*
X73510719Y-44141998D01*
X73515000Y-44185467D01*
X73515000Y-44185474D01*
X73519878Y-44235000D01*
X73527805Y-44315488D01*
X73530673Y-44324941D01*
X73538774Y-44351645D01*
X72337664Y-45552755D01*
X72370812Y-45443482D01*
X72383072Y-45319000D01*
X72383072Y-44319000D01*
X72370812Y-44194518D01*
X72334502Y-44074820D01*
X72275537Y-43964506D01*
X72196185Y-43867815D01*
X72099494Y-43788463D01*
X71989180Y-43729498D01*
X71869482Y-43693188D01*
X71745000Y-43680928D01*
X71095000Y-43680928D01*
X70970518Y-43693188D01*
X70850820Y-43729498D01*
X70785000Y-43764680D01*
X70719180Y-43729498D01*
X70658745Y-43711165D01*
X70221535Y-43273955D01*
X70193818Y-43240182D01*
X70059060Y-43129588D01*
X69905314Y-43047410D01*
X69738491Y-42996804D01*
X69608478Y-42983999D01*
X69608470Y-42983999D01*
X69565001Y-42979718D01*
X69521532Y-42983999D01*
X68238468Y-42983999D01*
X68194999Y-42979718D01*
X68151530Y-42983999D01*
X68151522Y-42983999D01*
X68021509Y-42996804D01*
X67854685Y-43047410D01*
X67700940Y-43129588D01*
X67566182Y-43240182D01*
X67538465Y-43273955D01*
X67101255Y-43711165D01*
X67040820Y-43729498D01*
X66975000Y-43764680D01*
X66909180Y-43729498D01*
X66789482Y-43693188D01*
X66665000Y-43680928D01*
X66015000Y-43680928D01*
X65890518Y-43693188D01*
X65770820Y-43729498D01*
X65705000Y-43764680D01*
X65639180Y-43729498D01*
X65519482Y-43693188D01*
X65395000Y-43680928D01*
X65181729Y-43680928D01*
X64983802Y-43483001D01*
X64960000Y-43453998D01*
X64844275Y-43359025D01*
X64712246Y-43288453D01*
X64568985Y-43244996D01*
X64457332Y-43233999D01*
X64457321Y-43233999D01*
X64419999Y-43230323D01*
X64382677Y-43233999D01*
X61935855Y-43233999D01*
X61970502Y-43169180D01*
X62006812Y-43049482D01*
X62019072Y-42925000D01*
X62019072Y-42275000D01*
X62006812Y-42150518D01*
X61970502Y-42030820D01*
X61935320Y-41965000D01*
X61970502Y-41899180D01*
X62006812Y-41779482D01*
X62019072Y-41655000D01*
X62019072Y-41005000D01*
X62006812Y-40880518D01*
X61970502Y-40760820D01*
X61935320Y-40695000D01*
X61970502Y-40629180D01*
X62006812Y-40509482D01*
X62019072Y-40385000D01*
X62019072Y-39735000D01*
X62006812Y-39610518D01*
X61970502Y-39490820D01*
X61935320Y-39425000D01*
X61970502Y-39359180D01*
X62006812Y-39239482D01*
X62019072Y-39115000D01*
X62019072Y-38465000D01*
X62006812Y-38340518D01*
X61970502Y-38220820D01*
X61935320Y-38155000D01*
X61970502Y-38089180D01*
X62006812Y-37969482D01*
X62019072Y-37845000D01*
X62019072Y-37195000D01*
X62006812Y-37070518D01*
X61970502Y-36950820D01*
X61935320Y-36885000D01*
X61970502Y-36819180D01*
X62006812Y-36699482D01*
X62013163Y-36635000D01*
X62201939Y-36635000D01*
X62401898Y-36595226D01*
X62590256Y-36517205D01*
X62759774Y-36403937D01*
X62903937Y-36259774D01*
X63017205Y-36090256D01*
X63095226Y-35901898D01*
X63135000Y-35701939D01*
X63135000Y-35498061D01*
X63095226Y-35298102D01*
X63017205Y-35109744D01*
X62903937Y-34940226D01*
X62774042Y-34810331D01*
X62898061Y-34835000D01*
X63101939Y-34835000D01*
X63301898Y-34795226D01*
X63490256Y-34717205D01*
X63659774Y-34603937D01*
X63803937Y-34459774D01*
X63917205Y-34290256D01*
X63995226Y-34101898D01*
X64035000Y-33901939D01*
X64035000Y-33698061D01*
X63995226Y-33498102D01*
X63917205Y-33309744D01*
X63803937Y-33140226D01*
X63659774Y-32996063D01*
X63490256Y-32882795D01*
X63301898Y-32804774D01*
X63101939Y-32765000D01*
X62898061Y-32765000D01*
X62698102Y-32804774D01*
X62509744Y-32882795D01*
X62409164Y-32950000D01*
X61988454Y-32950000D01*
X62006812Y-32889482D01*
X62019072Y-32765000D01*
X62019072Y-32115000D01*
X62006812Y-31990518D01*
X61970502Y-31870820D01*
X61935320Y-31805000D01*
X61970502Y-31739180D01*
X62006812Y-31619482D01*
X62019072Y-31495000D01*
X62019072Y-30845000D01*
X62007450Y-30727000D01*
X71992550Y-30727000D01*
X71980928Y-30845000D01*
G36*
X59598060Y-34535000D02*
G01*
X59754747Y-34535000D01*
X59742928Y-34655000D01*
X59742928Y-35305000D01*
X59755188Y-35429482D01*
X59791498Y-35549180D01*
X59826680Y-35615000D01*
X59791498Y-35680820D01*
X59755188Y-35800518D01*
X59742928Y-35925000D01*
X59746000Y-35964250D01*
X59904750Y-36123000D01*
X60754000Y-36123000D01*
X60754000Y-36103000D01*
X61008000Y-36103000D01*
X61008000Y-36123000D01*
X61028000Y-36123000D01*
X61028000Y-36377000D01*
X61008000Y-36377000D01*
X61008000Y-36397000D01*
X60754000Y-36397000D01*
X60754000Y-36377000D01*
X59904750Y-36377000D01*
X59746000Y-36535750D01*
X59742928Y-36575000D01*
X59755188Y-36699482D01*
X59791498Y-36819180D01*
X59826680Y-36885000D01*
X59791498Y-36950820D01*
X59755188Y-37070518D01*
X59742928Y-37195000D01*
X59742928Y-37845000D01*
X59745455Y-37870653D01*
X59560000Y-37685199D01*
X59560000Y-34527429D01*
X59598060Y-34535000D01*
X59598060Y-34535000D01*
G37*
X59598060Y-34535000D02*
X59754747Y-34535000D01*
X59742928Y-34655000D01*
X59742928Y-35305000D01*
X59755188Y-35429482D01*
X59791498Y-35549180D01*
X59826680Y-35615000D01*
X59791498Y-35680820D01*
X59755188Y-35800518D01*
X59742928Y-35925000D01*
X59746000Y-35964250D01*
X59904750Y-36123000D01*
X60754000Y-36123000D01*
X60754000Y-36103000D01*
X61008000Y-36103000D01*
X61008000Y-36123000D01*
X61028000Y-36123000D01*
X61028000Y-36377000D01*
X61008000Y-36377000D01*
X61008000Y-36397000D01*
X60754000Y-36397000D01*
X60754000Y-36377000D01*
X59904750Y-36377000D01*
X59746000Y-36535750D01*
X59742928Y-36575000D01*
X59755188Y-36699482D01*
X59791498Y-36819180D01*
X59826680Y-36885000D01*
X59791498Y-36950820D01*
X59755188Y-37070518D01*
X59742928Y-37195000D01*
X59742928Y-37845000D01*
X59745455Y-37870653D01*
X59560000Y-37685199D01*
X59560000Y-34527429D01*
X59598060Y-34535000D01*
M02*
