M48
; DRILL file {KiCad (5.1.10)-1} date 05/27/21 11:03:32
; FORMAT={-:-/ absolute / inch / decimal}
; #@! TF.CreationDate,2021-05-27T11:03:32+03:00
; #@! TF.GenerationSoftware,Kicad,Pcbnew,(5.1.10)-1
; #@! TF.FileFunction,Plated,1,2,PTH
FMAT,2
INCH
T1C0.0157
T2C0.0315
%
G90
G05
T1
X2.2992Y-1.9843
X2.3504Y-1.3189
X2.3976Y-1.7953
X2.4449Y-1.4016
X2.4803Y-1.3307
X2.5Y-1.5039
X2.5Y-1.9528
X2.5Y-1.9882
X2.5Y-2.0236
X2.5118Y-2.5315
X2.5236Y-2.1747
X2.5472Y-1.5039
X2.5906Y-1.5039
X2.5906Y-2.4055
X2.593Y-2.1747
X2.6417Y-1.5039
X2.6417Y-2.6654
X2.6456Y-2.1669
X2.6693Y-2.6378
X2.6988Y-2.6083
X2.7047Y-2.3898
X2.7362Y-1.3543
X2.7362Y-1.3543
X2.7874Y-1.4291
X2.8071Y-2.063
X2.8189Y-1.4843
X2.8268Y-1.3661
X2.8425Y-2.063
X2.8787Y-1.6772
X2.9328Y-1.8705
X2.9409Y-1.7992
X2.9449Y-2.1181
X2.9449Y-2.1535
X2.9567Y-1.252
X2.9646Y-1.7008
X2.9882Y-1.5866
X2.9961Y-1.5039
T2
X2.9354Y-1.1437
X3.0354Y-1.1437
T0
M30
