G04 #@! TF.GenerationSoftware,KiCad,Pcbnew,(5.1.6)-1*
G04 #@! TF.CreationDate,2021-05-25T10:57:31+03:00*
G04 #@! TF.ProjectId,parasite,70617261-7369-4746-952e-6b696361645f,1.0.0*
G04 #@! TF.SameCoordinates,Original*
G04 #@! TF.FileFunction,Paste,Top*
G04 #@! TF.FilePolarity,Positive*
%FSLAX46Y46*%
G04 Gerber Fmt 4.6, Leading zero omitted, Abs format (unit mm)*
G04 Created by KiCad (PCBNEW (5.1.6)-1) date 2021-05-25 10:57:31*
%MOMM*%
%LPD*%
G01*
G04 APERTURE LIST*
%ADD10R,1.000000X0.650000*%
%ADD11R,0.650000X1.000000*%
%ADD12R,1.000000X1.800000*%
%ADD13R,0.800000X0.900000*%
%ADD14R,1.300000X1.700000*%
G04 APERTURE END LIST*
G36*
G01*
X58927500Y-38475000D02*
X59272500Y-38475000D01*
G75*
G02*
X59420000Y-38622500I0J-147500D01*
G01*
X59420000Y-38917500D01*
G75*
G02*
X59272500Y-39065000I-147500J0D01*
G01*
X58927500Y-39065000D01*
G75*
G02*
X58780000Y-38917500I0J147500D01*
G01*
X58780000Y-38622500D01*
G75*
G02*
X58927500Y-38475000I147500J0D01*
G01*
G37*
G36*
G01*
X58927500Y-37505000D02*
X59272500Y-37505000D01*
G75*
G02*
X59420000Y-37652500I0J-147500D01*
G01*
X59420000Y-37947500D01*
G75*
G02*
X59272500Y-38095000I-147500J0D01*
G01*
X58927500Y-38095000D01*
G75*
G02*
X58780000Y-37947500I0J147500D01*
G01*
X58780000Y-37652500D01*
G75*
G02*
X58927500Y-37505000I147500J0D01*
G01*
G37*
G36*
G01*
X58927500Y-36375000D02*
X59272500Y-36375000D01*
G75*
G02*
X59420000Y-36522500I0J-147500D01*
G01*
X59420000Y-36817500D01*
G75*
G02*
X59272500Y-36965000I-147500J0D01*
G01*
X58927500Y-36965000D01*
G75*
G02*
X58780000Y-36817500I0J147500D01*
G01*
X58780000Y-36522500D01*
G75*
G02*
X58927500Y-36375000I147500J0D01*
G01*
G37*
G36*
G01*
X58927500Y-35405000D02*
X59272500Y-35405000D01*
G75*
G02*
X59420000Y-35552500I0J-147500D01*
G01*
X59420000Y-35847500D01*
G75*
G02*
X59272500Y-35995000I-147500J0D01*
G01*
X58927500Y-35995000D01*
G75*
G02*
X58780000Y-35847500I0J147500D01*
G01*
X58780000Y-35552500D01*
G75*
G02*
X58927500Y-35405000I147500J0D01*
G01*
G37*
G36*
G01*
X73050000Y-50025000D02*
X73050000Y-51175000D01*
G75*
G02*
X72925000Y-51300000I-125000J0D01*
G01*
X72675000Y-51300000D01*
G75*
G02*
X72550000Y-51175000I0J125000D01*
G01*
X72550000Y-50025000D01*
G75*
G02*
X72675000Y-49900000I125000J0D01*
G01*
X72925000Y-49900000D01*
G75*
G02*
X73050000Y-50025000I0J-125000D01*
G01*
G37*
G36*
G01*
X71500000Y-51187500D02*
X71500000Y-51012500D01*
G75*
G02*
X71587500Y-50925000I87500J0D01*
G01*
X71962500Y-50925000D01*
G75*
G02*
X72050000Y-51012500I0J-87500D01*
G01*
X72050000Y-51187500D01*
G75*
G02*
X71962500Y-51275000I-87500J0D01*
G01*
X71587500Y-51275000D01*
G75*
G02*
X71500000Y-51187500I0J87500D01*
G01*
G37*
G36*
G01*
X71500000Y-50187500D02*
X71500000Y-50012500D01*
G75*
G02*
X71587500Y-49925000I87500J0D01*
G01*
X71962500Y-49925000D01*
G75*
G02*
X72050000Y-50012500I0J-87500D01*
G01*
X72050000Y-50187500D01*
G75*
G02*
X71962500Y-50275000I-87500J0D01*
G01*
X71587500Y-50275000D01*
G75*
G02*
X71500000Y-50187500I0J87500D01*
G01*
G37*
G36*
G01*
X74100000Y-50012500D02*
X74100000Y-50187500D01*
G75*
G02*
X74012500Y-50275000I-87500J0D01*
G01*
X73637500Y-50275000D01*
G75*
G02*
X73550000Y-50187500I0J87500D01*
G01*
X73550000Y-50012500D01*
G75*
G02*
X73637500Y-49925000I87500J0D01*
G01*
X74012500Y-49925000D01*
G75*
G02*
X74100000Y-50012500I0J-87500D01*
G01*
G37*
G36*
G01*
X74100000Y-51012500D02*
X74100000Y-51187500D01*
G75*
G02*
X74012500Y-51275000I-87500J0D01*
G01*
X73637500Y-51275000D01*
G75*
G02*
X73550000Y-51187500I0J87500D01*
G01*
X73550000Y-51012500D01*
G75*
G02*
X73637500Y-50925000I87500J0D01*
G01*
X74012500Y-50925000D01*
G75*
G02*
X74100000Y-51012500I0J-87500D01*
G01*
G37*
D10*
X60881000Y-42600000D03*
X60881000Y-41330000D03*
X60881000Y-40060000D03*
X60881000Y-38790000D03*
X60881000Y-37520000D03*
X60881000Y-36250000D03*
X60881000Y-34980000D03*
X60881000Y-33710000D03*
X60881000Y-32440000D03*
X60881000Y-31170000D03*
X73119000Y-38790000D03*
X73119000Y-31170000D03*
X73119000Y-37520000D03*
X73119000Y-32440000D03*
X73119000Y-33710000D03*
X73119000Y-34980000D03*
X73119000Y-40060000D03*
X73119000Y-36250000D03*
X73119000Y-41330000D03*
X73119000Y-42600000D03*
D11*
X70150000Y-44819000D03*
X62530000Y-44819000D03*
X68880000Y-44819000D03*
X63800000Y-44819000D03*
X65070000Y-44819000D03*
X66340000Y-44819000D03*
X71420000Y-44819000D03*
X67610000Y-44819000D03*
D12*
X67500000Y-48000000D03*
X65000000Y-48000000D03*
G36*
G01*
X71927500Y-48275000D02*
X72272500Y-48275000D01*
G75*
G02*
X72420000Y-48422500I0J-147500D01*
G01*
X72420000Y-48717500D01*
G75*
G02*
X72272500Y-48865000I-147500J0D01*
G01*
X71927500Y-48865000D01*
G75*
G02*
X71780000Y-48717500I0J147500D01*
G01*
X71780000Y-48422500D01*
G75*
G02*
X71927500Y-48275000I147500J0D01*
G01*
G37*
G36*
G01*
X71927500Y-47305000D02*
X72272500Y-47305000D01*
G75*
G02*
X72420000Y-47452500I0J-147500D01*
G01*
X72420000Y-47747500D01*
G75*
G02*
X72272500Y-47895000I-147500J0D01*
G01*
X71927500Y-47895000D01*
G75*
G02*
X71780000Y-47747500I0J147500D01*
G01*
X71780000Y-47452500D01*
G75*
G02*
X71927500Y-47305000I147500J0D01*
G01*
G37*
G36*
G01*
X70872500Y-47895000D02*
X70527500Y-47895000D01*
G75*
G02*
X70380000Y-47747500I0J147500D01*
G01*
X70380000Y-47452500D01*
G75*
G02*
X70527500Y-47305000I147500J0D01*
G01*
X70872500Y-47305000D01*
G75*
G02*
X71020000Y-47452500I0J-147500D01*
G01*
X71020000Y-47747500D01*
G75*
G02*
X70872500Y-47895000I-147500J0D01*
G01*
G37*
G36*
G01*
X70872500Y-48865000D02*
X70527500Y-48865000D01*
G75*
G02*
X70380000Y-48717500I0J147500D01*
G01*
X70380000Y-48422500D01*
G75*
G02*
X70527500Y-48275000I147500J0D01*
G01*
X70872500Y-48275000D01*
G75*
G02*
X71020000Y-48422500I0J-147500D01*
G01*
X71020000Y-48717500D01*
G75*
G02*
X70872500Y-48865000I-147500J0D01*
G01*
G37*
G36*
G01*
X69472500Y-50725000D02*
X69127500Y-50725000D01*
G75*
G02*
X68980000Y-50577500I0J147500D01*
G01*
X68980000Y-50282500D01*
G75*
G02*
X69127500Y-50135000I147500J0D01*
G01*
X69472500Y-50135000D01*
G75*
G02*
X69620000Y-50282500I0J-147500D01*
G01*
X69620000Y-50577500D01*
G75*
G02*
X69472500Y-50725000I-147500J0D01*
G01*
G37*
G36*
G01*
X69472500Y-51695000D02*
X69127500Y-51695000D01*
G75*
G02*
X68980000Y-51547500I0J147500D01*
G01*
X68980000Y-51252500D01*
G75*
G02*
X69127500Y-51105000I147500J0D01*
G01*
X69472500Y-51105000D01*
G75*
G02*
X69620000Y-51252500I0J-147500D01*
G01*
X69620000Y-51547500D01*
G75*
G02*
X69472500Y-51695000I-147500J0D01*
G01*
G37*
G36*
G01*
X69575000Y-56472500D02*
X69575000Y-56127500D01*
G75*
G02*
X69722500Y-55980000I147500J0D01*
G01*
X70017500Y-55980000D01*
G75*
G02*
X70165000Y-56127500I0J-147500D01*
G01*
X70165000Y-56472500D01*
G75*
G02*
X70017500Y-56620000I-147500J0D01*
G01*
X69722500Y-56620000D01*
G75*
G02*
X69575000Y-56472500I0J147500D01*
G01*
G37*
G36*
G01*
X68605000Y-56472500D02*
X68605000Y-56127500D01*
G75*
G02*
X68752500Y-55980000I147500J0D01*
G01*
X69047500Y-55980000D01*
G75*
G02*
X69195000Y-56127500I0J-147500D01*
G01*
X69195000Y-56472500D01*
G75*
G02*
X69047500Y-56620000I-147500J0D01*
G01*
X68752500Y-56620000D01*
G75*
G02*
X68605000Y-56472500I0J147500D01*
G01*
G37*
G36*
G01*
X61725000Y-58027500D02*
X61725000Y-58372500D01*
G75*
G02*
X61577500Y-58520000I-147500J0D01*
G01*
X61282500Y-58520000D01*
G75*
G02*
X61135000Y-58372500I0J147500D01*
G01*
X61135000Y-58027500D01*
G75*
G02*
X61282500Y-57880000I147500J0D01*
G01*
X61577500Y-57880000D01*
G75*
G02*
X61725000Y-58027500I0J-147500D01*
G01*
G37*
G36*
G01*
X62695000Y-58027500D02*
X62695000Y-58372500D01*
G75*
G02*
X62547500Y-58520000I-147500J0D01*
G01*
X62252500Y-58520000D01*
G75*
G02*
X62105000Y-58372500I0J147500D01*
G01*
X62105000Y-58027500D01*
G75*
G02*
X62252500Y-57880000I147500J0D01*
G01*
X62547500Y-57880000D01*
G75*
G02*
X62695000Y-58027500I0J-147500D01*
G01*
G37*
G36*
G01*
X67490000Y-56472500D02*
X67490000Y-56127500D01*
G75*
G02*
X67637500Y-55980000I147500J0D01*
G01*
X67932500Y-55980000D01*
G75*
G02*
X68080000Y-56127500I0J-147500D01*
G01*
X68080000Y-56472500D01*
G75*
G02*
X67932500Y-56620000I-147500J0D01*
G01*
X67637500Y-56620000D01*
G75*
G02*
X67490000Y-56472500I0J147500D01*
G01*
G37*
G36*
G01*
X66520000Y-56472500D02*
X66520000Y-56127500D01*
G75*
G02*
X66667500Y-55980000I147500J0D01*
G01*
X66962500Y-55980000D01*
G75*
G02*
X67110000Y-56127500I0J-147500D01*
G01*
X67110000Y-56472500D01*
G75*
G02*
X66962500Y-56620000I-147500J0D01*
G01*
X66667500Y-56620000D01*
G75*
G02*
X66520000Y-56472500I0J147500D01*
G01*
G37*
G36*
G01*
X61827500Y-47675000D02*
X62172500Y-47675000D01*
G75*
G02*
X62320000Y-47822500I0J-147500D01*
G01*
X62320000Y-48117500D01*
G75*
G02*
X62172500Y-48265000I-147500J0D01*
G01*
X61827500Y-48265000D01*
G75*
G02*
X61680000Y-48117500I0J147500D01*
G01*
X61680000Y-47822500D01*
G75*
G02*
X61827500Y-47675000I147500J0D01*
G01*
G37*
G36*
G01*
X61827500Y-46705000D02*
X62172500Y-46705000D01*
G75*
G02*
X62320000Y-46852500I0J-147500D01*
G01*
X62320000Y-47147500D01*
G75*
G02*
X62172500Y-47295000I-147500J0D01*
G01*
X61827500Y-47295000D01*
G75*
G02*
X61680000Y-47147500I0J147500D01*
G01*
X61680000Y-46852500D01*
G75*
G02*
X61827500Y-46705000I147500J0D01*
G01*
G37*
G36*
G01*
X62190000Y-54572500D02*
X62190000Y-54227500D01*
G75*
G02*
X62337500Y-54080000I147500J0D01*
G01*
X62632500Y-54080000D01*
G75*
G02*
X62780000Y-54227500I0J-147500D01*
G01*
X62780000Y-54572500D01*
G75*
G02*
X62632500Y-54720000I-147500J0D01*
G01*
X62337500Y-54720000D01*
G75*
G02*
X62190000Y-54572500I0J147500D01*
G01*
G37*
G36*
G01*
X61220000Y-54572500D02*
X61220000Y-54227500D01*
G75*
G02*
X61367500Y-54080000I147500J0D01*
G01*
X61662500Y-54080000D01*
G75*
G02*
X61810000Y-54227500I0J-147500D01*
G01*
X61810000Y-54572500D01*
G75*
G02*
X61662500Y-54720000I-147500J0D01*
G01*
X61367500Y-54720000D01*
G75*
G02*
X61220000Y-54572500I0J147500D01*
G01*
G37*
D13*
X73100000Y-58300000D03*
X72150000Y-56300000D03*
X74050000Y-56300000D03*
G36*
G01*
X62256250Y-50862500D02*
X61743750Y-50862500D01*
G75*
G02*
X61525000Y-50643750I0J218750D01*
G01*
X61525000Y-50206250D01*
G75*
G02*
X61743750Y-49987500I218750J0D01*
G01*
X62256250Y-49987500D01*
G75*
G02*
X62475000Y-50206250I0J-218750D01*
G01*
X62475000Y-50643750D01*
G75*
G02*
X62256250Y-50862500I-218750J0D01*
G01*
G37*
G36*
G01*
X62256250Y-52437500D02*
X61743750Y-52437500D01*
G75*
G02*
X61525000Y-52218750I0J218750D01*
G01*
X61525000Y-51781250D01*
G75*
G02*
X61743750Y-51562500I218750J0D01*
G01*
X62256250Y-51562500D01*
G75*
G02*
X62475000Y-51781250I0J-218750D01*
G01*
X62475000Y-52218750D01*
G75*
G02*
X62256250Y-52437500I-218750J0D01*
G01*
G37*
G36*
G01*
X61725000Y-56227500D02*
X61725000Y-56572500D01*
G75*
G02*
X61577500Y-56720000I-147500J0D01*
G01*
X61282500Y-56720000D01*
G75*
G02*
X61135000Y-56572500I0J147500D01*
G01*
X61135000Y-56227500D01*
G75*
G02*
X61282500Y-56080000I147500J0D01*
G01*
X61577500Y-56080000D01*
G75*
G02*
X61725000Y-56227500I0J-147500D01*
G01*
G37*
G36*
G01*
X62695000Y-56227500D02*
X62695000Y-56572500D01*
G75*
G02*
X62547500Y-56720000I-147500J0D01*
G01*
X62252500Y-56720000D01*
G75*
G02*
X62105000Y-56572500I0J147500D01*
G01*
X62105000Y-56227500D01*
G75*
G02*
X62252500Y-56080000I147500J0D01*
G01*
X62547500Y-56080000D01*
G75*
G02*
X62695000Y-56227500I0J-147500D01*
G01*
G37*
G36*
G01*
X66372500Y-50725000D02*
X66027500Y-50725000D01*
G75*
G02*
X65880000Y-50577500I0J147500D01*
G01*
X65880000Y-50282500D01*
G75*
G02*
X66027500Y-50135000I147500J0D01*
G01*
X66372500Y-50135000D01*
G75*
G02*
X66520000Y-50282500I0J-147500D01*
G01*
X66520000Y-50577500D01*
G75*
G02*
X66372500Y-50725000I-147500J0D01*
G01*
G37*
G36*
G01*
X66372500Y-51695000D02*
X66027500Y-51695000D01*
G75*
G02*
X65880000Y-51547500I0J147500D01*
G01*
X65880000Y-51252500D01*
G75*
G02*
X66027500Y-51105000I147500J0D01*
G01*
X66372500Y-51105000D01*
G75*
G02*
X66520000Y-51252500I0J-147500D01*
G01*
X66520000Y-51547500D01*
G75*
G02*
X66372500Y-51695000I-147500J0D01*
G01*
G37*
G36*
G01*
X64627500Y-51105000D02*
X64972500Y-51105000D01*
G75*
G02*
X65120000Y-51252500I0J-147500D01*
G01*
X65120000Y-51547500D01*
G75*
G02*
X64972500Y-51695000I-147500J0D01*
G01*
X64627500Y-51695000D01*
G75*
G02*
X64480000Y-51547500I0J147500D01*
G01*
X64480000Y-51252500D01*
G75*
G02*
X64627500Y-51105000I147500J0D01*
G01*
G37*
G36*
G01*
X64627500Y-50135000D02*
X64972500Y-50135000D01*
G75*
G02*
X65120000Y-50282500I0J-147500D01*
G01*
X65120000Y-50577500D01*
G75*
G02*
X64972500Y-50725000I-147500J0D01*
G01*
X64627500Y-50725000D01*
G75*
G02*
X64480000Y-50577500I0J147500D01*
G01*
X64480000Y-50282500D01*
G75*
G02*
X64627500Y-50135000I147500J0D01*
G01*
G37*
G36*
G01*
X72625000Y-53627500D02*
X72625000Y-53972500D01*
G75*
G02*
X72477500Y-54120000I-147500J0D01*
G01*
X72182500Y-54120000D01*
G75*
G02*
X72035000Y-53972500I0J147500D01*
G01*
X72035000Y-53627500D01*
G75*
G02*
X72182500Y-53480000I147500J0D01*
G01*
X72477500Y-53480000D01*
G75*
G02*
X72625000Y-53627500I0J-147500D01*
G01*
G37*
G36*
G01*
X73595000Y-53627500D02*
X73595000Y-53972500D01*
G75*
G02*
X73447500Y-54120000I-147500J0D01*
G01*
X73152500Y-54120000D01*
G75*
G02*
X73005000Y-53972500I0J147500D01*
G01*
X73005000Y-53627500D01*
G75*
G02*
X73152500Y-53480000I147500J0D01*
G01*
X73447500Y-53480000D01*
G75*
G02*
X73595000Y-53627500I0J-147500D01*
G01*
G37*
G36*
G01*
X68172500Y-50725000D02*
X67827500Y-50725000D01*
G75*
G02*
X67680000Y-50577500I0J147500D01*
G01*
X67680000Y-50282500D01*
G75*
G02*
X67827500Y-50135000I147500J0D01*
G01*
X68172500Y-50135000D01*
G75*
G02*
X68320000Y-50282500I0J-147500D01*
G01*
X68320000Y-50577500D01*
G75*
G02*
X68172500Y-50725000I-147500J0D01*
G01*
G37*
G36*
G01*
X68172500Y-51695000D02*
X67827500Y-51695000D01*
G75*
G02*
X67680000Y-51547500I0J147500D01*
G01*
X67680000Y-51252500D01*
G75*
G02*
X67827500Y-51105000I147500J0D01*
G01*
X68172500Y-51105000D01*
G75*
G02*
X68320000Y-51252500I0J-147500D01*
G01*
X68320000Y-51547500D01*
G75*
G02*
X68172500Y-51695000I-147500J0D01*
G01*
G37*
X68450000Y-57700000D03*
X69400000Y-59700000D03*
X67500000Y-59700000D03*
X64800000Y-57700000D03*
X65750000Y-59700000D03*
X63850000Y-59700000D03*
G36*
G01*
X64556250Y-53850000D02*
X63643750Y-53850000D01*
G75*
G02*
X63400000Y-53606250I0J243750D01*
G01*
X63400000Y-53118750D01*
G75*
G02*
X63643750Y-52875000I243750J0D01*
G01*
X64556250Y-52875000D01*
G75*
G02*
X64800000Y-53118750I0J-243750D01*
G01*
X64800000Y-53606250D01*
G75*
G02*
X64556250Y-53850000I-243750J0D01*
G01*
G37*
G36*
G01*
X64556250Y-55725000D02*
X63643750Y-55725000D01*
G75*
G02*
X63400000Y-55481250I0J243750D01*
G01*
X63400000Y-54993750D01*
G75*
G02*
X63643750Y-54750000I243750J0D01*
G01*
X64556250Y-54750000D01*
G75*
G02*
X64800000Y-54993750I0J-243750D01*
G01*
X64800000Y-55481250D01*
G75*
G02*
X64556250Y-55725000I-243750J0D01*
G01*
G37*
D14*
X69700000Y-53700000D03*
X66200000Y-53700000D03*
M02*
