G04 #@! TF.GenerationSoftware,KiCad,Pcbnew,7.0.1-0*
G04 #@! TF.CreationDate,2023-03-19T14:40:06+01:00*
G04 #@! TF.ProjectId,parasite,70617261-7369-4746-952e-6b696361645f,2.0.0*
G04 #@! TF.SameCoordinates,Original*
G04 #@! TF.FileFunction,Soldermask,Top*
G04 #@! TF.FilePolarity,Negative*
%FSLAX46Y46*%
G04 Gerber Fmt 4.6, Leading zero omitted, Abs format (unit mm)*
G04 Created by KiCad (PCBNEW 7.0.1-0) date 2023-03-19 14:40:06*
%MOMM*%
%LPD*%
G01*
G04 APERTURE LIST*
G04 Aperture macros list*
%AMRoundRect*
0 Rectangle with rounded corners*
0 $1 Rounding radius*
0 $2 $3 $4 $5 $6 $7 $8 $9 X,Y pos of 4 corners*
0 Add a 4 corners polygon primitive as box body*
4,1,4,$2,$3,$4,$5,$6,$7,$8,$9,$2,$3,0*
0 Add four circle primitives for the rounded corners*
1,1,$1+$1,$2,$3*
1,1,$1+$1,$4,$5*
1,1,$1+$1,$6,$7*
1,1,$1+$1,$8,$9*
0 Add four rect primitives between the rounded corners*
20,1,$1+$1,$2,$3,$4,$5,0*
20,1,$1+$1,$4,$5,$6,$7,0*
20,1,$1+$1,$6,$7,$8,$9,0*
20,1,$1+$1,$8,$9,$2,$3,0*%
G04 Aperture macros list end*
%ADD10RoundRect,0.051000X-0.850000X-0.400000X0.850000X-0.400000X0.850000X0.400000X-0.850000X0.400000X0*%
%ADD11RoundRect,0.198500X-0.172500X0.147500X-0.172500X-0.147500X0.172500X-0.147500X0.172500X0.147500X0*%
%ADD12RoundRect,0.198500X0.147500X0.172500X-0.147500X0.172500X-0.147500X-0.172500X0.147500X-0.172500X0*%
%ADD13RoundRect,0.051000X0.450000X0.400000X-0.450000X0.400000X-0.450000X-0.400000X0.450000X-0.400000X0*%
%ADD14RoundRect,0.198500X-0.147500X-0.172500X0.147500X-0.172500X0.147500X0.172500X-0.147500X0.172500X0*%
%ADD15C,1.102000*%
%ADD16RoundRect,0.198500X0.172500X-0.147500X0.172500X0.147500X-0.172500X0.147500X-0.172500X-0.147500X0*%
%ADD17RoundRect,0.051000X-0.500000X-0.900000X0.500000X-0.900000X0.500000X0.900000X-0.500000X0.900000X0*%
%ADD18RoundRect,0.269750X0.218750X0.256250X-0.218750X0.256250X-0.218750X-0.256250X0.218750X-0.256250X0*%
%ADD19RoundRect,0.138500X0.187500X0.087500X-0.187500X0.087500X-0.187500X-0.087500X0.187500X-0.087500X0*%
%ADD20RoundRect,0.226000X0.175000X0.625000X-0.175000X0.625000X-0.175000X-0.625000X0.175000X-0.625000X0*%
%ADD21RoundRect,0.051000X0.650000X0.850000X-0.650000X0.850000X-0.650000X-0.850000X0.650000X-0.850000X0*%
%ADD22RoundRect,0.051000X-1.000000X-0.500000X1.000000X-0.500000X1.000000X0.500000X-1.000000X0.500000X0*%
%ADD23RoundRect,0.051000X-0.500000X-1.000000X0.500000X-1.000000X0.500000X1.000000X-0.500000X1.000000X0*%
%ADD24RoundRect,0.051000X-0.450000X-0.450000X0.450000X-0.450000X0.450000X0.450000X-0.450000X0.450000X0*%
%ADD25RoundRect,0.051000X0.400000X-0.400000X0.400000X0.400000X-0.400000X0.400000X-0.400000X-0.400000X0*%
G04 APERTURE END LIST*
D10*
X63920000Y-48502000D03*
X63920000Y-51902000D03*
X72302000Y-51902000D03*
X72302000Y-48502000D03*
D11*
X69762000Y-58584000D03*
X69762000Y-59554000D03*
X71540000Y-58584000D03*
X71540000Y-59554000D03*
D12*
X62015000Y-57822000D03*
X61045000Y-57822000D03*
D13*
X65936000Y-59518000D03*
X65936000Y-57618000D03*
X63936000Y-58568000D03*
D14*
X61045000Y-55663000D03*
X62015000Y-55663000D03*
D15*
X77382000Y-34708000D03*
X77382000Y-37248000D03*
X67984000Y-58838000D03*
X61380000Y-59473000D03*
D12*
X61865000Y-50202000D03*
X60895000Y-50202000D03*
D16*
X70524000Y-55917000D03*
X70524000Y-54947000D03*
D17*
X69138500Y-49694000D03*
X66638500Y-49694000D03*
D18*
X61405500Y-52869000D03*
X59830500Y-52869000D03*
D11*
X68884500Y-52534000D03*
X68884500Y-53504000D03*
D16*
X67106500Y-53481000D03*
X67106500Y-52511000D03*
D11*
X74588000Y-52534000D03*
X74588000Y-53504000D03*
D16*
X76239000Y-53504000D03*
X76239000Y-52534000D03*
D19*
X75005000Y-56544000D03*
X75005000Y-55544000D03*
X73155000Y-55544000D03*
X73155000Y-56544000D03*
D20*
X74080000Y-56044000D03*
D21*
X68492000Y-55536000D03*
X64992000Y-55536000D03*
D15*
X77382000Y-42328000D03*
D22*
X60468000Y-31542550D03*
X60468000Y-32812550D03*
X60468000Y-34082550D03*
X60468000Y-35352550D03*
X60468000Y-36622550D03*
X60468000Y-37892550D03*
X60468000Y-39162550D03*
X60468000Y-40432550D03*
X60468000Y-41702550D03*
X60468000Y-42972550D03*
D23*
X62528000Y-45572550D03*
D24*
X63158000Y-43472550D03*
D23*
X63798000Y-45572550D03*
D24*
X64428000Y-43472550D03*
D23*
X65068000Y-45572550D03*
D24*
X65698000Y-43472550D03*
D23*
X66338000Y-45572550D03*
D24*
X66968000Y-43472550D03*
D23*
X67608000Y-45572550D03*
D24*
X68238000Y-43472550D03*
D23*
X68878000Y-45572550D03*
D24*
X69508000Y-43472550D03*
D23*
X70148000Y-45572550D03*
D24*
X70778000Y-43472550D03*
D23*
X71418000Y-45572550D03*
D22*
X73468000Y-42972550D03*
X73468000Y-41702550D03*
D24*
X71368000Y-41067550D03*
D22*
X73468000Y-40432550D03*
D24*
X71368000Y-39797550D03*
D22*
X73468000Y-39162550D03*
D24*
X71368000Y-38527550D03*
D22*
X73468000Y-37892550D03*
D24*
X71368000Y-37257550D03*
D22*
X73468000Y-36622550D03*
D24*
X71368000Y-35987550D03*
D22*
X73468000Y-35352550D03*
D24*
X71368000Y-34717550D03*
D22*
X73468000Y-34082550D03*
D24*
X71368000Y-33447550D03*
D22*
X73468000Y-32812550D03*
D24*
X71368000Y-32177550D03*
D22*
X73468000Y-31542550D03*
D12*
X59325000Y-29882000D03*
X58355000Y-29882000D03*
D25*
X58078000Y-33426000D03*
X58078000Y-31926000D03*
D15*
X77382000Y-32168000D03*
X77382000Y-29628000D03*
X77362000Y-39788000D03*
G36*
X74657585Y-56452044D02*
G01*
X74686656Y-56408537D01*
X74688188Y-56407652D01*
X74689823Y-56408329D01*
X74690281Y-56410038D01*
X74681000Y-56456699D01*
X74681000Y-56631301D01*
X74690280Y-56677956D01*
X74689822Y-56679665D01*
X74688187Y-56680342D01*
X74686655Y-56679457D01*
X74648026Y-56621645D01*
X74483172Y-56658890D01*
X74482979Y-56660221D01*
X74481829Y-56661753D01*
X74479918Y-56661615D01*
X74479000Y-56659933D01*
X74479000Y-56400566D01*
X74479809Y-56398960D01*
X74481581Y-56398652D01*
X74657585Y-56452044D01*
G37*
G36*
X73473344Y-55408543D02*
G01*
X73511968Y-55466348D01*
X73676814Y-55429117D01*
X73677021Y-55427699D01*
X73678172Y-55426168D01*
X73680082Y-55426306D01*
X73681000Y-55427988D01*
X73681000Y-56659992D01*
X73680082Y-56661674D01*
X73678172Y-56661812D01*
X73677021Y-56660280D01*
X73676817Y-56658882D01*
X73511967Y-56621648D01*
X73473345Y-56679452D01*
X73471813Y-56680337D01*
X73470178Y-56679660D01*
X73469720Y-56677951D01*
X73479000Y-56631301D01*
X73479000Y-56456699D01*
X73469719Y-56410045D01*
X73470177Y-56408336D01*
X73471812Y-56407659D01*
X73473344Y-56408544D01*
X73502409Y-56452044D01*
X73677000Y-56399084D01*
X73677000Y-55688916D01*
X73502409Y-55635955D01*
X73473345Y-55679454D01*
X73471813Y-55680339D01*
X73470178Y-55679662D01*
X73469720Y-55677953D01*
X73479000Y-55631301D01*
X73479000Y-55456699D01*
X73469719Y-55410044D01*
X73470177Y-55408335D01*
X73471812Y-55407658D01*
X73473344Y-55408543D01*
G37*
G36*
X74689822Y-55408333D02*
G01*
X74690280Y-55410042D01*
X74681000Y-55456699D01*
X74681000Y-55631301D01*
X74690280Y-55677955D01*
X74689822Y-55679664D01*
X74688187Y-55680341D01*
X74686655Y-55679456D01*
X74657588Y-55635953D01*
X74481581Y-55689345D01*
X74479809Y-55689037D01*
X74479000Y-55687431D01*
X74479000Y-55428067D01*
X74479918Y-55426385D01*
X74481829Y-55426247D01*
X74482979Y-55427779D01*
X74483172Y-55429109D01*
X74648026Y-55466354D01*
X74686655Y-55408541D01*
X74688187Y-55407656D01*
X74689822Y-55408333D01*
G37*
G36*
X70871161Y-44557867D02*
G01*
X70871619Y-44559576D01*
X70869000Y-44572749D01*
X70869000Y-46572351D01*
X70871618Y-46585517D01*
X70871160Y-46587226D01*
X70869525Y-46587903D01*
X70867993Y-46587018D01*
X70848746Y-46558211D01*
X70717254Y-46558211D01*
X70698006Y-46587017D01*
X70696474Y-46587902D01*
X70694839Y-46587225D01*
X70694381Y-46585516D01*
X70697000Y-46572351D01*
X70697000Y-44572749D01*
X70694380Y-44559577D01*
X70694838Y-44557868D01*
X70696473Y-44557191D01*
X70698005Y-44558076D01*
X70717256Y-44586888D01*
X70848744Y-44586888D01*
X70867994Y-44558075D01*
X70869526Y-44557190D01*
X70871161Y-44557867D01*
G37*
G36*
X69601161Y-44557867D02*
G01*
X69601619Y-44559576D01*
X69599000Y-44572749D01*
X69599000Y-46572351D01*
X69601618Y-46585517D01*
X69601160Y-46587226D01*
X69599525Y-46587903D01*
X69597993Y-46587018D01*
X69578746Y-46558211D01*
X69447254Y-46558211D01*
X69428006Y-46587017D01*
X69426474Y-46587902D01*
X69424839Y-46587225D01*
X69424381Y-46585516D01*
X69427000Y-46572351D01*
X69427000Y-44572749D01*
X69424380Y-44559577D01*
X69424838Y-44557868D01*
X69426473Y-44557191D01*
X69428005Y-44558076D01*
X69447256Y-44586888D01*
X69578744Y-44586888D01*
X69597994Y-44558075D01*
X69599526Y-44557190D01*
X69601161Y-44557867D01*
G37*
G36*
X68331161Y-44557867D02*
G01*
X68331619Y-44559576D01*
X68329000Y-44572749D01*
X68329000Y-46572351D01*
X68331618Y-46585517D01*
X68331160Y-46587226D01*
X68329525Y-46587903D01*
X68327993Y-46587018D01*
X68308746Y-46558211D01*
X68177254Y-46558211D01*
X68158006Y-46587017D01*
X68156474Y-46587902D01*
X68154839Y-46587225D01*
X68154381Y-46585516D01*
X68157000Y-46572351D01*
X68157000Y-44572749D01*
X68154380Y-44559577D01*
X68154838Y-44557868D01*
X68156473Y-44557191D01*
X68158005Y-44558076D01*
X68177256Y-44586888D01*
X68308744Y-44586888D01*
X68327994Y-44558075D01*
X68329526Y-44557190D01*
X68331161Y-44557867D01*
G37*
G36*
X67061161Y-44557867D02*
G01*
X67061619Y-44559576D01*
X67059000Y-44572749D01*
X67059000Y-46572351D01*
X67061618Y-46585517D01*
X67061160Y-46587226D01*
X67059525Y-46587903D01*
X67057993Y-46587018D01*
X67038746Y-46558211D01*
X66907254Y-46558211D01*
X66888006Y-46587017D01*
X66886474Y-46587902D01*
X66884839Y-46587225D01*
X66884381Y-46585516D01*
X66887000Y-46572351D01*
X66887000Y-44572749D01*
X66884380Y-44559577D01*
X66884838Y-44557868D01*
X66886473Y-44557191D01*
X66888005Y-44558076D01*
X66907256Y-44586888D01*
X67038744Y-44586888D01*
X67057994Y-44558075D01*
X67059526Y-44557190D01*
X67061161Y-44557867D01*
G37*
G36*
X65791161Y-44557867D02*
G01*
X65791619Y-44559576D01*
X65789000Y-44572749D01*
X65789000Y-46572351D01*
X65791618Y-46585517D01*
X65791160Y-46587226D01*
X65789525Y-46587903D01*
X65787993Y-46587018D01*
X65768746Y-46558211D01*
X65637254Y-46558211D01*
X65618006Y-46587017D01*
X65616474Y-46587902D01*
X65614839Y-46587225D01*
X65614381Y-46585516D01*
X65617000Y-46572351D01*
X65617000Y-44572749D01*
X65614380Y-44559577D01*
X65614838Y-44557868D01*
X65616473Y-44557191D01*
X65618005Y-44558076D01*
X65637256Y-44586888D01*
X65768744Y-44586888D01*
X65787994Y-44558075D01*
X65789526Y-44557190D01*
X65791161Y-44557867D01*
G37*
G36*
X64521161Y-44557867D02*
G01*
X64521619Y-44559576D01*
X64519000Y-44572749D01*
X64519000Y-46572351D01*
X64521618Y-46585517D01*
X64521160Y-46587226D01*
X64519525Y-46587903D01*
X64517993Y-46587018D01*
X64498746Y-46558211D01*
X64367254Y-46558211D01*
X64348006Y-46587017D01*
X64346474Y-46587902D01*
X64344839Y-46587225D01*
X64344381Y-46585516D01*
X64347000Y-46572351D01*
X64347000Y-44572749D01*
X64344380Y-44559577D01*
X64344838Y-44557868D01*
X64346473Y-44557191D01*
X64348005Y-44558076D01*
X64367256Y-44586888D01*
X64498744Y-44586888D01*
X64517994Y-44558075D01*
X64519526Y-44557190D01*
X64521161Y-44557867D01*
G37*
G36*
X63251161Y-44557867D02*
G01*
X63251619Y-44559576D01*
X63249000Y-44572749D01*
X63249000Y-46572351D01*
X63251618Y-46585517D01*
X63251160Y-46587226D01*
X63249525Y-46587903D01*
X63247993Y-46587018D01*
X63228746Y-46558211D01*
X63097254Y-46558211D01*
X63078006Y-46587017D01*
X63076474Y-46587902D01*
X63074839Y-46587225D01*
X63074381Y-46585516D01*
X63077000Y-46572351D01*
X63077000Y-44572749D01*
X63074380Y-44559577D01*
X63074838Y-44557868D01*
X63076473Y-44557191D01*
X63078005Y-44558076D01*
X63097256Y-44586888D01*
X63228744Y-44586888D01*
X63247994Y-44558075D01*
X63249526Y-44557190D01*
X63251161Y-44557867D01*
G37*
G36*
X72468199Y-42251550D02*
G01*
X74467801Y-42251550D01*
X74480966Y-42248931D01*
X74482675Y-42249389D01*
X74483352Y-42251024D01*
X74482467Y-42252556D01*
X74453661Y-42271804D01*
X74453661Y-42403296D01*
X74482468Y-42422543D01*
X74483353Y-42424075D01*
X74482676Y-42425710D01*
X74480967Y-42426168D01*
X74467801Y-42423550D01*
X72468199Y-42423550D01*
X72455026Y-42426169D01*
X72453317Y-42425711D01*
X72452640Y-42424076D01*
X72453525Y-42422544D01*
X72482338Y-42403294D01*
X72482338Y-42271806D01*
X72453526Y-42252555D01*
X72452641Y-42251023D01*
X72453318Y-42249388D01*
X72455027Y-42248930D01*
X72468199Y-42251550D01*
G37*
G36*
X59468199Y-42251550D02*
G01*
X61467801Y-42251550D01*
X61480966Y-42248931D01*
X61482675Y-42249389D01*
X61483352Y-42251024D01*
X61482467Y-42252556D01*
X61453661Y-42271804D01*
X61453661Y-42403296D01*
X61482468Y-42422543D01*
X61483353Y-42424075D01*
X61482676Y-42425710D01*
X61480967Y-42426168D01*
X61467801Y-42423550D01*
X59468199Y-42423550D01*
X59455026Y-42426169D01*
X59453317Y-42425711D01*
X59452640Y-42424076D01*
X59453525Y-42422544D01*
X59482338Y-42403294D01*
X59482338Y-42271806D01*
X59453526Y-42252555D01*
X59452641Y-42251023D01*
X59453318Y-42249388D01*
X59455027Y-42248930D01*
X59468199Y-42251550D01*
G37*
G36*
X72468199Y-40981550D02*
G01*
X74467801Y-40981550D01*
X74480966Y-40978931D01*
X74482675Y-40979389D01*
X74483352Y-40981024D01*
X74482467Y-40982556D01*
X74453661Y-41001804D01*
X74453661Y-41133296D01*
X74482468Y-41152543D01*
X74483353Y-41154075D01*
X74482676Y-41155710D01*
X74480967Y-41156168D01*
X74467801Y-41153550D01*
X72468199Y-41153550D01*
X72455026Y-41156169D01*
X72453317Y-41155711D01*
X72452640Y-41154076D01*
X72453525Y-41152544D01*
X72482338Y-41133294D01*
X72482338Y-41001806D01*
X72453526Y-40982555D01*
X72452641Y-40981023D01*
X72453318Y-40979388D01*
X72455027Y-40978930D01*
X72468199Y-40981550D01*
G37*
G36*
X59468199Y-40981550D02*
G01*
X61467801Y-40981550D01*
X61480966Y-40978931D01*
X61482675Y-40979389D01*
X61483352Y-40981024D01*
X61482467Y-40982556D01*
X61453661Y-41001804D01*
X61453661Y-41133296D01*
X61482468Y-41152543D01*
X61483353Y-41154075D01*
X61482676Y-41155710D01*
X61480967Y-41156168D01*
X61467801Y-41153550D01*
X59468199Y-41153550D01*
X59455026Y-41156169D01*
X59453317Y-41155711D01*
X59452640Y-41154076D01*
X59453525Y-41152544D01*
X59482338Y-41133294D01*
X59482338Y-41001806D01*
X59453526Y-40982555D01*
X59452641Y-40981023D01*
X59453318Y-40979388D01*
X59455027Y-40978930D01*
X59468199Y-40981550D01*
G37*
G36*
X72468199Y-39711550D02*
G01*
X74467801Y-39711550D01*
X74480960Y-39708932D01*
X74482669Y-39709390D01*
X74483346Y-39711025D01*
X74482461Y-39712557D01*
X74453663Y-39731797D01*
X74453658Y-39863290D01*
X74482474Y-39882545D01*
X74483359Y-39884077D01*
X74482682Y-39885712D01*
X74480973Y-39886170D01*
X74467801Y-39883550D01*
X72468199Y-39883550D01*
X72455020Y-39886171D01*
X72453311Y-39885713D01*
X72452634Y-39884078D01*
X72453519Y-39882546D01*
X72482340Y-39863287D01*
X72482335Y-39731800D01*
X72453533Y-39712556D01*
X72452648Y-39711024D01*
X72453325Y-39709389D01*
X72455034Y-39708931D01*
X72468199Y-39711550D01*
G37*
G36*
X59468199Y-39711550D02*
G01*
X61467801Y-39711550D01*
X61480960Y-39708932D01*
X61482669Y-39709390D01*
X61483346Y-39711025D01*
X61482461Y-39712557D01*
X61453663Y-39731797D01*
X61453658Y-39863290D01*
X61482474Y-39882545D01*
X61483359Y-39884077D01*
X61482682Y-39885712D01*
X61480973Y-39886170D01*
X61467801Y-39883550D01*
X59468199Y-39883550D01*
X59455020Y-39886171D01*
X59453311Y-39885713D01*
X59452634Y-39884078D01*
X59453519Y-39882546D01*
X59482340Y-39863287D01*
X59482335Y-39731800D01*
X59453533Y-39712556D01*
X59452648Y-39711024D01*
X59453325Y-39709389D01*
X59455034Y-39708931D01*
X59468199Y-39711550D01*
G37*
G36*
X72468199Y-38441550D02*
G01*
X74467801Y-38441550D01*
X74480966Y-38438931D01*
X74482675Y-38439389D01*
X74483352Y-38441024D01*
X74482467Y-38442556D01*
X74453661Y-38461804D01*
X74453661Y-38593296D01*
X74482468Y-38612543D01*
X74483353Y-38614075D01*
X74482676Y-38615710D01*
X74480967Y-38616168D01*
X74467801Y-38613550D01*
X72468199Y-38613550D01*
X72455026Y-38616169D01*
X72453317Y-38615711D01*
X72452640Y-38614076D01*
X72453525Y-38612544D01*
X72482338Y-38593294D01*
X72482338Y-38461806D01*
X72453526Y-38442555D01*
X72452641Y-38441023D01*
X72453318Y-38439388D01*
X72455027Y-38438930D01*
X72468199Y-38441550D01*
G37*
G36*
X59468199Y-38441550D02*
G01*
X61467801Y-38441550D01*
X61480966Y-38438931D01*
X61482675Y-38439389D01*
X61483352Y-38441024D01*
X61482467Y-38442556D01*
X61453661Y-38461804D01*
X61453661Y-38593296D01*
X61482468Y-38612543D01*
X61483353Y-38614075D01*
X61482676Y-38615710D01*
X61480967Y-38616168D01*
X61467801Y-38613550D01*
X59468199Y-38613550D01*
X59455026Y-38616169D01*
X59453317Y-38615711D01*
X59452640Y-38614076D01*
X59453525Y-38612544D01*
X59482338Y-38593294D01*
X59482338Y-38461806D01*
X59453526Y-38442555D01*
X59452641Y-38441023D01*
X59453318Y-38439388D01*
X59455027Y-38438930D01*
X59468199Y-38441550D01*
G37*
G36*
X72468199Y-37171550D02*
G01*
X74467801Y-37171550D01*
X74480966Y-37168931D01*
X74482675Y-37169389D01*
X74483352Y-37171024D01*
X74482467Y-37172556D01*
X74453661Y-37191804D01*
X74453661Y-37323296D01*
X74482468Y-37342543D01*
X74483353Y-37344075D01*
X74482676Y-37345710D01*
X74480967Y-37346168D01*
X74467801Y-37343550D01*
X72468199Y-37343550D01*
X72455026Y-37346169D01*
X72453317Y-37345711D01*
X72452640Y-37344076D01*
X72453525Y-37342544D01*
X72482338Y-37323294D01*
X72482338Y-37191806D01*
X72453526Y-37172555D01*
X72452641Y-37171023D01*
X72453318Y-37169388D01*
X72455027Y-37168930D01*
X72468199Y-37171550D01*
G37*
G36*
X59468199Y-37171550D02*
G01*
X61467801Y-37171550D01*
X61480966Y-37168931D01*
X61482675Y-37169389D01*
X61483352Y-37171024D01*
X61482467Y-37172556D01*
X61453661Y-37191804D01*
X61453661Y-37323296D01*
X61482468Y-37342543D01*
X61483353Y-37344075D01*
X61482676Y-37345710D01*
X61480967Y-37346168D01*
X61467801Y-37343550D01*
X59468199Y-37343550D01*
X59455026Y-37346169D01*
X59453317Y-37345711D01*
X59452640Y-37344076D01*
X59453525Y-37342544D01*
X59482338Y-37323294D01*
X59482338Y-37191806D01*
X59453526Y-37172555D01*
X59452641Y-37171023D01*
X59453318Y-37169388D01*
X59455027Y-37168930D01*
X59468199Y-37171550D01*
G37*
G36*
X72468199Y-35901550D02*
G01*
X74467801Y-35901550D01*
X74480960Y-35898932D01*
X74482669Y-35899390D01*
X74483346Y-35901025D01*
X74482461Y-35902557D01*
X74453663Y-35921797D01*
X74453658Y-36053290D01*
X74482474Y-36072545D01*
X74483359Y-36074077D01*
X74482682Y-36075712D01*
X74480973Y-36076170D01*
X74467801Y-36073550D01*
X72468199Y-36073550D01*
X72455020Y-36076171D01*
X72453311Y-36075713D01*
X72452634Y-36074078D01*
X72453519Y-36072546D01*
X72482340Y-36053287D01*
X72482335Y-35921800D01*
X72453533Y-35902556D01*
X72452648Y-35901024D01*
X72453325Y-35899389D01*
X72455034Y-35898931D01*
X72468199Y-35901550D01*
G37*
G36*
X59468199Y-35901550D02*
G01*
X61467801Y-35901550D01*
X61480960Y-35898932D01*
X61482669Y-35899390D01*
X61483346Y-35901025D01*
X61482461Y-35902557D01*
X61453663Y-35921797D01*
X61453658Y-36053290D01*
X61482474Y-36072545D01*
X61483359Y-36074077D01*
X61482682Y-36075712D01*
X61480973Y-36076170D01*
X61467801Y-36073550D01*
X59468199Y-36073550D01*
X59455020Y-36076171D01*
X59453311Y-36075713D01*
X59452634Y-36074078D01*
X59453519Y-36072546D01*
X59482340Y-36053287D01*
X59482335Y-35921800D01*
X59453533Y-35902556D01*
X59452648Y-35901024D01*
X59453325Y-35899389D01*
X59455034Y-35898931D01*
X59468199Y-35901550D01*
G37*
G36*
X72468199Y-34631550D02*
G01*
X74467801Y-34631550D01*
X74480966Y-34628931D01*
X74482675Y-34629389D01*
X74483352Y-34631024D01*
X74482467Y-34632556D01*
X74453661Y-34651804D01*
X74453661Y-34783296D01*
X74482468Y-34802543D01*
X74483353Y-34804075D01*
X74482676Y-34805710D01*
X74480967Y-34806168D01*
X74467801Y-34803550D01*
X72468199Y-34803550D01*
X72455026Y-34806169D01*
X72453317Y-34805711D01*
X72452640Y-34804076D01*
X72453525Y-34802544D01*
X72482338Y-34783294D01*
X72482338Y-34651806D01*
X72453526Y-34632555D01*
X72452641Y-34631023D01*
X72453318Y-34629388D01*
X72455027Y-34628930D01*
X72468199Y-34631550D01*
G37*
G36*
X59468199Y-34631550D02*
G01*
X61467801Y-34631550D01*
X61480966Y-34628931D01*
X61482675Y-34629389D01*
X61483352Y-34631024D01*
X61482467Y-34632556D01*
X61453661Y-34651804D01*
X61453661Y-34783296D01*
X61482468Y-34802543D01*
X61483353Y-34804075D01*
X61482676Y-34805710D01*
X61480967Y-34806168D01*
X61467801Y-34803550D01*
X59468199Y-34803550D01*
X59455026Y-34806169D01*
X59453317Y-34805711D01*
X59452640Y-34804076D01*
X59453525Y-34802544D01*
X59482338Y-34783294D01*
X59482338Y-34651806D01*
X59453526Y-34632555D01*
X59452641Y-34631023D01*
X59453318Y-34629388D01*
X59455027Y-34628930D01*
X59468199Y-34631550D01*
G37*
G36*
X72468199Y-33361550D02*
G01*
X74467801Y-33361550D01*
X74480966Y-33358931D01*
X74482675Y-33359389D01*
X74483352Y-33361024D01*
X74482467Y-33362556D01*
X74453661Y-33381804D01*
X74453661Y-33513296D01*
X74482468Y-33532543D01*
X74483353Y-33534075D01*
X74482676Y-33535710D01*
X74480967Y-33536168D01*
X74467801Y-33533550D01*
X72468199Y-33533550D01*
X72455026Y-33536169D01*
X72453317Y-33535711D01*
X72452640Y-33534076D01*
X72453525Y-33532544D01*
X72482338Y-33513294D01*
X72482338Y-33381806D01*
X72453526Y-33362555D01*
X72452641Y-33361023D01*
X72453318Y-33359388D01*
X72455027Y-33358930D01*
X72468199Y-33361550D01*
G37*
G36*
X59468199Y-33361550D02*
G01*
X61467801Y-33361550D01*
X61480966Y-33358931D01*
X61482675Y-33359389D01*
X61483352Y-33361024D01*
X61482467Y-33362556D01*
X61453661Y-33381804D01*
X61453661Y-33513296D01*
X61482468Y-33532543D01*
X61483353Y-33534075D01*
X61482676Y-33535710D01*
X61480967Y-33536168D01*
X61467801Y-33533550D01*
X59468199Y-33533550D01*
X59455026Y-33536169D01*
X59453317Y-33535711D01*
X59452640Y-33534076D01*
X59453525Y-33532544D01*
X59482338Y-33513294D01*
X59482338Y-33381806D01*
X59453526Y-33362555D01*
X59452641Y-33361023D01*
X59453318Y-33359388D01*
X59455027Y-33358930D01*
X59468199Y-33361550D01*
G37*
G36*
X72468199Y-32091550D02*
G01*
X74467801Y-32091550D01*
X74480966Y-32088931D01*
X74482675Y-32089389D01*
X74483352Y-32091024D01*
X74482467Y-32092556D01*
X74453661Y-32111804D01*
X74453661Y-32243296D01*
X74482468Y-32262543D01*
X74483353Y-32264075D01*
X74482676Y-32265710D01*
X74480967Y-32266168D01*
X74467801Y-32263550D01*
X72468199Y-32263550D01*
X72455026Y-32266169D01*
X72453317Y-32265711D01*
X72452640Y-32264076D01*
X72453525Y-32262544D01*
X72482338Y-32243294D01*
X72482338Y-32111806D01*
X72453526Y-32092555D01*
X72452641Y-32091023D01*
X72453318Y-32089388D01*
X72455027Y-32088930D01*
X72468199Y-32091550D01*
G37*
G36*
X59468199Y-32091550D02*
G01*
X61467801Y-32091550D01*
X61480966Y-32088931D01*
X61482675Y-32089389D01*
X61483352Y-32091024D01*
X61482467Y-32092556D01*
X61453661Y-32111804D01*
X61453661Y-32243296D01*
X61482468Y-32262543D01*
X61483353Y-32264075D01*
X61482676Y-32265710D01*
X61480967Y-32266168D01*
X61467801Y-32263550D01*
X59468199Y-32263550D01*
X59455026Y-32266169D01*
X59453317Y-32265711D01*
X59452640Y-32264076D01*
X59453525Y-32262544D01*
X59482338Y-32243294D01*
X59482338Y-32111806D01*
X59453526Y-32092555D01*
X59452641Y-32091023D01*
X59453318Y-32089388D01*
X59455027Y-32088930D01*
X59468199Y-32091550D01*
G37*
M02*
