M48
; DRILL file {KiCad 7.0.1-0} date 2023 March 19, Sunday 14:40:27
; FORMAT={-:-/ absolute / metric / decimal}
; #@! TF.CreationDate,2023-03-19T14:40:27+01:00
; #@! TF.GenerationSoftware,Kicad,Pcbnew,7.0.1-0
; #@! TF.FileFunction,MixedPlating,1,2
FMAT,2
METRIC
; #@! TA.AperFunction,Plated,PTH,ViaDrill
T1C0.300
%
G90
G05
T1
X58.078Y-41.312
X58.078Y-42.201
X58.078Y-43.09
X58.078Y-43.979
X59.602Y-48.297
X59.856Y-64.172
X59.983Y-36.613
X60.237Y-47.535
X60.618Y-64.172
X60.999Y-36.613
X60.999Y-46.9
X61.38Y-64.172
X62.142Y-64.172
X62.269Y-36.359
X62.269Y-51.472
X62.523Y-34.454
X64.682Y-32.168
X65.063Y-45.63
X65.698Y-32.168
X66.714Y-32.168
X67.603Y-44.995
X67.603Y-45.63
X67.857Y-32.168
X68.873Y-32.168
X69.254Y-37.375
X69.254Y-38.137
X69.254Y-38.899
X69.762Y-32.168
X70.143Y-45.63
X70.148Y-44.995
X70.397Y-48.678
X70.397Y-49.44
X70.397Y-50.202
X70.397Y-50.964
X70.397Y-51.726
X73.468Y-36.623
X73.468Y-37.893
X73.468Y-42.973
X74.969Y-63.918
X75.096Y-33.184
X75.223Y-34.708
X75.223Y-36.74
X75.604Y-49.059
X75.731Y-63.918
X75.858Y-50.329
X76.366Y-44.233
X76.493Y-48.678
X76.493Y-63.918
X76.62Y-54.393
X76.62Y-58.965
X77.255Y-63.918
T0
M30
