G04 #@! TF.GenerationSoftware,KiCad,Pcbnew,(5.1.10)-1*
G04 #@! TF.CreationDate,2021-05-27T11:01:42+03:00*
G04 #@! TF.ProjectId,parasite,70617261-7369-4746-952e-6b696361645f,1.0.0*
G04 #@! TF.SameCoordinates,Original*
G04 #@! TF.FileFunction,Soldermask,Top*
G04 #@! TF.FilePolarity,Negative*
%FSLAX46Y46*%
G04 Gerber Fmt 4.6, Leading zero omitted, Abs format (unit mm)*
G04 Created by KiCad (PCBNEW (5.1.10)-1) date 2021-05-27 11:01:42*
%MOMM*%
%LPD*%
G01*
G04 APERTURE LIST*
%ADD10C,1.702000*%
%ADD11C,1.102000*%
%ADD12C,0.100000*%
G04 APERTURE END LIST*
D10*
X74560000Y-29050000D03*
X77100000Y-29050000D03*
G36*
G01*
X59252000Y-38404000D02*
X59648000Y-38404000D01*
G75*
G02*
X59821000Y-38577000I0J-173000D01*
G01*
X59821000Y-38923000D01*
G75*
G02*
X59648000Y-39096000I-173000J0D01*
G01*
X59252000Y-39096000D01*
G75*
G02*
X59079000Y-38923000I0J173000D01*
G01*
X59079000Y-38577000D01*
G75*
G02*
X59252000Y-38404000I173000J0D01*
G01*
G37*
G36*
G01*
X59252000Y-37434000D02*
X59648000Y-37434000D01*
G75*
G02*
X59821000Y-37607000I0J-173000D01*
G01*
X59821000Y-37953000D01*
G75*
G02*
X59648000Y-38126000I-173000J0D01*
G01*
X59252000Y-38126000D01*
G75*
G02*
X59079000Y-37953000I0J173000D01*
G01*
X59079000Y-37607000D01*
G75*
G02*
X59252000Y-37434000I173000J0D01*
G01*
G37*
G36*
G01*
X73201000Y-49949500D02*
X73201000Y-51250500D01*
G75*
G02*
X73000500Y-51451000I-200500J0D01*
G01*
X72599500Y-51451000D01*
G75*
G02*
X72399000Y-51250500I0J200500D01*
G01*
X72399000Y-49949500D01*
G75*
G02*
X72599500Y-49749000I200500J0D01*
G01*
X73000500Y-49749000D01*
G75*
G02*
X73201000Y-49949500I0J-200500D01*
G01*
G37*
G36*
G01*
X72201000Y-50987000D02*
X72201000Y-51213000D01*
G75*
G02*
X72088000Y-51326000I-113000J0D01*
G01*
X71662000Y-51326000D01*
G75*
G02*
X71549000Y-51213000I0J113000D01*
G01*
X71549000Y-50987000D01*
G75*
G02*
X71662000Y-50874000I113000J0D01*
G01*
X72088000Y-50874000D01*
G75*
G02*
X72201000Y-50987000I0J-113000D01*
G01*
G37*
G36*
G01*
X72201000Y-49987000D02*
X72201000Y-50213000D01*
G75*
G02*
X72088000Y-50326000I-113000J0D01*
G01*
X71662000Y-50326000D01*
G75*
G02*
X71549000Y-50213000I0J113000D01*
G01*
X71549000Y-49987000D01*
G75*
G02*
X71662000Y-49874000I113000J0D01*
G01*
X72088000Y-49874000D01*
G75*
G02*
X72201000Y-49987000I0J-113000D01*
G01*
G37*
G36*
G01*
X74051000Y-49987000D02*
X74051000Y-50213000D01*
G75*
G02*
X73938000Y-50326000I-113000J0D01*
G01*
X73512000Y-50326000D01*
G75*
G02*
X73399000Y-50213000I0J113000D01*
G01*
X73399000Y-49987000D01*
G75*
G02*
X73512000Y-49874000I113000J0D01*
G01*
X73938000Y-49874000D01*
G75*
G02*
X74051000Y-49987000I0J-113000D01*
G01*
G37*
G36*
G01*
X74051000Y-50987000D02*
X74051000Y-51213000D01*
G75*
G02*
X73938000Y-51326000I-113000J0D01*
G01*
X73512000Y-51326000D01*
G75*
G02*
X73399000Y-51213000I0J113000D01*
G01*
X73399000Y-50987000D01*
G75*
G02*
X73512000Y-50874000I113000J0D01*
G01*
X73938000Y-50874000D01*
G75*
G02*
X74051000Y-50987000I0J-113000D01*
G01*
G37*
G36*
G01*
X61381001Y-42976000D02*
X60380999Y-42976000D01*
G75*
G02*
X60330000Y-42925001I0J50999D01*
G01*
X60330000Y-42274999D01*
G75*
G02*
X60380999Y-42224000I50999J0D01*
G01*
X61381001Y-42224000D01*
G75*
G02*
X61432000Y-42274999I0J-50999D01*
G01*
X61432000Y-42925001D01*
G75*
G02*
X61381001Y-42976000I-50999J0D01*
G01*
G37*
G36*
G01*
X61381001Y-41706000D02*
X60380999Y-41706000D01*
G75*
G02*
X60330000Y-41655001I0J50999D01*
G01*
X60330000Y-41004999D01*
G75*
G02*
X60380999Y-40954000I50999J0D01*
G01*
X61381001Y-40954000D01*
G75*
G02*
X61432000Y-41004999I0J-50999D01*
G01*
X61432000Y-41655001D01*
G75*
G02*
X61381001Y-41706000I-50999J0D01*
G01*
G37*
G36*
G01*
X61381001Y-40436000D02*
X60380999Y-40436000D01*
G75*
G02*
X60330000Y-40385001I0J50999D01*
G01*
X60330000Y-39734999D01*
G75*
G02*
X60380999Y-39684000I50999J0D01*
G01*
X61381001Y-39684000D01*
G75*
G02*
X61432000Y-39734999I0J-50999D01*
G01*
X61432000Y-40385001D01*
G75*
G02*
X61381001Y-40436000I-50999J0D01*
G01*
G37*
G36*
G01*
X61381001Y-39166000D02*
X60380999Y-39166000D01*
G75*
G02*
X60330000Y-39115001I0J50999D01*
G01*
X60330000Y-38464999D01*
G75*
G02*
X60380999Y-38414000I50999J0D01*
G01*
X61381001Y-38414000D01*
G75*
G02*
X61432000Y-38464999I0J-50999D01*
G01*
X61432000Y-39115001D01*
G75*
G02*
X61381001Y-39166000I-50999J0D01*
G01*
G37*
G36*
G01*
X61381001Y-37896000D02*
X60380999Y-37896000D01*
G75*
G02*
X60330000Y-37845001I0J50999D01*
G01*
X60330000Y-37194999D01*
G75*
G02*
X60380999Y-37144000I50999J0D01*
G01*
X61381001Y-37144000D01*
G75*
G02*
X61432000Y-37194999I0J-50999D01*
G01*
X61432000Y-37845001D01*
G75*
G02*
X61381001Y-37896000I-50999J0D01*
G01*
G37*
G36*
G01*
X61381001Y-36626000D02*
X60380999Y-36626000D01*
G75*
G02*
X60330000Y-36575001I0J50999D01*
G01*
X60330000Y-35924999D01*
G75*
G02*
X60380999Y-35874000I50999J0D01*
G01*
X61381001Y-35874000D01*
G75*
G02*
X61432000Y-35924999I0J-50999D01*
G01*
X61432000Y-36575001D01*
G75*
G02*
X61381001Y-36626000I-50999J0D01*
G01*
G37*
G36*
G01*
X61381001Y-35356000D02*
X60380999Y-35356000D01*
G75*
G02*
X60330000Y-35305001I0J50999D01*
G01*
X60330000Y-34654999D01*
G75*
G02*
X60380999Y-34604000I50999J0D01*
G01*
X61381001Y-34604000D01*
G75*
G02*
X61432000Y-34654999I0J-50999D01*
G01*
X61432000Y-35305001D01*
G75*
G02*
X61381001Y-35356000I-50999J0D01*
G01*
G37*
G36*
G01*
X61381001Y-34086000D02*
X60380999Y-34086000D01*
G75*
G02*
X60330000Y-34035001I0J50999D01*
G01*
X60330000Y-33384999D01*
G75*
G02*
X60380999Y-33334000I50999J0D01*
G01*
X61381001Y-33334000D01*
G75*
G02*
X61432000Y-33384999I0J-50999D01*
G01*
X61432000Y-34035001D01*
G75*
G02*
X61381001Y-34086000I-50999J0D01*
G01*
G37*
G36*
G01*
X61381001Y-32816000D02*
X60380999Y-32816000D01*
G75*
G02*
X60330000Y-32765001I0J50999D01*
G01*
X60330000Y-32114999D01*
G75*
G02*
X60380999Y-32064000I50999J0D01*
G01*
X61381001Y-32064000D01*
G75*
G02*
X61432000Y-32114999I0J-50999D01*
G01*
X61432000Y-32765001D01*
G75*
G02*
X61381001Y-32816000I-50999J0D01*
G01*
G37*
G36*
G01*
X61381001Y-31546000D02*
X60380999Y-31546000D01*
G75*
G02*
X60330000Y-31495001I0J50999D01*
G01*
X60330000Y-30844999D01*
G75*
G02*
X60380999Y-30794000I50999J0D01*
G01*
X61381001Y-30794000D01*
G75*
G02*
X61432000Y-30844999I0J-50999D01*
G01*
X61432000Y-31495001D01*
G75*
G02*
X61381001Y-31546000I-50999J0D01*
G01*
G37*
G36*
G01*
X73619001Y-39166000D02*
X72618999Y-39166000D01*
G75*
G02*
X72568000Y-39115001I0J50999D01*
G01*
X72568000Y-38464999D01*
G75*
G02*
X72618999Y-38414000I50999J0D01*
G01*
X73619001Y-38414000D01*
G75*
G02*
X73670000Y-38464999I0J-50999D01*
G01*
X73670000Y-39115001D01*
G75*
G02*
X73619001Y-39166000I-50999J0D01*
G01*
G37*
G36*
G01*
X73619001Y-31546000D02*
X72618999Y-31546000D01*
G75*
G02*
X72568000Y-31495001I0J50999D01*
G01*
X72568000Y-30844999D01*
G75*
G02*
X72618999Y-30794000I50999J0D01*
G01*
X73619001Y-30794000D01*
G75*
G02*
X73670000Y-30844999I0J-50999D01*
G01*
X73670000Y-31495001D01*
G75*
G02*
X73619001Y-31546000I-50999J0D01*
G01*
G37*
G36*
G01*
X73619001Y-37896000D02*
X72618999Y-37896000D01*
G75*
G02*
X72568000Y-37845001I0J50999D01*
G01*
X72568000Y-37194999D01*
G75*
G02*
X72618999Y-37144000I50999J0D01*
G01*
X73619001Y-37144000D01*
G75*
G02*
X73670000Y-37194999I0J-50999D01*
G01*
X73670000Y-37845001D01*
G75*
G02*
X73619001Y-37896000I-50999J0D01*
G01*
G37*
G36*
G01*
X73619001Y-32816000D02*
X72618999Y-32816000D01*
G75*
G02*
X72568000Y-32765001I0J50999D01*
G01*
X72568000Y-32114999D01*
G75*
G02*
X72618999Y-32064000I50999J0D01*
G01*
X73619001Y-32064000D01*
G75*
G02*
X73670000Y-32114999I0J-50999D01*
G01*
X73670000Y-32765001D01*
G75*
G02*
X73619001Y-32816000I-50999J0D01*
G01*
G37*
G36*
G01*
X73619001Y-34086000D02*
X72618999Y-34086000D01*
G75*
G02*
X72568000Y-34035001I0J50999D01*
G01*
X72568000Y-33384999D01*
G75*
G02*
X72618999Y-33334000I50999J0D01*
G01*
X73619001Y-33334000D01*
G75*
G02*
X73670000Y-33384999I0J-50999D01*
G01*
X73670000Y-34035001D01*
G75*
G02*
X73619001Y-34086000I-50999J0D01*
G01*
G37*
G36*
G01*
X73619001Y-35356000D02*
X72618999Y-35356000D01*
G75*
G02*
X72568000Y-35305001I0J50999D01*
G01*
X72568000Y-34654999D01*
G75*
G02*
X72618999Y-34604000I50999J0D01*
G01*
X73619001Y-34604000D01*
G75*
G02*
X73670000Y-34654999I0J-50999D01*
G01*
X73670000Y-35305001D01*
G75*
G02*
X73619001Y-35356000I-50999J0D01*
G01*
G37*
G36*
G01*
X73619001Y-40436000D02*
X72618999Y-40436000D01*
G75*
G02*
X72568000Y-40385001I0J50999D01*
G01*
X72568000Y-39734999D01*
G75*
G02*
X72618999Y-39684000I50999J0D01*
G01*
X73619001Y-39684000D01*
G75*
G02*
X73670000Y-39734999I0J-50999D01*
G01*
X73670000Y-40385001D01*
G75*
G02*
X73619001Y-40436000I-50999J0D01*
G01*
G37*
G36*
G01*
X73619001Y-36626000D02*
X72618999Y-36626000D01*
G75*
G02*
X72568000Y-36575001I0J50999D01*
G01*
X72568000Y-35924999D01*
G75*
G02*
X72618999Y-35874000I50999J0D01*
G01*
X73619001Y-35874000D01*
G75*
G02*
X73670000Y-35924999I0J-50999D01*
G01*
X73670000Y-36575001D01*
G75*
G02*
X73619001Y-36626000I-50999J0D01*
G01*
G37*
G36*
G01*
X73619001Y-41706000D02*
X72618999Y-41706000D01*
G75*
G02*
X72568000Y-41655001I0J50999D01*
G01*
X72568000Y-41004999D01*
G75*
G02*
X72618999Y-40954000I50999J0D01*
G01*
X73619001Y-40954000D01*
G75*
G02*
X73670000Y-41004999I0J-50999D01*
G01*
X73670000Y-41655001D01*
G75*
G02*
X73619001Y-41706000I-50999J0D01*
G01*
G37*
G36*
G01*
X73619001Y-42976000D02*
X72618999Y-42976000D01*
G75*
G02*
X72568000Y-42925001I0J50999D01*
G01*
X72568000Y-42274999D01*
G75*
G02*
X72618999Y-42224000I50999J0D01*
G01*
X73619001Y-42224000D01*
G75*
G02*
X73670000Y-42274999I0J-50999D01*
G01*
X73670000Y-42925001D01*
G75*
G02*
X73619001Y-42976000I-50999J0D01*
G01*
G37*
G36*
G01*
X70526000Y-44318999D02*
X70526000Y-45319001D01*
G75*
G02*
X70475001Y-45370000I-50999J0D01*
G01*
X69824999Y-45370000D01*
G75*
G02*
X69774000Y-45319001I0J50999D01*
G01*
X69774000Y-44318999D01*
G75*
G02*
X69824999Y-44268000I50999J0D01*
G01*
X70475001Y-44268000D01*
G75*
G02*
X70526000Y-44318999I0J-50999D01*
G01*
G37*
G36*
G01*
X62906000Y-44318999D02*
X62906000Y-45319001D01*
G75*
G02*
X62855001Y-45370000I-50999J0D01*
G01*
X62204999Y-45370000D01*
G75*
G02*
X62154000Y-45319001I0J50999D01*
G01*
X62154000Y-44318999D01*
G75*
G02*
X62204999Y-44268000I50999J0D01*
G01*
X62855001Y-44268000D01*
G75*
G02*
X62906000Y-44318999I0J-50999D01*
G01*
G37*
G36*
G01*
X69256000Y-44318999D02*
X69256000Y-45319001D01*
G75*
G02*
X69205001Y-45370000I-50999J0D01*
G01*
X68554999Y-45370000D01*
G75*
G02*
X68504000Y-45319001I0J50999D01*
G01*
X68504000Y-44318999D01*
G75*
G02*
X68554999Y-44268000I50999J0D01*
G01*
X69205001Y-44268000D01*
G75*
G02*
X69256000Y-44318999I0J-50999D01*
G01*
G37*
G36*
G01*
X64176000Y-44318999D02*
X64176000Y-45319001D01*
G75*
G02*
X64125001Y-45370000I-50999J0D01*
G01*
X63474999Y-45370000D01*
G75*
G02*
X63424000Y-45319001I0J50999D01*
G01*
X63424000Y-44318999D01*
G75*
G02*
X63474999Y-44268000I50999J0D01*
G01*
X64125001Y-44268000D01*
G75*
G02*
X64176000Y-44318999I0J-50999D01*
G01*
G37*
G36*
G01*
X65446000Y-44318999D02*
X65446000Y-45319001D01*
G75*
G02*
X65395001Y-45370000I-50999J0D01*
G01*
X64744999Y-45370000D01*
G75*
G02*
X64694000Y-45319001I0J50999D01*
G01*
X64694000Y-44318999D01*
G75*
G02*
X64744999Y-44268000I50999J0D01*
G01*
X65395001Y-44268000D01*
G75*
G02*
X65446000Y-44318999I0J-50999D01*
G01*
G37*
G36*
G01*
X66716000Y-44318999D02*
X66716000Y-45319001D01*
G75*
G02*
X66665001Y-45370000I-50999J0D01*
G01*
X66014999Y-45370000D01*
G75*
G02*
X65964000Y-45319001I0J50999D01*
G01*
X65964000Y-44318999D01*
G75*
G02*
X66014999Y-44268000I50999J0D01*
G01*
X66665001Y-44268000D01*
G75*
G02*
X66716000Y-44318999I0J-50999D01*
G01*
G37*
G36*
G01*
X71796000Y-44318999D02*
X71796000Y-45319001D01*
G75*
G02*
X71745001Y-45370000I-50999J0D01*
G01*
X71094999Y-45370000D01*
G75*
G02*
X71044000Y-45319001I0J50999D01*
G01*
X71044000Y-44318999D01*
G75*
G02*
X71094999Y-44268000I50999J0D01*
G01*
X71745001Y-44268000D01*
G75*
G02*
X71796000Y-44318999I0J-50999D01*
G01*
G37*
G36*
G01*
X67986000Y-44318999D02*
X67986000Y-45319001D01*
G75*
G02*
X67935001Y-45370000I-50999J0D01*
G01*
X67284999Y-45370000D01*
G75*
G02*
X67234000Y-45319001I0J50999D01*
G01*
X67234000Y-44318999D01*
G75*
G02*
X67284999Y-44268000I50999J0D01*
G01*
X67935001Y-44268000D01*
G75*
G02*
X67986000Y-44318999I0J-50999D01*
G01*
G37*
G36*
G01*
X68051000Y-47100000D02*
X68051000Y-48900000D01*
G75*
G02*
X68000000Y-48951000I-51000J0D01*
G01*
X67000000Y-48951000D01*
G75*
G02*
X66949000Y-48900000I0J51000D01*
G01*
X66949000Y-47100000D01*
G75*
G02*
X67000000Y-47049000I51000J0D01*
G01*
X68000000Y-47049000D01*
G75*
G02*
X68051000Y-47100000I0J-51000D01*
G01*
G37*
G36*
G01*
X65551000Y-47100000D02*
X65551000Y-48900000D01*
G75*
G02*
X65500000Y-48951000I-51000J0D01*
G01*
X64500000Y-48951000D01*
G75*
G02*
X64449000Y-48900000I0J51000D01*
G01*
X64449000Y-47100000D01*
G75*
G02*
X64500000Y-47049000I51000J0D01*
G01*
X65500000Y-47049000D01*
G75*
G02*
X65551000Y-47100000I0J-51000D01*
G01*
G37*
G36*
G01*
X71902000Y-48224000D02*
X72298000Y-48224000D01*
G75*
G02*
X72471000Y-48397000I0J-173000D01*
G01*
X72471000Y-48743000D01*
G75*
G02*
X72298000Y-48916000I-173000J0D01*
G01*
X71902000Y-48916000D01*
G75*
G02*
X71729000Y-48743000I0J173000D01*
G01*
X71729000Y-48397000D01*
G75*
G02*
X71902000Y-48224000I173000J0D01*
G01*
G37*
G36*
G01*
X71902000Y-47254000D02*
X72298000Y-47254000D01*
G75*
G02*
X72471000Y-47427000I0J-173000D01*
G01*
X72471000Y-47773000D01*
G75*
G02*
X72298000Y-47946000I-173000J0D01*
G01*
X71902000Y-47946000D01*
G75*
G02*
X71729000Y-47773000I0J173000D01*
G01*
X71729000Y-47427000D01*
G75*
G02*
X71902000Y-47254000I173000J0D01*
G01*
G37*
G36*
G01*
X70898000Y-47946000D02*
X70502000Y-47946000D01*
G75*
G02*
X70329000Y-47773000I0J173000D01*
G01*
X70329000Y-47427000D01*
G75*
G02*
X70502000Y-47254000I173000J0D01*
G01*
X70898000Y-47254000D01*
G75*
G02*
X71071000Y-47427000I0J-173000D01*
G01*
X71071000Y-47773000D01*
G75*
G02*
X70898000Y-47946000I-173000J0D01*
G01*
G37*
G36*
G01*
X70898000Y-48916000D02*
X70502000Y-48916000D01*
G75*
G02*
X70329000Y-48743000I0J173000D01*
G01*
X70329000Y-48397000D01*
G75*
G02*
X70502000Y-48224000I173000J0D01*
G01*
X70898000Y-48224000D01*
G75*
G02*
X71071000Y-48397000I0J-173000D01*
G01*
X71071000Y-48743000D01*
G75*
G02*
X70898000Y-48916000I-173000J0D01*
G01*
G37*
G36*
G01*
X69498000Y-50776000D02*
X69102000Y-50776000D01*
G75*
G02*
X68929000Y-50603000I0J173000D01*
G01*
X68929000Y-50257000D01*
G75*
G02*
X69102000Y-50084000I173000J0D01*
G01*
X69498000Y-50084000D01*
G75*
G02*
X69671000Y-50257000I0J-173000D01*
G01*
X69671000Y-50603000D01*
G75*
G02*
X69498000Y-50776000I-173000J0D01*
G01*
G37*
G36*
G01*
X69498000Y-51746000D02*
X69102000Y-51746000D01*
G75*
G02*
X68929000Y-51573000I0J173000D01*
G01*
X68929000Y-51227000D01*
G75*
G02*
X69102000Y-51054000I173000J0D01*
G01*
X69498000Y-51054000D01*
G75*
G02*
X69671000Y-51227000I0J-173000D01*
G01*
X69671000Y-51573000D01*
G75*
G02*
X69498000Y-51746000I-173000J0D01*
G01*
G37*
G36*
G01*
X69524000Y-56498000D02*
X69524000Y-56102000D01*
G75*
G02*
X69697000Y-55929000I173000J0D01*
G01*
X70043000Y-55929000D01*
G75*
G02*
X70216000Y-56102000I0J-173000D01*
G01*
X70216000Y-56498000D01*
G75*
G02*
X70043000Y-56671000I-173000J0D01*
G01*
X69697000Y-56671000D01*
G75*
G02*
X69524000Y-56498000I0J173000D01*
G01*
G37*
G36*
G01*
X68554000Y-56498000D02*
X68554000Y-56102000D01*
G75*
G02*
X68727000Y-55929000I173000J0D01*
G01*
X69073000Y-55929000D01*
G75*
G02*
X69246000Y-56102000I0J-173000D01*
G01*
X69246000Y-56498000D01*
G75*
G02*
X69073000Y-56671000I-173000J0D01*
G01*
X68727000Y-56671000D01*
G75*
G02*
X68554000Y-56498000I0J173000D01*
G01*
G37*
G36*
G01*
X61776000Y-58002000D02*
X61776000Y-58398000D01*
G75*
G02*
X61603000Y-58571000I-173000J0D01*
G01*
X61257000Y-58571000D01*
G75*
G02*
X61084000Y-58398000I0J173000D01*
G01*
X61084000Y-58002000D01*
G75*
G02*
X61257000Y-57829000I173000J0D01*
G01*
X61603000Y-57829000D01*
G75*
G02*
X61776000Y-58002000I0J-173000D01*
G01*
G37*
G36*
G01*
X62746000Y-58002000D02*
X62746000Y-58398000D01*
G75*
G02*
X62573000Y-58571000I-173000J0D01*
G01*
X62227000Y-58571000D01*
G75*
G02*
X62054000Y-58398000I0J173000D01*
G01*
X62054000Y-58002000D01*
G75*
G02*
X62227000Y-57829000I173000J0D01*
G01*
X62573000Y-57829000D01*
G75*
G02*
X62746000Y-58002000I0J-173000D01*
G01*
G37*
G36*
G01*
X67439000Y-56498000D02*
X67439000Y-56102000D01*
G75*
G02*
X67612000Y-55929000I173000J0D01*
G01*
X67958000Y-55929000D01*
G75*
G02*
X68131000Y-56102000I0J-173000D01*
G01*
X68131000Y-56498000D01*
G75*
G02*
X67958000Y-56671000I-173000J0D01*
G01*
X67612000Y-56671000D01*
G75*
G02*
X67439000Y-56498000I0J173000D01*
G01*
G37*
G36*
G01*
X66469000Y-56498000D02*
X66469000Y-56102000D01*
G75*
G02*
X66642000Y-55929000I173000J0D01*
G01*
X66988000Y-55929000D01*
G75*
G02*
X67161000Y-56102000I0J-173000D01*
G01*
X67161000Y-56498000D01*
G75*
G02*
X66988000Y-56671000I-173000J0D01*
G01*
X66642000Y-56671000D01*
G75*
G02*
X66469000Y-56498000I0J173000D01*
G01*
G37*
G36*
G01*
X61802000Y-47624000D02*
X62198000Y-47624000D01*
G75*
G02*
X62371000Y-47797000I0J-173000D01*
G01*
X62371000Y-48143000D01*
G75*
G02*
X62198000Y-48316000I-173000J0D01*
G01*
X61802000Y-48316000D01*
G75*
G02*
X61629000Y-48143000I0J173000D01*
G01*
X61629000Y-47797000D01*
G75*
G02*
X61802000Y-47624000I173000J0D01*
G01*
G37*
G36*
G01*
X61802000Y-46654000D02*
X62198000Y-46654000D01*
G75*
G02*
X62371000Y-46827000I0J-173000D01*
G01*
X62371000Y-47173000D01*
G75*
G02*
X62198000Y-47346000I-173000J0D01*
G01*
X61802000Y-47346000D01*
G75*
G02*
X61629000Y-47173000I0J173000D01*
G01*
X61629000Y-46827000D01*
G75*
G02*
X61802000Y-46654000I173000J0D01*
G01*
G37*
G36*
G01*
X62139000Y-54598000D02*
X62139000Y-54202000D01*
G75*
G02*
X62312000Y-54029000I173000J0D01*
G01*
X62658000Y-54029000D01*
G75*
G02*
X62831000Y-54202000I0J-173000D01*
G01*
X62831000Y-54598000D01*
G75*
G02*
X62658000Y-54771000I-173000J0D01*
G01*
X62312000Y-54771000D01*
G75*
G02*
X62139000Y-54598000I0J173000D01*
G01*
G37*
G36*
G01*
X61169000Y-54598000D02*
X61169000Y-54202000D01*
G75*
G02*
X61342000Y-54029000I173000J0D01*
G01*
X61688000Y-54029000D01*
G75*
G02*
X61861000Y-54202000I0J-173000D01*
G01*
X61861000Y-54598000D01*
G75*
G02*
X61688000Y-54771000I-173000J0D01*
G01*
X61342000Y-54771000D01*
G75*
G02*
X61169000Y-54598000I0J173000D01*
G01*
G37*
G36*
G01*
X72700000Y-57799000D02*
X73500000Y-57799000D01*
G75*
G02*
X73551000Y-57850000I0J-51000D01*
G01*
X73551000Y-58750000D01*
G75*
G02*
X73500000Y-58801000I-51000J0D01*
G01*
X72700000Y-58801000D01*
G75*
G02*
X72649000Y-58750000I0J51000D01*
G01*
X72649000Y-57850000D01*
G75*
G02*
X72700000Y-57799000I51000J0D01*
G01*
G37*
G36*
G01*
X71750000Y-55799000D02*
X72550000Y-55799000D01*
G75*
G02*
X72601000Y-55850000I0J-51000D01*
G01*
X72601000Y-56750000D01*
G75*
G02*
X72550000Y-56801000I-51000J0D01*
G01*
X71750000Y-56801000D01*
G75*
G02*
X71699000Y-56750000I0J51000D01*
G01*
X71699000Y-55850000D01*
G75*
G02*
X71750000Y-55799000I51000J0D01*
G01*
G37*
G36*
G01*
X73650000Y-55799000D02*
X74450000Y-55799000D01*
G75*
G02*
X74501000Y-55850000I0J-51000D01*
G01*
X74501000Y-56750000D01*
G75*
G02*
X74450000Y-56801000I-51000J0D01*
G01*
X73650000Y-56801000D01*
G75*
G02*
X73599000Y-56750000I0J51000D01*
G01*
X73599000Y-55850000D01*
G75*
G02*
X73650000Y-55799000I51000J0D01*
G01*
G37*
G36*
G01*
X62281750Y-50913500D02*
X61718250Y-50913500D01*
G75*
G02*
X61474000Y-50669250I0J244250D01*
G01*
X61474000Y-50180750D01*
G75*
G02*
X61718250Y-49936500I244250J0D01*
G01*
X62281750Y-49936500D01*
G75*
G02*
X62526000Y-50180750I0J-244250D01*
G01*
X62526000Y-50669250D01*
G75*
G02*
X62281750Y-50913500I-244250J0D01*
G01*
G37*
G36*
G01*
X62281750Y-52488500D02*
X61718250Y-52488500D01*
G75*
G02*
X61474000Y-52244250I0J244250D01*
G01*
X61474000Y-51755750D01*
G75*
G02*
X61718250Y-51511500I244250J0D01*
G01*
X62281750Y-51511500D01*
G75*
G02*
X62526000Y-51755750I0J-244250D01*
G01*
X62526000Y-52244250D01*
G75*
G02*
X62281750Y-52488500I-244250J0D01*
G01*
G37*
G36*
G01*
X61776000Y-56202000D02*
X61776000Y-56598000D01*
G75*
G02*
X61603000Y-56771000I-173000J0D01*
G01*
X61257000Y-56771000D01*
G75*
G02*
X61084000Y-56598000I0J173000D01*
G01*
X61084000Y-56202000D01*
G75*
G02*
X61257000Y-56029000I173000J0D01*
G01*
X61603000Y-56029000D01*
G75*
G02*
X61776000Y-56202000I0J-173000D01*
G01*
G37*
G36*
G01*
X62746000Y-56202000D02*
X62746000Y-56598000D01*
G75*
G02*
X62573000Y-56771000I-173000J0D01*
G01*
X62227000Y-56771000D01*
G75*
G02*
X62054000Y-56598000I0J173000D01*
G01*
X62054000Y-56202000D01*
G75*
G02*
X62227000Y-56029000I173000J0D01*
G01*
X62573000Y-56029000D01*
G75*
G02*
X62746000Y-56202000I0J-173000D01*
G01*
G37*
G36*
G01*
X66398000Y-50776000D02*
X66002000Y-50776000D01*
G75*
G02*
X65829000Y-50603000I0J173000D01*
G01*
X65829000Y-50257000D01*
G75*
G02*
X66002000Y-50084000I173000J0D01*
G01*
X66398000Y-50084000D01*
G75*
G02*
X66571000Y-50257000I0J-173000D01*
G01*
X66571000Y-50603000D01*
G75*
G02*
X66398000Y-50776000I-173000J0D01*
G01*
G37*
G36*
G01*
X66398000Y-51746000D02*
X66002000Y-51746000D01*
G75*
G02*
X65829000Y-51573000I0J173000D01*
G01*
X65829000Y-51227000D01*
G75*
G02*
X66002000Y-51054000I173000J0D01*
G01*
X66398000Y-51054000D01*
G75*
G02*
X66571000Y-51227000I0J-173000D01*
G01*
X66571000Y-51573000D01*
G75*
G02*
X66398000Y-51746000I-173000J0D01*
G01*
G37*
G36*
G01*
X64602000Y-51054000D02*
X64998000Y-51054000D01*
G75*
G02*
X65171000Y-51227000I0J-173000D01*
G01*
X65171000Y-51573000D01*
G75*
G02*
X64998000Y-51746000I-173000J0D01*
G01*
X64602000Y-51746000D01*
G75*
G02*
X64429000Y-51573000I0J173000D01*
G01*
X64429000Y-51227000D01*
G75*
G02*
X64602000Y-51054000I173000J0D01*
G01*
G37*
G36*
G01*
X64602000Y-50084000D02*
X64998000Y-50084000D01*
G75*
G02*
X65171000Y-50257000I0J-173000D01*
G01*
X65171000Y-50603000D01*
G75*
G02*
X64998000Y-50776000I-173000J0D01*
G01*
X64602000Y-50776000D01*
G75*
G02*
X64429000Y-50603000I0J173000D01*
G01*
X64429000Y-50257000D01*
G75*
G02*
X64602000Y-50084000I173000J0D01*
G01*
G37*
G36*
G01*
X72676000Y-53602000D02*
X72676000Y-53998000D01*
G75*
G02*
X72503000Y-54171000I-173000J0D01*
G01*
X72157000Y-54171000D01*
G75*
G02*
X71984000Y-53998000I0J173000D01*
G01*
X71984000Y-53602000D01*
G75*
G02*
X72157000Y-53429000I173000J0D01*
G01*
X72503000Y-53429000D01*
G75*
G02*
X72676000Y-53602000I0J-173000D01*
G01*
G37*
G36*
G01*
X73646000Y-53602000D02*
X73646000Y-53998000D01*
G75*
G02*
X73473000Y-54171000I-173000J0D01*
G01*
X73127000Y-54171000D01*
G75*
G02*
X72954000Y-53998000I0J173000D01*
G01*
X72954000Y-53602000D01*
G75*
G02*
X73127000Y-53429000I173000J0D01*
G01*
X73473000Y-53429000D01*
G75*
G02*
X73646000Y-53602000I0J-173000D01*
G01*
G37*
G36*
G01*
X68198000Y-50776000D02*
X67802000Y-50776000D01*
G75*
G02*
X67629000Y-50603000I0J173000D01*
G01*
X67629000Y-50257000D01*
G75*
G02*
X67802000Y-50084000I173000J0D01*
G01*
X68198000Y-50084000D01*
G75*
G02*
X68371000Y-50257000I0J-173000D01*
G01*
X68371000Y-50603000D01*
G75*
G02*
X68198000Y-50776000I-173000J0D01*
G01*
G37*
G36*
G01*
X68198000Y-51746000D02*
X67802000Y-51746000D01*
G75*
G02*
X67629000Y-51573000I0J173000D01*
G01*
X67629000Y-51227000D01*
G75*
G02*
X67802000Y-51054000I173000J0D01*
G01*
X68198000Y-51054000D01*
G75*
G02*
X68371000Y-51227000I0J-173000D01*
G01*
X68371000Y-51573000D01*
G75*
G02*
X68198000Y-51746000I-173000J0D01*
G01*
G37*
D11*
X76640000Y-34340000D03*
X76640000Y-41960000D03*
X76640000Y-44500000D03*
X76640000Y-39420000D03*
X76640000Y-36880000D03*
G36*
G01*
X68850000Y-58201000D02*
X68050000Y-58201000D01*
G75*
G02*
X67999000Y-58150000I0J51000D01*
G01*
X67999000Y-57250000D01*
G75*
G02*
X68050000Y-57199000I51000J0D01*
G01*
X68850000Y-57199000D01*
G75*
G02*
X68901000Y-57250000I0J-51000D01*
G01*
X68901000Y-58150000D01*
G75*
G02*
X68850000Y-58201000I-51000J0D01*
G01*
G37*
G36*
G01*
X69800000Y-60201000D02*
X69000000Y-60201000D01*
G75*
G02*
X68949000Y-60150000I0J51000D01*
G01*
X68949000Y-59250000D01*
G75*
G02*
X69000000Y-59199000I51000J0D01*
G01*
X69800000Y-59199000D01*
G75*
G02*
X69851000Y-59250000I0J-51000D01*
G01*
X69851000Y-60150000D01*
G75*
G02*
X69800000Y-60201000I-51000J0D01*
G01*
G37*
G36*
G01*
X67900000Y-60201000D02*
X67100000Y-60201000D01*
G75*
G02*
X67049000Y-60150000I0J51000D01*
G01*
X67049000Y-59250000D01*
G75*
G02*
X67100000Y-59199000I51000J0D01*
G01*
X67900000Y-59199000D01*
G75*
G02*
X67951000Y-59250000I0J-51000D01*
G01*
X67951000Y-60150000D01*
G75*
G02*
X67900000Y-60201000I-51000J0D01*
G01*
G37*
G36*
G01*
X65200000Y-58201000D02*
X64400000Y-58201000D01*
G75*
G02*
X64349000Y-58150000I0J51000D01*
G01*
X64349000Y-57250000D01*
G75*
G02*
X64400000Y-57199000I51000J0D01*
G01*
X65200000Y-57199000D01*
G75*
G02*
X65251000Y-57250000I0J-51000D01*
G01*
X65251000Y-58150000D01*
G75*
G02*
X65200000Y-58201000I-51000J0D01*
G01*
G37*
G36*
G01*
X66150000Y-60201000D02*
X65350000Y-60201000D01*
G75*
G02*
X65299000Y-60150000I0J51000D01*
G01*
X65299000Y-59250000D01*
G75*
G02*
X65350000Y-59199000I51000J0D01*
G01*
X66150000Y-59199000D01*
G75*
G02*
X66201000Y-59250000I0J-51000D01*
G01*
X66201000Y-60150000D01*
G75*
G02*
X66150000Y-60201000I-51000J0D01*
G01*
G37*
G36*
G01*
X64250000Y-60201000D02*
X63450000Y-60201000D01*
G75*
G02*
X63399000Y-60150000I0J51000D01*
G01*
X63399000Y-59250000D01*
G75*
G02*
X63450000Y-59199000I51000J0D01*
G01*
X64250000Y-59199000D01*
G75*
G02*
X64301000Y-59250000I0J-51000D01*
G01*
X64301000Y-60150000D01*
G75*
G02*
X64250000Y-60201000I-51000J0D01*
G01*
G37*
G36*
G01*
X64581750Y-53901000D02*
X63618250Y-53901000D01*
G75*
G02*
X63349000Y-53631750I0J269250D01*
G01*
X63349000Y-53093250D01*
G75*
G02*
X63618250Y-52824000I269250J0D01*
G01*
X64581750Y-52824000D01*
G75*
G02*
X64851000Y-53093250I0J-269250D01*
G01*
X64851000Y-53631750D01*
G75*
G02*
X64581750Y-53901000I-269250J0D01*
G01*
G37*
G36*
G01*
X64581750Y-55776000D02*
X63618250Y-55776000D01*
G75*
G02*
X63349000Y-55506750I0J269250D01*
G01*
X63349000Y-54968250D01*
G75*
G02*
X63618250Y-54699000I269250J0D01*
G01*
X64581750Y-54699000D01*
G75*
G02*
X64851000Y-54968250I0J-269250D01*
G01*
X64851000Y-55506750D01*
G75*
G02*
X64581750Y-55776000I-269250J0D01*
G01*
G37*
G36*
G01*
X70401000Y-52850000D02*
X70401000Y-54550000D01*
G75*
G02*
X70350000Y-54601000I-51000J0D01*
G01*
X69050000Y-54601000D01*
G75*
G02*
X68999000Y-54550000I0J51000D01*
G01*
X68999000Y-52850000D01*
G75*
G02*
X69050000Y-52799000I51000J0D01*
G01*
X70350000Y-52799000D01*
G75*
G02*
X70401000Y-52850000I0J-51000D01*
G01*
G37*
G36*
G01*
X66901000Y-52850000D02*
X66901000Y-54550000D01*
G75*
G02*
X66850000Y-54601000I-51000J0D01*
G01*
X65550000Y-54601000D01*
G75*
G02*
X65499000Y-54550000I0J51000D01*
G01*
X65499000Y-52850000D01*
G75*
G02*
X65550000Y-52799000I51000J0D01*
G01*
X66850000Y-52799000D01*
G75*
G02*
X66901000Y-52850000I0J-51000D01*
G01*
G37*
X76640000Y-31800000D03*
D12*
G36*
X73202990Y-50799718D02*
G01*
X73205372Y-50823905D01*
X73212372Y-50846980D01*
X73223737Y-50868244D01*
X73239032Y-50886881D01*
X73257669Y-50902176D01*
X73278933Y-50913541D01*
X73302008Y-50920541D01*
X73325999Y-50922904D01*
X73349990Y-50920541D01*
X73373020Y-50913555D01*
X73404138Y-50894904D01*
X73420510Y-50881468D01*
X73420836Y-50881250D01*
X73429462Y-50876639D01*
X73429824Y-50876489D01*
X73439187Y-50873649D01*
X73439572Y-50873573D01*
X73455444Y-50872010D01*
X73455640Y-50872000D01*
X73512000Y-50872000D01*
X73513732Y-50873000D01*
X73513732Y-50875000D01*
X73512196Y-50875990D01*
X73490350Y-50878141D01*
X73469526Y-50884459D01*
X73450337Y-50894715D01*
X73433518Y-50908518D01*
X73419715Y-50925337D01*
X73409459Y-50944526D01*
X73403141Y-50965350D01*
X73401000Y-50987094D01*
X73401000Y-51212906D01*
X73403141Y-51234650D01*
X73409459Y-51255474D01*
X73419715Y-51274663D01*
X73433518Y-51291482D01*
X73450337Y-51305285D01*
X73469526Y-51315541D01*
X73490350Y-51321859D01*
X73512196Y-51324010D01*
X73513822Y-51325175D01*
X73513626Y-51327165D01*
X73512000Y-51328000D01*
X73455640Y-51328000D01*
X73455444Y-51327990D01*
X73439572Y-51326427D01*
X73439187Y-51326351D01*
X73429824Y-51323511D01*
X73429462Y-51323361D01*
X73420833Y-51318748D01*
X73420507Y-51318530D01*
X73412950Y-51312329D01*
X73412673Y-51312052D01*
X73409472Y-51308151D01*
X73392358Y-51291037D01*
X73372311Y-51277642D01*
X73350037Y-51268416D01*
X73326387Y-51263711D01*
X73302281Y-51263711D01*
X73278630Y-51268415D01*
X73256357Y-51277641D01*
X73236309Y-51291036D01*
X73219262Y-51308083D01*
X73205867Y-51328130D01*
X73196603Y-51350493D01*
X73191850Y-51366159D01*
X73191700Y-51366521D01*
X73179003Y-51390276D01*
X73178785Y-51390602D01*
X73161699Y-51411422D01*
X73161422Y-51411699D01*
X73140602Y-51428785D01*
X73140276Y-51429003D01*
X73116522Y-51441700D01*
X73116160Y-51441850D01*
X73090383Y-51449670D01*
X73089998Y-51449746D01*
X73057058Y-51452990D01*
X73056862Y-51453000D01*
X73000500Y-51453000D01*
X72998768Y-51452000D01*
X72998768Y-51450000D01*
X73000304Y-51449010D01*
X73039221Y-51445177D01*
X73076459Y-51433881D01*
X73110776Y-51415539D01*
X73140854Y-51390854D01*
X73165539Y-51360776D01*
X73183881Y-51326459D01*
X73195177Y-51289221D01*
X73199000Y-51250406D01*
X73199000Y-50799914D01*
X73200000Y-50798182D01*
X73202000Y-50798182D01*
X73202990Y-50799718D01*
G37*
G36*
X72400243Y-50798347D02*
G01*
X72401000Y-50799914D01*
X72401000Y-51250406D01*
X72404823Y-51289221D01*
X72416119Y-51326459D01*
X72434461Y-51360776D01*
X72459146Y-51390854D01*
X72489224Y-51415539D01*
X72523541Y-51433881D01*
X72560779Y-51445177D01*
X72599696Y-51449010D01*
X72601322Y-51450175D01*
X72601126Y-51452165D01*
X72599500Y-51453000D01*
X72543138Y-51453000D01*
X72542942Y-51452990D01*
X72510002Y-51449746D01*
X72509617Y-51449670D01*
X72483840Y-51441850D01*
X72483478Y-51441700D01*
X72459724Y-51429003D01*
X72459398Y-51428785D01*
X72438578Y-51411699D01*
X72438301Y-51411422D01*
X72421215Y-51390602D01*
X72420997Y-51390276D01*
X72408300Y-51366521D01*
X72408150Y-51366159D01*
X72403397Y-51350493D01*
X72394132Y-51328128D01*
X72380737Y-51308081D01*
X72363689Y-51291035D01*
X72343641Y-51277640D01*
X72321367Y-51268415D01*
X72297717Y-51263711D01*
X72273611Y-51263711D01*
X72249961Y-51268416D01*
X72227687Y-51277643D01*
X72207640Y-51291038D01*
X72190528Y-51308151D01*
X72187327Y-51312052D01*
X72187050Y-51312329D01*
X72179493Y-51318530D01*
X72179167Y-51318748D01*
X72170538Y-51323361D01*
X72170176Y-51323511D01*
X72160813Y-51326351D01*
X72160428Y-51326427D01*
X72144556Y-51327990D01*
X72144360Y-51328000D01*
X72088000Y-51328000D01*
X72086268Y-51327000D01*
X72086268Y-51325000D01*
X72087804Y-51324010D01*
X72109650Y-51321859D01*
X72130474Y-51315541D01*
X72149663Y-51305285D01*
X72166482Y-51291482D01*
X72180285Y-51274663D01*
X72190541Y-51255474D01*
X72196859Y-51234650D01*
X72199000Y-51212906D01*
X72199000Y-50987094D01*
X72196859Y-50965350D01*
X72190541Y-50944526D01*
X72180285Y-50925337D01*
X72166482Y-50908518D01*
X72149663Y-50894715D01*
X72130474Y-50884459D01*
X72109650Y-50878141D01*
X72087804Y-50875990D01*
X72086178Y-50874825D01*
X72086374Y-50872835D01*
X72088000Y-50872000D01*
X72144360Y-50872000D01*
X72144556Y-50872010D01*
X72160428Y-50873573D01*
X72160813Y-50873649D01*
X72170176Y-50876489D01*
X72170538Y-50876639D01*
X72179164Y-50881250D01*
X72179490Y-50881468D01*
X72195898Y-50894933D01*
X72216026Y-50908381D01*
X72238300Y-50917607D01*
X72261950Y-50922311D01*
X72286056Y-50922311D01*
X72309707Y-50917606D01*
X72331980Y-50908379D01*
X72352027Y-50894984D01*
X72369074Y-50877937D01*
X72382468Y-50857889D01*
X72391677Y-50835658D01*
X72397022Y-50799621D01*
X72398265Y-50798054D01*
X72400243Y-50798347D01*
G37*
G36*
X73057058Y-49747010D02*
G01*
X73089998Y-49750254D01*
X73090383Y-49750330D01*
X73116160Y-49758150D01*
X73116522Y-49758300D01*
X73140276Y-49770997D01*
X73140602Y-49771215D01*
X73161422Y-49788301D01*
X73161699Y-49788578D01*
X73178785Y-49809398D01*
X73179003Y-49809724D01*
X73191700Y-49833479D01*
X73191850Y-49833841D01*
X73196603Y-49849507D01*
X73205868Y-49871872D01*
X73219263Y-49891919D01*
X73236311Y-49908965D01*
X73256359Y-49922360D01*
X73278633Y-49931585D01*
X73302283Y-49936289D01*
X73326389Y-49936289D01*
X73350039Y-49931584D01*
X73372313Y-49922357D01*
X73392360Y-49908962D01*
X73409472Y-49891849D01*
X73412673Y-49887948D01*
X73412950Y-49887671D01*
X73420507Y-49881470D01*
X73420833Y-49881252D01*
X73429462Y-49876639D01*
X73429824Y-49876489D01*
X73439187Y-49873649D01*
X73439572Y-49873573D01*
X73455444Y-49872010D01*
X73455640Y-49872000D01*
X73512000Y-49872000D01*
X73513732Y-49873000D01*
X73513732Y-49875000D01*
X73512196Y-49875990D01*
X73490350Y-49878141D01*
X73469526Y-49884459D01*
X73450337Y-49894715D01*
X73433518Y-49908518D01*
X73419715Y-49925337D01*
X73409459Y-49944526D01*
X73403141Y-49965350D01*
X73401000Y-49987094D01*
X73401000Y-50212906D01*
X73403141Y-50234650D01*
X73409459Y-50255474D01*
X73419715Y-50274663D01*
X73433518Y-50291482D01*
X73450337Y-50305285D01*
X73469526Y-50315541D01*
X73490350Y-50321859D01*
X73512196Y-50324010D01*
X73513822Y-50325175D01*
X73513626Y-50327165D01*
X73512000Y-50328000D01*
X73455640Y-50328000D01*
X73455444Y-50327990D01*
X73439572Y-50326427D01*
X73439187Y-50326351D01*
X73429824Y-50323511D01*
X73429462Y-50323361D01*
X73420836Y-50318750D01*
X73420510Y-50318532D01*
X73404102Y-50305067D01*
X73383974Y-50291619D01*
X73361700Y-50282393D01*
X73338050Y-50277689D01*
X73313944Y-50277689D01*
X73290293Y-50282394D01*
X73268020Y-50291621D01*
X73247973Y-50305016D01*
X73230926Y-50322063D01*
X73217532Y-50342111D01*
X73208323Y-50364342D01*
X73202978Y-50400379D01*
X73201735Y-50401946D01*
X73199757Y-50401653D01*
X73199000Y-50400086D01*
X73199000Y-49949594D01*
X73195177Y-49910779D01*
X73183881Y-49873541D01*
X73165539Y-49839224D01*
X73140854Y-49809146D01*
X73110776Y-49784461D01*
X73076459Y-49766119D01*
X73039221Y-49754823D01*
X73000304Y-49750990D01*
X72998678Y-49749825D01*
X72998874Y-49747835D01*
X73000500Y-49747000D01*
X73056862Y-49747000D01*
X73057058Y-49747010D01*
G37*
G36*
X72601232Y-49748000D02*
G01*
X72601232Y-49750000D01*
X72599696Y-49750990D01*
X72560779Y-49754823D01*
X72523541Y-49766119D01*
X72489224Y-49784461D01*
X72459146Y-49809146D01*
X72434461Y-49839224D01*
X72416119Y-49873541D01*
X72404823Y-49910779D01*
X72401000Y-49949594D01*
X72401000Y-50400086D01*
X72400000Y-50401818D01*
X72398000Y-50401818D01*
X72397010Y-50400282D01*
X72394628Y-50376095D01*
X72387628Y-50353020D01*
X72376263Y-50331756D01*
X72360968Y-50313119D01*
X72342331Y-50297824D01*
X72321067Y-50286459D01*
X72297992Y-50279459D01*
X72274001Y-50277096D01*
X72250010Y-50279459D01*
X72226980Y-50286445D01*
X72195862Y-50305096D01*
X72179490Y-50318532D01*
X72179164Y-50318750D01*
X72170538Y-50323361D01*
X72170176Y-50323511D01*
X72160813Y-50326351D01*
X72160428Y-50326427D01*
X72144556Y-50327990D01*
X72144360Y-50328000D01*
X72088000Y-50328000D01*
X72086268Y-50327000D01*
X72086268Y-50325000D01*
X72087804Y-50324010D01*
X72109650Y-50321859D01*
X72130474Y-50315541D01*
X72149663Y-50305285D01*
X72166482Y-50291482D01*
X72180285Y-50274663D01*
X72190541Y-50255474D01*
X72196859Y-50234650D01*
X72199000Y-50212906D01*
X72199000Y-49987094D01*
X72196859Y-49965350D01*
X72190541Y-49944526D01*
X72180285Y-49925337D01*
X72166482Y-49908518D01*
X72149663Y-49894715D01*
X72130474Y-49884459D01*
X72109650Y-49878141D01*
X72087804Y-49875990D01*
X72086178Y-49874825D01*
X72086374Y-49872835D01*
X72088000Y-49872000D01*
X72144360Y-49872000D01*
X72144556Y-49872010D01*
X72160428Y-49873573D01*
X72160813Y-49873649D01*
X72170176Y-49876489D01*
X72170538Y-49876639D01*
X72179167Y-49881252D01*
X72179493Y-49881470D01*
X72187050Y-49887671D01*
X72187327Y-49887948D01*
X72190528Y-49891849D01*
X72207642Y-49908963D01*
X72227689Y-49922358D01*
X72249963Y-49931584D01*
X72273613Y-49936289D01*
X72297719Y-49936289D01*
X72321370Y-49931585D01*
X72343643Y-49922359D01*
X72363691Y-49908964D01*
X72380738Y-49891917D01*
X72394133Y-49871870D01*
X72403397Y-49849507D01*
X72408150Y-49833841D01*
X72408300Y-49833479D01*
X72420997Y-49809724D01*
X72421215Y-49809398D01*
X72438301Y-49788578D01*
X72438578Y-49788301D01*
X72459398Y-49771215D01*
X72459724Y-49770997D01*
X72483478Y-49758300D01*
X72483840Y-49758150D01*
X72509617Y-49750330D01*
X72510002Y-49750254D01*
X72542942Y-49747010D01*
X72543138Y-49747000D01*
X72599500Y-49747000D01*
X72601232Y-49748000D01*
G37*
M02*
