G04 #@! TF.GenerationSoftware,KiCad,Pcbnew,(6.0.0-0)*
G04 #@! TF.CreationDate,2023-02-05T10:16:27+01:00*
G04 #@! TF.ProjectId,parasite,70617261-7369-4746-952e-6b696361645f,2.0.0*
G04 #@! TF.SameCoordinates,Original*
G04 #@! TF.FileFunction,Legend,Top*
G04 #@! TF.FilePolarity,Positive*
%FSLAX46Y46*%
G04 Gerber Fmt 4.6, Leading zero omitted, Abs format (unit mm)*
G04 Created by KiCad (PCBNEW (6.0.0-0)) date 2023-02-05 10:16:27*
%MOMM*%
%LPD*%
G01*
G04 APERTURE LIST*
%ADD10C,0.120000*%
%ADD11C,0.200000*%
%ADD12C,0.100000*%
%ADD13C,0.150000*%
%ADD14C,0.010000*%
%ADD15C,0.127000*%
G04 APERTURE END LIST*
D10*
X58000000Y-99000000D02*
X78000000Y-99000000D01*
D11*
X75450000Y-57060000D02*
G75*
G03*
X75450000Y-57060000I-100000J0D01*
G01*
D12*
X64914285Y-84073904D02*
X64914285Y-83273904D01*
X64914285Y-83578666D02*
X64990476Y-83540571D01*
X65142857Y-83540571D01*
X65219047Y-83578666D01*
X65257142Y-83616761D01*
X65295238Y-83692952D01*
X65295238Y-83921523D01*
X65257142Y-83997714D01*
X65219047Y-84035809D01*
X65142857Y-84073904D01*
X64990476Y-84073904D01*
X64914285Y-84035809D01*
X65638095Y-83769142D02*
X66247619Y-83769142D01*
X66628571Y-83540571D02*
X66628571Y-84340571D01*
X66628571Y-83578666D02*
X66704761Y-83540571D01*
X66857142Y-83540571D01*
X66933333Y-83578666D01*
X66971428Y-83616761D01*
X67009523Y-83692952D01*
X67009523Y-83921523D01*
X66971428Y-83997714D01*
X66933333Y-84035809D01*
X66857142Y-84073904D01*
X66704761Y-84073904D01*
X66628571Y-84035809D01*
X67695238Y-84073904D02*
X67695238Y-83654857D01*
X67657142Y-83578666D01*
X67580952Y-83540571D01*
X67428571Y-83540571D01*
X67352380Y-83578666D01*
X67695238Y-84035809D02*
X67619047Y-84073904D01*
X67428571Y-84073904D01*
X67352380Y-84035809D01*
X67314285Y-83959619D01*
X67314285Y-83883428D01*
X67352380Y-83807238D01*
X67428571Y-83769142D01*
X67619047Y-83769142D01*
X67695238Y-83731047D01*
X68076190Y-84073904D02*
X68076190Y-83540571D01*
X68076190Y-83692952D02*
X68114285Y-83616761D01*
X68152380Y-83578666D01*
X68228571Y-83540571D01*
X68304761Y-83540571D01*
X68914285Y-84073904D02*
X68914285Y-83654857D01*
X68876190Y-83578666D01*
X68800000Y-83540571D01*
X68647619Y-83540571D01*
X68571428Y-83578666D01*
X68914285Y-84035809D02*
X68838095Y-84073904D01*
X68647619Y-84073904D01*
X68571428Y-84035809D01*
X68533333Y-83959619D01*
X68533333Y-83883428D01*
X68571428Y-83807238D01*
X68647619Y-83769142D01*
X68838095Y-83769142D01*
X68914285Y-83731047D01*
X69257142Y-84035809D02*
X69333333Y-84073904D01*
X69485714Y-84073904D01*
X69561904Y-84035809D01*
X69600000Y-83959619D01*
X69600000Y-83921523D01*
X69561904Y-83845333D01*
X69485714Y-83807238D01*
X69371428Y-83807238D01*
X69295238Y-83769142D01*
X69257142Y-83692952D01*
X69257142Y-83654857D01*
X69295238Y-83578666D01*
X69371428Y-83540571D01*
X69485714Y-83540571D01*
X69561904Y-83578666D01*
X69942857Y-84073904D02*
X69942857Y-83540571D01*
X69942857Y-83273904D02*
X69904761Y-83312000D01*
X69942857Y-83350095D01*
X69980952Y-83312000D01*
X69942857Y-83273904D01*
X69942857Y-83350095D01*
X70209523Y-83540571D02*
X70514285Y-83540571D01*
X70323809Y-83273904D02*
X70323809Y-83959619D01*
X70361904Y-84035809D01*
X70438095Y-84073904D01*
X70514285Y-84073904D01*
X71085714Y-84035809D02*
X71009523Y-84073904D01*
X70857142Y-84073904D01*
X70780952Y-84035809D01*
X70742857Y-83959619D01*
X70742857Y-83654857D01*
X70780952Y-83578666D01*
X70857142Y-83540571D01*
X71009523Y-83540571D01*
X71085714Y-83578666D01*
X71123809Y-83654857D01*
X71123809Y-83731047D01*
X70742857Y-83807238D01*
X66628571Y-84638095D02*
X66666666Y-84600000D01*
X66742857Y-84561904D01*
X66933333Y-84561904D01*
X67009523Y-84600000D01*
X67047619Y-84638095D01*
X67085714Y-84714285D01*
X67085714Y-84790476D01*
X67047619Y-84904761D01*
X66590476Y-85361904D01*
X67085714Y-85361904D01*
X67428571Y-85285714D02*
X67466666Y-85323809D01*
X67428571Y-85361904D01*
X67390476Y-85323809D01*
X67428571Y-85285714D01*
X67428571Y-85361904D01*
X67961904Y-84561904D02*
X68038095Y-84561904D01*
X68114285Y-84600000D01*
X68152380Y-84638095D01*
X68190476Y-84714285D01*
X68228571Y-84866666D01*
X68228571Y-85057142D01*
X68190476Y-85209523D01*
X68152380Y-85285714D01*
X68114285Y-85323809D01*
X68038095Y-85361904D01*
X67961904Y-85361904D01*
X67885714Y-85323809D01*
X67847619Y-85285714D01*
X67809523Y-85209523D01*
X67771428Y-85057142D01*
X67771428Y-84866666D01*
X67809523Y-84714285D01*
X67847619Y-84638095D01*
X67885714Y-84600000D01*
X67961904Y-84561904D01*
X68571428Y-85285714D02*
X68609523Y-85323809D01*
X68571428Y-85361904D01*
X68533333Y-85323809D01*
X68571428Y-85285714D01*
X68571428Y-85361904D01*
X69104761Y-84561904D02*
X69180952Y-84561904D01*
X69257142Y-84600000D01*
X69295238Y-84638095D01*
X69333333Y-84714285D01*
X69371428Y-84866666D01*
X69371428Y-85057142D01*
X69333333Y-85209523D01*
X69295238Y-85285714D01*
X69257142Y-85323809D01*
X69180952Y-85361904D01*
X69104761Y-85361904D01*
X69028571Y-85323809D01*
X68990476Y-85285714D01*
X68952380Y-85209523D01*
X68914285Y-85057142D01*
X68914285Y-84866666D01*
X68952380Y-84714285D01*
X68990476Y-84638095D01*
X69028571Y-84600000D01*
X69104761Y-84561904D01*
X65123809Y-86649904D02*
X65123809Y-86116571D01*
X65123809Y-86268952D02*
X65161904Y-86192761D01*
X65200000Y-86154666D01*
X65276190Y-86116571D01*
X65352380Y-86116571D01*
X65619047Y-86649904D02*
X65619047Y-85849904D01*
X65619047Y-86154666D02*
X65695238Y-86116571D01*
X65847619Y-86116571D01*
X65923809Y-86154666D01*
X65961904Y-86192761D01*
X66000000Y-86268952D01*
X66000000Y-86497523D01*
X65961904Y-86573714D01*
X65923809Y-86611809D01*
X65847619Y-86649904D01*
X65695238Y-86649904D01*
X65619047Y-86611809D01*
X66685714Y-86649904D02*
X66685714Y-86230857D01*
X66647619Y-86154666D01*
X66571428Y-86116571D01*
X66419047Y-86116571D01*
X66342857Y-86154666D01*
X66685714Y-86611809D02*
X66609523Y-86649904D01*
X66419047Y-86649904D01*
X66342857Y-86611809D01*
X66304761Y-86535619D01*
X66304761Y-86459428D01*
X66342857Y-86383238D01*
X66419047Y-86345142D01*
X66609523Y-86345142D01*
X66685714Y-86307047D01*
X67066666Y-86649904D02*
X67066666Y-86116571D01*
X67066666Y-86268952D02*
X67104761Y-86192761D01*
X67142857Y-86154666D01*
X67219047Y-86116571D01*
X67295238Y-86116571D01*
X67676190Y-86649904D02*
X67600000Y-86611809D01*
X67561904Y-86573714D01*
X67523809Y-86497523D01*
X67523809Y-86268952D01*
X67561904Y-86192761D01*
X67600000Y-86154666D01*
X67676190Y-86116571D01*
X67790476Y-86116571D01*
X67866666Y-86154666D01*
X67904761Y-86192761D01*
X67942857Y-86268952D01*
X67942857Y-86497523D01*
X67904761Y-86573714D01*
X67866666Y-86611809D01*
X67790476Y-86649904D01*
X67676190Y-86649904D01*
X68285714Y-86116571D02*
X68285714Y-86649904D01*
X68285714Y-86192761D02*
X68323809Y-86154666D01*
X68400000Y-86116571D01*
X68514285Y-86116571D01*
X68590476Y-86154666D01*
X68628571Y-86230857D01*
X68628571Y-86649904D01*
X69009523Y-86573714D02*
X69047619Y-86611809D01*
X69009523Y-86649904D01*
X68971428Y-86611809D01*
X69009523Y-86573714D01*
X69009523Y-86649904D01*
X69390476Y-86116571D02*
X69390476Y-86649904D01*
X69390476Y-86192761D02*
X69428571Y-86154666D01*
X69504761Y-86116571D01*
X69619047Y-86116571D01*
X69695238Y-86154666D01*
X69733333Y-86230857D01*
X69733333Y-86649904D01*
X70419047Y-86611809D02*
X70342857Y-86649904D01*
X70190476Y-86649904D01*
X70114285Y-86611809D01*
X70076190Y-86535619D01*
X70076190Y-86230857D01*
X70114285Y-86154666D01*
X70190476Y-86116571D01*
X70342857Y-86116571D01*
X70419047Y-86154666D01*
X70457142Y-86230857D01*
X70457142Y-86307047D01*
X70076190Y-86383238D01*
X70685714Y-86116571D02*
X70990476Y-86116571D01*
X70800000Y-85849904D02*
X70800000Y-86535619D01*
X70838095Y-86611809D01*
X70914285Y-86649904D01*
X70990476Y-86649904D01*
D11*
X66233333Y-42966666D02*
X67233333Y-42966666D01*
X67433333Y-43033333D01*
X67566666Y-43166666D01*
X67633333Y-43366666D01*
X67633333Y-43500000D01*
X67633333Y-41633333D02*
X67633333Y-42300000D01*
X66233333Y-42300000D01*
X67500000Y-40366666D02*
X67566666Y-40433333D01*
X67633333Y-40633333D01*
X67633333Y-40766666D01*
X67566666Y-40966666D01*
X67433333Y-41100000D01*
X67300000Y-41166666D01*
X67033333Y-41233333D01*
X66833333Y-41233333D01*
X66566666Y-41166666D01*
X66433333Y-41100000D01*
X66300000Y-40966666D01*
X66233333Y-40766666D01*
X66233333Y-40633333D01*
X66300000Y-40433333D01*
X66366666Y-40366666D01*
X66233333Y-39366666D02*
X67233333Y-39366666D01*
X67433333Y-39433333D01*
X67566666Y-39566666D01*
X67633333Y-39766666D01*
X67633333Y-39900000D01*
X67633333Y-38033333D02*
X67633333Y-38700000D01*
X66233333Y-38700000D01*
X67500000Y-36766666D02*
X67566666Y-36833333D01*
X67633333Y-37033333D01*
X67633333Y-37166666D01*
X67566666Y-37366666D01*
X67433333Y-37500000D01*
X67300000Y-37566666D01*
X67033333Y-37633333D01*
X66833333Y-37633333D01*
X66566666Y-37566666D01*
X66433333Y-37500000D01*
X66300000Y-37366666D01*
X66233333Y-37166666D01*
X66233333Y-37033333D01*
X66300000Y-36833333D01*
X66366666Y-36766666D01*
X66233333Y-35766666D02*
X67233333Y-35766666D01*
X67433333Y-35833333D01*
X67566666Y-35966666D01*
X67633333Y-36166666D01*
X67633333Y-36300000D01*
X67633333Y-34433333D02*
X67633333Y-35100000D01*
X66233333Y-35100000D01*
X67500000Y-33166666D02*
X67566666Y-33233333D01*
X67633333Y-33433333D01*
X67633333Y-33566666D01*
X67566666Y-33766666D01*
X67433333Y-33900000D01*
X67300000Y-33966666D01*
X67033333Y-34033333D01*
X66833333Y-34033333D01*
X66566666Y-33966666D01*
X66433333Y-33900000D01*
X66300000Y-33766666D01*
X66233333Y-33566666D01*
X66233333Y-33433333D01*
X66300000Y-33233333D01*
X66366666Y-33166666D01*
X66233333Y-32166666D02*
X67233333Y-32166666D01*
X67433333Y-32233333D01*
X67566666Y-32366666D01*
X67633333Y-32566666D01*
X67633333Y-32700000D01*
X67633333Y-30833333D02*
X67633333Y-31500000D01*
X66233333Y-31500000D01*
X67500000Y-29566666D02*
X67566666Y-29633333D01*
X67633333Y-29833333D01*
X67633333Y-29966666D01*
X67566666Y-30166666D01*
X67433333Y-30300000D01*
X67300000Y-30366666D01*
X67033333Y-30433333D01*
X66833333Y-30433333D01*
X66566666Y-30366666D01*
X66433333Y-30300000D01*
X66300000Y-30166666D01*
X66233333Y-29966666D01*
X66233333Y-29833333D01*
X66300000Y-29633333D01*
X66366666Y-29566666D01*
D10*
X69645333Y-60993000D02*
X69612000Y-61026333D01*
X69512000Y-61059666D01*
X69445333Y-61059666D01*
X69345333Y-61026333D01*
X69278666Y-60959666D01*
X69245333Y-60893000D01*
X69212000Y-60759666D01*
X69212000Y-60659666D01*
X69245333Y-60526333D01*
X69278666Y-60459666D01*
X69345333Y-60393000D01*
X69445333Y-60359666D01*
X69512000Y-60359666D01*
X69612000Y-60393000D01*
X69645333Y-60426333D01*
X70312000Y-61059666D02*
X69912000Y-61059666D01*
X70112000Y-61059666D02*
X70112000Y-60359666D01*
X70045333Y-60459666D01*
X69978666Y-60526333D01*
X69912000Y-60559666D01*
X71423333Y-61059666D02*
X71190000Y-60726333D01*
X71023333Y-61059666D02*
X71023333Y-60359666D01*
X71290000Y-60359666D01*
X71356666Y-60393000D01*
X71390000Y-60426333D01*
X71423333Y-60493000D01*
X71423333Y-60593000D01*
X71390000Y-60659666D01*
X71356666Y-60693000D01*
X71290000Y-60726333D01*
X71023333Y-60726333D01*
X72023333Y-60359666D02*
X71890000Y-60359666D01*
X71823333Y-60393000D01*
X71790000Y-60426333D01*
X71723333Y-60526333D01*
X71690000Y-60659666D01*
X71690000Y-60926333D01*
X71723333Y-60993000D01*
X71756666Y-61026333D01*
X71823333Y-61059666D01*
X71956666Y-61059666D01*
X72023333Y-61026333D01*
X72056666Y-60993000D01*
X72090000Y-60926333D01*
X72090000Y-60759666D01*
X72056666Y-60693000D01*
X72023333Y-60659666D01*
X71956666Y-60626333D01*
X71823333Y-60626333D01*
X71756666Y-60659666D01*
X71723333Y-60693000D01*
X71690000Y-60759666D01*
X61398333Y-57238666D02*
X61165000Y-56905333D01*
X60998333Y-57238666D02*
X60998333Y-56538666D01*
X61265000Y-56538666D01*
X61331666Y-56572000D01*
X61365000Y-56605333D01*
X61398333Y-56672000D01*
X61398333Y-56772000D01*
X61365000Y-56838666D01*
X61331666Y-56872000D01*
X61265000Y-56905333D01*
X60998333Y-56905333D01*
X61998333Y-56772000D02*
X61998333Y-57238666D01*
X61831666Y-56505333D02*
X61665000Y-57005333D01*
X62098333Y-57005333D01*
X66139333Y-61126333D02*
X66072666Y-61093000D01*
X66006000Y-61026333D01*
X65906000Y-60926333D01*
X65839333Y-60893000D01*
X65772666Y-60893000D01*
X65806000Y-61059666D02*
X65739333Y-61026333D01*
X65672666Y-60959666D01*
X65639333Y-60826333D01*
X65639333Y-60593000D01*
X65672666Y-60459666D01*
X65739333Y-60393000D01*
X65806000Y-60359666D01*
X65939333Y-60359666D01*
X66006000Y-60393000D01*
X66072666Y-60459666D01*
X66106000Y-60593000D01*
X66106000Y-60826333D01*
X66072666Y-60959666D01*
X66006000Y-61026333D01*
X65939333Y-61059666D01*
X65806000Y-61059666D01*
X66772666Y-61059666D02*
X66372666Y-61059666D01*
X66572666Y-61059666D02*
X66572666Y-60359666D01*
X66506000Y-60459666D01*
X66439333Y-60526333D01*
X66372666Y-60559666D01*
X61413333Y-54963666D02*
X61180000Y-54630333D01*
X61013333Y-54963666D02*
X61013333Y-54263666D01*
X61280000Y-54263666D01*
X61346666Y-54297000D01*
X61380000Y-54330333D01*
X61413333Y-54397000D01*
X61413333Y-54497000D01*
X61380000Y-54563666D01*
X61346666Y-54597000D01*
X61280000Y-54630333D01*
X61013333Y-54630333D01*
X62080000Y-54963666D02*
X61680000Y-54963666D01*
X61880000Y-54963666D02*
X61880000Y-54263666D01*
X61813333Y-54363666D01*
X61746666Y-54430333D01*
X61680000Y-54463666D01*
X76148666Y-35074666D02*
X75448666Y-35074666D01*
X75448666Y-34608000D02*
X75448666Y-34474666D01*
X75482000Y-34408000D01*
X75548666Y-34341333D01*
X75682000Y-34308000D01*
X75915333Y-34308000D01*
X76048666Y-34341333D01*
X76115333Y-34408000D01*
X76148666Y-34474666D01*
X76148666Y-34608000D01*
X76115333Y-34674666D01*
X76048666Y-34741333D01*
X75915333Y-34774666D01*
X75682000Y-34774666D01*
X75548666Y-34741333D01*
X75482000Y-34674666D01*
X75448666Y-34608000D01*
X76082000Y-37664666D02*
X76115333Y-37698000D01*
X76148666Y-37798000D01*
X76148666Y-37864666D01*
X76115333Y-37964666D01*
X76048666Y-38031333D01*
X75982000Y-38064666D01*
X75848666Y-38098000D01*
X75748666Y-38098000D01*
X75615333Y-38064666D01*
X75548666Y-38031333D01*
X75482000Y-37964666D01*
X75448666Y-37864666D01*
X75448666Y-37798000D01*
X75482000Y-37698000D01*
X75515333Y-37664666D01*
X76148666Y-37031333D02*
X76148666Y-37364666D01*
X75448666Y-37364666D01*
X76148666Y-36798000D02*
X75448666Y-36798000D01*
X76148666Y-36398000D02*
X75748666Y-36698000D01*
X75448666Y-36398000D02*
X75848666Y-36798000D01*
X61390333Y-49375666D02*
X61157000Y-49042333D01*
X60990333Y-49375666D02*
X60990333Y-48675666D01*
X61257000Y-48675666D01*
X61323666Y-48709000D01*
X61357000Y-48742333D01*
X61390333Y-48809000D01*
X61390333Y-48909000D01*
X61357000Y-48975666D01*
X61323666Y-49009000D01*
X61257000Y-49042333D01*
X60990333Y-49042333D01*
X61657000Y-48742333D02*
X61690333Y-48709000D01*
X61757000Y-48675666D01*
X61923666Y-48675666D01*
X61990333Y-48709000D01*
X62023666Y-48742333D01*
X62057000Y-48809000D01*
X62057000Y-48875666D01*
X62023666Y-48975666D01*
X61623666Y-49375666D01*
X62057000Y-49375666D01*
X70407333Y-57310000D02*
X70374000Y-57343333D01*
X70274000Y-57376666D01*
X70207333Y-57376666D01*
X70107333Y-57343333D01*
X70040666Y-57276666D01*
X70007333Y-57210000D01*
X69974000Y-57076666D01*
X69974000Y-56976666D01*
X70007333Y-56843333D01*
X70040666Y-56776666D01*
X70107333Y-56710000D01*
X70207333Y-56676666D01*
X70274000Y-56676666D01*
X70374000Y-56710000D01*
X70407333Y-56743333D01*
X70674000Y-56743333D02*
X70707333Y-56710000D01*
X70774000Y-56676666D01*
X70940666Y-56676666D01*
X71007333Y-56710000D01*
X71040666Y-56743333D01*
X71074000Y-56810000D01*
X71074000Y-56876666D01*
X71040666Y-56976666D01*
X70640666Y-57376666D01*
X71074000Y-57376666D01*
X64368666Y-47899333D02*
X64368666Y-48232666D01*
X64135333Y-47532666D02*
X64368666Y-47899333D01*
X64602000Y-47532666D01*
X65202000Y-48232666D02*
X64802000Y-48232666D01*
X65002000Y-48232666D02*
X65002000Y-47532666D01*
X64935333Y-47632666D01*
X64868666Y-47699333D01*
X64802000Y-47732666D01*
X60990333Y-51788666D02*
X60990333Y-51088666D01*
X61157000Y-51088666D01*
X61257000Y-51122000D01*
X61323666Y-51188666D01*
X61357000Y-51255333D01*
X61390333Y-51388666D01*
X61390333Y-51488666D01*
X61357000Y-51622000D01*
X61323666Y-51688666D01*
X61257000Y-51755333D01*
X61157000Y-51788666D01*
X60990333Y-51788666D01*
X61657000Y-51155333D02*
X61690333Y-51122000D01*
X61757000Y-51088666D01*
X61923666Y-51088666D01*
X61990333Y-51122000D01*
X62023666Y-51155333D01*
X62057000Y-51222000D01*
X62057000Y-51288666D01*
X62023666Y-51388666D01*
X61623666Y-51788666D01*
X62057000Y-51788666D01*
X65581333Y-51722000D02*
X65548000Y-51755333D01*
X65448000Y-51788666D01*
X65381333Y-51788666D01*
X65281333Y-51755333D01*
X65214666Y-51688666D01*
X65181333Y-51622000D01*
X65148000Y-51488666D01*
X65148000Y-51388666D01*
X65181333Y-51255333D01*
X65214666Y-51188666D01*
X65281333Y-51122000D01*
X65381333Y-51088666D01*
X65448000Y-51088666D01*
X65548000Y-51122000D01*
X65581333Y-51155333D01*
X66181333Y-51322000D02*
X66181333Y-51788666D01*
X66014666Y-51055333D02*
X65848000Y-51555333D01*
X66281333Y-51555333D01*
X63803333Y-51722000D02*
X63770000Y-51755333D01*
X63670000Y-51788666D01*
X63603333Y-51788666D01*
X63503333Y-51755333D01*
X63436666Y-51688666D01*
X63403333Y-51622000D01*
X63370000Y-51488666D01*
X63370000Y-51388666D01*
X63403333Y-51255333D01*
X63436666Y-51188666D01*
X63503333Y-51122000D01*
X63603333Y-51088666D01*
X63670000Y-51088666D01*
X63770000Y-51122000D01*
X63803333Y-51155333D01*
X64036666Y-51088666D02*
X64470000Y-51088666D01*
X64236666Y-51355333D01*
X64336666Y-51355333D01*
X64403333Y-51388666D01*
X64436666Y-51422000D01*
X64470000Y-51488666D01*
X64470000Y-51655333D01*
X64436666Y-51722000D01*
X64403333Y-51755333D01*
X64336666Y-51788666D01*
X64136666Y-51788666D01*
X64070000Y-51755333D01*
X64036666Y-51722000D01*
X74471333Y-51788666D02*
X74238000Y-51455333D01*
X74071333Y-51788666D02*
X74071333Y-51088666D01*
X74338000Y-51088666D01*
X74404666Y-51122000D01*
X74438000Y-51155333D01*
X74471333Y-51222000D01*
X74471333Y-51322000D01*
X74438000Y-51388666D01*
X74404666Y-51422000D01*
X74338000Y-51455333D01*
X74071333Y-51455333D01*
X74704666Y-51088666D02*
X75171333Y-51088666D01*
X74871333Y-51788666D01*
X76122333Y-51788666D02*
X75889000Y-51455333D01*
X75722333Y-51788666D02*
X75722333Y-51088666D01*
X75989000Y-51088666D01*
X76055666Y-51122000D01*
X76089000Y-51155333D01*
X76122333Y-51222000D01*
X76122333Y-51322000D01*
X76089000Y-51388666D01*
X76055666Y-51422000D01*
X75989000Y-51455333D01*
X75722333Y-51455333D01*
X76522333Y-51388666D02*
X76455666Y-51355333D01*
X76422333Y-51322000D01*
X76389000Y-51255333D01*
X76389000Y-51222000D01*
X76422333Y-51155333D01*
X76455666Y-51122000D01*
X76522333Y-51088666D01*
X76655666Y-51088666D01*
X76722333Y-51122000D01*
X76755666Y-51155333D01*
X76789000Y-51222000D01*
X76789000Y-51255333D01*
X76755666Y-51322000D01*
X76722333Y-51355333D01*
X76655666Y-51388666D01*
X76522333Y-51388666D01*
X76455666Y-51422000D01*
X76422333Y-51455333D01*
X76389000Y-51522000D01*
X76389000Y-51655333D01*
X76422333Y-51722000D01*
X76455666Y-51755333D01*
X76522333Y-51788666D01*
X76655666Y-51788666D01*
X76722333Y-51755333D01*
X76755666Y-51722000D01*
X76789000Y-51655333D01*
X76789000Y-51522000D01*
X76755666Y-51455333D01*
X76722333Y-51422000D01*
X76655666Y-51388666D01*
X73419666Y-57565666D02*
X73419666Y-58132333D01*
X73453000Y-58199000D01*
X73486333Y-58232333D01*
X73553000Y-58265666D01*
X73686333Y-58265666D01*
X73753000Y-58232333D01*
X73786333Y-58199000D01*
X73819666Y-58132333D01*
X73819666Y-57565666D01*
X74119666Y-57632333D02*
X74153000Y-57599000D01*
X74219666Y-57565666D01*
X74386333Y-57565666D01*
X74453000Y-57599000D01*
X74486333Y-57632333D01*
X74519666Y-57699000D01*
X74519666Y-57765666D01*
X74486333Y-57865666D01*
X74086333Y-58265666D01*
X74519666Y-58265666D01*
X62895333Y-55598666D02*
X62895333Y-54898666D01*
X63062000Y-54898666D01*
X63162000Y-54932000D01*
X63228666Y-54998666D01*
X63262000Y-55065333D01*
X63295333Y-55198666D01*
X63295333Y-55298666D01*
X63262000Y-55432000D01*
X63228666Y-55498666D01*
X63162000Y-55565333D01*
X63062000Y-55598666D01*
X62895333Y-55598666D01*
X63962000Y-55598666D02*
X63562000Y-55598666D01*
X63762000Y-55598666D02*
X63762000Y-54898666D01*
X63695333Y-54998666D01*
X63628666Y-55065333D01*
X63562000Y-55098666D01*
X76038666Y-42711333D02*
X75705333Y-42944666D01*
X76038666Y-43111333D02*
X75338666Y-43111333D01*
X75338666Y-42844666D01*
X75372000Y-42778000D01*
X75405333Y-42744666D01*
X75472000Y-42711333D01*
X75572000Y-42711333D01*
X75638666Y-42744666D01*
X75672000Y-42778000D01*
X75705333Y-42844666D01*
X75705333Y-43111333D01*
X76005333Y-42444666D02*
X76038666Y-42344666D01*
X76038666Y-42178000D01*
X76005333Y-42111333D01*
X75972000Y-42078000D01*
X75905333Y-42044666D01*
X75838666Y-42044666D01*
X75772000Y-42078000D01*
X75738666Y-42111333D01*
X75705333Y-42178000D01*
X75672000Y-42311333D01*
X75638666Y-42378000D01*
X75605333Y-42411333D01*
X75538666Y-42444666D01*
X75472000Y-42444666D01*
X75405333Y-42411333D01*
X75372000Y-42378000D01*
X75338666Y-42311333D01*
X75338666Y-42144666D01*
X75372000Y-42044666D01*
X75338666Y-41844666D02*
X75338666Y-41444666D01*
X76038666Y-41644666D02*
X75338666Y-41644666D01*
D13*
X63031095Y-25864930D02*
X63031095Y-26674454D01*
X63078714Y-26769692D01*
X63126333Y-26817311D01*
X63221571Y-26864930D01*
X63412047Y-26864930D01*
X63507285Y-26817311D01*
X63554904Y-26769692D01*
X63602523Y-26674454D01*
X63602523Y-25864930D01*
X64602523Y-26864930D02*
X64031095Y-26864930D01*
X64316809Y-26864930D02*
X64316809Y-25864930D01*
X64221571Y-26007788D01*
X64126333Y-26103026D01*
X64031095Y-26150645D01*
D10*
X58390000Y-29182666D02*
X58156666Y-28849333D01*
X57990000Y-29182666D02*
X57990000Y-28482666D01*
X58256666Y-28482666D01*
X58323333Y-28516000D01*
X58356666Y-28549333D01*
X58390000Y-28616000D01*
X58390000Y-28716000D01*
X58356666Y-28782666D01*
X58323333Y-28816000D01*
X58256666Y-28849333D01*
X57990000Y-28849333D01*
X59056666Y-29182666D02*
X58656666Y-29182666D01*
X58856666Y-29182666D02*
X58856666Y-28482666D01*
X58790000Y-28582666D01*
X58723333Y-28649333D01*
X58656666Y-28682666D01*
X59490000Y-28482666D02*
X59556666Y-28482666D01*
X59623333Y-28516000D01*
X59656666Y-28549333D01*
X59690000Y-28616000D01*
X59723333Y-28749333D01*
X59723333Y-28916000D01*
X59690000Y-29049333D01*
X59656666Y-29116000D01*
X59623333Y-29149333D01*
X59556666Y-29182666D01*
X59490000Y-29182666D01*
X59423333Y-29149333D01*
X59390000Y-29116000D01*
X59356666Y-29049333D01*
X59323333Y-28916000D01*
X59323333Y-28749333D01*
X59356666Y-28616000D01*
X59390000Y-28549333D01*
X59423333Y-28516000D01*
X59490000Y-28482666D01*
X58011333Y-35218333D02*
X57944666Y-35185000D01*
X57878000Y-35118333D01*
X57778000Y-35018333D01*
X57711333Y-34985000D01*
X57644666Y-34985000D01*
X57678000Y-35151666D02*
X57611333Y-35118333D01*
X57544666Y-35051666D01*
X57511333Y-34918333D01*
X57511333Y-34685000D01*
X57544666Y-34551666D01*
X57611333Y-34485000D01*
X57678000Y-34451666D01*
X57811333Y-34451666D01*
X57878000Y-34485000D01*
X57944666Y-34551666D01*
X57978000Y-34685000D01*
X57978000Y-34918333D01*
X57944666Y-35051666D01*
X57878000Y-35118333D01*
X57811333Y-35151666D01*
X57678000Y-35151666D01*
X58578000Y-34685000D02*
X58578000Y-35151666D01*
X58411333Y-34418333D02*
X58244666Y-34918333D01*
X58678000Y-34918333D01*
X75448666Y-33101333D02*
X76148666Y-32868000D01*
X75448666Y-32634666D01*
X76082000Y-32001333D02*
X76115333Y-32034666D01*
X76148666Y-32134666D01*
X76148666Y-32201333D01*
X76115333Y-32301333D01*
X76048666Y-32368000D01*
X75982000Y-32401333D01*
X75848666Y-32434666D01*
X75748666Y-32434666D01*
X75615333Y-32401333D01*
X75548666Y-32368000D01*
X75482000Y-32301333D01*
X75448666Y-32201333D01*
X75448666Y-32134666D01*
X75482000Y-32034666D01*
X75515333Y-32001333D01*
X76082000Y-31301333D02*
X76115333Y-31334666D01*
X76148666Y-31434666D01*
X76148666Y-31501333D01*
X76115333Y-31601333D01*
X76048666Y-31668000D01*
X75982000Y-31701333D01*
X75848666Y-31734666D01*
X75748666Y-31734666D01*
X75615333Y-31701333D01*
X75548666Y-31668000D01*
X75482000Y-31601333D01*
X75448666Y-31501333D01*
X75448666Y-31434666D01*
X75482000Y-31334666D01*
X75515333Y-31301333D01*
D13*
X67066666Y-53804761D02*
X67209523Y-53852380D01*
X67447619Y-53852380D01*
X67542857Y-53804761D01*
X67590476Y-53757142D01*
X67638095Y-53661904D01*
X67638095Y-53566666D01*
X67590476Y-53471428D01*
X67542857Y-53423809D01*
X67447619Y-53376190D01*
X67257142Y-53328571D01*
X67161904Y-53280952D01*
X67114285Y-53233333D01*
X67066666Y-53138095D01*
X67066666Y-53042857D01*
X67114285Y-52947619D01*
X67161904Y-52900000D01*
X67257142Y-52852380D01*
X67495238Y-52852380D01*
X67638095Y-52900000D01*
X67971428Y-52852380D02*
X68209523Y-53852380D01*
X68400000Y-53138095D01*
X68590476Y-53852380D01*
X68828571Y-52852380D01*
X69733333Y-53852380D02*
X69161904Y-53852380D01*
X69447619Y-53852380D02*
X69447619Y-52852380D01*
X69352380Y-52995238D01*
X69257142Y-53090476D01*
X69161904Y-53138095D01*
X71752380Y-53852380D02*
X71419047Y-53376190D01*
X71180952Y-53852380D02*
X71180952Y-52852380D01*
X71561904Y-52852380D01*
X71657142Y-52900000D01*
X71704761Y-52947619D01*
X71752380Y-53042857D01*
X71752380Y-53185714D01*
X71704761Y-53280952D01*
X71657142Y-53328571D01*
X71561904Y-53376190D01*
X71180952Y-53376190D01*
X72133333Y-53804761D02*
X72276190Y-53852380D01*
X72514285Y-53852380D01*
X72609523Y-53804761D01*
X72657142Y-53757142D01*
X72704761Y-53661904D01*
X72704761Y-53566666D01*
X72657142Y-53471428D01*
X72609523Y-53423809D01*
X72514285Y-53376190D01*
X72323809Y-53328571D01*
X72228571Y-53280952D01*
X72180952Y-53233333D01*
X72133333Y-53138095D01*
X72133333Y-53042857D01*
X72180952Y-52947619D01*
X72228571Y-52900000D01*
X72323809Y-52852380D01*
X72561904Y-52852380D01*
X72704761Y-52900000D01*
X72990476Y-52852380D02*
X73561904Y-52852380D01*
X73276190Y-53852380D02*
X73276190Y-52852380D01*
D10*
X75448666Y-30494666D02*
X75448666Y-30428000D01*
X75482000Y-30361333D01*
X75515333Y-30328000D01*
X75582000Y-30294666D01*
X75715333Y-30261333D01*
X75882000Y-30261333D01*
X76015333Y-30294666D01*
X76082000Y-30328000D01*
X76115333Y-30361333D01*
X76148666Y-30428000D01*
X76148666Y-30494666D01*
X76115333Y-30561333D01*
X76082000Y-30594666D01*
X76015333Y-30628000D01*
X75882000Y-30661333D01*
X75715333Y-30661333D01*
X75582000Y-30628000D01*
X75515333Y-30594666D01*
X75482000Y-30561333D01*
X75448666Y-30494666D01*
X76082000Y-29961333D02*
X76115333Y-29928000D01*
X76148666Y-29961333D01*
X76115333Y-29994666D01*
X76082000Y-29961333D01*
X76148666Y-29961333D01*
X76148666Y-29261333D02*
X76148666Y-29661333D01*
X76148666Y-29461333D02*
X75448666Y-29461333D01*
X75548666Y-29528000D01*
X75615333Y-29594666D01*
X75648666Y-29661333D01*
X75448666Y-28828000D02*
X75448666Y-28761333D01*
X75482000Y-28694666D01*
X75515333Y-28661333D01*
X75582000Y-28628000D01*
X75715333Y-28594666D01*
X75882000Y-28594666D01*
X76015333Y-28628000D01*
X76082000Y-28661333D01*
X76115333Y-28694666D01*
X76148666Y-28761333D01*
X76148666Y-28828000D01*
X76115333Y-28894666D01*
X76082000Y-28928000D01*
X76015333Y-28961333D01*
X75882000Y-28994666D01*
X75715333Y-28994666D01*
X75582000Y-28961333D01*
X75515333Y-28928000D01*
X75482000Y-28894666D01*
X75448666Y-28828000D01*
X75462000Y-40321333D02*
X75428666Y-40388000D01*
X75428666Y-40488000D01*
X75462000Y-40588000D01*
X75528666Y-40654666D01*
X75595333Y-40688000D01*
X75728666Y-40721333D01*
X75828666Y-40721333D01*
X75962000Y-40688000D01*
X76028666Y-40654666D01*
X76095333Y-40588000D01*
X76128666Y-40488000D01*
X76128666Y-40421333D01*
X76095333Y-40321333D01*
X76062000Y-40288000D01*
X75828666Y-40288000D01*
X75828666Y-40421333D01*
X76128666Y-39988000D02*
X75428666Y-39988000D01*
X76128666Y-39588000D01*
X75428666Y-39588000D01*
X76128666Y-39254666D02*
X75428666Y-39254666D01*
X75428666Y-39088000D01*
X75462000Y-38988000D01*
X75528666Y-38921333D01*
X75595333Y-38888000D01*
X75728666Y-38854666D01*
X75828666Y-38854666D01*
X75962000Y-38888000D01*
X76028666Y-38921333D01*
X76095333Y-38988000D01*
X76128666Y-39088000D01*
X76128666Y-39254666D01*
X66516000Y-59328000D02*
X65586000Y-59328000D01*
X63356000Y-59328000D02*
X63356000Y-57868000D01*
X63356000Y-59328000D02*
X64286000Y-59328000D01*
X66516000Y-59328000D02*
X66516000Y-57168000D01*
X78082000Y-34708000D02*
G75*
G03*
X78082000Y-34708000I-700000J0D01*
G01*
X78082000Y-37248000D02*
G75*
G03*
X78082000Y-37248000I-700000J0D01*
G01*
X68684000Y-58838000D02*
G75*
G03*
X68684000Y-58838000I-700000J0D01*
G01*
X62080000Y-59473000D02*
G75*
G03*
X62080000Y-59473000I-700000J0D01*
G01*
X64027000Y-48819000D02*
X65377000Y-48819000D01*
X64027000Y-50569000D02*
X65377000Y-50569000D01*
X60605500Y-53604000D02*
X62890500Y-53604000D01*
X62890500Y-52134000D02*
X60605500Y-52134000D01*
X62890500Y-53604000D02*
X62890500Y-52134000D01*
X75080000Y-54934000D02*
X73080000Y-54934000D01*
X74080000Y-57154000D02*
X73080000Y-57154000D01*
X64992000Y-56536000D02*
X69292000Y-56536000D01*
X69292000Y-56536000D02*
X69292000Y-54536000D01*
X69292000Y-54536000D02*
X64992000Y-54536000D01*
D14*
X68555814Y-77468931D02*
X68639635Y-77913555D01*
X68639635Y-77913555D02*
X68948920Y-78041053D01*
X68948920Y-78041053D02*
X69258206Y-78168551D01*
X69258206Y-78168551D02*
X69629246Y-77916246D01*
X69629246Y-77916246D02*
X69733157Y-77845996D01*
X69733157Y-77845996D02*
X69827087Y-77783272D01*
X69827087Y-77783272D02*
X69906652Y-77730938D01*
X69906652Y-77730938D02*
X69967470Y-77691857D01*
X69967470Y-77691857D02*
X70005157Y-77668893D01*
X70005157Y-77668893D02*
X70015421Y-77663942D01*
X70015421Y-77663942D02*
X70033910Y-77676676D01*
X70033910Y-77676676D02*
X70073420Y-77711882D01*
X70073420Y-77711882D02*
X70129522Y-77765062D01*
X70129522Y-77765062D02*
X70197787Y-77831718D01*
X70197787Y-77831718D02*
X70273786Y-77907354D01*
X70273786Y-77907354D02*
X70353092Y-77987472D01*
X70353092Y-77987472D02*
X70431275Y-78067574D01*
X70431275Y-78067574D02*
X70503907Y-78143164D01*
X70503907Y-78143164D02*
X70566559Y-78209745D01*
X70566559Y-78209745D02*
X70614803Y-78262818D01*
X70614803Y-78262818D02*
X70644210Y-78297887D01*
X70644210Y-78297887D02*
X70651241Y-78309623D01*
X70651241Y-78309623D02*
X70641123Y-78331260D01*
X70641123Y-78331260D02*
X70612759Y-78378662D01*
X70612759Y-78378662D02*
X70569129Y-78447193D01*
X70569129Y-78447193D02*
X70513218Y-78532215D01*
X70513218Y-78532215D02*
X70448006Y-78629093D01*
X70448006Y-78629093D02*
X70410219Y-78684350D01*
X70410219Y-78684350D02*
X70341343Y-78785248D01*
X70341343Y-78785248D02*
X70280140Y-78876299D01*
X70280140Y-78876299D02*
X70229578Y-78952970D01*
X70229578Y-78952970D02*
X70192628Y-79010728D01*
X70192628Y-79010728D02*
X70172258Y-79045043D01*
X70172258Y-79045043D02*
X70169197Y-79052254D01*
X70169197Y-79052254D02*
X70176136Y-79072748D01*
X70176136Y-79072748D02*
X70195051Y-79120513D01*
X70195051Y-79120513D02*
X70223087Y-79188832D01*
X70223087Y-79188832D02*
X70257391Y-79270989D01*
X70257391Y-79270989D02*
X70295109Y-79360270D01*
X70295109Y-79360270D02*
X70333387Y-79449958D01*
X70333387Y-79449958D02*
X70369370Y-79533338D01*
X70369370Y-79533338D02*
X70400206Y-79603694D01*
X70400206Y-79603694D02*
X70423039Y-79654310D01*
X70423039Y-79654310D02*
X70435017Y-79678471D01*
X70435017Y-79678471D02*
X70435724Y-79679422D01*
X70435724Y-79679422D02*
X70454531Y-79684036D01*
X70454531Y-79684036D02*
X70504618Y-79694328D01*
X70504618Y-79694328D02*
X70580793Y-79709287D01*
X70580793Y-79709287D02*
X70677865Y-79727901D01*
X70677865Y-79727901D02*
X70790643Y-79749159D01*
X70790643Y-79749159D02*
X70856442Y-79761418D01*
X70856442Y-79761418D02*
X70976950Y-79784362D01*
X70976950Y-79784362D02*
X71085797Y-79806195D01*
X71085797Y-79806195D02*
X71177476Y-79825722D01*
X71177476Y-79825722D02*
X71246481Y-79841748D01*
X71246481Y-79841748D02*
X71287304Y-79853079D01*
X71287304Y-79853079D02*
X71295511Y-79856674D01*
X71295511Y-79856674D02*
X71303548Y-79881006D01*
X71303548Y-79881006D02*
X71310033Y-79935959D01*
X71310033Y-79935959D02*
X71314970Y-80015108D01*
X71314970Y-80015108D02*
X71318364Y-80112026D01*
X71318364Y-80112026D02*
X71320218Y-80220287D01*
X71320218Y-80220287D02*
X71320538Y-80333465D01*
X71320538Y-80333465D02*
X71319327Y-80445135D01*
X71319327Y-80445135D02*
X71316590Y-80548868D01*
X71316590Y-80548868D02*
X71312331Y-80638241D01*
X71312331Y-80638241D02*
X71306555Y-80706826D01*
X71306555Y-80706826D02*
X71299267Y-80748197D01*
X71299267Y-80748197D02*
X71294895Y-80756810D01*
X71294895Y-80756810D02*
X71268764Y-80767133D01*
X71268764Y-80767133D02*
X71213393Y-80781892D01*
X71213393Y-80781892D02*
X71136107Y-80799352D01*
X71136107Y-80799352D02*
X71044230Y-80817780D01*
X71044230Y-80817780D02*
X71012158Y-80823741D01*
X71012158Y-80823741D02*
X70857524Y-80852066D01*
X70857524Y-80852066D02*
X70735375Y-80874876D01*
X70735375Y-80874876D02*
X70641673Y-80893080D01*
X70641673Y-80893080D02*
X70572384Y-80907583D01*
X70572384Y-80907583D02*
X70523471Y-80919292D01*
X70523471Y-80919292D02*
X70490897Y-80929115D01*
X70490897Y-80929115D02*
X70470628Y-80937956D01*
X70470628Y-80937956D02*
X70458626Y-80946724D01*
X70458626Y-80946724D02*
X70456947Y-80948457D01*
X70456947Y-80948457D02*
X70440184Y-80976371D01*
X70440184Y-80976371D02*
X70414614Y-81030695D01*
X70414614Y-81030695D02*
X70382788Y-81104777D01*
X70382788Y-81104777D02*
X70347260Y-81191965D01*
X70347260Y-81191965D02*
X70310583Y-81285608D01*
X70310583Y-81285608D02*
X70275311Y-81379052D01*
X70275311Y-81379052D02*
X70243996Y-81465647D01*
X70243996Y-81465647D02*
X70219193Y-81538740D01*
X70219193Y-81538740D02*
X70203454Y-81591678D01*
X70203454Y-81591678D02*
X70199332Y-81617811D01*
X70199332Y-81617811D02*
X70199676Y-81618726D01*
X70199676Y-81618726D02*
X70213641Y-81640086D01*
X70213641Y-81640086D02*
X70245322Y-81687084D01*
X70245322Y-81687084D02*
X70291391Y-81754827D01*
X70291391Y-81754827D02*
X70348518Y-81838423D01*
X70348518Y-81838423D02*
X70413373Y-81932982D01*
X70413373Y-81932982D02*
X70431843Y-81959854D01*
X70431843Y-81959854D02*
X70497699Y-82057275D01*
X70497699Y-82057275D02*
X70555650Y-82146163D01*
X70555650Y-82146163D02*
X70602538Y-82221412D01*
X70602538Y-82221412D02*
X70635207Y-82277920D01*
X70635207Y-82277920D02*
X70650500Y-82310581D01*
X70650500Y-82310581D02*
X70651241Y-82314593D01*
X70651241Y-82314593D02*
X70638392Y-82335684D01*
X70638392Y-82335684D02*
X70602888Y-82377464D01*
X70602888Y-82377464D02*
X70549293Y-82435445D01*
X70549293Y-82435445D02*
X70482171Y-82505135D01*
X70482171Y-82505135D02*
X70406087Y-82582045D01*
X70406087Y-82582045D02*
X70325604Y-82661683D01*
X70325604Y-82661683D02*
X70245287Y-82739561D01*
X70245287Y-82739561D02*
X70169699Y-82811186D01*
X70169699Y-82811186D02*
X70103405Y-82872070D01*
X70103405Y-82872070D02*
X70050969Y-82917721D01*
X70050969Y-82917721D02*
X70016955Y-82943650D01*
X70016955Y-82943650D02*
X70007545Y-82947883D01*
X70007545Y-82947883D02*
X69985643Y-82937912D01*
X69985643Y-82937912D02*
X69940800Y-82911020D01*
X69940800Y-82911020D02*
X69880321Y-82871736D01*
X69880321Y-82871736D02*
X69833789Y-82840117D01*
X69833789Y-82840117D02*
X69749475Y-82782098D01*
X69749475Y-82782098D02*
X69649626Y-82713784D01*
X69649626Y-82713784D02*
X69549473Y-82645579D01*
X69549473Y-82645579D02*
X69495627Y-82609075D01*
X69495627Y-82609075D02*
X69313371Y-82485800D01*
X69313371Y-82485800D02*
X69160381Y-82568520D01*
X69160381Y-82568520D02*
X69090682Y-82604759D01*
X69090682Y-82604759D02*
X69031414Y-82632926D01*
X69031414Y-82632926D02*
X68991311Y-82648991D01*
X68991311Y-82648991D02*
X68981103Y-82651226D01*
X68981103Y-82651226D02*
X68968829Y-82634722D01*
X68968829Y-82634722D02*
X68944613Y-82588082D01*
X68944613Y-82588082D02*
X68910263Y-82515609D01*
X68910263Y-82515609D02*
X68867588Y-82421606D01*
X68867588Y-82421606D02*
X68818394Y-82310374D01*
X68818394Y-82310374D02*
X68764490Y-82186215D01*
X68764490Y-82186215D02*
X68707684Y-82053432D01*
X68707684Y-82053432D02*
X68649782Y-81916327D01*
X68649782Y-81916327D02*
X68592593Y-81779202D01*
X68592593Y-81779202D02*
X68537924Y-81646358D01*
X68537924Y-81646358D02*
X68487584Y-81522098D01*
X68487584Y-81522098D02*
X68443380Y-81410725D01*
X68443380Y-81410725D02*
X68407119Y-81316539D01*
X68407119Y-81316539D02*
X68380609Y-81243844D01*
X68380609Y-81243844D02*
X68365658Y-81196941D01*
X68365658Y-81196941D02*
X68363254Y-81180833D01*
X68363254Y-81180833D02*
X68382311Y-81160286D01*
X68382311Y-81160286D02*
X68424036Y-81126933D01*
X68424036Y-81126933D02*
X68479706Y-81087702D01*
X68479706Y-81087702D02*
X68484378Y-81084599D01*
X68484378Y-81084599D02*
X68628264Y-80969423D01*
X68628264Y-80969423D02*
X68744283Y-80835053D01*
X68744283Y-80835053D02*
X68831430Y-80685784D01*
X68831430Y-80685784D02*
X68888699Y-80525913D01*
X68888699Y-80525913D02*
X68915086Y-80359737D01*
X68915086Y-80359737D02*
X68909585Y-80191552D01*
X68909585Y-80191552D02*
X68871190Y-80025655D01*
X68871190Y-80025655D02*
X68798895Y-79866342D01*
X68798895Y-79866342D02*
X68777626Y-79831487D01*
X68777626Y-79831487D02*
X68666996Y-79690737D01*
X68666996Y-79690737D02*
X68536302Y-79577714D01*
X68536302Y-79577714D02*
X68390064Y-79493003D01*
X68390064Y-79493003D02*
X68232808Y-79437194D01*
X68232808Y-79437194D02*
X68069057Y-79410874D01*
X68069057Y-79410874D02*
X67903333Y-79414630D01*
X67903333Y-79414630D02*
X67740162Y-79449050D01*
X67740162Y-79449050D02*
X67584065Y-79514723D01*
X67584065Y-79514723D02*
X67439567Y-79612235D01*
X67439567Y-79612235D02*
X67394869Y-79651813D01*
X67394869Y-79651813D02*
X67281112Y-79775703D01*
X67281112Y-79775703D02*
X67198218Y-79906124D01*
X67198218Y-79906124D02*
X67141356Y-80052315D01*
X67141356Y-80052315D02*
X67109687Y-80197088D01*
X67109687Y-80197088D02*
X67101869Y-80359860D01*
X67101869Y-80359860D02*
X67127938Y-80523440D01*
X67127938Y-80523440D02*
X67185245Y-80682298D01*
X67185245Y-80682298D02*
X67271144Y-80830906D01*
X67271144Y-80830906D02*
X67382986Y-80963735D01*
X67382986Y-80963735D02*
X67518123Y-81075256D01*
X67518123Y-81075256D02*
X67535883Y-81087011D01*
X67535883Y-81087011D02*
X67592150Y-81125508D01*
X67592150Y-81125508D02*
X67634923Y-81158863D01*
X67634923Y-81158863D02*
X67655372Y-81180160D01*
X67655372Y-81180160D02*
X67655669Y-81180833D01*
X67655669Y-81180833D02*
X67651279Y-81203871D01*
X67651279Y-81203871D02*
X67633876Y-81256157D01*
X67633876Y-81256157D02*
X67605268Y-81333390D01*
X67605268Y-81333390D02*
X67567265Y-81431268D01*
X67567265Y-81431268D02*
X67521674Y-81545491D01*
X67521674Y-81545491D02*
X67470303Y-81671758D01*
X67470303Y-81671758D02*
X67414962Y-81805767D01*
X67414962Y-81805767D02*
X67357458Y-81943218D01*
X67357458Y-81943218D02*
X67299601Y-82079808D01*
X67299601Y-82079808D02*
X67243198Y-82211237D01*
X67243198Y-82211237D02*
X67190058Y-82333205D01*
X67190058Y-82333205D02*
X67141990Y-82441409D01*
X67141990Y-82441409D02*
X67100801Y-82531549D01*
X67100801Y-82531549D02*
X67068301Y-82599323D01*
X67068301Y-82599323D02*
X67046297Y-82640430D01*
X67046297Y-82640430D02*
X67037436Y-82651226D01*
X67037436Y-82651226D02*
X67010360Y-82642819D01*
X67010360Y-82642819D02*
X66959697Y-82620272D01*
X66959697Y-82620272D02*
X66894183Y-82587613D01*
X66894183Y-82587613D02*
X66858159Y-82568520D01*
X66858159Y-82568520D02*
X66705168Y-82485800D01*
X66705168Y-82485800D02*
X66522912Y-82609075D01*
X66522912Y-82609075D02*
X66429875Y-82672228D01*
X66429875Y-82672228D02*
X66328015Y-82741727D01*
X66328015Y-82741727D02*
X66232562Y-82807165D01*
X66232562Y-82807165D02*
X66184750Y-82840117D01*
X66184750Y-82840117D02*
X66117505Y-82885273D01*
X66117505Y-82885273D02*
X66060564Y-82921057D01*
X66060564Y-82921057D02*
X66021354Y-82942938D01*
X66021354Y-82942938D02*
X66008619Y-82947563D01*
X66008619Y-82947563D02*
X65990083Y-82935085D01*
X65990083Y-82935085D02*
X65949059Y-82900252D01*
X65949059Y-82900252D02*
X65889525Y-82846678D01*
X65889525Y-82846678D02*
X65815458Y-82777983D01*
X65815458Y-82777983D02*
X65730835Y-82697781D01*
X65730835Y-82697781D02*
X65677315Y-82646286D01*
X65677315Y-82646286D02*
X65583681Y-82554286D01*
X65583681Y-82554286D02*
X65502759Y-82471999D01*
X65502759Y-82471999D02*
X65437823Y-82402945D01*
X65437823Y-82402945D02*
X65392142Y-82350644D01*
X65392142Y-82350644D02*
X65368989Y-82318616D01*
X65368989Y-82318616D02*
X65366768Y-82312116D01*
X65366768Y-82312116D02*
X65377076Y-82287394D01*
X65377076Y-82287394D02*
X65405561Y-82237405D01*
X65405561Y-82237405D02*
X65449063Y-82167212D01*
X65449063Y-82167212D02*
X65504423Y-82081875D01*
X65504423Y-82081875D02*
X65568480Y-81986456D01*
X65568480Y-81986456D02*
X65586697Y-81959854D01*
X65586697Y-81959854D02*
X65653073Y-81863167D01*
X65653073Y-81863167D02*
X65712622Y-81776117D01*
X65712622Y-81776117D02*
X65762016Y-81703595D01*
X65762016Y-81703595D02*
X65797925Y-81650493D01*
X65797925Y-81650493D02*
X65817019Y-81621703D01*
X65817019Y-81621703D02*
X65818864Y-81618726D01*
X65818864Y-81618726D02*
X65816105Y-81595782D01*
X65816105Y-81595782D02*
X65801462Y-81545336D01*
X65801462Y-81545336D02*
X65777487Y-81474041D01*
X65777487Y-81474041D02*
X65746734Y-81388547D01*
X65746734Y-81388547D02*
X65711756Y-81295507D01*
X65711756Y-81295507D02*
X65675107Y-81201574D01*
X65675107Y-81201574D02*
X65639339Y-81113399D01*
X65639339Y-81113399D02*
X65607006Y-81037634D01*
X65607006Y-81037634D02*
X65580662Y-80980931D01*
X65580662Y-80980931D02*
X65562858Y-80949943D01*
X65562858Y-80949943D02*
X65561593Y-80948457D01*
X65561593Y-80948457D02*
X65550706Y-80939601D01*
X65550706Y-80939601D02*
X65532318Y-80930843D01*
X65532318Y-80930843D02*
X65502394Y-80921277D01*
X65502394Y-80921277D02*
X65456897Y-80909996D01*
X65456897Y-80909996D02*
X65391791Y-80896093D01*
X65391791Y-80896093D02*
X65303039Y-80878663D01*
X65303039Y-80878663D02*
X65186607Y-80856798D01*
X65186607Y-80856798D02*
X65038458Y-80829591D01*
X65038458Y-80829591D02*
X65006382Y-80823741D01*
X65006382Y-80823741D02*
X64911314Y-80805374D01*
X64911314Y-80805374D02*
X64828435Y-80787405D01*
X64828435Y-80787405D02*
X64765070Y-80771569D01*
X64765070Y-80771569D02*
X64728542Y-80759600D01*
X64728542Y-80759600D02*
X64723644Y-80756810D01*
X64723644Y-80756810D02*
X64715573Y-80732072D01*
X64715573Y-80732072D02*
X64709013Y-80676790D01*
X64709013Y-80676790D02*
X64703967Y-80597389D01*
X64703967Y-80597389D02*
X64700441Y-80500296D01*
X64700441Y-80500296D02*
X64698439Y-80391938D01*
X64698439Y-80391938D02*
X64697964Y-80278740D01*
X64697964Y-80278740D02*
X64699023Y-80167128D01*
X64699023Y-80167128D02*
X64701618Y-80063529D01*
X64701618Y-80063529D02*
X64705754Y-79974368D01*
X64705754Y-79974368D02*
X64711437Y-79906072D01*
X64711437Y-79906072D02*
X64718669Y-79865066D01*
X64718669Y-79865066D02*
X64723029Y-79856674D01*
X64723029Y-79856674D02*
X64747302Y-79848208D01*
X64747302Y-79848208D02*
X64802574Y-79834435D01*
X64802574Y-79834435D02*
X64883338Y-79816550D01*
X64883338Y-79816550D02*
X64984088Y-79795748D01*
X64984088Y-79795748D02*
X65099317Y-79773223D01*
X65099317Y-79773223D02*
X65162098Y-79761418D01*
X65162098Y-79761418D02*
X65281213Y-79739151D01*
X65281213Y-79739151D02*
X65387435Y-79718979D01*
X65387435Y-79718979D02*
X65475573Y-79701915D01*
X65475573Y-79701915D02*
X65540434Y-79688969D01*
X65540434Y-79688969D02*
X65576826Y-79681155D01*
X65576826Y-79681155D02*
X65582816Y-79679422D01*
X65582816Y-79679422D02*
X65592939Y-79659890D01*
X65592939Y-79659890D02*
X65614338Y-79612843D01*
X65614338Y-79612843D02*
X65644161Y-79545003D01*
X65644161Y-79545003D02*
X65679555Y-79463091D01*
X65679555Y-79463091D02*
X65717668Y-79373828D01*
X65717668Y-79373828D02*
X65755647Y-79283935D01*
X65755647Y-79283935D02*
X65790640Y-79200135D01*
X65790640Y-79200135D02*
X65819794Y-79129147D01*
X65819794Y-79129147D02*
X65840257Y-79077694D01*
X65840257Y-79077694D02*
X65849177Y-79052497D01*
X65849177Y-79052497D02*
X65849343Y-79051396D01*
X65849343Y-79051396D02*
X65839231Y-79031519D01*
X65839231Y-79031519D02*
X65810883Y-78985777D01*
X65810883Y-78985777D02*
X65767277Y-78918717D01*
X65767277Y-78918717D02*
X65711394Y-78834884D01*
X65711394Y-78834884D02*
X65646213Y-78738826D01*
X65646213Y-78738826D02*
X65608321Y-78683650D01*
X65608321Y-78683650D02*
X65539275Y-78582481D01*
X65539275Y-78582481D02*
X65477950Y-78490630D01*
X65477950Y-78490630D02*
X65427337Y-78412744D01*
X65427337Y-78412744D02*
X65390429Y-78353469D01*
X65390429Y-78353469D02*
X65370218Y-78317451D01*
X65370218Y-78317451D02*
X65367299Y-78309377D01*
X65367299Y-78309377D02*
X65379847Y-78290584D01*
X65379847Y-78290584D02*
X65414537Y-78250457D01*
X65414537Y-78250457D02*
X65466937Y-78193493D01*
X65466937Y-78193493D02*
X65532616Y-78124185D01*
X65532616Y-78124185D02*
X65607144Y-78047031D01*
X65607144Y-78047031D02*
X65686087Y-77966525D01*
X65686087Y-77966525D02*
X65765017Y-77887163D01*
X65765017Y-77887163D02*
X65839500Y-77813440D01*
X65839500Y-77813440D02*
X65905106Y-77749852D01*
X65905106Y-77749852D02*
X65957404Y-77700894D01*
X65957404Y-77700894D02*
X65991961Y-77671061D01*
X65991961Y-77671061D02*
X66003522Y-77663942D01*
X66003522Y-77663942D02*
X66022346Y-77673953D01*
X66022346Y-77673953D02*
X66067369Y-77702078D01*
X66067369Y-77702078D02*
X66134213Y-77745454D01*
X66134213Y-77745454D02*
X66218501Y-77801218D01*
X66218501Y-77801218D02*
X66315856Y-77866506D01*
X66315856Y-77866506D02*
X66389293Y-77916246D01*
X66389293Y-77916246D02*
X66760333Y-78168551D01*
X66760333Y-78168551D02*
X67378905Y-77913555D01*
X67378905Y-77913555D02*
X67462725Y-77468931D01*
X67462725Y-77468931D02*
X67546546Y-77024307D01*
X67546546Y-77024307D02*
X68471994Y-77024307D01*
X68471994Y-77024307D02*
X68555814Y-77468931D01*
X68555814Y-77468931D02*
X68555814Y-77468931D01*
G36*
X68555814Y-77468931D02*
G01*
X68639635Y-77913555D01*
X68948920Y-78041053D01*
X69258206Y-78168551D01*
X69629246Y-77916246D01*
X69733157Y-77845996D01*
X69827087Y-77783272D01*
X69906652Y-77730938D01*
X69967470Y-77691857D01*
X70005157Y-77668893D01*
X70015421Y-77663942D01*
X70033910Y-77676676D01*
X70073420Y-77711882D01*
X70129522Y-77765062D01*
X70197787Y-77831718D01*
X70273786Y-77907354D01*
X70353092Y-77987472D01*
X70431275Y-78067574D01*
X70503907Y-78143164D01*
X70566559Y-78209745D01*
X70614803Y-78262818D01*
X70644210Y-78297887D01*
X70651241Y-78309623D01*
X70641123Y-78331260D01*
X70612759Y-78378662D01*
X70569129Y-78447193D01*
X70513218Y-78532215D01*
X70448006Y-78629093D01*
X70410219Y-78684350D01*
X70341343Y-78785248D01*
X70280140Y-78876299D01*
X70229578Y-78952970D01*
X70192628Y-79010728D01*
X70172258Y-79045043D01*
X70169197Y-79052254D01*
X70176136Y-79072748D01*
X70195051Y-79120513D01*
X70223087Y-79188832D01*
X70257391Y-79270989D01*
X70295109Y-79360270D01*
X70333387Y-79449958D01*
X70369370Y-79533338D01*
X70400206Y-79603694D01*
X70423039Y-79654310D01*
X70435017Y-79678471D01*
X70435724Y-79679422D01*
X70454531Y-79684036D01*
X70504618Y-79694328D01*
X70580793Y-79709287D01*
X70677865Y-79727901D01*
X70790643Y-79749159D01*
X70856442Y-79761418D01*
X70976950Y-79784362D01*
X71085797Y-79806195D01*
X71177476Y-79825722D01*
X71246481Y-79841748D01*
X71287304Y-79853079D01*
X71295511Y-79856674D01*
X71303548Y-79881006D01*
X71310033Y-79935959D01*
X71314970Y-80015108D01*
X71318364Y-80112026D01*
X71320218Y-80220287D01*
X71320538Y-80333465D01*
X71319327Y-80445135D01*
X71316590Y-80548868D01*
X71312331Y-80638241D01*
X71306555Y-80706826D01*
X71299267Y-80748197D01*
X71294895Y-80756810D01*
X71268764Y-80767133D01*
X71213393Y-80781892D01*
X71136107Y-80799352D01*
X71044230Y-80817780D01*
X71012158Y-80823741D01*
X70857524Y-80852066D01*
X70735375Y-80874876D01*
X70641673Y-80893080D01*
X70572384Y-80907583D01*
X70523471Y-80919292D01*
X70490897Y-80929115D01*
X70470628Y-80937956D01*
X70458626Y-80946724D01*
X70456947Y-80948457D01*
X70440184Y-80976371D01*
X70414614Y-81030695D01*
X70382788Y-81104777D01*
X70347260Y-81191965D01*
X70310583Y-81285608D01*
X70275311Y-81379052D01*
X70243996Y-81465647D01*
X70219193Y-81538740D01*
X70203454Y-81591678D01*
X70199332Y-81617811D01*
X70199676Y-81618726D01*
X70213641Y-81640086D01*
X70245322Y-81687084D01*
X70291391Y-81754827D01*
X70348518Y-81838423D01*
X70413373Y-81932982D01*
X70431843Y-81959854D01*
X70497699Y-82057275D01*
X70555650Y-82146163D01*
X70602538Y-82221412D01*
X70635207Y-82277920D01*
X70650500Y-82310581D01*
X70651241Y-82314593D01*
X70638392Y-82335684D01*
X70602888Y-82377464D01*
X70549293Y-82435445D01*
X70482171Y-82505135D01*
X70406087Y-82582045D01*
X70325604Y-82661683D01*
X70245287Y-82739561D01*
X70169699Y-82811186D01*
X70103405Y-82872070D01*
X70050969Y-82917721D01*
X70016955Y-82943650D01*
X70007545Y-82947883D01*
X69985643Y-82937912D01*
X69940800Y-82911020D01*
X69880321Y-82871736D01*
X69833789Y-82840117D01*
X69749475Y-82782098D01*
X69649626Y-82713784D01*
X69549473Y-82645579D01*
X69495627Y-82609075D01*
X69313371Y-82485800D01*
X69160381Y-82568520D01*
X69090682Y-82604759D01*
X69031414Y-82632926D01*
X68991311Y-82648991D01*
X68981103Y-82651226D01*
X68968829Y-82634722D01*
X68944613Y-82588082D01*
X68910263Y-82515609D01*
X68867588Y-82421606D01*
X68818394Y-82310374D01*
X68764490Y-82186215D01*
X68707684Y-82053432D01*
X68649782Y-81916327D01*
X68592593Y-81779202D01*
X68537924Y-81646358D01*
X68487584Y-81522098D01*
X68443380Y-81410725D01*
X68407119Y-81316539D01*
X68380609Y-81243844D01*
X68365658Y-81196941D01*
X68363254Y-81180833D01*
X68382311Y-81160286D01*
X68424036Y-81126933D01*
X68479706Y-81087702D01*
X68484378Y-81084599D01*
X68628264Y-80969423D01*
X68744283Y-80835053D01*
X68831430Y-80685784D01*
X68888699Y-80525913D01*
X68915086Y-80359737D01*
X68909585Y-80191552D01*
X68871190Y-80025655D01*
X68798895Y-79866342D01*
X68777626Y-79831487D01*
X68666996Y-79690737D01*
X68536302Y-79577714D01*
X68390064Y-79493003D01*
X68232808Y-79437194D01*
X68069057Y-79410874D01*
X67903333Y-79414630D01*
X67740162Y-79449050D01*
X67584065Y-79514723D01*
X67439567Y-79612235D01*
X67394869Y-79651813D01*
X67281112Y-79775703D01*
X67198218Y-79906124D01*
X67141356Y-80052315D01*
X67109687Y-80197088D01*
X67101869Y-80359860D01*
X67127938Y-80523440D01*
X67185245Y-80682298D01*
X67271144Y-80830906D01*
X67382986Y-80963735D01*
X67518123Y-81075256D01*
X67535883Y-81087011D01*
X67592150Y-81125508D01*
X67634923Y-81158863D01*
X67655372Y-81180160D01*
X67655669Y-81180833D01*
X67651279Y-81203871D01*
X67633876Y-81256157D01*
X67605268Y-81333390D01*
X67567265Y-81431268D01*
X67521674Y-81545491D01*
X67470303Y-81671758D01*
X67414962Y-81805767D01*
X67357458Y-81943218D01*
X67299601Y-82079808D01*
X67243198Y-82211237D01*
X67190058Y-82333205D01*
X67141990Y-82441409D01*
X67100801Y-82531549D01*
X67068301Y-82599323D01*
X67046297Y-82640430D01*
X67037436Y-82651226D01*
X67010360Y-82642819D01*
X66959697Y-82620272D01*
X66894183Y-82587613D01*
X66858159Y-82568520D01*
X66705168Y-82485800D01*
X66522912Y-82609075D01*
X66429875Y-82672228D01*
X66328015Y-82741727D01*
X66232562Y-82807165D01*
X66184750Y-82840117D01*
X66117505Y-82885273D01*
X66060564Y-82921057D01*
X66021354Y-82942938D01*
X66008619Y-82947563D01*
X65990083Y-82935085D01*
X65949059Y-82900252D01*
X65889525Y-82846678D01*
X65815458Y-82777983D01*
X65730835Y-82697781D01*
X65677315Y-82646286D01*
X65583681Y-82554286D01*
X65502759Y-82471999D01*
X65437823Y-82402945D01*
X65392142Y-82350644D01*
X65368989Y-82318616D01*
X65366768Y-82312116D01*
X65377076Y-82287394D01*
X65405561Y-82237405D01*
X65449063Y-82167212D01*
X65504423Y-82081875D01*
X65568480Y-81986456D01*
X65586697Y-81959854D01*
X65653073Y-81863167D01*
X65712622Y-81776117D01*
X65762016Y-81703595D01*
X65797925Y-81650493D01*
X65817019Y-81621703D01*
X65818864Y-81618726D01*
X65816105Y-81595782D01*
X65801462Y-81545336D01*
X65777487Y-81474041D01*
X65746734Y-81388547D01*
X65711756Y-81295507D01*
X65675107Y-81201574D01*
X65639339Y-81113399D01*
X65607006Y-81037634D01*
X65580662Y-80980931D01*
X65562858Y-80949943D01*
X65561593Y-80948457D01*
X65550706Y-80939601D01*
X65532318Y-80930843D01*
X65502394Y-80921277D01*
X65456897Y-80909996D01*
X65391791Y-80896093D01*
X65303039Y-80878663D01*
X65186607Y-80856798D01*
X65038458Y-80829591D01*
X65006382Y-80823741D01*
X64911314Y-80805374D01*
X64828435Y-80787405D01*
X64765070Y-80771569D01*
X64728542Y-80759600D01*
X64723644Y-80756810D01*
X64715573Y-80732072D01*
X64709013Y-80676790D01*
X64703967Y-80597389D01*
X64700441Y-80500296D01*
X64698439Y-80391938D01*
X64697964Y-80278740D01*
X64699023Y-80167128D01*
X64701618Y-80063529D01*
X64705754Y-79974368D01*
X64711437Y-79906072D01*
X64718669Y-79865066D01*
X64723029Y-79856674D01*
X64747302Y-79848208D01*
X64802574Y-79834435D01*
X64883338Y-79816550D01*
X64984088Y-79795748D01*
X65099317Y-79773223D01*
X65162098Y-79761418D01*
X65281213Y-79739151D01*
X65387435Y-79718979D01*
X65475573Y-79701915D01*
X65540434Y-79688969D01*
X65576826Y-79681155D01*
X65582816Y-79679422D01*
X65592939Y-79659890D01*
X65614338Y-79612843D01*
X65644161Y-79545003D01*
X65679555Y-79463091D01*
X65717668Y-79373828D01*
X65755647Y-79283935D01*
X65790640Y-79200135D01*
X65819794Y-79129147D01*
X65840257Y-79077694D01*
X65849177Y-79052497D01*
X65849343Y-79051396D01*
X65839231Y-79031519D01*
X65810883Y-78985777D01*
X65767277Y-78918717D01*
X65711394Y-78834884D01*
X65646213Y-78738826D01*
X65608321Y-78683650D01*
X65539275Y-78582481D01*
X65477950Y-78490630D01*
X65427337Y-78412744D01*
X65390429Y-78353469D01*
X65370218Y-78317451D01*
X65367299Y-78309377D01*
X65379847Y-78290584D01*
X65414537Y-78250457D01*
X65466937Y-78193493D01*
X65532616Y-78124185D01*
X65607144Y-78047031D01*
X65686087Y-77966525D01*
X65765017Y-77887163D01*
X65839500Y-77813440D01*
X65905106Y-77749852D01*
X65957404Y-77700894D01*
X65991961Y-77671061D01*
X66003522Y-77663942D01*
X66022346Y-77673953D01*
X66067369Y-77702078D01*
X66134213Y-77745454D01*
X66218501Y-77801218D01*
X66315856Y-77866506D01*
X66389293Y-77916246D01*
X66760333Y-78168551D01*
X67378905Y-77913555D01*
X67462725Y-77468931D01*
X67546546Y-77024307D01*
X68471994Y-77024307D01*
X68555814Y-77468931D01*
G37*
X68555814Y-77468931D02*
X68639635Y-77913555D01*
X68948920Y-78041053D01*
X69258206Y-78168551D01*
X69629246Y-77916246D01*
X69733157Y-77845996D01*
X69827087Y-77783272D01*
X69906652Y-77730938D01*
X69967470Y-77691857D01*
X70005157Y-77668893D01*
X70015421Y-77663942D01*
X70033910Y-77676676D01*
X70073420Y-77711882D01*
X70129522Y-77765062D01*
X70197787Y-77831718D01*
X70273786Y-77907354D01*
X70353092Y-77987472D01*
X70431275Y-78067574D01*
X70503907Y-78143164D01*
X70566559Y-78209745D01*
X70614803Y-78262818D01*
X70644210Y-78297887D01*
X70651241Y-78309623D01*
X70641123Y-78331260D01*
X70612759Y-78378662D01*
X70569129Y-78447193D01*
X70513218Y-78532215D01*
X70448006Y-78629093D01*
X70410219Y-78684350D01*
X70341343Y-78785248D01*
X70280140Y-78876299D01*
X70229578Y-78952970D01*
X70192628Y-79010728D01*
X70172258Y-79045043D01*
X70169197Y-79052254D01*
X70176136Y-79072748D01*
X70195051Y-79120513D01*
X70223087Y-79188832D01*
X70257391Y-79270989D01*
X70295109Y-79360270D01*
X70333387Y-79449958D01*
X70369370Y-79533338D01*
X70400206Y-79603694D01*
X70423039Y-79654310D01*
X70435017Y-79678471D01*
X70435724Y-79679422D01*
X70454531Y-79684036D01*
X70504618Y-79694328D01*
X70580793Y-79709287D01*
X70677865Y-79727901D01*
X70790643Y-79749159D01*
X70856442Y-79761418D01*
X70976950Y-79784362D01*
X71085797Y-79806195D01*
X71177476Y-79825722D01*
X71246481Y-79841748D01*
X71287304Y-79853079D01*
X71295511Y-79856674D01*
X71303548Y-79881006D01*
X71310033Y-79935959D01*
X71314970Y-80015108D01*
X71318364Y-80112026D01*
X71320218Y-80220287D01*
X71320538Y-80333465D01*
X71319327Y-80445135D01*
X71316590Y-80548868D01*
X71312331Y-80638241D01*
X71306555Y-80706826D01*
X71299267Y-80748197D01*
X71294895Y-80756810D01*
X71268764Y-80767133D01*
X71213393Y-80781892D01*
X71136107Y-80799352D01*
X71044230Y-80817780D01*
X71012158Y-80823741D01*
X70857524Y-80852066D01*
X70735375Y-80874876D01*
X70641673Y-80893080D01*
X70572384Y-80907583D01*
X70523471Y-80919292D01*
X70490897Y-80929115D01*
X70470628Y-80937956D01*
X70458626Y-80946724D01*
X70456947Y-80948457D01*
X70440184Y-80976371D01*
X70414614Y-81030695D01*
X70382788Y-81104777D01*
X70347260Y-81191965D01*
X70310583Y-81285608D01*
X70275311Y-81379052D01*
X70243996Y-81465647D01*
X70219193Y-81538740D01*
X70203454Y-81591678D01*
X70199332Y-81617811D01*
X70199676Y-81618726D01*
X70213641Y-81640086D01*
X70245322Y-81687084D01*
X70291391Y-81754827D01*
X70348518Y-81838423D01*
X70413373Y-81932982D01*
X70431843Y-81959854D01*
X70497699Y-82057275D01*
X70555650Y-82146163D01*
X70602538Y-82221412D01*
X70635207Y-82277920D01*
X70650500Y-82310581D01*
X70651241Y-82314593D01*
X70638392Y-82335684D01*
X70602888Y-82377464D01*
X70549293Y-82435445D01*
X70482171Y-82505135D01*
X70406087Y-82582045D01*
X70325604Y-82661683D01*
X70245287Y-82739561D01*
X70169699Y-82811186D01*
X70103405Y-82872070D01*
X70050969Y-82917721D01*
X70016955Y-82943650D01*
X70007545Y-82947883D01*
X69985643Y-82937912D01*
X69940800Y-82911020D01*
X69880321Y-82871736D01*
X69833789Y-82840117D01*
X69749475Y-82782098D01*
X69649626Y-82713784D01*
X69549473Y-82645579D01*
X69495627Y-82609075D01*
X69313371Y-82485800D01*
X69160381Y-82568520D01*
X69090682Y-82604759D01*
X69031414Y-82632926D01*
X68991311Y-82648991D01*
X68981103Y-82651226D01*
X68968829Y-82634722D01*
X68944613Y-82588082D01*
X68910263Y-82515609D01*
X68867588Y-82421606D01*
X68818394Y-82310374D01*
X68764490Y-82186215D01*
X68707684Y-82053432D01*
X68649782Y-81916327D01*
X68592593Y-81779202D01*
X68537924Y-81646358D01*
X68487584Y-81522098D01*
X68443380Y-81410725D01*
X68407119Y-81316539D01*
X68380609Y-81243844D01*
X68365658Y-81196941D01*
X68363254Y-81180833D01*
X68382311Y-81160286D01*
X68424036Y-81126933D01*
X68479706Y-81087702D01*
X68484378Y-81084599D01*
X68628264Y-80969423D01*
X68744283Y-80835053D01*
X68831430Y-80685784D01*
X68888699Y-80525913D01*
X68915086Y-80359737D01*
X68909585Y-80191552D01*
X68871190Y-80025655D01*
X68798895Y-79866342D01*
X68777626Y-79831487D01*
X68666996Y-79690737D01*
X68536302Y-79577714D01*
X68390064Y-79493003D01*
X68232808Y-79437194D01*
X68069057Y-79410874D01*
X67903333Y-79414630D01*
X67740162Y-79449050D01*
X67584065Y-79514723D01*
X67439567Y-79612235D01*
X67394869Y-79651813D01*
X67281112Y-79775703D01*
X67198218Y-79906124D01*
X67141356Y-80052315D01*
X67109687Y-80197088D01*
X67101869Y-80359860D01*
X67127938Y-80523440D01*
X67185245Y-80682298D01*
X67271144Y-80830906D01*
X67382986Y-80963735D01*
X67518123Y-81075256D01*
X67535883Y-81087011D01*
X67592150Y-81125508D01*
X67634923Y-81158863D01*
X67655372Y-81180160D01*
X67655669Y-81180833D01*
X67651279Y-81203871D01*
X67633876Y-81256157D01*
X67605268Y-81333390D01*
X67567265Y-81431268D01*
X67521674Y-81545491D01*
X67470303Y-81671758D01*
X67414962Y-81805767D01*
X67357458Y-81943218D01*
X67299601Y-82079808D01*
X67243198Y-82211237D01*
X67190058Y-82333205D01*
X67141990Y-82441409D01*
X67100801Y-82531549D01*
X67068301Y-82599323D01*
X67046297Y-82640430D01*
X67037436Y-82651226D01*
X67010360Y-82642819D01*
X66959697Y-82620272D01*
X66894183Y-82587613D01*
X66858159Y-82568520D01*
X66705168Y-82485800D01*
X66522912Y-82609075D01*
X66429875Y-82672228D01*
X66328015Y-82741727D01*
X66232562Y-82807165D01*
X66184750Y-82840117D01*
X66117505Y-82885273D01*
X66060564Y-82921057D01*
X66021354Y-82942938D01*
X66008619Y-82947563D01*
X65990083Y-82935085D01*
X65949059Y-82900252D01*
X65889525Y-82846678D01*
X65815458Y-82777983D01*
X65730835Y-82697781D01*
X65677315Y-82646286D01*
X65583681Y-82554286D01*
X65502759Y-82471999D01*
X65437823Y-82402945D01*
X65392142Y-82350644D01*
X65368989Y-82318616D01*
X65366768Y-82312116D01*
X65377076Y-82287394D01*
X65405561Y-82237405D01*
X65449063Y-82167212D01*
X65504423Y-82081875D01*
X65568480Y-81986456D01*
X65586697Y-81959854D01*
X65653073Y-81863167D01*
X65712622Y-81776117D01*
X65762016Y-81703595D01*
X65797925Y-81650493D01*
X65817019Y-81621703D01*
X65818864Y-81618726D01*
X65816105Y-81595782D01*
X65801462Y-81545336D01*
X65777487Y-81474041D01*
X65746734Y-81388547D01*
X65711756Y-81295507D01*
X65675107Y-81201574D01*
X65639339Y-81113399D01*
X65607006Y-81037634D01*
X65580662Y-80980931D01*
X65562858Y-80949943D01*
X65561593Y-80948457D01*
X65550706Y-80939601D01*
X65532318Y-80930843D01*
X65502394Y-80921277D01*
X65456897Y-80909996D01*
X65391791Y-80896093D01*
X65303039Y-80878663D01*
X65186607Y-80856798D01*
X65038458Y-80829591D01*
X65006382Y-80823741D01*
X64911314Y-80805374D01*
X64828435Y-80787405D01*
X64765070Y-80771569D01*
X64728542Y-80759600D01*
X64723644Y-80756810D01*
X64715573Y-80732072D01*
X64709013Y-80676790D01*
X64703967Y-80597389D01*
X64700441Y-80500296D01*
X64698439Y-80391938D01*
X64697964Y-80278740D01*
X64699023Y-80167128D01*
X64701618Y-80063529D01*
X64705754Y-79974368D01*
X64711437Y-79906072D01*
X64718669Y-79865066D01*
X64723029Y-79856674D01*
X64747302Y-79848208D01*
X64802574Y-79834435D01*
X64883338Y-79816550D01*
X64984088Y-79795748D01*
X65099317Y-79773223D01*
X65162098Y-79761418D01*
X65281213Y-79739151D01*
X65387435Y-79718979D01*
X65475573Y-79701915D01*
X65540434Y-79688969D01*
X65576826Y-79681155D01*
X65582816Y-79679422D01*
X65592939Y-79659890D01*
X65614338Y-79612843D01*
X65644161Y-79545003D01*
X65679555Y-79463091D01*
X65717668Y-79373828D01*
X65755647Y-79283935D01*
X65790640Y-79200135D01*
X65819794Y-79129147D01*
X65840257Y-79077694D01*
X65849177Y-79052497D01*
X65849343Y-79051396D01*
X65839231Y-79031519D01*
X65810883Y-78985777D01*
X65767277Y-78918717D01*
X65711394Y-78834884D01*
X65646213Y-78738826D01*
X65608321Y-78683650D01*
X65539275Y-78582481D01*
X65477950Y-78490630D01*
X65427337Y-78412744D01*
X65390429Y-78353469D01*
X65370218Y-78317451D01*
X65367299Y-78309377D01*
X65379847Y-78290584D01*
X65414537Y-78250457D01*
X65466937Y-78193493D01*
X65532616Y-78124185D01*
X65607144Y-78047031D01*
X65686087Y-77966525D01*
X65765017Y-77887163D01*
X65839500Y-77813440D01*
X65905106Y-77749852D01*
X65957404Y-77700894D01*
X65991961Y-77671061D01*
X66003522Y-77663942D01*
X66022346Y-77673953D01*
X66067369Y-77702078D01*
X66134213Y-77745454D01*
X66218501Y-77801218D01*
X66315856Y-77866506D01*
X66389293Y-77916246D01*
X66760333Y-78168551D01*
X67378905Y-77913555D01*
X67462725Y-77468931D01*
X67546546Y-77024307D01*
X68471994Y-77024307D01*
X68555814Y-77468931D01*
D10*
X78082000Y-42328000D02*
G75*
G03*
X78082000Y-42328000I-700000J0D01*
G01*
D15*
X60468000Y-27072550D02*
X60468000Y-45572550D01*
X73468000Y-27072550D02*
X60468000Y-27072550D01*
X73468000Y-45572550D02*
X73468000Y-27072550D01*
X60468000Y-45572550D02*
X73468000Y-45572550D01*
D11*
X58178000Y-34076000D02*
G75*
G03*
X58178000Y-34076000I-100000J0D01*
G01*
D10*
X78082000Y-32168000D02*
G75*
G03*
X78082000Y-32168000I-700000J0D01*
G01*
D15*
X67150000Y-48762500D02*
X67150000Y-51762500D01*
X69650000Y-48762500D02*
X69650000Y-51762500D01*
D11*
X68700000Y-47562500D02*
G75*
G03*
X68700000Y-47562500I-100000J0D01*
G01*
G36*
X67626148Y-118623231D02*
G01*
X67667440Y-118648784D01*
X67688720Y-118691333D01*
X67684789Y-118737033D01*
X67674934Y-118753166D01*
X67639510Y-118772513D01*
X67586752Y-118779444D01*
X67533347Y-118773899D01*
X67495985Y-118755819D01*
X67494166Y-118753802D01*
X67478637Y-118712869D01*
X67491680Y-118672388D01*
X67526138Y-118639439D01*
X67574854Y-118621102D01*
X67626148Y-118623231D01*
G37*
G36*
X63804901Y-127420827D02*
G01*
X63727280Y-127386412D01*
X63658251Y-127353703D01*
X63607352Y-127327325D01*
X63589029Y-127316141D01*
X63557218Y-127283114D01*
X63560405Y-127255777D01*
X63597497Y-127235567D01*
X63658503Y-127224702D01*
X63737095Y-127207521D01*
X63839044Y-127168394D01*
X63935783Y-127122346D01*
X64016180Y-127082204D01*
X64071239Y-127056934D01*
X64107809Y-127044550D01*
X64132742Y-127043065D01*
X64152889Y-127050492D01*
X64162700Y-127056526D01*
X64190808Y-127083474D01*
X64203011Y-127123704D01*
X64204887Y-127164733D01*
X64204887Y-127245298D01*
X64545552Y-127250616D01*
X64618048Y-127251387D01*
X64723304Y-127251986D01*
X64857742Y-127252413D01*
X65017786Y-127252668D01*
X65199858Y-127252753D01*
X65400381Y-127252667D01*
X65615778Y-127252410D01*
X65842471Y-127251984D01*
X66076883Y-127251388D01*
X66315437Y-127250622D01*
X66371518Y-127250419D01*
X67856818Y-127244903D01*
X67856818Y-127210512D01*
X67929493Y-127210512D01*
X67936141Y-127225467D01*
X67941606Y-127222624D01*
X67943780Y-127201062D01*
X67941606Y-127198399D01*
X67930804Y-127200893D01*
X67929493Y-127210512D01*
X67856818Y-127210512D01*
X67856818Y-127183188D01*
X67847387Y-127129882D01*
X67826758Y-127104651D01*
X67805971Y-127076938D01*
X67807898Y-127058642D01*
X67825240Y-127040732D01*
X67859873Y-127038222D01*
X67914848Y-127051999D01*
X67993217Y-127082947D01*
X68098030Y-127131954D01*
X68150686Y-127158142D01*
X68233144Y-127198358D01*
X68306462Y-127231662D01*
X68363294Y-127254885D01*
X68396293Y-127264859D01*
X68398564Y-127265018D01*
X68434892Y-127280918D01*
X68454929Y-127320917D01*
X68456389Y-127337210D01*
X68440959Y-127351903D01*
X68408791Y-127363869D01*
X68365014Y-127382692D01*
X68312534Y-127415493D01*
X68295236Y-127428552D01*
X68241430Y-127465017D01*
X68171532Y-127503982D01*
X68120266Y-127528295D01*
X68054015Y-127557542D01*
X67993694Y-127585315D01*
X67959816Y-127601847D01*
X67916800Y-127622083D01*
X67889279Y-127625665D01*
X67861118Y-127613829D01*
X67854347Y-127609930D01*
X67838267Y-127593701D01*
X67831109Y-127563614D01*
X67831553Y-127510808D01*
X67834124Y-127474216D01*
X67843624Y-127355862D01*
X67046251Y-127354430D01*
X66840785Y-127353750D01*
X66613769Y-127352457D01*
X66375059Y-127350644D01*
X66134509Y-127348399D01*
X65901976Y-127345815D01*
X65687315Y-127342982D01*
X65522126Y-127340375D01*
X65348421Y-127337675D01*
X65173599Y-127335543D01*
X65003890Y-127334012D01*
X64845525Y-127333118D01*
X64704736Y-127332897D01*
X64587753Y-127333383D01*
X64500808Y-127334610D01*
X64500130Y-127334626D01*
X64204887Y-127341501D01*
X64204639Y-127416815D01*
X64199116Y-127501792D01*
X64183509Y-127554622D01*
X64158268Y-127573836D01*
X64156622Y-127573888D01*
X64125795Y-127565966D01*
X64077792Y-127545943D01*
X64054270Y-127534382D01*
X64003854Y-127509863D01*
X63931690Y-127476668D01*
X63884721Y-127455791D01*
X64095874Y-127455791D01*
X64104958Y-127464875D01*
X64114043Y-127455791D01*
X64104958Y-127446706D01*
X64095874Y-127455791D01*
X63884721Y-127455791D01*
X63849547Y-127440157D01*
X63804901Y-127420827D01*
G37*
G36*
X67239052Y-118638560D02*
G01*
X67267461Y-118678445D01*
X67268084Y-118680767D01*
X67267525Y-118732865D01*
X67236437Y-118766481D01*
X67176484Y-118779988D01*
X67166403Y-118780183D01*
X67114506Y-118773225D01*
X67078377Y-118755921D01*
X67075755Y-118753166D01*
X67060617Y-118710452D01*
X67071892Y-118664714D01*
X67104353Y-118630789D01*
X67121258Y-118624055D01*
X67187502Y-118619343D01*
X67239052Y-118638560D01*
G37*
G36*
X68483878Y-125248476D02*
G01*
X68505281Y-125285312D01*
X68511636Y-125337231D01*
X68503629Y-125388938D01*
X68481948Y-125425143D01*
X68475752Y-125429329D01*
X68430689Y-125446298D01*
X68398617Y-125434946D01*
X68373442Y-125403453D01*
X68354269Y-125351935D01*
X68358166Y-125301563D01*
X68379782Y-125259849D01*
X68413767Y-125234302D01*
X68454767Y-125232431D01*
X68483878Y-125248476D01*
G37*
G36*
X69227692Y-132914108D02*
G01*
X69249410Y-132926154D01*
X69296809Y-132942080D01*
X69359950Y-132958582D01*
X69364773Y-132959689D01*
X69520314Y-133001978D01*
X69648030Y-133051235D01*
X69746201Y-133106282D01*
X69813109Y-133165941D01*
X69847034Y-133229032D01*
X69847292Y-133290510D01*
X69822684Y-133329807D01*
X69773368Y-133372664D01*
X69709519Y-133412458D01*
X69641312Y-133442569D01*
X69595267Y-133454527D01*
X69525443Y-133465692D01*
X69662689Y-133594862D01*
X69720222Y-133651285D01*
X69766435Y-133700921D01*
X69795515Y-133737268D01*
X69802561Y-133751284D01*
X69801413Y-133811402D01*
X69783689Y-133839330D01*
X69749984Y-133834908D01*
X69700889Y-133797971D01*
X69685928Y-133783277D01*
X69649114Y-133748754D01*
X69591713Y-133698475D01*
X69521631Y-133639237D01*
X69448069Y-133578878D01*
X69363993Y-133510185D01*
X69304892Y-133459005D01*
X69266974Y-133420652D01*
X69246446Y-133390437D01*
X69239518Y-133363673D01*
X69242395Y-133335673D01*
X69244403Y-133327129D01*
X69262518Y-133290443D01*
X69299033Y-133279579D01*
X69306127Y-133279539D01*
X69360631Y-133289411D01*
X69401167Y-133306148D01*
X69479219Y-133330165D01*
X69577260Y-133325060D01*
X69623735Y-133314278D01*
X69670810Y-133295827D01*
X69690039Y-133271020D01*
X69691868Y-133255158D01*
X69685215Y-133225761D01*
X69661757Y-133199187D01*
X69616243Y-133171850D01*
X69543424Y-133140159D01*
X69498020Y-133122645D01*
X69420006Y-133098850D01*
X69342737Y-133084736D01*
X69272596Y-133080100D01*
X69215971Y-133084742D01*
X69179248Y-133098459D01*
X69168811Y-133121048D01*
X69173663Y-133132907D01*
X69179675Y-133160131D01*
X69184621Y-133215862D01*
X69188444Y-133292866D01*
X69191085Y-133383906D01*
X69192488Y-133481747D01*
X69192593Y-133579154D01*
X69191344Y-133668889D01*
X69188681Y-133743719D01*
X69184548Y-133796407D01*
X69179160Y-133819417D01*
X69144329Y-133839326D01*
X69101890Y-133838542D01*
X69069307Y-133818450D01*
X69064646Y-133810333D01*
X69060117Y-133782549D01*
X69055732Y-133724878D01*
X69051809Y-133643767D01*
X69048665Y-133545668D01*
X69046754Y-133447339D01*
X69045619Y-133324202D01*
X69046231Y-133232791D01*
X69048857Y-133168523D01*
X69053763Y-133126814D01*
X69061217Y-133103084D01*
X69067264Y-133095364D01*
X69084709Y-133063799D01*
X69092287Y-133016224D01*
X69092297Y-133014521D01*
X69100646Y-132963828D01*
X69120733Y-132926017D01*
X69120848Y-132925901D01*
X69159123Y-132902970D01*
X69200114Y-132898570D01*
X69227692Y-132914108D01*
G37*
G36*
X71974137Y-113006517D02*
G01*
X72225593Y-113011585D01*
X72242945Y-113060999D01*
X72250361Y-113105650D01*
X72231174Y-113142454D01*
X72226915Y-113147301D01*
X72209829Y-113162691D01*
X72186971Y-113173116D01*
X72151559Y-113179524D01*
X72096808Y-113182863D01*
X72015938Y-113184079D01*
X71962970Y-113184189D01*
X71865306Y-113183571D01*
X71797371Y-113181159D01*
X71752565Y-113176110D01*
X71724293Y-113167584D01*
X71705955Y-113154739D01*
X71702338Y-113150962D01*
X71676397Y-113102829D01*
X71676945Y-113053737D01*
X71697475Y-113022368D01*
X71727999Y-113012765D01*
X71792187Y-113007162D01*
X71890972Y-113005504D01*
X71974137Y-113006517D01*
G37*
G36*
X60084431Y-118067345D02*
G01*
X60110978Y-118089396D01*
X60114187Y-118128340D01*
X60094277Y-118173401D01*
X60081979Y-118188525D01*
X60059302Y-118221843D01*
X60028528Y-118278839D01*
X59994951Y-118349414D01*
X59981374Y-118380469D01*
X59936806Y-118484126D01*
X59890555Y-118589736D01*
X59846021Y-118689711D01*
X59806606Y-118776462D01*
X59775710Y-118842400D01*
X59761536Y-118871027D01*
X59730139Y-118905276D01*
X59688291Y-118922186D01*
X59649504Y-118918310D01*
X59632859Y-118903864D01*
X59615548Y-118867937D01*
X59590289Y-118804169D01*
X59559576Y-118719522D01*
X59525906Y-118620959D01*
X59491776Y-118515443D01*
X59479786Y-118476866D01*
X59453850Y-118396593D01*
X59427849Y-118323063D01*
X59405930Y-118267755D01*
X59398456Y-118251780D01*
X59380795Y-118193028D01*
X59389071Y-118144432D01*
X59420327Y-118114070D01*
X59451128Y-118107937D01*
X59489389Y-118115061D01*
X59518102Y-118140368D01*
X59541261Y-118189759D01*
X59562860Y-118269134D01*
X59564192Y-118274970D01*
X59582481Y-118346713D01*
X59605714Y-118425106D01*
X59631165Y-118502414D01*
X59656105Y-118570902D01*
X59677809Y-118622834D01*
X59693550Y-118650475D01*
X59697446Y-118653001D01*
X59708681Y-118637612D01*
X59731955Y-118595828D01*
X59764028Y-118534218D01*
X59801654Y-118459355D01*
X59841593Y-118377810D01*
X59880602Y-118296156D01*
X59915438Y-118220962D01*
X59942858Y-118158801D01*
X59950966Y-118139201D01*
X59987258Y-118090286D01*
X60040565Y-118065728D01*
X60084431Y-118067345D01*
G37*
G36*
X65129659Y-118621220D02*
G01*
X65157973Y-118639678D01*
X65172112Y-118664220D01*
X65183865Y-118701456D01*
X65171662Y-118728020D01*
X65151541Y-118745980D01*
X65106461Y-118772388D01*
X65056400Y-118775580D01*
X65017953Y-118767661D01*
X64988128Y-118743694D01*
X64973339Y-118701661D01*
X64977828Y-118658195D01*
X64986341Y-118643681D01*
X65019677Y-118625249D01*
X65072447Y-118616783D01*
X65079604Y-118616664D01*
X65129659Y-118621220D01*
G37*
G36*
X68445287Y-119387527D02*
G01*
X68478855Y-119418483D01*
X68492480Y-119478721D01*
X68492726Y-119490352D01*
X68485699Y-119545741D01*
X68462205Y-119576263D01*
X68457583Y-119578971D01*
X68426669Y-119594157D01*
X68406217Y-119592986D01*
X68379171Y-119578155D01*
X68356550Y-119550308D01*
X68347713Y-119497092D01*
X68347376Y-119479125D01*
X68349972Y-119427839D01*
X68361501Y-119401430D01*
X68387578Y-119388595D01*
X68393034Y-119387155D01*
X68445287Y-119387527D01*
G37*
G36*
X65969822Y-118633635D02*
G01*
X66008155Y-118662316D01*
X66021768Y-118696905D01*
X66005883Y-118736450D01*
X65965674Y-118764393D01*
X65912312Y-118776915D01*
X65856967Y-118770198D01*
X65835538Y-118760559D01*
X65809873Y-118727411D01*
X65805472Y-118681447D01*
X65823778Y-118640310D01*
X65825545Y-118638466D01*
X65866541Y-118618144D01*
X65918625Y-118617722D01*
X65969822Y-118633635D01*
G37*
G36*
X66787777Y-118624065D02*
G01*
X66832819Y-118647610D01*
X66856261Y-118685861D01*
X66857533Y-118698423D01*
X66841609Y-118736523D01*
X66801800Y-118764918D01*
X66750049Y-118779958D01*
X66698301Y-118777994D01*
X66661310Y-118758380D01*
X66641381Y-118717475D01*
X66645536Y-118671332D01*
X66671922Y-118637039D01*
X66674651Y-118635472D01*
X66731574Y-118618821D01*
X66787777Y-118624065D01*
G37*
G36*
X68483878Y-125666359D02*
G01*
X68505281Y-125703195D01*
X68511636Y-125755113D01*
X68503629Y-125806821D01*
X68481948Y-125843026D01*
X68475752Y-125847212D01*
X68430689Y-125864180D01*
X68398617Y-125852828D01*
X68373442Y-125821336D01*
X68354269Y-125769817D01*
X68358166Y-125719446D01*
X68379782Y-125677732D01*
X68413767Y-125652185D01*
X68454767Y-125650314D01*
X68483878Y-125666359D01*
G37*
G36*
X68456227Y-121475196D02*
G01*
X68490520Y-121501581D01*
X68492087Y-121504310D01*
X68508853Y-121559227D01*
X68506266Y-121613675D01*
X68489093Y-121647221D01*
X68452959Y-121665303D01*
X68408002Y-121667566D01*
X68370547Y-121654874D01*
X68358404Y-121640285D01*
X68348049Y-121587551D01*
X68351342Y-121532739D01*
X68367019Y-121493347D01*
X68369179Y-121490970D01*
X68410084Y-121471040D01*
X68456227Y-121475196D01*
G37*
G36*
X69759874Y-108021311D02*
G01*
X69719813Y-107957988D01*
X69661278Y-107860818D01*
X69576208Y-108010665D01*
X69530267Y-108099882D01*
X69485532Y-108200646D01*
X69450351Y-108293877D01*
X69445016Y-108310526D01*
X69419790Y-108387146D01*
X69398152Y-108436646D01*
X69375438Y-108467295D01*
X69346988Y-108487362D01*
X69344616Y-108488608D01*
X69294984Y-108506452D01*
X69250510Y-108503279D01*
X69208588Y-108476377D01*
X69166611Y-108423032D01*
X69121974Y-108340531D01*
X69072071Y-108226161D01*
X69057407Y-108189593D01*
X68970112Y-107968890D01*
X68906217Y-108039613D01*
X68853223Y-108112568D01*
X68807803Y-108207590D01*
X68767886Y-108329751D01*
X68738357Y-108451213D01*
X68717291Y-108545455D01*
X68700255Y-108609554D01*
X68684219Y-108649014D01*
X68666155Y-108669337D01*
X68643034Y-108676026D01*
X68615235Y-108674922D01*
X68577722Y-108667444D01*
X68555291Y-108647520D01*
X68538393Y-108604951D01*
X68533321Y-108587479D01*
X68504295Y-108488547D01*
X68470842Y-108381484D01*
X68434822Y-108271499D01*
X68398094Y-108163807D01*
X68362517Y-108063617D01*
X68329950Y-107976142D01*
X68302253Y-107906594D01*
X68281285Y-107860184D01*
X68268905Y-107842124D01*
X68267545Y-107842446D01*
X68249952Y-107867093D01*
X68222054Y-107913363D01*
X68193996Y-107963720D01*
X68163578Y-108019005D01*
X68135855Y-108061521D01*
X68105737Y-108092869D01*
X68068136Y-108114649D01*
X68017965Y-108128461D01*
X67950133Y-108135906D01*
X67859554Y-108138583D01*
X67741139Y-108138094D01*
X67643686Y-108136792D01*
X67519232Y-108134384D01*
X67399094Y-108130885D01*
X67290883Y-108126606D01*
X67202213Y-108121857D01*
X67140695Y-108116947D01*
X67132068Y-108115942D01*
X67011968Y-108100643D01*
X66930209Y-108187374D01*
X66859770Y-108252064D01*
X66796797Y-108284981D01*
X66734406Y-108287737D01*
X66665715Y-108261944D01*
X66649822Y-108253037D01*
X66563579Y-108182817D01*
X66505645Y-108091868D01*
X66483998Y-108009456D01*
X66609013Y-108009456D01*
X66615012Y-108079239D01*
X66644120Y-108141956D01*
X66682392Y-108179404D01*
X66735184Y-108203364D01*
X66787579Y-108197383D01*
X66845243Y-108159996D01*
X66878163Y-108128716D01*
X66938362Y-108065133D01*
X66974964Y-108019745D01*
X66990693Y-107985698D01*
X66988274Y-107956138D01*
X66970431Y-107924208D01*
X66963367Y-107914353D01*
X66908255Y-107858491D01*
X66840614Y-107830326D01*
X66773723Y-107824389D01*
X66708478Y-107840074D01*
X66657865Y-107881637D01*
X66624004Y-107940843D01*
X66609013Y-108009456D01*
X66483998Y-108009456D01*
X66480294Y-107995356D01*
X66477222Y-107945822D01*
X66485983Y-107911151D01*
X66512641Y-107876805D01*
X66541484Y-107848669D01*
X66592679Y-107807675D01*
X66656948Y-107766106D01*
X66723467Y-107729926D01*
X66781416Y-107705101D01*
X66815905Y-107697385D01*
X66848214Y-107709251D01*
X66895819Y-107740006D01*
X66949342Y-107781862D01*
X66999406Y-107827031D01*
X67036635Y-107867724D01*
X67051125Y-107892742D01*
X67062264Y-107937124D01*
X67273311Y-107926357D01*
X67383262Y-107920785D01*
X67510845Y-107914375D01*
X67637396Y-107908064D01*
X67712194Y-107904362D01*
X67940031Y-107893134D01*
X67979101Y-107825249D01*
X68017614Y-107765767D01*
X68069376Y-107695699D01*
X68127557Y-107623254D01*
X68185327Y-107556642D01*
X68235854Y-107504070D01*
X68270733Y-107474735D01*
X68328992Y-107447266D01*
X68378028Y-107450661D01*
X68426772Y-107483724D01*
X68446341Y-107504991D01*
X68461166Y-107532525D01*
X68473162Y-107573340D01*
X68484245Y-107634447D01*
X68496329Y-107722862D01*
X68499936Y-107751714D01*
X68513855Y-107854794D01*
X68530030Y-107959862D01*
X68546290Y-108053493D01*
X68558413Y-108113424D01*
X68588812Y-108248023D01*
X68629924Y-108134483D01*
X68662780Y-108055548D01*
X68703499Y-107973459D01*
X68730197Y-107927208D01*
X68773972Y-107853237D01*
X68821599Y-107765510D01*
X68866382Y-107676996D01*
X68901628Y-107600663D01*
X68912404Y-107574242D01*
X68946556Y-107530246D01*
X68999578Y-107509131D01*
X69059181Y-107515086D01*
X69071263Y-107520110D01*
X69102360Y-107541566D01*
X69120229Y-107575715D01*
X69131031Y-107633853D01*
X69141745Y-107697303D01*
X69155525Y-107752714D01*
X69161575Y-107769882D01*
X69175903Y-107809293D01*
X69196019Y-107871128D01*
X69217857Y-107942835D01*
X69220419Y-107951571D01*
X69241007Y-108018759D01*
X69255629Y-108055545D01*
X69267149Y-108066777D01*
X69278430Y-108057299D01*
X69280719Y-108053663D01*
X69315765Y-107997439D01*
X69361358Y-107927273D01*
X69412425Y-107850628D01*
X69463892Y-107774966D01*
X69510685Y-107707750D01*
X69547730Y-107656441D01*
X69569416Y-107629074D01*
X69618060Y-107599547D01*
X69684652Y-107586952D01*
X69753920Y-107593500D01*
X69773072Y-107599580D01*
X69794985Y-107620468D01*
X69826081Y-107665434D01*
X69860328Y-107725556D01*
X69866931Y-107738427D01*
X69909116Y-107817731D01*
X69956593Y-107900339D01*
X69996640Y-107964570D01*
X70032261Y-108016837D01*
X70054680Y-108042874D01*
X70070345Y-108047018D01*
X70085702Y-108033606D01*
X70090498Y-108027706D01*
X70106228Y-108009289D01*
X70123552Y-107994320D01*
X70146045Y-107982547D01*
X70177284Y-107973715D01*
X70220842Y-107967571D01*
X70280295Y-107963860D01*
X70359219Y-107962330D01*
X70461189Y-107962725D01*
X70589780Y-107964793D01*
X70748568Y-107968279D01*
X70882372Y-107971495D01*
X71083777Y-107976422D01*
X71251967Y-107980665D01*
X71390053Y-107984435D01*
X71501146Y-107987942D01*
X71588359Y-107991397D01*
X71654801Y-107995011D01*
X71703585Y-107998996D01*
X71737822Y-108003561D01*
X71760624Y-108008917D01*
X71775101Y-108015276D01*
X71784365Y-108022848D01*
X71791527Y-108031845D01*
X71792494Y-108033168D01*
X71805157Y-108045193D01*
X71826697Y-108054551D01*
X71862255Y-108061932D01*
X71916974Y-108068032D01*
X71995994Y-108073543D01*
X72104457Y-108079159D01*
X72148693Y-108081204D01*
X72272241Y-108086980D01*
X72399469Y-108093228D01*
X72519398Y-108099387D01*
X72621047Y-108104899D01*
X72671553Y-108107835D01*
X72862326Y-108119403D01*
X72948270Y-108008669D01*
X72999241Y-107949332D01*
X73046092Y-107906068D01*
X73079971Y-107886452D01*
X73122647Y-107884376D01*
X73184194Y-107891170D01*
X73230218Y-107900470D01*
X73284810Y-107915208D01*
X73321519Y-107932302D01*
X73350373Y-107960044D01*
X73381398Y-108006720D01*
X73402845Y-108043161D01*
X73448549Y-108132306D01*
X73468662Y-108203039D01*
X73463402Y-108262529D01*
X73432984Y-108317943D01*
X73411932Y-108342618D01*
X73346962Y-108391770D01*
X73265178Y-108424088D01*
X73176450Y-108438668D01*
X73090645Y-108434607D01*
X73017634Y-108411001D01*
X72979311Y-108382243D01*
X72951338Y-108358871D01*
X72916248Y-108348045D01*
X72861580Y-108346712D01*
X72838574Y-108347757D01*
X72781864Y-108347150D01*
X72699447Y-108341574D01*
X72601478Y-108331920D01*
X72498114Y-108319078D01*
X72475989Y-108315961D01*
X72367633Y-108301893D01*
X72257468Y-108290246D01*
X72157514Y-108282132D01*
X72079789Y-108278661D01*
X72071733Y-108278609D01*
X71926632Y-108278609D01*
X71926500Y-108819131D01*
X71927262Y-108972679D01*
X71929476Y-109129545D01*
X71932927Y-109281759D01*
X71937400Y-109421353D01*
X71942678Y-109540360D01*
X71948403Y-109629058D01*
X71970437Y-109898463D01*
X72343706Y-109897064D01*
X72496518Y-109896543D01*
X72617023Y-109896543D01*
X72709251Y-109897497D01*
X72777234Y-109899840D01*
X72825002Y-109904002D01*
X72856586Y-109910419D01*
X72876016Y-109919522D01*
X72887323Y-109931745D01*
X72894538Y-109947520D01*
X72897767Y-109956584D01*
X72906629Y-109997690D01*
X72891732Y-110026749D01*
X72873574Y-110042886D01*
X72834525Y-110070421D01*
X72805356Y-110072921D01*
X72769622Y-110050397D01*
X72760348Y-110042978D01*
X72717191Y-110019546D01*
X72676017Y-110024572D01*
X72639473Y-110030003D01*
X72575088Y-110031197D01*
X72491108Y-110028174D01*
X72430257Y-110023984D01*
X72298068Y-110017449D01*
X72156110Y-110017267D01*
X72030088Y-110023262D01*
X71947473Y-110028896D01*
X71877071Y-110031815D01*
X71827523Y-110031774D01*
X71808976Y-110029555D01*
X71782760Y-110025991D01*
X71727321Y-110022590D01*
X71649773Y-110019657D01*
X71557230Y-110017499D01*
X71514748Y-110016888D01*
X71245302Y-110013731D01*
X71245302Y-109904718D01*
X71501471Y-109899694D01*
X71757640Y-109894669D01*
X71779867Y-109627161D01*
X71786779Y-109517472D01*
X71792040Y-109377887D01*
X71795524Y-109214816D01*
X71797106Y-109034667D01*
X71796658Y-108843852D01*
X71796230Y-108796771D01*
X71790366Y-108233888D01*
X71716335Y-108239239D01*
X71650948Y-108235321D01*
X71619283Y-108216850D01*
X71596971Y-108199009D01*
X71569665Y-108206244D01*
X71557047Y-108213760D01*
X71520778Y-108227726D01*
X71469966Y-108228785D01*
X71417905Y-108221938D01*
X71373366Y-108217192D01*
X71298352Y-108212146D01*
X71198720Y-108207066D01*
X71080328Y-108202217D01*
X70949033Y-108197867D01*
X70810693Y-108194280D01*
X70806646Y-108194190D01*
X70652735Y-108190568D01*
X70531137Y-108188023D01*
X70437829Y-108187690D01*
X70368788Y-108190709D01*
X70319989Y-108198216D01*
X70287408Y-108211349D01*
X70267021Y-108231245D01*
X70254806Y-108259042D01*
X70246737Y-108295876D01*
X70238792Y-108342886D01*
X70236544Y-108355338D01*
X70210858Y-108436950D01*
X70170709Y-108491141D01*
X70119044Y-108514233D01*
X70108751Y-108514804D01*
X70062675Y-108498580D01*
X70017167Y-108456002D01*
X69980581Y-108396211D01*
X69967562Y-108360303D01*
X69946702Y-108309473D01*
X69910613Y-108243781D01*
X69866777Y-108176732D01*
X69862902Y-108171360D01*
X69832348Y-108127973D01*
X72987551Y-108127973D01*
X72990932Y-108182921D01*
X73000111Y-108236191D01*
X73013093Y-108275137D01*
X73023992Y-108287305D01*
X73051854Y-108295526D01*
X73101056Y-108310502D01*
X73134858Y-108320919D01*
X73197604Y-108339681D01*
X73237843Y-108347375D01*
X73267798Y-108343621D01*
X73299690Y-108328041D01*
X73321088Y-108315146D01*
X73361955Y-108281144D01*
X73378596Y-108239272D01*
X73371842Y-108182316D01*
X73344869Y-108108500D01*
X73318111Y-108055736D01*
X73287873Y-108026169D01*
X73241331Y-108007879D01*
X73234624Y-108006033D01*
X73166869Y-107998760D01*
X73097891Y-108008831D01*
X73038536Y-108032762D01*
X72999647Y-108067070D01*
X72991958Y-108083991D01*
X72987551Y-108127973D01*
X69832348Y-108127973D01*
X69811734Y-108098702D01*
X69759874Y-108021311D01*
G37*
G36*
X66524295Y-131846769D02*
G01*
X66547222Y-131866303D01*
X66575590Y-131911096D01*
X66605076Y-131971404D01*
X66631353Y-132037488D01*
X66650098Y-132099603D01*
X66656985Y-132145662D01*
X66647170Y-132203003D01*
X66620984Y-132233169D01*
X66585910Y-132236398D01*
X66549430Y-132212929D01*
X66519026Y-132163000D01*
X66511679Y-132141033D01*
X66482127Y-132072460D01*
X66440598Y-132023589D01*
X66393675Y-132000746D01*
X66366805Y-132001858D01*
X66321827Y-132026744D01*
X66269618Y-132074749D01*
X66218525Y-132136164D01*
X66176894Y-132201276D01*
X66157229Y-132245697D01*
X66139073Y-132325740D01*
X66147382Y-132387946D01*
X66184555Y-132441704D01*
X66213979Y-132467761D01*
X66296863Y-132524431D01*
X66377210Y-132555572D01*
X66468545Y-132565117D01*
X66537591Y-132561830D01*
X66628036Y-132558153D01*
X66684983Y-132565883D01*
X66709562Y-132585420D01*
X66702904Y-132617165D01*
X66701356Y-132619759D01*
X66658915Y-132657143D01*
X66590973Y-132681900D01*
X66506479Y-132692965D01*
X66414380Y-132689274D01*
X66323624Y-132669762D01*
X66312469Y-132666035D01*
X66193032Y-132610186D01*
X66099072Y-132536443D01*
X66073385Y-132507174D01*
X66038772Y-132437516D01*
X66023749Y-132349009D01*
X66028969Y-132253816D01*
X66054954Y-132164407D01*
X66120994Y-132042812D01*
X66196832Y-131955569D01*
X66283613Y-131901734D01*
X66382480Y-131880368D01*
X66400915Y-131879897D01*
X66456463Y-131876411D01*
X66489100Y-131867157D01*
X66494157Y-131860396D01*
X66508464Y-131846610D01*
X66524295Y-131846769D01*
G37*
G36*
X61524663Y-119280313D02*
G01*
X61602348Y-119214435D01*
X61687036Y-119172967D01*
X61756556Y-119161728D01*
X61847783Y-119174917D01*
X61915779Y-119212768D01*
X61957516Y-119272701D01*
X61970123Y-119343416D01*
X61959425Y-119413993D01*
X61923657Y-119465915D01*
X61857306Y-119507073D01*
X61855102Y-119508081D01*
X61774294Y-119536436D01*
X61704654Y-119538713D01*
X61631985Y-119514852D01*
X61616114Y-119507079D01*
X61567860Y-119485919D01*
X61540893Y-119484442D01*
X61530790Y-119493453D01*
X61516056Y-119547380D01*
X61530471Y-119606934D01*
X61569235Y-119664792D01*
X61627546Y-119713630D01*
X61695442Y-119744633D01*
X61745939Y-119756161D01*
X61793646Y-119756057D01*
X61854359Y-119743663D01*
X61879183Y-119736975D01*
X61947303Y-119720516D01*
X62009768Y-119709553D01*
X62042524Y-119706792D01*
X62081733Y-119711748D01*
X62096081Y-119732318D01*
X62097304Y-119750242D01*
X62088112Y-119783777D01*
X62055053Y-119809362D01*
X62028223Y-119821332D01*
X61989272Y-119834141D01*
X61933494Y-119849287D01*
X61871021Y-119864449D01*
X61811986Y-119877306D01*
X61766521Y-119885536D01*
X61744758Y-119886818D01*
X61744218Y-119886391D01*
X61727638Y-119881831D01*
X61688358Y-119873292D01*
X61679422Y-119871470D01*
X61566676Y-119831675D01*
X61471629Y-119760593D01*
X61443578Y-119729882D01*
X61410212Y-119686020D01*
X61394263Y-119647888D01*
X61390939Y-119599363D01*
X61392948Y-119559514D01*
X61414031Y-119459343D01*
X61453006Y-119378447D01*
X61622658Y-119378447D01*
X61647632Y-119394136D01*
X61670337Y-119399927D01*
X61751997Y-119403463D01*
X61815131Y-119376096D01*
X61824772Y-119367609D01*
X61841543Y-119344933D01*
X61829934Y-119325406D01*
X61816757Y-119315052D01*
X61769471Y-119291973D01*
X61720763Y-119297527D01*
X61673380Y-119323080D01*
X61631198Y-119355845D01*
X61622658Y-119378447D01*
X61453006Y-119378447D01*
X61459913Y-119364112D01*
X61524663Y-119280313D01*
G37*
G36*
X68474176Y-121903093D02*
G01*
X68501394Y-121945007D01*
X68508001Y-122003471D01*
X68507473Y-122008527D01*
X68488588Y-122053969D01*
X68451976Y-122085439D01*
X68409911Y-122093323D01*
X68401882Y-122091209D01*
X68365753Y-122066057D01*
X68349562Y-122019226D01*
X68347654Y-121986070D01*
X68359230Y-121926074D01*
X68394573Y-121893468D01*
X68432130Y-121887050D01*
X68474176Y-121903093D01*
G37*
G36*
X62733084Y-114906156D02*
G01*
X62787253Y-114939875D01*
X62824606Y-114977193D01*
X62838874Y-115014935D01*
X62838611Y-115062514D01*
X62831266Y-115112350D01*
X62815151Y-115136115D01*
X62793764Y-115142945D01*
X62757570Y-115135261D01*
X62730047Y-115097523D01*
X62699092Y-115057256D01*
X62649725Y-115041144D01*
X62645560Y-115040707D01*
X62602988Y-115042210D01*
X62566056Y-115060654D01*
X62522086Y-115102068D01*
X62480345Y-115155811D01*
X62463997Y-115199453D01*
X62464262Y-115207157D01*
X62487150Y-115249146D01*
X62538978Y-115289561D01*
X62612461Y-115323968D01*
X62693454Y-115346611D01*
X62795754Y-115368163D01*
X62867207Y-115386330D01*
X62912940Y-115402837D01*
X62938082Y-115419409D01*
X62946042Y-115431616D01*
X62942335Y-115464591D01*
X62911066Y-115491747D01*
X62861010Y-115507054D01*
X62834211Y-115508459D01*
X62788285Y-115503364D01*
X62721896Y-115491320D01*
X62651453Y-115475421D01*
X62528686Y-115438562D01*
X62438833Y-115396049D01*
X62378582Y-115345040D01*
X62344618Y-115282697D01*
X62333628Y-115206178D01*
X62333619Y-115203019D01*
X62344070Y-115124028D01*
X62378222Y-115054218D01*
X62440638Y-114985789D01*
X62480140Y-114952592D01*
X62564547Y-114904378D01*
X62650859Y-114888817D01*
X62733084Y-114906156D01*
G37*
G36*
X62596016Y-118563739D02*
G01*
X62700846Y-118564773D01*
X62781949Y-118566453D01*
X62835037Y-118568823D01*
X62847553Y-118569986D01*
X62912681Y-118581324D01*
X62944358Y-118596676D01*
X62945458Y-118619088D01*
X62921794Y-118648704D01*
X62907952Y-118657945D01*
X62884083Y-118665471D01*
X62846025Y-118671631D01*
X62789615Y-118676775D01*
X62710693Y-118681251D01*
X62605097Y-118685409D01*
X62468665Y-118689597D01*
X62417609Y-118691007D01*
X62253028Y-118695495D01*
X62065823Y-118700652D01*
X61869695Y-118706097D01*
X61678341Y-118711448D01*
X61505463Y-118716326D01*
X61464080Y-118717503D01*
X61320021Y-118721516D01*
X61208264Y-118724235D01*
X61124791Y-118725480D01*
X61065582Y-118725074D01*
X61026618Y-118722840D01*
X61003882Y-118718599D01*
X60993354Y-118712175D01*
X60991017Y-118703388D01*
X60991929Y-118696613D01*
X60998624Y-118680659D01*
X61015853Y-118670084D01*
X61050364Y-118663462D01*
X61108903Y-118659368D01*
X61180018Y-118656885D01*
X61277428Y-118653382D01*
X61344199Y-118649568D01*
X61379322Y-118645820D01*
X61381785Y-118642518D01*
X61350578Y-118640039D01*
X61284692Y-118638764D01*
X61228472Y-118638731D01*
X61127198Y-118636543D01*
X61056382Y-118629218D01*
X61017603Y-118617145D01*
X61012438Y-118600713D01*
X61026214Y-118588873D01*
X61049070Y-118585554D01*
X61103973Y-118582302D01*
X61186633Y-118579162D01*
X61292761Y-118576180D01*
X61418064Y-118573399D01*
X61558254Y-118570864D01*
X61709040Y-118568619D01*
X61866132Y-118566709D01*
X62025239Y-118565178D01*
X62182071Y-118564072D01*
X62332338Y-118563433D01*
X62471750Y-118563308D01*
X62596016Y-118563739D01*
G37*
G36*
X68483642Y-119897565D02*
G01*
X68481991Y-119951823D01*
X68473934Y-119979583D01*
X68454814Y-119990639D01*
X68438220Y-119993115D01*
X68393698Y-119990902D01*
X68368908Y-119982230D01*
X68352915Y-119951269D01*
X68350471Y-119890684D01*
X68350740Y-119886680D01*
X68355939Y-119837173D01*
X68367859Y-119813982D01*
X68395142Y-119807134D01*
X68420051Y-119806721D01*
X68483642Y-119806721D01*
X68483642Y-119897565D01*
G37*
G36*
X74989625Y-107745603D02*
G01*
X75045631Y-107777241D01*
X75089026Y-107821655D01*
X75115419Y-107872043D01*
X75120419Y-107921600D01*
X75099635Y-107963523D01*
X75082532Y-107976991D01*
X75057398Y-107985097D01*
X75031845Y-107971617D01*
X75000772Y-107937780D01*
X74945437Y-107890252D01*
X74888405Y-107879010D01*
X74829993Y-107904062D01*
X74796440Y-107934327D01*
X74749389Y-107995155D01*
X74732008Y-108046994D01*
X74745548Y-108091293D01*
X74791258Y-108129501D01*
X74870387Y-108163064D01*
X74984184Y-108193433D01*
X75027885Y-108202664D01*
X75125988Y-108226752D01*
X75188131Y-108252451D01*
X75214662Y-108280028D01*
X75205935Y-108309749D01*
X75189004Y-108325095D01*
X75149499Y-108343522D01*
X75094663Y-108348393D01*
X75018432Y-108339528D01*
X74915402Y-108316909D01*
X74790193Y-108278743D01*
X74698449Y-108234016D01*
X74637568Y-108180603D01*
X74604947Y-108116376D01*
X74597448Y-108056939D01*
X74604054Y-107989298D01*
X74627700Y-107930630D01*
X74674126Y-107868497D01*
X74695014Y-107845550D01*
X74770380Y-107779132D01*
X74846506Y-107743361D01*
X74925401Y-107733545D01*
X74989625Y-107745603D01*
G37*
G36*
X68470015Y-126076894D02*
G01*
X68496064Y-126111193D01*
X68508185Y-126162796D01*
X68505409Y-126216191D01*
X68486766Y-126255865D01*
X68481494Y-126260467D01*
X68451158Y-126279308D01*
X68438220Y-126283902D01*
X68416150Y-126274362D01*
X68394946Y-126260467D01*
X68372379Y-126229171D01*
X68368093Y-126176292D01*
X68368763Y-126166921D01*
X68383570Y-126106702D01*
X68412811Y-126072470D01*
X68451739Y-126068447D01*
X68470015Y-126076894D01*
G37*
G36*
X66528437Y-127576156D02*
G01*
X66583422Y-127582357D01*
X66616966Y-127595565D01*
X66633983Y-127616994D01*
X66639388Y-127647856D01*
X66639508Y-127655229D01*
X66637926Y-127672031D01*
X66629254Y-127683761D01*
X66607606Y-127691716D01*
X66567093Y-127697189D01*
X66501827Y-127701476D01*
X66410051Y-127705693D01*
X66301898Y-127711787D01*
X66226790Y-127719512D01*
X66181453Y-127729326D01*
X66163527Y-127740131D01*
X66157870Y-127766878D01*
X66154315Y-127824110D01*
X66153013Y-127906028D01*
X66154112Y-128006833D01*
X66155392Y-128055574D01*
X66157677Y-128168160D01*
X66157245Y-128262007D01*
X66154241Y-128331818D01*
X66148808Y-128372299D01*
X66146650Y-128378071D01*
X66114709Y-128405447D01*
X66075003Y-128404511D01*
X66041542Y-128376041D01*
X66039292Y-128372110D01*
X66030864Y-128336035D01*
X66025407Y-128266581D01*
X66023060Y-128166596D01*
X66023708Y-128053747D01*
X66024234Y-127955060D01*
X66022681Y-127869572D01*
X66019322Y-127803852D01*
X66014430Y-127764466D01*
X66011366Y-127756568D01*
X65981620Y-127749089D01*
X65926979Y-127753304D01*
X65856276Y-127767388D01*
X65778344Y-127789514D01*
X65702017Y-127817857D01*
X65690388Y-127822916D01*
X65629498Y-127847982D01*
X65591317Y-127857186D01*
X65566710Y-127852171D01*
X65558664Y-127846587D01*
X65535863Y-127808604D01*
X65533658Y-127761598D01*
X65552763Y-127724166D01*
X65553921Y-127723181D01*
X65601048Y-127698088D01*
X65678621Y-127672783D01*
X65780775Y-127648341D01*
X65901640Y-127625839D01*
X66035350Y-127606355D01*
X66176036Y-127590965D01*
X66317832Y-127580746D01*
X66334493Y-127579925D01*
X66447099Y-127575750D01*
X66528437Y-127576156D01*
G37*
G36*
X68473872Y-122320094D02*
G01*
X68500754Y-122358039D01*
X68510486Y-122407457D01*
X68500782Y-122457039D01*
X68470515Y-122494675D01*
X68431499Y-122518152D01*
X68405000Y-122518051D01*
X68375927Y-122494407D01*
X68354934Y-122453799D01*
X68348087Y-122399386D01*
X68356097Y-122348796D01*
X68369179Y-122326735D01*
X68404087Y-122309031D01*
X68432130Y-122304932D01*
X68473872Y-122320094D01*
G37*
G36*
X74619481Y-107456759D02*
G01*
X74646028Y-107478810D01*
X74649237Y-107517754D01*
X74629327Y-107562815D01*
X74617029Y-107577939D01*
X74594352Y-107611256D01*
X74563578Y-107668253D01*
X74530001Y-107738827D01*
X74516424Y-107769882D01*
X74471856Y-107873539D01*
X74425605Y-107979149D01*
X74381071Y-108079124D01*
X74341656Y-108165875D01*
X74310760Y-108231814D01*
X74296586Y-108260440D01*
X74265189Y-108294689D01*
X74223341Y-108311600D01*
X74184554Y-108307724D01*
X74167909Y-108293277D01*
X74150598Y-108257350D01*
X74125339Y-108193582D01*
X74094626Y-108108935D01*
X74060956Y-108010373D01*
X74026826Y-107904857D01*
X74014836Y-107866280D01*
X73988900Y-107786006D01*
X73962899Y-107712476D01*
X73940980Y-107657169D01*
X73933506Y-107641193D01*
X73915845Y-107582441D01*
X73924122Y-107533845D01*
X73955377Y-107503483D01*
X73986178Y-107497350D01*
X74024439Y-107504475D01*
X74053152Y-107529782D01*
X74076311Y-107579172D01*
X74097910Y-107658548D01*
X74099242Y-107664384D01*
X74117531Y-107736126D01*
X74140765Y-107814519D01*
X74166215Y-107891827D01*
X74191155Y-107960315D01*
X74212859Y-108012248D01*
X74228600Y-108039889D01*
X74232496Y-108042415D01*
X74243731Y-108027026D01*
X74267006Y-107985241D01*
X74299078Y-107923631D01*
X74336704Y-107848768D01*
X74376643Y-107767224D01*
X74415652Y-107685569D01*
X74450488Y-107610375D01*
X74477908Y-107548215D01*
X74486016Y-107528615D01*
X74522308Y-107479699D01*
X74575615Y-107455142D01*
X74619481Y-107456759D01*
G37*
G36*
X68470369Y-124819375D02*
G01*
X68499290Y-124854695D01*
X68510862Y-124917139D01*
X68510895Y-124921241D01*
X68499826Y-124983367D01*
X68470868Y-125021381D01*
X68430401Y-125031481D01*
X68384800Y-125009864D01*
X68375927Y-125001703D01*
X68351636Y-124954716D01*
X68351193Y-124898038D01*
X68374091Y-124848949D01*
X68380602Y-124842298D01*
X68429129Y-124814226D01*
X68470369Y-124819375D01*
G37*
G36*
X67852053Y-132168954D02*
G01*
X67937248Y-132178920D01*
X67994850Y-132195407D01*
X68027663Y-132218945D01*
X68038491Y-132250062D01*
X68038506Y-132251478D01*
X68022571Y-132289266D01*
X67983480Y-132318943D01*
X67934304Y-132335237D01*
X67888114Y-132332874D01*
X67867453Y-132320490D01*
X67844892Y-132314389D01*
X67793746Y-132308015D01*
X67721752Y-132302145D01*
X67641857Y-132297779D01*
X67429851Y-132288695D01*
X67424158Y-132229646D01*
X67418464Y-132170598D01*
X67587677Y-132166477D01*
X67736464Y-132164983D01*
X67852053Y-132168954D01*
G37*
G36*
X65541639Y-118622736D02*
G01*
X65559789Y-118630568D01*
X65590600Y-118666263D01*
X65592320Y-118704536D01*
X65571227Y-118739643D01*
X65533604Y-118765841D01*
X65485729Y-118777386D01*
X65433882Y-118768534D01*
X65417655Y-118760559D01*
X65391991Y-118727411D01*
X65387590Y-118681447D01*
X65405896Y-118640310D01*
X65407662Y-118638466D01*
X65442420Y-118622840D01*
X65493401Y-118617268D01*
X65541639Y-118622736D01*
G37*
G36*
X71794274Y-112742911D02*
G01*
X71924839Y-112743424D01*
X72057375Y-112744270D01*
X72186774Y-112745413D01*
X72307927Y-112746818D01*
X72415728Y-112748449D01*
X72505068Y-112750270D01*
X72570840Y-112752246D01*
X72607935Y-112754340D01*
X72614133Y-112755421D01*
X72632871Y-112785050D01*
X72630703Y-112824828D01*
X72612505Y-112852298D01*
X72590147Y-112856156D01*
X72536749Y-112859679D01*
X72457430Y-112862830D01*
X72357312Y-112865571D01*
X72241514Y-112867864D01*
X72115157Y-112869673D01*
X71983362Y-112870960D01*
X71851249Y-112871687D01*
X71723938Y-112871818D01*
X71606550Y-112871314D01*
X71504205Y-112870139D01*
X71422023Y-112868255D01*
X71365126Y-112865625D01*
X71338633Y-112862211D01*
X71337570Y-112861602D01*
X71327683Y-112834522D01*
X71327852Y-112795307D01*
X71336323Y-112760496D01*
X71349772Y-112746587D01*
X71393870Y-112744901D01*
X71465477Y-112743725D01*
X71559485Y-112743026D01*
X71670786Y-112742766D01*
X71794274Y-112742911D01*
G37*
G36*
X69793751Y-131263556D02*
G01*
X69862469Y-131271190D01*
X69892919Y-131280965D01*
X69920912Y-131312684D01*
X69928063Y-131341913D01*
X69926690Y-131359474D01*
X69918611Y-131371654D01*
X69897882Y-131379818D01*
X69858561Y-131385334D01*
X69794706Y-131389568D01*
X69702426Y-131393797D01*
X69614182Y-131398566D01*
X69538431Y-131404449D01*
X69482982Y-131410717D01*
X69455643Y-131416639D01*
X69455140Y-131416922D01*
X69446680Y-131433814D01*
X69441187Y-131474377D01*
X69438501Y-131541977D01*
X69438460Y-131639982D01*
X69440039Y-131734034D01*
X69441940Y-131853018D01*
X69441585Y-131940625D01*
X69438702Y-132001760D01*
X69433023Y-132041328D01*
X69424276Y-132064236D01*
X69421653Y-132067844D01*
X69383931Y-132095173D01*
X69348736Y-132087441D01*
X69329131Y-132062779D01*
X69322373Y-132032200D01*
X69316780Y-131971716D01*
X69312722Y-131887748D01*
X69310571Y-131786721D01*
X69310323Y-131736813D01*
X69309508Y-131637835D01*
X69307257Y-131552236D01*
X69303859Y-131486334D01*
X69299604Y-131446446D01*
X69296596Y-131437506D01*
X69266486Y-131434349D01*
X69211995Y-131441528D01*
X69142831Y-131456792D01*
X69068700Y-131477888D01*
X68999310Y-131502566D01*
X68978943Y-131511185D01*
X68905569Y-131537957D01*
X68856754Y-131540312D01*
X68829257Y-131517235D01*
X68819838Y-131467708D01*
X68819765Y-131461292D01*
X68825072Y-131427196D01*
X68847138Y-131404224D01*
X68895177Y-131382946D01*
X68896983Y-131382284D01*
X68983099Y-131356038D01*
X69089435Y-131331749D01*
X69209592Y-131310068D01*
X69337172Y-131291645D01*
X69465776Y-131277131D01*
X69589006Y-131267178D01*
X69700464Y-131262436D01*
X69793751Y-131263556D01*
G37*
G36*
X64230865Y-118619820D02*
G01*
X64238203Y-118620272D01*
X64289609Y-118624975D01*
X64314420Y-118635570D01*
X64322323Y-118659950D01*
X64322984Y-118689339D01*
X64321140Y-118728015D01*
X64309151Y-118747399D01*
X64277328Y-118755383D01*
X64238203Y-118758405D01*
X64184722Y-118759399D01*
X64156434Y-118751045D01*
X64142663Y-118729829D01*
X64141592Y-118726610D01*
X64137120Y-118677699D01*
X64141592Y-118652068D01*
X64154431Y-118629247D01*
X64180630Y-118619669D01*
X64230865Y-118619820D01*
G37*
G36*
X61443227Y-106098352D02*
G01*
X61473899Y-106125881D01*
X61473712Y-106162463D01*
X61442627Y-106213085D01*
X61442328Y-106213466D01*
X61422587Y-106245603D01*
X61391808Y-106303938D01*
X61353363Y-106381309D01*
X61310624Y-106470555D01*
X61266962Y-106564513D01*
X61225749Y-106656023D01*
X61190357Y-106737924D01*
X61164157Y-106803053D01*
X61161910Y-106809078D01*
X61139102Y-106863795D01*
X61115700Y-106909874D01*
X61113471Y-106913548D01*
X61078293Y-106943883D01*
X61034462Y-106951123D01*
X60997350Y-106933200D01*
X60994316Y-106929575D01*
X60978588Y-106899385D01*
X60954777Y-106842143D01*
X60925655Y-106765473D01*
X60893998Y-106677000D01*
X60862577Y-106584349D01*
X60834167Y-106495144D01*
X60824148Y-106461728D01*
X60801021Y-106388881D01*
X60777281Y-106323778D01*
X60757698Y-106279406D01*
X60756063Y-106276454D01*
X60739995Y-106222874D01*
X60749687Y-106174763D01*
X60780946Y-106142425D01*
X60813789Y-106134689D01*
X60842895Y-106137837D01*
X60865518Y-106151021D01*
X60884768Y-106179854D01*
X60903758Y-106229947D01*
X60925599Y-106306913D01*
X60939719Y-106361799D01*
X60971609Y-106479599D01*
X61001313Y-106573166D01*
X61027614Y-106639249D01*
X61049295Y-106674593D01*
X61058680Y-106679754D01*
X61071341Y-106664203D01*
X61095817Y-106621658D01*
X61129049Y-106558276D01*
X61167978Y-106480216D01*
X61209543Y-106393637D01*
X61250687Y-106304697D01*
X61288348Y-106219555D01*
X61294832Y-106204376D01*
X61335189Y-106132232D01*
X61379906Y-106094430D01*
X61427796Y-106091816D01*
X61443227Y-106098352D01*
G37*
G36*
X62161269Y-117818453D02*
G01*
X62219958Y-117822423D01*
X62250253Y-117828264D01*
X62274478Y-117853547D01*
X62276030Y-117891014D01*
X62256282Y-117921746D01*
X62227203Y-117931263D01*
X62171750Y-117939425D01*
X62099874Y-117945731D01*
X62021528Y-117949684D01*
X61946665Y-117950785D01*
X61885237Y-117948534D01*
X61847196Y-117942433D01*
X61846753Y-117942272D01*
X61814219Y-117915215D01*
X61808898Y-117877354D01*
X61831450Y-117842691D01*
X61841747Y-117836044D01*
X61874553Y-117828192D01*
X61933280Y-117822310D01*
X62007557Y-117818594D01*
X62087011Y-117817243D01*
X62161269Y-117818453D01*
G37*
G36*
X63363730Y-115333485D02*
G01*
X63379409Y-115347408D01*
X63422201Y-115387609D01*
X63410867Y-117002136D01*
X63399532Y-118616664D01*
X63438194Y-118616664D01*
X63479373Y-118631829D01*
X63502634Y-118668777D01*
X63501140Y-118714684D01*
X63496303Y-118725676D01*
X63466330Y-118754786D01*
X63441157Y-118762014D01*
X63429577Y-118763467D01*
X63420805Y-118770785D01*
X63414444Y-118788405D01*
X63410095Y-118820765D01*
X63407360Y-118872302D01*
X63405841Y-118947455D01*
X63405140Y-119050660D01*
X63404887Y-119166270D01*
X63404740Y-119226195D01*
X63404424Y-119320413D01*
X63403948Y-119446879D01*
X63403321Y-119603549D01*
X63402553Y-119788377D01*
X63401652Y-119999320D01*
X63400628Y-120234334D01*
X63399490Y-120491372D01*
X63398246Y-120768392D01*
X63396907Y-121063347D01*
X63395480Y-121374195D01*
X63393976Y-121698890D01*
X63392403Y-122035388D01*
X63390770Y-122381644D01*
X63389087Y-122735614D01*
X63387632Y-123039132D01*
X63385528Y-123468625D01*
X63383507Y-123863128D01*
X63381555Y-124223991D01*
X63379655Y-124552561D01*
X63377793Y-124850187D01*
X63375952Y-125118218D01*
X63374118Y-125358001D01*
X63372273Y-125570885D01*
X63370404Y-125758218D01*
X63368493Y-125921348D01*
X63366527Y-126061625D01*
X63364488Y-126180395D01*
X63362362Y-126279008D01*
X63360132Y-126358813D01*
X63357784Y-126421156D01*
X63355301Y-126467387D01*
X63352669Y-126498854D01*
X63349870Y-126516905D01*
X63347325Y-126522724D01*
X63363434Y-126523880D01*
X63414555Y-126525014D01*
X63499361Y-126526124D01*
X63616525Y-126527205D01*
X63764721Y-126528254D01*
X63942622Y-126529269D01*
X64148903Y-126530245D01*
X64382237Y-126531178D01*
X64641297Y-126532067D01*
X64924758Y-126532907D01*
X65231292Y-126533695D01*
X65559573Y-126534428D01*
X65908275Y-126535103D01*
X66276072Y-126535715D01*
X66661636Y-126536262D01*
X67063643Y-126536740D01*
X67480765Y-126537146D01*
X67911675Y-126537476D01*
X68355048Y-126537728D01*
X68809558Y-126537897D01*
X69273877Y-126537981D01*
X69370704Y-126537988D01*
X69927590Y-126538019D01*
X70449283Y-126538066D01*
X70936925Y-126538134D01*
X71391661Y-126538228D01*
X71814634Y-126538356D01*
X72206989Y-126538523D01*
X72569868Y-126538735D01*
X72904416Y-126538998D01*
X73211777Y-126539318D01*
X73493093Y-126539702D01*
X73749509Y-126540156D01*
X73982170Y-126540685D01*
X74192217Y-126541296D01*
X74380795Y-126541994D01*
X74549049Y-126542786D01*
X74698121Y-126543678D01*
X74829155Y-126544676D01*
X74943296Y-126545786D01*
X75041686Y-126547014D01*
X75125471Y-126548367D01*
X75195792Y-126549849D01*
X75253795Y-126551468D01*
X75300622Y-126553229D01*
X75337418Y-126555138D01*
X75365327Y-126557202D01*
X75385492Y-126559427D01*
X75399056Y-126561818D01*
X75407165Y-126564382D01*
X75410960Y-126567125D01*
X75411587Y-126570053D01*
X75411585Y-126570061D01*
X75409813Y-126572991D01*
X75404896Y-126575739D01*
X75395689Y-126578311D01*
X75381045Y-126580713D01*
X75359817Y-126582954D01*
X75330860Y-126585039D01*
X75293026Y-126586976D01*
X75245170Y-126588772D01*
X75186145Y-126590433D01*
X75114805Y-126591967D01*
X75030004Y-126593379D01*
X74930594Y-126594678D01*
X74815430Y-126595870D01*
X74683366Y-126596962D01*
X74533254Y-126597961D01*
X74363950Y-126598873D01*
X74174305Y-126599706D01*
X73963174Y-126600466D01*
X73729411Y-126601161D01*
X73471869Y-126601798D01*
X73189401Y-126602382D01*
X72880862Y-126602921D01*
X72545105Y-126603423D01*
X72180984Y-126603893D01*
X71787352Y-126604339D01*
X71363063Y-126604767D01*
X70906971Y-126605185D01*
X70417929Y-126605600D01*
X69894790Y-126606017D01*
X69362146Y-126606426D01*
X63318829Y-126610995D01*
X63289634Y-126566437D01*
X63286838Y-126560158D01*
X63284246Y-126549371D01*
X63281856Y-126532886D01*
X63279667Y-126509512D01*
X63277677Y-126478057D01*
X63275885Y-126437331D01*
X63274289Y-126386143D01*
X63272888Y-126323301D01*
X63271681Y-126247615D01*
X63270667Y-126157894D01*
X63269843Y-126052946D01*
X63269209Y-125931581D01*
X63268764Y-125792608D01*
X63268505Y-125634835D01*
X63268431Y-125457072D01*
X63268542Y-125258128D01*
X63268835Y-125036811D01*
X63269309Y-124791931D01*
X63269964Y-124522297D01*
X63270797Y-124226718D01*
X63271807Y-123904002D01*
X63272992Y-123552960D01*
X63274353Y-123172399D01*
X63275886Y-122761128D01*
X63277590Y-122317958D01*
X63279465Y-121841696D01*
X63281509Y-121331152D01*
X63283097Y-120938620D01*
X63284966Y-120490303D01*
X63286892Y-120051306D01*
X63288868Y-119623027D01*
X63290883Y-119206861D01*
X63292928Y-118804203D01*
X63294993Y-118416448D01*
X63297069Y-118044993D01*
X63299147Y-117691233D01*
X63301216Y-117356563D01*
X63303267Y-117042380D01*
X63305292Y-116750078D01*
X63307280Y-116481053D01*
X63309222Y-116236701D01*
X63311108Y-116018417D01*
X63312930Y-115827598D01*
X63314677Y-115665638D01*
X63316340Y-115533933D01*
X63317909Y-115433879D01*
X63319376Y-115366871D01*
X63320730Y-115334305D01*
X63321186Y-115331284D01*
X63337867Y-115319654D01*
X63363730Y-115333485D01*
G37*
G36*
X71280852Y-115668803D02*
G01*
X71351139Y-115703719D01*
X71407567Y-115750814D01*
X71421047Y-115768621D01*
X71425554Y-115793173D01*
X71429542Y-115848072D01*
X71432772Y-115927326D01*
X71435007Y-116024944D01*
X71436009Y-116134938D01*
X71436031Y-116145705D01*
X71452998Y-116984831D01*
X71501019Y-117832976D01*
X71579391Y-118681496D01*
X71687412Y-119521746D01*
X71735588Y-119833974D01*
X71857054Y-120554934D01*
X71983963Y-121246365D01*
X72117635Y-121914841D01*
X72259390Y-122566938D01*
X72410549Y-123209228D01*
X72426949Y-123276079D01*
X72486325Y-123514588D01*
X72540385Y-123725404D01*
X72591391Y-123916370D01*
X72641611Y-124095329D01*
X72693307Y-124270125D01*
X72748745Y-124448602D01*
X72810189Y-124638604D01*
X72879905Y-124847974D01*
X72886224Y-124866735D01*
X72948508Y-125050364D01*
X73001646Y-125204132D01*
X73047467Y-125332818D01*
X73087800Y-125441203D01*
X73124475Y-125534065D01*
X73159321Y-125616183D01*
X73194169Y-125692338D01*
X73230847Y-125767308D01*
X73231304Y-125768215D01*
X73300631Y-125906001D01*
X73339858Y-125759441D01*
X73382652Y-125614639D01*
X73435966Y-125462639D01*
X73502147Y-125297577D01*
X73583541Y-125113593D01*
X73678929Y-124912157D01*
X73788169Y-124690746D01*
X73892474Y-124487457D01*
X73995838Y-124295388D01*
X74102254Y-124107637D01*
X74215715Y-123917303D01*
X74340214Y-123717484D01*
X74479743Y-123501276D01*
X74603921Y-123313302D01*
X74680459Y-123198896D01*
X74751830Y-123093530D01*
X74820989Y-122993134D01*
X74890888Y-122893637D01*
X74964479Y-122790969D01*
X75044718Y-122681059D01*
X75134555Y-122559837D01*
X75236945Y-122423232D01*
X75354839Y-122267174D01*
X75491193Y-122087592D01*
X75533188Y-122032400D01*
X75637376Y-121895017D01*
X75742939Y-121754902D01*
X75845836Y-121617484D01*
X75942025Y-121488194D01*
X76027462Y-121372459D01*
X76098108Y-121275711D01*
X76141844Y-121214804D01*
X76249648Y-121065160D01*
X76340872Y-120944322D01*
X76417871Y-120850082D01*
X76483001Y-120780232D01*
X76538618Y-120732565D01*
X76587077Y-120704872D01*
X76630735Y-120694946D01*
X76671945Y-120700579D01*
X76685302Y-120705431D01*
X76733043Y-120740898D01*
X76764780Y-120793791D01*
X76773102Y-120850051D01*
X76769823Y-120865808D01*
X76752663Y-120891050D01*
X76713886Y-120934525D01*
X76659060Y-120990355D01*
X76593753Y-121052661D01*
X76586622Y-121059240D01*
X76519121Y-121123283D01*
X76450287Y-121192913D01*
X76377809Y-121270909D01*
X76299380Y-121360049D01*
X76212688Y-121463111D01*
X76115424Y-121582873D01*
X76005278Y-121722113D01*
X75879942Y-121883610D01*
X75737105Y-122070140D01*
X75640702Y-122196997D01*
X75393783Y-122525887D01*
X75169535Y-122831651D01*
X74965773Y-123117671D01*
X74780310Y-123387328D01*
X74610962Y-123644003D01*
X74455543Y-123891076D01*
X74311867Y-124131930D01*
X74177749Y-124369943D01*
X74051003Y-124608499D01*
X73942919Y-124823417D01*
X73822028Y-125078727D01*
X73722102Y-125309689D01*
X73641633Y-125520508D01*
X73579111Y-125715393D01*
X73533030Y-125898548D01*
X73506980Y-126039519D01*
X73486847Y-126143325D01*
X73461546Y-126213697D01*
X73427397Y-126253508D01*
X73380720Y-126265631D01*
X73317835Y-126252940D01*
X73262040Y-126230758D01*
X73236008Y-126217695D01*
X73212878Y-126201103D01*
X73190713Y-126177242D01*
X73167578Y-126142375D01*
X73141535Y-126092764D01*
X73110650Y-126024671D01*
X73072987Y-125934358D01*
X73026608Y-125818087D01*
X72969579Y-125672120D01*
X72960204Y-125647994D01*
X72826102Y-125287665D01*
X72692188Y-124898718D01*
X72560828Y-124488808D01*
X72434387Y-124065587D01*
X72315232Y-123636711D01*
X72205727Y-123209834D01*
X72202143Y-123195204D01*
X72145146Y-122960056D01*
X72092388Y-122737440D01*
X72042878Y-122522568D01*
X71995625Y-122310653D01*
X71949636Y-122096906D01*
X71903922Y-121876539D01*
X71857490Y-121644766D01*
X71809350Y-121396797D01*
X71758510Y-121127846D01*
X71703979Y-120833124D01*
X71644766Y-120507843D01*
X71637905Y-120469882D01*
X71549758Y-119964939D01*
X71473298Y-119489524D01*
X71408008Y-119038939D01*
X71353368Y-118608485D01*
X71308862Y-118193464D01*
X71273970Y-117789178D01*
X71248175Y-117390928D01*
X71230959Y-116994017D01*
X71223716Y-116713480D01*
X71220649Y-116571714D01*
X71217090Y-116442305D01*
X71213216Y-116329536D01*
X71209205Y-116237689D01*
X71205235Y-116171047D01*
X71201483Y-116133893D01*
X71199415Y-116127536D01*
X71178264Y-116139879D01*
X71162537Y-116156000D01*
X71138600Y-116175514D01*
X71089811Y-116208776D01*
X71022833Y-116251441D01*
X70944328Y-116299168D01*
X70928188Y-116308728D01*
X70824269Y-116371195D01*
X70733479Y-116429077D01*
X70650573Y-116486646D01*
X70570303Y-116548176D01*
X70487425Y-116617937D01*
X70396691Y-116700203D01*
X70292856Y-116799246D01*
X70170674Y-116919338D01*
X70135576Y-116954217D01*
X70027300Y-117063245D01*
X69908492Y-117185109D01*
X69781611Y-117317118D01*
X69649117Y-117456578D01*
X69513471Y-117600797D01*
X69377131Y-117747083D01*
X69242558Y-117892742D01*
X69112213Y-118035083D01*
X68988554Y-118171412D01*
X68874042Y-118299038D01*
X68771136Y-118415267D01*
X68682298Y-118517407D01*
X68609986Y-118602766D01*
X68556660Y-118668650D01*
X68524781Y-118712368D01*
X68517598Y-118725204D01*
X68494434Y-118763020D01*
X68469624Y-118780100D01*
X68468144Y-118780183D01*
X68446212Y-118794034D01*
X68403933Y-118833890D01*
X68343441Y-118897208D01*
X68266868Y-118981441D01*
X68176346Y-119084046D01*
X68074009Y-119202477D01*
X67961989Y-119334190D01*
X67842419Y-119476640D01*
X67717431Y-119627282D01*
X67589159Y-119783572D01*
X67459734Y-119942964D01*
X67331289Y-120102915D01*
X67205958Y-120260879D01*
X67085872Y-120414311D01*
X66973165Y-120560667D01*
X66945472Y-120597064D01*
X66699014Y-120928056D01*
X66452475Y-121271146D01*
X66207392Y-121623705D01*
X65965297Y-121983104D01*
X65727728Y-122346716D01*
X65496218Y-122711911D01*
X65272304Y-123076062D01*
X65057519Y-123436539D01*
X64853401Y-123790714D01*
X64661482Y-124135959D01*
X64483300Y-124469645D01*
X64320388Y-124789144D01*
X64174283Y-125091826D01*
X64046519Y-125375064D01*
X63938631Y-125636230D01*
X63852155Y-125872693D01*
X63836354Y-125920526D01*
X63799932Y-126029473D01*
X63770139Y-126107986D01*
X63744237Y-126160738D01*
X63719488Y-126192405D01*
X63693154Y-126207663D01*
X63666091Y-126211227D01*
X63618457Y-126196939D01*
X63576165Y-126162098D01*
X63552373Y-126118736D01*
X63550809Y-126105784D01*
X63557573Y-126066795D01*
X63576520Y-126000046D01*
X63605632Y-125911229D01*
X63642892Y-125806032D01*
X63686281Y-125690144D01*
X63733781Y-125569254D01*
X63783376Y-125449053D01*
X63785480Y-125444093D01*
X63911819Y-125159734D01*
X64059370Y-124850999D01*
X64226117Y-124521459D01*
X64410046Y-124174681D01*
X64609139Y-123814235D01*
X64821383Y-123443690D01*
X65044762Y-123066616D01*
X65277259Y-122686581D01*
X65516860Y-122307155D01*
X65761550Y-121931908D01*
X65809504Y-121859797D01*
X66220456Y-121262393D01*
X66659671Y-120658914D01*
X67121565Y-120056502D01*
X67600555Y-119462301D01*
X68091056Y-118883453D01*
X68472668Y-118453144D01*
X68741368Y-118157562D01*
X69001601Y-117873780D01*
X69251904Y-117603323D01*
X69490816Y-117347713D01*
X69716874Y-117108477D01*
X69928617Y-116887139D01*
X70124582Y-116685223D01*
X70303308Y-116504253D01*
X70463332Y-116345754D01*
X70603193Y-116211251D01*
X70721429Y-116102267D01*
X70759340Y-116068771D01*
X70864382Y-115970405D01*
X70949365Y-115876675D01*
X70999892Y-115807655D01*
X71049185Y-115735023D01*
X71091255Y-115689421D01*
X71134313Y-115664981D01*
X71186569Y-115655838D01*
X71213324Y-115655147D01*
X71280852Y-115668803D01*
G37*
G36*
X64720608Y-118627746D02*
G01*
X64754867Y-118657673D01*
X64759392Y-118701466D01*
X64749951Y-118725676D01*
X64726966Y-118750087D01*
X64685657Y-118760658D01*
X64649730Y-118762014D01*
X64598349Y-118759439D01*
X64571872Y-118747990D01*
X64559010Y-118722080D01*
X64557496Y-118716356D01*
X64557868Y-118664103D01*
X64588824Y-118630535D01*
X64649062Y-118616910D01*
X64660692Y-118616664D01*
X64720608Y-118627746D01*
G37*
G36*
X68458936Y-121061202D02*
G01*
X68490871Y-121093060D01*
X68506998Y-121139676D01*
X68500818Y-121193920D01*
X68496366Y-121204987D01*
X68467105Y-121237293D01*
X68425282Y-121252151D01*
X68384532Y-121247838D01*
X68358494Y-121222634D01*
X68358404Y-121222402D01*
X68347760Y-121167789D01*
X68352271Y-121112677D01*
X68370298Y-121073433D01*
X68373629Y-121070283D01*
X68417690Y-121051233D01*
X68458936Y-121061202D01*
G37*
G36*
X68041457Y-118627758D02*
G01*
X68076720Y-118650867D01*
X68105100Y-118679717D01*
X68106816Y-118708473D01*
X68097291Y-118732626D01*
X68075428Y-118765149D01*
X68041077Y-118778404D01*
X68006192Y-118780183D01*
X67955206Y-118774789D01*
X67918793Y-118761501D01*
X67914958Y-118758380D01*
X67894323Y-118716459D01*
X67906358Y-118672206D01*
X67933536Y-118644947D01*
X67989326Y-118619355D01*
X68041457Y-118627758D01*
G37*
G36*
X68478609Y-123155007D02*
G01*
X68505564Y-123197710D01*
X68510895Y-123242962D01*
X68499364Y-123299680D01*
X68469830Y-123341849D01*
X68429886Y-123358718D01*
X68429136Y-123358724D01*
X68397215Y-123346810D01*
X68375927Y-123330173D01*
X68354934Y-123289564D01*
X68348087Y-123235151D01*
X68356097Y-123184562D01*
X68369179Y-123162500D01*
X68404600Y-123144298D01*
X68429136Y-123140698D01*
X68478609Y-123155007D01*
G37*
G36*
X68466832Y-120226283D02*
G01*
X68479289Y-120246392D01*
X68483389Y-120288830D01*
X68483642Y-120315447D01*
X68482306Y-120369414D01*
X68474494Y-120397001D01*
X68454506Y-120408160D01*
X68428483Y-120411695D01*
X68385401Y-120411665D01*
X68360350Y-120404124D01*
X68349070Y-120372899D01*
X68347820Y-120323740D01*
X68355301Y-120273241D01*
X68370214Y-120237996D01*
X68373629Y-120234518D01*
X68411843Y-120219408D01*
X68441762Y-120218667D01*
X68466832Y-120226283D01*
G37*
G36*
X68478609Y-122737124D02*
G01*
X68505564Y-122779827D01*
X68510895Y-122825080D01*
X68499364Y-122881797D01*
X68469830Y-122923966D01*
X68429886Y-122940835D01*
X68429136Y-122940841D01*
X68397215Y-122928928D01*
X68375927Y-122912290D01*
X68354934Y-122871681D01*
X68348087Y-122817268D01*
X68356097Y-122766679D01*
X68369179Y-122744618D01*
X68404600Y-122726415D01*
X68429136Y-122722815D01*
X68478609Y-122737124D01*
G37*
G36*
X66385138Y-118623046D02*
G01*
X66417782Y-118638400D01*
X66417848Y-118638466D01*
X66439086Y-118679987D01*
X66431105Y-118723195D01*
X66399426Y-118759119D01*
X66349569Y-118778787D01*
X66330638Y-118780183D01*
X66282047Y-118770488D01*
X66250176Y-118751632D01*
X66225513Y-118708259D01*
X66232133Y-118666642D01*
X66265390Y-118633970D01*
X66320638Y-118617434D01*
X66337386Y-118616664D01*
X66385138Y-118623046D01*
G37*
G36*
X62351668Y-114619525D02*
G01*
X62382340Y-114647054D01*
X62382153Y-114683636D01*
X62351067Y-114734258D01*
X62350768Y-114734639D01*
X62331027Y-114766777D01*
X62300248Y-114825112D01*
X62261804Y-114902483D01*
X62219065Y-114991728D01*
X62175403Y-115085686D01*
X62134190Y-115177196D01*
X62098798Y-115259097D01*
X62072597Y-115324226D01*
X62070350Y-115330251D01*
X62047543Y-115384968D01*
X62024141Y-115431047D01*
X62021911Y-115434722D01*
X61986734Y-115465056D01*
X61942902Y-115472296D01*
X61905791Y-115454373D01*
X61902757Y-115450748D01*
X61887029Y-115420559D01*
X61863217Y-115363316D01*
X61834096Y-115286646D01*
X61802438Y-115198173D01*
X61771018Y-115105522D01*
X61742608Y-115016317D01*
X61732588Y-114982901D01*
X61709462Y-114910054D01*
X61685721Y-114844951D01*
X61666138Y-114800579D01*
X61664504Y-114797627D01*
X61648435Y-114744047D01*
X61658128Y-114695936D01*
X61689387Y-114663598D01*
X61722230Y-114655862D01*
X61751336Y-114659010D01*
X61773958Y-114672194D01*
X61793208Y-114701027D01*
X61812198Y-114751120D01*
X61834039Y-114828086D01*
X61848159Y-114882973D01*
X61880050Y-115000772D01*
X61909754Y-115094340D01*
X61936055Y-115160422D01*
X61957735Y-115195766D01*
X61967121Y-115200927D01*
X61979782Y-115185376D01*
X62004258Y-115142831D01*
X62037490Y-115079449D01*
X62076418Y-115001389D01*
X62117984Y-114914810D01*
X62159127Y-114825870D01*
X62196789Y-114740728D01*
X62203272Y-114725549D01*
X62243630Y-114653405D01*
X62288347Y-114615603D01*
X62336237Y-114612990D01*
X62351668Y-114619525D01*
G37*
G36*
X70177336Y-132364187D02*
G01*
X70195361Y-132365778D01*
X70222298Y-132392430D01*
X70229405Y-132436432D01*
X70214620Y-132483441D01*
X70212704Y-132486486D01*
X70204556Y-132497922D01*
X70194134Y-132507125D01*
X70177578Y-132514434D01*
X70151029Y-132520185D01*
X70110625Y-132524716D01*
X70052507Y-132528365D01*
X69972815Y-132531468D01*
X69867689Y-132534364D01*
X69733269Y-132537389D01*
X69597999Y-132540212D01*
X69450311Y-132543499D01*
X69309893Y-132547060D01*
X69182047Y-132550729D01*
X69072075Y-132554338D01*
X68985279Y-132557720D01*
X68926962Y-132560705D01*
X68910609Y-132561952D01*
X68844713Y-132564068D01*
X68794231Y-132557838D01*
X68778885Y-132551856D01*
X68752449Y-132520672D01*
X68747090Y-132498958D01*
X68750265Y-132473017D01*
X68762607Y-132452844D01*
X68788343Y-132437478D01*
X68831697Y-132425964D01*
X68896895Y-132417343D01*
X68988163Y-132410655D01*
X69109727Y-132404944D01*
X69172266Y-132402554D01*
X69313299Y-132397147D01*
X69469531Y-132390765D01*
X69626960Y-132384007D01*
X69771585Y-132377467D01*
X69855387Y-132373454D01*
X69960202Y-132368776D01*
X70053030Y-132365576D01*
X70127525Y-132363999D01*
X70177336Y-132364187D01*
G37*
G36*
X68950951Y-105930034D02*
G01*
X68979291Y-105942989D01*
X69032349Y-105959716D01*
X69099216Y-105976818D01*
X69106738Y-105978530D01*
X69258522Y-106019455D01*
X69382640Y-106067071D01*
X69477814Y-106120000D01*
X69542771Y-106176866D01*
X69576233Y-106236292D01*
X69576924Y-106296901D01*
X69543569Y-106357315D01*
X69497429Y-106400168D01*
X69436931Y-106437389D01*
X69372050Y-106464496D01*
X69346607Y-106470821D01*
X69302028Y-106481398D01*
X69278672Y-106492992D01*
X69277598Y-106496832D01*
X69292969Y-106513776D01*
X69329755Y-106548247D01*
X69381571Y-106594367D01*
X69414794Y-106623110D01*
X69478646Y-106679752D01*
X69518469Y-106721077D01*
X69539341Y-106753525D01*
X69546336Y-106783534D01*
X69546518Y-106790187D01*
X69538936Y-106837266D01*
X69515489Y-106853898D01*
X69475120Y-106839988D01*
X69416772Y-106795440D01*
X69396105Y-106776558D01*
X69338209Y-106725006D01*
X69263456Y-106662419D01*
X69184357Y-106599157D01*
X69150276Y-106572926D01*
X69064366Y-106503622D01*
X69008165Y-106447350D01*
X68979119Y-106400428D01*
X68974672Y-106359175D01*
X68983921Y-106333357D01*
X69017722Y-106304628D01*
X69069413Y-106302447D01*
X69128635Y-106325462D01*
X69182315Y-106344246D01*
X69246788Y-106349923D01*
X69313160Y-106344202D01*
X69372537Y-106328789D01*
X69416026Y-106305394D01*
X69434732Y-106275724D01*
X69434361Y-106266756D01*
X69414532Y-106240716D01*
X69368891Y-106208333D01*
X69306341Y-106174010D01*
X69235781Y-106142147D01*
X69166113Y-106117147D01*
X69106239Y-106103411D01*
X69103318Y-106103060D01*
X69034382Y-106099416D01*
X68973289Y-106103353D01*
X68927734Y-106113408D01*
X68905410Y-106128116D01*
X68907651Y-106140305D01*
X68913849Y-106165084D01*
X68919435Y-106219014D01*
X68924252Y-106294914D01*
X68928143Y-106385600D01*
X68930953Y-106483890D01*
X68932524Y-106582600D01*
X68932700Y-106674549D01*
X68931323Y-106752552D01*
X68928239Y-106809427D01*
X68923289Y-106837992D01*
X68922878Y-106838731D01*
X68893374Y-106857131D01*
X68851028Y-106860012D01*
X68815367Y-106847243D01*
X68808350Y-106839501D01*
X68803368Y-106815078D01*
X68797737Y-106760480D01*
X68791912Y-106681852D01*
X68786351Y-106585339D01*
X68781650Y-106480667D01*
X68777214Y-106361998D01*
X68774729Y-106274301D01*
X68774520Y-106212247D01*
X68776914Y-106170507D01*
X68782240Y-106143751D01*
X68790822Y-106126650D01*
X68802989Y-106113875D01*
X68804209Y-106112809D01*
X68830171Y-106081109D01*
X68836768Y-106058302D01*
X68836922Y-105989895D01*
X68860371Y-105946304D01*
X68882818Y-105931772D01*
X68929024Y-105921012D01*
X68950951Y-105930034D01*
G37*
G36*
X62548402Y-117366488D02*
G01*
X62596947Y-117372100D01*
X62590342Y-117789983D01*
X62587742Y-117911146D01*
X62584082Y-118021309D01*
X62579652Y-118114872D01*
X62574742Y-118186236D01*
X62569645Y-118229803D01*
X62566991Y-118239661D01*
X62535629Y-118266891D01*
X62494088Y-118267076D01*
X62460571Y-118244070D01*
X62447789Y-118210438D01*
X62445299Y-118149796D01*
X62448967Y-118094178D01*
X62454604Y-118015597D01*
X62459381Y-117919316D01*
X62462404Y-117823972D01*
X62462696Y-117808151D01*
X62463326Y-117730563D01*
X62461318Y-117682604D01*
X62455350Y-117657588D01*
X62444099Y-117648833D01*
X62431195Y-117648941D01*
X62385386Y-117648742D01*
X62342796Y-117639713D01*
X62317496Y-117625400D01*
X62315330Y-117619742D01*
X62325625Y-117599227D01*
X62353044Y-117557754D01*
X62392391Y-117503041D01*
X62407593Y-117482752D01*
X62455566Y-117421772D01*
X62490004Y-117385625D01*
X62517483Y-117368880D01*
X62544580Y-117366107D01*
X62548402Y-117366488D01*
G37*
G36*
X63879600Y-118626487D02*
G01*
X63917650Y-118653848D01*
X63925206Y-118695588D01*
X63914186Y-118725676D01*
X63882694Y-118750943D01*
X63832612Y-118762339D01*
X63779254Y-118759076D01*
X63737928Y-118740370D01*
X63732693Y-118734997D01*
X63719121Y-118695728D01*
X63721730Y-118662321D01*
X63733483Y-118633644D01*
X63757086Y-118620302D01*
X63803826Y-118616707D01*
X63813964Y-118616664D01*
X63879600Y-118626487D01*
G37*
G36*
X74119435Y-109761798D02*
G01*
X74146680Y-109800920D01*
X74179588Y-109865598D01*
X74215775Y-109958203D01*
X74232039Y-110037741D01*
X74227772Y-110098531D01*
X74207979Y-110130864D01*
X74171019Y-110142349D01*
X74133270Y-110123382D01*
X74101831Y-110078982D01*
X74090387Y-110047706D01*
X74057484Y-109969603D01*
X74012723Y-109925255D01*
X73958538Y-109915322D01*
X73897361Y-109940469D01*
X73849131Y-109981935D01*
X73777751Y-110071934D01*
X73735563Y-110160282D01*
X73723366Y-110242889D01*
X73741957Y-110315663D01*
X73775309Y-110360115D01*
X73862965Y-110426198D01*
X73960699Y-110462354D01*
X74075826Y-110470936D01*
X74112738Y-110468671D01*
X74199394Y-110464742D01*
X74254694Y-110471550D01*
X74282334Y-110490256D01*
X74286013Y-110522021D01*
X74285823Y-110523026D01*
X74262328Y-110555553D01*
X74211408Y-110580074D01*
X74141340Y-110595337D01*
X74060403Y-110600090D01*
X73976876Y-110593083D01*
X73916117Y-110578920D01*
X73790206Y-110525616D01*
X73692450Y-110454543D01*
X73625542Y-110367680D01*
X73623794Y-110364383D01*
X73600062Y-110282332D01*
X73603118Y-110186333D01*
X73630995Y-110084654D01*
X73681726Y-109985562D01*
X73728789Y-109923285D01*
X73800558Y-109851690D01*
X73868070Y-109808664D01*
X73940860Y-109789155D01*
X73986818Y-109786621D01*
X74038454Y-109782898D01*
X74073270Y-109773512D01*
X74079636Y-109768452D01*
X74098033Y-109751895D01*
X74119435Y-109761798D01*
G37*
G36*
X65377917Y-132670678D02*
G01*
X65382297Y-132352731D01*
X65384767Y-132014446D01*
X65385537Y-131676570D01*
X65385316Y-131419817D01*
X65384502Y-131194636D01*
X65383107Y-131001706D01*
X65381140Y-130841704D01*
X65378614Y-130715310D01*
X65375537Y-130623200D01*
X65371922Y-130566055D01*
X65367779Y-130544551D01*
X65367691Y-130544489D01*
X65349780Y-130515971D01*
X65358572Y-130477613D01*
X65390928Y-130440308D01*
X65399486Y-130434233D01*
X65442392Y-130403697D01*
X65473459Y-130377637D01*
X65496965Y-130372180D01*
X65553853Y-130367427D01*
X65641174Y-130363372D01*
X65755979Y-130360011D01*
X65895320Y-130357338D01*
X66056247Y-130355349D01*
X66235813Y-130354038D01*
X66431068Y-130353399D01*
X66639064Y-130353429D01*
X66856851Y-130354122D01*
X67081481Y-130355472D01*
X67310005Y-130357476D01*
X67539475Y-130360126D01*
X67766941Y-130363420D01*
X67989455Y-130367350D01*
X68204068Y-130371913D01*
X68407831Y-130377104D01*
X68597796Y-130382916D01*
X68601739Y-130383049D01*
X68908560Y-130393309D01*
X69180968Y-130402191D01*
X69420864Y-130409727D01*
X69630145Y-130415952D01*
X69810710Y-130420898D01*
X69964459Y-130424600D01*
X70093288Y-130427089D01*
X70199098Y-130428400D01*
X70283786Y-130428567D01*
X70349252Y-130427622D01*
X70397393Y-130425599D01*
X70430109Y-130422531D01*
X70449297Y-130418453D01*
X70454958Y-130415651D01*
X70498999Y-130394288D01*
X70555759Y-130381734D01*
X70610031Y-130379923D01*
X70646605Y-130390790D01*
X70647108Y-130391197D01*
X70651196Y-130398649D01*
X70654842Y-130415107D01*
X70658070Y-130442475D01*
X70660904Y-130482655D01*
X70663368Y-130537552D01*
X70665487Y-130609067D01*
X70667284Y-130699104D01*
X70668783Y-130809566D01*
X70670010Y-130942357D01*
X70670987Y-131099379D01*
X70671739Y-131282535D01*
X70672290Y-131493729D01*
X70672664Y-131734863D01*
X70672885Y-132007842D01*
X70672978Y-132314567D01*
X70672984Y-132434045D01*
X70673019Y-132751978D01*
X70673061Y-133035534D01*
X70673013Y-133286673D01*
X70672779Y-133507356D01*
X70672262Y-133699543D01*
X70671367Y-133865194D01*
X70669997Y-134006271D01*
X70668056Y-134124733D01*
X70665448Y-134222540D01*
X70662076Y-134301654D01*
X70657845Y-134364034D01*
X70652657Y-134411642D01*
X70646417Y-134446436D01*
X70639029Y-134470379D01*
X70630395Y-134485430D01*
X70620421Y-134493549D01*
X70609010Y-134496698D01*
X70596065Y-134496836D01*
X70581490Y-134495924D01*
X70571768Y-134495689D01*
X70514578Y-134496387D01*
X70473127Y-134497136D01*
X70449602Y-134497187D01*
X70391950Y-134497092D01*
X70302383Y-134496858D01*
X70183111Y-134496493D01*
X70036346Y-134496005D01*
X69864297Y-134495403D01*
X69669176Y-134494694D01*
X69453194Y-134493887D01*
X69218562Y-134492989D01*
X68967490Y-134492009D01*
X68702189Y-134490954D01*
X68424871Y-134489833D01*
X68137746Y-134488654D01*
X68111181Y-134488544D01*
X67743800Y-134487115D01*
X67411009Y-134486037D01*
X67111062Y-134485333D01*
X66842215Y-134485026D01*
X66602720Y-134485139D01*
X66390833Y-134485694D01*
X66204808Y-134486713D01*
X66042898Y-134488221D01*
X65903359Y-134490239D01*
X65784444Y-134492790D01*
X65684408Y-134495897D01*
X65601504Y-134499583D01*
X65533988Y-134503870D01*
X65480113Y-134508781D01*
X65438134Y-134514339D01*
X65406304Y-134520567D01*
X65393675Y-134523932D01*
X65349959Y-134520544D01*
X65331938Y-134505995D01*
X65321765Y-134484720D01*
X65316109Y-134447257D01*
X65314708Y-134387893D01*
X65317300Y-134300914D01*
X65319982Y-134245827D01*
X65337080Y-133905077D01*
X65351211Y-133585487D01*
X65362586Y-133278757D01*
X65363941Y-133232398D01*
X65524878Y-133232398D01*
X65525005Y-133411012D01*
X65526288Y-133584736D01*
X65527050Y-133644849D01*
X65536022Y-134274251D01*
X67536728Y-134285926D01*
X67807822Y-134287627D01*
X68071734Y-134289512D01*
X68325826Y-134291552D01*
X68567461Y-134293714D01*
X68794003Y-134295967D01*
X69002815Y-134298282D01*
X69191259Y-134300626D01*
X69356700Y-134302969D01*
X69496500Y-134305279D01*
X69608022Y-134307526D01*
X69688629Y-134309679D01*
X69735686Y-134311706D01*
X69737290Y-134311817D01*
X69835538Y-134317609D01*
X69954981Y-134322852D01*
X70080479Y-134326965D01*
X70196053Y-134329359D01*
X70454958Y-134332686D01*
X70454864Y-132647529D01*
X70454726Y-132398816D01*
X70454350Y-132157398D01*
X70453756Y-131926162D01*
X70452961Y-131707995D01*
X70451984Y-131505784D01*
X70450842Y-131322416D01*
X70449554Y-131160778D01*
X70448138Y-131023756D01*
X70446612Y-130914237D01*
X70444993Y-130835108D01*
X70443301Y-130789257D01*
X70443197Y-130787623D01*
X70431624Y-130612873D01*
X70284314Y-130596850D01*
X70247785Y-130594841D01*
X70177273Y-130592906D01*
X70075131Y-130591058D01*
X69943714Y-130589314D01*
X69785376Y-130587688D01*
X69602471Y-130586198D01*
X69397353Y-130584857D01*
X69172376Y-130583682D01*
X68929894Y-130582687D01*
X68672262Y-130581889D01*
X68401833Y-130581303D01*
X68120962Y-130580943D01*
X67843205Y-130580827D01*
X65549407Y-130580827D01*
X65546653Y-130626249D01*
X65546156Y-130653597D01*
X65545855Y-130713308D01*
X65545746Y-130801403D01*
X65545824Y-130913908D01*
X65546085Y-131046846D01*
X65546524Y-131196242D01*
X65547136Y-131358120D01*
X65547597Y-131462014D01*
X65548002Y-131646338D01*
X65547582Y-131834783D01*
X65546407Y-132020867D01*
X65544548Y-132198107D01*
X65542077Y-132360021D01*
X65539066Y-132500125D01*
X65535586Y-132611936D01*
X65534686Y-132633902D01*
X65530811Y-132749644D01*
X65527843Y-132893470D01*
X65525845Y-133057135D01*
X65524878Y-133232398D01*
X65363941Y-133232398D01*
X65371418Y-132976587D01*
X65377917Y-132670678D01*
G37*
G36*
X68457424Y-118974309D02*
G01*
X68485004Y-119013331D01*
X68492726Y-119073878D01*
X68485265Y-119129110D01*
X68460542Y-119159411D01*
X68457583Y-119161089D01*
X68422779Y-119176901D01*
X68398699Y-119173000D01*
X68368089Y-119146100D01*
X68365545Y-119143559D01*
X68337043Y-119096581D01*
X68331588Y-119044491D01*
X68346682Y-118997983D01*
X68379827Y-118967751D01*
X68407972Y-118961871D01*
X68457424Y-118974309D01*
G37*
G36*
X75920598Y-126719652D02*
G01*
X75940077Y-126780764D01*
X75941940Y-126794475D01*
X75951024Y-126874389D01*
X76050953Y-126870134D01*
X76120406Y-126869507D01*
X76185227Y-126872676D01*
X76211058Y-126875711D01*
X76252339Y-126886978D01*
X76266290Y-126907310D01*
X76265564Y-126925388D01*
X76257752Y-126946694D01*
X76236557Y-126962873D01*
X76194656Y-126977386D01*
X76124725Y-126993691D01*
X76117965Y-126995121D01*
X76049830Y-127010635D01*
X75996061Y-127025050D01*
X75966143Y-127035762D01*
X75963530Y-127037527D01*
X75958057Y-127061160D01*
X75955555Y-127111748D01*
X75955681Y-127180060D01*
X75958096Y-127256867D01*
X75962459Y-127332937D01*
X75968429Y-127399039D01*
X75975666Y-127445943D01*
X75979032Y-127457775D01*
X76008851Y-127493539D01*
X76058580Y-127499906D01*
X76096659Y-127489505D01*
X76121704Y-127466663D01*
X76149765Y-127422443D01*
X76161090Y-127398661D01*
X76194988Y-127343213D01*
X76230145Y-127320104D01*
X76260219Y-127326142D01*
X76278870Y-127358132D01*
X76279757Y-127412880D01*
X76269766Y-127453404D01*
X76228001Y-127529996D01*
X76158089Y-127587575D01*
X76089031Y-127618696D01*
X76016764Y-127639877D01*
X75964136Y-127643533D01*
X75927931Y-127634403D01*
X75893142Y-127603835D01*
X75866789Y-127542571D01*
X75848426Y-127449010D01*
X75837606Y-127321553D01*
X75836971Y-127307987D01*
X75832235Y-127224266D01*
X75826278Y-127153235D01*
X75819920Y-127103210D01*
X75814860Y-127083495D01*
X75796738Y-127073235D01*
X75758553Y-127076781D01*
X75707554Y-127090194D01*
X75652114Y-127105465D01*
X75619135Y-127108809D01*
X75596513Y-127099516D01*
X75577808Y-127082575D01*
X75551470Y-127050253D01*
X75542226Y-127028824D01*
X75558059Y-126994016D01*
X75597204Y-126961906D01*
X75647128Y-126941159D01*
X75673950Y-126937732D01*
X75744889Y-126934632D01*
X75787016Y-126921538D01*
X75807716Y-126891652D01*
X75814373Y-126838176D01*
X75814758Y-126808109D01*
X75817315Y-126743054D01*
X75826301Y-126706167D01*
X75843690Y-126689552D01*
X75844481Y-126689239D01*
X75887831Y-126688170D01*
X75920598Y-126719652D01*
G37*
G36*
X60508423Y-118295315D02*
G01*
X60551835Y-118315289D01*
X60566985Y-118352217D01*
X60562317Y-118379597D01*
X60543716Y-118406223D01*
X60503976Y-118416919D01*
X60483598Y-118417832D01*
X60421678Y-118424251D01*
X60360516Y-118439238D01*
X60311631Y-118459074D01*
X60286544Y-118480042D01*
X60285920Y-118481627D01*
X60298717Y-118496757D01*
X60338236Y-118523373D01*
X60398247Y-118557648D01*
X60468284Y-118593679D01*
X60550965Y-118637006D01*
X60622615Y-118679636D01*
X60675099Y-118716468D01*
X60696689Y-118736832D01*
X60729047Y-118800362D01*
X60727490Y-118860799D01*
X60692919Y-118912138D01*
X60667741Y-118930146D01*
X60608347Y-118952213D01*
X60526615Y-118966820D01*
X60435973Y-118972918D01*
X60349850Y-118969458D01*
X60294036Y-118959332D01*
X60244846Y-118938183D01*
X60192786Y-118905064D01*
X60148039Y-118867881D01*
X60120787Y-118834543D01*
X60116904Y-118821788D01*
X60126671Y-118795335D01*
X60141691Y-118771399D01*
X60158234Y-118752524D01*
X60176720Y-118748960D01*
X60207727Y-118761949D01*
X60246161Y-118783647D01*
X60308909Y-118814336D01*
X60372871Y-118837165D01*
X60393978Y-118842148D01*
X60452416Y-118847398D01*
X60510112Y-118844173D01*
X60556990Y-118834182D01*
X60582969Y-118819133D01*
X60584854Y-118809808D01*
X60565239Y-118791317D01*
X60515737Y-118760762D01*
X60439985Y-118720098D01*
X60341621Y-118671285D01*
X60231100Y-118619402D01*
X60142019Y-118570979D01*
X60088029Y-118522954D01*
X60067926Y-118473960D01*
X60072906Y-118439654D01*
X60087566Y-118412566D01*
X60114884Y-118389925D01*
X60162417Y-118367108D01*
X60235298Y-118340327D01*
X60347486Y-118307513D01*
X60439417Y-118292616D01*
X60508423Y-118295315D01*
G37*
G36*
X61256966Y-117788722D02*
G01*
X61335636Y-117726947D01*
X61357320Y-117714754D01*
X61426887Y-117694603D01*
X61506773Y-117694570D01*
X61582089Y-117713065D01*
X61633650Y-117744232D01*
X61678404Y-117805042D01*
X61691968Y-117868313D01*
X61678830Y-117929603D01*
X61643476Y-117984471D01*
X61590393Y-118028476D01*
X61524068Y-118057177D01*
X61448987Y-118066133D01*
X61369638Y-118050903D01*
X61337786Y-118037084D01*
X61291765Y-118014631D01*
X61267116Y-118008594D01*
X61252975Y-118018618D01*
X61244028Y-118034033D01*
X61227447Y-118080064D01*
X61234434Y-118122656D01*
X61267609Y-118172662D01*
X61281393Y-118188840D01*
X61352186Y-118250182D01*
X61431817Y-118279790D01*
X61525732Y-118279019D01*
X61588482Y-118265301D01*
X61656602Y-118248842D01*
X61719067Y-118237880D01*
X61751823Y-118235118D01*
X61790942Y-118239988D01*
X61805295Y-118260556D01*
X61806603Y-118279901D01*
X61794624Y-118321117D01*
X61774448Y-118341893D01*
X61746845Y-118351537D01*
X61696283Y-118365295D01*
X61633003Y-118380814D01*
X61567246Y-118395738D01*
X61509253Y-118407715D01*
X61469264Y-118414391D01*
X61457620Y-118414717D01*
X61438115Y-118410108D01*
X61397042Y-118401484D01*
X61388721Y-118399796D01*
X61278199Y-118361102D01*
X61186603Y-118295656D01*
X61120315Y-118208069D01*
X61118459Y-118204517D01*
X61100108Y-118131858D01*
X61108405Y-118046522D01*
X61139728Y-117955936D01*
X61167123Y-117908192D01*
X61334214Y-117908192D01*
X61349802Y-117925268D01*
X61388750Y-117933157D01*
X61439334Y-117932130D01*
X61489829Y-117922463D01*
X61528512Y-117904428D01*
X61529529Y-117903631D01*
X61551631Y-117871600D01*
X61542188Y-117842605D01*
X61505872Y-117822654D01*
X61462360Y-117817236D01*
X61428301Y-117827487D01*
X61386834Y-117852009D01*
X61351126Y-117881457D01*
X61334346Y-117906483D01*
X61334214Y-117908192D01*
X61167123Y-117908192D01*
X61190456Y-117867528D01*
X61256966Y-117788722D01*
G37*
G36*
X61167925Y-108725984D02*
G01*
X61177541Y-108658601D01*
X61197132Y-108582396D01*
X61229145Y-108485493D01*
X61230909Y-108480477D01*
X61262950Y-108396080D01*
X61296571Y-108318289D01*
X61327074Y-108257482D01*
X61343998Y-108230655D01*
X61386864Y-108188443D01*
X61428088Y-108170904D01*
X61460221Y-108179620D01*
X61473568Y-108203134D01*
X61484549Y-108223152D01*
X61509978Y-108230981D01*
X61559741Y-108229194D01*
X61570050Y-108228243D01*
X61669664Y-108234394D01*
X61753885Y-108273457D01*
X61822686Y-108345417D01*
X61854753Y-108400655D01*
X61890409Y-108512620D01*
X61897429Y-108635905D01*
X61878225Y-108762945D01*
X61835209Y-108886180D01*
X61770793Y-108998048D01*
X61687388Y-109090986D01*
X61618656Y-109140930D01*
X61540876Y-109176589D01*
X61462832Y-109195604D01*
X61395506Y-109196097D01*
X61361468Y-109184904D01*
X61272170Y-109114352D01*
X61210186Y-109021132D01*
X61175002Y-108904225D01*
X61167964Y-108821421D01*
X61295688Y-108821421D01*
X61304775Y-108885471D01*
X61315701Y-108915462D01*
X61354480Y-108974631D01*
X61401364Y-109023755D01*
X61447087Y-109054184D01*
X61470350Y-109059868D01*
X61509799Y-109049376D01*
X61557710Y-109023509D01*
X61566590Y-109017263D01*
X61648025Y-108941067D01*
X61710431Y-108850346D01*
X61752731Y-108751395D01*
X61773851Y-108650509D01*
X61772717Y-108553982D01*
X61748253Y-108468108D01*
X61699384Y-108399182D01*
X61675483Y-108379641D01*
X61619555Y-108356540D01*
X61555570Y-108353112D01*
X61495166Y-108367267D01*
X61449984Y-108396915D01*
X61434473Y-108422919D01*
X61411591Y-108452986D01*
X61389891Y-108460297D01*
X61363107Y-108477099D01*
X61338991Y-108522089D01*
X61318867Y-108587142D01*
X61304059Y-108664131D01*
X61295891Y-108744933D01*
X61295688Y-108821421D01*
X61167964Y-108821421D01*
X61165839Y-108796420D01*
X61167925Y-108725984D01*
G37*
G36*
X68461969Y-120648435D02*
G01*
X68494678Y-120682662D01*
X68500536Y-120698380D01*
X68504311Y-120762576D01*
X68483957Y-120810629D01*
X68444784Y-120836232D01*
X68392103Y-120833079D01*
X68388256Y-120831697D01*
X68360378Y-120813235D01*
X68348839Y-120778440D01*
X68347376Y-120745225D01*
X68354250Y-120691026D01*
X68371705Y-120654308D01*
X68374393Y-120651766D01*
X68417184Y-120636403D01*
X68461969Y-120648435D01*
G37*
G36*
X68475352Y-123986742D02*
G01*
X68489093Y-123998266D01*
X68507687Y-124036794D01*
X68511452Y-124089217D01*
X68501556Y-124139992D01*
X68479168Y-124173574D01*
X68475752Y-124175681D01*
X68432723Y-124192603D01*
X68401160Y-124183744D01*
X68377445Y-124161263D01*
X68352459Y-124115085D01*
X68350679Y-124065985D01*
X68367092Y-124021281D01*
X68396684Y-123988293D01*
X68434441Y-123974341D01*
X68475352Y-123986742D01*
G37*
G36*
X68006139Y-132396028D02*
G01*
X68067534Y-132417793D01*
X68077373Y-132424961D01*
X68120266Y-132461299D01*
X68080866Y-132494808D01*
X68050395Y-132512466D01*
X68002640Y-132525284D01*
X67930554Y-132534719D01*
X67861602Y-132540105D01*
X67772209Y-132548200D01*
X67685346Y-132559877D01*
X67614809Y-132573139D01*
X67592132Y-132579074D01*
X67510893Y-132600046D01*
X67455688Y-132604239D01*
X67420129Y-132591282D01*
X67401368Y-132568013D01*
X67390167Y-132516657D01*
X67407492Y-132472433D01*
X67447354Y-132446187D01*
X67470341Y-132443127D01*
X67512312Y-132439734D01*
X67576980Y-132430775D01*
X67651462Y-132418070D01*
X67663102Y-132415874D01*
X67800220Y-132394987D01*
X67915800Y-132388399D01*
X68006139Y-132396028D01*
G37*
G36*
X72623907Y-110382655D02*
G01*
X72735876Y-110384847D01*
X72825021Y-110389334D01*
X72894040Y-110396244D01*
X72945627Y-110405705D01*
X72982478Y-110417847D01*
X73007289Y-110432797D01*
X73021025Y-110447960D01*
X73034424Y-110495568D01*
X73026732Y-110550669D01*
X73001704Y-110592317D01*
X72971031Y-110610504D01*
X72925354Y-110619800D01*
X72858866Y-110620461D01*
X72765764Y-110612744D01*
X72704663Y-110605476D01*
X72638224Y-110598683D01*
X72545943Y-110591496D01*
X72438300Y-110584623D01*
X72325774Y-110578775D01*
X72283039Y-110576933D01*
X71994454Y-110565301D01*
X72008653Y-111306969D01*
X72011897Y-111478911D01*
X72015015Y-111649014D01*
X72017912Y-111811674D01*
X72020491Y-111961291D01*
X72022656Y-112092262D01*
X72024310Y-112198985D01*
X72025359Y-112275857D01*
X72025462Y-112284832D01*
X72028070Y-112521027D01*
X72218088Y-112525805D01*
X72302471Y-112526511D01*
X72412005Y-112525353D01*
X72535565Y-112522560D01*
X72662026Y-112518359D01*
X72735144Y-112515235D01*
X72868178Y-112509843D01*
X72969250Y-112508327D01*
X73042609Y-112511496D01*
X73092503Y-112520158D01*
X73123177Y-112535123D01*
X73138879Y-112557199D01*
X73143857Y-112587196D01*
X73143943Y-112593091D01*
X73128281Y-112637320D01*
X73090598Y-112674115D01*
X73044850Y-112690919D01*
X73035429Y-112690723D01*
X72998838Y-112686958D01*
X72947693Y-112681766D01*
X72944086Y-112681402D01*
X72897020Y-112675302D01*
X72826835Y-112664614D01*
X72746154Y-112651295D01*
X72717569Y-112646337D01*
X72672329Y-112639211D01*
X72623599Y-112633548D01*
X72567448Y-112629282D01*
X72499948Y-112626346D01*
X72417169Y-112624673D01*
X72315180Y-112624197D01*
X72190052Y-112624851D01*
X72037855Y-112626569D01*
X71854659Y-112629283D01*
X71781278Y-112630477D01*
X71592601Y-112633511D01*
X71436956Y-112635737D01*
X71311045Y-112637082D01*
X71211570Y-112637470D01*
X71135233Y-112636827D01*
X71078737Y-112635079D01*
X71038782Y-112632151D01*
X71012071Y-112627969D01*
X70995307Y-112622458D01*
X70985190Y-112615543D01*
X70982310Y-112612421D01*
X70966590Y-112577161D01*
X70975789Y-112551299D01*
X70985855Y-112541253D01*
X71004810Y-112533520D01*
X71037217Y-112527718D01*
X71087636Y-112523465D01*
X71160630Y-112520378D01*
X71260761Y-112518075D01*
X71392590Y-112516174D01*
X71395131Y-112516142D01*
X71525463Y-112514458D01*
X71624072Y-112512672D01*
X71695567Y-112510277D01*
X71744561Y-112506766D01*
X71775664Y-112501631D01*
X71793488Y-112494365D01*
X71802644Y-112484461D01*
X71807742Y-112471411D01*
X71807957Y-112470720D01*
X71811833Y-112456896D01*
X71815202Y-112440215D01*
X71818205Y-112417454D01*
X71820982Y-112385389D01*
X71823674Y-112340796D01*
X71826420Y-112280451D01*
X71829362Y-112201130D01*
X71832638Y-112099611D01*
X71836391Y-111972667D01*
X71840759Y-111817077D01*
X71845883Y-111629616D01*
X71848067Y-111548995D01*
X71853778Y-111332240D01*
X71858215Y-111149068D01*
X71861370Y-110996746D01*
X71863235Y-110872542D01*
X71863799Y-110773722D01*
X71863055Y-110697554D01*
X71860993Y-110641305D01*
X71857605Y-110602243D01*
X71852882Y-110577634D01*
X71846815Y-110564747D01*
X71844872Y-110562865D01*
X71821005Y-110558591D01*
X71767938Y-110556530D01*
X71692743Y-110556738D01*
X71602495Y-110559273D01*
X71569754Y-110560669D01*
X71312805Y-110572573D01*
X71282304Y-110526023D01*
X71262608Y-110482041D01*
X71270325Y-110444865D01*
X71277260Y-110435401D01*
X71289399Y-110427649D01*
X71310473Y-110421305D01*
X71344212Y-110416067D01*
X71394346Y-110411633D01*
X71464605Y-110407699D01*
X71558721Y-110403964D01*
X71680423Y-110400123D01*
X71833441Y-110395876D01*
X71893898Y-110394268D01*
X72124112Y-110388564D01*
X72320721Y-110384642D01*
X72486421Y-110382630D01*
X72623907Y-110382655D01*
G37*
G36*
X65224140Y-106800065D02*
G01*
X65233054Y-106809571D01*
X65254118Y-106814888D01*
X65305983Y-106818491D01*
X65383159Y-106820465D01*
X65480153Y-106820894D01*
X65591475Y-106819862D01*
X65711632Y-106817454D01*
X65835133Y-106813753D01*
X65956486Y-106808844D01*
X66070201Y-106802811D01*
X66170785Y-106795739D01*
X66178856Y-106795067D01*
X66247121Y-106790239D01*
X66288378Y-106791196D01*
X66311724Y-106799603D01*
X66326256Y-106817125D01*
X66329300Y-106822605D01*
X66336943Y-106871140D01*
X66318631Y-106922795D01*
X66281088Y-106964801D01*
X66245337Y-106982051D01*
X66213391Y-106985134D01*
X66151165Y-106986946D01*
X66064695Y-106987467D01*
X65960020Y-106986680D01*
X65843174Y-106984567D01*
X65795990Y-106983390D01*
X65674146Y-106980642D01*
X65560353Y-106979061D01*
X65461110Y-106978659D01*
X65382915Y-106979450D01*
X65332269Y-106981446D01*
X65322269Y-106982430D01*
X65249593Y-106992254D01*
X65249380Y-107806364D01*
X65249240Y-108000671D01*
X65248850Y-108161885D01*
X65248087Y-108293251D01*
X65246832Y-108398015D01*
X65244962Y-108479420D01*
X65242355Y-108540711D01*
X65238891Y-108585134D01*
X65234447Y-108615933D01*
X65228902Y-108636352D01*
X65222135Y-108649637D01*
X65217585Y-108655371D01*
X65193528Y-108688797D01*
X65186003Y-108709605D01*
X65171409Y-108732020D01*
X65157263Y-108739970D01*
X65132370Y-108742758D01*
X65075916Y-108745286D01*
X64992679Y-108747464D01*
X64887435Y-108749197D01*
X64764963Y-108750395D01*
X64630038Y-108750964D01*
X64587170Y-108750998D01*
X64429469Y-108750771D01*
X64304285Y-108749964D01*
X64207800Y-108748392D01*
X64136198Y-108745868D01*
X64085660Y-108742208D01*
X64052368Y-108737226D01*
X64032504Y-108730734D01*
X64023023Y-108723534D01*
X64017033Y-108700551D01*
X64013181Y-108648065D01*
X64011484Y-108565270D01*
X64011958Y-108451358D01*
X64014620Y-108305523D01*
X64019485Y-108126959D01*
X64026571Y-107914859D01*
X64035893Y-107668418D01*
X64047469Y-107386827D01*
X64052541Y-107268600D01*
X64063639Y-107012597D01*
X63840709Y-107000610D01*
X63732573Y-106995627D01*
X63617002Y-106991657D01*
X63510101Y-106989191D01*
X63448028Y-106988623D01*
X63278277Y-106988623D01*
X63277962Y-107283867D01*
X63279044Y-107385134D01*
X63282253Y-107513787D01*
X63287260Y-107660955D01*
X63293740Y-107817770D01*
X63301364Y-107975361D01*
X63307697Y-108089758D01*
X63337746Y-108600407D01*
X63295046Y-108658162D01*
X63277239Y-108681634D01*
X63259818Y-108699391D01*
X63237361Y-108712819D01*
X63204445Y-108723303D01*
X63155649Y-108732226D01*
X63085550Y-108740973D01*
X62988727Y-108750930D01*
X62896732Y-108759886D01*
X62768022Y-108772077D01*
X62670580Y-108780366D01*
X62599551Y-108784816D01*
X62550084Y-108785496D01*
X62517324Y-108782470D01*
X62496421Y-108775806D01*
X62482519Y-108765569D01*
X62482483Y-108765533D01*
X62466562Y-108735631D01*
X62461133Y-108698085D01*
X62466807Y-108668247D01*
X62478279Y-108660154D01*
X62488733Y-108647029D01*
X62486319Y-108635244D01*
X62490246Y-108604116D01*
X62506356Y-108580737D01*
X62523059Y-108569272D01*
X62550306Y-108561121D01*
X62593693Y-108555762D01*
X62658816Y-108552672D01*
X62751273Y-108551328D01*
X62823084Y-108551141D01*
X63110216Y-108551141D01*
X63121571Y-108494364D01*
X63126314Y-108450097D01*
X63129764Y-108375004D01*
X63131965Y-108274570D01*
X63132961Y-108154280D01*
X63132798Y-108019622D01*
X63131520Y-107876081D01*
X63129171Y-107729143D01*
X63125796Y-107584294D01*
X63121439Y-107447021D01*
X63116146Y-107322808D01*
X63111359Y-107237951D01*
X63089318Y-106896792D01*
X63133933Y-106852177D01*
X63154531Y-106832820D01*
X63174922Y-106820727D01*
X63202810Y-106815055D01*
X63245901Y-106814961D01*
X63311900Y-106819602D01*
X63378305Y-106825435D01*
X63468673Y-106830978D01*
X63583091Y-106834221D01*
X63709338Y-106835014D01*
X63835190Y-106833212D01*
X63887060Y-106831567D01*
X64003358Y-106827626D01*
X64088497Y-106826102D01*
X64147590Y-106827219D01*
X64185752Y-106831198D01*
X64208094Y-106838263D01*
X64217768Y-106845986D01*
X64222839Y-106870671D01*
X64226291Y-106928227D01*
X64228177Y-107015225D01*
X64228552Y-107128238D01*
X64227468Y-107263838D01*
X64224978Y-107418595D01*
X64221137Y-107589083D01*
X64215998Y-107771872D01*
X64209613Y-107963535D01*
X64202037Y-108160644D01*
X64194637Y-108331266D01*
X64182671Y-108592863D01*
X64407262Y-108580751D01*
X64519780Y-108574608D01*
X64643605Y-108567729D01*
X64760922Y-108561108D01*
X64827169Y-108557304D01*
X65022483Y-108545970D01*
X65022483Y-107712220D01*
X65022557Y-107516011D01*
X65022856Y-107353020D01*
X65023499Y-107220130D01*
X65024601Y-107114220D01*
X65026281Y-107032172D01*
X65028656Y-106970868D01*
X65031843Y-106927187D01*
X65035958Y-106898013D01*
X65041121Y-106880225D01*
X65047447Y-106870704D01*
X65054279Y-106866610D01*
X65091021Y-106842290D01*
X65109815Y-106821758D01*
X65143661Y-106797099D01*
X65187295Y-106789321D01*
X65224140Y-106800065D01*
G37*
G36*
X68480698Y-124409635D02*
G01*
X68505680Y-124454647D01*
X68510895Y-124503359D01*
X68499826Y-124565485D01*
X68470868Y-124603498D01*
X68430401Y-124613598D01*
X68384800Y-124591982D01*
X68375927Y-124583821D01*
X68351004Y-124538412D01*
X68349557Y-124485507D01*
X68367982Y-124436496D01*
X68402674Y-124402770D01*
X68435884Y-124394346D01*
X68480698Y-124409635D01*
G37*
G36*
X68474233Y-123567999D02*
G01*
X68489093Y-123580383D01*
X68506880Y-123619431D01*
X68509362Y-123673468D01*
X68497247Y-123724868D01*
X68482344Y-123748055D01*
X68440921Y-123774108D01*
X68401071Y-123764601D01*
X68377445Y-123743380D01*
X68351761Y-123696559D01*
X68349414Y-123647122D01*
X68365445Y-123602309D01*
X68394898Y-123569359D01*
X68432814Y-123555509D01*
X68474233Y-123567999D01*
G37*
G36*
X61836547Y-106319712D02*
G01*
X61882135Y-106326179D01*
X61901938Y-106341449D01*
X61906506Y-106374606D01*
X61906532Y-106379968D01*
X61903963Y-106412560D01*
X61890072Y-106430469D01*
X61855583Y-106440452D01*
X61815688Y-106446156D01*
X61740763Y-106459335D01*
X61678678Y-106476796D01*
X61637568Y-106495760D01*
X61625193Y-106511242D01*
X61640671Y-106524141D01*
X61682715Y-106549154D01*
X61745079Y-106582787D01*
X61821515Y-106621547D01*
X61829032Y-106625247D01*
X61922709Y-106672910D01*
X61988530Y-106710953D01*
X62032356Y-106743302D01*
X62060048Y-106773886D01*
X62066830Y-106784580D01*
X62090783Y-106852024D01*
X62080458Y-106909477D01*
X62036442Y-106954555D01*
X62023003Y-106962211D01*
X61955711Y-106984472D01*
X61867316Y-106996983D01*
X61771898Y-106999082D01*
X61683536Y-106990108D01*
X61642670Y-106980092D01*
X61559130Y-106943625D01*
X61504699Y-106898983D01*
X61481682Y-106849152D01*
X61492385Y-106797120D01*
X61496279Y-106790498D01*
X61510973Y-106778878D01*
X61537053Y-106782110D01*
X61582553Y-106801992D01*
X61609556Y-106815828D01*
X61680804Y-106844682D01*
X61759356Y-106863348D01*
X61834960Y-106870795D01*
X61897364Y-106865993D01*
X61935637Y-106848609D01*
X61937853Y-106836146D01*
X61920784Y-106818376D01*
X61880775Y-106792924D01*
X61814171Y-106757414D01*
X61734300Y-106717734D01*
X61648087Y-106674272D01*
X61570516Y-106632595D01*
X61509203Y-106596972D01*
X61471761Y-106571673D01*
X61468013Y-106568422D01*
X61432808Y-106517961D01*
X61428858Y-106467484D01*
X61456276Y-106425200D01*
X61465938Y-106418187D01*
X61520238Y-106391844D01*
X61596152Y-106365354D01*
X61680777Y-106342145D01*
X61761208Y-106325646D01*
X61824540Y-106319287D01*
X61836547Y-106319712D01*
G37*
D15*
X71050000Y-48762500D02*
X71050000Y-51762500D01*
X73550000Y-48762500D02*
X73550000Y-51762500D01*
D11*
X72600000Y-47562500D02*
G75*
G03*
X72600000Y-47562500I-100000J0D01*
G01*
D10*
X78082000Y-29628000D02*
G75*
G03*
X78082000Y-29628000I-700000J0D01*
G01*
X78062000Y-39788000D02*
G75*
G03*
X78062000Y-39788000I-700000J0D01*
G01*
M02*
