G04 #@! TF.GenerationSoftware,KiCad,Pcbnew,7.0.1-0*
G04 #@! TF.CreationDate,2023-03-19T14:40:06+01:00*
G04 #@! TF.ProjectId,parasite,70617261-7369-4746-952e-6b696361645f,2.0.0*
G04 #@! TF.SameCoordinates,Original*
G04 #@! TF.FileFunction,Copper,L1,Top*
G04 #@! TF.FilePolarity,Positive*
%FSLAX46Y46*%
G04 Gerber Fmt 4.6, Leading zero omitted, Abs format (unit mm)*
G04 Created by KiCad (PCBNEW 7.0.1-0) date 2023-03-19 14:40:06*
%MOMM*%
%LPD*%
G01*
G04 APERTURE LIST*
G04 Aperture macros list*
%AMRoundRect*
0 Rectangle with rounded corners*
0 $1 Rounding radius*
0 $2 $3 $4 $5 $6 $7 $8 $9 X,Y pos of 4 corners*
0 Add a 4 corners polygon primitive as box body*
4,1,4,$2,$3,$4,$5,$6,$7,$8,$9,$2,$3,0*
0 Add four circle primitives for the rounded corners*
1,1,$1+$1,$2,$3*
1,1,$1+$1,$4,$5*
1,1,$1+$1,$6,$7*
1,1,$1+$1,$8,$9*
0 Add four rect primitives between the rounded corners*
20,1,$1+$1,$2,$3,$4,$5,0*
20,1,$1+$1,$4,$5,$6,$7,0*
20,1,$1+$1,$6,$7,$8,$9,0*
20,1,$1+$1,$8,$9,$2,$3,0*%
G04 Aperture macros list end*
G04 #@! TA.AperFunction,SMDPad,CuDef*
%ADD10R,1.700000X0.800000*%
G04 #@! TD*
G04 #@! TA.AperFunction,SMDPad,CuDef*
%ADD11RoundRect,0.147500X-0.172500X0.147500X-0.172500X-0.147500X0.172500X-0.147500X0.172500X0.147500X0*%
G04 #@! TD*
G04 #@! TA.AperFunction,SMDPad,CuDef*
%ADD12RoundRect,0.147500X0.147500X0.172500X-0.147500X0.172500X-0.147500X-0.172500X0.147500X-0.172500X0*%
G04 #@! TD*
G04 #@! TA.AperFunction,SMDPad,CuDef*
%ADD13R,0.900000X0.800000*%
G04 #@! TD*
G04 #@! TA.AperFunction,SMDPad,CuDef*
%ADD14RoundRect,0.147500X-0.147500X-0.172500X0.147500X-0.172500X0.147500X0.172500X-0.147500X0.172500X0*%
G04 #@! TD*
G04 #@! TA.AperFunction,SMDPad,CuDef*
%ADD15C,1.000000*%
G04 #@! TD*
G04 #@! TA.AperFunction,SMDPad,CuDef*
%ADD16RoundRect,0.147500X0.172500X-0.147500X0.172500X0.147500X-0.172500X0.147500X-0.172500X-0.147500X0*%
G04 #@! TD*
G04 #@! TA.AperFunction,SMDPad,CuDef*
%ADD17R,1.000000X1.800000*%
G04 #@! TD*
G04 #@! TA.AperFunction,SMDPad,CuDef*
%ADD18RoundRect,0.218750X0.218750X0.256250X-0.218750X0.256250X-0.218750X-0.256250X0.218750X-0.256250X0*%
G04 #@! TD*
G04 #@! TA.AperFunction,SMDPad,CuDef*
%ADD19RoundRect,0.087500X0.187500X0.087500X-0.187500X0.087500X-0.187500X-0.087500X0.187500X-0.087500X0*%
G04 #@! TD*
G04 #@! TA.AperFunction,SMDPad,CuDef*
%ADD20RoundRect,0.175000X0.175000X0.625000X-0.175000X0.625000X-0.175000X-0.625000X0.175000X-0.625000X0*%
G04 #@! TD*
G04 #@! TA.AperFunction,SMDPad,CuDef*
%ADD21R,1.300000X1.700000*%
G04 #@! TD*
G04 #@! TA.AperFunction,SMDPad,CuDef*
%ADD22R,2.000000X1.000000*%
G04 #@! TD*
G04 #@! TA.AperFunction,SMDPad,CuDef*
%ADD23R,1.000000X2.000000*%
G04 #@! TD*
G04 #@! TA.AperFunction,SMDPad,CuDef*
%ADD24R,0.900000X0.900000*%
G04 #@! TD*
G04 #@! TA.AperFunction,SMDPad,CuDef*
%ADD25R,0.800000X0.800000*%
G04 #@! TD*
G04 #@! TA.AperFunction,ViaPad*
%ADD26C,0.600000*%
G04 #@! TD*
G04 #@! TA.AperFunction,Conductor*
%ADD27C,0.200000*%
G04 #@! TD*
G04 #@! TA.AperFunction,Conductor*
%ADD28C,0.500000*%
G04 #@! TD*
G04 #@! TA.AperFunction,Conductor*
%ADD29C,10.000000*%
G04 #@! TD*
G04 APERTURE END LIST*
D10*
X63920000Y-48502000D03*
X63920000Y-51902000D03*
X72302000Y-51902000D03*
X72302000Y-48502000D03*
D11*
X69762000Y-58584000D03*
X69762000Y-59554000D03*
X71540000Y-58584000D03*
X71540000Y-59554000D03*
D12*
X62015000Y-57822000D03*
X61045000Y-57822000D03*
D13*
X65936000Y-59518000D03*
X65936000Y-57618000D03*
X63936000Y-58568000D03*
D14*
X61045000Y-55663000D03*
X62015000Y-55663000D03*
D15*
X77382000Y-34708000D03*
X77382000Y-37248000D03*
X67984000Y-58838000D03*
X61380000Y-59473000D03*
D12*
X61865000Y-50202000D03*
X60895000Y-50202000D03*
D16*
X70524000Y-55917000D03*
X70524000Y-54947000D03*
D17*
X69138500Y-49694000D03*
X66638500Y-49694000D03*
D18*
X61405500Y-52869000D03*
X59830500Y-52869000D03*
D11*
X68884500Y-52534000D03*
X68884500Y-53504000D03*
D16*
X67106500Y-53481000D03*
X67106500Y-52511000D03*
D11*
X74588000Y-52534000D03*
X74588000Y-53504000D03*
D16*
X76239000Y-53504000D03*
X76239000Y-52534000D03*
D19*
X75005000Y-56544000D03*
X75005000Y-55544000D03*
X73155000Y-55544000D03*
X73155000Y-56544000D03*
D20*
X74080000Y-56044000D03*
D21*
X68492000Y-55536000D03*
X64992000Y-55536000D03*
D15*
X77382000Y-42328000D03*
D22*
X60468000Y-31542550D03*
X60468000Y-32812550D03*
X60468000Y-34082550D03*
X60468000Y-35352550D03*
X60468000Y-36622550D03*
X60468000Y-37892550D03*
X60468000Y-39162550D03*
X60468000Y-40432550D03*
X60468000Y-41702550D03*
X60468000Y-42972550D03*
D23*
X62528000Y-45572550D03*
D24*
X63158000Y-43472550D03*
D23*
X63798000Y-45572550D03*
D24*
X64428000Y-43472550D03*
D23*
X65068000Y-45572550D03*
D24*
X65698000Y-43472550D03*
D23*
X66338000Y-45572550D03*
D24*
X66968000Y-43472550D03*
D23*
X67608000Y-45572550D03*
D24*
X68238000Y-43472550D03*
D23*
X68878000Y-45572550D03*
D24*
X69508000Y-43472550D03*
D23*
X70148000Y-45572550D03*
D24*
X70778000Y-43472550D03*
D23*
X71418000Y-45572550D03*
D22*
X73468000Y-42972550D03*
X73468000Y-41702550D03*
D24*
X71368000Y-41067550D03*
D22*
X73468000Y-40432550D03*
D24*
X71368000Y-39797550D03*
D22*
X73468000Y-39162550D03*
D24*
X71368000Y-38527550D03*
D22*
X73468000Y-37892550D03*
D24*
X71368000Y-37257550D03*
D22*
X73468000Y-36622550D03*
D24*
X71368000Y-35987550D03*
D22*
X73468000Y-35352550D03*
D24*
X71368000Y-34717550D03*
D22*
X73468000Y-34082550D03*
D24*
X71368000Y-33447550D03*
D22*
X73468000Y-32812550D03*
D24*
X71368000Y-32177550D03*
D22*
X73468000Y-31542550D03*
D12*
X59325000Y-29882000D03*
X58355000Y-29882000D03*
D25*
X58078000Y-33426000D03*
X58078000Y-31926000D03*
D15*
X77382000Y-32168000D03*
X77382000Y-29628000D03*
X77362000Y-39788000D03*
D26*
X60999000Y-36613000D03*
X74969000Y-63918000D03*
X75731000Y-63918000D03*
X60618000Y-64172000D03*
X58078000Y-42201000D03*
X77255000Y-63918000D03*
X64682000Y-32168000D03*
X62269000Y-51472000D03*
X58078000Y-43979000D03*
X70397000Y-51726000D03*
X59983000Y-36613000D03*
X69254000Y-38899000D03*
X76493000Y-63918000D03*
X58078000Y-41312000D03*
X59856000Y-64172000D03*
X70397000Y-48678000D03*
X61380000Y-64172000D03*
X67857000Y-32168000D03*
X68873000Y-32168000D03*
X66714000Y-32168000D03*
X70397000Y-50202000D03*
X65698000Y-32168000D03*
X69254000Y-37375000D03*
X62142000Y-64172000D03*
X70397000Y-49440000D03*
X69762000Y-32168000D03*
X70397000Y-50964000D03*
X58078000Y-43090000D03*
X69254000Y-38137000D03*
X60237000Y-47535000D03*
X62523000Y-34454000D03*
X67603000Y-45630000D03*
X75096000Y-33184000D03*
X67603000Y-44995000D03*
X75858000Y-50329000D03*
X76620000Y-58965000D03*
X70148000Y-44995000D03*
X70143000Y-45630000D03*
X76620000Y-54393000D03*
X65063000Y-45630000D03*
X59602000Y-48297000D03*
X60999000Y-46900000D03*
X62269000Y-36359000D03*
X75604000Y-49059000D03*
X73468000Y-36622550D03*
X73468000Y-37892550D03*
X76493000Y-48678000D03*
X73468000Y-42972550D03*
X76366000Y-44233000D03*
X75223000Y-36740000D03*
X75223000Y-34708000D03*
D27*
X59830500Y-52869000D02*
X59830500Y-52236500D01*
X59830500Y-52236500D02*
X61865000Y-50202000D01*
X60999000Y-46900000D02*
X60999000Y-50098000D01*
X60999000Y-50098000D02*
X60895000Y-50202000D01*
X68492000Y-55536000D02*
X66968000Y-55536000D01*
X60202000Y-47570000D02*
X60237000Y-47535000D01*
X65530520Y-54098520D02*
X59434520Y-54098520D01*
X66968000Y-55536000D02*
X65530520Y-54098520D01*
X59434520Y-54098520D02*
X58986000Y-53650000D01*
X58986000Y-53650000D02*
X58986000Y-51834000D01*
X58986000Y-51834000D02*
X60202000Y-50618000D01*
X60202000Y-50618000D02*
X60202000Y-47570000D01*
X60237000Y-47535000D02*
X60364000Y-47662000D01*
D28*
X62673000Y-53481000D02*
X62061000Y-52869000D01*
X62061000Y-52869000D02*
X61405500Y-52869000D01*
D27*
X61045000Y-55663000D02*
X60237000Y-55663000D01*
X60237000Y-55663000D02*
X58586000Y-54012000D01*
X59602000Y-50456000D02*
X59602000Y-48297000D01*
X58586000Y-54012000D02*
X58586000Y-51472000D01*
X58586000Y-51472000D02*
X59602000Y-50456000D01*
D28*
X62673000Y-53481000D02*
X63920000Y-53481000D01*
X63920000Y-53481000D02*
X67106500Y-53481000D01*
X63920000Y-51902000D02*
X63920000Y-53481000D01*
D27*
X63920000Y-48502000D02*
X63470000Y-48502000D01*
X63470000Y-48502000D02*
X60468000Y-45500000D01*
X60468000Y-45500000D02*
X60468000Y-42972550D01*
X62528000Y-45572550D02*
X62528000Y-46772550D01*
X62528000Y-46772550D02*
X62909450Y-47154000D01*
X63983764Y-47154000D02*
X64383765Y-47554000D01*
X62909450Y-47154000D02*
X63983764Y-47154000D01*
X64383765Y-47554000D02*
X65698000Y-47554000D01*
X65698000Y-47554000D02*
X66638500Y-48494500D01*
X66638500Y-48494500D02*
X66638500Y-49694000D01*
X63798000Y-45572550D02*
X63798000Y-46402550D01*
X69138500Y-48582815D02*
X69138500Y-49694000D01*
X63798000Y-46402550D02*
X64549450Y-47154000D01*
X64549450Y-47154000D02*
X67709685Y-47154000D01*
X67709685Y-47154000D02*
X69138500Y-48582815D01*
X68884500Y-52534000D02*
X69138500Y-52280000D01*
X65936000Y-57618000D02*
X66764000Y-57618000D01*
X66764000Y-57618000D02*
X67984000Y-58838000D01*
X64992000Y-56674000D02*
X65936000Y-57618000D01*
X64174000Y-57356000D02*
X64174000Y-57314000D01*
X65936000Y-59118000D02*
X64174000Y-57356000D01*
X62523000Y-57314000D02*
X62015000Y-57822000D01*
X65936000Y-59518000D02*
X65936000Y-59118000D01*
X64174000Y-57314000D02*
X62523000Y-57314000D01*
D28*
X70397000Y-48220572D02*
X70397000Y-48678000D01*
X73155000Y-56544000D02*
X72421000Y-56544000D01*
X67106500Y-53481000D02*
X68861500Y-53481000D01*
X72421000Y-56544000D02*
X70905000Y-55028000D01*
X68878000Y-45572550D02*
X68878000Y-46701572D01*
X68878000Y-46701572D02*
X70397000Y-48220572D01*
D27*
X59325000Y-29882000D02*
X62396000Y-29882000D01*
X62396000Y-29882000D02*
X64682000Y-32168000D01*
X68492000Y-57314000D02*
X69762000Y-58584000D01*
X68492000Y-55536000D02*
X68492000Y-57314000D01*
X62151550Y-34082550D02*
X60468000Y-34082550D01*
X69762000Y-58584000D02*
X71286000Y-58584000D01*
X62523000Y-34454000D02*
X62151550Y-34082550D01*
X66638500Y-52043000D02*
X67106500Y-52511000D01*
X66638500Y-49694000D02*
X66638500Y-52043000D01*
X69138500Y-49694000D02*
X69138500Y-52280000D01*
D28*
X75350000Y-57568000D02*
X75096000Y-57568000D01*
D27*
X74588000Y-53504000D02*
X75207520Y-52884480D01*
D28*
X71794000Y-57187000D02*
X71794000Y-57568000D01*
X71794000Y-57568000D02*
X74239204Y-57568000D01*
X75096000Y-57568000D02*
X75096000Y-56635000D01*
D27*
X67603000Y-44377550D02*
X67603000Y-44995000D01*
X70148000Y-44372550D02*
X70048489Y-44273039D01*
X70148000Y-45572550D02*
X70148000Y-44372550D01*
D28*
X76239000Y-54012000D02*
X76620000Y-54393000D01*
D27*
X75207520Y-52884480D02*
X75207520Y-50979480D01*
D28*
X76747000Y-58965000D02*
X75350000Y-57568000D01*
X76366000Y-33184000D02*
X77382000Y-32168000D01*
X75096000Y-57568000D02*
X74239204Y-57568000D01*
X70524000Y-55917000D02*
X71794000Y-57187000D01*
D27*
X70048489Y-44273039D02*
X67707511Y-44273039D01*
X75207520Y-50979480D02*
X75858000Y-50329000D01*
X67707511Y-44273039D02*
X67603000Y-44377550D01*
D28*
X76239000Y-53504000D02*
X76239000Y-54012000D01*
X76620000Y-58965000D02*
X76747000Y-58965000D01*
X75096000Y-33184000D02*
X76366000Y-33184000D01*
D27*
X62650000Y-85381000D02*
X67984000Y-90715000D01*
X67984000Y-101984000D02*
X68000000Y-102000000D01*
D29*
X68000000Y-102000000D02*
X68000000Y-142000000D01*
D27*
X67984000Y-58838000D02*
X67984000Y-74078000D01*
X62015000Y-55663000D02*
X62142000Y-55536000D01*
X67984000Y-90715000D02*
X67984000Y-101984000D01*
X62142000Y-55536000D02*
X64992000Y-55536000D01*
X64992000Y-55536000D02*
X64992000Y-56674000D01*
X62650000Y-79412000D02*
X62650000Y-85381000D01*
X67984000Y-74078000D02*
X62650000Y-79412000D01*
X58677511Y-39244511D02*
X57951000Y-38518000D01*
X57697000Y-38264000D02*
X57697000Y-33565000D01*
X59268000Y-40432550D02*
X58677511Y-39842061D01*
X58677511Y-39842061D02*
X58677511Y-39244511D01*
X60468000Y-40432550D02*
X59268000Y-40432550D01*
X57951000Y-38518000D02*
X57697000Y-38264000D01*
X58078000Y-31926000D02*
X58078000Y-30159000D01*
X58332000Y-34708000D02*
X58777511Y-34262489D01*
X58777511Y-34262489D02*
X58777511Y-32625511D01*
X58777511Y-32625511D02*
X58078000Y-31926000D01*
X60468000Y-39162550D02*
X59268000Y-39162550D01*
X58332000Y-38226550D02*
X58332000Y-34708000D01*
X59268000Y-39162550D02*
X58332000Y-38226550D01*
X58078000Y-30159000D02*
X58355000Y-29882000D01*
X59729000Y-48424000D02*
X59602000Y-48297000D01*
X61380000Y-59473000D02*
X60872000Y-58965000D01*
X61045000Y-57822000D02*
X61045000Y-55663000D01*
X60872000Y-58965000D02*
X60872000Y-57995000D01*
X60872000Y-57995000D02*
X61045000Y-57822000D01*
X61262550Y-35352550D02*
X62269000Y-36359000D01*
X61022000Y-46923000D02*
X60999000Y-46900000D01*
X60468000Y-35352550D02*
X61262550Y-35352550D01*
X73155000Y-53967000D02*
X73155000Y-55544000D01*
X74588000Y-50075000D02*
X75604000Y-49059000D01*
X74588000Y-52534000D02*
X74588000Y-50075000D01*
X74588000Y-52534000D02*
X73155000Y-53967000D01*
X76239000Y-52534000D02*
X76493000Y-52280000D01*
X75619480Y-53153520D02*
X75619480Y-54929520D01*
X76239000Y-52534000D02*
X75619480Y-53153520D01*
X75619480Y-54929520D02*
X75005000Y-55544000D01*
X76493000Y-52280000D02*
X76493000Y-48678000D01*
X77382000Y-42328000D02*
X77382000Y-43217000D01*
X77382000Y-43217000D02*
X76366000Y-44233000D01*
X73468000Y-47336000D02*
X72302000Y-48502000D01*
X73468000Y-42972550D02*
X73468000Y-47336000D01*
X76737450Y-35352550D02*
X73468000Y-35352550D01*
X77382000Y-34708000D02*
X76737450Y-35352550D01*
X74597550Y-34082550D02*
X73468000Y-34082550D01*
X75223000Y-34708000D02*
X74597550Y-34082550D01*
X75731000Y-37248000D02*
X75223000Y-36740000D01*
X77382000Y-37248000D02*
X75731000Y-37248000D01*
X73943450Y-31542550D02*
X75858000Y-29628000D01*
X73468000Y-31542550D02*
X73943450Y-31542550D01*
X75858000Y-29628000D02*
X77382000Y-29628000D01*
G04 #@! TA.AperFunction,Conductor*
G36*
X77129964Y-30605425D02*
G01*
X77184299Y-30621908D01*
X77382000Y-30641380D01*
X77579701Y-30621908D01*
X77634035Y-30605425D01*
X77670611Y-30600000D01*
X78848500Y-30600000D01*
X78911500Y-30616881D01*
X78957619Y-30663000D01*
X78974500Y-30726000D01*
X78974500Y-142937247D01*
X78964909Y-142985465D01*
X78937595Y-143026342D01*
X68985475Y-152978458D01*
X68978210Y-152985174D01*
X68823804Y-153117049D01*
X68807809Y-153128670D01*
X68638915Y-153232169D01*
X68621298Y-153241146D01*
X68438297Y-153316947D01*
X68419493Y-153323057D01*
X68226884Y-153369298D01*
X68207356Y-153372391D01*
X68009886Y-153387932D01*
X67990114Y-153387932D01*
X67792643Y-153372391D01*
X67773115Y-153369298D01*
X67580506Y-153323057D01*
X67561702Y-153316947D01*
X67378701Y-153241146D01*
X67361084Y-153232170D01*
X67192186Y-153128669D01*
X67176191Y-153117047D01*
X67021794Y-152985180D01*
X67014529Y-152978464D01*
X57062405Y-143026342D01*
X57035091Y-142985465D01*
X57025500Y-142937247D01*
X57025500Y-68000000D01*
X59555352Y-68000000D01*
X59575055Y-68237781D01*
X59575055Y-68237784D01*
X59575056Y-68237785D01*
X59633626Y-68469074D01*
X59729468Y-68687573D01*
X59729470Y-68687576D01*
X59859970Y-68887321D01*
X59859973Y-68887324D01*
X60021566Y-69062862D01*
X60209848Y-69209409D01*
X60419691Y-69322969D01*
X60419692Y-69322970D01*
X60645360Y-69400442D01*
X60763030Y-69420077D01*
X60880699Y-69439714D01*
X60880702Y-69439714D01*
X61119298Y-69439714D01*
X61119301Y-69439714D01*
X61220158Y-69422883D01*
X61354640Y-69400442D01*
X61580308Y-69322970D01*
X61790148Y-69209411D01*
X61978433Y-69062862D01*
X62140030Y-68887321D01*
X62270530Y-68687576D01*
X62366373Y-68469076D01*
X62424945Y-68237781D01*
X62444648Y-68000000D01*
X62424945Y-67762219D01*
X62366373Y-67530924D01*
X62270530Y-67312424D01*
X62140030Y-67112679D01*
X62098562Y-67067633D01*
X61978433Y-66937137D01*
X61790151Y-66790590D01*
X61580307Y-66677029D01*
X61402618Y-66616029D01*
X61354640Y-66599558D01*
X61354637Y-66599557D01*
X61354636Y-66599557D01*
X61119301Y-66560286D01*
X61119298Y-66560286D01*
X60880702Y-66560286D01*
X60880699Y-66560286D01*
X60645363Y-66599557D01*
X60419692Y-66677029D01*
X60209848Y-66790590D01*
X60021566Y-66937137D01*
X59859973Y-67112675D01*
X59729468Y-67312426D01*
X59633626Y-67530925D01*
X59575056Y-67762214D01*
X59575055Y-67762219D01*
X59555352Y-68000000D01*
X57025500Y-68000000D01*
X57025500Y-38759638D01*
X57040769Y-38699516D01*
X57082875Y-38653966D01*
X57141613Y-38634026D01*
X57202748Y-38644531D01*
X57251460Y-38682932D01*
X57263013Y-38697987D01*
X57288379Y-38717451D01*
X57300769Y-38728318D01*
X58032106Y-39459655D01*
X58059420Y-39500532D01*
X58069011Y-39548750D01*
X58069011Y-39793925D01*
X58067933Y-39810371D01*
X58063761Y-39842060D01*
X58067933Y-39873751D01*
X58067933Y-39873758D01*
X58082119Y-39981516D01*
X58082119Y-39981529D01*
X58084672Y-40000909D01*
X58145987Y-40148939D01*
X58219032Y-40244133D01*
X58219035Y-40244135D01*
X58243521Y-40276045D01*
X58243522Y-40276046D01*
X58243524Y-40276048D01*
X58268890Y-40295512D01*
X58281280Y-40306379D01*
X58803681Y-40828780D01*
X58814547Y-40841169D01*
X58834013Y-40866537D01*
X58859377Y-40886000D01*
X58859393Y-40886014D01*
X58914541Y-40928330D01*
X58947698Y-40966595D01*
X58963115Y-41014822D01*
X58967336Y-41054080D01*
X58967336Y-41081018D01*
X58959500Y-41153910D01*
X58959500Y-42251190D01*
X58967336Y-42324081D01*
X58967336Y-42351016D01*
X58959500Y-42423909D01*
X58959500Y-42423912D01*
X58959500Y-43521188D01*
X58966011Y-43581751D01*
X58972138Y-43598178D01*
X59017111Y-43718755D01*
X59104738Y-43835811D01*
X59221794Y-43923438D01*
X59221795Y-43923438D01*
X59221796Y-43923439D01*
X59358799Y-43974539D01*
X59419362Y-43981050D01*
X59733500Y-43981050D01*
X59796500Y-43997931D01*
X59842619Y-44044050D01*
X59859500Y-44107050D01*
X59859500Y-45451864D01*
X59858422Y-45468307D01*
X59855738Y-45488697D01*
X59854250Y-45500000D01*
X59858422Y-45531690D01*
X59858422Y-45531697D01*
X59869419Y-45615230D01*
X59869419Y-45615231D01*
X59875161Y-45658850D01*
X59936476Y-45806878D01*
X60009521Y-45902072D01*
X60009524Y-45902074D01*
X60034010Y-45933984D01*
X60034011Y-45933985D01*
X60034013Y-45933987D01*
X60059379Y-45953451D01*
X60071769Y-45964318D01*
X60344811Y-46237360D01*
X60374645Y-46284840D01*
X60380924Y-46340562D01*
X60362404Y-46393490D01*
X60265957Y-46546985D01*
X60265955Y-46546988D01*
X60265956Y-46546988D01*
X60229764Y-46650417D01*
X60189395Y-46707312D01*
X60124944Y-46734009D01*
X60055950Y-46741783D01*
X59883985Y-46801956D01*
X59729717Y-46898889D01*
X59600889Y-47027717D01*
X59503956Y-47181985D01*
X59443783Y-47353950D01*
X59436009Y-47422944D01*
X59409312Y-47487395D01*
X59352417Y-47527764D01*
X59248984Y-47563957D01*
X59094717Y-47660889D01*
X58965889Y-47789717D01*
X58868956Y-47943985D01*
X58808783Y-48115950D01*
X58788384Y-48297000D01*
X58808783Y-48478049D01*
X58868956Y-48650014D01*
X58973442Y-48816302D01*
X58971607Y-48817454D01*
X58983909Y-48835865D01*
X58993500Y-48884083D01*
X58993500Y-50151760D01*
X58983909Y-50199978D01*
X58956595Y-50240856D01*
X58189763Y-51007686D01*
X58177376Y-51018550D01*
X58152012Y-51038013D01*
X58124973Y-51073251D01*
X58124950Y-51073279D01*
X58054476Y-51165122D01*
X58026878Y-51231751D01*
X58026878Y-51231752D01*
X57993161Y-51313151D01*
X57976422Y-51440303D01*
X57976422Y-51440310D01*
X57972250Y-51472000D01*
X57976422Y-51503690D01*
X57977500Y-51520136D01*
X57977500Y-53963864D01*
X57976422Y-53980310D01*
X57972250Y-54012000D01*
X57976422Y-54043690D01*
X57976422Y-54043697D01*
X57983640Y-54098520D01*
X57983640Y-54098522D01*
X57993161Y-54170849D01*
X58054476Y-54318878D01*
X58127521Y-54414072D01*
X58127524Y-54414074D01*
X58152010Y-54445984D01*
X58152011Y-54445985D01*
X58152013Y-54445987D01*
X58177379Y-54465451D01*
X58189769Y-54476318D01*
X59772681Y-56059230D01*
X59783547Y-56071619D01*
X59803013Y-56096987D01*
X59828377Y-56116450D01*
X59828393Y-56116464D01*
X59930122Y-56194523D01*
X59930123Y-56194523D01*
X59930124Y-56194524D01*
X60078149Y-56255838D01*
X60237000Y-56276751D01*
X60268698Y-56272577D01*
X60285144Y-56271500D01*
X60310500Y-56271500D01*
X60373500Y-56288381D01*
X60419619Y-56334500D01*
X60436500Y-56397500D01*
X60436500Y-57130584D01*
X60426909Y-57178802D01*
X60399595Y-57219679D01*
X60375040Y-57244233D01*
X60290667Y-57386901D01*
X60244427Y-57546061D01*
X60241500Y-57583256D01*
X60241500Y-58060743D01*
X60244427Y-58097937D01*
X60258497Y-58146366D01*
X60263500Y-58181519D01*
X60263500Y-58916864D01*
X60262422Y-58933310D01*
X60258250Y-58965000D01*
X60262422Y-58996690D01*
X60262423Y-58996709D01*
X60263500Y-59004884D01*
X60263500Y-59004885D01*
X60264015Y-59008799D01*
X60264095Y-59009401D01*
X60264096Y-59009409D01*
X60279161Y-59123850D01*
X60340475Y-59271875D01*
X60350890Y-59285448D01*
X60372084Y-59327554D01*
X60376320Y-59374502D01*
X60366619Y-59472999D01*
X60386091Y-59670701D01*
X60443758Y-59860802D01*
X60537406Y-60036007D01*
X60663431Y-60189568D01*
X60816992Y-60315593D01*
X60816996Y-60315595D01*
X60992196Y-60409241D01*
X61087247Y-60438074D01*
X61182298Y-60466908D01*
X61380000Y-60486380D01*
X61577701Y-60466908D01*
X61767804Y-60409241D01*
X61943004Y-60315595D01*
X61943005Y-60315593D01*
X61943007Y-60315593D01*
X62096568Y-60189568D01*
X62222593Y-60036007D01*
X62227300Y-60027201D01*
X62316241Y-59860804D01*
X62373908Y-59670701D01*
X62393380Y-59473000D01*
X62386622Y-59404381D01*
X62373908Y-59275298D01*
X62330933Y-59133630D01*
X62316241Y-59085196D01*
X62222595Y-58909996D01*
X62176067Y-58853302D01*
X62162284Y-58822000D01*
X62978000Y-58822000D01*
X62978000Y-59016589D01*
X62984505Y-59077093D01*
X63035554Y-59213962D01*
X63123095Y-59330904D01*
X63240037Y-59418445D01*
X63376906Y-59469494D01*
X63437411Y-59476000D01*
X63682000Y-59476000D01*
X63682000Y-58822000D01*
X62978000Y-58822000D01*
X62162284Y-58822000D01*
X62148741Y-58791243D01*
X62157539Y-58724006D01*
X62199913Y-58671066D01*
X62253606Y-58651411D01*
X62253538Y-58651175D01*
X62257005Y-58650167D01*
X62263589Y-58647757D01*
X62265937Y-58647573D01*
X62425100Y-58601332D01*
X62567763Y-58516962D01*
X62684962Y-58399763D01*
X62743547Y-58300699D01*
X62789916Y-58255197D01*
X62852791Y-58238842D01*
X62915456Y-58255986D01*
X62938757Y-58279433D01*
X62941095Y-58277096D01*
X62977999Y-58314000D01*
X64064000Y-58314000D01*
X64127000Y-58330881D01*
X64173119Y-58377000D01*
X64190000Y-58440000D01*
X64190000Y-59476000D01*
X64434589Y-59476000D01*
X64495093Y-59469494D01*
X64631962Y-59418445D01*
X64748903Y-59330905D01*
X64750632Y-59328596D01*
X64799158Y-59289492D01*
X64860489Y-59278427D01*
X64919621Y-59298108D01*
X64962088Y-59343721D01*
X64977500Y-59404106D01*
X64977500Y-59966638D01*
X64984011Y-60027201D01*
X64987296Y-60036007D01*
X65035111Y-60164205D01*
X65122738Y-60281261D01*
X65239794Y-60368888D01*
X65239795Y-60368888D01*
X65239796Y-60368889D01*
X65376799Y-60419989D01*
X65437362Y-60426500D01*
X66434638Y-60426500D01*
X66495201Y-60419989D01*
X66632204Y-60368889D01*
X66749261Y-60281261D01*
X66836889Y-60164204D01*
X66887989Y-60027201D01*
X66894500Y-59966638D01*
X66894500Y-59442097D01*
X66911796Y-59378384D01*
X66958934Y-59332162D01*
X67022975Y-59316121D01*
X67086336Y-59334665D01*
X67131621Y-59382700D01*
X67141405Y-59401004D01*
X67267432Y-59554568D01*
X67329434Y-59605452D01*
X67363402Y-59648978D01*
X67375500Y-59702850D01*
X67375500Y-73773761D01*
X67365909Y-73821979D01*
X67338595Y-73862856D01*
X62253767Y-78947682D01*
X62241380Y-78958547D01*
X62216012Y-78978013D01*
X62188973Y-79013251D01*
X62188969Y-79013254D01*
X62188970Y-79013255D01*
X62118191Y-79105496D01*
X62116897Y-79108935D01*
X62057161Y-79253150D01*
X62040422Y-79380303D01*
X62040422Y-79380310D01*
X62036250Y-79412000D01*
X62040422Y-79443690D01*
X62041500Y-79460136D01*
X62041500Y-85332864D01*
X62040422Y-85349310D01*
X62036250Y-85381000D01*
X62040422Y-85412690D01*
X62040422Y-85412697D01*
X62054608Y-85520455D01*
X62054608Y-85520468D01*
X62057161Y-85539848D01*
X62118476Y-85687878D01*
X62191521Y-85783072D01*
X62191524Y-85783074D01*
X62216010Y-85814984D01*
X62216011Y-85814985D01*
X62216013Y-85814987D01*
X62241379Y-85834451D01*
X62253769Y-85845318D01*
X67338595Y-90930144D01*
X67365909Y-90971021D01*
X67375500Y-91019239D01*
X67375500Y-96411956D01*
X67362009Y-96468682D01*
X67324424Y-96513260D01*
X67270794Y-96536143D01*
X67175856Y-96552422D01*
X66838418Y-96610281D01*
X66385531Y-96728204D01*
X65944272Y-96884112D01*
X65517820Y-97076879D01*
X65109244Y-97305124D01*
X64721515Y-97567183D01*
X64357387Y-97861195D01*
X64019517Y-98185016D01*
X63710326Y-98536327D01*
X63432039Y-98912597D01*
X63186665Y-99311109D01*
X63083039Y-99516638D01*
X62975971Y-99728996D01*
X62975968Y-99729001D01*
X62975969Y-99729001D01*
X62801473Y-100163245D01*
X62664436Y-100610723D01*
X62565836Y-101068226D01*
X62506393Y-101532424D01*
X62491500Y-101883036D01*
X62491500Y-142116964D01*
X62506393Y-142467575D01*
X62565836Y-142931773D01*
X62664436Y-143389276D01*
X62801473Y-143836754D01*
X62931348Y-144159958D01*
X62975971Y-144271004D01*
X63186665Y-144688890D01*
X63432039Y-145087403D01*
X63710325Y-145463671D01*
X63710326Y-145463672D01*
X64019517Y-145814983D01*
X64307427Y-146090921D01*
X64357391Y-146138808D01*
X64721509Y-146432812D01*
X65109249Y-146694879D01*
X65517816Y-146923118D01*
X65944268Y-147115886D01*
X66385531Y-147271795D01*
X66838418Y-147389718D01*
X66838421Y-147389718D01*
X66838427Y-147389720D01*
X67299691Y-147468811D01*
X67766002Y-147508500D01*
X68233998Y-147508500D01*
X68700309Y-147468811D01*
X69161573Y-147389720D01*
X69614469Y-147271795D01*
X70055732Y-147115886D01*
X70482184Y-146923118D01*
X70890751Y-146694879D01*
X71278491Y-146432812D01*
X71642609Y-146138808D01*
X71980482Y-145814983D01*
X72289675Y-145463671D01*
X72567961Y-145087403D01*
X72813335Y-144688890D01*
X73024029Y-144271004D01*
X73198525Y-143836756D01*
X73335565Y-143389273D01*
X73434162Y-142931781D01*
X73493606Y-142467575D01*
X73508500Y-142116953D01*
X73508500Y-101883047D01*
X73493606Y-101532425D01*
X73434162Y-101068219D01*
X73335565Y-100610727D01*
X73263253Y-100374605D01*
X73198526Y-100163245D01*
X73133587Y-100001642D01*
X73024029Y-99728996D01*
X72813335Y-99311110D01*
X72567961Y-98912597D01*
X72289675Y-98536329D01*
X72223471Y-98461107D01*
X71980482Y-98185016D01*
X71642612Y-97861195D01*
X71642609Y-97861192D01*
X71278491Y-97567188D01*
X70890751Y-97305121D01*
X70482184Y-97076882D01*
X70482185Y-97076882D01*
X70482179Y-97076879D01*
X70166662Y-96934257D01*
X70055732Y-96884114D01*
X70055729Y-96884113D01*
X70055727Y-96884112D01*
X69614468Y-96728204D01*
X69161581Y-96610281D01*
X68697206Y-96530657D01*
X68643576Y-96507773D01*
X68605991Y-96463195D01*
X68592500Y-96406469D01*
X68592500Y-90763136D01*
X68593578Y-90746690D01*
X68597750Y-90715000D01*
X68593578Y-90683309D01*
X68593578Y-90683303D01*
X68576838Y-90556150D01*
X68517102Y-90411935D01*
X68515807Y-90408494D01*
X68515524Y-90408125D01*
X68515524Y-90408124D01*
X68442477Y-90312928D01*
X68442474Y-90312925D01*
X68437449Y-90306376D01*
X68437449Y-90306375D01*
X68437443Y-90306369D01*
X68417987Y-90281012D01*
X68392618Y-90261546D01*
X68380228Y-90250679D01*
X63295405Y-85165856D01*
X63268091Y-85124979D01*
X63258500Y-85076761D01*
X63258500Y-79716239D01*
X63268091Y-79668021D01*
X63295405Y-79627144D01*
X63974867Y-78947682D01*
X68380235Y-74542312D01*
X68392619Y-74531452D01*
X68393098Y-74531083D01*
X68417987Y-74511987D01*
X68442474Y-74480074D01*
X68442477Y-74480072D01*
X68515524Y-74384876D01*
X68576838Y-74236851D01*
X68579391Y-74217456D01*
X68592500Y-74117885D01*
X68593578Y-74109697D01*
X68593578Y-74109690D01*
X68597750Y-74078000D01*
X68593577Y-74046307D01*
X68592500Y-74029864D01*
X68592500Y-68000000D01*
X73555352Y-68000000D01*
X73575055Y-68237781D01*
X73575055Y-68237784D01*
X73575056Y-68237785D01*
X73633626Y-68469074D01*
X73729468Y-68687573D01*
X73729470Y-68687576D01*
X73859970Y-68887321D01*
X73859973Y-68887324D01*
X74021566Y-69062862D01*
X74209848Y-69209409D01*
X74419691Y-69322969D01*
X74419692Y-69322970D01*
X74645360Y-69400442D01*
X74763030Y-69420077D01*
X74880699Y-69439714D01*
X74880702Y-69439714D01*
X75119298Y-69439714D01*
X75119301Y-69439714D01*
X75220158Y-69422883D01*
X75354640Y-69400442D01*
X75580308Y-69322970D01*
X75790148Y-69209411D01*
X75978433Y-69062862D01*
X76140030Y-68887321D01*
X76270530Y-68687576D01*
X76366373Y-68469076D01*
X76424945Y-68237781D01*
X76444648Y-68000000D01*
X76424945Y-67762219D01*
X76366373Y-67530924D01*
X76270530Y-67312424D01*
X76140030Y-67112679D01*
X76098562Y-67067633D01*
X75978433Y-66937137D01*
X75790151Y-66790590D01*
X75580307Y-66677029D01*
X75402618Y-66616029D01*
X75354640Y-66599558D01*
X75354637Y-66599557D01*
X75354636Y-66599557D01*
X75119301Y-66560286D01*
X75119298Y-66560286D01*
X74880702Y-66560286D01*
X74880699Y-66560286D01*
X74645363Y-66599557D01*
X74419692Y-66677029D01*
X74209848Y-66790590D01*
X74021566Y-66937137D01*
X73859973Y-67112675D01*
X73729468Y-67312426D01*
X73633626Y-67530925D01*
X73575056Y-67762214D01*
X73575055Y-67762219D01*
X73555352Y-68000000D01*
X68592500Y-68000000D01*
X68592500Y-59808000D01*
X68937837Y-59808000D01*
X68983130Y-59963900D01*
X69067437Y-60106455D01*
X69184544Y-60223562D01*
X69327099Y-60307869D01*
X69486140Y-60354075D01*
X69508000Y-60355795D01*
X69508000Y-59808000D01*
X68937837Y-59808000D01*
X68592500Y-59808000D01*
X68592500Y-59702850D01*
X68604598Y-59648978D01*
X68638565Y-59605452D01*
X68700568Y-59554568D01*
X68826595Y-59401004D01*
X68844982Y-59366605D01*
X68891327Y-59317926D01*
X68956104Y-59300000D01*
X69227614Y-59300000D01*
X69291752Y-59317546D01*
X69304272Y-59324950D01*
X69326900Y-59338332D01*
X69486063Y-59384573D01*
X69523253Y-59387500D01*
X69890000Y-59387499D01*
X69953000Y-59404380D01*
X69999119Y-59450499D01*
X70016000Y-59513499D01*
X70016000Y-60355795D01*
X70037859Y-60354075D01*
X70196900Y-60307869D01*
X70339455Y-60223562D01*
X70456563Y-60106454D01*
X70542547Y-59961065D01*
X70588572Y-59915756D01*
X70651000Y-59899204D01*
X70713428Y-59915756D01*
X70759453Y-59961065D01*
X70845436Y-60106454D01*
X70962544Y-60223562D01*
X71105099Y-60307869D01*
X71264140Y-60354075D01*
X71286000Y-60355795D01*
X71286000Y-59808000D01*
X71794000Y-59808000D01*
X71794000Y-60355795D01*
X71815859Y-60354075D01*
X71974900Y-60307869D01*
X72117455Y-60223562D01*
X72234562Y-60106455D01*
X72318869Y-59963900D01*
X72364163Y-59808000D01*
X71794000Y-59808000D01*
X71286000Y-59808000D01*
X71286000Y-59513500D01*
X71302881Y-59450500D01*
X71349000Y-59404381D01*
X71412000Y-59387500D01*
X71778733Y-59387499D01*
X71778746Y-59387499D01*
X71815937Y-59384573D01*
X71975100Y-59338332D01*
X71997728Y-59324950D01*
X72010248Y-59317546D01*
X72074386Y-59300000D01*
X72364163Y-59300000D01*
X72318869Y-59144099D01*
X72312678Y-59133630D01*
X72295131Y-59069490D01*
X72312676Y-59005353D01*
X72319332Y-58994100D01*
X72365573Y-58834937D01*
X72368500Y-58797747D01*
X72368499Y-58452499D01*
X72385380Y-58389500D01*
X72431499Y-58343381D01*
X72494499Y-58326500D01*
X74150548Y-58326500D01*
X74283384Y-58326500D01*
X74983629Y-58326500D01*
X75031847Y-58336091D01*
X75072724Y-58363405D01*
X75791977Y-59082658D01*
X75816402Y-59117079D01*
X75820998Y-59133031D01*
X75822094Y-59132648D01*
X75886956Y-59318014D01*
X75983889Y-59472282D01*
X76112717Y-59601110D01*
X76229848Y-59674708D01*
X76266985Y-59698043D01*
X76438953Y-59758217D01*
X76620000Y-59778616D01*
X76801047Y-59758217D01*
X76973015Y-59698043D01*
X76976125Y-59696088D01*
X76980093Y-59693596D01*
X77014513Y-59678576D01*
X77028949Y-59674709D01*
X77050272Y-59663210D01*
X77066965Y-59655720D01*
X77089732Y-59647435D01*
X77131547Y-59619931D01*
X77140975Y-59614304D01*
X77185019Y-59590557D01*
X77203112Y-59574454D01*
X77217624Y-59563318D01*
X77237874Y-59550001D01*
X77272232Y-59513582D01*
X77280091Y-59505948D01*
X77317476Y-59472681D01*
X77331369Y-59452837D01*
X77342926Y-59438650D01*
X77359553Y-59421029D01*
X77384576Y-59377686D01*
X77390468Y-59368435D01*
X77419178Y-59327435D01*
X77428115Y-59304935D01*
X77436098Y-59288448D01*
X77445666Y-59271876D01*
X77448209Y-59267472D01*
X77462568Y-59219504D01*
X77466162Y-59209163D01*
X77484642Y-59162650D01*
X77488152Y-59138684D01*
X77492115Y-59120815D01*
X77499062Y-59097610D01*
X77500257Y-59077093D01*
X77501971Y-59047640D01*
X77503087Y-59036727D01*
X77510341Y-58987211D01*
X77508230Y-58963081D01*
X77507963Y-58944783D01*
X77509372Y-58920597D01*
X77500681Y-58871315D01*
X77499247Y-58860418D01*
X77497018Y-58834937D01*
X77494887Y-58810573D01*
X77490635Y-58797743D01*
X77487269Y-58787584D01*
X77482787Y-58769827D01*
X77478582Y-58745978D01*
X77458762Y-58700032D01*
X77454858Y-58689774D01*
X77439114Y-58642261D01*
X77439112Y-58642257D01*
X77426398Y-58621644D01*
X77417946Y-58605410D01*
X77408352Y-58583168D01*
X77408351Y-58583167D01*
X77408350Y-58583164D01*
X77378470Y-58543029D01*
X77372296Y-58533933D01*
X77346031Y-58491350D01*
X77346030Y-58491349D01*
X77328902Y-58474221D01*
X77316935Y-58460374D01*
X77302469Y-58440942D01*
X77301346Y-58440000D01*
X77264127Y-58408769D01*
X77256024Y-58401343D01*
X75931909Y-57077228D01*
X75919937Y-57063375D01*
X75905470Y-57043943D01*
X75899508Y-57038940D01*
X75866305Y-56995668D01*
X75854500Y-56942419D01*
X75854500Y-56590820D01*
X75849769Y-56550344D01*
X75839079Y-56458887D01*
X75778435Y-56292268D01*
X75761076Y-56265875D01*
X75749942Y-56244862D01*
X75713105Y-56155928D01*
X75686075Y-56120702D01*
X75663025Y-56071271D01*
X75663025Y-56016727D01*
X75686075Y-55967297D01*
X75713105Y-55932072D01*
X75773160Y-55787087D01*
X75788500Y-55670566D01*
X75789578Y-55662378D01*
X75790632Y-55662516D01*
X75798091Y-55625021D01*
X75825404Y-55584144D01*
X76015710Y-55393837D01*
X76028103Y-55382969D01*
X76048436Y-55367367D01*
X76053467Y-55363507D01*
X76127495Y-55267033D01*
X76151004Y-55236396D01*
X76160023Y-55214621D01*
X76197871Y-55164329D01*
X76255326Y-55138619D01*
X76318045Y-55143909D01*
X76438953Y-55186217D01*
X76620000Y-55206616D01*
X76801047Y-55186217D01*
X76973015Y-55126043D01*
X77127281Y-55029111D01*
X77256111Y-54900281D01*
X77353043Y-54746015D01*
X77413217Y-54574047D01*
X77433616Y-54393000D01*
X77413217Y-54211953D01*
X77353043Y-54039985D01*
X77315547Y-53980310D01*
X77256110Y-53885717D01*
X77127282Y-53756889D01*
X77126465Y-53756376D01*
X77121195Y-53750802D01*
X77117243Y-53746850D01*
X77117353Y-53746739D01*
X77083221Y-53710637D01*
X77067499Y-53649691D01*
X77067499Y-53290254D01*
X77064573Y-53253063D01*
X77018332Y-53093900D01*
X77012258Y-53083630D01*
X77011967Y-53083137D01*
X76994421Y-53018996D01*
X77011968Y-52954859D01*
X77018332Y-52944100D01*
X77064573Y-52784937D01*
X77067500Y-52747747D01*
X77067499Y-52508186D01*
X77077091Y-52459966D01*
X77083260Y-52445074D01*
X77085838Y-52438850D01*
X77101500Y-52319885D01*
X77102578Y-52311697D01*
X77102578Y-52311690D01*
X77102710Y-52310681D01*
X77106750Y-52280000D01*
X77102577Y-52248307D01*
X77101500Y-52231864D01*
X77101500Y-49265083D01*
X77111091Y-49216865D01*
X77123392Y-49198454D01*
X77121558Y-49197302D01*
X77156390Y-49141866D01*
X77226043Y-49031015D01*
X77286217Y-48859047D01*
X77306616Y-48678000D01*
X77286217Y-48496953D01*
X77226043Y-48324985D01*
X77191026Y-48269256D01*
X77129110Y-48170717D01*
X77000282Y-48041889D01*
X76846014Y-47944956D01*
X76674049Y-47884783D01*
X76493000Y-47864384D01*
X76311950Y-47884783D01*
X76139985Y-47944956D01*
X75985717Y-48041889D01*
X75856889Y-48170717D01*
X75838475Y-48200023D01*
X75786457Y-48246507D01*
X75717682Y-48258192D01*
X75604000Y-48245384D01*
X75422950Y-48265783D01*
X75250985Y-48325956D01*
X75096717Y-48422889D01*
X74967889Y-48551717D01*
X74870956Y-48705985D01*
X74810783Y-48877950D01*
X74801279Y-48962297D01*
X74789593Y-49002858D01*
X74765166Y-49037283D01*
X74191767Y-49610682D01*
X74179380Y-49621547D01*
X74154012Y-49641013D01*
X74126973Y-49676251D01*
X74126950Y-49676279D01*
X74056476Y-49768122D01*
X74003917Y-49895012D01*
X73995161Y-49916149D01*
X73978422Y-50043303D01*
X73978422Y-50043310D01*
X73974250Y-50074999D01*
X73978422Y-50106690D01*
X73979500Y-50123136D01*
X73979500Y-51842585D01*
X73969909Y-51890804D01*
X73942597Y-51931677D01*
X73924667Y-51949608D01*
X73893038Y-51981236D01*
X73875253Y-52011310D01*
X73824177Y-52097674D01*
X73784902Y-52138845D01*
X73731517Y-52158540D01*
X73706724Y-52156000D01*
X72556000Y-52156000D01*
X72556000Y-52810000D01*
X73147260Y-52810000D01*
X73204463Y-52823733D01*
X73249196Y-52861939D01*
X73271709Y-52916289D01*
X73267093Y-52974936D01*
X73236356Y-53025093D01*
X72996119Y-53265331D01*
X72758767Y-53502683D01*
X72746380Y-53513547D01*
X72721012Y-53533013D01*
X72693973Y-53568251D01*
X72693950Y-53568279D01*
X72623476Y-53660122D01*
X72568998Y-53791645D01*
X72562162Y-53808149D01*
X72545422Y-53935303D01*
X72545422Y-53935310D01*
X72541250Y-53967000D01*
X72545422Y-53998690D01*
X72546500Y-54015136D01*
X72546500Y-54983349D01*
X72539813Y-55023851D01*
X72520462Y-55060053D01*
X72446895Y-55155926D01*
X72386839Y-55300913D01*
X72371500Y-55417434D01*
X72371500Y-55670566D01*
X72386839Y-55787086D01*
X72446894Y-55932071D01*
X72456523Y-55944619D01*
X72473921Y-55967293D01*
X72474237Y-55967704D01*
X72497288Y-56017136D01*
X72497289Y-56071678D01*
X72474239Y-56121111D01*
X72447331Y-56156178D01*
X72387326Y-56301044D01*
X72373374Y-56407027D01*
X72345851Y-56470514D01*
X72288953Y-56509894D01*
X72219840Y-56513290D01*
X72159357Y-56479676D01*
X71374017Y-55694336D01*
X71342115Y-55640394D01*
X71337649Y-55625021D01*
X71303332Y-55506900D01*
X71296676Y-55495645D01*
X71279131Y-55431507D01*
X71296679Y-55367367D01*
X71302870Y-55356898D01*
X71348163Y-55201000D01*
X71058386Y-55201000D01*
X70994248Y-55183454D01*
X70959100Y-55162668D01*
X70799938Y-55116427D01*
X70792498Y-55115841D01*
X70762747Y-55113500D01*
X70762743Y-55113500D01*
X70762729Y-55113500D01*
X70395999Y-55113500D01*
X70333000Y-55096620D01*
X70286881Y-55050501D01*
X70270000Y-54987501D01*
X70270000Y-54145204D01*
X70778000Y-54145204D01*
X70778000Y-54693000D01*
X71348163Y-54693000D01*
X71302869Y-54537099D01*
X71218562Y-54394544D01*
X71101455Y-54277437D01*
X70958900Y-54193130D01*
X70799859Y-54146924D01*
X70778000Y-54145204D01*
X70270000Y-54145204D01*
X70248140Y-54146924D01*
X70089099Y-54193130D01*
X69946544Y-54277437D01*
X69829436Y-54394545D01*
X69806225Y-54433792D01*
X69763145Y-54477366D01*
X69704606Y-54495466D01*
X69644450Y-54483812D01*
X69596905Y-54445160D01*
X69494405Y-54308236D01*
X69494716Y-54308002D01*
X69476511Y-54286993D01*
X69461420Y-54235596D01*
X69469044Y-54182575D01*
X69498004Y-54137512D01*
X69579063Y-54056453D01*
X69663369Y-53913900D01*
X69708663Y-53758000D01*
X68756500Y-53758000D01*
X68693500Y-53741119D01*
X68647381Y-53695000D01*
X68630500Y-53632000D01*
X68630500Y-53463500D01*
X68647381Y-53400500D01*
X68693500Y-53354381D01*
X68756500Y-53337500D01*
X69123233Y-53337499D01*
X69123246Y-53337499D01*
X69160437Y-53334573D01*
X69319600Y-53288332D01*
X69345165Y-53273213D01*
X69354748Y-53267546D01*
X69418886Y-53250000D01*
X69708663Y-53250000D01*
X69663369Y-53094099D01*
X69657178Y-53083630D01*
X69639631Y-53019490D01*
X69657176Y-52955353D01*
X69663832Y-52944100D01*
X69710073Y-52784937D01*
X69713000Y-52747747D01*
X69712999Y-52508186D01*
X69722591Y-52459966D01*
X69728760Y-52445074D01*
X69731338Y-52438850D01*
X69747000Y-52319885D01*
X69748078Y-52311697D01*
X69748078Y-52311690D01*
X69748227Y-52310553D01*
X69752250Y-52280000D01*
X69748077Y-52248307D01*
X69747000Y-52231864D01*
X69747000Y-52156000D01*
X70944000Y-52156000D01*
X70944000Y-52350589D01*
X70950505Y-52411093D01*
X71001554Y-52547962D01*
X71089095Y-52664904D01*
X71206037Y-52752445D01*
X71342906Y-52803494D01*
X71403411Y-52810000D01*
X72048000Y-52810000D01*
X72048000Y-52156000D01*
X70944000Y-52156000D01*
X69747000Y-52156000D01*
X69747000Y-51648000D01*
X70944000Y-51648000D01*
X72048000Y-51648000D01*
X72048000Y-50994000D01*
X72556000Y-50994000D01*
X72556000Y-51648000D01*
X73660000Y-51648000D01*
X73660000Y-51453411D01*
X73653494Y-51392906D01*
X73602445Y-51256037D01*
X73514904Y-51139095D01*
X73397962Y-51051554D01*
X73261093Y-51000505D01*
X73200589Y-50994000D01*
X72556000Y-50994000D01*
X72048000Y-50994000D01*
X71403411Y-50994000D01*
X71342906Y-51000505D01*
X71206037Y-51051554D01*
X71089095Y-51139095D01*
X71001554Y-51256037D01*
X70950505Y-51392906D01*
X70944000Y-51453411D01*
X70944000Y-51648000D01*
X69747000Y-51648000D01*
X69747000Y-51183734D01*
X69757173Y-51134134D01*
X69786050Y-51092544D01*
X69828967Y-51065678D01*
X69884704Y-51044889D01*
X69884704Y-51044888D01*
X69884706Y-51044888D01*
X70001761Y-50957261D01*
X70046900Y-50896962D01*
X70089389Y-50840204D01*
X70140489Y-50703201D01*
X70147000Y-50642638D01*
X70147000Y-48745362D01*
X70140489Y-48684799D01*
X70089389Y-48547796D01*
X70080815Y-48536342D01*
X70001761Y-48430738D01*
X69884705Y-48343111D01*
X69816202Y-48317561D01*
X69747701Y-48292011D01*
X69743419Y-48291550D01*
X69730124Y-48290121D01*
X69681899Y-48274703D01*
X69643635Y-48241548D01*
X69591951Y-48174193D01*
X69591950Y-48174193D01*
X69591943Y-48174184D01*
X69589284Y-48170719D01*
X69582978Y-48162500D01*
X69572487Y-48148827D01*
X69547118Y-48129361D01*
X69534728Y-48118494D01*
X68649487Y-47233253D01*
X68616875Y-47176767D01*
X68616876Y-47111543D01*
X68624000Y-47099205D01*
X68624000Y-45444550D01*
X68640881Y-45381550D01*
X68687000Y-45335431D01*
X68750000Y-45318550D01*
X69006000Y-45318550D01*
X69069000Y-45335431D01*
X69115119Y-45381550D01*
X69132000Y-45444550D01*
X69132000Y-47080550D01*
X69426589Y-47080550D01*
X69497179Y-47072960D01*
X69524119Y-47072960D01*
X69538796Y-47074538D01*
X69538799Y-47074539D01*
X69599362Y-47081050D01*
X70696638Y-47081050D01*
X70757201Y-47074539D01*
X70757202Y-47074538D01*
X70769531Y-47073213D01*
X70796469Y-47073213D01*
X70808797Y-47074538D01*
X70808799Y-47074539D01*
X70869362Y-47081050D01*
X71966638Y-47081050D01*
X72027201Y-47074539D01*
X72164204Y-47023439D01*
X72281261Y-46935811D01*
X72368889Y-46818754D01*
X72419989Y-46681751D01*
X72426500Y-46621188D01*
X72426500Y-44523912D01*
X72419989Y-44463349D01*
X72368889Y-44326346D01*
X72341038Y-44289141D01*
X72281261Y-44209288D01*
X72269759Y-44200678D01*
X72229560Y-44149686D01*
X72220089Y-44085447D01*
X72243863Y-44025023D01*
X72294568Y-43984461D01*
X72358737Y-43974532D01*
X72358797Y-43974538D01*
X72358799Y-43974539D01*
X72419362Y-43981050D01*
X72733500Y-43981050D01*
X72796500Y-43997931D01*
X72842619Y-44044050D01*
X72859500Y-44107050D01*
X72859500Y-47031761D01*
X72849909Y-47079979D01*
X72822595Y-47120856D01*
X72386856Y-47556595D01*
X72345979Y-47583909D01*
X72297761Y-47593500D01*
X71403362Y-47593500D01*
X71342799Y-47600011D01*
X71205794Y-47651111D01*
X71088738Y-47738738D01*
X71001111Y-47855794D01*
X70967855Y-47944957D01*
X70950011Y-47992799D01*
X70943500Y-48053362D01*
X70943500Y-48950638D01*
X70950011Y-49011201D01*
X70959739Y-49037283D01*
X71001111Y-49148205D01*
X71088738Y-49265261D01*
X71205794Y-49352888D01*
X71205795Y-49352888D01*
X71205796Y-49352889D01*
X71342799Y-49403989D01*
X71403362Y-49410500D01*
X73200638Y-49410500D01*
X73261201Y-49403989D01*
X73398204Y-49352889D01*
X73515261Y-49265261D01*
X73602889Y-49148204D01*
X73653989Y-49011201D01*
X73660500Y-48950638D01*
X73660500Y-48056238D01*
X73670091Y-48008020D01*
X73697401Y-47967146D01*
X73864242Y-47800305D01*
X73876619Y-47789452D01*
X73877098Y-47789083D01*
X73901987Y-47769987D01*
X73926474Y-47738074D01*
X73926477Y-47738072D01*
X73999524Y-47642876D01*
X74060838Y-47494851D01*
X74071857Y-47411149D01*
X74076500Y-47375885D01*
X74077578Y-47367697D01*
X74077578Y-47367690D01*
X74081750Y-47336000D01*
X74077577Y-47304307D01*
X74076500Y-47287864D01*
X74076500Y-44232999D01*
X75552384Y-44232999D01*
X75572783Y-44414049D01*
X75632956Y-44586014D01*
X75729889Y-44740282D01*
X75858717Y-44869110D01*
X75858719Y-44869111D01*
X76012985Y-44966043D01*
X76184953Y-45026217D01*
X76366000Y-45046616D01*
X76547047Y-45026217D01*
X76719015Y-44966043D01*
X76873281Y-44869111D01*
X77002111Y-44740281D01*
X77099043Y-44586015D01*
X77159217Y-44414047D01*
X77168720Y-44329699D01*
X77180405Y-44289141D01*
X77204829Y-44254718D01*
X77778235Y-43681312D01*
X77790619Y-43670452D01*
X77798014Y-43664778D01*
X77815987Y-43650987D01*
X77840474Y-43619074D01*
X77840477Y-43619072D01*
X77913524Y-43523876D01*
X77974838Y-43375851D01*
X77981458Y-43325565D01*
X77990500Y-43256885D01*
X77991578Y-43248697D01*
X77991578Y-43248690D01*
X77995750Y-43217000D01*
X77994427Y-43206954D01*
X78002167Y-43144205D01*
X78039415Y-43093113D01*
X78098568Y-43044568D01*
X78224595Y-42891004D01*
X78318241Y-42715804D01*
X78375908Y-42525701D01*
X78395380Y-42328000D01*
X78375908Y-42130299D01*
X78318241Y-41940196D01*
X78224595Y-41764996D01*
X78224593Y-41764992D01*
X78098568Y-41611431D01*
X77945007Y-41485406D01*
X77769802Y-41391758D01*
X77579701Y-41334091D01*
X77382000Y-41314619D01*
X77184298Y-41334091D01*
X76994197Y-41391758D01*
X76818992Y-41485406D01*
X76665431Y-41611431D01*
X76539406Y-41764992D01*
X76445758Y-41940197D01*
X76388091Y-42130298D01*
X76368619Y-42327999D01*
X76388091Y-42525701D01*
X76445758Y-42715802D01*
X76539404Y-42891003D01*
X76605808Y-42971916D01*
X76631988Y-43027268D01*
X76628984Y-43088426D01*
X76597504Y-43140945D01*
X76344283Y-43394166D01*
X76309858Y-43418593D01*
X76269297Y-43430279D01*
X76184950Y-43439783D01*
X76012985Y-43499956D01*
X75858717Y-43596889D01*
X75729889Y-43725717D01*
X75632956Y-43879985D01*
X75572783Y-44051950D01*
X75552384Y-44232999D01*
X74076500Y-44232999D01*
X74076500Y-44107050D01*
X74093381Y-44044050D01*
X74139500Y-43997931D01*
X74202500Y-43981050D01*
X74516638Y-43981050D01*
X74577201Y-43974539D01*
X74714204Y-43923439D01*
X74831261Y-43835811D01*
X74918889Y-43718754D01*
X74969989Y-43581751D01*
X74976500Y-43521188D01*
X74976500Y-42423912D01*
X74969989Y-42363349D01*
X74969988Y-42363347D01*
X74968663Y-42351018D01*
X74968663Y-42324080D01*
X74976500Y-42251188D01*
X74976500Y-41153912D01*
X74968663Y-41081019D01*
X74968663Y-41054081D01*
X74976500Y-40981188D01*
X74976500Y-40657956D01*
X76851252Y-40657956D01*
X76974392Y-40723777D01*
X77164396Y-40781415D01*
X77362000Y-40800877D01*
X77559603Y-40781415D01*
X77749607Y-40723777D01*
X77872747Y-40657956D01*
X77362001Y-40147210D01*
X77362000Y-40147210D01*
X76851252Y-40657956D01*
X74976500Y-40657956D01*
X74976500Y-39883912D01*
X74975408Y-39873751D01*
X74969989Y-39823349D01*
X74969988Y-39823347D01*
X74968663Y-39811019D01*
X74968663Y-39787999D01*
X76349122Y-39787999D01*
X76368584Y-39985603D01*
X76426222Y-40175607D01*
X76492042Y-40298746D01*
X77002789Y-39788001D01*
X77721210Y-39788001D01*
X78231956Y-40298747D01*
X78297777Y-40175607D01*
X78355415Y-39985603D01*
X78374877Y-39787999D01*
X78355415Y-39590396D01*
X78297777Y-39400392D01*
X78231956Y-39277252D01*
X77721210Y-39788000D01*
X77721210Y-39788001D01*
X77002789Y-39788001D01*
X77002790Y-39788000D01*
X77002790Y-39787999D01*
X76492042Y-39277251D01*
X76492041Y-39277252D01*
X76426223Y-39400390D01*
X76368584Y-39590396D01*
X76349122Y-39787999D01*
X74968663Y-39787999D01*
X74968663Y-39784081D01*
X74976500Y-39711188D01*
X74976500Y-38918042D01*
X76851251Y-38918042D01*
X77361999Y-39428790D01*
X77362000Y-39428790D01*
X77872746Y-38918042D01*
X77872747Y-38918042D01*
X77749607Y-38852222D01*
X77559603Y-38794584D01*
X77362000Y-38775122D01*
X77164396Y-38794584D01*
X76974390Y-38852223D01*
X76851252Y-38918041D01*
X76851251Y-38918042D01*
X74976500Y-38918042D01*
X74976500Y-38613912D01*
X74968663Y-38541019D01*
X74968663Y-38514081D01*
X74976500Y-38441188D01*
X74976500Y-37666836D01*
X74995811Y-37599802D01*
X75047826Y-37553316D01*
X75116598Y-37541627D01*
X75126293Y-37542719D01*
X75166854Y-37554403D01*
X75201283Y-37578832D01*
X75266681Y-37644230D01*
X75277547Y-37656619D01*
X75297013Y-37681987D01*
X75322378Y-37701450D01*
X75322391Y-37701462D01*
X75393711Y-37756188D01*
X75393714Y-37756189D01*
X75424123Y-37779523D01*
X75424124Y-37779523D01*
X75424125Y-37779524D01*
X75500132Y-37811007D01*
X75572150Y-37840838D01*
X75699296Y-37857577D01*
X75699310Y-37857578D01*
X75731000Y-37861750D01*
X75762692Y-37857577D01*
X75779136Y-37856500D01*
X76517150Y-37856500D01*
X76571022Y-37868598D01*
X76614547Y-37902565D01*
X76665432Y-37964568D01*
X76818995Y-38090595D01*
X76906596Y-38137418D01*
X76994196Y-38184241D01*
X77089247Y-38213074D01*
X77184298Y-38241908D01*
X77382000Y-38261380D01*
X77579701Y-38241908D01*
X77769804Y-38184241D01*
X77945004Y-38090595D01*
X77945005Y-38090593D01*
X77945007Y-38090593D01*
X78098568Y-37964568D01*
X78224593Y-37811007D01*
X78241421Y-37779524D01*
X78318241Y-37635804D01*
X78375908Y-37445701D01*
X78395380Y-37248000D01*
X78380019Y-37092043D01*
X78375908Y-37050298D01*
X78318241Y-36860197D01*
X78318241Y-36860196D01*
X78224595Y-36684996D01*
X78224593Y-36684992D01*
X78098568Y-36531431D01*
X77945007Y-36405406D01*
X77769802Y-36311758D01*
X77579701Y-36254091D01*
X77382000Y-36234619D01*
X77184298Y-36254091D01*
X76994197Y-36311758D01*
X76818995Y-36405404D01*
X76665432Y-36531431D01*
X76658360Y-36540049D01*
X76614547Y-36593434D01*
X76571022Y-36627402D01*
X76517150Y-36639500D01*
X76133803Y-36639500D01*
X76083417Y-36628987D01*
X76041438Y-36599202D01*
X76014874Y-36555115D01*
X76009601Y-36540047D01*
X75956043Y-36386985D01*
X75908775Y-36311758D01*
X75859110Y-36232717D01*
X75802538Y-36176145D01*
X75771800Y-36125986D01*
X75767184Y-36067339D01*
X75789697Y-36012989D01*
X75834430Y-35974783D01*
X75891633Y-35961050D01*
X76689314Y-35961050D01*
X76705757Y-35962127D01*
X76737450Y-35966300D01*
X76769143Y-35962127D01*
X76769153Y-35962127D01*
X76777334Y-35961050D01*
X76777335Y-35961050D01*
X76885704Y-35946783D01*
X76885705Y-35946783D01*
X76889236Y-35946318D01*
X76896301Y-35945388D01*
X77044326Y-35884074D01*
X77139522Y-35811027D01*
X77139522Y-35811026D01*
X77156079Y-35798322D01*
X77156082Y-35798319D01*
X77171437Y-35786537D01*
X77171437Y-35786536D01*
X77190090Y-35762228D01*
X77239934Y-35723328D01*
X77302400Y-35713539D01*
X77382000Y-35721380D01*
X77382001Y-35721379D01*
X77382002Y-35721380D01*
X77579701Y-35701908D01*
X77579701Y-35701907D01*
X77769804Y-35644241D01*
X77945004Y-35550595D01*
X77945005Y-35550593D01*
X77945007Y-35550593D01*
X78098568Y-35424568D01*
X78224593Y-35271007D01*
X78226406Y-35267615D01*
X78318241Y-35095804D01*
X78375908Y-34905701D01*
X78395380Y-34708000D01*
X78393511Y-34689028D01*
X78375908Y-34510298D01*
X78318241Y-34320197D01*
X78318241Y-34320196D01*
X78224595Y-34144996D01*
X78224593Y-34144992D01*
X78098568Y-33991431D01*
X77945007Y-33865406D01*
X77769802Y-33771758D01*
X77579701Y-33714091D01*
X77381999Y-33694619D01*
X77228915Y-33709697D01*
X77168347Y-33700713D01*
X77119166Y-33664238D01*
X77092986Y-33608885D01*
X77095991Y-33547728D01*
X77127468Y-33495211D01*
X77415902Y-33206777D01*
X77451122Y-33181972D01*
X77492644Y-33170482D01*
X77579701Y-33161908D01*
X77769804Y-33104241D01*
X77945004Y-33010595D01*
X77945005Y-33010593D01*
X77945007Y-33010593D01*
X78098568Y-32884568D01*
X78224593Y-32731007D01*
X78224595Y-32731004D01*
X78318241Y-32555804D01*
X78375908Y-32365701D01*
X78395380Y-32168000D01*
X78375908Y-31970299D01*
X78375907Y-31970297D01*
X78318241Y-31780197D01*
X78318241Y-31780196D01*
X78224595Y-31604996D01*
X78224593Y-31604992D01*
X78098568Y-31451431D01*
X77945007Y-31325406D01*
X77769802Y-31231758D01*
X77579701Y-31174091D01*
X77382000Y-31154619D01*
X77184298Y-31174091D01*
X76994197Y-31231758D01*
X76818992Y-31325406D01*
X76665431Y-31451431D01*
X76539406Y-31604992D01*
X76445758Y-31780197D01*
X76388091Y-31970297D01*
X76379517Y-32057354D01*
X76368027Y-32098875D01*
X76343220Y-32134098D01*
X76088724Y-32388595D01*
X76047846Y-32415909D01*
X75999628Y-32425500D01*
X75397670Y-32425500D01*
X75356055Y-32418429D01*
X75277049Y-32390783D01*
X75086994Y-32369369D01*
X75033884Y-32350734D01*
X74994187Y-32310833D01*
X74975824Y-32257631D01*
X74969989Y-32203349D01*
X74969988Y-32203347D01*
X74968663Y-32191017D01*
X74968663Y-32164080D01*
X74976500Y-32091188D01*
X74976500Y-31422239D01*
X74986091Y-31374021D01*
X75013405Y-31333144D01*
X75709644Y-30636905D01*
X75750521Y-30609591D01*
X75798739Y-30600000D01*
X77093389Y-30600000D01*
X77129964Y-30605425D01*
G37*
G04 #@! TD.AperFunction*
G04 #@! TA.AperFunction,Conductor*
G36*
X61772436Y-47684406D02*
G01*
X61822595Y-47715144D01*
X62524595Y-48417144D01*
X62551909Y-48458021D01*
X62561500Y-48506239D01*
X62561500Y-48950638D01*
X62568011Y-49011201D01*
X62577739Y-49037283D01*
X62619111Y-49148205D01*
X62706738Y-49265261D01*
X62823794Y-49352888D01*
X62823795Y-49352888D01*
X62823796Y-49352889D01*
X62960799Y-49403989D01*
X63021362Y-49410500D01*
X64818638Y-49410500D01*
X64879201Y-49403989D01*
X65016204Y-49352889D01*
X65133261Y-49265261D01*
X65220889Y-49148204D01*
X65271989Y-49011201D01*
X65278500Y-48950638D01*
X65278500Y-48299239D01*
X65292233Y-48242036D01*
X65330439Y-48197303D01*
X65384789Y-48174790D01*
X65443436Y-48179406D01*
X65493595Y-48210144D01*
X65671901Y-48388450D01*
X65702822Y-48439178D01*
X65707062Y-48498435D01*
X65693297Y-48530581D01*
X65693942Y-48530822D01*
X65687612Y-48547794D01*
X65687611Y-48547796D01*
X65649486Y-48650014D01*
X65636511Y-48684800D01*
X65630000Y-48745362D01*
X65630000Y-50642638D01*
X65636511Y-50703200D01*
X65687611Y-50840205D01*
X65775238Y-50957261D01*
X65892293Y-51044888D01*
X65948033Y-51065678D01*
X65990950Y-51092544D01*
X66019827Y-51134134D01*
X66030000Y-51183734D01*
X66030000Y-51994864D01*
X66028922Y-52011310D01*
X66024750Y-52042999D01*
X66028922Y-52074690D01*
X66028922Y-52074697D01*
X66032255Y-52100013D01*
X66032255Y-52100014D01*
X66045661Y-52201849D01*
X66106976Y-52349878D01*
X66180021Y-52445072D01*
X66180024Y-52445074D01*
X66204510Y-52476984D01*
X66204511Y-52476985D01*
X66204513Y-52476987D01*
X66228705Y-52495551D01*
X66265006Y-52539784D01*
X66278000Y-52595511D01*
X66278000Y-52724742D01*
X66280927Y-52761937D01*
X66327168Y-52921100D01*
X66333823Y-52932353D01*
X66351368Y-52996489D01*
X66333824Y-53060625D01*
X66327630Y-53071097D01*
X66282337Y-53227000D01*
X66572114Y-53227000D01*
X66636252Y-53244546D01*
X66645475Y-53250000D01*
X66671400Y-53265332D01*
X66830563Y-53311573D01*
X66867753Y-53314500D01*
X67234500Y-53314499D01*
X67297500Y-53331380D01*
X67343619Y-53377499D01*
X67360500Y-53440499D01*
X67360500Y-54282795D01*
X67364745Y-54286719D01*
X67393705Y-54326629D01*
X67405130Y-54374597D01*
X67397272Y-54423276D01*
X67340011Y-54576799D01*
X67333500Y-54637362D01*
X67333500Y-54736761D01*
X67319767Y-54793964D01*
X67281561Y-54838697D01*
X67227211Y-54861210D01*
X67168564Y-54856594D01*
X67118405Y-54825856D01*
X66793171Y-54500622D01*
X66761836Y-54448575D01*
X66758498Y-54387916D01*
X66783933Y-54332745D01*
X66832228Y-54295889D01*
X66839677Y-54294649D01*
X66852500Y-54282796D01*
X66852500Y-53735000D01*
X66282336Y-53735000D01*
X66260255Y-53764409D01*
X66203415Y-53806854D01*
X66132653Y-53811864D01*
X66070400Y-53777851D01*
X65994835Y-53702286D01*
X65983968Y-53689895D01*
X65964506Y-53664531D01*
X65932594Y-53640044D01*
X65932594Y-53640045D01*
X65932592Y-53640043D01*
X65837396Y-53566996D01*
X65837395Y-53566995D01*
X65732724Y-53523639D01*
X65689371Y-53505682D01*
X65689370Y-53505681D01*
X65689368Y-53505681D01*
X65669988Y-53503128D01*
X65669976Y-53503128D01*
X65655989Y-53501286D01*
X65562223Y-53488942D01*
X65562211Y-53488942D01*
X65530520Y-53484770D01*
X65498827Y-53488942D01*
X65482384Y-53490020D01*
X62443478Y-53490020D01*
X62386112Y-53476204D01*
X62341327Y-53437784D01*
X62318944Y-53383188D01*
X62323873Y-53324388D01*
X62340830Y-53273213D01*
X62351000Y-53173668D01*
X62351000Y-53123000D01*
X61277500Y-53123000D01*
X61214500Y-53106119D01*
X61168381Y-53060000D01*
X61151500Y-52997000D01*
X61151500Y-51886000D01*
X61659500Y-51886000D01*
X61659500Y-52615000D01*
X62350999Y-52615000D01*
X62350999Y-52564333D01*
X62347205Y-52527195D01*
X62355507Y-52467740D01*
X62365969Y-52453077D01*
X62356137Y-52448870D01*
X62332032Y-52413798D01*
X62543914Y-52413798D01*
X62556835Y-52420727D01*
X62590609Y-52470357D01*
X62619554Y-52547962D01*
X62707095Y-52664904D01*
X62824037Y-52752445D01*
X62960906Y-52803494D01*
X63021411Y-52810000D01*
X63666000Y-52810000D01*
X63666000Y-52156000D01*
X64174000Y-52156000D01*
X64174000Y-52810000D01*
X64818589Y-52810000D01*
X64879093Y-52803494D01*
X65015962Y-52752445D01*
X65132904Y-52664904D01*
X65220445Y-52547962D01*
X65271494Y-52411093D01*
X65278000Y-52350589D01*
X65278000Y-52156000D01*
X64174000Y-52156000D01*
X63666000Y-52156000D01*
X62562000Y-52156000D01*
X62562000Y-52351413D01*
X62543914Y-52413798D01*
X62332032Y-52413798D01*
X62316395Y-52391046D01*
X62287391Y-52303519D01*
X62198202Y-52158922D01*
X62078077Y-52038797D01*
X61933480Y-51949608D01*
X61772211Y-51896169D01*
X61672668Y-51886000D01*
X61659500Y-51886000D01*
X61151500Y-51886000D01*
X61151500Y-51833810D01*
X61153007Y-51833810D01*
X61153007Y-51798413D01*
X61185617Y-51741930D01*
X61279547Y-51648000D01*
X62562000Y-51648000D01*
X63666000Y-51648000D01*
X63666000Y-50994000D01*
X64174000Y-50994000D01*
X64174000Y-51648000D01*
X65278000Y-51648000D01*
X65278000Y-51453411D01*
X65271494Y-51392906D01*
X65220445Y-51256037D01*
X65132904Y-51139095D01*
X65015962Y-51051554D01*
X64879093Y-51000505D01*
X64818589Y-50994000D01*
X64174000Y-50994000D01*
X63666000Y-50994000D01*
X63021411Y-50994000D01*
X62960906Y-51000505D01*
X62824037Y-51051554D01*
X62707095Y-51139095D01*
X62619554Y-51256037D01*
X62568505Y-51392906D01*
X62562000Y-51453411D01*
X62562000Y-51648000D01*
X61279547Y-51648000D01*
X61860145Y-51067402D01*
X61901022Y-51040090D01*
X61949240Y-51030499D01*
X62078743Y-51030499D01*
X62078746Y-51030499D01*
X62115937Y-51027573D01*
X62275100Y-50981332D01*
X62417763Y-50896962D01*
X62534962Y-50779763D01*
X62619332Y-50637100D01*
X62665573Y-50477937D01*
X62668500Y-50440747D01*
X62668499Y-49963254D01*
X62665573Y-49926063D01*
X62619332Y-49766900D01*
X62534962Y-49624237D01*
X62534960Y-49624235D01*
X62534959Y-49624233D01*
X62417766Y-49507040D01*
X62275098Y-49422667D01*
X62115938Y-49376427D01*
X62108498Y-49375841D01*
X62078747Y-49373500D01*
X62078743Y-49373500D01*
X62078726Y-49373500D01*
X61733499Y-49373500D01*
X61670500Y-49356620D01*
X61624381Y-49310501D01*
X61607500Y-49247501D01*
X61607500Y-47804239D01*
X61621233Y-47747036D01*
X61659439Y-47702303D01*
X61713789Y-47679790D01*
X61772436Y-47684406D01*
G37*
G04 #@! TD.AperFunction*
G04 #@! TA.AperFunction,Conductor*
G36*
X71978595Y-30618803D02*
G01*
X72025049Y-30669600D01*
X72037876Y-30737230D01*
X72021942Y-30778811D01*
X72023442Y-30779371D01*
X71966011Y-30933349D01*
X71959500Y-30993912D01*
X71959500Y-31093050D01*
X71942619Y-31156050D01*
X71896500Y-31202169D01*
X71833500Y-31219050D01*
X70869362Y-31219050D01*
X70808799Y-31225561D01*
X70671794Y-31276661D01*
X70554738Y-31364288D01*
X70467111Y-31481344D01*
X70416011Y-31618349D01*
X70409500Y-31678912D01*
X70409500Y-32676188D01*
X70416011Y-32736752D01*
X70427859Y-32768518D01*
X70435803Y-32812548D01*
X70427860Y-32856578D01*
X70416011Y-32888347D01*
X70409500Y-32948912D01*
X70409500Y-33946188D01*
X70416011Y-34006750D01*
X70427860Y-34038520D01*
X70435803Y-34082550D01*
X70427860Y-34126580D01*
X70416011Y-34158349D01*
X70409500Y-34218912D01*
X70409500Y-35216188D01*
X70416011Y-35276752D01*
X70427859Y-35308518D01*
X70435803Y-35352548D01*
X70427860Y-35396578D01*
X70416011Y-35428347D01*
X70409500Y-35488912D01*
X70409500Y-36486188D01*
X70416011Y-36546752D01*
X70427859Y-36578518D01*
X70435803Y-36622548D01*
X70427860Y-36666578D01*
X70416011Y-36698347D01*
X70409500Y-36758912D01*
X70409500Y-37756188D01*
X70416011Y-37816752D01*
X70427859Y-37848518D01*
X70435803Y-37892548D01*
X70427860Y-37936578D01*
X70416011Y-37968347D01*
X70409500Y-38028912D01*
X70409500Y-39026188D01*
X70416011Y-39086752D01*
X70427859Y-39118518D01*
X70435803Y-39162548D01*
X70427860Y-39206578D01*
X70416011Y-39238348D01*
X70409500Y-39298912D01*
X70409500Y-40296188D01*
X70416011Y-40356750D01*
X70427860Y-40388520D01*
X70435803Y-40432550D01*
X70427860Y-40476580D01*
X70416011Y-40508349D01*
X70409500Y-40568912D01*
X70409500Y-41566188D01*
X70416011Y-41626750D01*
X70467111Y-41763755D01*
X70554738Y-41880811D01*
X70671794Y-41968438D01*
X70671795Y-41968438D01*
X70671796Y-41968439D01*
X70808799Y-42019539D01*
X70869362Y-42026050D01*
X71833500Y-42026050D01*
X71896500Y-42042931D01*
X71942619Y-42089050D01*
X71959500Y-42152050D01*
X71959500Y-42251190D01*
X71967336Y-42324081D01*
X71967336Y-42351016D01*
X71959500Y-42423909D01*
X71959500Y-42830322D01*
X71940460Y-42896922D01*
X71889094Y-42943394D01*
X71820926Y-42955693D01*
X71756558Y-42930101D01*
X71715444Y-42874354D01*
X71678888Y-42776344D01*
X71591261Y-42659288D01*
X71474205Y-42571661D01*
X71368969Y-42532410D01*
X71337201Y-42520561D01*
X71276638Y-42514050D01*
X70279362Y-42514050D01*
X70218799Y-42520561D01*
X70187030Y-42532410D01*
X70143000Y-42540353D01*
X70098970Y-42532410D01*
X70080982Y-42525701D01*
X70067201Y-42520561D01*
X70006638Y-42514050D01*
X69009362Y-42514050D01*
X68948799Y-42520561D01*
X68917030Y-42532410D01*
X68873000Y-42540353D01*
X68828970Y-42532410D01*
X68810982Y-42525701D01*
X68797201Y-42520561D01*
X68736638Y-42514050D01*
X67739362Y-42514050D01*
X67678799Y-42520561D01*
X67647030Y-42532410D01*
X67603000Y-42540353D01*
X67558970Y-42532410D01*
X67540982Y-42525701D01*
X67527201Y-42520561D01*
X67466638Y-42514050D01*
X66469362Y-42514050D01*
X66408799Y-42520561D01*
X66377030Y-42532410D01*
X66333000Y-42540353D01*
X66288970Y-42532410D01*
X66270982Y-42525701D01*
X66257201Y-42520561D01*
X66196638Y-42514050D01*
X65199362Y-42514050D01*
X65138799Y-42520561D01*
X65107030Y-42532410D01*
X65063000Y-42540353D01*
X65018970Y-42532410D01*
X65000982Y-42525701D01*
X64987201Y-42520561D01*
X64926638Y-42514050D01*
X63929362Y-42514050D01*
X63868799Y-42520561D01*
X63837030Y-42532410D01*
X63793000Y-42540353D01*
X63748970Y-42532410D01*
X63730982Y-42525701D01*
X63717201Y-42520561D01*
X63656638Y-42514050D01*
X62659362Y-42514050D01*
X62598799Y-42520561D01*
X62461794Y-42571661D01*
X62344738Y-42659288D01*
X62257111Y-42776344D01*
X62220556Y-42874354D01*
X62179442Y-42930101D01*
X62115074Y-42955693D01*
X62046906Y-42943394D01*
X61995540Y-42896922D01*
X61976500Y-42830322D01*
X61976500Y-42423912D01*
X61968663Y-42351018D01*
X61968663Y-42324080D01*
X61976500Y-42251188D01*
X61976500Y-41153912D01*
X61968663Y-41081018D01*
X61968663Y-41054080D01*
X61976500Y-40981188D01*
X61976500Y-39883912D01*
X61972001Y-39842061D01*
X61969989Y-39823349D01*
X61969988Y-39823347D01*
X61968663Y-39811018D01*
X61968663Y-39784080D01*
X61976500Y-39711188D01*
X61976500Y-38613912D01*
X61968663Y-38541018D01*
X61968663Y-38514080D01*
X61976500Y-38441188D01*
X61976500Y-37343913D01*
X61976500Y-37343912D01*
X61971072Y-37293426D01*
X61977580Y-37237891D01*
X62007482Y-37190638D01*
X62054886Y-37160978D01*
X62110454Y-37154752D01*
X62269000Y-37172616D01*
X62450047Y-37152217D01*
X62622015Y-37092043D01*
X62776281Y-36995111D01*
X62905111Y-36866281D01*
X63002043Y-36712015D01*
X63062217Y-36540047D01*
X63082616Y-36359000D01*
X63062217Y-36177953D01*
X63002043Y-36005985D01*
X62905111Y-35851719D01*
X62905110Y-35851717D01*
X62776282Y-35722889D01*
X62622014Y-35625956D01*
X62450049Y-35565783D01*
X62365701Y-35556279D01*
X62325140Y-35544593D01*
X62290715Y-35520166D01*
X62231220Y-35460671D01*
X62199638Y-35407814D01*
X62196876Y-35346302D01*
X62223592Y-35290826D01*
X62273406Y-35254634D01*
X62334422Y-35246368D01*
X62341950Y-35247216D01*
X62341953Y-35247217D01*
X62523000Y-35267616D01*
X62704047Y-35247217D01*
X62876015Y-35187043D01*
X63030281Y-35090111D01*
X63159111Y-34961281D01*
X63256043Y-34807015D01*
X63316217Y-34635047D01*
X63336616Y-34454000D01*
X63316217Y-34272953D01*
X63256043Y-34100985D01*
X63250553Y-34092247D01*
X63159110Y-33946717D01*
X63030282Y-33817889D01*
X62876014Y-33720956D01*
X62704049Y-33660783D01*
X62654859Y-33655240D01*
X62618612Y-33651156D01*
X62556002Y-33625900D01*
X62553624Y-33624075D01*
X62553622Y-33624073D01*
X62458426Y-33551026D01*
X62458425Y-33551025D01*
X62323672Y-33495209D01*
X62310401Y-33489712D01*
X62310400Y-33489711D01*
X62310398Y-33489711D01*
X62291018Y-33487158D01*
X62291006Y-33487158D01*
X62277019Y-33485316D01*
X62183253Y-33472972D01*
X62183241Y-33472972D01*
X62151550Y-33468800D01*
X62119857Y-33472972D01*
X62103414Y-33474050D01*
X62102500Y-33474050D01*
X62039500Y-33457169D01*
X61993381Y-33411050D01*
X61976500Y-33348050D01*
X61976500Y-32263912D01*
X61968663Y-32191018D01*
X61968663Y-32164080D01*
X61976500Y-32091188D01*
X61976500Y-30993912D01*
X61975414Y-30983814D01*
X61969989Y-30933349D01*
X61918889Y-30796346D01*
X61912558Y-30779371D01*
X61914057Y-30778811D01*
X61898124Y-30737230D01*
X61910951Y-30669600D01*
X61957405Y-30618803D01*
X62023623Y-30600000D01*
X71912377Y-30600000D01*
X71978595Y-30618803D01*
G37*
G04 #@! TD.AperFunction*
M02*
